<?xml version="1.0" standalone="no"?>
<!DOCTYPE svg PUBLIC "-//W3C//DTD SVG 20010904//EN"
 "http://www.w3.org/TR/2001/REC-SVG-20010904/DTD/svg10.dtd">
<svg version="1.0" xmlns="http://www.w3.org/2000/svg"
 width="700.000000pt" height="700.000000pt" viewBox="0 0 700.000000 700.000000"
 preserveAspectRatio="xMidYMid meet">
<metadata>
Created by potrace 1.11, written by Peter Selinger 2001-2013
</metadata>
<g transform="translate(0.000000,700.000000) scale(0.100000,-0.100000)"
fill="#000000" stroke="none">
<path d="M3279 6996 c-2 -2 -46 -6 -97 -10 -79 -5 -267 -29 -402 -52 -295 -48
-684 -176 -970 -319 -114 -58 -160 -83 -304 -170 -26 -17 -101 -68 -165 -116
-668 -491 -1102 -1201 -1270 -2081 -11 -59 -23 -124 -26 -145 -21 -165 -26
-209 -33 -293 -14 -190 -7 -729 12 -840 3 -14 7 -47 11 -75 64 -529 266 -1070
553 -1485 201 -291 469 -562 767 -775 334 -239 822 -450 1250 -540 144 -31
162 -34 274 -50 231 -34 400 -44 711 -40 168 2 316 6 330 8 14 3 61 8 105 12
44 4 82 8 85 10 3 1 32 6 65 9 33 4 126 20 207 36 541 108 997 314 1403 634
50 39 96 76 103 83 10 10 2 21 -45 57 -32 25 -201 155 -377 289 l-319 245 -73
-54 c-421 -312 -955 -465 -1589 -458 -619 7 -1131 166 -1565 488 -97 72 -304
271 -377 361 -363 453 -547 1031 -546 1720 0 139 8 315 18 395 1 14 6 50 9 80
4 30 9 62 11 70 2 8 7 35 10 60 3 25 8 52 10 60 2 8 7 29 10 47 3 18 18 84 35
147 246 953 947 1600 1911 1760 223 37 308 44 554 43 442 -1 789 -61 1143
-199 411 -160 749 -429 976 -779 179 -277 297 -625 340 -1004 15 -126 18 -187
18 -341 0 -677 -144 -1009 -462 -1065 -136 -23 -299 10 -364 76 -69 69 -66 13
-66 1182 0 996 -1 1053 -17 1054 -88 4 -707 3 -715 -2 -5 -3 -9 -10 -8 -15 2
-8 -11 -155 -15 -179 -1 -5 -3 -25 -3 -42 -3 -47 -22 -42 -89 25 -144 143
-332 239 -553 282 -325 64 -686 39 -965 -65 -540 -203 -887 -666 -965 -1290
-15 -115 -15 -385 -1 -495 95 -718 539 -1230 1192 -1373 63 -14 146 -28 184
-31 78 -7 316 -8 355 -2 14 2 52 7 85 11 183 20 389 93 548 192 52 32 137 102
200 165 26 26 56 48 67 48 10 0 28 -15 39 -34 28 -45 141 -150 205 -191 202
-129 444 -187 751 -179 276 6 474 50 685 153 429 209 719 644 825 1236 44 247
56 634 29 914 -73 761 -367 1408 -863 1901 -306 305 -583 483 -1066 685 -178
75 -592 180 -830 210 -27 4 -59 8 -71 10 -11 2 -52 6 -90 10 -38 4 -82 9 -99
12 -37 5 -680 14 -686 9z m449 -2792 c239 -69 394 -226 464 -469 30 -106 33
-352 4 -455 -53 -195 -181 -358 -346 -439 -252 -124 -611 -96 -815 63 -69 53
-75 60 -115 111 -55 72 -96 160 -124 267 -21 80 -23 112 -21 233 3 167 24 256
87 377 97 188 289 311 520 336 119 13 250 4 346 -24z"/>
</g>
</svg>
