<svg xmlns="http://www.w3.org/2000/svg" width="1080" height="1080" viewBox="0 0 1080 1080">
  <g fill="none" fill-rule="evenodd">
    <rect width="1080" height="1080" fill="#222"/>
    <path fill="#FFF" fill-rule="nonzero" d="M356.547793,332.170552 L356.547793,279.043989 C349.111335,279.043989 342.68321,276.302583 337.263418,270.81977 C331.843627,265.336958 329.07071,258.814302 328.944668,251.251802 L328.944668,251.251802 L328.944668,191.318989 L356.547793,191.318989 L356.547793,138.570552 L328.944668,138.570552 L328.944668,57.2736767 L275.439981,57.2736767 L275.439981,138.570552 L247.836856,138.570552 L247.836856,191.318989 L275.439981,191.318989 L275.439981,251.251802 C275.566022,265.998677 279.284252,279.516645 286.594668,291.805708 C293.905085,304.09477 303.673314,313.89451 315.899356,321.204927 C328.125397,328.515343 341.674877,332.170552 356.547793,332.170552 L356.547793,332.170552 Z M435.386856,332.170552 L435.386856,235.181489 C435.386856,226.106489 437.592585,217.81925 442.004043,210.31977 C446.415502,202.820291 452.37097,196.833312 459.87045,192.358833 C467.369929,187.884354 475.657168,185.647114 484.732168,185.647114 C493.807168,185.647114 502.094408,187.884354 509.593887,192.358833 C517.093366,196.833312 523.080345,202.820291 527.554825,210.31977 C532.029304,217.81925 534.266543,226.106489 534.266543,235.181489 L534.266543,235.181489 L534.266543,332.170552 L587.771231,332.170552 L587.771231,235.181489 C587.771231,221.064823 585.092845,207.798937 579.736075,195.383833 C574.379304,182.968729 566.942845,172.034614 557.4267,162.581489 C547.910554,153.128364 536.944929,145.723416 524.529825,140.366645 C512.11472,135.009875 498.848835,132.331489 484.732168,132.331489 C475.78321,132.331489 467.149356,133.434354 458.830606,135.640083 C450.511856,137.845812 442.697272,140.965343 435.386856,144.998677 L435.386856,144.998677 L435.386856,57.2736767 L381.882168,57.2736767 L381.882168,332.170552 L435.386856,332.170552 Z M671.714981,113.614302 L671.714981,57.2736767 L615.374356,57.2736767 L615.374356,113.614302 L671.714981,113.614302 Z M671.714981,332.170552 L671.714981,138.570552 L615.374356,138.570552 L615.374356,332.170552 L671.714981,332.170552 Z M756.982168,337.464302 C768.578002,337.464302 779.133991,334.628364 788.650137,328.956489 C798.166283,323.284614 805.760293,315.659093 811.432168,306.079927 C817.104043,296.50076 819.939981,285.91326 819.939981,274.317427 C819.939981,262.721593 817.104043,252.165604 811.432168,242.649458 C805.760293,233.133312 798.166283,225.507791 788.650137,219.772895 C779.133991,214.038 768.578002,211.170552 756.982168,211.170552 C752.822793,211.170552 749.293627,209.721073 746.394668,206.822114 C743.49571,203.923156 742.046231,200.393989 742.046231,196.234614 C742.046231,192.201281 743.49571,188.703625 746.394668,185.741645 C749.293627,182.779666 752.822793,181.298677 756.982168,181.298677 C761.015502,181.298677 764.450137,182.779666 767.286075,185.741645 C770.122012,188.703625 771.539981,192.201281 771.539981,196.234614 L771.539981,196.234614 L819.939981,196.234614 C819.939981,184.638781 817.072533,174.082791 811.337637,164.566645 C805.602741,155.0505 797.97722,147.424979 788.461075,141.690083 C778.944929,135.955187 768.388939,133.087739 756.793106,133.087739 C745.197272,133.087739 734.609772,135.955187 725.030606,141.690083 C715.451439,147.424979 707.825918,155.0505 702.154043,164.566645 C696.482168,174.082791 693.646231,184.638781 693.646231,196.234614 C693.646231,207.704406 696.482168,218.260395 702.154043,227.902583 C707.825918,237.54477 715.451439,245.233312 725.030606,250.968208 C734.609772,256.703104 745.197272,259.570552 756.793106,259.570552 C760.826439,259.570552 764.261075,261.020031 767.097012,263.918989 C769.93295,266.817948 771.350918,270.284093 771.350918,274.317427 C771.350918,278.35076 769.93295,281.848416 767.097012,284.810395 C764.261075,287.772375 760.826439,289.253364 756.793106,289.253364 C752.759772,289.253364 749.262116,287.772375 746.300137,284.810395 C743.338158,281.848416 741.857168,278.35076 741.857168,274.317427 L741.857168,274.317427 L693.646231,274.317427 C693.646231,285.91326 696.513679,296.50076 702.248575,306.079927 C707.98347,315.659093 715.640502,323.284614 725.219668,328.956489 C734.798835,334.628364 745.386335,337.464302 756.982168,337.464302 Z M163.704043,670.970552 L163.704043,396.073677 L107.363418,396.073677 L107.363418,670.970552 L163.704043,670.970552 Z M287.729043,676.831489 C301.84571,676.831489 315.111595,674.153104 327.5267,668.796333 C339.941804,663.439562 350.875918,656.034614 360.329043,646.581489 C369.782168,637.128364 377.187116,626.19425 382.543887,613.779145 C387.900658,601.364041 390.579043,588.098156 390.579043,573.981489 C390.579043,559.864823 387.900658,546.598937 382.543887,534.183833 C377.187116,521.768729 369.782168,510.834614 360.329043,501.381489 C350.875918,491.928364 339.941804,484.523416 327.5267,479.166645 C315.111595,473.809875 301.84571,471.131489 287.729043,471.131489 C273.612377,471.131489 260.314981,473.809875 247.836856,479.166645 C235.358731,484.523416 224.424616,491.928364 215.034512,501.381489 C205.644408,510.834614 198.27097,521.768729 192.9142,534.183833 C187.557429,546.598937 184.879043,559.864823 184.879043,573.981489 C184.879043,588.098156 187.557429,601.364041 192.9142,613.779145 C198.27097,626.19425 205.644408,637.128364 215.034512,646.581489 C224.424616,656.034614 235.358731,663.439562 247.836856,668.796333 C260.314981,674.153104 273.612377,676.831489 287.729043,676.831489 Z M287.729043,623.515864 C278.654043,623.515864 270.366804,621.278625 262.867325,616.804145 C255.367845,612.329666 249.412377,606.342687 245.000918,598.843208 C240.58946,591.343729 238.383731,583.056489 238.383731,573.981489 C238.383731,564.906489 240.58946,556.61925 245.000918,549.11977 C249.412377,541.620291 255.367845,535.633312 262.867325,531.158833 C270.366804,526.684354 278.654043,524.447114 287.729043,524.447114 C296.804043,524.447114 305.091283,526.684354 312.590762,531.158833 C320.090241,535.633312 326.07722,541.620291 330.5517,549.11977 C335.026179,556.61925 337.263418,564.906489 337.263418,573.981489 C337.263418,583.056489 335.026179,591.343729 330.5517,598.843208 C326.07722,606.342687 320.090241,612.329666 312.590762,616.804145 C305.091283,621.278625 296.804043,623.515864 287.729043,623.515864 Z M516.116543,676.831489 C530.23321,676.831489 543.499095,674.153104 555.9142,668.796333 C568.329304,663.439562 579.263418,656.034614 588.716543,646.581489 C598.169668,637.128364 605.574616,626.19425 610.931387,613.779145 C616.288158,601.364041 618.966543,588.098156 618.966543,573.981489 C618.966543,559.864823 616.288158,546.598937 610.931387,534.183833 C605.574616,521.768729 598.169668,510.834614 588.716543,501.381489 C579.263418,491.928364 568.329304,484.523416 555.9142,479.166645 C543.499095,473.809875 530.23321,471.131489 516.116543,471.131489 C501.999877,471.131489 488.702481,473.809875 476.224356,479.166645 C463.746231,484.523416 452.812116,491.928364 443.422012,501.381489 C434.031908,510.834614 426.65847,521.768729 421.3017,534.183833 C415.944929,546.598937 413.266543,559.864823 413.266543,573.981489 C413.266543,588.098156 415.944929,601.364041 421.3017,613.779145 C426.65847,626.19425 434.031908,637.128364 443.422012,646.581489 C452.812116,656.034614 463.746231,663.439562 476.224356,668.796333 C488.702481,674.153104 501.999877,676.831489 516.116543,676.831489 Z M516.116543,623.515864 C507.041543,623.515864 498.754304,621.278625 491.254825,616.804145 C483.755345,612.329666 477.799877,606.342687 473.388418,598.843208 C468.97696,591.343729 466.771231,583.056489 466.771231,573.981489 C466.771231,564.906489 468.97696,556.61925 473.388418,549.11977 C477.799877,541.620291 483.755345,535.633312 491.254825,531.158833 C498.754304,526.684354 507.041543,524.447114 516.116543,524.447114 C525.191543,524.447114 533.478783,526.684354 540.978262,531.158833 C548.477741,535.633312 554.46472,541.620291 558.9392,549.11977 C563.413679,556.61925 565.650918,564.906489 565.650918,573.981489 C565.650918,583.056489 563.413679,591.343729 558.9392,598.843208 C554.46472,606.342687 548.477741,612.329666 540.978262,616.804145 C533.478783,621.278625 525.191543,623.515864 516.116543,623.515864 Z M701.019668,670.970552 L701.019668,606.689302 L765.300918,670.970552 L844.896231,670.970552 L747.529043,573.603364 L843.761856,477.370552 L764.166543,477.370552 L701.019668,540.328364 L701.019668,396.073677 L644.679043,396.073677 L644.679043,670.970552 L701.019668,670.970552 Z M906.341543,676.264302 C917.937377,676.264302 928.493366,673.428364 938.009512,667.756489 C947.525658,662.084614 955.119668,654.459093 960.791543,644.879927 C966.463418,635.30076 969.299356,624.71326 969.299356,613.117427 C969.299356,601.521593 966.463418,590.965604 960.791543,581.449458 C955.119668,571.933312 947.525658,564.307791 938.009512,558.572895 C928.493366,552.838 917.937377,549.970552 906.341543,549.970552 C902.182168,549.970552 898.653002,548.521073 895.754043,545.622114 C892.855085,542.723156 891.405606,539.193989 891.405606,535.034614 C891.405606,531.001281 892.855085,527.503625 895.754043,524.541645 C898.653002,521.579666 902.182168,520.098677 906.341543,520.098677 C910.374877,520.098677 913.809512,521.579666 916.64545,524.541645 C919.481387,527.503625 920.899356,531.001281 920.899356,535.034614 L920.899356,535.034614 L969.299356,535.034614 C969.299356,523.438781 966.431908,512.882791 960.697012,503.366645 C954.962116,493.8505 947.336595,486.224979 937.82045,480.490083 C928.304304,474.755187 917.748314,471.887739 906.152481,471.887739 C894.556647,471.887739 883.969147,474.755187 874.389981,480.490083 C864.810814,486.224979 857.185293,493.8505 851.513418,503.366645 C845.841543,512.882791 843.005606,523.438781 843.005606,535.034614 C843.005606,546.504406 845.841543,557.060395 851.513418,566.702583 C857.185293,576.34477 864.810814,584.033312 874.389981,589.768208 C883.969147,595.503104 894.556647,598.370552 906.152481,598.370552 C910.185814,598.370552 913.62045,599.820031 916.456387,602.718989 C919.292325,605.617948 920.710293,609.084093 920.710293,613.117427 C920.710293,617.15076 919.292325,620.648416 916.456387,623.610395 C913.62045,626.572375 910.185814,628.053364 906.152481,628.053364 C902.119147,628.053364 898.621491,626.572375 895.659512,623.610395 C892.697533,620.648416 891.216543,617.15076 891.216543,613.117427 L891.216543,613.117427 L843.005606,613.117427 C843.005606,624.71326 845.873054,635.30076 851.60795,644.879927 C857.342845,654.459093 864.999877,662.084614 874.579043,667.756489 C884.15821,673.428364 894.74571,676.264302 906.341543,676.264302 Z M304.08295,1015.63149 C318.325658,1015.63149 331.654564,1012.9531 344.069668,1007.59633 C356.484772,1002.23956 367.418887,994.834614 376.872012,985.381489 C386.325137,975.928364 393.730085,964.99425 399.086856,952.579145 C404.443627,940.164041 407.122012,926.898156 407.122012,912.781489 C407.122012,898.664823 404.443627,885.398937 399.086856,872.983833 C393.730085,860.568729 386.325137,849.634614 376.872012,840.181489 C367.418887,830.728364 356.484772,823.323416 344.069668,817.966645 C331.654564,812.609875 318.325658,809.931489 304.08295,809.931489 C295.133991,809.931489 286.500137,811.034354 278.181387,813.240083 C269.862637,815.445812 262.048054,818.565343 254.737637,822.598677 L254.737637,822.598677 L254.737637,734.873677 L201.23295,734.873677 L201.23295,1009.77055 L254.737637,1009.77055 L254.737637,1002.9643 C262.048054,1006.99764 269.862637,1010.11717 278.181387,1012.3229 C286.500137,1014.52862 295.133991,1015.63149 304.08295,1015.63149 Z M304.08295,962.315864 C295.00795,962.315864 286.72071,960.078625 279.221231,955.604145 C271.721752,951.129666 265.766283,945.142687 261.354825,937.643208 C256.943366,930.143729 254.737637,921.856489 254.737637,912.781489 C254.737637,903.706489 256.943366,895.41925 261.354825,887.91977 C265.766283,880.420291 271.721752,874.433312 279.221231,869.958833 C286.72071,865.484354 295.00795,863.247114 304.08295,863.247114 C313.15795,863.247114 321.445189,865.484354 328.944668,869.958833 C336.444147,874.433312 342.431127,880.420291 346.905606,887.91977 C351.380085,895.41925 353.617325,903.706489 353.617325,912.781489 C353.617325,921.856489 351.380085,930.143729 346.905606,937.643208 C342.431127,945.142687 336.444147,951.129666 328.944668,955.604145 C321.445189,960.078625 313.15795,962.315864 304.08295,962.315864 Z M532.659512,1015.63149 C541.60847,1015.63149 550.242325,1014.52862 558.561075,1012.3229 C566.879825,1010.11717 574.694408,1006.99764 582.004825,1002.9643 L582.004825,1002.9643 L582.004825,1009.77055 L635.509512,1009.77055 L635.509512,816.170552 L582.004825,816.170552 L582.004825,822.598677 C574.694408,818.565343 566.879825,815.445812 558.561075,813.240083 C550.242325,811.034354 541.60847,809.931489 532.659512,809.931489 C518.542845,809.931489 505.24545,812.609875 492.767325,817.966645 C480.2892,823.323416 469.323575,830.728364 459.87045,840.181489 C450.417325,849.634614 443.012377,860.568729 437.655606,872.983833 C432.298835,885.398937 429.62045,898.664823 429.62045,912.781489 C429.62045,926.898156 432.298835,940.164041 437.655606,952.579145 C443.012377,964.99425 450.417325,975.928364 459.87045,985.381489 C469.323575,994.834614 480.2892,1002.23956 492.767325,1007.59633 C505.24545,1012.9531 518.542845,1015.63149 532.659512,1015.63149 Z M532.659512,962.315864 C523.584512,962.315864 515.297272,960.078625 507.797793,955.604145 C500.298314,951.129666 494.311335,945.142687 489.836856,937.643208 C485.362377,930.143729 483.125137,921.856489 483.125137,912.781489 C483.125137,903.706489 485.362377,895.41925 489.836856,887.91977 C494.311335,880.420291 500.298314,874.433312 507.797793,869.958833 C515.297272,865.484354 523.584512,863.247114 532.659512,863.247114 C541.734512,863.247114 549.990241,865.484354 557.4267,869.958833 C564.863158,874.433312 570.818627,880.420291 575.293106,887.91977 C579.767585,895.41925 582.004825,903.706489 582.004825,912.781489 C582.004825,921.856489 579.767585,930.143729 575.293106,937.643208 C570.818627,945.142687 564.863158,951.129666 557.4267,955.604145 C549.990241,960.078625 541.734512,962.315864 532.659512,962.315864 Z M765.017325,1015.63149 C773.966283,1015.63149 782.600137,1014.52862 790.918887,1012.3229 C799.237637,1010.11717 807.05222,1006.99764 814.362637,1002.9643 L814.362637,1002.9643 L814.362637,1009.77055 L867.867325,1009.77055 L867.867325,734.873677 L814.362637,734.873677 L814.362637,822.598677 C807.05222,818.565343 799.237637,815.445812 790.918887,813.240083 C782.600137,811.034354 773.966283,809.931489 765.017325,809.931489 C750.900658,809.931489 737.603262,812.609875 725.125137,817.966645 C712.647012,823.323416 701.681387,830.728364 692.228262,840.181489 C682.775137,849.634614 675.370189,860.568729 670.013418,872.983833 C664.656647,885.398937 661.978262,898.664823 661.978262,912.781489 C661.978262,926.898156 664.656647,940.164041 670.013418,952.579145 C675.370189,964.99425 682.775137,975.928364 692.228262,985.381489 C701.681387,994.834614 712.647012,1002.23956 725.125137,1007.59633 C737.603262,1012.9531 750.900658,1015.63149 765.017325,1015.63149 Z M765.017325,962.315864 C755.942325,962.315864 747.655085,960.078625 740.155606,955.604145 C732.656127,951.129666 726.669147,945.142687 722.194668,937.643208 C717.720189,930.143729 715.48295,921.856489 715.48295,912.781489 C715.48295,903.706489 717.720189,895.41925 722.194668,887.91977 C726.669147,880.420291 732.656127,874.433312 740.155606,869.958833 C747.655085,865.484354 755.942325,863.247114 765.017325,863.247114 C774.092325,863.247114 782.348054,865.484354 789.784512,869.958833 C797.22097,874.433312 803.176439,880.420291 807.650918,887.91977 C812.125397,895.41925 814.362637,903.706489 814.362637,912.781489 C814.362637,921.856489 812.125397,930.143729 807.650918,937.643208 C803.176439,945.142687 797.22097,951.129666 789.784512,955.604145 C782.348054,960.078625 774.092325,962.315864 765.017325,962.315864 Z"/>
    <text fill="#FF704C" font-family="NameSansText-Medium, Name Sans Text" font-size="20" font-weight="400" transform="rotate(-7 311.47 37.931)">
      <tspan x="275.471" y="44.431">too tall</tspan>
    </text>
    <text fill="#FF704C" font-family="NameSansText-Medium, Name Sans Text" font-size="20" font-weight="400" transform="rotate(8 221.407 205.848)">
      <tspan x="177.407" y="212.348">too thick</tspan>
    </text>
    <path fill="#FF704C" fill-rule="nonzero" d="M227.5,191.509434 L227.5,189.509434 L233.5,189.509 L233.5,140.49 L227.5,140.490566 L227.5,138.490566 L241.5,138.490566 L241.5,140.490566 L235.5,140.49 L235.5,189.509 L241.5,189.509434 L241.5,191.509434 L227.5,191.509434 Z"/>
    <text fill="#FF704C" font-family="NameSansText-Medium, Name Sans Text" font-size="20" font-weight="400" transform="rotate(8 268.387 329.04)">
      <tspan x="230.387" y="335.541">too soft</tspan>
    </text>
    <text fill="#FF704C" font-family="NameSansText-Medium, Name Sans Text" font-size="20" font-weight="400" transform="rotate(4 512.732 76.08)">
      <tspan x="452.732" y="59.581">strokes look</tspan> <tspan x="452.732" y="82.581">thicker at </tspan> <tspan x="452.732" y="105.581">joints</tspan>
    </text>
    <text fill="#FF704C" font-family="NameSansText-Medium, Name Sans Text" font-size="20" font-weight="400" transform="rotate(-2 484.637 273.702)">
      <tspan x="458.666" y="257.202">looks</tspan> <tspan x="446.195" y="280.202">way too</tspan> <tspan x="461.483" y="303.202">wide</tspan>
    </text>
    <text fill="#FF704C" font-family="NameSansText-Medium, Name Sans Text" font-size="20" font-weight="400" transform="rotate(1 331.577 433.588)">
      <tspan x="223.432" y="428.588">geometric circles look</tspan> <tspan x="240.776" y="451.588">“diamond shaped”</tspan>
    </text>
    <text fill="#B7B7B7" font-family="NameSansStandard-ExtraBold, Name Sans Standard" font-size="28.36" font-weight="600" letter-spacing="1.1" transform="rotate(-60 114.357 165.162)">
      <tspan x="-17.643" y="174.662">bad-circle-font.otf</tspan>
    </text>
    <text fill="#FF704C" font-family="NameSansText-Medium, Name Sans Text" font-size="20" font-weight="400" transform="rotate(-50 362.045 483.163)">
      <tspan x="354.545" y="489.663">←</tspan>
    </text>
    <text fill="#FF704C" font-family="NameSansText-Medium, Name Sans Text" font-size="20" font-weight="400" transform="rotate(-106 454.284 120.88)">
      <tspan x="446.784" y="127.38">←</tspan>
    </text>
    <text fill="#FF704C" font-family="NameSansText-Medium, Name Sans Text" font-size="19.36" font-weight="400" transform="rotate(-129 210.795 484.99)">
      <tspan x="203.295" y="491.49">←</tspan>
    </text>
    <text fill="#FF704C" font-family="NameSansText-Medium, Name Sans Text" font-size="19.36" font-weight="400" transform="rotate(132 201.054 655.6)">
      <tspan x="193.554" y="662.1">←</tspan>
    </text>
    <text fill="#FF704C" font-family="NameSansText-Medium, Name Sans Text" font-size="20" font-weight="400" transform="rotate(132 277.865 309.394)">
      <tspan x="270.365" y="315.894">←</tspan>
    </text>
    <text fill="#FF704C" font-family="NameSansText-Medium, Name Sans Text" font-size="20" font-weight="400" transform="rotate(44 370.67 659.943)">
      <tspan x="363.171" y="666.443">←</tspan>
    </text>
    <text fill="#FF704C" font-family="NameSansText-Medium, Name Sans Text" font-size="20" font-weight="400" transform="rotate(64 579.217 1021.553)">
      <tspan x="571.717" y="1028.053">←</tspan>
    </text>
    <text fill="#FF704C" font-family="NameSansText-Medium, Name Sans Text" font-size="20" font-weight="400" transform="rotate(102 803.217 1023.608)">
      <tspan x="795.717" y="1030.108">←</tspan>
    </text>
    <text fill="#FF704C" font-family="NameSansText-Medium, Name Sans Text" font-size="20" font-weight="400" transform="rotate(3 829.08 74.321)">
      <tspan x="685.581" y="69.321">square dot looks taller than </tspan> <tspan x="685.581" y="92.321">wide and narrower than stem</tspan>
    </text>
    <text fill="#FF704C" font-family="NameSansText-Medium, Name Sans Text" font-size="20" font-weight="400" transform="rotate(-6 801.086 439.364)">
      <tspan x="726.586" y="434.364">diagonals look </tspan> <tspan x="726.586" y="457.364">too thick</tspan>
    </text>
    <text fill="#FF704C" font-family="NameSansText-Medium, Name Sans Text" font-size="20" font-weight="400" transform="rotate(2 784.175 691.51)">
      <tspan x="705.675" y="698.009">looks top-heavy</tspan>
    </text>
    <text fill="#FF704C" font-family="NameSansText-Medium, Name Sans Text" font-size="20" font-weight="400" transform="rotate(-6 501.444 774.82)">
      <tspan x="372.444" y="781.32">bad joints AND bad circles</tspan>
    </text>
    <text fill="#FF704C" font-family="NameSansText-Medium, Name Sans Text" font-size="20" font-weight="400" transform="rotate(-12 836.335 211.183)">
      <tspan x="806.335" y="217.683">plz no</tspan>
    </text>
    <text fill="#FF704C" font-family="NameSansText-Medium, Name Sans Text" font-size="20" font-weight="400" transform="rotate(-12 1004.224 564.114)">
      <tspan x="969.224" y="559.114">ow, my</tspan> <tspan x="969.224" y="582.114">spine</tspan>
    </text>
    <text fill="#FF704C" font-family="NameSansText-Medium, Name Sans Text" font-size="20" font-weight="400" transform="rotate(-89 78.813 500.163)">
      <tspan x="-47.687" y="508.163">phew, this one looks okay</tspan>
    </text>
    <text fill="#FF704C" font-family="NameSansText-Medium, Name Sans Text" font-size="20" font-weight="400">
      <tspan x="589.707" y="1049.458">no definition at joints</tspan>
    </text>
  </g>
</svg>
