<svg xmlns="http://www.w3.org/2000/svg" width="717" height="473" viewBox="0 0 717 473">
  <g fill="none" fill-rule="evenodd">
    <rect width="717" height="473" fill="#222"/>
    <path fill="#FFF" fill-opacity=".5" fill-rule="nonzero" d="M234.614131,421.379025 C286.754856,421.379025 331.259588,403.407444 368.128325,367.464281 C404.8428,331.675381 423.200038,288.096225 423.200038,236.726813 C423.200038,185.665925 404.919931,141.932506 368.359719,105.526556 C331.953769,69.1206063 288.297481,50.9176313 237.390856,50.9176313 C185.867181,50.9176313 141.748106,68.9663438 105.033631,105.063769 C68.1648938,141.161194 49.730525,184.354694 49.730525,234.644269 C49.730525,291.875656 69.9389125,338.154406 110.355688,373.480519 C147.070163,405.412856 188.489644,421.379025 234.614131,421.379025 Z M235.308313,370.935188 C200.753513,370.935188 170.286669,358.208531 143.907781,332.755219 C117.374631,307.301906 104.108056,274.82965 104.108056,235.33845 C104.108056,197.6984 116.911844,166.074588 142.519419,140.467013 C168.126994,114.550913 199.519413,101.592863 236.696675,101.592863 C274.0282,101.592863 305.343488,114.550913 330.642538,140.467013 C356.09585,166.22885 368.822506,198.161188 368.822506,236.264025 C368.822506,273.904075 355.941588,305.836413 330.17975,332.061038 C304.417913,357.977138 272.7941,370.935188 235.308313,370.935188 Z"/>
    <path stroke="red" stroke-width="2" d="M234.594131,421.379025 C286.734856,421.379025 331.239588,403.407444 368.108325,367.464281 C404.8228,331.675381 423.180038,288.096225 423.180038,236.726813 C423.180038,185.665925 404.899931,141.932506 368.339719,105.526556 C331.933769,69.1206063 288.277481,50.9176313 237.370856,50.9176313 C185.847181,50.9176313 141.728106,68.9663438 105.013631,105.063769 C68.1448938,141.161194 49.710525,184.354694 49.710525,234.644269 C49.710525,291.875656 69.9189125,338.154406 110.335688,373.480519 C147.050163,405.412856 188.469644,421.379025 234.594131,421.379025 Z M235.288313,370.935188 C200.733513,370.935188 170.266669,358.208531 143.887781,332.755219 C117.354631,307.301906 104.088056,274.82965 104.088056,235.33845 C104.088056,197.6984 116.891844,166.074588 142.499419,140.467013 C168.106994,114.550913 199.499413,101.592863 236.676675,101.592863 C274.0082,101.592863 305.323488,114.550913 330.622538,140.467013 C356.07585,166.22885 368.802506,198.161188 368.802506,236.264025 C368.802506,273.904075 355.921588,305.836413 330.15975,332.061038 C304.397913,357.977138 272.7741,370.935188 235.288313,370.935188 Z" transform="rotate(-90 236.445 236.148)"/>
    <path stroke="red" stroke-width="2" d="M481.093341,336.302135 C499.443403,336.302135 516.959372,331.589505 533.641247,322.164246 L533.641247,322.164246 L533.641247,287.007195 C528.886912,291.010845 524.361954,294.430629 520.066371,297.266548 C515.770788,300.102466 511.621172,302.35452 507.617522,304.022707 C500.444316,307.359082 491.728036,309.02727 481.468683,309.02727 C461.617252,309.02727 444.851967,302.062587 431.17283,288.133221 C417.493692,274.203855 410.654123,257.104934 410.654123,236.836455 C410.654123,216.317749 417.493692,198.968599 431.17283,184.789005 C444.768558,170.526002 461.492137,163.394501 481.343569,163.394501 C499.359994,163.394501 516.792553,170.442593 533.641247,184.538777 L533.641247,184.538777 L533.641247,150.007296 C517.459828,140.582037 500.694544,135.869407 483.345394,135.869407 C451.566422,135.869407 425.667811,147.671834 405.649561,171.276687 C389.384733,190.544252 381.252319,212.480918 381.252319,237.086684 C381.252319,264.528368 390.969511,287.966402 410.403895,307.400787 C429.921689,326.668352 453.484837,336.302135 481.093341,336.302135 Z M659.130652,336.427249 C686.822564,336.427249 709.635028,326.334715 727.568044,306.149646 C735.491934,297.141434 741.122067,287.465946 744.458442,277.123184 C747.878227,265.946327 749.588119,253.101284 749.588119,238.588052 L749.588119,238.588052 L749.588119,232.207235 L669.765347,232.207235 L669.765347,259.607215 L717.934261,259.607215 C716.599711,273.202943 710.218894,284.880255 698.791809,294.639152 C687.364725,304.31464 674.477977,309.152384 660.131564,309.152384 C643.28287,309.152384 627.643612,302.688157 613.213791,289.759704 C597.783056,275.830338 590.067689,258.105846 590.067689,236.586227 C590.067689,215.733884 596.990667,198.384734 610.836623,184.538777 C624.68258,170.442593 641.823206,163.394501 662.258503,163.394501 C685.029262,163.394501 704.338533,173.945787 720.186314,195.048359 L720.186314,195.048359 L740.955248,175.155223 C728.860889,161.309266 716.558006,151.300141 704.0466,145.127848 C690.951328,138.955554 676.855144,135.869407 661.758047,135.869407 C633.649087,135.869407 609.794006,145.670009 590.192803,165.271212 C570.5916,184.789005 560.790998,208.560677 560.790998,236.586227 C560.790998,264.027912 570.424781,287.549355 589.692347,307.150559 C608.959912,326.668352 632.106014,336.427249 659.130652,336.427249 Z" transform="rotate(-90 565.42 236.148)"/>
    <text fill="red" font-size="13" font-weight="400">
      <tspan x="196.445" y="210.648">Futura, as </tspan> <tspan x="196.445" y="225.648">pre-installed </tspan> <tspan x="196.445" y="240.648">on macOS.</tspan> <tspan x="196.445" y="255.648">Red lines are </tspan> <tspan x="196.445" y="270.648">rotated 90°.</tspan>
    </text>
  </g>
</svg>
