<svg xmlns="http://www.w3.org/2000/svg" xmlns:xlink="http://www.w3.org/1999/xlink" width="1307" height="1030" viewBox="0 0 1307 1030">
  <defs>
    <rect id="futura-vs-circles-a" width="309" height="405"/>
    <path id="futura-vs-circles-c" d="M300,171 L300,384 L0,384 L0,171 L18.5585903,171.001822 C36.2920947,226.117936 87.9885697,266 149,266 C210.01143,266 261.707905,226.117936 279.44141,171.001822 L300,171 Z"/>
    <rect id="futura-vs-circles-e" width="210" height="283"/>
  </defs>
  <g fill="none" fill-rule="evenodd">
    <rect width="1307" height="1030" fill="#222"/>
    <g transform="translate(48.5 60)">
      <path fill="#FFF" fill-rule="nonzero" stroke="#FFF" stroke-width=".15" d="M209.874131,498.479025 C262.014856,498.479025 306.519588,480.507444 343.388325,444.564281 C380.1028,408.775381 398.460037,365.196225 398.460037,313.826812 C398.460037,262.765925 380.179931,219.032506 343.619719,182.626556 C307.213769,146.220606 263.557481,128.017631 212.650856,128.017631 C161.127181,128.017631 117.008106,146.066344 80.2936313,182.163769 C43.4248938,218.261194 24.990525,261.454694 24.990525,311.744269 C24.990525,368.975656 45.1989125,415.254406 85.6156875,450.580519 C122.330163,482.512856 163.749644,498.479025 209.874131,498.479025 Z M210.568313,448.035188 C176.013513,448.035188 145.546669,435.308531 119.167781,409.855219 C92.6346313,384.401906 79.3680563,351.92965 79.3680563,312.43845 C79.3680563,274.7984 92.1718438,243.174588 117.779419,217.567012 C143.386994,191.650913 174.779413,178.692862 211.956675,178.692862 C249.2882,178.692862 280.603488,191.650913 305.902537,217.567012 C331.35585,243.32885 344.082506,275.261188 344.082506,313.364025 C344.082506,351.004075 331.201588,382.936412 305.43975,409.161038 C279.677913,435.077137 248.0541,448.035188 210.568313,448.035188 Z M659.916575,498.710419 C711.131725,498.710419 753.322519,480.044656 786.488956,442.713131 C801.143894,426.052781 811.556612,408.158331 817.727112,389.029781 C824.051875,368.358606 827.214256,344.602181 827.214256,317.760506 L827.214256,317.760506 L827.214256,305.959425 L679.585044,305.959425 L679.585044,356.634656 L768.671637,356.634656 C766.203437,381.779444 754.402356,403.376194 733.268394,421.424906 C712.134431,439.319356 688.300875,448.266581 661.767725,448.266581 C630.6067,448.266581 601.682481,436.311238 574.995069,412.40055 C546.456506,386.638712 532.187225,353.857931 532.187225,314.058206 C532.187225,275.492581 544.991013,243.405981 570.598588,217.798406 C596.206163,191.728044 627.907106,178.692862 665.701419,178.692862 C707.815081,178.692862 743.52685,198.207069 772.836725,237.235481 L772.836725,237.235481 L811.248087,200.443875 C788.880025,174.8363 766.126306,156.3248 742.986931,144.909375 C718.767719,133.49395 692.697356,127.786237 664.775844,127.786237 C612.789381,127.786237 568.670306,145.912081 532.418619,182.163769 C496.166931,218.261194 478.041087,262.226006 478.041087,314.058206 C478.041087,364.810569 495.858406,408.312594 531.493044,444.564281 C567.127681,480.661706 609.935525,498.710419 659.916575,498.710419 Z M1091.44752,498.479025 C1125.38527,498.479025 1157.78039,489.763194 1188.63289,472.331531 L1188.63289,472.331531 L1188.63289,407.309888 C1179.83993,414.714488 1171.47119,421.03925 1163.52667,426.284175 C1155.58215,431.5291 1147.90759,435.694187 1140.50299,438.779437 C1127.23642,444.949937 1111.11599,448.035188 1092.1417,448.035188 C1055.42722,448.035188 1024.42046,435.154269 999.121413,409.392431 C973.822363,383.630594 961.172838,352.006781 961.172838,314.520994 C961.172838,276.572419 973.822363,244.485819 999.121413,218.261194 C1024.2662,191.882306 1055.19583,178.692862 1091.91031,178.692862 C1125.23101,178.692862 1157.47187,191.728044 1188.63289,217.798406 L1188.63289,217.798406 L1188.63289,153.933731 C1158.70597,136.502069 1127.69921,127.786237 1095.61261,127.786237 C1036.83859,127.786237 988.940088,149.614381 951.917088,193.270669 C921.8359,228.905306 906.795306,269.476344 906.795306,314.983781 C906.795306,365.736144 924.766888,409.083906 960.71005,445.027069 C996.807475,480.661706 1040.38663,498.479025 1091.44752,498.479025 Z"/>
      <g stroke="#FFA600" stroke-width="2" transform="translate(17.56 118)">
        <circle cx="194.5" cy="195.5" r="126" fill="#FFA600" fill-opacity=".15"/>
        <circle cx="195" cy="195" r="195"/>
      </g>
      <g stroke="#FFA600" stroke-width="2" transform="translate(469.76 118)">
        <circle cx="194.5" cy="195.5" r="126" fill="#FFA600" fill-opacity=".15"/>
        <circle cx="195" cy="195" r="195"/>
      </g>
      <g transform="translate(886.06 111)">
        <mask id="futura-vs-circles-b" fill="#fff">
          <use xlink:href="#futura-vs-circles-a"/>
        </mask>
        <g stroke="#FFA600" stroke-width="2" mask="url(#futura-vs-circles-b)">
          <g transform="translate(13 7)">
            <circle cx="194.5" cy="195.5" r="126" fill="#FFA600" fill-opacity=".15"/>
            <circle cx="195" cy="195" r="195"/>
          </g>
        </g>
      </g>
    </g>
    <g transform="translate(85.2 620)">
      <path fill="#FFF" fill-rule="nonzero" stroke="#FFF" stroke-width=".15" d="M128.181581,259.499025 C162.273594,259.499025 191.04355,248.160731 214.49145,225.484144 C237.785087,202.653294 249.431906,174.346125 249.431906,140.562637 C249.431906,107.087675 237.862219,78.8576375 214.722844,55.872525 C191.274944,32.8874125 162.736381,21.3948562 129.107156,21.3948562 C95.6321937,21.3948562 67.2478937,32.8102812 43.9542562,55.6411312 C20.6606187,78.4719812 9.0138,106.1621 9.0138,138.711487 C9.0138,173.266287 20.429225,201.959112 43.260075,224.789963 C66.090925,247.929337 94.3980937,259.499025 128.181581,259.499025 Z M129.107156,212.988881 C108.898769,212.988881 92.624075,206.355594 80.283075,193.089019 C68.2506,179.976706 62.2343625,162.159387 62.2343625,139.637062 C62.2343625,118.657362 68.4048625,101.534225 80.7458625,88.26765 C93.0868625,75.001075 109.207294,68.3677875 129.107156,68.3677875 C149.315544,68.3677875 165.590237,75.001075 177.931237,88.26765 C190.117975,101.379962 196.211344,118.888756 196.211344,140.794031 C196.211344,162.699306 190.117975,180.2081 177.931237,193.320412 C165.7445,206.432725 149.469806,212.988881 129.107156,212.988881 Z M431.0576,259.499025 C455.7396,259.499025 478.801844,249.471962 500.244331,229.417838 L500.244331,229.417838 L500.244331,253.02 L552.539319,253.02 L552.539319,27.6424875 L500.244331,27.6424875 L500.244331,53.7899812 C479.418894,32.1932312 455.893862,21.3948562 429.669237,21.3948562 C399.279525,21.3948562 373.980475,32.6560187 353.772087,55.1783437 C333.5637,77.7006687 323.459506,105.853575 323.459506,139.637062 C323.459506,174.0376 333.5637,202.730425 353.772087,225.715537 C374.134737,248.237862 399.896575,259.499025 431.0576,259.499025 Z M438.924987,212.988881 C420.876275,212.988881 405.912812,206.1242 394.0346,192.394837 C382.464912,178.819737 376.680069,161.233812 376.680069,139.637062 C376.680069,119.428675 382.619175,102.4598 394.497387,88.7304375 C406.529862,75.1553375 421.493325,68.3677875 439.387775,68.3677875 C458.362062,68.3677875 473.788312,75.0782062 485.666525,88.4990437 C497.544737,102.228406 503.483844,119.660069 503.483844,140.794031 C503.483844,161.927994 497.544737,179.359656 485.666525,193.089019 C473.788312,206.355594 458.2078,212.988881 438.924987,212.988881 Z M756.147419,376.121475 C791.782056,376.121475 819.7807,364.397525 840.14335,340.949625 C850.941725,328.762887 858.192062,314.185081 861.894362,297.216206 C863.128462,291.045706 864.092603,283.911066 864.786784,275.812284 C865.480966,267.713503 865.828056,258.342056 865.828056,247.697944 L865.828056,247.697944 L865.828056,27.6424875 L813.764462,27.6424875 L813.764462,53.0958 C794.944437,31.9618375 771.342275,21.3948562 742.957975,21.3948562 C710.56285,21.3948562 684.492487,33.5815937 664.746887,57.9550688 C646.38965,80.9401812 637.211031,108.861694 637.211031,141.719606 C637.211031,175.503094 647.083831,203.656 666.829431,226.178325 C686.420769,248.392125 711.565556,259.499025 742.263794,259.499025 C769.259731,259.499025 793.093287,248.932044 813.764462,227.798081 L813.764462,227.798081 L813.764462,259.267631 C813.764462,306.009169 794.713044,329.379937 756.610206,329.379937 C735.939031,329.379937 720.204256,322.360994 709.405881,308.323106 C704.778006,302.306869 701.461362,293.7453 699.45595,282.6384 L699.45595,282.6384 L647.160962,282.6384 C650.246212,312.102537 661.8159,335.164781 681.870025,351.825131 C701.3071,368.022694 726.066231,376.121475 756.147419,376.121475 Z M752.676512,212.988881 C732.77665,212.988881 717.196137,205.815675 705.934975,191.469263 C695.599387,178.35695 690.431594,161.542337 690.431594,141.025425 C690.431594,120.199987 695.599387,103.231112 705.934975,90.1188 C717.3504,75.4638625 732.930912,68.1363937 752.676512,68.1363937 C771.188012,68.1363937 786.382869,74.8468125 798.261081,88.26765 C809.985031,101.379962 815.847006,118.888756 815.847006,140.794031 C815.847006,161.310944 810.52495,178.125556 799.880837,191.237869 C788.31115,205.738544 772.576375,212.988881 752.676512,212.988881 Z M1073.13846,259.499025 C1094.27242,259.499025 1115.40638,254.022706 1136.54034,243.070069 L1136.54034,243.070069 L1136.54034,174.346125 C1124.04508,189.46385 1113.16957,199.645175 1103.91382,204.8901 C1094.34955,210.289287 1083.31978,212.988881 1070.82452,212.988881 C1051.23318,212.988881 1035.11275,206.201331 1022.46322,192.626231 C1009.96796,179.051131 1003.72033,161.6966 1003.72033,140.562637 C1003.72033,119.891463 1010.19936,102.691194 1023.15741,88.9618312 C1036.11546,75.2324687 1052.39015,68.3677875 1071.98149,68.3677875 C1084.47675,68.3677875 1095.35226,71.1445125 1104.60801,76.6979625 C1114.01802,82.09715 1124.66213,92.0470812 1136.54034,106.547756 L1136.54034,106.547756 L1136.54034,37.361025 C1116.79474,26.7169125 1095.81504,21.3948562 1073.60124,21.3948562 C1039.04644,21.3948562 1009.89083,32.9645437 986.134406,56.1039187 C962.377981,79.2432937 950.499769,107.627594 950.499769,141.256819 C950.499769,174.886044 962.223719,203.03895 985.671619,225.715537 C1009.11952,248.237862 1038.27513,259.499025 1073.13846,259.499025 Z"/>
      <g stroke="#FFA600" stroke-width="2" transform="translate(311.5 11)">
        <circle cx="128.669" cy="129.331" r="60.5" fill="#FFA600" fill-opacity=".15"/>
        <circle cx="129" cy="129" r="129"/>
      </g>
      <g transform="translate(605 11)">
        <circle cx="148.669" cy="129.331" r="60.5" fill="#FFA600" fill-opacity=".15" stroke="#FFA600" stroke-width="2"/>
        <circle cx="149" cy="129" r="129" stroke="#FFA600" stroke-width="2"/>
        <mask id="futura-vs-circles-d" fill="#fff">
          <use xlink:href="#futura-vs-circles-c"/>
        </mask>
        <circle cx="149" cy="243" r="129" stroke="#FFA600" stroke-width="2" mask="url(#futura-vs-circles-d)"/>
      </g>
      <g transform="translate(934)">
        <mask id="futura-vs-circles-f" fill="#fff">
          <use xlink:href="#futura-vs-circles-e"/>
        </mask>
        <circle cx="138.669" cy="141.331" r="60.5" fill="#FFA600" fill-opacity=".15" stroke="#FFA600" stroke-width="2" mask="url(#futura-vs-circles-f)"/>
        <circle cx="139" cy="141" r="129" stroke="#FFA600" stroke-width="2" mask="url(#futura-vs-circles-f)"/>
      </g>
      <g stroke="#FFA600" stroke-width="2" transform="translate(0 11)">
        <circle cx="128.669" cy="129.331" r="60.5" fill="#FFA600" fill-opacity=".15"/>
        <circle cx="129" cy="129" r="129"/>
      </g>
    </g>
    <path fill="#FFF" fill-rule="nonzero" d="M95.4286328,110.94 L95.4286328,89.7943945 L110.36002,89.7943945 L110.36002,83.4938672 L95.4286328,83.4938672 L95.4286328,72.8203711 L110.906641,72.8203711 L110.906641,66.5198438 L88.725332,66.5198438 L88.725332,110.94 L95.4286328,110.94 Z M128.830059,111.745547 C132.205684,111.745547 134.986738,110.796152 137.173223,108.897363 C138.496621,107.727402 139.426836,106.413594 139.963867,104.955938 C140.520078,103.325664 140.798184,101.388516 140.798184,99.1444922 L140.798184,99.1444922 L140.798184,82.9184766 L134.325039,82.9184766 L134.325039,99.0006445 C134.325039,103.642129 132.493379,105.962871 128.830059,105.962871 C125.166738,105.962871 123.335078,103.642129 123.335078,99.0006445 L123.335078,99.0006445 L123.335078,82.9184766 L116.861934,82.9184766 L116.861934,99.1444922 C116.861934,101.71457 117.130449,103.651719 117.66748,104.955938 C118.223691,106.413594 119.173086,107.727402 120.515664,108.897363 C122.702148,110.796152 125.473613,111.745547 128.830059,111.745547 Z M155.643262,110.94 L155.643262,88.9600781 L160.67793,88.9600781 L160.67793,82.9184766 L155.643262,82.9184766 L155.643262,72.6477539 L149.170117,72.6477539 L149.170117,82.9184766 L146.408242,82.9184766 L146.408242,88.9600781 L149.170117,88.9600781 L149.170117,110.94 L155.643262,110.94 Z M177.047793,111.745547 C180.423418,111.745547 183.204473,110.796152 185.390957,108.897363 C186.714355,107.727402 187.64457,106.413594 188.181602,104.955938 C188.737812,103.325664 189.015918,101.388516 189.015918,99.1444922 L189.015918,99.1444922 L189.015918,82.9184766 L182.542773,82.9184766 L182.542773,99.0006445 C182.542773,103.642129 180.711113,105.962871 177.047793,105.962871 C173.384473,105.962871 171.552812,103.642129 171.552812,99.0006445 L171.552812,99.0006445 L171.552812,82.9184766 L165.079668,82.9184766 L165.079668,99.1444922 C165.079668,101.71457 165.348184,103.651719 165.885215,104.955938 C166.441426,106.413594 167.39082,107.727402 168.733398,108.897363 C170.919883,110.796152 173.691348,111.745547 177.047793,111.745547 Z M203.659609,110.94 L203.659609,96.4113867 C203.659609,91.0794336 205.424141,88.413457 208.953203,88.413457 C210.123164,88.413457 211.321895,88.8545898 212.549395,89.7368555 L212.549395,89.7368555 L215.512656,83.810332 C213.652227,82.6979102 211.868516,82.1416992 210.161523,82.1416992 C208.876484,82.1416992 207.764062,82.3814453 206.824258,82.8609375 C205.903633,83.32125 204.84875,84.1747461 203.659609,85.4214258 L203.659609,85.4214258 L203.659609,82.9184766 L197.186465,82.9184766 L197.186465,110.94 L203.659609,110.94 Z M230.875586,111.745547 C233.944336,111.745547 236.811699,110.498867 239.477676,108.005508 L239.477676,108.005508 L239.477676,110.94 L245.97959,110.94 L245.97959,82.9184766 L239.477676,82.9184766 L239.477676,86.1694336 C236.888418,83.4842773 233.963516,82.1416992 230.702969,82.1416992 C226.92457,82.1416992 223.779102,83.5418164 221.266562,86.3420508 C218.754023,89.1422852 217.497754,92.6425781 217.497754,96.8429297 C217.497754,101.12 218.754023,104.687422 221.266562,107.545195 C223.798281,110.34543 227.001289,111.745547 230.875586,111.745547 Z M231.85375,105.962871 C229.609727,105.962871 227.749297,105.109375 226.272461,103.402383 C224.833984,101.71457 224.114746,99.5280859 224.114746,96.8429297 C224.114746,94.3303906 224.853164,92.220625 226.33,90.5136328 C227.826016,88.8258203 229.686445,87.9819141 231.911289,87.9819141 C234.270391,87.9819141 236.188359,88.8162305 237.665195,90.4848633 C239.142031,92.1918555 239.880449,94.3591602 239.880449,96.9867773 C239.880449,99.6143945 239.142031,101.781699 237.665195,103.488691 C236.188359,105.138145 234.251211,105.962871 231.85375,105.962871 Z M296.498887,112.982637 L309.646562,84.1267969 L313.933223,110.94 L320.809141,110.94 L312.408437,63.1825781 L296.613965,97.7060156 L281.366113,63.1825781 L272.016016,110.94 L278.949473,110.94 L283.725215,84.0980273 L296.498887,112.982637 Z M341.523203,111.745547 C342.980859,111.745547 344.333027,111.592109 345.579707,111.285234 C346.826387,110.978359 347.986758,110.494072 349.06082,109.832373 C350.134883,109.170674 351.141816,108.326768 352.081621,107.300654 C353.021426,106.274541 353.913281,105.042246 354.757187,103.60377 L354.757187,103.60377 L349.290977,100.554199 C347.967578,102.625605 346.788027,104.044902 345.752324,104.81209 C344.697441,105.579277 343.364453,105.962871 341.753359,105.962871 C339.681953,105.962871 337.984551,105.291582 336.661152,103.949004 C335.337754,102.587246 334.589746,100.755586 334.417129,98.4540234 L334.417129,98.4540234 L354.498262,98.4540234 L354.527031,96.9292383 C354.527031,92.3069336 353.337891,88.6915625 350.959609,86.083125 C348.562148,83.4555078 345.301602,82.1416992 341.177969,82.1416992 C337.092695,82.1416992 333.812969,83.4938672 331.338789,86.1982031 C328.883789,88.9408984 327.656289,92.5275 327.656289,96.9580078 C327.656289,101.426875 328.922148,105.013477 331.453867,107.717813 C333.985586,110.402969 337.342031,111.745547 341.523203,111.745547 Z M347.8525,93.1604297 L334.848672,93.1604297 C335.059648,92.3548828 335.366523,91.6356445 335.769297,91.0027148 C336.17207,90.3697852 336.656357,89.827959 337.222158,89.3772363 C337.787959,88.9265137 338.416094,88.5812793 339.106562,88.3415332 C339.797031,88.1017871 340.535449,87.9819141 341.321816,87.9819141 C344.77416,87.9819141 346.951055,89.7080859 347.8525,93.1604297 L347.8525,93.1604297 Z M373.572461,111.745547 C376.794648,111.745547 379.681191,110.498867 382.23209,108.005508 L382.23209,108.005508 L382.23209,110.94 L388.734004,110.94 L388.734004,62.3482617 L382.23209,62.3482617 L382.23209,86.1694336 C379.642832,83.4842773 376.70834,82.1416992 373.428613,82.1416992 C369.650215,82.1416992 366.514336,83.5514063 364.020977,86.3708203 C361.508437,89.1710547 360.252168,92.6617578 360.252168,96.8429297 C360.252168,101.12 361.508437,104.687422 364.020977,107.545195 C366.552695,110.34543 369.736523,111.745547 373.572461,111.745547 Z M374.608164,105.962871 C372.364141,105.962871 370.503711,105.109375 369.026875,103.402383 C367.588398,101.71457 366.86916,99.5280859 366.86916,96.8429297 C366.86916,94.3303906 367.607578,92.220625 369.084414,90.5136328 C370.58043,88.8258203 372.440859,87.9819141 374.665703,87.9819141 C377.024805,87.9819141 378.942773,88.8162305 380.419609,90.4848633 C381.896445,92.1918555 382.634863,94.3591602 382.634863,96.9867773 C382.634863,99.6143945 381.896445,101.781699 380.419609,103.488691 C378.942773,105.138145 377.005625,105.962871 374.608164,105.962871 Z M400.155508,75.524707 C401.325469,75.524707 402.313223,75.1123438 403.11877,74.2876172 C403.943496,73.4628906 404.355859,72.4655469 404.355859,71.2955859 C404.355859,70.125625 403.943496,69.1378711 403.11877,68.3323242 C402.294043,67.5075977 401.296699,67.0952344 400.126738,67.0952344 C398.975957,67.0952344 397.988203,67.5075977 397.163477,68.3323242 C396.33875,69.1570508 395.926387,70.1352148 395.926387,71.2668164 C395.926387,72.455957 396.33875,73.4628906 397.163477,74.2876172 C397.988203,75.1123438 398.985547,75.524707 400.155508,75.524707 Z M403.377695,110.94 L403.377695,82.9184766 L396.904551,82.9184766 L396.904551,110.94 L403.377695,110.94 Z M423.545137,111.745547 C426.920762,111.745547 429.701816,110.796152 431.888301,108.897363 C433.211699,107.727402 434.141914,106.413594 434.678945,104.955938 C435.235156,103.325664 435.513262,101.388516 435.513262,99.1444922 L435.513262,99.1444922 L435.513262,82.9184766 L429.040117,82.9184766 L429.040117,99.0006445 C429.040117,103.642129 427.208457,105.962871 423.545137,105.962871 C419.881816,105.962871 418.050156,103.642129 418.050156,99.0006445 L418.050156,99.0006445 L418.050156,82.9184766 L411.577012,82.9184766 L411.577012,99.1444922 C411.577012,101.71457 411.845527,103.651719 412.382559,104.955938 C412.93877,106.413594 413.888164,107.727402 415.230742,108.897363 C417.417227,110.796152 420.188691,111.745547 423.545137,111.745547 Z M450.156953,110.94 L450.156953,96.4689258 C450.156953,93.5344336 450.574111,91.3863086 451.408428,90.0245508 C452.242744,88.662793 453.570937,87.9819141 455.393008,87.9819141 C458.269961,87.9819141 459.708437,90.4752734 459.708437,95.4619922 L459.708437,95.4619922 L459.708437,110.94 L466.210352,110.94 L466.210352,96.4689258 C466.210352,93.4960742 466.61792,91.3383594 467.433057,89.9957813 C468.248193,88.6532031 469.547617,87.9819141 471.331328,87.9819141 C472.865703,87.9819141 473.968535,88.5477148 474.639824,89.6793164 C475.291934,90.7917383 475.617988,92.6905273 475.617988,95.3756836 L475.617988,95.3756836 L475.617988,110.94 L482.119902,110.94 L482.119902,93.6207422 C482.119902,85.9680469 478.964844,82.1416992 472.654727,82.1416992 C469.183203,82.1416992 466.430918,83.5226367 464.397871,86.2845117 C462.556621,83.5226367 460.053672,82.1416992 456.889023,82.1416992 C455.469727,82.1416992 454.290176,82.3814453 453.350371,82.8609375 C452.468105,83.32125 451.403633,84.2035156 450.156953,85.5077344 L450.156953,85.5077344 L450.156953,82.9184766 L443.683809,82.9184766 L443.683809,110.94 L450.156953,110.94 Z M491.844004,121.297031 L500.04332,104.869629 L494.289414,102.625605 L487.471035,119.484551 L491.844004,121.297031 Z M538.70957,111.745547 C541.77832,111.745547 544.645684,110.498867 547.31166,108.005508 L547.31166,108.005508 L547.31166,110.94 L553.813574,110.94 L553.813574,82.9184766 L547.31166,82.9184766 L547.31166,86.1694336 C544.722402,83.4842773 541.7975,82.1416992 538.536953,82.1416992 C534.758555,82.1416992 531.613086,83.5418164 529.100547,86.3420508 C526.588008,89.1422852 525.331738,92.6425781 525.331738,96.8429297 C525.331738,101.12 526.588008,104.687422 529.100547,107.545195 C531.632266,110.34543 534.835273,111.745547 538.70957,111.745547 Z M539.687734,105.962871 C537.443711,105.962871 535.583281,105.109375 534.106445,103.402383 C532.667969,101.71457 531.94873,99.5280859 531.94873,96.8429297 C531.94873,94.3303906 532.687148,92.220625 534.163984,90.5136328 C535.66,88.8258203 537.52043,87.9819141 539.745273,87.9819141 C542.104375,87.9819141 544.022344,88.8162305 545.49918,90.4848633 C546.976016,92.1918555 547.714434,94.3591602 547.714434,96.9867773 C547.714434,99.6143945 546.976016,101.781699 545.49918,103.488691 C544.022344,105.138145 542.085195,105.962871 539.687734,105.962871 Z M570.068359,111.745547 C572.811055,111.745547 575.150977,110.882461 577.088125,109.156289 C579.082812,107.334219 580.080156,105.071016 580.080156,102.36668 C580.080156,100.256914 579.485586,98.5786914 578.296445,97.3320117 C577.107305,96.085332 574.796152,94.7235742 571.362988,93.2467383 C568.869629,92.1918555 567.622949,91.1273828 567.622949,90.0533203 C567.622949,89.4395703 567.833926,88.9361035 568.255879,88.5429199 C568.677832,88.1497363 569.186094,87.9531445 569.780664,87.9531445 C571.027344,87.9531445 572.072637,88.8162305 572.916543,90.5424023 L572.916543,90.5424023 L578.267676,87.6942188 C576.522324,83.9925391 573.856348,82.1416992 570.269746,82.1416992 C567.833926,82.1416992 565.76252,82.9376563 564.055527,84.5295703 C562.386895,86.1214844 561.552578,88.1353516 561.552578,90.5711719 C561.552578,92.4124219 562.04166,93.9180273 563.019824,95.0879883 C563.787012,96.0086133 565.11041,96.9292383 566.99002,97.8498633 C567.661309,98.175918 568.323008,98.4923828 568.975117,98.7992578 C569.627227,99.1061328 570.279336,99.4225977 570.931445,99.7486523 C572.619258,100.745996 573.463164,101.820059 573.463164,102.97084 C573.463164,104.965527 572.369922,105.962871 570.183437,105.962871 C569.090195,105.962871 568.150391,105.598457 567.364023,104.869629 C566.96125,104.505215 566.37627,103.651719 565.609082,102.309141 L565.609082,102.309141 L560.085332,104.869629 C562.04166,109.453574 565.369336,111.745547 570.068359,111.745547 Z M610.54709,126.187852 L610.54709,107.804121 C613.136348,110.431738 616.07084,111.745547 619.350566,111.745547 C623.148145,111.745547 626.293613,110.35502 628.786973,107.573965 C631.299512,104.77373 632.555781,101.273438 632.555781,97.0730859 C632.555781,92.7768359 631.289922,89.2190039 628.758203,86.3995898 C626.264844,83.5609961 623.090605,82.1416992 619.235488,82.1416992 C615.994121,82.1416992 613.097988,83.4171484 610.54709,85.9680469 L610.54709,85.9680469 L610.54709,82.9184766 L604.073945,82.9184766 L604.073945,126.187852 L610.54709,126.187852 Z M618.142246,105.962871 C615.763965,105.962871 613.845996,105.128555 612.38834,103.459922 C610.911504,101.75293 610.173086,99.585625 610.173086,96.9580078 C610.173086,94.2728516 610.911504,92.1055469 612.38834,90.4560938 C613.865176,88.8066406 615.792734,87.9819141 618.171016,87.9819141 C620.415039,87.9819141 622.275469,88.8354102 623.752305,90.5424023 C625.209961,92.2302148 625.938789,94.4166992 625.938789,97.1018555 C625.938789,99.6335742 625.190781,101.74334 623.694766,103.431152 C622.237109,105.118965 620.38627,105.962871 618.142246,105.962871 Z M645.876074,110.94 L645.876074,96.4113867 C645.876074,91.0794336 647.640605,88.413457 651.169668,88.413457 C652.339629,88.413457 653.538359,88.8545898 654.765859,89.7368555 L654.765859,89.7368555 L657.729121,83.810332 C655.868691,82.6979102 654.08498,82.1416992 652.377988,82.1416992 C651.092949,82.1416992 649.980527,82.3814453 649.040723,82.8609375 C648.120098,83.32125 647.065215,84.1747461 645.876074,85.4214258 L645.876074,85.4214258 L645.876074,82.9184766 L639.40293,82.9184766 L639.40293,110.94 L645.876074,110.94 Z M673.581133,111.745547 C675.038789,111.745547 676.390957,111.592109 677.637637,111.285234 C678.884316,110.978359 680.044688,110.494072 681.11875,109.832373 C682.192812,109.170674 683.199746,108.326768 684.139551,107.300654 C685.079355,106.274541 685.971211,105.042246 686.815117,103.60377 L686.815117,103.60377 L681.348906,100.554199 C680.025508,102.625605 678.845957,104.044902 677.810254,104.81209 C676.755371,105.579277 675.422383,105.962871 673.811289,105.962871 C671.739883,105.962871 670.04248,105.291582 668.719082,103.949004 C667.395684,102.587246 666.647676,100.755586 666.475059,98.4540234 L666.475059,98.4540234 L686.556191,98.4540234 L686.584961,96.9292383 C686.584961,92.3069336 685.39582,88.6915625 683.017539,86.083125 C680.620078,83.4555078 677.359531,82.1416992 673.235898,82.1416992 C669.150625,82.1416992 665.870898,83.4938672 663.396719,86.1982031 C660.941719,88.9408984 659.714219,92.5275 659.714219,96.9580078 C659.714219,101.426875 660.980078,105.013477 663.511797,107.717813 C666.043516,110.402969 669.399961,111.745547 673.581133,111.745547 Z M679.91043,93.1604297 L666.906602,93.1604297 C667.117578,92.3548828 667.424453,91.6356445 667.827227,91.0027148 C668.23,90.3697852 668.714287,89.827959 669.280088,89.3772363 C669.845889,88.9265137 670.474023,88.5812793 671.164492,88.3415332 C671.854961,88.1017871 672.593379,87.9819141 673.379746,87.9819141 C676.83209,87.9819141 679.008984,89.7080859 679.91043,93.1604297 L679.91043,93.1604297 Z M702.379434,99.5184961 L702.379434,93.879668 L689.548223,93.879668 L689.548223,99.5184961 L702.379434,99.5184961 Z M709.715664,75.524707 C710.885625,75.524707 711.873379,75.1123438 712.678926,74.2876172 C713.503652,73.4628906 713.916016,72.4655469 713.916016,71.2955859 C713.916016,70.125625 713.503652,69.1378711 712.678926,68.3323242 C711.854199,67.5075977 710.856855,67.0952344 709.686895,67.0952344 C708.536113,67.0952344 707.548359,67.5075977 706.723633,68.3323242 C705.898906,69.1570508 705.486543,70.1352148 705.486543,71.2668164 C705.486543,72.455957 705.898906,73.4628906 706.723633,74.2876172 C707.548359,75.1123438 708.545703,75.524707 709.715664,75.524707 Z M712.937852,110.94 L712.937852,82.9184766 L706.464707,82.9184766 L706.464707,110.94 L712.937852,110.94 Z M727.639082,110.94 L727.639082,97.4183203 C727.639082,93.9276172 728.080215,91.482207 728.96248,90.0820898 C729.863926,88.662793 731.388711,87.9531445 733.536836,87.9531445 C735.512344,87.9531445 736.874102,88.4901758 737.622109,89.5642383 C738.389297,90.6191211 738.772891,92.5275 738.772891,95.289375 L738.772891,95.289375 L738.772891,110.94 L745.274805,110.94 L745.274805,93.7645898 C745.274805,89.8135742 744.488438,86.9653906 742.915703,85.2200391 C741.093633,83.1678125 738.552324,82.1416992 735.291777,82.1416992 C732.453184,82.1416992 729.902285,83.2637109 727.639082,85.5077344 L727.639082,85.5077344 L727.639082,82.9184766 L721.137168,82.9184766 L721.137168,110.94 L727.639082,110.94 Z M761.52959,111.745547 C764.272285,111.745547 766.612207,110.882461 768.549355,109.156289 C770.544043,107.334219 771.541387,105.071016 771.541387,102.36668 C771.541387,100.256914 770.946816,98.5786914 769.757676,97.3320117 C768.568535,96.085332 766.257383,94.7235742 762.824219,93.2467383 C760.330859,92.1918555 759.08418,91.1273828 759.08418,90.0533203 C759.08418,89.4395703 759.295156,88.9361035 759.717109,88.5429199 C760.139062,88.1497363 760.647324,87.9531445 761.241895,87.9531445 C762.488574,87.9531445 763.533867,88.8162305 764.377773,90.5424023 L764.377773,90.5424023 L769.728906,87.6942188 C767.983555,83.9925391 765.317578,82.1416992 761.730977,82.1416992 C759.295156,82.1416992 757.22375,82.9376563 755.516758,84.5295703 C753.848125,86.1214844 753.013809,88.1353516 753.013809,90.5711719 C753.013809,92.4124219 753.502891,93.9180273 754.481055,95.0879883 C755.248242,96.0086133 756.571641,96.9292383 758.45125,97.8498633 C759.122539,98.175918 759.784238,98.4923828 760.436348,98.7992578 C761.088457,99.1061328 761.740566,99.4225977 762.392676,99.7486523 C764.080488,100.745996 764.924395,101.820059 764.924395,102.97084 C764.924395,104.965527 763.831152,105.962871 761.644668,105.962871 C760.551426,105.962871 759.611621,105.598457 758.825254,104.869629 C758.42248,104.505215 757.8375,103.651719 757.070312,102.309141 L757.070312,102.309141 L751.546562,104.869629 C753.502891,109.453574 756.830566,111.745547 761.52959,111.745547 Z M784.027363,110.94 L784.027363,88.9600781 L789.062031,88.9600781 L789.062031,82.9184766 L784.027363,82.9184766 L784.027363,72.6477539 L777.554219,72.6477539 L777.554219,82.9184766 L774.792344,82.9184766 L774.792344,88.9600781 L777.554219,88.9600781 L777.554219,110.94 L784.027363,110.94 Z M806.036055,111.745547 C809.104805,111.745547 811.972168,110.498867 814.638145,108.005508 L814.638145,108.005508 L814.638145,110.94 L821.140059,110.94 L821.140059,82.9184766 L814.638145,82.9184766 L814.638145,86.1694336 C812.048887,83.4842773 809.123984,82.1416992 805.863438,82.1416992 C802.085039,82.1416992 798.93957,83.5418164 796.427031,86.3420508 C793.914492,89.1422852 792.658223,92.6425781 792.658223,96.8429297 C792.658223,101.12 793.914492,104.687422 796.427031,107.545195 C798.95875,110.34543 802.161758,111.745547 806.036055,111.745547 Z M807.014219,105.962871 C804.770195,105.962871 802.909766,105.109375 801.43293,103.402383 C799.994453,101.71457 799.275215,99.5280859 799.275215,96.8429297 C799.275215,94.3303906 800.013633,92.220625 801.490469,90.5136328 C802.986484,88.8258203 804.846914,87.9819141 807.071758,87.9819141 C809.430859,87.9819141 811.348828,88.8162305 812.825664,90.4848633 C814.3025,92.1918555 815.040918,94.3591602 815.040918,96.9867773 C815.040918,99.6143945 814.3025,101.781699 812.825664,103.488691 C811.348828,105.138145 809.41168,105.962871 807.014219,105.962871 Z M835.78375,110.94 L835.78375,62.3482617 L829.310605,62.3482617 L829.310605,110.94 L835.78375,110.94 Z M850.456211,110.94 L850.456211,62.3482617 L843.983066,62.3482617 L843.983066,110.94 L850.456211,110.94 Z M871.199043,111.745547 C872.656699,111.745547 874.008867,111.592109 875.255547,111.285234 C876.502227,110.978359 877.662598,110.494072 878.73666,109.832373 C879.810723,109.170674 880.817656,108.326768 881.757461,107.300654 C882.697266,106.274541 883.589121,105.042246 884.433027,103.60377 L884.433027,103.60377 L878.966816,100.554199 C877.643418,102.625605 876.463867,104.044902 875.428164,104.81209 C874.373281,105.579277 873.040293,105.962871 871.429199,105.962871 C869.357793,105.962871 867.660391,105.291582 866.336992,103.949004 C865.013594,102.587246 864.265586,100.755586 864.092969,98.4540234 L864.092969,98.4540234 L884.174102,98.4540234 L884.202871,96.9292383 C884.202871,92.3069336 883.01373,88.6915625 880.635449,86.083125 C878.237988,83.4555078 874.977441,82.1416992 870.853809,82.1416992 C866.768535,82.1416992 863.488809,83.4938672 861.014629,86.1982031 C858.559629,88.9408984 857.332129,92.5275 857.332129,96.9580078 C857.332129,101.426875 858.597988,105.013477 861.129707,107.717813 C863.661426,110.402969 867.017871,111.745547 871.199043,111.745547 Z M877.52834,93.1604297 L864.524512,93.1604297 C864.735488,92.3548828 865.042363,91.6356445 865.445137,91.0027148 C865.84791,90.3697852 866.332197,89.827959 866.897998,89.3772363 C867.463799,88.9265137 868.091934,88.5812793 868.782402,88.3415332 C869.472871,88.1017871 870.211289,87.9819141 870.997656,87.9819141 C874.45,87.9819141 876.626895,89.7080859 877.52834,93.1604297 L877.52834,93.1604297 Z M903.248301,111.745547 C906.470488,111.745547 909.357031,110.498867 911.90793,108.005508 L911.90793,108.005508 L911.90793,110.94 L918.409844,110.94 L918.409844,62.3482617 L911.90793,62.3482617 L911.90793,86.1694336 C909.318672,83.4842773 906.38418,82.1416992 903.104453,82.1416992 C899.326055,82.1416992 896.190176,83.5514063 893.696816,86.3708203 C891.184277,89.1710547 889.928008,92.6617578 889.928008,96.8429297 C889.928008,101.12 891.184277,104.687422 893.696816,107.545195 C896.228535,110.34543 899.412363,111.745547 903.248301,111.745547 Z M904.284004,105.962871 C902.03998,105.962871 900.179551,105.109375 898.702715,103.402383 C897.264238,101.71457 896.545,99.5280859 896.545,96.8429297 C896.545,94.3303906 897.283418,92.220625 898.760254,90.5136328 C900.25627,88.8258203 902.116699,87.9819141 904.341543,87.9819141 C906.700645,87.9819141 908.618613,88.8162305 910.095449,90.4848633 C911.572285,92.1918555 912.310703,94.3591602 912.310703,96.9867773 C912.310703,99.6143945 911.572285,101.781699 910.095449,103.488691 C908.618613,105.138145 906.681465,105.962871 904.284004,105.962871 Z M958.255645,111.745547 C962.494355,111.745547 966.071367,110.33584 968.98668,107.516426 C971.882812,104.677832 973.330879,101.158359 973.330879,96.9580078 C973.330879,92.7960156 971.892402,89.2861328 969.015449,86.4283594 C966.100137,83.5705859 962.551895,82.1416992 958.370723,82.1416992 C954.20873,82.1416992 950.679668,83.5609961 947.783535,86.3995898 C944.887402,89.2381836 943.439336,92.6809375 943.439336,96.7278516 C943.439336,101.024102 944.858633,104.591523 947.697227,107.430117 C950.53582,110.30707 954.055293,111.745547 958.255645,111.745547 Z M958.370723,105.962871 C955.858184,105.962871 953.834727,105.138145 952.300352,103.488691 C950.804336,101.858418 950.056328,99.6431641 950.056328,96.8429297 C950.056328,94.2344922 950.823516,92.1055469 952.357891,90.4560938 C953.892266,88.8066406 955.896543,87.9819141 958.370723,87.9819141 C960.883262,87.9819141 962.906719,88.8066406 964.441094,90.4560938 C965.956289,92.0863672 966.713887,94.2632617 966.713887,96.9867773 C966.713887,99.710293 965.956289,101.887188 964.441094,103.517461 C962.925898,105.147734 960.902441,105.962871 958.370723,105.962871 Z M986.679941,110.94 L986.679941,97.4183203 C986.679941,93.9276172 987.121074,91.482207 988.00334,90.0820898 C988.904785,88.662793 990.42957,87.9531445 992.577695,87.9531445 C994.553203,87.9531445 995.914961,88.4901758 996.662969,89.5642383 C997.430156,90.6191211 997.81375,92.5275 997.81375,95.289375 L997.81375,95.289375 L997.81375,110.94 L1004.31566,110.94 L1004.31566,93.7645898 C1004.31566,89.8135742 1003.5293,86.9653906 1001.95656,85.2200391 C1000.13449,83.1678125 997.593184,82.1416992 994.332637,82.1416992 C991.494043,82.1416992 988.943145,83.2637109 986.679941,85.5077344 L986.679941,85.5077344 L986.679941,82.9184766 L980.178027,82.9184766 L980.178027,110.94 L986.679941,110.94 Z M1037.1417,110.94 L1037.1417,96.4689258 C1037.1417,93.5344336 1037.55886,91.3863086 1038.39317,90.0245508 C1039.22749,88.662793 1040.55568,87.9819141 1042.37775,87.9819141 C1045.25471,87.9819141 1046.69318,90.4752734 1046.69318,95.4619922 L1046.69318,95.4619922 L1046.69318,110.94 L1053.1951,110.94 L1053.1951,96.4689258 C1053.1951,93.4960742 1053.60267,91.3383594 1054.4178,89.9957813 C1055.23294,88.6532031 1056.53236,87.9819141 1058.31607,87.9819141 C1059.85045,87.9819141 1060.95328,88.5477148 1061.62457,89.6793164 C1062.27668,90.7917383 1062.60273,92.6905273 1062.60273,95.3756836 L1062.60273,95.3756836 L1062.60273,110.94 L1069.10465,110.94 L1069.10465,93.6207422 C1069.10465,85.9680469 1065.94959,82.1416992 1059.63947,82.1416992 C1056.16795,82.1416992 1053.41566,83.5226367 1051.38262,86.2845117 C1049.54137,83.5226367 1047.03842,82.1416992 1043.87377,82.1416992 C1042.45447,82.1416992 1041.27492,82.3814453 1040.33512,82.8609375 C1039.45285,83.32125 1038.38838,84.2035156 1037.1417,85.5077344 L1037.1417,85.5077344 L1037.1417,82.9184766 L1030.66855,82.9184766 L1030.66855,110.94 L1037.1417,110.94 Z M1089.32963,111.745547 C1092.39838,111.745547 1095.26574,110.498867 1097.93172,108.005508 L1097.93172,108.005508 L1097.93172,110.94 L1104.43363,110.94 L1104.43363,82.9184766 L1097.93172,82.9184766 L1097.93172,86.1694336 C1095.34246,83.4842773 1092.41756,82.1416992 1089.15701,82.1416992 C1085.37861,82.1416992 1082.23314,83.5418164 1079.72061,86.3420508 C1077.20807,89.1422852 1075.9518,92.6425781 1075.9518,96.8429297 C1075.9518,101.12 1077.20807,104.687422 1079.72061,107.545195 C1082.25232,110.34543 1085.45533,111.745547 1089.32963,111.745547 Z M1090.30779,105.962871 C1088.06377,105.962871 1086.20334,105.109375 1084.7265,103.402383 C1083.28803,101.71457 1082.56879,99.5280859 1082.56879,96.8429297 C1082.56879,94.3303906 1083.30721,92.220625 1084.78404,90.5136328 C1086.28006,88.8258203 1088.14049,87.9819141 1090.36533,87.9819141 C1092.72443,87.9819141 1094.6424,88.8162305 1096.11924,90.4848633 C1097.59607,92.1918555 1098.33449,94.3591602 1098.33449,96.9867773 C1098.33449,99.6143945 1097.59607,101.781699 1096.11924,103.488691 C1094.6424,105.138145 1092.70525,105.962871 1090.30779,105.962871 Z M1126.52863,111.745547 C1129.15625,111.745547 1131.78387,111.064668 1134.41148,109.70291 L1134.41148,109.70291 L1134.41148,101.158359 C1132.85793,103.037969 1131.50576,104.303828 1130.35498,104.955938 C1129.16584,105.627227 1127.79449,105.962871 1126.24094,105.962871 C1123.80512,105.962871 1121.80084,105.118965 1120.22811,103.431152 C1118.67455,101.74334 1117.89777,99.585625 1117.89777,96.9580078 C1117.89777,94.3879297 1118.70332,92.2493945 1120.31441,90.5424023 C1121.92551,88.8354102 1123.94896,87.9819141 1126.38479,87.9819141 C1127.93834,87.9819141 1129.29051,88.3271484 1130.44129,89.0176172 C1131.61125,89.6889063 1132.93465,90.9259961 1134.41148,92.7288867 L1134.41148,92.7288867 L1134.41148,84.1267969 C1131.95648,82.8033984 1129.34805,82.1416992 1126.58617,82.1416992 C1122.28992,82.1416992 1118.66496,83.5801758 1115.71129,86.4571289 C1112.75762,89.334082 1111.28078,92.8631445 1111.28078,97.0443164 C1111.28078,101.225488 1112.73844,104.725781 1115.65375,107.545195 C1118.56906,110.34543 1122.19402,111.745547 1126.52863,111.745547 Z M1162.69193,111.745547 C1169.17467,111.745547 1174.70801,109.511113 1179.29195,105.042246 C1183.85672,100.592559 1186.1391,95.1742969 1186.1391,88.7874609 C1186.1391,82.4389844 1183.86631,77.001543 1179.32072,72.4751367 C1174.79432,67.9487305 1169.36646,65.6855273 1163.03717,65.6855273 C1156.63115,65.6855273 1151.14576,67.9295508 1146.581,72.4175977 C1141.99705,76.9056445 1139.70508,82.275957 1139.70508,88.5285352 C1139.70508,95.6441992 1142.21762,101.398105 1147.2427,105.790254 C1151.80746,109.760449 1156.95721,111.745547 1162.69193,111.745547 Z M1162.77824,105.473789 C1158.48199,105.473789 1154.694,103.891465 1151.41428,100.726816 C1148.11537,97.562168 1146.46592,93.5248438 1146.46592,88.6148438 C1146.46592,83.935 1148.05783,80.0031641 1151.24166,76.8193359 C1154.42549,73.5971484 1158.32855,71.9860547 1162.95086,71.9860547 C1167.59234,71.9860547 1171.48582,73.5971484 1174.63129,76.8193359 C1177.79594,80.0223438 1179.37826,83.9925391 1179.37826,88.7299219 C1179.37826,93.4097656 1177.77676,97.3799609 1174.57375,100.640508 C1171.37074,103.862695 1167.43891,105.473789 1162.77824,105.473789 Z M1206.5367,111.745547 C1210.60279,111.745547 1214.00719,110.402969 1216.74988,107.717813 C1219.4734,105.051836 1220.83516,101.676211 1220.83516,97.5909375 C1220.83516,94.5413672 1220.00084,91.9664941 1218.33221,89.8663184 C1216.66357,87.7661426 1214.02637,85.9872266 1210.42059,84.5295703 L1210.42059,84.5295703 L1205.99008,82.7170898 C1202.76789,81.3936914 1201.1568,79.6483398 1201.1568,77.4810352 C1201.1568,75.9083008 1201.77055,74.604082 1202.99805,73.5683789 C1204.22555,72.5134961 1205.76951,71.9860547 1207.62994,71.9860547 C1209.14514,71.9860547 1210.38223,72.2929297 1211.34121,72.9066797 C1212.26184,73.4437109 1213.23041,74.5944922 1214.24693,76.3590234 L1214.24693,76.3590234 L1219.68437,73.1368359 C1216.80742,68.1501172 1212.80846,65.6567578 1207.68748,65.6567578 C1203.8899,65.6567578 1200.71566,66.7883594 1198.16477,69.0515625 C1195.61387,71.2955859 1194.33842,74.0862305 1194.33842,77.4234961 C1194.33842,82.3718555 1197.3784,86.1310742 1203.45836,88.7011523 L1203.45836,88.7011523 L1207.74502,90.4848633 C1208.85744,90.9643555 1209.81643,91.4678223 1210.62197,91.9952637 C1211.42752,92.5227051 1212.08442,93.0885059 1212.59269,93.692666 C1213.10095,94.2968262 1213.47495,94.9585254 1213.7147,95.6777637 C1213.95444,96.397002 1214.07432,97.1881641 1214.07432,98.05125 C1214.07432,100.199375 1213.38385,101.973496 1212.00291,103.373613 C1210.62197,104.77373 1208.88621,105.473789 1206.79562,105.473789 C1204.14883,105.473789 1202.13496,104.514805 1200.75402,102.596836 C1199.98684,101.599492 1199.4498,99.7966016 1199.14293,97.1881641 L1199.14293,97.1881641 L1192.35332,98.6841797 C1192.96707,102.826992 1194.51104,106.03959 1196.98521,108.321973 C1199.49775,110.604355 1202.68158,111.745547 1206.5367,111.745547 Z"/>
  </g>
</svg>
