<svg xmlns="http://www.w3.org/2000/svg" width="1891" height="641" viewBox="0 0 1891 641">
  <g fill="none" fill-rule="evenodd">
    <rect width="1891" height="641" fill="#222"/>
    <path fill="#979797" fill-rule="nonzero" d="M256.182854,76.9656395 C369.536165,76.9656395 429.642582,138.111728 430.833375,250.536785 L430.85142,253.959291 L430.85142,485.592446 L336.252083,485.592446 L328.889,434.053 L327.3,434.053 L326.87689,434.733162 C302.851002,472.873869 263.969054,491.430914 209.180304,492.15794 L207.515169,492.174515 L205.806006,492.180188 C122.102216,492.180188 68.7263184,443.417022 68.7263184,367.888469 C68.7263184,292.167855 122.789671,244.555743 210.876596,243.611073 L213.556291,243.59675 L316.347,243.596 L316.347899,233.808552 C316.347899,198.208036 294.691798,177.203061 255.492138,176.381162 L254.298904,176.362439 L253.08274,176.356106 C219.945803,176.356106 194.645934,190.452714 174.722937,218.081617 L174.120853,218.922998 L173.492583,219.807704 L91.9378975,159.235535 L92.5763222,158.382062 C131.313628,106.596401 188.844143,76.9656395 256.182854,76.9656395 Z M256.182854,79.0900395 C190.189478,79.0900395 133.757936,107.814886 95.4332512,158.123456 L94.919,158.803 L173.02,216.81 L173.619487,215.986381 C193.427306,188.941222 218.542518,174.806216 251.071427,174.24886 L252.059422,174.236127 L253.08274,174.231706 C294.528406,174.231706 317.99996,195.841273 318.465247,232.687347 L318.472299,233.808552 L318.472299,245.72115 L213.556291,245.72115 C124.998477,245.72115 70.8507184,292.649208 70.8507184,367.888469 C70.8507184,442.198744 123.23478,490.055788 205.806006,490.055788 C261.693303,490.055788 300.985049,471.850409 325.080299,433.599419 L325.805809,432.43416 L326.116888,431.928656 L330.731795,431.928656 L338.094,483.468 L428.72702,483.468 L428.72702,253.959291 C428.72702,142.767306 371.82449,81.5551447 262.883031,79.1629339 L259.565852,79.108456 L256.182854,79.0900395 Z M318.472299,322.649649 L318.472299,325.261906 C318.472299,371.973534 282.345078,403.05192 228.281831,403.05192 C196.873213,403.05192 179.167868,388.402855 179.167868,362.46327 C179.167868,337.403495 196.699647,322.940745 227.725055,322.653996 L228.669345,322.649649 L318.472299,322.649649 Z M316.347899,324.774 L228.669345,324.774 C198.142202,324.774 181.292268,338.433463 181.292268,362.46327 C181.292268,387.131196 197.966961,400.92752 228.281831,400.92752 C280.707307,400.92752 315.643894,371.324364 316.337383,326.621156 L316.347899,325.261906 L316.347899,324.774 Z"/>
    <path fill="#FFF" fill-opacity=".25" fill-rule="nonzero" d="M1569.62226,491.117988 C1625.03679,491.117988 1665.72578,473.292334 1690.52669,432.990856 L1693.62681,432.990856 L1700.98958,484.530246 L1793.60547,484.530246 L1793.60547,253.959291 C1793.60547,141.967684 1735.86585,78.0278395 1619.99911,78.0278395 C1550.24655,78.0278395 1494.05699,109.804005 1457.24314,159.01831 L1537.07106,218.307984 C1556.05926,191.569503 1581.24768,175.293906 1616.89899,175.293906 C1659.13804,175.293906 1681.22635,197.769731 1681.22635,233.808552 L1681.22635,244.65895 L1577.37254,244.65895 C1487.46925,244.65895 1433.60477,292.710712 1433.60477,367.888469 C1433.60477,442.291197 1485.91919,491.117988 1569.62226,491.117988 Z M1592.09808,401.98972 C1561.09695,401.98972 1544.04632,387.651694 1544.04632,362.46327 C1544.04632,338.049875 1561.09695,323.711849 1592.4856,323.711849 L1681.22635,323.711849 L1681.22635,325.261906 C1681.22635,371.376097 1645.57504,401.98972 1592.09808,401.98972 Z"/>
    <path fill="#FFA600" fill-rule="nonzero" d="M89.1166434 548.5L89.1166434 540.765625 89.2885184 540.765625 95.1400809 548.5 96.4447684 548.5 96.4447684 537.140625 94.6478934 537.140625 94.6478934 544.882812 94.4916434 544.882812 88.6322684 537.140625 87.3197684 537.140625 87.3197684 548.5 89.1166434 548.5zM101.702461 548.5L102.538398 546.242188 107.429023 546.242188 108.264961 548.5 110.304023 548.5 105.702461 537.101562 104.350898 537.101562 99.7493357 548.5 101.702461 548.5zM106.874336 544.742188L103.093086 544.742188 104.866523 539.953125 105.108711 539.953125 106.874336 544.742188zM115.350778 548.5L115.350778 541.421875 115.530466 541.421875 118.725778 548.5 119.858591 548.5 123.053903 541.421875 123.233591 541.421875 123.233591 548.5 124.967966 548.5 124.967966 537.140625 123.335153 537.140625 119.405466 545.796875 119.241403 545.796875 115.288278 537.140625 113.608591 537.140625 113.608591 548.5 115.350778 548.5zM137.085033 548.5L137.085033 546.953125 131.342845 546.953125 131.342845 543.445312 134.819408 543.445312 134.819408 541.914062 131.342845 541.914062 131.342845 538.6875 136.881908 538.6875 136.881908 537.140625 129.538158 537.140625 129.538158 548.5 137.085033 548.5zM150.26448 548.71875C152.928542 548.71875 154.412917 547.257812 154.412917 545.3125 154.412917 543.710938 153.678542 542.726562 151.60823 542.039062L150.01448 541.515625C148.803542 541.117188 148.428542 540.664062 148.428542 539.898438 148.428542 539.078125 149.07698 538.429688 150.475417 538.429688 151.530105 538.429688 152.186355 538.867188 152.694167 539.59375L154.084792 538.734375C153.334792 537.640625 152.272292 536.921875 150.491042 536.921875 148.162917 536.921875 146.73323 538.210938 146.73323 539.953125 146.73323 541.539062 147.57698 542.515625 149.209792 543.046875L150.850417 543.585938C152.280105 544.054688 152.686355 544.617188 152.686355 545.453125 152.686355 546.460938 151.85823 547.195312 150.26448 547.195312 148.905105 547.195312 148.123855 546.671875 147.498855 545.640625L146.084792 546.484375C146.897292 547.921875 148.10823 548.71875 150.26448 548.71875zM158.740922 548.5L159.57686 546.242188 164.467485 546.242188 165.303422 548.5 167.342485 548.5 162.740922 537.101562 161.38936 537.101562 156.787797 548.5 158.740922 548.5zM163.912797 544.742188L160.131547 544.742188 161.904985 539.953125 162.147172 539.953125 163.912797 544.742188zM172.443927 548.5L172.443927 540.765625 172.615802 540.765625 178.467365 548.5 179.772052 548.5 179.772052 537.140625 177.975177 537.140625 177.975177 544.882812 177.818927 544.882812 171.959552 537.140625 170.647052 537.140625 170.647052 548.5 172.443927 548.5zM187.295369 548.71875C189.959432 548.71875 191.443807 547.257812 191.443807 545.3125 191.443807 543.710938 190.709432 542.726562 188.639119 542.039062L187.045369 541.515625C185.834432 541.117188 185.459432 540.664062 185.459432 539.898438 185.459432 539.078125 186.107869 538.429688 187.506307 538.429688 188.560994 538.429688 189.217244 538.867188 189.725057 539.59375L191.115682 538.734375C190.365682 537.640625 189.303182 536.921875 187.521932 536.921875 185.193807 536.921875 183.764119 538.210938 183.764119 539.953125 183.764119 541.539062 184.607869 542.515625 186.240682 543.046875L187.881307 543.585938C189.310994 544.054688 189.717244 544.617188 189.717244 545.453125 189.717244 546.460938 188.889119 547.195312 187.295369 547.195312 185.935994 547.195312 185.154744 546.671875 184.529744 545.640625L183.115682 546.484375C183.928182 547.921875 185.139119 548.71875 187.295369 548.71875zM90.8978934 567.5C94.3900809 567.5 96.5697684 565.390625 96.5697684 561.835938 96.5697684 558.28125 94.3900809 556.140625 90.8822684 556.140625L87.3197684 556.140625 87.3197684 567.5 90.8978934 567.5zM90.9057059 565.820312L89.1244559 565.820312 89.1244559 557.820312 90.9057059 557.820312C93.3510184 557.820312 94.7416434 559.210938 94.7416434 561.828125 94.7416434 564.445312 93.3510184 565.820312 90.9057059 565.820312zM102.319648 567.5L102.319648 556.140625 100.514961 556.140625 100.514961 567.5 102.319648 567.5zM109.928903 567.71875C112.592966 567.71875 114.077341 566.257812 114.077341 564.3125 114.077341 562.710938 113.342966 561.726562 111.272653 561.039062L109.678903 560.515625C108.467966 560.117188 108.092966 559.664062 108.092966 558.898438 108.092966 558.078125 108.741403 557.429688 110.139841 557.429688 111.194528 557.429688 111.850778 557.867188 112.358591 558.59375L113.749216 557.734375C112.999216 556.640625 111.936716 555.921875 110.155466 555.921875 107.827341 555.921875 106.397653 557.210938 106.397653 558.953125 106.397653 560.539062 107.241403 561.515625 108.874216 562.046875L110.514841 562.585938C111.944528 563.054688 112.350778 563.617188 112.350778 564.453125 112.350778 565.460938 111.522653 566.195312 109.928903 566.195312 108.569528 566.195312 107.788278 565.671875 107.163278 564.640625L105.749216 565.484375C106.561716 566.921875 107.772653 567.71875 109.928903 567.71875zM119.678783 567.5L119.678783 563.414062 121.85847 563.414062C124.342845 563.414062 125.79597 562.015625 125.79597 559.765625 125.79597 557.585938 124.342845 556.140625 121.842845 556.140625L117.866283 556.140625 117.866283 567.5 119.678783 567.5zM121.756908 561.851562L119.678783 561.851562 119.678783 557.695312 121.756908 557.695312C123.225658 557.695312 123.98347 558.578125 123.98347 559.78125 123.98347 561.03125 123.217845 561.851562 121.756908 561.851562zM136.631788 567.5L136.631788 565.882812 131.405225 565.882812 131.405225 556.140625 129.600538 556.140625 129.600538 567.5 136.631788 567.5zM141.092605 567.5L141.928542 565.242188 146.819167 565.242188 147.655105 567.5 149.694167 567.5 145.092605 556.101562 143.741042 556.101562 139.13948 567.5 141.092605 567.5zM146.26448 563.742188L142.48323 563.742188 144.256667 558.953125 144.498855 558.953125 146.26448 563.742188zM156.131547 567.5L156.131547 562.804688 160.506547 556.140625 158.45186 556.140625 155.373735 561.28125 155.115922 561.28125 152.147172 556.140625 149.990922 556.140625 154.311235 562.804688 154.311235 567.5 156.131547 567.5zM174.631307 567.5C177.006307 567.5 178.451619 566.367188 178.451619 564.28125 178.451619 562.914062 177.701619 561.984375 176.209432 561.664062L176.209432 561.460938C177.365682 561.132812 178.115682 560.359375 178.115682 559.070312 178.115682 557.289062 176.795369 556.140625 174.256307 556.140625L170.162557 556.140625 170.162557 567.5 174.631307 567.5zM174.240682 560.992188L171.975057 560.992188 171.975057 557.6875 174.232869 557.6875C175.678182 557.6875 176.310994 558.28125 176.310994 559.28125 176.310994 560.40625 175.709432 560.992188 174.240682 560.992188zM174.514119 565.953125L171.975057 565.953125 171.975057 562.390625 174.506307 562.390625C175.990682 562.390625 176.646932 562.9375 176.646932 564.164062 176.646932 565.429688 175.818807 565.953125 174.514119 565.953125zM187.178062 567.71875C190.490562 567.71875 192.701499 565.40625 192.701499 561.835938 192.701499 558.265625 190.490562 555.921875 187.178062 555.921875 183.865562 555.921875 181.701499 558.265625 181.701499 561.835938 181.701499 565.40625 183.873374 567.71875 187.178062 567.71875zM187.178062 566.054688C184.857749 566.054688 183.529624 564.4375 183.529624 561.835938 183.529624 559.242188 184.849937 557.585938 187.178062 557.585938 189.506187 557.585938 190.873374 559.242188 190.873374 561.835938 190.873374 564.4375 189.498374 566.054688 187.178062 566.054688zM203.584191 567.5L203.584191 565.882812 198.357629 565.882812 198.357629 556.140625 196.552941 556.140625 196.552941 567.5 203.584191 567.5zM210.982509 567.5C214.474696 567.5 216.654384 565.390625 216.654384 561.835938 216.654384 558.28125 214.474696 556.140625 210.966884 556.140625L207.404384 556.140625 207.404384 567.5 210.982509 567.5zM210.990321 565.820312L209.209071 565.820312 209.209071 557.820312 210.990321 557.820312C213.435634 557.820312 214.826259 559.210938 214.826259 561.828125 214.826259 564.445312 213.435634 565.820312 210.990321 565.820312zM536.646956 548.5L536.646956 540.765625 536.818831 540.765625 542.670394 548.5 543.975081 548.5 543.975081 537.140625 542.178206 537.140625 542.178206 544.882812 542.021956 544.882812 536.162581 537.140625 534.850081 537.140625 534.850081 548.5 536.646956 548.5zM549.232773 548.5L550.068711 546.242188 554.959336 546.242188 555.795273 548.5 557.834336 548.5 553.232773 537.101562 551.881211 537.101562 547.279648 548.5 549.232773 548.5zM554.404648 544.742188L550.623398 544.742188 552.396836 539.953125 552.639023 539.953125 554.404648 544.742188zM562.881091 548.5L562.881091 541.421875 563.060778 541.421875 566.256091 548.5 567.388903 548.5 570.584216 541.421875 570.763903 541.421875 570.763903 548.5 572.498278 548.5 572.498278 537.140625 570.865466 537.140625 566.935778 545.796875 566.771716 545.796875 562.818591 537.140625 561.138903 537.140625 561.138903 548.5 562.881091 548.5zM584.615345 548.5L584.615345 546.953125 578.873158 546.953125 578.873158 543.445312 582.34972 543.445312 582.34972 541.914062 578.873158 541.914062 578.873158 538.6875 584.41222 538.6875 584.41222 537.140625 577.06847 537.140625 577.06847 548.5 584.615345 548.5zM597.794793 548.71875C600.458855 548.71875 601.94323 547.257812 601.94323 545.3125 601.94323 543.710938 601.208855 542.726562 599.138543 542.039062L597.544793 541.515625C596.333855 541.117188 595.958855 540.664062 595.958855 539.898438 595.958855 539.078125 596.607293 538.429688 598.00573 538.429688 599.060418 538.429688 599.716668 538.867188 600.22448 539.59375L601.615105 538.734375C600.865105 537.640625 599.802605 536.921875 598.021355 536.921875 595.69323 536.921875 594.263543 538.210938 594.263543 539.953125 594.263543 541.539062 595.107293 542.515625 596.740105 543.046875L598.38073 543.585938C599.810418 544.054688 600.216668 544.617188 600.216668 545.453125 600.216668 546.460938 599.388543 547.195312 597.794793 547.195312 596.435418 547.195312 595.654168 546.671875 595.029168 545.640625L593.615105 546.484375C594.427605 547.921875 595.638543 548.71875 597.794793 548.71875zM606.271235 548.5L607.107172 546.242188 611.997797 546.242188 612.833735 548.5 614.872797 548.5 610.271235 537.101562 608.919672 537.101562 604.31811 548.5 606.271235 548.5zM611.44311 544.742188L607.66186 544.742188 609.435297 539.953125 609.677485 539.953125 611.44311 544.742188zM619.97424 548.5L619.97424 540.765625 620.146115 540.765625 625.997677 548.5 627.302365 548.5 627.302365 537.140625 625.50549 537.140625 625.50549 544.882812 625.34924 544.882812 619.489865 537.140625 618.177365 537.140625 618.177365 548.5 619.97424 548.5zM634.825682 548.71875C637.489744 548.71875 638.974119 547.257812 638.974119 545.3125 638.974119 543.710938 638.239744 542.726562 636.169432 542.039062L634.575682 541.515625C633.364744 541.117188 632.989744 540.664062 632.989744 539.898438 632.989744 539.078125 633.638182 538.429688 635.036619 538.429688 636.091307 538.429688 636.747557 538.867188 637.255369 539.59375L638.645994 538.734375C637.895994 537.640625 636.833494 536.921875 635.052244 536.921875 632.724119 536.921875 631.294432 538.210938 631.294432 539.953125 631.294432 541.539062 632.138182 542.515625 633.770994 543.046875L635.411619 543.585938C636.841307 544.054688 637.247557 544.617188 637.247557 545.453125 637.247557 546.460938 636.419432 547.195312 634.825682 547.195312 633.466307 547.195312 632.685057 546.671875 632.060057 545.640625L630.645994 546.484375C631.458494 547.921875 632.669432 548.71875 634.825682 548.71875zM537.803206 567.71875C540.467269 567.71875 541.951644 566.257812 541.951644 564.3125 541.951644 562.710938 541.217269 561.726562 539.146956 561.039062L537.553206 560.515625C536.342269 560.117188 535.967269 559.664062 535.967269 558.898438 535.967269 558.078125 536.615706 557.429688 538.014144 557.429688 539.068831 557.429688 539.725081 557.867188 540.232894 558.59375L541.623519 557.734375C540.873519 556.640625 539.811019 555.921875 538.029769 555.921875 535.701644 555.921875 534.271956 557.210938 534.271956 558.953125 534.271956 560.539062 535.115706 561.515625 536.748519 562.046875L538.389144 562.585938C539.818831 563.054688 540.225081 563.617188 540.225081 564.453125 540.225081 565.460938 539.396956 566.195312 537.803206 566.195312 536.443831 566.195312 535.662581 565.671875 535.037581 564.640625L533.623519 565.484375C534.436019 566.921875 535.646956 567.71875 537.803206 567.71875zM550.084336 567.5L550.084336 557.71875 553.592148 557.71875 553.592148 556.140625 544.732773 556.140625 544.732773 557.71875 548.264023 557.71875 548.264023 567.5 550.084336 567.5zM556.779528 567.5L557.615466 565.242188 562.506091 565.242188 563.342028 567.5 565.381091 567.5 560.779528 556.101562 559.427966 556.101562 554.826403 567.5 556.779528 567.5zM561.951403 563.742188L558.170153 563.742188 559.943591 558.953125 560.185778 558.953125 561.951403 563.742188zM570.482533 567.5L570.482533 559.765625 570.654408 559.765625 576.50597 567.5 577.810658 567.5 577.810658 556.140625 576.013783 556.140625 576.013783 563.882812 575.857533 563.882812 569.998158 556.140625 568.685658 556.140625 568.685658 567.5 570.482533 567.5zM585.958975 567.5C589.451163 567.5 591.63085 565.390625 591.63085 561.835938 591.63085 558.28125 589.451163 556.140625 585.94335 556.140625L582.38085 556.140625 582.38085 567.5 585.958975 567.5zM585.966788 565.820312L584.185538 565.820312 584.185538 557.820312 585.966788 557.820312C588.4121 557.820312 589.802725 559.210938 589.802725 561.828125 589.802725 564.445312 588.4121 565.820312 585.966788 565.820312zM595.78698 567.5L596.622918 565.242188 601.513543 565.242188 602.34948 567.5 604.388543 567.5 599.78698 556.101562 598.435418 556.101562 593.833855 567.5 595.78698 567.5zM600.958855 563.742188L597.177605 563.742188 598.951043 558.953125 599.19323 558.953125 600.958855 563.742188zM609.497797 567.5L609.497797 563.3125 611.716547 563.3125 613.872797 567.5 615.904047 567.5 613.482172 563.0625C614.919672 562.570312 615.72436 561.375 615.72436 559.710938 615.72436 557.5625 614.294672 556.140625 611.825922 556.140625L607.69311 556.140625 607.69311 567.5 609.497797 567.5zM611.739985 561.734375L609.497797 561.734375 609.497797 557.695312 611.739985 557.695312C613.169672 557.695312 613.91186 558.5625 613.91186 559.726562 613.91186 560.945312 613.16186 561.734375 611.739985 561.734375zM623.310177 567.5C626.802365 567.5 628.982052 565.390625 628.982052 561.835938 628.982052 558.28125 626.802365 556.140625 623.294552 556.140625L619.732052 556.140625 619.732052 567.5 623.310177 567.5zM623.31799 565.820312L621.53674 565.820312 621.53674 557.820312 623.31799 557.820312C625.763302 557.820312 627.153927 559.210938 627.153927 561.828125 627.153927 564.445312 625.763302 565.820312 623.31799 565.820312zM643.614624 567.5C645.989624 567.5 647.434937 566.367188 647.434937 564.28125 647.434937 562.914062 646.684937 561.984375 645.192749 561.664062L645.192749 561.460938C646.348999 561.132812 647.098999 560.359375 647.098999 559.070312 647.098999 557.289062 645.778687 556.140625 643.239624 556.140625L639.145874 556.140625 639.145874 567.5 643.614624 567.5zM643.223999 560.992188L640.958374 560.992188 640.958374 557.6875 643.216187 557.6875C644.661499 557.6875 645.294312 558.28125 645.294312 559.28125 645.294312 560.40625 644.692749 560.992188 643.223999 560.992188zM643.497437 565.953125L640.958374 565.953125 640.958374 562.390625 643.489624 562.390625C644.973999 562.390625 645.630249 562.9375 645.630249 564.164062 645.630249 565.429688 644.802124 565.953125 643.497437 565.953125zM656.161379 567.71875C659.473879 567.71875 661.684817 565.40625 661.684817 561.835938 661.684817 558.265625 659.473879 555.921875 656.161379 555.921875 652.848879 555.921875 650.684817 558.265625 650.684817 561.835938 650.684817 565.40625 652.856692 567.71875 656.161379 567.71875zM656.161379 566.054688C653.841067 566.054688 652.512942 564.4375 652.512942 561.835938 652.512942 559.242188 653.833254 557.585938 656.161379 557.585938 658.489504 557.585938 659.856692 559.242188 659.856692 561.835938 659.856692 564.4375 658.481692 566.054688 656.161379 566.054688zM672.567509 567.5L672.567509 565.882812 667.340946 565.882812 667.340946 556.140625 665.536259 556.140625 665.536259 567.5 672.567509 567.5zM679.965826 567.5C683.458014 567.5 685.637701 565.390625 685.637701 561.835938 685.637701 558.28125 683.458014 556.140625 679.950201 556.140625L676.387701 556.140625 676.387701 567.5 679.965826 567.5zM679.973639 565.820312L678.192389 565.820312 678.192389 557.820312 679.973639 557.820312C682.418951 557.820312 683.809576 559.210938 683.809576 561.828125 683.809576 564.445312 682.418951 565.820312 679.973639 565.820312z"/>
    <path fill="#979797" fill-rule="nonzero" d="M707.200794,67.2777843 C820.651108,67.2777843 880.28266,127.048638 881.463946,239.679659 L881.481846,243.108893 L881.481846,485.592446 L786.488242,485.592446 L778.35,425.527 L771.43,425.527 L771.089136,426.261533 C750.530321,469.807707 710.806865,491.683825 654.845235,492.541451 L653.14446,492.561007 L651.398748,492.567702 C568.809863,492.567702 516.256631,443.408533 516.256631,366.338412 C516.256631,291.409861 572.350375,243.40133 663.731886,242.448652 L666.511802,242.434207 L766.59,242.434 L766.590811,227.608325 C766.590811,185.816608 746.761795,164.428266 706.208964,163.59356 L704.973746,163.574557 L703.713166,163.568137 C666.154237,163.568137 638.914087,177.931368 614.985502,208.344953 L614.261399,209.271492 L613.59442,210.130651 L534.412147,145.597098 L535.10669,144.771509 C577.470648,94.4143513 636.532588,67.2777843 707.200794,67.2777843 Z M707.200794,69.4021843 C637.856203,69.4021843 579.860587,95.7302084 537.996017,144.649793 L537.43,145.316 L613.253,207.111 L613.319078,207.027338 C637.148436,176.742225 664.362763,162.037443 701.431297,161.461366 L702.557608,161.448233 L703.713166,161.443737 C746.704888,161.443737 768.281505,183.366463 768.708738,226.300852 L768.715211,227.608325 L768.715211,244.558607 L666.511802,244.558607 C574.589651,244.558607 518.381031,291.914637 518.381031,366.338412 C518.381031,442.202389 569.952609,490.443302 651.398748,490.443302 C708.407843,490.443302 748.56952,468.985992 769.169272,425.352004 L769.787516,424.022973 L770.071513,423.403344 L780.206431,423.403344 L788.344,483.468 L879.357446,483.468 L879.357446,243.108893 C879.357446,131.687683 822.928181,71.8123575 713.906549,69.4734435 L710.586769,69.4201849 L707.200794,69.4021843 Z M768.715211,315.286879 L768.715211,322.936821 C768.715211,373.788169 734.259805,406.152033 680.462314,406.152033 C646.634399,406.152033 627.473209,389.013414 627.473209,360.138185 C627.473209,332.191223 645.632271,315.620481 678.305242,315.291861 L679.299771,315.286879 L768.715211,315.286879 Z M766.590811,317.411 L679.299771,317.411 C647.125945,317.411 629.597609,333.1367 629.597609,360.138185 C629.597609,387.784056 647.75813,404.027633 680.462314,404.027633 C732.58871,404.027633 765.919382,373.209851 766.580783,324.420765 L766.590811,322.936821 L766.590811,317.411 Z"/>
    <path fill="#FFF" fill-opacity=".25" fill-rule="nonzero" d="M1567.68469,491.505502 C1623.48673,491.505502 1665.72578,470.967249 1687.03906,424.465544 L1695.56438,424.465544 L1703.70217,484.530246 L1796.70559,484.530246 L1796.70559,243.108893 C1796.70559,129.954744 1738.57845,68.3399843 1623.48673,68.3399843 C1551.40909,68.3399843 1493.28196,96.6285216 1452.20545,145.455312 L1529.70829,208.620128 C1552.57163,179.169048 1579.69763,162.505937 1619.99911,162.505937 C1663.4007,162.505937 1683.93895,184.981762 1683.93895,227.608325 L1683.93895,243.496407 L1582.79774,243.496407 C1488.63179,243.496407 1433.60477,292.710712 1433.60477,366.338412 C1433.60477,442.678712 1485.53167,491.505502 1567.68469,491.505502 Z M1596.74825,405.089833 C1562.647,405.089833 1544.82135,387.651694 1544.82135,360.138185 C1544.82135,333.399704 1561.87197,316.349079 1595.58571,316.349079 L1683.93895,316.349079 L1683.93895,322.936821 C1683.93895,373.313668 1649.8377,405.089833 1596.74825,405.089833 Z"/>
    <path fill="#979797" fill-rule="nonzero" d="M1167.28133,57.9774432 C1280.94195,57.9774432 1339.9876,116.08049 1341.15715,228.825265 L1341.17487,232.258495 L1341.17487,485.592446 L1245.79385,485.592446 L1236.493,417.002 L1224.228,417.002 L1223.95344,417.799248 C1206.77808,466.670181 1166.30806,491.933877 1109.18468,492.924877 L1107.44857,492.947477 L1105.66658,492.955216 C1024.59607,492.955216 972.849544,443.396702 972.849544,365.17587 C972.849544,291.008086 1031.04315,242.254003 1125.27585,241.286338 L1128.1424,241.271665 L1225.508,241.271 L1225.50881,221.408097 C1225.50881,173.707185 1207.35653,152.036939 1165.95674,151.193353 L1164.69508,151.17416 L1163.40619,151.167683 C1121.52497,151.167683 1091.63039,166.07998 1063.92082,198.995858 L1063.08179,199.998823 L1062.37677,200.846897 L985.57028,131.958602 L986.311732,131.166452 C1031.84319,82.521728 1092.5683,57.9774432 1167.28133,57.9774432 Z M1167.28133,60.1018432 C1093.8794,60.1018432 1034.18317,83.9335919 989.220709,131.179323 L988.607,131.828 L1062.155,197.794 L1062.29895,197.623772 C1089.83636,164.914617 1119.65747,149.658704 1160.86874,149.061551 L1162.12107,149.047939 L1163.40619,149.043283 C1207.40788,149.043283 1227.23513,171.173989 1227.62727,219.922711 L1227.63321,221.408097 L1227.63321,243.396065 L1128.1424,243.396065 C1033.31746,243.396065 974.973944,291.532149 974.973944,365.17587 C974.973944,442.202406 1025.7493,490.830816 1105.66658,490.830816 C1163.79845,490.830816 1204.74542,466.049985 1221.9506,417.090907 L1222.46469,415.599898 L1222.70885,414.878031 L1238.3493,414.878031 L1247.649,483.468 L1339.05047,483.468 L1339.05047,232.258495 C1339.05047,120.697053 1283.20593,62.4453568 1173.99932,60.1711187 L1170.6737,60.1193394 L1167.28133,60.1018432 Z M1227.63321,308.311623 L1227.63321,320.611735 C1227.63321,375.880814 1194.95292,409.639661 1141.31788,409.639661 C1105.409,409.639661 1084.45364,389.661492 1084.45364,358.200614 C1084.45364,327.164621 1103.3469,308.683694 1137.93973,308.317179 L1138.9928,308.311623 L1227.63321,308.311623 Z M1225.50881,310.436 L1138.9928,310.436 C1104.88564,310.436 1086.57804,328.043338 1086.57804,358.200614 C1086.57804,388.464927 1106.56018,407.515261 1141.31788,407.515261 C1193.23947,407.515261 1224.87184,375.375271 1225.4993,322.228657 L1225.50881,320.611735 L1225.50881,310.436 Z"/>
    <path fill="#FFF" fill-opacity=".25" fill-rule="nonzero" d="M1565.3596,491.893016 C1621.54916,491.893016 1665.33827,468.642164 1683.16392,415.940231 L1697.11443,415.940231 L1706.41477,484.530246 L1799.8057,484.530246 L1799.8057,232.258495 C1799.8057,117.941803 1741.29105,59.0396432 1626.97436,59.0396432 C1552.57163,59.0396432 1492.11942,83.4530385 1446.78025,131.892315 L1521.95801,199.319787 C1548.69649,167.156108 1578.53508,150.105483 1623.09922,150.105483 C1667.27584,150.105483 1686.26404,172.581307 1686.26404,221.408097 L1686.26404,242.333865 L1587.83543,242.333865 C1489.79433,242.333865 1433.60477,293.098226 1433.60477,365.17587 C1433.60477,443.066226 1485.14416,491.893016 1565.3596,491.893016 Z M1601.01091,408.577461 C1564.19706,408.577461 1545.20886,387.651694 1545.20886,358.200614 C1545.20886,328.749534 1562.647,309.373823 1598.68582,309.373823 L1686.26404,309.373823 L1686.26404,320.611735 C1686.26404,375.251239 1654.10036,408.577461 1601.01091,408.577461 Z"/>
    <path fill="#FFA600" fill-rule="nonzero" d="M993.239869,548.5 L993.239869,540.765625 L993.411744,540.765625 L999.263306,548.5 L1000.56799,548.5 L1000.56799,537.140625 L998.771119,537.140625 L998.771119,544.882812 L998.614869,544.882812 L992.755494,537.140625 L991.442994,537.140625 L991.442994,548.5 L993.239869,548.5 Z M1005.82569,548.5 L1006.66162,546.242188 L1011.55225,546.242188 L1012.38819,548.5 L1014.42725,548.5 L1009.82569,537.101562 L1008.47412,537.101562 L1003.87256,548.5 L1005.82569,548.5 Z M1010.99756,544.742188 L1007.21631,544.742188 L1008.98975,539.953125 L1009.23194,539.953125 L1010.99756,544.742188 Z M1019.474,548.5 L1019.474,541.421875 L1019.65369,541.421875 L1022.849,548.5 L1023.98182,548.5 L1027.17713,541.421875 L1027.35682,541.421875 L1027.35682,548.5 L1029.09119,548.5 L1029.09119,537.140625 L1027.45838,537.140625 L1023.52869,545.796875 L1023.36463,545.796875 L1019.4115,537.140625 L1017.73182,537.140625 L1017.73182,548.5 L1019.474,548.5 Z M1041.20826,548.5 L1041.20826,546.953125 L1035.46607,546.953125 L1035.46607,543.445312 L1038.94263,543.445312 L1038.94263,541.914062 L1035.46607,541.914062 L1035.46607,538.6875 L1041.00513,538.6875 L1041.00513,537.140625 L1033.66138,537.140625 L1033.66138,548.5 L1041.20826,548.5 Z M1054.38771,548.71875 C1057.05177,548.71875 1058.53614,547.257812 1058.53614,545.3125 C1058.53614,543.710938 1057.80177,542.726562 1055.73146,542.039062 L1054.13771,541.515625 C1052.92677,541.117188 1052.55177,540.664062 1052.55177,539.898438 C1052.55177,539.078125 1053.20021,538.429688 1054.59864,538.429688 C1055.65333,538.429688 1056.30958,538.867188 1056.81739,539.59375 L1058.20802,538.734375 C1057.45802,537.640625 1056.39552,536.921875 1054.61427,536.921875 C1052.28614,536.921875 1050.85646,538.210938 1050.85646,539.953125 C1050.85646,541.539062 1051.70021,542.515625 1053.33302,543.046875 L1054.97364,543.585938 C1056.40333,544.054688 1056.80958,544.617188 1056.80958,545.453125 C1056.80958,546.460938 1055.98146,547.195312 1054.38771,547.195312 C1053.02833,547.195312 1052.24708,546.671875 1051.62208,545.640625 L1050.20802,546.484375 C1051.02052,547.921875 1052.23146,548.71875 1054.38771,548.71875 Z M1062.86415,548.5 L1063.70009,546.242188 L1068.59071,546.242188 L1069.42665,548.5 L1071.46571,548.5 L1066.86415,537.101562 L1065.51259,537.101562 L1060.91102,548.5 L1062.86415,548.5 Z M1068.03602,544.742188 L1064.25477,544.742188 L1066.02821,539.953125 L1066.2704,539.953125 L1068.03602,544.742188 Z M1076.56715,548.5 L1076.56715,540.765625 L1076.73903,540.765625 L1082.59059,548.5 L1083.89528,548.5 L1083.89528,537.140625 L1082.0984,537.140625 L1082.0984,544.882812 L1081.94215,544.882812 L1076.08278,537.140625 L1074.77028,537.140625 L1074.77028,548.5 L1076.56715,548.5 Z M1091.41859,548.71875 C1094.08266,548.71875 1095.56703,547.257812 1095.56703,545.3125 C1095.56703,543.710938 1094.83266,542.726562 1092.76234,542.039062 L1091.16859,541.515625 C1089.95766,541.117188 1089.58266,540.664062 1089.58266,539.898438 C1089.58266,539.078125 1090.23109,538.429688 1091.62953,538.429688 C1092.68422,538.429688 1093.34047,538.867188 1093.84828,539.59375 L1095.23891,538.734375 C1094.48891,537.640625 1093.42641,536.921875 1091.64516,536.921875 C1089.31703,536.921875 1087.88734,538.210938 1087.88734,539.953125 C1087.88734,541.539062 1088.73109,542.515625 1090.36391,543.046875 L1092.00453,543.585938 C1093.43422,544.054688 1093.84047,544.617188 1093.84047,545.453125 C1093.84047,546.460938 1093.01234,547.195312 1091.41859,547.195312 C1090.05922,547.195312 1089.27797,546.671875 1088.65297,545.640625 L1087.23891,546.484375 C1088.05141,547.921875 1089.26234,548.71875 1091.41859,548.71875 Z M995.958619,567.5 L995.958619,557.71875 L999.466431,557.71875 L999.466431,556.140625 L990.607056,556.140625 L990.607056,557.71875 L994.138306,557.71875 L994.138306,567.5 L995.958619,567.5 Z M1010.75537,567.5 L1010.75537,565.953125 L1005.01319,565.953125 L1005.01319,562.445312 L1008.48975,562.445312 L1008.48975,560.914062 L1005.01319,560.914062 L1005.01319,557.6875 L1010.55225,557.6875 L1010.55225,556.140625 L1003.2085,556.140625 L1003.2085,567.5 L1010.75537,567.5 Z M1015.6615,567.5 L1018.349,563.015625 L1018.59119,563.015625 L1021.52869,567.5 L1023.63807,567.5 L1019.73963,561.625 L1023.38807,556.140625 L1021.31775,556.140625 L1018.90369,560.289062 L1018.66932,560.289062 L1015.98182,556.140625 L1013.849,556.140625 L1017.49744,561.625 L1013.55213,567.5 L1015.6615,567.5 Z M1031.61451,567.5 L1031.61451,557.71875 L1035.12232,557.71875 L1035.12232,556.140625 L1026.26295,556.140625 L1026.26295,557.71875 L1029.7942,557.71875 L1029.7942,567.5 L1031.61451,567.5 Z M1049.64552,567.5 C1052.02052,567.5 1053.46583,566.367188 1053.46583,564.28125 C1053.46583,562.914062 1052.71583,561.984375 1051.22364,561.664062 L1051.22364,561.460938 C1052.37989,561.132812 1053.12989,560.359375 1053.12989,559.070312 C1053.12989,557.289062 1051.80958,556.140625 1049.27052,556.140625 L1045.17677,556.140625 L1045.17677,567.5 L1049.64552,567.5 Z M1049.25489,560.992188 L1046.98927,560.992188 L1046.98927,557.6875 L1049.24708,557.6875 C1050.69239,557.6875 1051.32521,558.28125 1051.32521,559.28125 C1051.32521,560.40625 1050.72364,560.992188 1049.25489,560.992188 Z M1049.52833,565.953125 L1046.98927,565.953125 L1046.98927,562.390625 L1049.52052,562.390625 C1051.00489,562.390625 1051.66114,562.9375 1051.66114,564.164062 C1051.66114,565.429688 1050.83302,565.953125 1049.52833,565.953125 Z M1062.19227,567.71875 C1065.50477,567.71875 1067.71571,565.40625 1067.71571,561.835938 C1067.71571,558.265625 1065.50477,555.921875 1062.19227,555.921875 C1058.87977,555.921875 1056.71571,558.265625 1056.71571,561.835938 C1056.71571,565.40625 1058.88759,567.71875 1062.19227,567.71875 Z M1062.19227,566.054688 C1059.87196,566.054688 1058.54384,564.4375 1058.54384,561.835938 C1058.54384,559.242188 1059.86415,557.585938 1062.19227,557.585938 C1064.5204,557.585938 1065.88759,559.242188 1065.88759,561.835938 C1065.88759,564.4375 1064.51259,566.054688 1062.19227,566.054688 Z M1078.5984,567.5 L1078.5984,565.882812 L1073.37184,565.882812 L1073.37184,556.140625 L1071.56715,556.140625 L1071.56715,567.5 L1078.5984,567.5 Z M1085.99672,567.5 C1089.48891,567.5 1091.66859,565.390625 1091.66859,561.835938 C1091.66859,558.28125 1089.48891,556.140625 1085.98109,556.140625 L1082.41859,556.140625 L1082.41859,567.5 L1085.99672,567.5 Z M1086.00453,565.820312 L1084.22328,565.820312 L1084.22328,557.820312 L1086.00453,557.820312 C1088.44984,557.820312 1089.84047,559.210938 1089.84047,561.828125 C1089.84047,564.445312 1088.44984,565.820312 1086.00453,565.820312 Z"/>
    <path fill="#D4D4D4" fill-rule="nonzero" d="M1447.89383,548.71875 C1451.20633,548.71875 1453.41727,546.40625 1453.41727,542.835938 C1453.41727,539.265625 1451.20633,536.921875 1447.89383,536.921875 C1444.58133,536.921875 1442.41727,539.265625 1442.41727,542.835938 C1442.41727,546.40625 1444.58914,548.71875 1447.89383,548.71875 Z M1447.89383,547.054688 C1445.57352,547.054688 1444.24539,545.4375 1444.24539,542.835938 C1444.24539,540.242188 1445.56571,538.585938 1447.89383,538.585938 C1450.22196,538.585938 1451.58914,540.242188 1451.58914,542.835938 C1451.58914,545.4375 1450.21414,547.054688 1447.89383,547.054688 Z M1461.42496,548.5 L1466.00309,537.140625 L1463.95621,537.140625 L1460.91715,545.601562 L1460.62809,545.601562 L1457.6359,537.140625 L1455.50309,537.140625 L1460.08902,548.5 L1461.42496,548.5 Z M1476.97953,548.5 L1476.97953,546.953125 L1471.23734,546.953125 L1471.23734,543.445312 L1474.7139,543.445312 L1474.7139,541.914062 L1471.23734,541.914062 L1471.23734,538.6875 L1476.7764,538.6875 L1476.7764,537.140625 L1469.43265,537.140625 L1469.43265,548.5 L1476.97953,548.5 Z M1482.69816,548.5 L1482.69816,544.3125 L1484.91691,544.3125 L1487.07316,548.5 L1489.10441,548.5 L1486.68253,544.0625 C1488.12003,543.570312 1488.92472,542.375 1488.92472,540.710938 C1488.92472,538.5625 1487.49503,537.140625 1485.02628,537.140625 L1480.89347,537.140625 L1480.89347,548.5 L1482.69816,548.5 Z M1484.94035,542.734375 L1482.69816,542.734375 L1482.69816,538.695312 L1484.94035,538.695312 C1486.37003,538.695312 1487.11222,539.5625 1487.11222,540.726562 C1487.11222,541.945312 1486.36222,542.734375 1484.94035,542.734375 Z M1499.96366,548.5 L1499.96366,546.882812 L1494.7371,546.882812 L1494.7371,537.140625 L1492.93241,537.140625 L1492.93241,548.5 L1499.96366,548.5 Z M1504.42448,548.5 L1505.26042,546.242188 L1510.15104,546.242188 L1510.98698,548.5 L1513.02604,548.5 L1508.42448,537.101562 L1507.07292,537.101562 L1502.47136,548.5 L1504.42448,548.5 Z M1509.59636,544.742188 L1505.81511,544.742188 L1507.58854,539.953125 L1507.83073,539.953125 L1509.59636,544.742188 Z M1518.22905,548.5 L1518.22905,537.140625 L1516.42436,537.140625 L1516.42436,548.5 L1518.22905,548.5 Z M1526.4633,548.5 C1529.95549,548.5 1532.13518,546.390625 1532.13518,542.835938 C1532.13518,539.28125 1529.95549,537.140625 1526.44768,537.140625 L1522.88518,537.140625 L1522.88518,548.5 L1526.4633,548.5 Z M1526.47112,546.820312 L1524.68987,546.820312 L1524.68987,538.820312 L1526.47112,538.820312 C1528.91643,538.820312 1530.30705,540.210938 1530.30705,542.828125 C1530.30705,545.445312 1528.91643,546.820312 1526.47112,546.820312 Z"/>
  </g>
</svg>
