<svg xmlns="http://www.w3.org/2000/svg" width="1307" height="950" viewBox="0 0 1307 950">
  <g fill="none" fill-rule="evenodd">
    <rect width="1307" height="950" fill="#222"/>
    <path fill="#FFA600" fill-rule="nonzero" d="M1.45996094 9.4453125L1.45996094 3.16113281 1.59960937 3.16113281 6.35400391 9.4453125 7.4140625 9.4453125 7.4140625.215820312 5.95410156.215820312 5.95410156 6.50634766 5.82714844 6.50634766 1.06640625.215820312-7.2475359e-13.215820312-7.2475359e-13 9.4453125 1.45996094 9.4453125zM11.6609375 9.4453125L12.3401367 7.61083984 16.3137695 7.61083984 16.9929687 9.4453125 18.649707 9.4453125 14.9109375.184082031 13.812793.184082031 10.0740234 9.4453125 11.6609375 9.4453125zM15.8630859 6.39208984L12.7908203 6.39208984 14.2317383 2.50097656 14.4285156 2.50097656 15.8630859 6.39208984zM22.7251953 9.4453125L22.7251953 3.69433594 22.8711914 3.69433594 25.4673828 9.4453125 26.387793 9.4453125 28.9839844 3.69433594 29.1299805 3.69433594 29.1299805 9.4453125 30.5391602 9.4453125 30.5391602.215820312 29.2125.215820312 26.0196289 7.24902344 25.8863281 7.24902344 22.6744141.215820312 21.309668.215820312 21.309668 9.4453125 22.7251953 9.4453125zM40.3592773 9.4453125L40.3592773 8.18847656 35.69375 8.18847656 35.69375 5.33837891 38.518457 5.33837891 38.518457 4.09423828 35.69375 4.09423828 35.69375 1.47265625 40.1942383 1.47265625 40.1942383.215820312 34.2274414.215820312 34.2274414 9.4453125 40.3592773 9.4453125zM51.0175781 9.62304687C53.1821289 9.62304687 54.3881836 8.43603516 54.3881836 6.85546875 54.3881836 5.55419922 53.7915039 4.75439453 52.109375 4.19580078L50.8144531 3.77050781C49.8305664 3.44677734 49.5258789 3.07861328 49.5258789 2.45654297 49.5258789 1.79003906 50.0527344 1.26318359 51.1889648 1.26318359 52.0458984 1.26318359 52.5791016 1.61865234 52.9916992 2.20898437L54.121582 1.51074219C53.512207.622070312 52.6489258.0380859374 51.2016602.0380859374 49.3100586.0380859374 48.1484375 1.08544922 48.1484375 2.50097656 48.1484375 3.78955078 48.8339844 4.58300781 50.1606445 5.01464844L51.4936523 5.45263672C52.6552734 5.83349609 52.9853516 6.29052734 52.9853516 6.96972656 52.9853516 7.78857422 52.3125 8.38525391 51.0175781 8.38525391 49.9130859 8.38525391 49.2783203 7.95996094 48.7705078 7.12207031L47.621582 7.80761719C48.2817383 8.97558594 49.265625 9.62304687 51.0175781 9.62304687zM57.8796875 9.4453125L58.5588867 7.61083984 62.5325195 7.61083984 63.2117187 9.4453125 64.868457 9.4453125 61.1296875.184082031 60.031543.184082031 56.2927734 9.4453125 57.8796875 9.4453125zM62.0818359 6.39208984L59.0095703 6.39208984 60.4504883 2.50097656 60.6472656 2.50097656 62.0818359 6.39208984zM68.9883789 9.4453125L68.9883789 3.16113281 69.1280273 3.16113281 73.8824219 9.4453125 74.9424805 9.4453125 74.9424805.215820312 73.4825195.215820312 73.4825195 6.50634766 73.3555664 6.50634766 68.5948242.215820312 67.528418.215820312 67.528418 9.4453125 68.9883789 9.4453125zM81.0301758 9.62304687C83.1947266 9.62304687 84.4007812 8.43603516 84.4007812 6.85546875 84.4007812 5.55419922 83.8041016 4.75439453 82.1219727 4.19580078L80.8270508 3.77050781C79.8431641 3.44677734 79.5384766 3.07861328 79.5384766 2.45654297 79.5384766 1.79003906 80.065332 1.26318359 81.2015625 1.26318359 82.0584961 1.26318359 82.5916992 1.61865234 83.0042969 2.20898437L84.1341797 1.51074219C83.5248047.622070312 82.6615234.0380859374 81.2142578.0380859374 79.3226562.0380859374 78.1610352 1.08544922 78.1610352 2.50097656 78.1610352 3.78955078 78.846582 4.58300781 80.1732422 5.01464844L81.50625 5.45263672C82.6678711 5.83349609 82.9979492 6.29052734 82.9979492 6.96972656 82.9979492 7.78857422 82.3250977 8.38525391 81.0301758 8.38525391 79.9256836 8.38525391 79.290918 7.95996094 78.7831055 7.12207031L77.6341797 7.80761719C78.2943359 8.97558594 79.2782227 9.62304687 81.0301758 9.62304687zM96.2270508 9.4453125L96.2270508 1.49804687 99.0771484 1.49804687 99.0771484.215820312 91.8789062.215820312 91.8789062 1.49804687 94.7480469 1.49804687 94.7480469 9.4453125 96.2270508 9.4453125zM108.224414 9.4453125L108.224414 8.18847656 103.558887 8.18847656 103.558887 5.33837891 106.383594 5.33837891 106.383594 4.09423828 103.558887 4.09423828 103.558887 1.47265625 108.059375 1.47265625 108.059375.215820312 102.092578.215820312 102.092578 9.4453125 108.224414 9.4453125zM112.185645 9.4453125L114.369238 5.80175781 114.566016 5.80175781 116.952734 9.4453125 118.666602 9.4453125 115.499121 4.671875 118.463477.215820312 116.781348.215820312 114.819922 3.58642578 114.629492 3.58642578 112.445898.215820312 110.712988.215820312 113.677344 4.671875 110.471777 9.4453125 112.185645 9.4453125zM125.122461 9.4453125L125.122461 1.49804687 127.972559 1.49804687 127.972559.215820312 120.774316.215820312 120.774316 1.49804687 123.643457 1.49804687 123.643457 9.4453125 125.122461 9.4453125zM139.722656 9.4453125C141.652344 9.4453125 142.82666 8.52490234 142.82666 6.83007812 142.82666 5.71923828 142.217285 4.96386719 141.004883 4.70361328L141.004883 4.53857422C141.944336 4.27197266 142.553711 3.64355469 142.553711 2.59619141 142.553711 1.14892578 141.480957.215820312 139.417969.215820312L136.091797.215820312 136.091797 9.4453125 139.722656 9.4453125zM139.405273 4.15771484L137.564453 4.15771484 137.564453 1.47265625 139.398926 1.47265625C140.573242 1.47265625 141.087402 1.95507812 141.087402 2.76757812 141.087402 3.68164062 140.598633 4.15771484 139.405273 4.15771484zM139.627441 8.18847656L137.564453 8.18847656 137.564453 5.29394531 139.621094 5.29394531C140.827148 5.29394531 141.360352 5.73828125 141.360352 6.73486328 141.360352 7.76318359 140.6875 8.18847656 139.627441 8.18847656zM149.891895 9.62304687C152.583301 9.62304687 154.379687 7.74414062 154.379687 4.84326172 154.379687 1.94238281 152.583301.0380859374 149.891895.0380859374 147.200488.0380859374 145.442187 1.94238281 145.442187 4.84326172 145.442187 7.74414062 147.206836 9.62304687 149.891895 9.62304687zM149.891895 8.27099609C148.006641 8.27099609 146.927539 6.95703125 146.927539 4.84326172 146.927539 2.73583984 148.000293 1.39013672 149.891895 1.39013672 151.783496 1.39013672 152.894336 2.73583984 152.894336 4.84326172 152.894336 6.95703125 151.777148 8.27099609 149.891895 8.27099609zM163.196875 9.4453125L163.196875 8.13134766 158.950293 8.13134766 158.950293.215820312 157.483984.215820312 157.483984 9.4453125 163.196875 9.4453125zM169.183008 9.4453125C172.02041 9.4453125 173.791406 7.73144531 173.791406 4.84326172 173.791406 1.95507812 172.02041.215820312 169.170312.215820312L166.275781.215820312 166.275781 9.4453125 169.183008 9.4453125zM169.189355 8.08056641L167.74209 8.08056641 167.74209 1.58056641 169.189355 1.58056641C171.176172 1.58056641 172.306055 2.71044922 172.306055 4.83691406 172.306055 6.96337891 171.176172 8.08056641 169.189355 8.08056641zM647.909961 9.43261719L647.909961 3.1484375 648.049609 3.1484375 652.804004 9.43261719 653.864062 9.43261719 653.864062.203125 652.404102.203125 652.404102 6.49365234 652.277148 6.49365234 647.516406.203125 646.45.203125 646.45 9.43261719 647.909961 9.43261719zM658.110937 9.43261719L658.790137 7.59814453 662.76377 7.59814453 663.442969 9.43261719 665.099707 9.43261719 661.360937.171386719 660.262793.171386719 656.524023 9.43261719 658.110937 9.43261719zM662.313086 6.37939453L659.24082 6.37939453 660.681738 2.48828125 660.878516 2.48828125 662.313086 6.37939453zM669.175195 9.43261719L669.175195 3.68164062 669.321191 3.68164062 671.917383 9.43261719 672.837793 9.43261719 675.433984 3.68164062 675.57998 3.68164062 675.57998 9.43261719 676.98916 9.43261719 676.98916.203125 675.6625.203125 672.469629 7.23632812 672.336328 7.23632812 669.124414.203125 667.759668.203125 667.759668 9.43261719 669.175195 9.43261719zM686.809277 9.43261719L686.809277 8.17578125 682.14375 8.17578125 682.14375 5.32568359 684.968457 5.32568359 684.968457 4.08154297 682.14375 4.08154297 682.14375 1.45996094 686.644238 1.45996094 686.644238.203125 680.677441.203125 680.677441 9.43261719 686.809277 9.43261719zM697.467578 9.61035156C699.632129 9.61035156 700.838184 8.42333984 700.838184 6.84277344 700.838184 5.54150391 700.241504 4.74169922 698.559375 4.18310547L697.264453 3.7578125C696.280566 3.43408203 695.975879 3.06591797 695.975879 2.44384766 695.975879 1.77734375 696.502734 1.25048828 697.638965 1.25048828 698.495898 1.25048828 699.029102 1.60595703 699.441699 2.19628906L700.571582 1.49804688C699.962207.609375 699.098926.025390625 697.65166.025390625 695.760059.025390625 694.598437 1.07275391 694.598437 2.48828125 694.598437 3.77685547 695.283984 4.5703125 696.610645 5.00195312L697.943652 5.43994141C699.105273 5.82080078 699.435352 6.27783203 699.435352 6.95703125 699.435352 7.77587891 698.7625 8.37255859 697.467578 8.37255859 696.363086 8.37255859 695.72832 7.94726562 695.220508 7.109375L694.071582 7.79492188C694.731738 8.96289062 695.715625 9.61035156 697.467578 9.61035156zM704.329687 9.43261719L705.008887 7.59814453 708.98252 7.59814453 709.661719 9.43261719 711.318457 9.43261719 707.579687.171386719 706.481543.171386719 702.742773 9.43261719 704.329687 9.43261719zM708.531836 6.37939453L705.45957 6.37939453 706.900488 2.48828125 707.097266 2.48828125 708.531836 6.37939453zM715.438379 9.43261719L715.438379 3.1484375 715.578027 3.1484375 720.332422 9.43261719 721.39248 9.43261719 721.39248.203125 719.93252.203125 719.93252 6.49365234 719.805566 6.49365234 715.044824.203125 713.978418.203125 713.978418 9.43261719 715.438379 9.43261719zM727.480176 9.61035156C729.644727 9.61035156 730.850781 8.42333984 730.850781 6.84277344 730.850781 5.54150391 730.254102 4.74169922 728.571973 4.18310547L727.277051 3.7578125C726.293164 3.43408203 725.988477 3.06591797 725.988477 2.44384766 725.988477 1.77734375 726.515332 1.25048828 727.651562 1.25048828 728.508496 1.25048828 729.041699 1.60595703 729.454297 2.19628906L730.58418 1.49804688C729.974805.609375 729.111523.025390625 727.664258.025390625 725.772656.025390625 724.611035 1.07275391 724.611035 2.48828125 724.611035 3.77685547 725.296582 4.5703125 726.623242 5.00195312L727.95625 5.43994141C729.117871 5.82080078 729.447949 6.27783203 729.447949 6.95703125 729.447949 7.77587891 728.775098 8.37255859 727.480176 8.37255859 726.375684 8.37255859 725.740918 7.94726562 725.233105 7.109375L724.08418 7.79492188C724.744336 8.96289062 725.728223 9.61035156 727.480176 9.61035156zM742.677051 9.43261719L742.677051 1.48535156 745.527148 1.48535156 745.527148.203125 738.328906.203125 738.328906 1.48535156 741.198047 1.48535156 741.198047 9.43261719 742.677051 9.43261719zM754.674414 9.43261719L754.674414 8.17578125 750.008887 8.17578125 750.008887 5.32568359 752.833594 5.32568359 752.833594 4.08154297 750.008887 4.08154297 750.008887 1.45996094 754.509375 1.45996094 754.509375.203125 748.542578.203125 748.542578 9.43261719 754.674414 9.43261719zM758.635645 9.43261719L760.819238 5.7890625 761.016016 5.7890625 763.402734 9.43261719 765.116602 9.43261719 761.949121 4.65917969 764.913477.203125 763.231348.203125 761.269922 3.57373047 761.079492 3.57373047 758.895898.203125 757.162988.203125 760.127344 4.65917969 756.921777 9.43261719 758.635645 9.43261719zM771.572461 9.43261719L771.572461 1.48535156 774.422559 1.48535156 774.422559.203125 767.224316.203125 767.224316 1.48535156 770.093457 1.48535156 770.093457 9.43261719 771.572461 9.43261719zM788.254687 9.43261719L788.254687 8.11865234 784.008105 8.11865234 784.008105.203125 782.541797.203125 782.541797 9.43261719 788.254687 9.43261719zM792.876074 9.43261719L792.876074.203125 791.409766.203125 791.409766 9.43261719 792.876074 9.43261719zM800.252344 9.62304688C801.667871 9.62304688 802.677148 9.03271484 803.146875 7.81396484L803.292871 7.81396484 803.394434 9.43261719 804.549707 9.43261719 804.549707 4.52587891 800.557031 4.52587891 800.557031 5.74462891 803.102441 5.74462891 803.102441 6.05566406C803.102441 7.45849609 802.194727 8.29003906 800.455469 8.29003906 798.633691 8.29003906 797.535547 6.92529297 797.535547 4.83691406 797.535547 2.75488281 798.735254 1.39648438 800.550684 1.39648438 801.636133 1.39648438 802.385156 1.83447266 802.969141 2.60888672L804.143457 1.70751953C803.337305.641113281 802.207422 0 800.544336 0 797.96084 0 796.050195 1.87255859 796.050195 4.81152344 796.050195 7.75048828 797.821191 9.62304688 800.252344 9.62304688zM809.590039 9.43261719L809.590039 5.42724609 813.950879 5.42724609 813.950879 9.43261719 815.417187 9.43261719 815.417187.203125 813.950879.203125 813.950879 4.13232422 809.590039 4.13232422 809.590039.203125 808.12373.203125 808.12373 9.43261719 809.590039 9.43261719zM822.780762 9.43261719L822.780762 1.48535156 825.630859 1.48535156 825.630859.203125 818.432617.203125 818.432617 1.48535156 821.301758 1.48535156 821.301758 9.43261719 822.780762 9.43261719z" transform="translate(55.744 888.422)"/>
    <g fill-rule="nonzero" transform="translate(55.744 56.777)">
      <path fill="#FFF" d="M156.244459,784.347184 L156.244459,443.734263 C156.244459,376.028331 188.53498,342.69618 251.032764,342.69618 C313.530548,342.69618 345.300254,376.028331 345.300254,443.734263 L345.300254,784.347184 L501.544713,784.347184 L501.544713,434.880411 C501.544713,292.177138 431.234707,215.096538 311.968103,215.096538 C232.283429,215.096538 183.326832,253.116023 153.640385,316.655437 L136.974309,316.655437 L130.203716,226.033651 L0,226.033651 L0,784.347184 L156.244459,784.347184 Z" opacity=".3"/>
      <path fill="#FFF" d="M297.014173,798.93 C468.883078,798.93 583.983162,682.267471 583.983162,505.190417 C583.983162,327.592549 468.883078,210.409205 297.014173,210.409205 C125.145268,210.409205 10.0451832,327.592549 10.0451832,505.190417 C10.0451832,682.267471 125.145268,798.93 297.014173,798.93 Z M297.014173,662.997321 C214.725424,662.997321 167.331272,606.749316 167.331272,505.190417 C167.331272,403.631519 213.16298,346.341884 297.014173,346.341884 C380.865366,346.341884 427.217889,403.631519 427.217889,505.190417 C427.217889,606.749316 379.302921,662.997321 297.014173,662.997321 Z" opacity=".3"/>
      <path fill="#FBBC00" fill-opacity=".118" stroke="#FBBC00" stroke-width=".99" d="M333.705061,795.805111 C473.80426,795.805111 569.11338,686.43399 569.11338,505.190417 C569.11338,323.946845 473.283445,214.575724 333.705061,214.575724 C255.582832,214.575724 204.022161,255.199283 173.814898,314.572177 L157.148823,314.572177 L157.148823,0 L0.383549064,0 L0.383549064,784.347184 L127.983191,784.347184 L144.649266,681.746656 L161.315342,681.746656 C190.480974,759.868885 249.333054,795.805111 333.705061,795.805111 Z M284.748464,661.955691 C203.501346,661.955691 157.669638,605.707686 157.669638,505.711232 C157.669638,405.714778 203.501346,348.945958 284.748464,348.945958 C365.474768,348.945958 410.264846,404.152334 410.264846,505.190417 C410.264846,606.749316 365.474768,661.955691 284.748464,661.955691 Z"/>
    </g>
    <g fill-rule="nonzero" transform="translate(699.482 56.632)">
      <path fill="#FFF" d="M75.9387729,784.858826 L75.9387729,448.71411 C75.9387729,347.610117 133.265779,288.198493 229.67938,288.198493 C326.614135,288.198493 383.419986,340.835108 383.419986,448.192955 L383.419986,784.858826 L456.902785,784.858826 L456.902785,445.066027 C456.902785,301.748513 381.335368,227.223405 252.089027,227.223405 C163.492746,227.223405 104.602276,268.915773 76.4599275,331.975479 L68.121454,331.975479 L64.9945264,241.294579 L2.45597451,241.294579 L2.45597451,784.858826 L75.9387729,784.858826 Z" opacity=".3"/>
      <path fill="#FFF" d="M265.788845,798.93 C425.783307,798.93 531.056536,681.149061 531.056536,512.816125 C531.056536,344.48319 425.783307,226.181096 265.788845,226.181096 C105.273229,226.181096 0,343.962035 0,512.816125 C0,681.149061 105.273229,798.93 265.788845,798.93 Z M265.788845,734.30683 C148.007906,734.30683 74.5251076,644.147084 74.5251076,512.816125 C74.5251076,380.964012 146.965597,291.325421 265.788845,291.325421 C384.090939,291.325421 457.052583,381.485166 457.052583,512.816125 C457.052583,644.668239 383.569785,734.30683 265.788845,734.30683 Z" opacity=".3"/>
      <path fill="#FBBC00" fill-opacity=".118" stroke="#FBBC00" stroke-width=".99" d="M276.015117,796.324227 C412.557622,796.324227 507.928913,698.347162 507.928913,512.816125 C507.928913,327.285088 414.121086,228.786869 278.099735,228.786869 C192.109227,228.786869 122.27451,266.831155 84.7513793,354.906282 L76.4129057,354.906282 L76.4129057,0 L1.88779804,0 L1.88779804,784.858826 L63.9051953,784.858826 L70.6802051,662.387495 L79.0186787,662.387495 C116.020655,759.32225 194.193845,796.324227 276.015117,796.324227 Z M254.647778,732.222211 C146.247622,732.222211 76.4129057,650.922094 76.4129057,513.33728 C76.4129057,373.667847 146.247622,293.931194 256.732397,293.931194 C362.52678,293.931194 432.882651,365.850528 432.882651,512.816125 C432.882651,659.781722 360.963317,732.222211 254.647778,732.222211 Z"/>
    </g>
  </g>
</svg>
