<svg xmlns="http://www.w3.org/2000/svg" xmlns:xlink="http://www.w3.org/1999/xlink" width="1891" height="1167" viewBox="0 0 1891 1167">
  <defs>
    <rect id="name_sans-optical_sizing-a" width="276" height="1051"/>
  </defs>
  <g fill="none" fill-rule="evenodd">
    <rect width="1891" height="1167" fill="#222"/>
    <path fill="#FFF" fill-rule="nonzero" d="M374.800717,338.531035 C452.48349,338.531035 509.68626,285.388956 509.68626,206.999976 C509.68626,128.610995 452.306938,74.762709 374.800717,74.762709 C297.294495,74.762709 240.974484,128.434443 240.974484,206.999976 C240.974484,285.565508 297.117943,338.531035 374.800717,338.531035 Z M374.800717,287.331025 C329.95657,287.331025 298.706909,254.845502 298.706909,206.999976 C298.706909,159.154449 330.133122,125.962719 374.800717,125.962719 C419.644863,125.962719 451.953835,159.507553 451.953835,206.999976 C451.953835,254.492398 419.821415,287.331025 374.800717,287.331025 Z M584.01455,397.852426 L584.01455,317.168272 L585.250412,317.168272 C598.13869,331.292413 612.969038,338.177932 636.980077,338.177932 C683.236638,338.177932 720.135955,305.162753 720.135955,244.6055 C720.135955,184.048247 682.883534,150.326861 637.333181,150.326861 C610.673865,150.326861 591.959379,161.449622 581.189722,178.928246 L580.130411,178.928246 L576.599376,154.211 L531.578678,154.211 L531.578678,397.852426 L584.01455,397.852426 Z M624.974558,292.80413 C600.786967,292.80413 583.484895,275.855161 583.484895,244.6055 C583.484895,213.708942 601.669726,195.877215 625.151109,195.877215 C648.809045,195.877215 665.934565,214.238598 665.934565,244.428948 C665.934565,274.442747 649.162148,292.80413 624.974558,292.80413 Z M842.839427,335 L842.839427,286.448267 L821.300112,286.448267 C810.530455,286.448267 806.293213,281.328266 806.293213,270.382057 L806.293213,203.645492 L842.839427,203.645492 L842.839427,154.211 L806.293213,154.211 L806.293213,104.95306 L753.857341,114.663406 L753.857341,154.211 L728.786991,154.211 L728.786991,203.645492 L753.857341,203.645492 L753.857341,274.442747 C753.857341,316.462065 774.160793,335 812.825628,335 L842.839427,335 Z M921.404959,127.728236 L921.404959,78.2937441 L865.614604,78.2937441 L865.614604,127.728236 L921.404959,127.728236 Z M919.815993,335 L919.815993,154.211 L867.203569,154.211 L867.203569,335 L919.815993,335 Z M1038.10567,340.649656 C1070.76775,340.649656 1097.42706,327.584826 1114.90569,301.80827 L1076.59395,272.677229 C1066.88361,286.624818 1055.58429,293.157233 1038.10567,293.157233 C1012.15256,293.157233 994.497387,274.442747 994.497387,244.958604 C994.497387,215.297908 1012.32911,196.230318 1038.10567,196.230318 C1055.40774,196.230318 1066.70706,203.115837 1076.4174,216.886874 L1114.90569,187.579282 C1097.42706,161.979277 1070.76775,148.737896 1039.16498,148.737896 C981.432557,148.737896 941.708411,188.991696 941.708411,245.135155 C941.708411,300.572407 981.256005,340.649656 1038.10567,340.649656 Z M1187.29191,338.00138 C1212.53881,338.00138 1231.07674,329.879999 1242.37605,311.518616 L1243.78847,311.518616 L1247.14295,335 L1289.33882,335 L1289.33882,229.951704 C1289.33882,178.928246 1263.03261,149.797206 1210.24363,149.797206 C1178.46432,149.797206 1152.86431,164.27445 1136.0919,186.696523 L1172.46156,213.708942 C1181.11259,201.526871 1192.58846,194.111697 1208.83122,194.111697 C1228.07536,194.111697 1238.13881,204.351699 1238.13881,220.771013 L1238.13881,225.714462 L1190.82294,225.714462 C1149.86293,225.714462 1125.32224,247.60688 1125.32224,281.857921 C1125.32224,315.755858 1149.15673,338.00138 1187.29191,338.00138 Z M1197.53191,297.394476 C1183.40777,297.394476 1175.63949,290.862061 1175.63949,279.386196 C1175.63949,268.263436 1183.40777,261.731021 1197.70846,261.731021 L1238.13881,261.731021 L1238.13881,262.437228 C1238.13881,283.446887 1221.89605,297.394476 1197.53191,297.394476 Z M1381.85194,335 L1381.85194,288.213784 L1373.73056,288.213784 C1368.43401,288.213784 1366.31539,286.095163 1366.31539,280.975162 L1366.31539,78.2937441 L1313.70296,78.2937441 L1313.70296,285.74206 C1313.70296,320.169652 1330.12228,335 1360.84228,335 L1381.85194,335 Z M1570.40922,338.531035 C1630.43682,338.531035 1669.45476,307.104822 1669.45476,258.376537 C1669.45476,223.772393 1650.38717,199.937905 1607.66164,185.460661 L1567.58439,171.866176 C1548.34025,165.333761 1542.16094,157.918587 1542.16094,145.736516 C1542.16094,130.906168 1553.2837,122.431684 1572.52784,122.431684 C1591.24233,122.431684 1605.18992,130.553064 1617.01888,146.972378 L1656.03682,115.722717 C1636.08647,88.3571943 1609.42716,74.762709 1572.52784,74.762709 C1522.03404,74.762709 1488.31265,104.776508 1488.31265,148.384792 C1488.31265,183.518592 1510.02852,208.059286 1548.69335,220.771013 L1588.24095,233.835843 C1606.95543,240.015154 1614.0175,247.959983 1614.0175,261.554469 C1614.0175,280.79861 1597.95129,290.862061 1573.23405,290.862061 C1545.33887,290.862061 1527.6837,278.503438 1511.61749,255.022054 L1470.48093,287.507577 C1494.31541,323.171032 1523.97611,338.531035 1570.40922,338.531035 Z M1743.25339,127.728236 L1743.25339,78.2937441 L1687.46304,78.2937441 L1687.46304,127.728236 L1743.25339,127.728236 Z M1741.66443,335 L1741.66443,154.211 L1689.052,154.211 L1689.052,335 L1741.66443,335 Z M1913.62584,335 L1921.21756,288.213784 L1836.47272,288.213784 L1836.47272,287.154474 L1914.8617,184.931006 L1914.8617,154.211 L1764.61615,154.211 L1764.61615,200.997216 L1842.82858,200.997216 L1842.82858,202.40963 L1764.61615,304.279994 L1764.61615,335 L1913.62584,335 Z M2019.20379,341.00276 C2052.57207,341.00276 2079.23139,328.114481 2095.6507,304.986201 L2058.04518,277.091023 C2049.92379,289.449646 2037.21207,296.511717 2019.20379,296.511717 C1997.13482,296.511717 1982.30447,283.79999 1978.59688,262.084124 L2108.00932,262.084124 C2114.71829,193.935146 2079.05483,148.031688 2017.96793,148.031688 C1962.00102,148.031688 1924.57205,188.285489 1924.57205,244.958604 C1924.57205,301.631718 1962.00102,341.00276 2019.20379,341.00276 Z M2056.27966,225.184807 L1979.12654,225.184807 C1983.18723,204.351699 1996.60516,192.699283 2017.96793,192.699283 C2040.0369,192.699283 2053.45483,204.704803 2056.27966,225.184807 Z"/>
    <text fill="#FFA600" font-size="16" font-weight="400" letter-spacing="1.508">
      <tspan x="101.587" y="89">NAME SANS </tspan> <tspan x="76.314" y="108">DISPLAY BOLD</tspan>
    </text>
    <text fill="#FFA600" font-size="16" font-weight="400" letter-spacing="1.508">
      <tspan x="101.587" y="428">NAME SANS </tspan> <tspan x="54.861" y="447">STANDARD BOLD</tspan>
    </text>
    <text fill="#FFA600" font-size="16" font-weight="400" letter-spacing="1.508">
      <tspan x="101.587" y="777">NAME SANS </tspan> <tspan x="105.423" y="796">TEXT BOLD</tspan>
    </text>
    <path fill="#FFF" fill-rule="nonzero" d="M371.15382 683.237242C448.306938 683.237242 502.508328 630.448267 502.508328 550.999976 502.508328 471.375133 448.306938 417.87995 371.15382 417.87995 294.000702 417.87995 240.858623 471.375133 240.858623 550.999976 240.858623 630.448267 293.82415 683.237242 371.15382 683.237242zM371.15382 632.037232C325.426915 632.037232 297.884841 600.257916 297.884841 550.999976 297.884841 501.742035 325.603467 469.07996 371.15382 469.07996 416.704174 469.07996 445.48211 501.918587 445.48211 550.999976 445.48211 600.081364 416.880726 632.037232 371.15382 632.037232zM587.07662 749.2676L587.07662 654.988961 590.607655 654.988961C601.906968 672.467585 618.149729 682.531035 644.102838 682.531035 690.359398 682.531035 724.963543 648.103442 724.963543 586.486879 724.963543 524.693764 690.182847 490.089619 643.749734 490.089619 616.031108 490.089619 596.786967 501.742035 586.370413 523.811005L583.01593 523.811005 578.425584 493.973758 534.287645 493.973758 534.287645 749.2676 587.07662 749.2676zM629.27249 636.980682C603.319382 636.980682 586.900068 618.972402 586.900068 586.486879 586.900068 554.001355 603.849037 535.639973 629.27249 535.639973 654.872495 535.639973 670.938705 554.001355 670.938705 586.310327 670.938705 618.619299 655.049047 636.980682 629.27249 636.980682zM860.731845 679L860.731845 631.331025 828.06977 631.331025C822.06701 631.331025 819.595285 628.506197 819.595285 622.326886L819.595285 541.466181 860.731845 541.466181 860.731845 493.973758 819.595285 493.973758 819.595285 443.656507 766.982861 452.484095 766.982861 493.973758 739.617339 493.973758 739.617339 541.466181 766.982861 541.466181 766.982861 624.622059C766.982861 662.227583 786.050451 679 821.713906 679L860.731845 679zM950.596689 468.726856L950.596689 417.703398 892.687713 417.703398 892.687713 468.726856 950.596689 468.726856zM948.124965 679L948.124965 493.973758 895.335989 493.973758 895.335989 679 948.124965 679zM1074.00637 684.296553C1107.37465 684.296553 1132.7981 672.291033 1151.15949 644.219304L1111.965 616.324126C1103.13741 630.977922 1091.13189 637.157233 1074.18292 637.157233 1046.99395 637.157233 1031.98705 617.030333 1031.98705 586.663431 1031.98705 556.119977 1047.1705 535.639973 1074.18292 535.639973 1090.60223 535.639973 1102.7843 542.348939 1111.78844 556.47308L1151.15949 529.107558C1132.62155 500.682725 1107.1981 488.500653 1074.53602 488.500653 1016.62705 488.500653 979.021522 529.284109 979.021522 586.663431 979.021522 643.8662 1016.62705 684.296553 1074.00637 684.296553zM1229.37192 682.177932C1254.79537 682.177932 1274.03951 672.820688 1283.74986 651.634478L1287.634 651.634478 1291.34158 679 1333.714 679 1333.714 569.008255C1333.714 517.455142 1307.23124 489.383412 1254.79537 489.383412 1221.95674 489.383412 1195.47398 502.27169 1176.75949 524.517212L1212.06984 553.295148C1222.4864 539.877215 1234.84502 532.285489 1253.2064 532.285489 1272.9802 532.285489 1282.33744 542.525491 1282.33744 561.946185L1282.33744 569.184807 1236.25743 569.184807C1193.35536 569.184807 1168.28501 591.60688 1168.28501 625.151714 1168.28501 659.93241 1191.94294 682.177932 1229.37192 682.177932zM1242.6133 642.80689C1227.07674 642.80689 1218.95536 634.862061 1218.95536 622.326886 1218.95536 610.144814 1226.72364 602.376537 1242.08364 602.376537L1282.33744 602.376537 1282.33744 605.377917C1282.33744 628.329646 1266.80089 642.80689 1242.6133 642.80689zM1443.5292 679L1443.5292 631.331025 1428.69885 631.331025C1424.63816 631.331025 1423.04919 629.74206 1423.04919 625.857921L1423.04919 417.703398 1370.61332 417.703398 1370.61332 630.448267C1370.61332 664.169652 1387.38574 679 1418.2823 679L1443.5292 679zM1646.38717 683.06069C1707.29752 683.06069 1743.84374 649.86896 1743.84374 602.906192 1743.84374 567.066186 1726.01201 543.40825 1681.87407 528.577902L1643.73889 515.866176C1623.25889 508.980657 1617.25613 501.21238 1617.25613 488.677205 1617.25613 474.376513 1628.37889 465.01927 1650.27131 465.01927 1669.51545 465.01927 1682.40373 473.14065 1693.52649 489.030309L1734.30994 460.428924C1715.94856 433.593057 1690.172 418.056502 1650.44786 418.056502 1598.71819 418.056502 1564.2906 448.070301 1564.2906 490.972378 1564.2906 527.518592 1585.30026 551.706183 1622.02302 563.711702L1660.51131 576.423429C1682.75683 583.838603 1689.64235 593.019294 1689.64235 606.613779 1689.64235 624.445507 1674.63545 635.921371 1647.79958 635.921371 1621.31682 635.921371 1605.25061 624.975162 1590.77336 602.553089L1548.40094 631.684129C1569.58715 666.111722 1598.18854 683.06069 1646.38717 683.06069zM1829.47134 468.726856L1829.47134 417.703398 1771.56236 417.703398 1771.56236 468.726856 1829.47134 468.726856zM1826.99962 679L1826.99962 493.973758 1774.21064 493.973758 1774.21064 679 1826.99962 679zM2011.31965 679L2019.26448 632.037232 1933.28377 632.037232 1933.28377 628.506197 2012.20241 525.046867 2012.20241 493.973758 1860.54445 493.973758 1860.54445 540.936525 1939.10998 540.936525 1939.10998 544.997216 1860.54445 647.926891 1860.54445 679 2011.31965 679zM2127.49071 685.179312C2160.85899 685.179312 2186.28244 673.879999 2204.46727 652.693788L2170.92244 622.150334C2160.50589 634.508957 2146.9114 641.394476 2127.66726 641.394476 2102.24381 641.394476 2087.76656 627.623438 2084.58863 603.435848L2215.41348 603.435848C2222.82866 533.697903 2187.87141 487.617895 2125.01898 487.617895 2066.93345 487.617895 2030.9169 528.577902 2030.9169 586.839982 2030.9169 645.102062 2066.22725 685.179312 2127.49071 685.179312zM2164.03692 568.302048L2084.94173 568.302048C2088.64932 544.467561 2103.12656 531.226179 2125.01898 531.226179 2147.79416 531.226179 2161.74175 544.467561 2164.03692 568.302048zM367.330372 1030.12C444.130387 1030.12 495.153845 977.507577 495.153845 896.999976 495.153845 816.315822 444.130387 763.173743 367.330372 763.173743 290.530357 763.173743 240.742762 816.315822 240.742762 896.999976 240.742762 977.507577 290.530357 1030.12 367.330372 1030.12zM367.330372 978.919991C320.89726 978.919991 296.886221 947.67033 296.886221 896.999976 296.886221 846.329621 320.89726 814.373753 367.330372 814.373753 413.763484 814.373753 439.010386 846.329621 439.010386 896.999976 439.010386 947.67033 413.763484 978.919991 367.330372 978.919991zM589.962139 1102.68277L589.962139 994.986201 595.611795 994.986201C605.498693 1015.81931 623.153869 1028.88414 650.872495 1028.88414 697.129056 1028.88414 729.614579 993.044132 729.614579 930.368258 729.614579 867.515832 697.305607 831.852377 649.813185 831.852377 621.2118 831.852377 601.261451 844.034448 591.374553 870.693764L585.724896 870.693764 580.07524 835.736516 536.82006 835.736516 536.82006 1102.68277 589.962139 1102.68277zM633.217319 983.333785C605.675245 983.333785 590.13869 964.266195 590.13869 930.368258 590.13869 896.293769 605.675245 877.40273 633.217319 877.40273 660.582842 877.40273 675.766293 895.940665 675.766293 930.368258 675.766293 964.795851 660.582842 983.333785 633.217319 983.333785zM878.271159 1025L878.271159 978.390336 834.486323 978.390336C833.073909 978.390336 832.544254 977.860681 832.544254 976.448267L832.544254 881.463421 878.271159 881.463421 878.271159 835.736516 832.544254 835.736516 832.544254 784.536506 779.578727 792.481335 779.578727 835.736516 750.094583 835.736516 750.094583 881.463421 779.578727 881.463421 779.578727 976.977922C779.578727 1010.16965 797.587006 1025 830.072529 1025L878.271159 1025zM979.258765 811.725477L979.258765 759.113053 919.231167 759.113053 919.231167 811.725477 979.258765 811.725477zM975.727729 1025L975.727729 835.736516 922.762202 835.736516 922.762202 1025 975.727729 1025zM1109.20086 1029.94345C1143.4519 1029.94345 1167.81604 1018.82069 1186.70708 988.80689L1146.62983 962.147574C1138.86155 977.507577 1126.14983 983.333785 1109.73051 983.333785 1081.48223 983.333785 1068.77051 961.617919 1068.77051 930.368258 1068.77051 899.118597 1081.48223 877.226179 1109.73051 877.226179 1125.44362 877.226179 1138.50845 883.582042 1146.62983 898.235838L1186.88363 872.812385C1167.28639 841.386172 1143.0988 830.439963 1109.20086 830.439963 1051.11533 830.439963 1015.62843 871.576522 1015.62843 930.368258 1015.62843 989.159993 1051.29188 1029.94345 1109.20086 1029.94345zM1270.39261 1028.35448C1295.99262 1028.35448 1315.94297 1017.76138 1324.06435 993.750339L1330.42021 993.750339 1334.65745 1025 1377.20643 1025 1377.20643 910.064806C1377.20643 857.982037 1350.54711 831.14617 1298.46434 831.14617 1264.56641 831.14617 1237.02433 842.268931 1216.36778 864.3379L1250.61882 895.057906C1262.80089 880.40411 1276.39537 872.635833 1296.69883 872.635833 1316.82573 872.635833 1325.47676 882.875835 1325.47676 905.121356L1325.47676 914.655151 1280.63262 914.655151C1235.96502 914.655151 1210.36502 937.783432 1210.36502 970.622059 1210.36502 1006.10896 1233.8464 1028.35448 1270.39261 1028.35448zM1286.63537 990.395855C1269.86296 990.395855 1261.21192 980.862061 1261.21192 967.444127 1261.21192 954.026193 1269.15675 945.198605 1285.57606 945.198605L1325.47676 945.198605 1325.47676 950.318606C1325.47676 975.212404 1310.82297 990.395855 1286.63537 990.395855zM1504.14714 1025L1504.14714 976.624818 1482.43127 976.624818C1479.783 976.624818 1478.72369 975.565508 1478.72369 972.917231L1478.72369 759.113053 1426.28782 759.113053 1426.28782 977.154474C1426.28782 1010.16965 1443.41334 1025 1474.663 1025L1504.14714 1025zM1721.12925 1029.7669C1783.09892 1029.7669 1817.17341 994.633098 1817.17341 949.612399 1817.17341 912.359979 1800.40099 888.878595 1754.85064 873.695144L1718.83408 861.866176C1696.94166 854.627554 1691.11545 846.506173 1691.11545 833.794446 1691.11545 819.846857 1702.23821 809.783407 1726.95546 809.783407 1746.5527 809.783407 1758.55822 817.904788 1768.79823 833.264791L1811.52375 807.135131C1794.57478 780.828919 1769.68098 763.526847 1727.30856 763.526847 1674.34304 763.526847 1639.20924 793.364094 1639.20924 835.559964 1639.20924 873.518592 1659.51269 897.529631 1694.11683 908.828943L1731.72236 921.187566C1757.49891 929.662051 1764.20788 940.255156 1764.20788 953.849642 1764.20788 970.268955 1750.26029 983.157233 1721.3058 983.157233 1696.23545 983.157233 1681.75821 973.446887 1668.69338 952.084124L1625.08509 978.037232C1643.79958 1011.22896 1671.1651 1029.7669 1721.12925 1029.7669zM1914.62998 811.725477L1914.62998 759.113053 1854.60238 759.113053 1854.60238 811.725477 1914.62998 811.725477zM1911.09894 1025L1911.09894 835.736516 1858.13342 835.736516 1858.13342 1025 1911.09894 1025zM2107.95415 1025L2116.07553 977.860681 2028.85896 977.860681 2028.85896 971.681369 2108.30726 867.162729 2108.30726 835.736516 1955.23688 835.736516 1955.23688 882.875835 2034.33207 882.875835 2034.33207 889.40825 1955.23688 993.573787 1955.23688 1025 2107.95415 1025zM2234.36521 1031.35586C2267.91004 1031.35586 2292.09764 1021.64552 2311.87143 1002.40138L2282.38729 969.386196C2269.67556 981.568268 2255.37487 988.453786 2234.89487 988.453786 2206.11693 988.453786 2191.99279 973.446887 2189.34451 946.964123L2321.40523 946.964123C2329.52661 875.460661 2295.45212 829.380652 2230.65762 829.380652 2170.45347 829.380652 2136.02588 871.046867 2136.02588 930.721361 2136.02588 990.748959 2169.04106 1031.35586 2234.36521 1031.35586zM2270.38177 913.595841L2189.52106 913.595841C2193.0521 886.583422 2208.76521 871.753074 2230.65762 871.753074 2254.31556 871.753074 2268.7928 886.230318 2270.38177 913.595841z"/>
    <g transform="translate(237.25 54)">
      <mask id="name_sans-optical_sizing-b" fill="#fff">
        <use xlink:href="#name_sans-optical_sizing-a"/>
      </mask>
      <rect width="274.454" height="1127.433" x=".773" y="-49.981" fill="#FFA600" fill-opacity=".075" stroke="#FFA600" stroke-width="2" mask="url(#name_sans-optical_sizing-b)"/>
    </g>
  </g>
</svg>
