<svg xmlns="http://www.w3.org/2000/svg" width="1891" height="1167" viewBox="0 0 1891 1167">
  <g fill="none" fill-rule="evenodd">
    <rect width="1891" height="1167" fill="#222"/>
    <path fill="#FFF" fill-rule="nonzero" d="M371.497283,338.648223 C406.520221,338.648223 432.605013,328.798021 449.386837,307.091097 L450.846126,307.091097 L453.399882,335 L498.273021,335 L498.273021,193.26655 L397.582075,193.26655 L397.582075,244.341667 L443.002447,244.341667 C438.62458,268.602348 414.363899,287.025872 377.699262,287.025872 C327.718611,287.025872 300.904175,253.462224 300.904175,202.93434 C300.904175,153.136101 332.27889,120.119686 377.699262,120.119686 C406.885043,120.119686 424.761334,130.881942 441.360747,156.784323 L487.693175,125.774431 C461.608383,84.9143369 427.31509,66.1259902 377.152028,66.1259902 C298.53283,66.1259902 241.255734,119.025219 241.255734,202.387106 C241.255734,284.107294 293.425318,338.648223 371.497283,338.648223 Z M581.817319,338.100989 C607.902111,338.100989 627.05528,329.710077 638.729593,310.739319 L640.188882,310.739319 L643.654693,335 L687.250954,335 L687.250954,226.465376 C687.250954,173.748559 660.071695,143.650722 605.530767,143.650722 C572.696763,143.650722 546.247148,158.608435 528.918091,181.774648 L566.494784,209.683552 C575.43293,197.097184 587.289653,189.435916 604.071478,189.435916 C623.954291,189.435916 634.351726,200.015762 634.351726,216.979997 L634.351726,222.087509 L585.465542,222.087509 C543.146159,222.087509 517.791012,244.706489 517.791012,280.094249 C517.791012,315.117187 542.416515,338.100989 581.817319,338.100989 Z M592.397165,296.146429 C577.804274,296.146429 569.778185,289.397217 569.778185,277.540493 C569.778185,266.048592 577.804274,259.29938 592.579576,259.29938 L634.351726,259.29938 L634.351726,260.029024 C634.351726,281.735949 617.569901,296.146429 592.397165,296.146429 Z M823.51207,339.013045 C870.574143,339.013045 909.062892,303.990107 909.062892,241.6055 C909.062892,179.220893 870.938965,145.110011 823.694481,145.110011 C799.616212,145.110011 782.469565,153.318512 769.883197,166.634524 L768.423908,166.634524 L768.423908,69.7742129 L714.247802,69.7742129 L714.247802,335 L760.762641,335 L764.410863,309.462441 L765.50533,309.462441 C776.997231,327.885966 795.785578,339.013045 823.51207,339.013045 Z M810.925702,292.133384 C786.665021,292.133384 767.876675,273.709859 767.876675,241.970322 C767.876675,209.683552 785.752966,191.989672 810.743291,191.989672 C835.733616,191.989672 853.062674,210.96043 853.062674,242.152733 C853.062674,273.345037 835.368794,292.133384 810.925702,292.133384 Z M1048.60741,399.938363 C1096.94636,399.938363 1121.38945,372.576693 1121.38945,327.885966 L1121.38945,148.211 L1077.24596,148.211 L1073.59773,171.377214 L1071.95603,171.377214 C1059.9169,153.683334 1040.2165,143.650722 1012.67242,143.650722 C965.792754,143.650722 928.033649,177.944015 928.033649,233.944232 C928.033649,289.94445 965.975165,323.872921 1012.12518,323.872921 C1036.9331,323.872921 1054.07974,315.846831 1065.38923,300.341885 L1067.21334,300.341885 L1067.21334,328.068377 C1067.21334,345.397435 1058.64002,355.97728 1042.95266,356.159691 L1007.74731,356.159691 C991.330312,356.159691 984.033867,352.146646 976.737422,337.918578 L932.95875,362.36167 C947.916463,392.824329 965.427932,399.938363 1003.73427,399.938363 L1048.60741,399.938363 Z M1025.62361,278.817371 C1001.36292,278.817371 982.574578,259.664202 982.574578,234.673877 C982.574578,209.683552 998.079524,190.530383 1023.61708,190.530383 C1049.15464,190.530383 1067.03093,205.852918 1067.03093,232.849766 C1067.03093,259.846613 1049.88429,278.817371 1025.62361,278.817371 Z M1203.47446,335 L1203.47446,226.465376 C1203.47446,200.745406 1216.06083,189.435916 1236.12605,189.435916 C1256.37369,189.435916 1268.96006,200.745406 1268.96006,226.465376 L1268.96006,335 L1323.31857,335 L1323.31857,224.276442 C1323.31857,172.654092 1297.05137,143.103488 1251.99582,143.103488 C1225.72862,143.103488 1207.4875,154.048156 1197.27248,170.647569 L1195.9956,170.647569 L1192.89461,148.211 L1149.11594,148.211 L1149.11594,335 L1203.47446,335 Z M1404.49153,399.938363 L1404.49153,316.576476 L1405.76841,316.576476 C1419.08442,331.169366 1434.40695,338.2834 1459.21487,338.2834 C1507.00658,338.2834 1545.13051,304.172519 1545.13051,241.6055 C1545.13051,179.038481 1506.64176,144.197955 1459.57969,144.197955 C1432.03561,144.197955 1412.70003,155.689856 1401.57295,173.748559 L1400.47848,173.748559 L1396.83026,148.211 L1350.31542,148.211 L1350.31542,399.938363 L1404.49153,399.938363 Z M1446.81091,291.403739 C1421.82059,291.403739 1403.94429,273.892271 1403.94429,241.6055 C1403.94429,209.683552 1422.73264,191.260027 1446.99332,191.260027 C1471.43641,191.260027 1489.13029,210.230785 1489.13029,241.423089 C1489.13029,272.432981 1471.80124,291.403739 1446.81091,291.403739 Z M1622.10801,335 L1622.10801,235.950755 C1622.10801,209.865963 1634.51197,199.286117 1657.13095,199.286117 L1673.36554,199.286117 L1673.36554,148.211 L1658.043,148.211 C1638.70742,148.211 1624.11453,156.966734 1616.08844,179.403304 L1615.17639,179.403304 L1610.98093,148.211 L1567.74949,148.211 L1567.74949,335 L1622.10801,335 Z"/>
    <path fill="#FFA600" fill-rule="nonzero" d="M104.915144 84L104.915144 76.265625 105.087019 76.265625 110.938582 84 112.243269 84 112.243269 72.640625 110.446394 72.640625 110.446394 80.3828125 110.290144 80.3828125 104.430769 72.640625 103.118269 72.640625 103.118269 84 104.915144 84zM117.500962 84L118.336899 81.7421875 123.227524 81.7421875 124.063462 84 126.102524 84 121.500962 72.6015625 120.149399 72.6015625 115.547837 84 117.500962 84zM122.672837 80.2421875L118.891587 80.2421875 120.665024 75.453125 120.907212 75.453125 122.672837 80.2421875zM131.149279 84L131.149279 76.921875 131.328966 76.921875 134.524279 84 135.657091 84 138.852404 76.921875 139.032091 76.921875 139.032091 84 140.766466 84 140.766466 72.640625 139.133654 72.640625 135.203966 81.296875 135.039904 81.296875 131.086779 72.640625 129.407091 72.640625 129.407091 84 131.149279 84zM152.883534 84L152.883534 82.453125 147.141346 82.453125 147.141346 78.9453125 150.617909 78.9453125 150.617909 77.4140625 147.141346 77.4140625 147.141346 74.1875 152.680409 74.1875 152.680409 72.640625 145.336659 72.640625 145.336659 84 152.883534 84zM166.062981 84.21875C168.727043 84.21875 170.211418 82.7578125 170.211418 80.8125 170.211418 79.2109375 169.477043 78.2265625 167.406731 77.5390625L165.812981 77.015625C164.602043 76.6171875 164.227043 76.1640625 164.227043 75.3984375 164.227043 74.578125 164.875481 73.9296875 166.273918 73.9296875 167.328606 73.9296875 167.984856 74.3671875 168.492668 75.09375L169.883293 74.234375C169.133293 73.140625 168.070793 72.421875 166.289543 72.421875 163.961418 72.421875 162.531731 73.7109375 162.531731 75.453125 162.531731 77.0390625 163.375481 78.015625 165.008293 78.546875L166.648918 79.0859375C168.078606 79.5546875 168.484856 80.1171875 168.484856 80.953125 168.484856 81.9609375 167.656731 82.6953125 166.062981 82.6953125 164.703606 82.6953125 163.922356 82.171875 163.297356 81.140625L161.883293 81.984375C162.695793 83.421875 163.906731 84.21875 166.062981 84.21875zM174.539423 84L175.375361 81.7421875 180.265986 81.7421875 181.101923 84 183.140986 84 178.539423 72.6015625 177.187861 72.6015625 172.586298 84 174.539423 84zM179.711298 80.2421875L175.930048 80.2421875 177.703486 75.453125 177.945673 75.453125 179.711298 80.2421875zM188.242428 84L188.242428 76.265625 188.414303 76.265625 194.265865 84 195.570553 84 195.570553 72.640625 193.773678 72.640625 193.773678 80.3828125 193.617428 80.3828125 187.758053 72.640625 186.445553 72.640625 186.445553 84 188.242428 84zM203.09387 84.21875C205.757933 84.21875 207.242308 82.7578125 207.242308 80.8125 207.242308 79.2109375 206.507933 78.2265625 204.43762 77.5390625L202.84387 77.015625C201.632933 76.6171875 201.257933 76.1640625 201.257933 75.3984375 201.257933 74.578125 201.90637 73.9296875 203.304808 73.9296875 204.359495 73.9296875 205.015745 74.3671875 205.523558 75.09375L206.914183 74.234375C206.164183 73.140625 205.101683 72.421875 203.320433 72.421875 200.992308 72.421875 199.56262 73.7109375 199.56262 75.453125 199.56262 77.0390625 200.40637 78.015625 202.039183 78.546875L203.679808 79.0859375C205.109495 79.5546875 205.515745 80.1171875 205.515745 80.953125 205.515745 81.9609375 204.68762 82.6953125 203.09387 82.6953125 201.734495 82.6953125 200.953245 82.171875 200.328245 81.140625L198.914183 81.984375C199.726683 83.421875 200.93762 84.21875 203.09387 84.21875zM81.4233173 103C84.9155048 103 87.0951923 100.890625 87.0951923 97.3359375 87.0951923 93.78125 84.9155048 91.640625 81.4076923 91.640625L77.8451923 91.640625 77.8451923 103 81.4233173 103zM81.4311298 101.320312L79.6498798 101.320312 79.6498798 93.3203125 81.4311298 93.3203125C83.8764423 93.3203125 85.2670673 94.7109375 85.2670673 97.328125 85.2670673 99.9453125 83.8764423 101.320312 81.4311298 101.320312zM92.8450721 103L92.8450721 91.640625 91.0403846 91.640625 91.0403846 103 92.8450721 103zM100.454327 103.21875C103.118389 103.21875 104.602764 101.757812 104.602764 99.8125 104.602764 98.2109375 103.868389 97.2265625 101.798077 96.5390625L100.204327 96.015625C98.9933894 95.6171875 98.6183894 95.1640625 98.6183894 94.3984375 98.6183894 93.578125 99.2668269 92.9296875 100.665264 92.9296875 101.719952 92.9296875 102.376202 93.3671875 102.884014 94.09375L104.274639 93.234375C103.524639 92.140625 102.462139 91.421875 100.680889 91.421875 98.3527644 91.421875 96.9230769 92.7109375 96.9230769 94.453125 96.9230769 96.0390625 97.7668269 97.015625 99.3996394 97.546875L101.040264 98.0859375C102.469952 98.5546875 102.876202 99.1171875 102.876202 99.953125 102.876202 100.960938 102.048077 101.695312 100.454327 101.695312 99.0949519 101.695312 98.3137019 101.171875 97.6887019 100.140625L96.2746394 100.984375C97.0871394 102.421875 98.2980769 103.21875 100.454327 103.21875zM110.204207 103L110.204207 98.9140625 112.383894 98.9140625C114.868269 98.9140625 116.321394 97.515625 116.321394 95.265625 116.321394 93.0859375 114.868269 91.640625 112.368269 91.640625L108.391707 91.640625 108.391707 103 110.204207 103zM112.282332 97.3515625L110.204207 97.3515625 110.204207 93.1953125 112.282332 93.1953125C113.751082 93.1953125 114.508894 94.078125 114.508894 95.28125 114.508894 96.53125 113.743269 97.3515625 112.282332 97.3515625zM127.157212 103L127.157212 101.382812 121.930649 101.382812 121.930649 91.640625 120.125962 91.640625 120.125962 103 127.157212 103zM131.618029 103L132.453966 100.742188 137.344591 100.742188 138.180529 103 140.219591 103 135.618029 91.6015625 134.266466 91.6015625 129.664904 103 131.618029 103zM136.789904 99.2421875L133.008654 99.2421875 134.782091 94.453125 135.024279 94.453125 136.789904 99.2421875zM146.656971 103L146.656971 98.3046875 151.031971 91.640625 148.977284 91.640625 145.899159 96.78125 145.641346 96.78125 142.672596 91.640625 140.516346 91.640625 144.836659 98.3046875 144.836659 103 146.656971 103zM165.156731 103C167.531731 103 168.977043 101.867188 168.977043 99.78125 168.977043 98.4140625 168.227043 97.484375 166.734856 97.1640625L166.734856 96.9609375C167.891106 96.6328125 168.641106 95.859375 168.641106 94.5703125 168.641106 92.7890625 167.320793 91.640625 164.781731 91.640625L160.687981 91.640625 160.687981 103 165.156731 103zM164.766106 96.4921875L162.500481 96.4921875 162.500481 93.1875 164.758293 93.1875C166.203606 93.1875 166.836418 93.78125 166.836418 94.78125 166.836418 95.90625 166.234856 96.4921875 164.766106 96.4921875zM165.039543 101.453125L162.500481 101.453125 162.500481 97.890625 165.031731 97.890625C166.516106 97.890625 167.172356 98.4375 167.172356 99.6640625 167.172356 100.929688 166.344231 101.453125 165.039543 101.453125zM177.703486 103.21875C181.015986 103.21875 183.226923 100.90625 183.226923 97.3359375 183.226923 93.765625 181.015986 91.421875 177.703486 91.421875 174.390986 91.421875 172.226923 93.765625 172.226923 97.3359375 172.226923 100.90625 174.398798 103.21875 177.703486 103.21875zM177.703486 101.554688C175.383173 101.554688 174.055048 99.9375 174.055048 97.3359375 174.055048 94.7421875 175.375361 93.0859375 177.703486 93.0859375 180.031611 93.0859375 181.398798 94.7421875 181.398798 97.3359375 181.398798 99.9375 180.023798 101.554688 177.703486 101.554688zM194.109615 103L194.109615 101.382812 188.883053 101.382812 188.883053 91.640625 187.078365 91.640625 187.078365 103 194.109615 103zM201.507933 103C205.00012 103 207.179808 100.890625 207.179808 97.3359375 207.179808 93.78125 205.00012 91.640625 201.492308 91.640625L197.929808 91.640625 197.929808 103 201.507933 103zM201.515745 101.320312L199.734495 101.320312 199.734495 93.3203125 201.515745 93.3203125C203.961058 93.3203125 205.351683 94.7109375 205.351683 97.328125 205.351683 99.9453125 203.961058 101.320312 201.515745 101.320312zM104.915144 423L104.915144 415.265625 105.087019 415.265625 110.938582 423 112.243269 423 112.243269 411.640625 110.446394 411.640625 110.446394 419.382812 110.290144 419.382812 104.430769 411.640625 103.118269 411.640625 103.118269 423 104.915144 423zM117.500962 423L118.336899 420.742188 123.227524 420.742188 124.063462 423 126.102524 423 121.500962 411.601562 120.149399 411.601562 115.547837 423 117.500962 423zM122.672837 419.242188L118.891587 419.242188 120.665024 414.453125 120.907212 414.453125 122.672837 419.242188zM131.149279 423L131.149279 415.921875 131.328966 415.921875 134.524279 423 135.657091 423 138.852404 415.921875 139.032091 415.921875 139.032091 423 140.766466 423 140.766466 411.640625 139.133654 411.640625 135.203966 420.296875 135.039904 420.296875 131.086779 411.640625 129.407091 411.640625 129.407091 423 131.149279 423zM152.883534 423L152.883534 421.453125 147.141346 421.453125 147.141346 417.945312 150.617909 417.945312 150.617909 416.414062 147.141346 416.414062 147.141346 413.1875 152.680409 413.1875 152.680409 411.640625 145.336659 411.640625 145.336659 423 152.883534 423zM166.062981 423.21875C168.727043 423.21875 170.211418 421.757812 170.211418 419.8125 170.211418 418.210938 169.477043 417.226562 167.406731 416.539062L165.812981 416.015625C164.602043 415.617188 164.227043 415.164062 164.227043 414.398438 164.227043 413.578125 164.875481 412.929688 166.273918 412.929688 167.328606 412.929688 167.984856 413.367188 168.492668 414.09375L169.883293 413.234375C169.133293 412.140625 168.070793 411.421875 166.289543 411.421875 163.961418 411.421875 162.531731 412.710938 162.531731 414.453125 162.531731 416.039062 163.375481 417.015625 165.008293 417.546875L166.648918 418.085938C168.078606 418.554688 168.484856 419.117188 168.484856 419.953125 168.484856 420.960938 167.656731 421.695312 166.062981 421.695312 164.703606 421.695312 163.922356 421.171875 163.297356 420.140625L161.883293 420.984375C162.695793 422.421875 163.906731 423.21875 166.062981 423.21875zM174.539423 423L175.375361 420.742188 180.265986 420.742188 181.101923 423 183.140986 423 178.539423 411.601562 177.187861 411.601562 172.586298 423 174.539423 423zM179.711298 419.242188L175.930048 419.242188 177.703486 414.453125 177.945673 414.453125 179.711298 419.242188zM188.242428 423L188.242428 415.265625 188.414303 415.265625 194.265865 423 195.570553 423 195.570553 411.640625 193.773678 411.640625 193.773678 419.382812 193.617428 419.382812 187.758053 411.640625 186.445553 411.640625 186.445553 423 188.242428 423zM203.09387 423.21875C205.757933 423.21875 207.242308 421.757812 207.242308 419.8125 207.242308 418.210938 206.507933 417.226562 204.43762 416.539062L202.84387 416.015625C201.632933 415.617188 201.257933 415.164062 201.257933 414.398438 201.257933 413.578125 201.90637 412.929688 203.304808 412.929688 204.359495 412.929688 205.015745 413.367188 205.523558 414.09375L206.914183 413.234375C206.164183 412.140625 205.101683 411.421875 203.320433 411.421875 200.992308 411.421875 199.56262 412.710938 199.56262 414.453125 199.56262 416.039062 200.40637 417.015625 202.039183 417.546875L203.679808 418.085938C205.109495 418.554688 205.515745 419.117188 205.515745 419.953125 205.515745 420.960938 204.68762 421.695312 203.09387 421.695312 201.734495 421.695312 200.953245 421.171875 200.328245 420.140625L198.914183 420.984375C199.726683 422.421875 200.93762 423.21875 203.09387 423.21875zM59.3453125 442.21875C62.009375 442.21875 63.49375 440.757812 63.49375 438.8125 63.49375 437.210938 62.759375 436.226562 60.6890625 435.539062L59.0953125 435.015625C57.884375 434.617188 57.509375 434.164062 57.509375 433.398438 57.509375 432.578125 58.1578125 431.929688 59.55625 431.929688 60.6109375 431.929688 61.2671875 432.367188 61.775 433.09375L63.165625 432.234375C62.415625 431.140625 61.353125 430.421875 59.571875 430.421875 57.24375 430.421875 55.8140625 431.710938 55.8140625 433.453125 55.8140625 435.039062 56.6578125 436.015625 58.290625 436.546875L59.93125 437.085938C61.3609375 437.554688 61.7671875 438.117188 61.7671875 438.953125 61.7671875 439.960938 60.9390625 440.695312 59.3453125 440.695312 57.9859375 440.695312 57.2046875 440.171875 56.5796875 439.140625L55.165625 439.984375C55.978125 441.421875 57.1890625 442.21875 59.3453125 442.21875zM71.6264423 442L71.6264423 432.21875 75.1342548 432.21875 75.1342548 430.640625 66.2748798 430.640625 66.2748798 432.21875 69.8061298 432.21875 69.8061298 442 71.6264423 442zM78.3216346 442L79.1575721 439.742188 84.0481971 439.742188 84.8841346 442 86.9231971 442 82.3216346 430.601562 80.9700721 430.601562 76.3685096 442 78.3216346 442zM83.4935096 438.242188L79.7122596 438.242188 81.4856971 433.453125 81.7278846 433.453125 83.4935096 438.242188zM92.0246394 442L92.0246394 434.265625 92.1965144 434.265625 98.0480769 442 99.3527644 442 99.3527644 430.640625 97.5558894 430.640625 97.5558894 438.382812 97.3996394 438.382812 91.5402644 430.640625 90.2277644 430.640625 90.2277644 442 92.0246394 442zM107.501082 442C110.993269 442 113.172957 439.890625 113.172957 436.335938 113.172957 432.78125 110.993269 430.640625 107.485457 430.640625L103.922957 430.640625 103.922957 442 107.501082 442zM107.508894 440.320312L105.727644 440.320312 105.727644 432.320312 107.508894 432.320312C109.954207 432.320312 111.344832 433.710938 111.344832 436.328125 111.344832 438.945312 109.954207 440.320312 107.508894 440.320312zM117.329087 442L118.165024 439.742188 123.055649 439.742188 123.891587 442 125.930649 442 121.329087 430.601562 119.977524 430.601562 115.375962 442 117.329087 442zM122.500962 438.242188L118.719712 438.242188 120.493149 433.453125 120.735337 433.453125 122.500962 438.242188zM131.039904 442L131.039904 437.8125 133.258654 437.8125 135.414904 442 137.446154 442 135.024279 437.5625C136.461779 437.070312 137.266466 435.875 137.266466 434.210938 137.266466 432.0625 135.836779 430.640625 133.368029 430.640625L129.235216 430.640625 129.235216 442 131.039904 442zM133.282091 436.234375L131.039904 436.234375 131.039904 432.195312 133.282091 432.195312C134.711779 432.195312 135.453966 433.0625 135.453966 434.226562 135.453966 435.445312 134.703966 436.234375 133.282091 436.234375zM144.852284 442C148.344471 442 150.524159 439.890625 150.524159 436.335938 150.524159 432.78125 148.344471 430.640625 144.836659 430.640625L141.274159 430.640625 141.274159 442 144.852284 442zM144.860096 440.320312L143.078846 440.320312 143.078846 432.320312 144.860096 432.320312C147.305409 432.320312 148.696034 433.710938 148.696034 436.328125 148.696034 438.945312 147.305409 440.320312 144.860096 440.320312zM165.156731 442C167.531731 442 168.977043 440.867188 168.977043 438.78125 168.977043 437.414062 168.227043 436.484375 166.734856 436.164062L166.734856 435.960938C167.891106 435.632812 168.641106 434.859375 168.641106 433.570312 168.641106 431.789062 167.320793 430.640625 164.781731 430.640625L160.687981 430.640625 160.687981 442 165.156731 442zM164.766106 435.492188L162.500481 435.492188 162.500481 432.1875 164.758293 432.1875C166.203606 432.1875 166.836418 432.78125 166.836418 433.78125 166.836418 434.90625 166.234856 435.492188 164.766106 435.492188zM165.039543 440.453125L162.500481 440.453125 162.500481 436.890625 165.031731 436.890625C166.516106 436.890625 167.172356 437.4375 167.172356 438.664062 167.172356 439.929688 166.344231 440.453125 165.039543 440.453125zM177.703486 442.21875C181.015986 442.21875 183.226923 439.90625 183.226923 436.335938 183.226923 432.765625 181.015986 430.421875 177.703486 430.421875 174.390986 430.421875 172.226923 432.765625 172.226923 436.335938 172.226923 439.90625 174.398798 442.21875 177.703486 442.21875zM177.703486 440.554688C175.383173 440.554688 174.055048 438.9375 174.055048 436.335938 174.055048 433.742188 175.375361 432.085938 177.703486 432.085938 180.031611 432.085938 181.398798 433.742188 181.398798 436.335938 181.398798 438.9375 180.023798 440.554688 177.703486 440.554688zM194.109615 442L194.109615 440.382812 188.883053 440.382812 188.883053 430.640625 187.078365 430.640625 187.078365 442 194.109615 442zM201.507933 442C205.00012 442 207.179808 439.890625 207.179808 436.335938 207.179808 432.78125 205.00012 430.640625 201.492308 430.640625L197.929808 430.640625 197.929808 442 201.507933 442zM201.515745 440.320312L199.734495 440.320312 199.734495 432.320312 201.515745 432.320312C203.961058 432.320312 205.351683 433.710938 205.351683 436.328125 205.351683 438.945312 203.961058 440.320312 201.515745 440.320312zM104.915144 772L104.915144 764.265625 105.087019 764.265625 110.938582 772 112.243269 772 112.243269 760.640625 110.446394 760.640625 110.446394 768.382812 110.290144 768.382812 104.430769 760.640625 103.118269 760.640625 103.118269 772 104.915144 772zM117.500962 772L118.336899 769.742188 123.227524 769.742188 124.063462 772 126.102524 772 121.500962 760.601562 120.149399 760.601562 115.547837 772 117.500962 772zM122.672837 768.242188L118.891587 768.242188 120.665024 763.453125 120.907212 763.453125 122.672837 768.242188zM131.149279 772L131.149279 764.921875 131.328966 764.921875 134.524279 772 135.657091 772 138.852404 764.921875 139.032091 764.921875 139.032091 772 140.766466 772 140.766466 760.640625 139.133654 760.640625 135.203966 769.296875 135.039904 769.296875 131.086779 760.640625 129.407091 760.640625 129.407091 772 131.149279 772zM152.883534 772L152.883534 770.453125 147.141346 770.453125 147.141346 766.945312 150.617909 766.945312 150.617909 765.414062 147.141346 765.414062 147.141346 762.1875 152.680409 762.1875 152.680409 760.640625 145.336659 760.640625 145.336659 772 152.883534 772zM166.062981 772.21875C168.727043 772.21875 170.211418 770.757812 170.211418 768.8125 170.211418 767.210938 169.477043 766.226562 167.406731 765.539062L165.812981 765.015625C164.602043 764.617188 164.227043 764.164062 164.227043 763.398438 164.227043 762.578125 164.875481 761.929688 166.273918 761.929688 167.328606 761.929688 167.984856 762.367188 168.492668 763.09375L169.883293 762.234375C169.133293 761.140625 168.070793 760.421875 166.289543 760.421875 163.961418 760.421875 162.531731 761.710938 162.531731 763.453125 162.531731 765.039062 163.375481 766.015625 165.008293 766.546875L166.648918 767.085938C168.078606 767.554688 168.484856 768.117188 168.484856 768.953125 168.484856 769.960938 167.656731 770.695312 166.062981 770.695312 164.703606 770.695312 163.922356 770.171875 163.297356 769.140625L161.883293 769.984375C162.695793 771.421875 163.906731 772.21875 166.062981 772.21875zM174.539423 772L175.375361 769.742188 180.265986 769.742188 181.101923 772 183.140986 772 178.539423 760.601562 177.187861 760.601562 172.586298 772 174.539423 772zM179.711298 768.242188L175.930048 768.242188 177.703486 763.453125 177.945673 763.453125 179.711298 768.242188zM188.242428 772L188.242428 764.265625 188.414303 764.265625 194.265865 772 195.570553 772 195.570553 760.640625 193.773678 760.640625 193.773678 768.382812 193.617428 768.382812 187.758053 760.640625 186.445553 760.640625 186.445553 772 188.242428 772zM203.09387 772.21875C205.757933 772.21875 207.242308 770.757812 207.242308 768.8125 207.242308 767.210938 206.507933 766.226562 204.43762 765.539062L202.84387 765.015625C201.632933 764.617188 201.257933 764.164062 201.257933 763.398438 201.257933 762.578125 201.90637 761.929688 203.304808 761.929688 204.359495 761.929688 205.015745 762.367188 205.523558 763.09375L206.914183 762.234375C206.164183 761.140625 205.101683 760.421875 203.320433 760.421875 200.992308 760.421875 199.56262 761.710938 199.56262 763.453125 199.56262 765.039062 200.40637 766.015625 202.039183 766.546875L203.679808 767.085938C205.109495 767.554688 205.515745 768.117188 205.515745 768.953125 205.515745 769.960938 204.68762 770.695312 203.09387 770.695312 201.734495 770.695312 200.953245 770.171875 200.328245 769.140625L198.914183 769.984375C199.726683 771.421875 200.93762 772.21875 203.09387 772.21875zM111.469832 791L111.469832 781.21875 114.977644 781.21875 114.977644 779.640625 106.118269 779.640625 106.118269 781.21875 109.649519 781.21875 109.649519 791 111.469832 791zM126.266587 791L126.266587 789.453125 120.524399 789.453125 120.524399 785.945312 124.000962 785.945312 124.000962 784.414062 120.524399 784.414062 120.524399 781.1875 126.063462 781.1875 126.063462 779.640625 118.719712 779.640625 118.719712 791 126.266587 791zM131.172716 791L133.860216 786.515625 134.102404 786.515625 137.039904 791 139.149279 791 135.250841 785.125 138.899279 779.640625 136.828966 779.640625 134.414904 783.789062 134.180529 783.789062 131.493029 779.640625 129.360216 779.640625 133.008654 785.125 129.063341 791 131.172716 791zM147.125721 791L147.125721 781.21875 150.633534 781.21875 150.633534 779.640625 141.774159 779.640625 141.774159 781.21875 145.305409 781.21875 145.305409 791 147.125721 791zM165.156731 791C167.531731 791 168.977043 789.867188 168.977043 787.78125 168.977043 786.414062 168.227043 785.484375 166.734856 785.164062L166.734856 784.960938C167.891106 784.632812 168.641106 783.859375 168.641106 782.570312 168.641106 780.789062 167.320793 779.640625 164.781731 779.640625L160.687981 779.640625 160.687981 791 165.156731 791zM164.766106 784.492188L162.500481 784.492188 162.500481 781.1875 164.758293 781.1875C166.203606 781.1875 166.836418 781.78125 166.836418 782.78125 166.836418 783.90625 166.234856 784.492188 164.766106 784.492188zM165.039543 789.453125L162.500481 789.453125 162.500481 785.890625 165.031731 785.890625C166.516106 785.890625 167.172356 786.4375 167.172356 787.664062 167.172356 788.929688 166.344231 789.453125 165.039543 789.453125zM177.703486 791.21875C181.015986 791.21875 183.226923 788.90625 183.226923 785.335938 183.226923 781.765625 181.015986 779.421875 177.703486 779.421875 174.390986 779.421875 172.226923 781.765625 172.226923 785.335938 172.226923 788.90625 174.398798 791.21875 177.703486 791.21875zM177.703486 789.554688C175.383173 789.554688 174.055048 787.9375 174.055048 785.335938 174.055048 782.742188 175.375361 781.085938 177.703486 781.085938 180.031611 781.085938 181.398798 782.742188 181.398798 785.335938 181.398798 787.9375 180.023798 789.554688 177.703486 789.554688zM194.109615 791L194.109615 789.382812 188.883053 789.382812 188.883053 779.640625 187.078365 779.640625 187.078365 791 194.109615 791zM201.507933 791C205.00012 791 207.179808 788.890625 207.179808 785.335938 207.179808 781.78125 205.00012 779.640625 201.492308 779.640625L197.929808 779.640625 197.929808 791 201.507933 791zM201.515745 789.320312L199.734495 789.320312 199.734495 781.320312 201.515745 781.320312C203.961058 781.320312 205.351683 782.710938 205.351683 785.328125 205.351683 787.945312 203.961058 789.320312 201.515745 789.320312z"/>
    <path fill="#FFF" fill-rule="nonzero" d="M370.037994 683.377867C407.067454 683.377867 432.969835 670.609088 447.927548 643.794651L451.393359 643.794651 454.67676 679 499.549898 679 499.549898 533.983149 389.373574 533.983149 389.373574 583.234155 443.914503 583.234155C442.820036 612.419937 419.836233 631.937928 377.516851 631.937928 330.272367 631.937928 304.187575 598.921513 304.187575 546.93434 304.187575 495.4944 334.467823 463.025219 379.340962 463.025219 407.797099 463.025219 426.038212 474.699531 442.090392 498.048156L488.240408 465.031741C463.250083 428.549515 429.321612 408.849112 378.97614 408.849112 302.545875 408.849112 245.268779 461.383519 245.268779 546.204695 245.268779 630.296228 297.255952 683.377867 370.037994 683.377867zM593.491632 682.2834C619.758835 682.2834 639.641648 672.61561 649.674261 650.726274L653.687306 650.726274 657.517939 679 701.296611 679 701.296611 565.357864C701.296611 512.093813 673.934941 483.090443 619.758835 483.090443 585.830364 483.090443 558.468694 496.406456 539.133114 519.390259L575.615341 549.123273C586.377598 535.260027 599.146377 527.416349 618.117135 527.416349 638.547182 527.416349 648.214972 537.996194 648.214972 558.061419L648.214972 565.540275 600.605666 565.540275C556.279761 565.540275 530.37738 588.706489 530.37738 623.364604 530.37738 659.299598 554.820472 682.2834 593.491632 682.2834zM607.172467 641.605718C591.120287 641.605718 582.729375 633.397217 582.729375 620.446026 582.729375 607.859658 590.755465 599.833568 606.625233 599.833568L648.214972 599.833568 648.214972 602.934558C648.214972 626.648005 632.162792 641.605718 607.172467 641.605718zM853.427496 683.013045C901.401624 683.013045 937.336617 647.078052 937.336617 583.416566 937.336617 519.755081 901.584035 484.18491 853.974729 484.18491 827.707526 484.18491 810.013646 495.129578 798.521745 512.458636L794.873522 512.458636 794.873522 409.031523 740.332594 409.031523 740.332594 679 785.935377 679 790.678066 648.172519 794.143878 648.172519C805.088546 671.156321 824.788948 683.013045 853.427496 683.013045zM838.469783 636.133384C812.20258 636.133384 794.691111 616.980215 794.691111 583.598978 794.691111 550.035329 811.655347 531.246982 838.469783 531.246982 865.101809 531.246982 881.518811 550.400151 881.518811 583.598978 881.518811 616.980215 864.919397 636.133384 838.469783 636.133384zM1081.44141 752.694098C1131.9693 750.505164 1159.14855 721.684205 1159.14855 674.439722L1159.14855 487.833133 1114.82265 487.833133 1110.26237 517.201325 1106.43174 517.201325C1095.66948 494.947167 1076.69872 483.272854 1047.87776 483.45316 998.626758 483.637677 962.691765 520.484726 962.691765 579.038699 962.691765 636.863028 998.444347 673.892488 1046.96571 673.892488 1073.23291 673.892488 1090.37956 664.224698 1100.77699 644.706707L1104.60763 644.706707 1104.60763 675.7166C1104.60763 696.69388 1092.56849 706.36167 1075.23943 707.638548 1063.2003 708.368192 1050.43152 708.368192 1038.20997 707.638548 1024.52914 706.908903 1018.50957 703.260681 1011.57795 690.491901L966.339987 714.752582C979.656 742.661485 997.714702 751.41722 1032.92005 752.694098 1048.78982 753.423742 1065.75405 753.423742 1081.44141 752.694098zM1061.74101 628.472116C1034.74416 628.472116 1018.14475 608.406892 1018.14475 579.22111 1018.14475 550.400151 1033.10246 530.334927 1060.64654 530.334927 1088.55545 530.334927 1104.60763 548.211218 1104.60763 578.309055 1104.60763 608.406892 1088.92027 628.472116 1061.74101 628.472116zM1253.81993 679L1253.81993 564.993042C1253.81993 540.367539 1265.85907 528.875638 1286.83635 528.875638 1307.81363 528.875638 1319.67035 540.367539 1319.67035 564.993042L1319.67035 679 1374.21128 679 1374.21128 562.439286C1374.21128 511.54658 1348.85613 483.272854 1305.44228 483.272854 1278.26302 483.272854 1260.56914 495.4944 1250.35412 514.82998L1246.7059 514.82998 1243.96973 487.833133 1199.279 487.833133 1199.279 679 1253.81993 679zM1467.60578 751.599631L1467.60578 654.192086 1471.254 654.192086C1482.92832 672.250788 1499.71014 682.648223 1526.52458 682.648223 1574.31629 682.648223 1610.06887 647.078052 1610.06887 583.416566 1610.06887 519.57267 1574.13388 483.820088 1526.15975 483.820088 1497.52121 483.820088 1477.63839 495.859223 1466.87614 518.660614L1463.41032 518.660614 1458.66763 487.833133 1413.06485 487.833133 1413.06485 751.599631 1467.60578 751.599631zM1511.20204 635.58615C1484.3876 635.58615 1467.42337 616.980215 1467.42337 583.416566 1467.42337 549.852918 1484.93484 530.88216 1511.20204 530.88216 1537.65166 530.88216 1554.25107 549.852918 1554.25107 583.234155 1554.25107 616.615393 1537.83407 635.58615 1511.20204 635.58615zM1696.53175 679L1696.53175 577.944232C1696.53175 551.312207 1708.7533 540.54995 1732.10192 540.54995L1751.61991 540.54995 1751.61991 486.009021 1734.83809 486.009021C1714.40804 486.009021 1699.45033 496.041634 1692.88353 522.673659L1688.87048 522.673659 1684.85744 487.833133 1641.99082 487.833133 1641.99082 679 1696.53175 679zM368.578705 1030.10751C407.432276 1030.10751 433.152246 1014.60257 446.285848 982.680617L451.940593 982.680617 455.953638 1025 500.644365 1025 500.644365 876.88216 380.982662 876.88216 380.982662 924.126644 444.279325 924.126644 444.279325 927.592455C444.279325 960.244048 423.666867 979.032395 377.152028 979.032395 332.643712 979.032395 307.288564 946.563213 307.288564 892.93434 307.288564 840.035111 336.656757 807.930752 380.982662 807.930752 408.709154 807.930752 427.31509 820.51712 442.637625 841.4944L488.787642 806.471463C464.709372 774.184692 431.328135 753.572234 380.61784 753.572234 306.376509 753.572234 249.281824 805.924229 249.281824 892.204695 249.281824 978.485161 300.904175 1030.10751 368.578705 1030.10751zM604.983533 1028.46581C631.433147 1028.46581 652.045605 1017.52114 660.436518 992.713229L667.003318 992.713229 671.381186 1025 715.342269 1025 715.342269 906.250353C715.342269 852.439068 687.798187 824.712576 633.986903 824.712576 598.963966 824.712576 570.507829 836.204478 549.165727 859.005869L584.553486 890.745406C597.139854 875.605282 611.185512 867.579192 632.162792 867.579192 652.957661 867.579192 661.895807 878.159038 661.895807 901.142841L661.895807 910.993042 615.563379 910.993042C569.413362 910.993042 542.963748 934.8889 542.963748 968.817371 542.963748 1005.48201 567.224429 1028.46581 604.983533 1028.46581zM621.765357 989.247418C604.4363 989.247418 595.498154 979.397217 595.498154 965.533971 595.498154 951.670725 603.706655 942.550168 620.670891 942.550168L661.895807 942.550168 661.895807 947.840091C661.895807 973.560061 646.755683 989.247418 621.765357 989.247418zM883.160511 1029.01304C932.229105 1029.01304 965.610343 992.165996 965.610343 927.227633 965.610343 862.471681 932.046694 825.442221 884.254978 825.442221 855.61643 825.442221 837.375316 839.123056 827.160293 860.465158L821.323137 860.465158 821.323137 750.288834 766.417386 750.288834 766.417386 1025 811.108113 1025 816.94527 989.065007 822.782426 989.065007C832.997449 1016.42668 853.609907 1029.01304 883.160511 1029.01304zM866.013864 982.133384C837.557728 982.133384 821.505548 962.432981 821.505548 927.410044 821.505548 892.387106 837.557728 872.504293 866.013864 872.504293 894.28759 872.504293 909.974947 891.839873 909.974947 927.227633 909.974947 962.797804 894.28759 982.133384 866.013864 982.133384zM1114.27542 1107.63224C1167.17464 1103.25438 1196.90766 1072.97413 1196.90766 1022.99348L1196.90766 829.455266 1152.39934 829.455266 1146.7446 865.025437 1140.90744 865.025437C1131.23965 838.211 1113.18095 825.077398 1082.9007 825.257936 1031.46076 825.624632 997.34988 865.207848 997.34988 926.315577 997.34988 985.781606 1030.73112 1025.91206 1081.62382 1025.91206 1109.35032 1025.91206 1126.49696 1014.78498 1136.16475 991.071529L1142.00191 991.071529 1142.00191 1025.36482C1142.00191 1049.99033 1126.67937 1058.92847 1107.5262 1061.29982 1094.93984 1062.7591 1081.259 1062.57669 1068.67263 1061.1174 1057.72796 1059.65812 1052.98528 1056.55713 1046.23606 1045.06522L999.721225 1069.32591C1011.39554 1094.49864 1030.00147 1104.71367 1061.92342 1107.63224 1079.25248 1108.90912 1097.31118 1109.09153 1114.27542 1107.63224zM1097.676 980.309272C1068.1254 980.309272 1053.71492 959.149581 1053.71492 925.950755 1053.71492 893.299162 1068.1254 872.321882 1097.676 872.321882 1127.77384 872.321882 1142.00191 892.751929 1142.00191 925.950755 1142.00191 959.149581 1127.77384 980.309272 1097.676 980.309272zM1304.16541 1025L1304.16541 905.703119C1304.16541 881.989672 1315.4749 870.315359 1337.36423 870.315359 1359.25357 870.315359 1370.38065 881.989672 1370.38065 905.703119L1370.38065 1025 1425.10399 1025 1425.10399 902.60213C1425.10399 852.621479 1400.47848 825.624632 1358.70633 825.624632 1330.79743 825.624632 1313.65078 838.940645 1303.25335 861.194803L1297.41619 861.194803 1295.04485 829.455266 1249.44207 829.455266 1249.44207 1025 1304.16541 1025zM1530.53762 1105.2609L1530.53762 993.990107 1536.37478 993.990107C1546.5898 1015.51462 1564.83091 1029.01304 1593.46946 1029.01304 1641.26118 1029.01304 1674.82483 991.983585 1674.82483 927.227633 1674.82483 862.28927 1641.44359 825.442221 1592.375 825.442221 1562.82439 825.442221 1542.21193 838.028589 1531.99691 865.57267L1526.15975 865.57267 1520.3226 829.455266 1475.63187 829.455266 1475.63187 1105.2609 1530.53762 1105.2609zM1575.22835 981.950973C1546.77221 981.950973 1530.72003 962.25057 1530.72003 927.227633 1530.72003 892.022284 1546.77221 872.504293 1575.22835 872.504293 1603.50207 872.504293 1619.18943 891.657462 1619.18943 927.227633 1619.18943 962.797804 1603.50207 981.950973 1575.22835 981.950973zM1770.77308 1025L1770.77308 921.93771C1770.77308 894.758451 1782.99463 883.996194 1806.70808 883.996194L1829.50947 883.996194 1829.50947 825.807043 1811.45077 825.807043C1789.92625 825.807043 1774.42131 837.298944 1769.31379 867.944015L1762.19976 867.944015 1758.36913 829.455266 1716.04974 829.455266 1716.04974 1025 1770.77308 1025z"/>
    <circle cx="473.5" cy="317.104" r="38.163" fill="#FFA600" fill-opacity=".15" stroke="#FFA600" stroke-width="2"/>
    <circle cx="659.5" cy="317.104" r="38.163" fill="#FFA600" fill-opacity=".15" stroke="#FFA600" stroke-width="2"/>
    <circle cx="740.826" cy="317.104" r="38.163" fill="#FFA600" fill-opacity=".15" stroke="#FFA600" stroke-width="2"/>
    <circle cx="1093.5" cy="165.337" r="38.163" fill="#FFA600" fill-opacity=".15" stroke="#FFA600" stroke-width="2"/>
    <circle cx="1176.5" cy="165.337" r="38.163" fill="#FFA600" fill-opacity=".15" stroke="#FFA600" stroke-width="2"/>
    <circle cx="1377.5" cy="165.337" r="38.163" fill="#FFA600" fill-opacity=".15" stroke="#FFA600" stroke-width="2"/>
    <circle cx="1595.5" cy="165.337" r="38.163" fill="#FFA600" fill-opacity=".15" stroke="#FFA600" stroke-width="2"/>
  </g>
</svg>
