<svg xmlns="http://www.w3.org/2000/svg" width="1891" height="540" viewBox="0 0 1891 540">
  <g fill="none" fill-rule="evenodd">
    <rect width="1891" height="540" fill="#222"/>
    <path fill="#FFF" fill-rule="nonzero" d="M90.222957 183.2503L90.222957 152.042425 90.5933769 152.042425 105.271265 183.2503 115.087392 183.2503 129.76528 152.042425 130.1357 152.042425 130.1357 183.2503 144.165353 183.2503 144.165353 115.926486 132.265614 115.926486 110.688656 161.302922 110.364538 161.302922 88.0004377 115.926486 76.1006988 115.926486 76.1006988 183.2503 90.222957 183.2503zM175.558438 184.73198C190.514141 184.73198 201.11741 173.9435 201.11741 159.58973 201.11741 145.189657 190.467838 134.354875 175.558438 134.354875 160.649038 134.354875 149.999466 145.189657 149.999466 159.58973 149.999466 173.9435 160.602735 184.73198 175.558438 184.73198zM175.558438 172.137703C168.566763 172.137703 163.890212 166.998128 163.890212 159.58973 163.890212 152.13503 168.566763 146.902849 175.558438 146.902849 182.503811 146.902849 187.226664 152.13503 187.226664 159.58973 187.226664 166.998128 182.550113 172.137703 175.558438 172.137703zM223.249998 184.454165C236.122089 184.454165 244.039814 178.573749 244.039814 168.572412 244.039814 161.071409 239.687381 156.672673 229.223019 154.126037L223.898233 152.829567C219.545799 151.76461 218.388237 150.83856 218.388237 148.847553 218.388237 146.717639 220.240337 145.513774 223.944535 145.513774 227.695037 145.513774 230.843606 147.180664 232.97352 150.329233L242.511832 143.291255C238.390911 137.503444 232.186378 134.540085 223.805628 134.540085 211.905889 134.540085 205.099424 140.652013 205.099424 149.449485 205.099424 156.857883 209.405555 161.580737 219.406892 164.081071L224.731678 165.423843C229.639741 166.67401 230.612093 167.646362 230.612093 169.591067 230.612093 171.906191 228.389574 173.341568 223.527813 173.341568 219.082774 173.341568 215.610088 171.350561 212.878241 167.738967L202.691695 175.147365C207.553456 181.722318 214.452526 184.454165 223.249998 184.454165zM263.533161 184.037442C270.154416 184.037442 275.016177 181.907528 277.979536 177.092069L278.349956 177.092069 279.229703 183.2503 290.295997 183.2503 290.295997 155.700321C290.295997 142.318903 283.396927 134.678993 269.552484 134.678993 261.218036 134.678993 254.504176 138.475796 250.10544 144.356212L259.643752 151.440492C261.912574 148.245621 264.922235 146.300916 269.182064 146.300916 274.229035 146.300916 276.868277 148.986461 276.868277 153.292592L276.868277 154.589061 264.45921 154.589061C253.717034 154.589061 247.280988 160.33057 247.280988 169.313252 247.280988 178.203329 253.531824 184.037442 263.533161 184.037442zM266.218705 173.387871C262.514506 173.387871 260.477197 171.674679 260.477197 168.665017 260.477197 165.74796 262.514506 164.034768 266.265007 164.034768L276.868277 164.034768 276.868277 164.219978C276.868277 169.729974 272.608448 173.387871 266.218705 173.387871zM311.456233 129.354207L311.456233 115.926486 296.824648 115.926486 296.824648 129.354207 311.456233 129.354207zM311.039511 183.2503L311.039511 135.836555 297.24137 135.836555 297.24137 183.2503 311.039511 183.2503zM342.062176 184.73198C350.628136 184.73198 357.619811 181.305596 362.203758 174.545433L352.156118 166.905523C349.609481 170.563419 346.646122 172.276611 342.062176 172.276611 335.255711 172.276611 330.625462 167.368547 330.625462 159.636032 330.625462 151.857215 335.302013 146.856546 342.062176 146.856546 346.59982 146.856546 349.563179 148.662343 352.109816 152.273937L362.203758 144.587725C357.619811 137.873864 350.628136 134.401178 342.339991 134.401178 327.199078 134.401178 316.781019 144.958144 316.781019 159.682335 316.781019 174.221315 327.152776 184.73198 342.062176 184.73198zM384.104833 184.454165C396.976924 184.454165 404.894649 178.573749 404.894649 168.572412 404.894649 161.071409 400.542216 156.672673 390.077854 154.126037L384.753068 152.829567C380.400634 151.76461 379.243072 150.83856 379.243072 148.847553 379.243072 146.717639 381.095172 145.513774 384.799371 145.513774 388.549872 145.513774 391.698441 147.180664 393.828355 150.329233L403.366667 143.291255C399.245746 137.503444 393.041213 134.540085 384.660463 134.540085 372.760724 134.540085 365.954259 140.652013 365.954259 149.449485 365.954259 156.857883 370.26039 161.580737 380.261727 164.081071L385.586513 165.423843C390.494576 166.67401 391.466928 167.646362 391.466928 169.591067 391.466928 171.906191 389.244409 173.341568 384.382648 173.341568 379.93761 173.341568 376.464923 171.350561 373.733076 167.738967L363.54653 175.147365C368.408291 181.722318 375.307361 184.454165 384.104833 184.454165zM445.501929 183.2503L445.501929 155.700321C445.501929 149.171671 448.789406 146.300916 453.790074 146.300916 458.698138 146.300916 462.124522 149.171671 462.124522 155.700321L462.124522 183.2503 475.922662 183.2503 475.922662 155.005784C475.922662 141.994785 469.162499 134.586388 458.142508 134.586388 452.632512 134.586388 448.465288 136.48479 445.872349 139.957476L445.501929 139.957476 445.501929 115.926486 431.703788 115.926486 431.703788 183.2503 445.501929 183.2503zM497.221806 184.037442C503.843061 184.037442 508.704822 181.907528 511.668181 177.092069L512.038601 177.092069 512.918348 183.2503 523.984642 183.2503 523.984642 155.700321C523.984642 142.318903 517.085572 134.678993 503.241129 134.678993 494.906681 134.678993 488.192821 138.475796 483.794085 144.356212L493.332397 151.440492C495.601219 148.245621 498.61088 146.300916 502.870709 146.300916 507.91768 146.300916 510.556921 148.986461 510.556921 153.292592L510.556921 154.589061 498.147855 154.589061C487.405679 154.589061 480.969633 160.33057 480.969633 169.313252 480.969633 178.203329 487.220469 184.037442 497.221806 184.037442zM499.90735 173.387871C496.203151 173.387871 494.165842 171.674679 494.165842 168.665017 494.165842 165.74796 496.203151 164.034768 499.953652 164.034768L510.556921 164.034768 510.556921 164.219978C510.556921 169.729974 506.297093 173.387871 499.90735 173.387871zM554.914703 183.2503L574.454352 135.836555 560.054279 135.836555 549.728824 163.803256 549.451009 163.803256 539.357068 135.836555 524.12355 135.836555 543.663199 183.2503 554.914703 183.2503zM597.837107 184.824585C606.588277 184.824585 613.579952 181.444503 617.886083 175.378877L608.023654 168.063085C605.893739 171.304259 602.55996 173.156358 597.837107 173.156358 592.049296 173.156358 588.159887 169.822579 587.187535 164.127373L621.127257 164.127373C622.886752 146.254614 613.533649 134.215968 597.512989 134.215968 582.835102 134.215968 573.018975 144.772934 573.018975 159.636032 573.018975 174.49913 582.835102 184.824585 597.837107 184.824585zM607.560629 154.450154L587.326443 154.450154C588.3914 148.986461 591.910389 145.930497 597.512989 145.930497 603.3008 145.930497 606.819789 149.079066 607.560629 154.450154zM663.123612 184.037442C669.744867 184.037442 674.606628 181.907528 677.569987 177.092069L677.940407 177.092069 678.820154 183.2503 689.886448 183.2503 689.886448 155.700321C689.886448 142.318903 682.987378 134.678993 669.142935 134.678993 660.808487 134.678993 654.094627 138.475796 649.695891 144.356212L659.234203 151.440492C661.503025 148.245621 664.512686 146.300916 668.772515 146.300916 673.819486 146.300916 676.458727 148.986461 676.458727 153.292592L676.458727 154.589061 664.049661 154.589061C653.307485 154.589061 646.871439 160.33057 646.871439 169.313252 646.871439 178.203329 653.122275 184.037442 663.123612 184.037442zM665.809156 173.387871C662.104957 173.387871 660.067648 171.674679 660.067648 168.665017 660.067648 165.74796 662.104957 164.034768 665.855458 164.034768L676.458727 164.034768 676.458727 164.219978C676.458727 169.729974 672.198899 173.387871 665.809156 173.387871zM742.393467 184.73198C750.959427 184.73198 757.951102 181.305596 762.535048 174.545433L752.487409 166.905523C749.940772 170.563419 746.977413 172.276611 742.393467 172.276611 735.587002 172.276611 730.956753 167.368547 730.956753 159.636032 730.956753 151.857215 735.633304 146.856546 742.393467 146.856546 746.931111 146.856546 749.89447 148.662343 752.441106 152.273937L762.535048 144.587725C757.951102 137.873864 750.959427 134.401178 742.671282 134.401178 727.530369 134.401178 717.11231 144.958144 717.11231 159.682335 717.11231 174.221315 727.484067 184.73198 742.393467 184.73198zM788.603348 184.824585C797.354517 184.824585 804.346193 181.444503 808.652324 175.378877L798.789894 168.063085C796.65998 171.304259 793.326201 173.156358 788.603348 173.156358 782.815537 173.156358 778.926128 169.822579 777.953776 164.127373L811.893498 164.127373C813.652992 146.254614 804.29989 134.215968 788.27923 134.215968 773.601342 134.215968 763.785215 144.772934 763.785215 159.636032 763.785215 174.49913 773.601342 184.824585 788.603348 184.824585zM798.32687 154.450154L778.092683 154.450154C779.157641 148.986461 782.676629 145.930497 788.27923 145.930497 794.067041 145.930497 797.58603 149.079066 798.32687 154.450154zM831.479449 183.2503L831.479449 158.10805C831.479449 151.486795 834.628018 148.801251 840.369527 148.801251L844.490448 148.801251 844.490448 135.836555 840.601039 135.836555C835.692976 135.836555 831.988777 138.059074 829.951467 143.75428L829.719955 143.75428 828.654998 135.836555 817.681309 135.836555 817.681309 183.2503 831.479449 183.2503zM878.383867 183.2503L878.383867 170.517116 872.734964 170.517116C869.910512 170.517116 868.799253 169.174344 868.799253 166.30359L868.799253 148.801251 878.383867 148.801251 878.383867 135.836555 868.799253 135.836555 868.799253 122.918161 855.047415 125.464798 855.047415 135.836555 848.472462 135.836555 848.472462 148.801251 855.047415 148.801251 855.047415 167.368547C855.047415 178.388539 860.3722 183.2503 870.512445 183.2503L878.383867 183.2503zM898.664356 184.037442C905.285611 184.037442 910.147372 181.907528 913.110731 177.092069L913.481151 177.092069 914.360899 183.2503 925.427193 183.2503 925.427193 155.700321C925.427193 142.318903 918.528122 134.678993 904.683679 134.678993 896.349232 134.678993 889.635371 138.475796 885.236635 144.356212L894.774947 151.440492C897.043769 148.245621 900.053431 146.300916 904.313259 146.300916 909.36023 146.300916 911.999472 148.986461 911.999472 153.292592L911.999472 154.589061 899.590406 154.589061C888.848229 154.589061 882.412184 160.33057 882.412184 169.313252 882.412184 178.203329 888.663019 184.037442 898.664356 184.037442zM901.3499 173.387871C897.645701 173.387871 895.608392 171.674679 895.608392 168.665017 895.608392 165.74796 897.645701 164.034768 901.396203 164.034768L911.999472 164.034768 911.999472 164.219978C911.999472 169.729974 907.739643 173.387871 901.3499 173.387871zM946.587429 129.354207L946.587429 115.926486 931.955843 115.926486 931.955843 129.354207 946.587429 129.354207zM946.170706 183.2503L946.170706 135.836555 932.372566 135.836555 932.372566 183.2503 946.170706 183.2503zM967.09943 183.2503L967.09943 155.700321C967.09943 149.171671 970.294301 146.300916 975.387575 146.300916 980.527151 146.300916 983.722022 149.171671 983.722022 155.700321L983.722022 183.2503 997.520163 183.2503 997.520163 155.144691C997.520163 142.041088 990.852605 134.540085 979.415891 134.540085 972.748333 134.540085 968.118084 137.318234 965.525145 141.53176L965.201028 141.53176 964.413886 135.836555 953.301289 135.836555 953.301289 183.2503 967.09943 183.2503zM1043.49853 184.454165C1056.37062 184.454165 1064.28835 178.573749 1064.28835 168.572412 1064.28835 161.071409 1059.93591 156.672673 1049.47155 154.126037L1044.14677 152.829567C1039.79433 151.76461 1038.63677 150.83856 1038.63677 148.847553 1038.63677 146.717639 1040.48887 145.513774 1044.19307 145.513774 1047.94357 145.513774 1051.09214 147.180664 1053.22205 150.329233L1062.76037 143.291255C1058.63944 137.503444 1052.43491 134.540085 1044.05416 134.540085 1032.15442 134.540085 1025.34796 140.652013 1025.34796 149.449485 1025.34796 156.857883 1029.65409 161.580737 1039.65542 164.081071L1044.98021 165.423843C1049.88827 166.67401 1050.86063 167.646362 1050.86063 169.591067 1050.86063 171.906191 1048.63811 173.341568 1043.77635 173.341568 1039.33131 173.341568 1035.85862 171.350561 1033.12677 167.738967L1022.94023 175.147365C1027.80199 181.722318 1034.70106 184.454165 1043.49853 184.454165zM1092.53286 184.824585C1101.28403 184.824585 1108.27571 181.444503 1112.58184 175.378877L1102.71941 168.063085C1100.5895 171.304259 1097.25572 173.156358 1092.53286 173.156358 1086.74505 173.156358 1082.85564 169.822579 1081.88329 164.127373L1115.82301 164.127373C1117.58251 146.254614 1108.22941 134.215968 1092.20875 134.215968 1077.53086 134.215968 1067.71473 144.772934 1067.71473 159.636032 1067.71473 174.49913 1077.53086 184.824585 1092.53286 184.824585zM1102.25639 154.450154L1082.0222 154.450154C1083.08716 148.986461 1086.60615 145.930497 1092.20875 145.930497 1097.99656 145.930497 1101.51555 149.079066 1102.25639 154.450154zM1135.40896 183.2503L1135.40896 155.700321C1135.40896 149.171671 1138.60384 146.300916 1143.69711 146.300916 1148.83669 146.300916 1152.03156 149.171671 1152.03156 155.700321L1152.03156 183.2503 1165.8297 183.2503 1165.8297 155.144691C1165.8297 142.041088 1159.16214 134.540085 1147.72543 134.540085 1141.05787 134.540085 1136.42762 137.318234 1133.83468 141.53176L1133.51056 141.53176 1132.72342 135.836555 1121.61082 135.836555 1121.61082 183.2503 1135.40896 183.2503zM1190.0459 184.454165C1202.91799 184.454165 1210.83571 178.573749 1210.83571 168.572412 1210.83571 161.071409 1206.48328 156.672673 1196.01892 154.126037L1190.69413 152.829567C1186.3417 151.76461 1185.18414 150.83856 1185.18414 148.847553 1185.18414 146.717639 1187.03624 145.513774 1190.74044 145.513774 1194.49094 145.513774 1197.63951 147.180664 1199.76942 150.329233L1209.30773 143.291255C1205.18681 137.503444 1198.98228 134.540085 1190.60153 134.540085 1178.70179 134.540085 1171.89532 140.652013 1171.89532 149.449485 1171.89532 156.857883 1176.20145 161.580737 1186.20279 164.081071L1191.52758 165.423843C1196.43564 166.67401 1197.40799 167.646362 1197.40799 169.591067 1197.40799 171.906191 1195.18547 173.341568 1190.32371 173.341568 1185.87867 173.341568 1182.40599 171.350561 1179.67414 167.738967L1169.48759 175.147365C1174.34936 181.722318 1181.24843 184.454165 1190.0459 184.454165zM1239.08023 184.824585C1247.8314 184.824585 1254.82308 181.444503 1259.12921 175.378877L1249.26678 168.063085C1247.13686 171.304259 1243.80308 173.156358 1239.08023 173.156358 1233.29242 173.156358 1229.40301 169.822579 1228.43066 164.127373L1262.37038 164.127373C1264.12988 146.254614 1254.77677 134.215968 1238.75611 134.215968 1224.07822 134.215968 1214.2621 144.772934 1214.2621 159.636032 1214.2621 174.49913 1224.07822 184.824585 1239.08023 184.824585zM1248.80375 154.450154L1228.56957 154.450154C1229.63452 148.986461 1233.15351 145.930497 1238.75611 145.930497 1244.54392 145.930497 1248.06291 149.079066 1248.80375 154.450154zM1314.09026 184.73198C1329.04596 184.73198 1339.64923 173.9435 1339.64923 159.58973 1339.64923 145.189657 1328.99966 134.354875 1314.09026 134.354875 1299.18086 134.354875 1288.53128 145.189657 1288.53128 159.58973 1288.53128 173.9435 1299.13455 184.73198 1314.09026 184.73198zM1314.09026 172.137703C1307.09858 172.137703 1302.42203 166.998128 1302.42203 159.58973 1302.42203 152.13503 1307.09858 146.902849 1314.09026 146.902849 1321.03563 146.902849 1325.75848 152.13503 1325.75848 159.58973 1325.75848 166.998128 1321.08193 172.137703 1314.09026 172.137703zM1361.04098 183.2503L1361.04098 148.801251 1367.70854 148.801251 1367.70854 135.836555 1361.04098 135.836555 1361.04098 131.252609C1361.04098 129.678324 1361.78182 128.891182 1363.21719 128.891182L1367.80114 128.891182 1367.80114 115.926486 1361.82812 115.926486C1352.93804 115.926486 1347.24284 121.204969 1347.24284 130.650676L1347.24284 135.836555 1341.96435 135.836555 1341.96435 148.801251 1347.24284 148.801251 1347.24284 183.2503 1361.04098 183.2503zM1412.76085 184.454165C1425.63294 184.454165 1433.55067 178.573749 1433.55067 168.572412 1433.55067 161.071409 1429.19824 156.672673 1418.73387 154.126037L1413.40909 152.829567C1409.05666 151.76461 1407.89909 150.83856 1407.89909 148.847553 1407.89909 146.717639 1409.75119 145.513774 1413.45539 145.513774 1417.20589 145.513774 1420.35446 147.180664 1422.48438 150.329233L1432.02269 143.291255C1427.90177 137.503444 1421.69723 134.540085 1413.31648 134.540085 1401.41674 134.540085 1394.61028 140.652013 1394.61028 149.449485 1394.61028 156.857883 1398.91641 161.580737 1408.91775 164.081071L1414.24253 165.423843C1419.1506 166.67401 1420.12295 167.646362 1420.12295 169.591067 1420.12295 171.906191 1417.90043 173.341568 1413.03867 173.341568 1408.59363 173.341568 1405.12094 171.350561 1402.3891 167.738967L1392.20255 175.147365C1397.06431 181.722318 1403.96338 184.454165 1412.76085 184.454165zM1452.39578 183.2503L1452.39578 155.700321C1452.39578 149.171671 1455.68326 146.300916 1460.68393 146.300916 1465.59199 146.300916 1469.01837 149.171671 1469.01837 155.700321L1469.01837 183.2503 1482.81651 183.2503 1482.81651 155.005784C1482.81651 141.994785 1476.05635 134.586388 1465.03636 134.586388 1459.52636 134.586388 1455.35914 136.48479 1452.7662 139.957476L1452.39578 139.957476 1452.39578 115.926486 1438.59764 115.926486 1438.59764 183.2503 1452.39578 183.2503zM1504.11566 184.037442C1510.73691 184.037442 1515.59867 181.907528 1518.56203 177.092069L1518.93245 177.092069 1519.8122 183.2503 1530.87849 183.2503 1530.87849 155.700321C1530.87849 142.318903 1523.97942 134.678993 1510.13498 134.678993 1501.80053 134.678993 1495.08667 138.475796 1490.68794 144.356212L1500.22625 151.440492C1502.49507 148.245621 1505.50473 146.300916 1509.76456 146.300916 1514.81153 146.300916 1517.45077 148.986461 1517.45077 153.292592L1517.45077 154.589061 1505.04171 154.589061C1494.29953 154.589061 1487.86349 160.33057 1487.86349 169.313252 1487.86349 178.203329 1494.11432 184.037442 1504.11566 184.037442zM1506.8012 173.387871C1503.097 173.387871 1501.05969 171.674679 1501.05969 168.665017 1501.05969 165.74796 1503.097 164.034768 1506.8475 164.034768L1517.45077 164.034768 1517.45077 164.219978C1517.45077 169.729974 1513.19095 173.387871 1506.8012 173.387871zM1551.5294 183.2503L1551.5294 158.10805C1551.5294 151.486795 1554.67797 148.801251 1560.41948 148.801251L1564.5404 148.801251 1564.5404 135.836555 1560.65099 135.836555C1555.74293 135.836555 1552.03873 138.059074 1550.00142 143.75428L1549.76991 143.75428 1548.70495 135.836555 1537.73126 135.836555 1537.73126 183.2503 1551.5294 183.2503zM1584.12635 199.733985L1584.12635 178.573749 1584.45047 178.573749C1587.83055 182.277948 1591.71996 184.083745 1598.0171 184.083745 1610.14835 184.083745 1619.82557 175.42518 1619.82557 159.543427 1619.82557 143.661675 1610.05575 134.8179 1598.1097 134.8179 1591.11803 134.8179 1586.20997 137.734957 1583.38551 142.318903L1583.1077 142.318903 1582.18165 135.836555 1570.37451 135.836555 1570.37451 199.733985 1584.12635 199.733985zM1594.86853 172.184006C1588.52509 172.184006 1583.98745 167.738967 1583.98745 159.543427 1583.98745 151.440492 1588.7566 146.763941 1594.91483 146.763941 1601.11937 146.763941 1605.61071 151.5794 1605.61071 159.497125 1605.61071 167.368547 1601.21197 172.184006 1594.86853 172.184006zM1639.36522 183.2503L1639.36522 155.700321C1639.36522 149.171671 1642.56009 146.300916 1647.65336 146.300916 1652.79294 146.300916 1655.98781 149.171671 1655.98781 155.700321L1655.98781 183.2503 1669.78595 183.2503 1669.78595 155.144691C1669.78595 142.041088 1663.11839 134.540085 1651.68168 134.540085 1645.01412 134.540085 1640.38387 137.318234 1637.79093 141.53176L1637.46682 141.53176 1636.67967 135.836555 1625.56708 135.836555 1625.56708 183.2503 1639.36522 183.2503zM1700.06778 184.824585C1708.81895 184.824585 1715.81062 181.444503 1720.11675 175.378877L1710.25432 168.063085C1708.12441 171.304259 1704.79063 173.156358 1700.06778 173.156358 1694.27997 173.156358 1690.39056 169.822579 1689.41821 164.127373L1723.35793 164.127373C1725.11742 146.254614 1715.76432 134.215968 1699.74366 134.215968 1685.06577 134.215968 1675.24964 144.772934 1675.24964 159.636032 1675.24964 174.49913 1685.06577 184.824585 1700.06778 184.824585zM1709.7913 154.450154L1689.55711 154.450154C1690.62207 148.986461 1694.14106 145.930497 1699.74366 145.930497 1705.53147 145.930497 1709.05046 149.079066 1709.7913 154.450154zM1745.62942 184.454165C1758.50151 184.454165 1766.41924 178.573749 1766.41924 168.572412 1766.41924 161.071409 1762.06681 156.672673 1751.60244 154.126037L1746.27766 152.829567C1741.92522 151.76461 1740.76766 150.83856 1740.76766 148.847553 1740.76766 146.717639 1742.61976 145.513774 1746.32396 145.513774 1750.07446 145.513774 1753.22303 147.180664 1755.35295 150.329233L1764.89126 143.291255C1760.77034 137.503444 1754.5658 134.540085 1746.18505 134.540085 1734.28531 134.540085 1727.47885 140.652013 1727.47885 149.449485 1727.47885 156.857883 1731.78498 161.580737 1741.78632 164.081071L1747.1111 165.423843C1752.01917 166.67401 1752.99152 167.646362 1752.99152 169.591067 1752.99152 171.906191 1750.769 173.341568 1745.90724 173.341568 1741.4622 173.341568 1737.98951 171.350561 1735.25767 167.738967L1725.07112 175.147365C1729.93288 181.722318 1736.83195 184.454165 1745.62942 184.454165zM1788.92225 184.454165C1801.79434 184.454165 1809.71206 178.573749 1809.71206 168.572412 1809.71206 161.071409 1805.35963 156.672673 1794.89527 154.126037L1789.57048 152.829567C1785.21805 151.76461 1784.06049 150.83856 1784.06049 148.847553 1784.06049 146.717639 1785.91259 145.513774 1789.61678 145.513774 1793.36729 145.513774 1796.51585 147.180664 1798.64577 150.329233L1808.18408 143.291255C1804.06316 137.503444 1797.85863 134.540085 1789.47788 134.540085 1777.57814 134.540085 1770.77167 140.652013 1770.77167 149.449485 1770.77167 156.857883 1775.0778 161.580737 1785.07914 164.081071L1790.40393 165.423843C1795.31199 166.67401 1796.28434 167.646362 1796.28434 169.591067 1796.28434 171.906191 1794.06182 173.341568 1789.20006 173.341568 1784.75502 173.341568 1781.28234 171.350561 1778.55049 167.738967L1768.36394 175.147365C1773.2257 181.722318 1780.12477 184.454165 1788.92225 184.454165zM82.577899 333.446958L82.577899 317.379996 82.9946214 317.379996 90.3104141 333.446958 95.0101164 333.446958 102.325909 317.379996 102.742632 317.379996 102.742632 333.446958 109.734307 333.446958 109.734307 299.785051 103.46032 299.785051 92.9959583 322.519572 92.6255384 322.519572 81.9296642 299.785051 75.5630725 299.785051 75.5630725 333.446958 82.577899 333.446958zM126.912529 334.141496C134.459834 334.141496 139.668864 328.839861 139.668864 321.315707 139.668864 313.768402 134.459834 308.466767 126.912529 308.466767 119.365224 308.466767 114.133043 313.768402 114.133043 321.315707 114.133043 328.839861 119.342073 334.141496 126.912529 334.141496zM126.912529 327.960114C123.324086 327.960114 121.101567 325.436628 121.101567 321.315707 121.101567 317.194786 123.300935 314.624998 126.912529 314.624998 130.500972 314.624998 132.723491 317.194786 132.723491 321.315707 132.723491 325.436628 130.47782 327.960114 126.912529 327.960114zM151.684359 334.048891C158.328766 334.048891 162.310779 330.992927 162.310779 325.969107 162.310779 322.241757 160.27347 319.949784 154.902382 318.653314L152.07793 317.958777C149.554444 317.333693 149.021966 316.847517 149.021966 315.828863 149.021966 314.624998 150.040621 313.837856 152.101081 313.837856 154.138391 313.837856 155.596919 314.717603 156.754481 316.291887L161.361578 312.772898C159.324269 310.133657 156.36091 308.536221 152.07793 308.536221 146.197514 308.536221 142.655374 311.68479 142.655374 316.106677 142.655374 319.996086 144.901045 322.264908 149.901713 323.515075L152.679862 324.209612C155.342255 324.880998 155.851583 325.390326 155.851583 326.432132 155.851583 327.821206 154.462508 328.700954 151.915871 328.700954 149.346083 328.700954 147.632891 327.659148 146.151212 325.575536L141.243148 329.279735C143.558273 332.613514 147.100413 334.048891 151.684359 334.048891zM172.9372 333.863681C176.270979 333.863681 178.794464 332.636665 180.067783 329.858516L180.57711 329.858516 181.063286 333.446958 186.619584 333.446958 186.619584 319.023734C186.619584 312.263571 183.146898 308.582524 176.270979 308.582524 171.964848 308.582524 168.492161 310.272564 166.038129 313.189621L170.668378 316.963273C172.034301 315.203779 173.654888 314.208276 176.062618 314.208276 178.655557 314.208276 179.882573 315.551048 179.882573 318.097684L179.882573 319.046885 173.840098 319.046885C168.214346 319.046885 164.92687 321.987093 164.92687 326.385829 164.92687 330.946624 168.029136 333.863681 172.9372 333.863681zM174.673543 328.700954C172.636234 328.700954 171.571276 327.659148 171.571276 326.015409 171.571276 324.417974 172.589931 323.399319 174.604089 323.399319L179.882573 323.399319 179.882573 323.79289C179.882573 326.802552 177.845263 328.700954 174.673543 328.700954zM198.936045 305.989584L198.936045 299.183119 191.342438 299.183119 191.342438 305.989584 198.936045 305.989584zM198.611928 333.446958L198.611928 309.184456 191.689706 309.184456 191.689706 333.446958 198.611928 333.446958zM215.118764 334.141496C219.494349 334.141496 222.828128 332.567211 225.235857 328.886163L220.096281 325.228267C218.938719 327.14982 217.364435 327.960114 215.141915 327.960114 211.576624 327.960114 209.608768 325.320872 209.608768 321.338858 209.608768 317.333693 211.599775 314.648149 215.141915 314.648149 217.294981 314.648149 218.892417 315.527896 220.07313 317.379996L225.235857 313.791553C222.804977 310.064203 219.471198 308.466767 215.188218 308.466767 207.59461 308.466767 202.663395 313.814704 202.663395 321.338858 202.663395 328.839861 207.59461 334.141496 215.118764 334.141496zM237.042991 334.048891C243.687398 334.048891 247.669412 330.992927 247.669412 325.969107 247.669412 322.241757 245.632102 319.949784 240.261014 318.653314L237.436562 317.958777C234.913077 317.333693 234.380598 316.847517 234.380598 315.828863 234.380598 314.624998 235.399253 313.837856 237.459713 313.837856 239.497023 313.837856 240.955551 314.717603 242.113113 316.291887L246.720211 312.772898C244.682901 310.133657 241.719542 308.536221 237.436562 308.536221 231.556147 308.536221 228.014006 311.68479 228.014006 316.106677 228.014006 319.996086 230.259677 322.264908 235.260345 323.515075L238.038495 324.209612C240.700887 324.880998 241.210215 325.390326 241.210215 326.432132 241.210215 327.821206 239.82114 328.700954 237.274504 328.700954 234.704716 328.700954 232.991524 327.659148 231.509844 325.575536L226.601781 329.279735C228.916905 332.613514 232.459045 334.048891 237.042991 334.048891zM270.635444 333.446958L270.635444 318.884827C270.635444 315.759409 272.186578 314.30088 274.825819 314.30088 277.44191 314.30088 278.993043 315.759409 278.993043 318.884827L278.993043 333.446958 285.915265 333.446958 285.915265 318.514407C285.915265 312.101512 282.674091 308.536221 277.44191 308.536221 274.455399 308.536221 272.325485 309.855842 271.098469 311.985756L270.635444 311.985756 270.635444 299.183119 263.713223 299.183119 263.713223 333.446958 270.635444 333.446958zM297.676096 333.863681C301.009875 333.863681 303.53336 332.636665 304.806679 329.858516L305.316006 329.858516 305.802182 333.446958 311.358481 333.446958 311.358481 319.023734C311.358481 312.263571 307.885794 308.582524 301.009875 308.582524 296.703744 308.582524 293.231057 310.272564 290.777026 313.189621L295.407274 316.963273C296.773198 315.203779 298.393785 314.208276 300.801514 314.208276 303.394453 314.208276 304.621469 315.551048 304.621469 318.097684L304.621469 319.046885 298.578994 319.046885C292.953242 319.046885 289.665766 321.987093 289.665766 326.385829 289.665766 330.946624 292.768033 333.863681 297.676096 333.863681zM299.412439 328.700954C297.37513 328.700954 296.310173 327.659148 296.310173 326.015409 296.310173 324.417974 297.328827 323.399319 299.342985 323.399319L304.621469 323.399319 304.621469 323.79289C304.621469 326.802552 302.584159 328.700954 299.412439 328.700954zM328.212585 333.446958L338.121317 309.184456 330.759222 309.184456 325.897461 323.885495 325.341831 323.885495 320.572675 309.184456 312.863311 309.184456 322.725741 333.446958 328.212585 333.446958zM351.433282 334.257252C355.808867 334.257252 359.142646 332.775572 361.527224 329.997423L357.128488 325.992258C355.762564 327.612845 353.979919 328.515744 351.456433 328.515744 348.122654 328.515744 346.224252 326.709947 345.80753 323.538226L362.962601 323.538226C363.934953 314.393485 359.351007 308.351011 351.109164 308.351011 343.492406 308.351011 338.769552 313.722099 338.769552 321.36201 338.769552 329.00192 343.399801 334.257252 351.433282 334.257252zM356.225589 318.931129L345.853832 318.931129C346.340008 315.805711 348.23841 314.069368 351.109164 314.069368 354.095675 314.069368 355.924623 315.805711 356.225589 318.931129zM386.113844 333.863681C389.447623 333.863681 391.971108 332.636665 393.244426 329.858516L393.753754 329.858516 394.23993 333.446958 399.796228 333.446958 399.796228 319.023734C399.796228 312.263571 396.323542 308.582524 389.447623 308.582524 385.141491 308.582524 381.668805 310.272564 379.214773 313.189621L383.845022 316.963273C385.210945 315.203779 386.831532 314.208276 389.239261 314.208276 391.832201 314.208276 393.059216 315.551048 393.059216 318.097684L393.059216 319.046885 387.016742 319.046885C381.39099 319.046885 378.103514 321.987093 378.103514 326.385829 378.103514 330.946624 381.20578 333.863681 386.113844 333.863681zM387.850187 328.700954C385.812877 328.700954 384.74792 327.659148 384.74792 326.015409 384.74792 324.417974 385.766575 323.399319 387.780733 323.399319L393.059216 323.399319 393.059216 323.79289C393.059216 326.802552 391.021907 328.700954 387.850187 328.700954zM428.318559 334.141496C432.694144 334.141496 436.027923 332.567211 438.435652 328.886163L433.296076 325.228267C432.138514 327.14982 430.56423 327.960114 428.34171 327.960114 424.776419 327.960114 422.808563 325.320872 422.808563 321.338858 422.808563 317.333693 424.79957 314.648149 428.34171 314.648149 430.494776 314.648149 432.092212 315.527896 433.272925 317.379996L438.435652 313.791553C436.004772 310.064203 432.670993 308.466767 428.388013 308.466767 420.794405 308.466767 415.863191 313.814704 415.863191 321.338858 415.863191 328.839861 420.794405 334.141496 428.318559 334.141496zM452.951482 334.257252C457.327066 334.257252 460.660845 332.775572 463.045423 329.997423L458.646687 325.992258C457.280764 327.612845 455.498118 328.515744 452.974633 328.515744 449.640854 328.515744 447.742452 326.709947 447.32573 323.538226L464.4808 323.538226C465.453153 314.393485 460.869207 308.351011 452.627364 308.351011 445.010605 308.351011 440.287752 313.722099 440.287752 321.36201 440.287752 329.00192 444.918 334.257252 452.951482 334.257252zM457.743789 318.931129L447.372032 318.931129C447.858208 315.805711 449.75661 314.069368 452.627364 314.069368 455.613874 314.069368 457.442823 315.805711 457.743789 318.931129zM475.477641 333.446958L475.477641 320.62117C475.477641 317.241088 477.028774 315.875165 479.992133 315.875165L482.469316 315.875165 482.469316 308.952943 480.339402 308.952943C477.746463 308.952943 475.848061 310.226262 475.014616 313.606343L474.505289 313.606343 473.995961 309.184456 468.555419 309.184456 468.555419 333.446958 475.477641 333.446958zM500.735647 333.446958L500.735647 327.196123 496.452667 327.196123C495.665525 327.196123 495.341407 326.825703 495.341407 326.015409L495.341407 315.41214 500.735647 315.41214 500.735647 309.184456 495.341407 309.184456 495.341407 302.586352 488.442337 303.743914 488.442337 309.184456 484.853894 309.184456 484.853894 315.41214 488.442337 315.41214 488.442337 326.316376C488.442337 331.24759 490.942671 333.446958 495.619222 333.446958L500.735647 333.446958zM511.871395 333.863681C515.205173 333.863681 517.728659 332.636665 519.001977 329.858516L519.511305 329.858516 519.997481 333.446958 525.553779 333.446958 525.553779 319.023734C525.553779 312.263571 522.081093 308.582524 515.205173 308.582524 510.899042 308.582524 507.426356 310.272564 504.972324 313.189621L509.602573 316.963273C510.968496 315.203779 512.589083 314.208276 514.996812 314.208276 517.589751 314.208276 518.816767 315.551048 518.816767 318.097684L518.816767 319.046885 512.774293 319.046885C507.148541 319.046885 503.861064 321.987093 503.861064 326.385829 503.861064 330.946624 506.963331 333.863681 511.871395 333.863681zM513.607738 328.700954C511.570428 328.700954 510.505471 327.659148 510.505471 326.015409 510.505471 324.417974 511.524126 323.399319 513.538284 323.399319L518.816767 323.399319 518.816767 323.79289C518.816767 326.802552 516.779458 328.700954 513.607738 328.700954zM537.87024 305.989584L537.87024 299.183119 530.276633 299.183119 530.276633 305.989584 537.87024 305.989584zM537.546123 333.446958L537.546123 309.184456 530.623901 309.184456 530.623901 333.446958 537.546123 333.446958zM549.654223 333.446958L549.654223 318.977432C549.654223 315.852014 551.182205 314.393485 553.844598 314.393485 556.506991 314.393485 558.011821 315.852014 558.011821 318.977432L558.011821 333.446958 564.934043 333.446958 564.934043 318.653314C564.934043 312.194117 561.71602 308.605675 556.206024 308.605675 552.756489 308.605675 550.510819 310.156808 549.214349 312.61084L548.751324 312.61084 548.404056 309.184456 542.732001 309.184456 542.732001 333.446958 549.654223 333.446958zM590.493015 334.048891C597.137422 334.048891 601.119436 330.992927 601.119436 325.969107 601.119436 322.241757 599.082126 319.949784 593.711038 318.653314L590.886586 317.958777C588.363101 317.333693 587.830622 316.847517 587.830622 315.828863 587.830622 314.624998 588.849277 313.837856 590.909737 313.837856 592.947047 313.837856 594.405575 314.717603 595.563137 316.291887L600.170235 312.772898C598.132925 310.133657 595.169566 308.536221 590.886586 308.536221 585.006171 308.536221 581.46403 311.68479 581.46403 316.106677 581.46403 319.996086 583.709701 322.264908 588.710369 323.515075L591.488519 324.209612C594.150911 324.880998 594.660239 325.390326 594.660239 326.432132 594.660239 327.821206 593.271164 328.700954 590.724528 328.700954 588.15474 328.700954 586.441548 327.659148 584.959868 325.575536L580.051805 329.279735C582.366929 332.613514 585.909069 334.048891 590.493015 334.048891zM616.445558 334.257252C620.821143 334.257252 624.154922 332.775572 626.5395 329.997423L622.140764 325.992258C620.774841 327.612845 618.992195 328.515744 616.46871 328.515744 613.134931 328.515744 611.236529 326.709947 610.819806 323.538226L627.974877 323.538226C628.947229 314.393485 624.363283 308.351011 616.121441 308.351011 608.504682 308.351011 603.781828 313.722099 603.781828 321.36201 603.781828 329.00192 608.412077 334.257252 616.445558 334.257252zM621.237866 318.931129L610.866109 318.931129C611.352285 315.805711 613.250687 314.069368 616.121441 314.069368 619.107951 314.069368 620.936899 315.805711 621.237866 318.931129zM638.971718 333.446958L638.971718 318.977432C638.971718 315.852014 640.4997 314.393485 643.162092 314.393485 645.824485 314.393485 647.329316 315.852014 647.329316 318.977432L647.329316 333.446958 654.251538 333.446958 654.251538 318.653314C654.251538 312.194117 651.033515 308.605675 645.523519 308.605675 642.073984 308.605675 639.828314 310.156808 638.531844 312.61084L638.068819 312.61084 637.72155 309.184456 632.049496 309.184456 632.049496 333.446958 638.971718 333.446958zM667.563502 334.048891C674.207909 334.048891 678.189923 330.992927 678.189923 325.969107 678.189923 322.241757 676.152614 319.949784 670.781525 318.653314L667.957074 317.958777C665.433588 317.333693 664.901109 316.847517 664.901109 315.828863 664.901109 314.624998 665.919764 313.837856 667.980225 313.837856 670.017534 313.837856 671.476062 314.717603 672.633625 316.291887L677.240722 312.772898C675.203413 310.133657 672.240053 308.536221 667.957074 308.536221 662.076658 308.536221 658.534518 311.68479 658.534518 316.106677 658.534518 319.996086 660.780188 322.264908 665.780857 323.515075L668.559006 324.209612C671.221399 324.880998 671.730726 325.390326 671.730726 326.432132 671.730726 327.821206 670.341652 328.700954 667.795015 328.700954 665.225227 328.700954 663.512035 327.659148 662.030355 325.575536L657.122292 329.279735C659.437416 332.613514 662.979556 334.048891 667.563502 334.048891zM693.516046 334.257252C697.891631 334.257252 701.225409 332.775572 703.609987 329.997423L699.211251 325.992258C697.845328 327.612845 696.062682 328.515744 693.539197 328.515744 690.205418 328.515744 688.307016 326.709947 687.890294 323.538226L705.045365 323.538226C706.017717 314.393485 701.433771 308.351011 693.191928 308.351011 685.575169 308.351011 680.852316 313.722099 680.852316 321.36201 680.852316 329.00192 685.482564 334.257252 693.516046 334.257252zM698.308353 318.931129L687.936596 318.931129C688.422772 315.805711 690.321174 314.069368 693.191928 314.069368 696.178439 314.069368 698.007387 315.805711 698.308353 318.931129zM733.058368 334.141496C740.605673 334.141496 745.814703 328.839861 745.814703 321.315707 745.814703 313.768402 740.605673 308.466767 733.058368 308.466767 725.511063 308.466767 720.278882 313.768402 720.278882 321.315707 720.278882 328.839861 725.487912 334.141496 733.058368 334.141496zM733.058368 327.960114C729.469926 327.960114 727.247406 325.436628 727.247406 321.315707 727.247406 317.194786 729.446774 314.624998 733.058368 314.624998 736.646811 314.624998 738.86933 317.194786 738.86933 321.315707 738.86933 325.436628 736.62366 327.960114 733.058368 327.960114zM757.621837 333.446958L757.621837 315.41214 761.326036 315.41214 761.326036 309.184456 757.621837 309.184456 757.621837 306.059038C757.621837 305.596013 757.830198 305.364501 758.246921 305.364501L761.650153 305.364501 761.650153 299.183119 757.552383 299.183119C753.362008 299.183119 750.699615 301.567697 750.699615 305.804374L750.699615 309.184456 747.713105 309.184456 747.713105 315.41214 750.699615 315.41214 750.699615 333.446958 757.621837 333.446958zM786.074714 334.048891C792.719121 334.048891 796.701135 330.992927 796.701135 325.969107 796.701135 322.241757 794.663825 319.949784 789.292737 318.653314L786.468286 317.958777C783.9448 317.333693 783.412321 316.847517 783.412321 315.828863 783.412321 314.624998 784.430976 313.837856 786.491437 313.837856 788.528746 313.837856 789.987274 314.717603 791.144837 316.291887L795.751934 312.772898C793.714625 310.133657 790.751265 308.536221 786.468286 308.536221 780.58787 308.536221 777.04573 311.68479 777.04573 316.106677 777.04573 319.996086 779.2914 322.264908 784.292069 323.515075L787.070218 324.209612C789.732611 324.880998 790.241938 325.390326 790.241938 326.432132 790.241938 327.821206 788.852864 328.700954 786.306227 328.700954 783.736439 328.700954 782.023247 327.659148 780.541567 325.575536L775.633504 329.279735C777.948628 332.613514 781.490768 334.048891 786.074714 334.048891zM807.42016 333.446958L807.42016 318.884827C807.42016 315.759409 808.971294 314.30088 811.610535 314.30088 814.226626 314.30088 815.777759 315.759409 815.777759 318.884827L815.777759 333.446958 822.699981 333.446958 822.699981 318.514407C822.699981 312.101512 819.458807 308.536221 814.226626 308.536221 811.240115 308.536221 809.110201 309.855842 807.883185 311.985756L807.42016 311.985756 807.42016 299.183119 800.497939 299.183119 800.497939 333.446958 807.42016 333.446958zM834.460812 333.863681C837.794591 333.863681 840.318076 332.636665 841.591395 329.858516L842.100722 329.858516 842.586898 333.446958 848.143196 333.446958 848.143196 319.023734C848.143196 312.263571 844.67051 308.582524 837.794591 308.582524 833.48846 308.582524 830.015773 310.272564 827.561741 313.189621L832.19199 316.963273C833.557913 315.203779 835.1785 314.208276 837.58623 314.208276 840.179169 314.208276 841.406185 315.551048 841.406185 318.097684L841.406185 319.046885 835.36371 319.046885C829.737958 319.046885 826.450482 321.987093 826.450482 326.385829 826.450482 330.946624 829.552748 333.863681 834.460812 333.863681zM836.197155 328.700954C834.159846 328.700954 833.094889 327.659148 833.094889 326.015409 833.094889 324.417974 834.113543 323.399319 836.127701 323.399319L841.406185 323.399319 841.406185 323.79289C841.406185 326.802552 839.368875 328.700954 836.197155 328.700954zM860.019784 333.446958L860.019784 320.62117C860.019784 317.241088 861.570917 315.875165 864.534276 315.875165L867.011459 315.875165 867.011459 308.952943 864.881545 308.952943C862.288606 308.952943 860.390204 310.226262 859.556759 313.606343L859.047432 313.606343 858.538104 309.184456 853.097562 309.184456 853.097562 333.446958 860.019784 333.446958zM877.753636 342.661153L877.753636 330.298389 878.216661 330.298389C879.721492 332.54406 881.851406 333.909983 885.162034 333.909983 891.297113 333.909983 895.834757 329.302886 895.834757 321.315707 895.834757 313.305377 891.273962 308.675128 885.185185 308.675128 881.55044 308.675128 879.026954 310.318867 877.661031 313.073865L877.221157 313.073865 876.619225 309.184456 870.831414 309.184456 870.831414 342.661153 877.753636 342.661153zM883.286783 327.936963C879.88355 327.936963 877.730485 325.575536 877.730485 321.292556 877.730485 317.055878 879.953004 314.624998 883.286783 314.624998 886.643713 314.624998 888.750476 317.055878 888.750476 321.292556 888.750476 325.506082 886.666864 327.936963 883.286783 327.936963zM906.808446 333.446958L906.808446 318.977432C906.808446 315.852014 908.336428 314.393485 910.998821 314.393485 913.661214 314.393485 915.166044 315.852014 915.166044 318.977432L915.166044 333.446958 922.088266 333.446958 922.088266 318.653314C922.088266 312.194117 918.870243 308.605675 913.360247 308.605675 909.910712 308.605675 907.665042 310.156808 906.368572 312.61084L905.905547 312.61084 905.558279 309.184456 899.886224 309.184456 899.886224 333.446958 906.808446 333.446958zM938.595102 334.257252C942.970687 334.257252 946.304466 332.775572 948.689044 329.997423L944.290308 325.992258C942.924384 327.612845 941.141739 328.515744 938.618253 328.515744 935.284474 328.515744 933.386072 326.709947 932.96935 323.538226L950.124421 323.538226C951.096773 314.393485 946.512827 308.351011 938.270985 308.351011 930.654226 308.351011 925.931372 313.722099 925.931372 321.36201 925.931372 329.00192 930.561621 334.257252 938.595102 334.257252zM943.387409 318.931129L933.015653 318.931129C933.501829 315.805711 935.400231 314.069368 938.270985 314.069368 941.257495 314.069368 943.086443 315.805711 943.387409 318.931129zM962.186218 334.048891C968.830625 334.048891 972.812639 330.992927 972.812639 325.969107 972.812639 322.241757 970.77533 319.949784 965.404241 318.653314L962.57979 317.958777C960.056304 317.333693 959.523826 316.847517 959.523826 315.828863 959.523826 314.624998 960.54248 313.837856 962.602941 313.837856 964.64025 313.837856 966.098778 314.717603 967.256341 316.291887L971.863438 312.772898C969.826129 310.133657 966.862769 308.536221 962.57979 308.536221 956.699374 308.536221 953.157234 311.68479 953.157234 316.106677 953.157234 319.996086 955.402904 322.264908 960.403573 323.515075L963.181722 324.209612C965.844115 324.880998 966.353442 325.390326 966.353442 326.432132 966.353442 327.821206 964.964368 328.700954 962.417731 328.700954 959.847943 328.700954 958.134751 327.659148 956.653071 325.575536L951.745008 329.279735C954.060132 332.613514 957.602272 334.048891 962.186218 334.048891zM985.013344 334.048891C991.657751 334.048891 995.639764 330.992927 995.639764 325.969107 995.639764 322.241757 993.602455 319.949784 988.231367 318.653314L985.406915 317.958777C982.88343 317.333693 982.350951 316.847517 982.350951 315.828863 982.350951 314.624998 983.369606 313.837856 985.430066 313.837856 987.467376 313.837856 988.925904 314.717603 990.083466 316.291887L994.690563 312.772898C992.653254 310.133657 989.689895 308.536221 985.406915 308.536221 979.526499 308.536221 975.984359 311.68479 975.984359 316.106677 975.984359 319.996086 978.23003 322.264908 983.230698 323.515075L986.008847 324.209612C988.67124 324.880998 989.180568 325.390326 989.180568 326.432132 989.180568 327.821206 987.791493 328.700954 985.244856 328.700954 982.675068 328.700954 980.961876 327.659148 979.480197 325.575536L974.572133 329.279735C976.887258 332.613514 980.429398 334.048891 985.013344 334.048891zM79.7287279 466.441117L79.7287279 458.187699 80.0528453 458.187699 83.6875905 466.441117 85.9448366 466.441117 89.5795817 458.187699 89.9036991 458.187699 89.9036991 466.441117 93.3879612 466.441117 93.3879612 449.610163 90.0889091 449.610163 85.0303625 461.000575 84.7293964 461.000575 79.6245473 449.610163 76.2328903 449.610163 76.2328903 466.441117 79.7287279 466.441117zM102.717912 466.765234C106.537867 466.765234 109.096079 464.172295 109.096079 460.236584 109.096079 456.289297 106.537867 453.684782 102.717912 453.684782 98.897957 453.684782 96.3397446 456.289297 96.3397446 460.236584 96.3397446 464.172295 98.897957 466.765234 102.717912 466.765234zM102.717912 463.743997C100.888964 463.743997 99.8355823 462.49383 99.8355823 460.236584 99.8355823 457.979337 100.854237 456.706019 102.717912 456.706019 104.581587 456.706019 105.611817 457.979337 105.611817 460.236584 105.611817 462.49383 104.54686 463.743997 102.717912 463.743997zM115.566852 466.753658C118.98166 466.753658 120.995818 465.167798 120.995818 462.632737 120.995818 460.780638 120.035042 459.599924 117.280044 458.928538L115.798364 458.569694C114.362987 458.21085 114.119899 457.956186 114.119899 457.423708 114.119899 456.763897 114.675529 456.277721 115.80994 456.277721 116.898048 456.277721 117.58101 456.740746 118.206093 457.527888L120.417037 455.768394C119.409958 454.576105 117.997732 453.707933 115.80994 453.707933 112.904459 453.707933 111.075511 455.340096 111.075511 457.562615 111.075511 459.588349 112.233073 460.688033 114.744983 461.301541L116.18036 461.660385C117.615737 462.019229 117.881976 462.297044 117.881976 462.852674 117.881976 463.662967 117.048531 464.172295 115.717335 464.172295 114.258807 464.172295 113.413786 463.639816 112.626644 462.447527L110.265217 464.311202C111.364901 466.001243 113.170698 466.753658 115.566852 466.753658zM126.737326 466.661053C128.415792 466.661053 129.723837 465.966516 130.256315 464.392232L130.673038 464.392232 130.950853 466.441117 133.740577 466.441117 133.740577 458.905387C133.740577 455.490579 131.992659 453.731084 128.57785 453.731084 126.355331 453.731084 124.549534 454.460348 123.195186 455.907301L125.440857 457.921459C126.239575 456.960683 127.130898 456.451355 128.462094 456.451355 129.781715 456.451355 130.34892 457.122741 130.34892 458.58127L130.34892 459.206353 127.408713 459.206353C124.48008 459.206353 122.801615 460.72276 122.801615 462.875825 122.801615 465.202525 124.341173 466.661053 126.737326 466.661053zM127.802284 464.172295C126.7026 464.172295 126.135394 463.547211 126.135394 462.667464 126.135394 461.787717 126.656297 461.208936 127.73283 461.208936L130.34892 461.208936 130.34892 461.544629C130.34892 463.176791 129.388144 464.172295 127.802284 464.172295zM140.76698 452.457766L140.76698 449.008231 136.831268 449.008231 136.831268 452.457766 140.76698 452.457766zM140.535467 466.441117L140.535467 454.03205 137.062781 454.03205 137.062781 466.441117 140.535467 466.441117zM149.286637 466.765234C151.532308 466.765234 153.129743 466.03597 154.368335 464.068114L151.740669 462.320195C151.231341 463.327274 150.397897 463.70927 149.321364 463.70927 147.469264 463.70927 146.63582 462.285469 146.63582 460.236584 146.63582 458.187699 147.469264 456.752321 149.321364 456.752321 150.351594 456.752321 151.20819 457.169044 151.740669 458.12982L154.37991 456.462931C153.095016 454.40247 151.509156 453.684782 149.286637 453.684782 145.478258 453.684782 143.151558 456.381902 143.151558 460.236584 143.151558 464.091265 145.489833 466.765234 149.286637 466.765234zM160.688624 466.753658C164.103432 466.753658 166.11759 465.167798 166.11759 462.632737 166.11759 460.780638 165.156814 459.599924 162.401816 458.928538L160.920136 458.569694C159.484759 458.21085 159.241671 457.956186 159.241671 457.423708 159.241671 456.763897 159.797301 456.277721 160.931712 456.277721 162.019821 456.277721 162.702782 456.740746 163.327866 457.527888L165.538809 455.768394C164.53173 454.576105 163.119505 453.707933 160.931712 453.707933 158.026231 453.707933 156.197283 455.340096 156.197283 457.562615 156.197283 459.588349 157.354845 460.688033 159.866755 461.301541L161.302132 461.660385C162.737509 462.019229 163.003748 462.297044 163.003748 462.852674 163.003748 463.662967 162.170304 464.172295 160.839107 464.172295 159.380579 464.172295 158.535558 463.639816 157.748416 462.447527L155.386989 464.311202C156.486673 466.001243 158.29247 466.753658 160.688624 466.753658zM178.931803 466.441117L178.931803 458.778055C178.931803 457.273224 179.649492 456.532385 181.038566 456.532385 182.427641 456.532385 183.133754 457.273224 183.133754 458.778055L183.133754 466.441117 186.60644 466.441117 186.60644 458.58127C186.60644 455.409549 185.043731 453.696357 182.578124 453.696357 180.957537 453.696357 179.869429 454.552953 179.302223 455.814696L178.931803 455.814696 178.931803 449.008231 175.459117 449.008231 175.459117 466.441117 178.931803 466.441117zM193.019335 466.661053C194.6978 466.661053 196.005845 465.966516 196.538324 464.392232L196.955046 464.392232 197.232861 466.441117 200.022586 466.441117 200.022586 458.905387C200.022586 455.490579 198.274667 453.731084 194.859858 453.731084 192.637339 453.731084 190.831542 454.460348 189.477194 455.907301L191.722865 457.921459C192.521583 456.960683 193.412906 456.451355 194.744102 456.451355 196.063723 456.451355 196.630929 457.122741 196.630929 458.58127L196.630929 459.206353 193.690721 459.206353C190.762088 459.206353 189.083623 460.72276 189.083623 462.875825 189.083623 465.202525 190.623181 466.661053 193.019335 466.661053zM194.084292 464.172295C192.984608 464.172295 192.417402 463.547211 192.417402 462.667464 192.417402 461.787717 192.938305 461.208936 194.014838 461.208936L196.630929 461.208936 196.630929 461.544629C196.630929 463.176791 195.670152 464.172295 194.084292 464.172295zM209.144175 466.441117L214.167995 454.03205 210.405918 454.03205 208.102369 461.741414 207.662496 461.741414 205.382098 454.03205 201.481114 454.03205 206.458631 466.441117 209.144175 466.441117zM221.599544 466.857839C223.798912 466.857839 225.384772 466.22118 226.681242 464.959437L224.748113 462.794796C223.914668 463.593514 222.977043 464.044963 221.634271 464.044963 219.747444 464.044963 218.821395 463.061035 218.64776 461.324692L227.306325 461.324692C227.838804 456.636565 225.604709 453.615328 221.356456 453.615328 217.409169 453.615328 215.151923 456.347175 215.151923 460.259735 215.151923 464.195446 217.316564 466.857839 221.599544 466.857839zM223.960971 459.136899L218.659336 459.136899C218.890848 457.365829 219.921079 456.393477 221.356456 456.393477 222.907589 456.393477 223.85679 457.342678 223.960971 459.136899zM239.958479 466.661053C241.636945 466.661053 242.94499 465.966516 243.477468 464.392232L243.894191 464.392232 244.172006 466.441117 246.96173 466.441117 246.96173 458.905387C246.96173 455.490579 245.213812 453.731084 241.799003 453.731084 239.576484 453.731084 237.770687 454.460348 236.416339 455.907301L238.66201 457.921459C239.460728 456.960683 240.352051 456.451355 241.683247 456.451355 243.002868 456.451355 243.570073 457.122741 243.570073 458.58127L243.570073 459.206353 240.629865 459.206353C237.701233 459.206353 236.022768 460.72276 236.022768 462.875825 236.022768 465.202525 237.562326 466.661053 239.958479 466.661053zM241.023437 464.172295C239.923753 464.172295 239.356547 463.547211 239.356547 462.667464 239.356547 461.787717 239.87745 461.208936 240.953983 461.208936L243.570073 461.208936 243.570073 461.544629C243.570073 463.176791 242.609297 464.172295 241.023437 464.172295zM262.345731 466.765234C264.591402 466.765234 266.188838 466.03597 267.427429 464.068114L264.799763 462.320195C264.290436 463.327274 263.456991 463.70927 262.380458 463.70927 260.528359 463.70927 259.694914 462.285469 259.694914 460.236584 259.694914 458.187699 260.528359 456.752321 262.380458 456.752321 263.410688 456.752321 264.267284 457.169044 264.799763 458.12982L267.439005 456.462931C266.154111 454.40247 264.568251 453.684782 262.345731 453.684782 258.537352 453.684782 256.210652 456.381902 256.210652 460.236584 256.210652 464.091265 258.548927 466.765234 262.345731 466.765234zM275.414608 466.857839C277.613976 466.857839 279.199836 466.22118 280.496306 464.959437L278.563177 462.794796C277.729732 463.593514 276.792107 464.044963 275.449335 464.044963 273.562508 464.044963 272.636459 463.061035 272.462824 461.324692L281.121389 461.324692C281.653868 456.636565 279.419773 453.615328 275.17152 453.615328 271.224233 453.615328 268.966987 456.347175 268.966987 460.259735 268.966987 464.195446 271.131628 466.857839 275.414608 466.857839zM277.776035 459.136899L272.4744 459.136899C272.705912 457.365829 273.736143 456.393477 275.17152 456.393477 276.722653 456.393477 277.671854 457.342678 277.776035 459.136899zM287.233317 466.441117L287.233317 459.90089C287.233317 458.176123 288.008884 457.493161 289.513715 457.493161L290.960667 457.493161 290.960667 453.800538 289.814681 453.800538C288.448758 453.800538 287.46483 454.529802 287.140712 456.474507L286.689263 456.474507 286.446175 454.03205 283.760631 454.03205 283.760631 466.441117 287.233317 466.441117zM300.753643 466.441117L300.753643 463.385153 297.882889 463.385153C297.790284 463.385153 297.755557 463.350426 297.755557 463.257821L297.755557 457.030136 300.753643 457.030136 300.753643 454.03205 297.755557 454.03205 297.755557 450.67512 294.282871 451.196023 294.282871 454.03205 292.349742 454.03205 292.349742 457.030136 294.282871 457.030136 294.282871 463.292548C294.282871 465.468764 295.463584 466.441117 297.593498 466.441117L300.753643 466.441117zM306.796117 466.661053C308.474583 466.661053 309.782628 465.966516 310.315106 464.392232L310.731829 464.392232 311.009644 466.441117 313.799368 466.441117 313.799368 458.905387C313.799368 455.490579 312.05145 453.731084 308.636641 453.731084 306.414122 453.731084 304.608325 454.460348 303.253977 455.907301L305.499648 457.921459C306.298366 456.960683 307.189689 456.451355 308.520885 456.451355 309.840506 456.451355 310.407711 457.122741 310.407711 458.58127L310.407711 459.206353 307.467503 459.206353C304.538871 459.206353 302.860406 460.72276 302.860406 462.875825 302.860406 465.202525 304.399964 466.661053 306.796117 466.661053zM307.861075 464.172295C306.761391 464.172295 306.194185 463.547211 306.194185 462.667464 306.194185 461.787717 306.715088 461.208936 307.791621 461.208936L310.407711 461.208936 310.407711 461.544629C310.407711 463.176791 309.446935 464.172295 307.861075 464.172295zM320.825771 452.457766L320.825771 449.008231 316.890059 449.008231 316.890059 452.457766 320.825771 452.457766zM320.594258 466.441117L320.594258 454.03205 317.121572 454.03205 317.121572 466.441117 320.594258 466.441117zM327.481753 466.441117L327.481753 458.87066C327.481753 457.365829 328.199441 456.62499 329.588516 456.62499 330.977591 456.62499 331.683703 457.365829 331.683703 458.87066L331.683703 466.441117 335.15639 466.441117 335.15639 458.673875C335.15639 455.502154 333.593681 453.788962 330.942864 453.788962 329.171794 453.788962 328.083685 454.633983 327.423875 456.046209L327.053455 456.046209 326.902972 454.03205 324.009066 454.03205 324.009066 466.441117 327.481753 466.441117zM349.209194 466.753658C352.624003 466.753658 354.638161 465.167798 354.638161 462.632737 354.638161 460.780638 353.677384 459.599924 350.922386 458.928538L349.440707 458.569694C348.00533 458.21085 347.762242 457.956186 347.762242 457.423708 347.762242 456.763897 348.317871 456.277721 349.452282 456.277721 350.540391 456.277721 351.223352 456.740746 351.848436 457.527888L354.05938 455.768394C353.052301 454.576105 351.640075 453.707933 349.452282 453.707933 346.546801 453.707933 344.717853 455.340096 344.717853 457.562615 344.717853 459.588349 345.875415 460.688033 348.387325 461.301541L349.822702 461.660385C351.258079 462.019229 351.524319 462.297044 351.524319 462.852674 351.524319 463.662967 350.690874 464.172295 349.359677 464.172295 347.901149 464.172295 347.056129 463.639816 346.268986 462.447527L343.90756 464.311202C345.007244 466.001243 346.813041 466.753658 349.209194 466.753658zM362.880003 466.857839C365.079371 466.857839 366.665231 466.22118 367.961701 464.959437L366.028572 462.794796C365.195127 463.593514 364.257502 464.044963 362.91473 464.044963 361.027904 464.044963 360.101854 463.061035 359.92822 461.324692L368.586785 461.324692C369.119263 456.636565 366.885168 453.615328 362.636915 453.615328 358.689628 453.615328 356.432382 456.347175 356.432382 460.259735 356.432382 464.195446 358.597023 466.857839 362.880003 466.857839zM365.24143 459.136899L359.939795 459.136899C360.171308 457.365829 361.201538 456.393477 362.636915 456.393477 364.188048 456.393477 365.137249 457.342678 365.24143 459.136899zM374.698713 466.441117L374.698713 458.87066C374.698713 457.365829 375.416401 456.62499 376.805476 456.62499 378.19455 456.62499 378.900663 457.365829 378.900663 458.87066L378.900663 466.441117 382.37335 466.441117 382.37335 458.673875C382.37335 455.502154 380.810641 453.788962 378.159823 453.788962 376.388753 453.788962 375.300645 454.633983 374.640834 456.046209L374.270415 456.046209 374.119932 454.03205 371.226026 454.03205 371.226026 466.441117 374.698713 466.441117zM389.619689 466.753658C393.034497 466.753658 395.048655 465.167798 395.048655 462.632737 395.048655 460.780638 394.087878 459.599924 391.332881 458.928538L389.851201 458.569694C388.415824 458.21085 388.172736 457.956186 388.172736 457.423708 388.172736 456.763897 388.728366 456.277721 389.862777 456.277721 390.950885 456.277721 391.633847 456.740746 392.25893 457.527888L394.469874 455.768394C393.462795 454.576105 392.050569 453.707933 389.862777 453.707933 386.957296 453.707933 385.128347 455.340096 385.128347 457.562615 385.128347 459.588349 386.28591 460.688033 388.797819 461.301541L390.233197 461.660385C391.668574 462.019229 391.934813 462.297044 391.934813 462.852674 391.934813 463.662967 391.101368 464.172295 389.770172 464.172295 388.311643 464.172295 387.466623 463.639816 386.679481 462.447527L384.318054 464.311202C385.417738 466.001243 387.223535 466.753658 389.619689 466.753658zM403.290497 466.857839C405.489866 466.857839 407.075726 466.22118 408.372195 464.959437L406.439067 462.794796C405.605622 463.593514 404.667996 464.044963 403.325224 464.044963 401.438398 464.044963 400.512348 463.061035 400.338714 461.324692L408.997279 461.324692C409.529757 456.636565 407.295662 453.615328 403.047409 453.615328 399.100123 453.615328 396.842876 456.347175 396.842876 460.259735 396.842876 464.195446 399.007518 466.857839 403.290497 466.857839zM405.651924 459.136899L400.35029 459.136899C400.581802 457.365829 401.612032 456.393477 403.047409 456.393477 404.598543 456.393477 405.547744 457.342678 405.651924 459.136899zM424.080314 466.765234C427.900269 466.765234 430.458481 464.172295 430.458481 460.236584 430.458481 456.289297 427.900269 453.684782 424.080314 453.684782 420.260358 453.684782 417.702146 456.289297 417.702146 460.236584 417.702146 464.172295 420.260358 466.765234 424.080314 466.765234zM424.080314 463.743997C422.251365 463.743997 421.197984 462.49383 421.197984 460.236584 421.197984 457.979337 422.216638 456.706019 424.080314 456.706019 425.943989 456.706019 426.974219 457.979337 426.974219 460.236584 426.974219 462.49383 425.909262 463.743997 424.080314 463.743997zM436.894526 466.441117L436.894526 457.030136 438.931836 457.030136 438.931836 454.03205 436.894526 454.03205 436.894526 452.052619C436.894526 451.983165 436.917678 451.948439 436.975556 451.948439L439.244378 451.948439 439.244378 449.008231 436.628287 449.008231C434.672007 449.008231 433.42184 450.073188 433.42184 451.948439L433.42184 454.03205 431.754951 454.03205 431.754951 457.030136 433.42184 457.030136 433.42184 466.441117 436.894526 466.441117zM452.42901 466.753658C455.843819 466.753658 457.857977 465.167798 457.857977 462.632737 457.857977 460.780638 456.8972 459.599924 454.142202 458.928538L452.660523 458.569694C451.225146 458.21085 450.982058 457.956186 450.982058 457.423708 450.982058 456.763897 451.537688 456.277721 452.672098 456.277721 453.760207 456.277721 454.443168 456.740746 455.068252 457.527888L457.279196 455.768394C456.272117 454.576105 454.859891 453.707933 452.672098 453.707933 449.766617 453.707933 447.937669 455.340096 447.937669 457.562615 447.937669 459.588349 449.095231 460.688033 451.607141 461.301541L453.042518 461.660385C454.477895 462.019229 454.744135 462.297044 454.744135 462.852674 454.744135 463.662967 453.91069 464.172295 452.579493 464.172295 451.120965 464.172295 450.275945 463.639816 449.488803 462.447527L447.127376 464.311202C448.22706 466.001243 450.032857 466.753658 452.42901 466.753658zM463.865724 466.441117L463.865724 458.778055C463.865724 457.273224 464.583413 456.532385 465.972487 456.532385 467.361562 456.532385 468.067675 457.273224 468.067675 458.778055L468.067675 466.441117 471.540361 466.441117 471.540361 458.58127C471.540361 455.409549 469.977652 453.696357 467.512045 453.696357 465.891458 453.696357 464.80335 454.552953 464.236144 455.814696L463.865724 455.814696 463.865724 449.008231 460.393038 449.008231 460.393038 466.441117 463.865724 466.441117zM477.953256 466.661053C479.631721 466.661053 480.939766 465.966516 481.472244 464.392232L481.888967 464.392232 482.166782 466.441117 484.956507 466.441117 484.956507 458.905387C484.956507 455.490579 483.208588 453.731084 479.793779 453.731084 477.57126 453.731084 475.765463 454.460348 474.411115 455.907301L476.656786 457.921459C477.455504 456.960683 478.346827 456.451355 479.678023 456.451355 480.997644 456.451355 481.564849 457.122741 481.564849 458.58127L481.564849 459.206353 478.624642 459.206353C475.696009 459.206353 474.017544 460.72276 474.017544 462.875825 474.017544 465.202525 475.557102 466.661053 477.953256 466.661053zM479.018213 464.172295C477.918529 464.172295 477.351323 463.547211 477.351323 462.667464 477.351323 461.787717 477.872226 461.208936 478.948759 461.208936L481.564849 461.208936 481.564849 461.544629C481.564849 463.176791 480.604073 464.172295 479.018213 464.172295zM491.670367 466.441117L491.670367 459.90089C491.670367 458.176123 492.445934 457.493161 493.950764 457.493161L495.397717 457.493161 495.397717 453.800538 494.25173 453.800538C492.885807 453.800538 491.901879 454.529802 491.577762 456.474507L491.126313 456.474507 490.883225 454.03205 488.19768 454.03205 488.19768 466.441117 491.670367 466.441117zM501.243406 471.53439L501.243406 464.473261 501.613826 464.473261C502.273636 465.792882 503.431198 466.69578 505.167541 466.69578 508.269808 466.69578 510.399722 464.2649 510.399722 460.236584 510.399722 456.208267 508.281384 453.777387 505.167541 453.777387 503.280715 453.777387 501.984246 454.703436 501.336011 456.312448L500.965591 456.312448 500.595171 454.03205 497.759144 454.03205 497.759144 471.53439 501.243406 471.53439zM504.079433 463.70927C502.273636 463.70927 501.254981 462.447527 501.254981 460.225008 501.254981 458.002489 502.273636 456.752321 504.079433 456.752321 505.873654 456.752321 506.869158 457.979337 506.869158 460.236584 506.869158 462.482254 505.873654 463.70927 504.079433 463.70927zM516.488499 466.441117L516.488499 458.87066C516.488499 457.365829 517.206188 456.62499 518.595262 456.62499 519.984337 456.62499 520.69045 457.365829 520.69045 458.87066L520.69045 466.441117 524.163136 466.441117 524.163136 458.673875C524.163136 455.502154 522.600427 453.788962 519.94961 453.788962 518.17854 453.788962 517.090432 454.633983 516.430621 456.046209L516.060201 456.046209 515.909718 454.03205 513.015813 454.03205 513.015813 466.441117 516.488499 466.441117zM533.076365 466.857839C535.275733 466.857839 536.861593 466.22118 538.158062 464.959437L536.224934 462.794796C535.391489 463.593514 534.453864 464.044963 533.111092 464.044963 531.224265 464.044963 530.298216 463.061035 530.124581 461.324692L538.783146 461.324692C539.315625 456.636565 537.08153 453.615328 532.833277 453.615328 528.88599 453.615328 526.628744 456.347175 526.628744 460.259735 526.628744 464.195446 528.793385 466.857839 533.076365 466.857839zM535.437791 459.136899L530.136157 459.136899C530.367669 457.365829 531.3979 456.393477 532.833277 456.393477 534.38441 456.393477 535.333611 457.342678 535.437791 459.136899zM545.288645 466.753658C548.703454 466.753658 550.717612 465.167798 550.717612 462.632737 550.717612 460.780638 549.756835 459.599924 547.001837 458.928538L545.520158 458.569694C544.084781 458.21085 543.841693 457.956186 543.841693 457.423708 543.841693 456.763897 544.397322 456.277721 545.531733 456.277721 546.619842 456.277721 547.302803 456.740746 547.927887 457.527888L550.138831 455.768394C549.131752 454.576105 547.719526 453.707933 545.531733 453.707933 542.626252 453.707933 540.797304 455.340096 540.797304 457.562615 540.797304 459.588349 541.954866 460.688033 544.466776 461.301541L545.902153 461.660385C547.33753 462.019229 547.60377 462.297044 547.60377 462.852674 547.60377 463.662967 546.770325 464.172295 545.439128 464.172295 543.9806 464.172295 543.13558 463.639816 542.348437 462.447527L539.987011 464.311202C541.086695 466.001243 542.892492 466.753658 545.288645 466.753658zM557.292565 466.753658C560.707373 466.753658 562.721531 465.167798 562.721531 462.632737 562.721531 460.780638 561.760755 459.599924 559.005757 458.928538L557.524077 458.569694C556.0887 458.21085 555.845612 457.956186 555.845612 457.423708 555.845612 456.763897 556.401242 456.277721 557.535653 456.277721 558.623761 456.277721 559.306723 456.740746 559.931806 457.527888L562.14275 455.768394C561.135671 454.576105 559.723445 453.707933 557.535653 453.707933 554.630172 453.707933 552.801224 455.340096 552.801224 457.562615 552.801224 459.588349 553.958786 460.688033 556.470696 461.301541L557.906073 461.660385C559.34145 462.019229 559.607689 462.297044 559.607689 462.852674 559.607689 463.662967 558.774244 464.172295 557.443048 464.172295 555.984519 464.172295 555.139499 463.639816 554.352357 462.447527L551.99093 464.311202C553.090614 466.001243 554.896411 466.753658 557.292565 466.753658z"/>
    <text fill="#FFA600" font-family="NameSansText-Medium, Name Sans Text" font-size="15.84" font-weight="400" letter-spacing="1.493">
      <tspan x="74.466" y="83.905">NAME SANS DISPLAY BOLD</tspan>
    </text>
    <text fill="#FFA600" font-family="NameSansText-Medium, Name Sans Text" font-size="15.84" font-weight="400" letter-spacing="1.493">
      <tspan x="74.466" y="268.109">NAME SANS STANDARD BOLD</tspan>
    </text>
    <text fill="#FFA600" font-family="NameSansText-Medium, Name Sans Text" font-size="15.84" font-weight="400" letter-spacing="1.493">
      <tspan x="74.466" y="417.969">NAME SANS TEXT BOLD</tspan>
    </text>
  </g>
</svg>
