<svg xmlns="http://www.w3.org/2000/svg" xmlns:xlink="http://www.w3.org/1999/xlink" width="1891" height="379" viewBox="0 0 1891 379">
  <defs>
    <rect id="name_sans-extra-a" width="165" height="58" x="1.469"/>
  </defs>
  <g fill="none" fill-rule="evenodd">
    <rect width="1891" height="379" fill="#222"/>
    <g transform="translate(53.705 12.3)">
      <path fill="#FFF" fill-rule="nonzero" d="M73.1650391,259.800781 C121.625,259.800781 152.574219,229.530273 152.574219,186.364258 C152.574219,147.813477 129.09082,119.171875 88.5039062,119.171875 C74.1152344,119.171875 61.7626953,122.701172 51.4462891,130.166992 L50.3603516,129.488281 L50.3603516,96.6386719 L138.457031,96.6386719 L144.158203,58.6308594 L10.3164062,58.6308594 L10.3164062,156.09375 L41.1298828,169.939453 C50.6318359,158.672852 62.1699219,152.157227 75.8798828,152.157227 C97.0556641,152.157227 110.629883,166.00293 110.629883,186.771484 C110.629883,207.540039 96.9199219,222.335938 74.1152344,222.335938 C56.6044922,222.335938 46.6953125,214.870117 37.1933594,200.617188 L4.75097656,226.272461 C20.2255859,249.077148 42.3515625,259.800781 73.1650391,259.800781 Z M374.105469,256 L380.078125,216.499023 L288.180664,216.499023 L288.180664,215.141602 L376.413086,84.6933594 L376.413086,58.6308594 L233.34082,58.6308594 L233.34082,98.1318359 L317.636719,98.1318359 L317.636719,99.7607422 L229.268555,229.9375 L229.268555,256 L374.105469,256 Z M437.904297,258.307617 C457.31543,258.307617 471.568359,252.063477 480.255859,237.946289 L481.341797,237.946289 L483.920898,256 L516.363281,256 L516.363281,175.233398 C516.363281,136.003906 496.137695,113.606445 455.550781,113.606445 C431.117188,113.606445 411.43457,124.737305 398.539062,141.976562 L426.501953,162.745117 C433.15332,153.378906 441.976562,147.677734 454.464844,147.677734 C469.260742,147.677734 476.998047,155.550781 476.998047,168.174805 L476.998047,171.975586 L440.619141,171.975586 C409.126953,171.975586 390.258789,188.807617 390.258789,215.141602 C390.258789,241.204102 408.583984,258.307617 437.904297,258.307617 Z M445.777344,227.086914 C434.917969,227.086914 428.945312,222.064453 428.945312,213.241211 C428.945312,204.689453 434.917969,199.666992 445.913086,199.666992 L476.998047,199.666992 L476.998047,200.209961 C476.998047,216.363281 464.509766,227.086914 445.777344,227.086914 Z M576.904297,256 L576.904297,175.233398 C576.904297,156.09375 586.270508,147.677734 601.202148,147.677734 C616.269531,147.677734 625.635742,156.09375 625.635742,175.233398 L625.635742,256 L666.086914,256 L666.086914,173.604492 C666.086914,135.189453 646.540039,113.199219 613.011719,113.199219 C593.464844,113.199219 579.890625,121.34375 572.289062,133.696289 L571.338867,133.696289 L569.03125,117 L536.453125,117 L536.453125,256 L576.904297,256 Z M708.845703,304.324219 C737.487305,304.324219 750.518555,296.043945 761.649414,264.280273 L813.095703,117 L771.558594,117 L744.817383,203.875 L743.867188,203.875 L712.103516,117 L667.71582,117 L722.419922,251.113281 C724.727539,256.814453 724.863281,259.936523 722.419922,264.416016 C720.383789,268.081055 717.397461,269.709961 709.660156,269.709961 L680.74707,269.709961 L680.74707,304.324219 L708.845703,304.324219 Z M980.058594,258.714844 C1015.89453,258.714844 1040.73535,240.525391 1040.73535,201.567383 L1040.73535,58.6308594 L997.433594,58.6308594 L997.433594,194.101562 C997.433594,213.241211 990.375,219.485352 972.728516,219.485352 L953.996094,219.485352 C936.078125,219.485352 929.5625,213.78418 929.5625,194.101562 L929.5625,58.6308594 L886.125,58.6308594 L886.125,201.703125 C886.125,239.84668 907.436523,258.714844 946.394531,258.714844 L980.058594,258.714844 Z M1143.62793,256 L1143.62793,218.670898 L1127.06738,218.670898 C1118.78711,218.670898 1115.5293,214.734375 1115.5293,206.318359 L1115.5293,155.007812 L1143.62793,155.007812 L1143.62793,117 L1115.5293,117 L1115.5293,79.1279297 L1075.21387,86.59375 L1075.21387,117 L1055.93848,117 L1055.93848,155.007812 L1075.21387,155.007812 L1075.21387,209.44043 C1075.21387,241.74707 1090.82422,256 1120.55176,256 L1143.62793,256 Z M1204.0332,97.9960938 L1204.0332,58.6308594 L1161.13867,58.6308594 L1161.13867,97.9960938 L1204.0332,97.9960938 Z M1202.81152,256 L1202.81152,117 L1162.36035,117 L1162.36035,256 L1202.81152,256 Z M1274.89062,256 L1274.89062,220.02832 L1268.64648,220.02832 C1264.57422,220.02832 1262.94531,218.399414 1262.94531,214.462891 L1262.94531,58.6308594 L1222.49414,58.6308594 L1222.49414,218.12793 C1222.49414,244.597656 1235.11816,256 1258.7373,256 L1274.89062,256 Z M1331.22363,97.9960938 L1331.22363,58.6308594 L1288.3291,58.6308594 L1288.3291,97.9960938 L1331.22363,97.9960938 Z M1330.00195,256 L1330.00195,117 L1289.55078,117 L1289.55078,256 L1330.00195,256 Z M1433.16602,256 L1433.16602,218.670898 L1416.60547,218.670898 C1408.3252,218.670898 1405.06738,214.734375 1405.06738,206.318359 L1405.06738,155.007812 L1433.16602,155.007812 L1433.16602,117 L1405.06738,117 L1405.06738,79.1279297 L1364.75195,86.59375 L1364.75195,117 L1345.47656,117 L1345.47656,155.007812 L1364.75195,155.007812 L1364.75195,209.44043 C1364.75195,241.74707 1380.3623,256 1410.08984,256 L1433.16602,256 Z M1493.57129,97.9960938 L1493.57129,58.6308594 L1450.67676,58.6308594 L1450.67676,97.9960938 L1493.57129,97.9960938 Z M1492.34961,256 L1492.34961,117 L1451.89844,117 L1451.89844,256 L1492.34961,256 Z M1581.93945,260.615234 C1607.59473,260.615234 1628.0918,250.706055 1640.71582,232.923828 L1611.80273,211.476562 C1605.55859,220.978516 1595.78516,226.408203 1581.93945,226.408203 C1564.97168,226.408203 1553.56934,216.634766 1550.71875,199.938477 L1650.21777,199.938477 C1655.37598,147.541992 1627.95605,112.249023 1580.98926,112.249023 C1537.95898,112.249023 1509.18164,143.198242 1509.18164,186.771484 C1509.18164,230.344727 1537.95898,260.615234 1581.93945,260.615234 Z M1610.44531,171.568359 L1551.12598,171.568359 C1554.24805,155.550781 1564.56445,146.591797 1580.98926,146.591797 C1597.95703,146.591797 1608.27344,155.822266 1610.44531,171.568359 Z M1715.50977,259.529297 C1753.24609,259.529297 1776.45801,242.290039 1776.45801,212.969727 C1776.45801,190.979492 1763.69824,178.083984 1733.02051,170.618164 L1717.41016,166.817383 C1704.65039,163.695312 1701.25684,160.980469 1701.25684,155.143555 C1701.25684,148.899414 1706.68652,145.370117 1717.5459,145.370117 C1728.54102,145.370117 1737.77148,150.256836 1744.01562,159.487305 L1771.97852,138.854492 C1759.89746,121.886719 1741.70801,113.199219 1717.13867,113.199219 C1682.25293,113.199219 1662.29883,131.117188 1662.29883,156.908203 C1662.29883,178.626953 1674.92285,192.472656 1704.24316,199.802734 L1719.85352,203.739258 C1734.24219,207.404297 1737.09277,210.254883 1737.09277,215.956055 C1737.09277,222.743164 1730.57715,226.951172 1716.32422,226.951172 C1703.29297,226.951172 1693.1123,221.114258 1685.10352,210.526367 L1655.24023,232.245117 C1669.49316,251.520508 1689.71875,259.529297 1715.50977,259.529297 Z"/>
      <circle cx="126.725" cy="77.037" r="38.163" fill="#FFA600" fill-opacity=".15" stroke="#FFA600" stroke-width="2"/>
      <circle cx="365.725" cy="235.5" r="38.163" fill="#FFA600" fill-opacity=".15" stroke="#FFA600" stroke-width="2"/>
      <circle cx="1387.725" cy="97.037" r="38.163" fill="#FFA600" fill-opacity=".15" stroke="#FFA600" stroke-width="2"/>
      <circle cx="713.225" cy="258" r="20.5" fill="#FFA600" fill-opacity=".15" stroke="#FFA600" stroke-width="2"/>
      <path fill="#FFA600" fill-rule="nonzero" d="M17.4289016,306.855422 L17.4289016,300.571242 L17.56855,300.571242 L22.3229445,306.855422 L23.3830031,306.855422 L23.3830031,297.62593 L21.9230422,297.62593 L21.9230422,303.916457 L21.7960891,303.916457 L17.0353469,297.62593 L15.9689406,297.62593 L15.9689406,306.855422 L17.4289016,306.855422 Z M27.6298781,306.855422 L28.3090773,305.020949 L32.2827102,305.020949 L32.9619094,306.855422 L34.6186477,306.855422 L30.8798781,297.594192 L29.7817336,297.594192 L26.0429641,306.855422 L27.6298781,306.855422 Z M31.8320266,303.802199 L28.7597609,303.802199 L30.2006789,299.911086 L30.3974562,299.911086 L31.8320266,303.802199 Z M38.6941359,306.855422 L38.6941359,301.104445 L38.840132,301.104445 L41.4363234,306.855422 L42.3567336,306.855422 L44.952925,301.104445 L45.0989211,301.104445 L45.0989211,306.855422 L46.5081008,306.855422 L46.5081008,297.62593 L45.1814406,297.62593 L41.9885695,304.659133 L41.8552687,304.659133 L38.6433547,297.62593 L37.2786086,297.62593 L37.2786086,306.855422 L38.6941359,306.855422 Z M56.328218,306.855422 L56.328218,305.598586 L51.6626906,305.598586 L51.6626906,302.748488 L54.4873977,302.748488 L54.4873977,301.504348 L51.6626906,301.504348 L51.6626906,298.882766 L56.1631789,298.882766 L56.1631789,297.62593 L50.196382,297.62593 L50.196382,306.855422 L56.328218,306.855422 Z M66.9865187,307.033156 C69.1637648,307.033156 70.3698195,305.839797 70.3698195,304.259231 C70.3698195,302.93257 69.7350539,302.151809 68.0783156,301.60591 L66.7833937,301.180617 C65.799507,300.856887 65.4948195,300.507766 65.4948195,299.898391 C65.4948195,299.219192 66.021675,298.673293 67.1579055,298.673293 C68.0148391,298.673293 68.5480422,299.028762 68.9606398,299.619094 L70.0905227,298.920852 C69.4811477,298.03218 68.6178664,297.448195 67.1706008,297.448195 C65.2789992,297.448195 64.1173781,298.514602 64.1173781,299.942824 C64.1173781,301.218703 64.802925,301.993117 66.1295852,302.424758 L67.462593,302.862746 C68.6242141,303.243606 68.9542922,303.700637 68.9542922,304.379836 C68.9542922,305.198684 68.2814406,305.795363 66.9865187,305.795363 C65.8820266,305.795363 65.2472609,305.37007 64.7394484,304.53218 L63.5905227,305.217727 C64.2506789,306.385695 65.2345656,307.033156 66.9865187,307.033156 Z M73.8486281,306.855422 L74.5278273,305.020949 L78.5014602,305.020949 L79.1806594,306.855422 L80.8373977,306.855422 L77.0986281,297.594192 L76.0004836,297.594192 L72.2617141,306.855422 L73.8486281,306.855422 Z M78.0507766,303.802199 L74.9785109,303.802199 L76.4194289,299.911086 L76.6162062,299.911086 L78.0507766,303.802199 Z M84.9573195,306.855422 L84.9573195,300.571242 L85.096968,300.571242 L89.8513625,306.855422 L90.9114211,306.855422 L90.9114211,297.62593 L89.4514602,297.62593 L89.4514602,303.916457 L89.324507,303.916457 L84.5637648,297.62593 L83.4973586,297.62593 L83.4973586,306.855422 L84.9573195,306.855422 Z M96.9991164,307.033156 C99.1763625,307.033156 100.382417,305.839797 100.382417,304.259231 C100.382417,302.93257 99.7476516,302.151809 98.0909133,301.60591 L96.7959914,301.180617 C95.8121047,300.856887 95.5074172,300.507766 95.5074172,299.898391 C95.5074172,299.219192 96.0342727,298.673293 97.1705031,298.673293 C98.0274367,298.673293 98.5606398,299.028762 98.9732375,299.619094 L100.10312,298.920852 C99.4937453,298.03218 98.6304641,297.448195 97.1831984,297.448195 C95.2915969,297.448195 94.1299758,298.514602 94.1299758,299.942824 C94.1299758,301.218703 94.8155227,301.993117 96.1421828,302.424758 L97.4751906,302.862746 C98.6368117,303.243606 98.9668898,303.700637 98.9668898,304.379836 C98.9668898,305.198684 98.2940383,305.795363 96.9991164,305.795363 C95.8946242,305.795363 95.2598586,305.37007 94.7520461,304.53218 L93.6031203,305.217727 C94.2632766,306.385695 95.2471633,307.033156 96.9991164,307.033156 Z M111.434273,306.855422 C114.271675,306.855422 116.042671,305.141555 116.042671,302.253371 C116.042671,299.365188 114.271675,297.62593 111.421577,297.62593 L108.527046,297.62593 L108.527046,306.855422 L111.434273,306.855422 Z M111.44062,305.490676 L109.993355,305.490676 L109.993355,298.990676 L111.44062,298.990676 C113.427437,298.990676 114.55732,300.120559 114.55732,302.247024 C114.55732,304.373488 113.427437,305.490676 111.44062,305.490676 Z M120.689448,306.855422 L120.689448,297.62593 L119.22314,297.62593 L119.22314,306.855422 L120.689448,306.855422 Z M126.846968,307.033156 C129.024214,307.033156 130.230269,305.839797 130.230269,304.259231 C130.230269,302.93257 129.595503,302.151809 127.938765,301.60591 L126.643843,301.180617 C125.659956,300.856887 125.355269,300.507766 125.355269,299.898391 C125.355269,299.219192 125.882124,298.673293 127.018355,298.673293 C127.875288,298.673293 128.408491,299.028762 128.821089,299.619094 L129.950972,298.920852 C129.341597,298.03218 128.478316,297.448195 127.03105,297.448195 C125.139448,297.448195 123.977827,298.514602 123.977827,299.942824 C123.977827,301.218703 124.663374,301.993117 125.990034,302.424758 L127.323042,302.862746 C128.484663,303.243606 128.814741,303.700637 128.814741,304.379836 C128.814741,305.198684 128.14189,305.795363 126.846968,305.795363 C125.742476,305.795363 125.10771,305.37007 124.599898,304.53218 L123.450972,305.217727 C124.111128,306.385695 125.095015,307.033156 126.846968,307.033156 Z M134.743745,306.855422 L134.743745,303.535598 L136.514741,303.535598 C138.533296,303.535598 139.71396,302.399367 139.71396,300.571242 C139.71396,298.800246 138.533296,297.62593 136.502046,297.62593 L133.271089,297.62593 L133.271089,306.855422 L134.743745,306.855422 Z M136.432222,302.266067 L134.743745,302.266067 L134.743745,298.889113 L136.432222,298.889113 C137.625581,298.889113 138.241304,299.606399 138.241304,300.583938 C138.241304,301.599563 137.619234,302.266067 136.432222,302.266067 Z M148.493062,306.855422 L148.493062,305.541457 L144.24648,305.541457 L144.24648,297.62593 L142.780171,297.62593 L142.780171,306.855422 L148.493062,306.855422 Z M152.092476,306.855422 L152.771675,305.020949 L156.745308,305.020949 L157.424507,306.855422 L159.081245,306.855422 L155.342476,297.594192 L154.244331,297.594192 L150.505562,306.855422 L152.092476,306.855422 Z M156.294624,303.802199 L153.222359,303.802199 L154.663277,299.911086 L154.860054,299.911086 L156.294624,303.802199 Z M164.286616,306.855422 L164.286616,303.040481 L167.841304,297.62593 L166.17187,297.62593 L163.670894,301.802688 L163.461421,301.802688 L161.049312,297.62593 L159.297359,297.62593 L162.807612,303.040481 L162.807612,306.855422 L164.286616,306.855422 Z M179.267671,306.855422 C181.197359,306.855422 182.371675,305.935012 182.371675,304.240188 C182.371675,303.129348 181.7623,302.373977 180.549898,302.113723 L180.549898,301.948684 C181.489351,301.682082 182.098726,301.053664 182.098726,300.006301 C182.098726,298.559035 181.025972,297.62593 178.962984,297.62593 L175.636812,297.62593 L175.636812,306.855422 L179.267671,306.855422 Z M178.950288,301.567824 L177.109468,301.567824 L177.109468,298.882766 L178.943941,298.882766 C180.118257,298.882766 180.632417,299.365188 180.632417,300.177688 C180.632417,301.09175 180.143648,301.567824 178.950288,301.567824 Z M179.172456,305.598586 L177.109468,305.598586 L177.109468,302.704055 L179.166109,302.704055 C180.372163,302.704055 180.905366,303.148391 180.905366,304.144973 C180.905366,305.173293 180.232515,305.598586 179.172456,305.598586 Z M189.436909,307.033156 C192.128316,307.033156 193.924702,305.15425 193.924702,302.253371 C193.924702,299.352492 192.128316,297.448195 189.436909,297.448195 C186.745503,297.448195 184.987202,299.352492 184.987202,302.253371 C184.987202,305.15425 186.751851,307.033156 189.436909,307.033156 Z M189.436909,305.681106 C187.551655,305.681106 186.472554,304.367141 186.472554,302.253371 C186.472554,300.145949 187.545308,298.800246 189.436909,298.800246 C191.328511,298.800246 192.439351,300.145949 192.439351,302.253371 C192.439351,304.367141 191.322163,305.681106 189.436909,305.681106 Z M202.74189,306.855422 L202.74189,305.541457 L198.495308,305.541457 L198.495308,297.62593 L197.028999,297.62593 L197.028999,306.855422 L202.74189,306.855422 Z M208.728023,306.855422 C211.565425,306.855422 213.336421,305.141555 213.336421,302.253371 C213.336421,299.365188 211.565425,297.62593 208.715327,297.62593 L205.820796,297.62593 L205.820796,306.855422 L208.728023,306.855422 Z M208.73437,305.490676 L207.287105,305.490676 L207.287105,298.990676 L208.73437,298.990676 C210.721187,298.990676 211.85107,300.120559 211.85107,302.247024 C211.85107,304.373488 210.721187,305.490676 208.73437,305.490676 Z M216.751753,309.070754 L217.646773,307.058547 L217.646773,304.982863 L215.710737,304.982863 L215.710737,306.855422 L216.599409,306.855422 L216.612105,306.906203 L215.653609,309.070754 L216.751753,309.070754 Z M228.590718,307.033156 C230.767964,307.033156 231.974019,305.839797 231.974019,304.259231 C231.974019,302.93257 231.339253,302.151809 229.682515,301.60591 L228.387593,301.180617 C227.403706,300.856887 227.099019,300.507766 227.099019,299.898391 C227.099019,299.219192 227.625874,298.673293 228.762105,298.673293 C229.619038,298.673293 230.152241,299.028762 230.564839,299.619094 L231.694722,298.920852 C231.085347,298.03218 230.222066,297.448195 228.7748,297.448195 C226.883198,297.448195 225.721577,298.514602 225.721577,299.942824 C225.721577,301.218703 226.407124,301.993117 227.733784,302.424758 L229.066792,302.862746 C230.228413,303.243606 230.558491,303.700637 230.558491,304.379836 C230.558491,305.198684 229.88564,305.795363 228.590718,305.795363 C227.486226,305.795363 226.85146,305.37007 226.343648,304.53218 L225.194722,305.217727 C225.854878,306.385695 226.838765,307.033156 228.590718,307.033156 Z M237.414253,307.033156 C239.591499,307.033156 240.797554,305.839797 240.797554,304.259231 C240.797554,302.93257 240.162788,302.151809 238.50605,301.60591 L237.211128,301.180617 C236.227241,300.856887 235.922554,300.507766 235.922554,299.898391 C235.922554,299.219192 236.449409,298.673293 237.58564,298.673293 C238.442573,298.673293 238.975777,299.028762 239.388374,299.619094 L240.518257,298.920852 C239.908882,298.03218 239.045601,297.448195 237.598335,297.448195 C235.706734,297.448195 234.545112,298.514602 234.545112,299.942824 C234.545112,301.218703 235.230659,301.993117 236.55732,302.424758 L237.890327,302.862746 C239.051948,303.243606 239.382027,303.700637 239.382027,304.379836 C239.382027,305.198684 238.709175,305.795363 237.414253,305.795363 C236.309761,305.795363 235.674995,305.37007 235.167183,304.53218 L234.018257,305.217727 C234.678413,306.385695 235.6623,307.033156 237.414253,307.033156 Z M246.644038,307.039504 C248.783198,307.039504 250.065425,305.420852 250.065425,302.253371 C250.065425,299.085891 248.783198,297.441848 246.644038,297.441848 C244.492183,297.441848 243.248042,299.085891 243.248042,302.253371 C243.248042,305.420852 244.492183,307.039504 246.644038,307.039504 Z M246.644038,305.674758 C245.374507,305.674758 244.727046,304.506789 244.727046,302.253371 C244.727046,299.999953 245.374507,298.806594 246.644038,298.806594 C247.907222,298.806594 248.586421,299.999953 248.586421,302.253371 C248.586421,304.506789 247.907222,305.674758 246.644038,305.674758 Z M256.229292,306.855422 L256.229292,297.562453 L255.258101,297.562453 C254.889937,299.200149 254.267866,299.555617 252.528609,299.600051 L252.528609,300.647414 L254.80107,300.647414 L254.80107,306.855422 L256.229292,306.855422 Z"/>
    </g>
    <g transform="translate(933.53 223)">
      <mask id="name_sans-extra-b" fill="#fff">
        <use xlink:href="#name_sans-extra-a"/>
      </mask>
      <rect width="167.938" height="52" y="3" fill="#FFA600" fill-opacity=".15" stroke="#FFA600" stroke-width="2" mask="url(#name_sans-extra-b)"/>
    </g>
  </g>
</svg>
