<svg xmlns="http://www.w3.org/2000/svg" width="1891" height="729" viewBox="0 0 1891 729">
  <g fill="none" fill-rule="evenodd">
    <rect width="1891" height="729" fill="#222"/>
    <g fill-rule="nonzero" transform="translate(53.705 .045)">
      <path fill="#FFF" d="M59.3443125 282L59.3443125 207.819609 120.936516 207.819609 120.936516 166.008844 59.3443125 166.008844 59.3443125 107.713547 157.202484 107.713547 157.202484 64.1044688 11.98875 64.1044688 11.98875 282 59.3443125 282zM256.109672 286.345922C309.159891 286.345922 343.028109 257.572922 343.028109 202.424672L343.028109 64.1044688 296.122125 64.1044688 296.122125 199.277625C296.122125 227.750906 282.9345 242.586984 256.858969 242.586984 230.783437 242.586984 218.494969 227.750906 218.494969 199.277625L218.494969 64.1044688 170.390109 64.1044688 170.390109 202.424672C170.390109 257.572922 203.509031 286.345922 256.109672 286.345922zM505.325812 282L505.325812 238.390922 413.162297 238.390922 413.162297 64.1044688 365.207297 64.1044688 365.207297 282 505.325812 282zM576.958594 282L576.958594 107.563688 641.547984 107.563688 641.547984 64.1044688 464.414203 64.1044688 464.414203 107.563688 529.003594 107.563688 529.003594 282 576.958594 282zM750.645609 284.997187C816.583734 284.997187 865.138172 239.889516 865.138172 173.351953 865.138172 106.814391 816.433875 61.1072813 750.645609 61.1072813 684.857344 61.1072813 637.052203 106.664531 637.052203 173.351953 637.052203 240.039375 684.707484 284.997187 750.645609 284.997187zM750.645609 241.537969C712.581328 241.537969 686.056219 213.963844 686.056219 173.351953 686.056219 132.740063 712.731187 104.5665 750.645609 104.5665 788.709891 104.5665 816.134156 133.039781 816.134156 173.351953 816.134156 213.664125 788.85975 241.537969 750.645609 241.537969zM931.076297 282L931.076297 155.818406 932.72475 155.818406 1034.77898 282 1068.94692 282 1068.94692 64.1044688 1022.1908 64.1044688 1022.1908 190.735641 1020.39248 190.735641 918.488109 64.1044688 884.320172 64.1044688 884.320172 282 931.076297 282zM1236.4897 284.997187C1287.44189 284.997187 1320.56081 258.322219 1320.56081 216.961031 1320.56081 187.588594 1304.376 167.357578 1268.11003 155.069109L1234.09195 143.529938C1217.75728 137.985141 1212.5122 131.691047 1212.5122 121.35075 1212.5122 108.762563 1221.95334 101.569313 1238.28802 101.569313 1254.17311 101.569313 1266.012 108.462844 1276.05258 122.399766L1309.1715 95.8746563C1292.23739 72.6464531 1269.60863 61.1072813 1238.28802 61.1072813 1195.42823 61.1072813 1166.80509 86.583375 1166.80509 123.598641 1166.80509 153.420656 1185.2378 174.251109 1218.057 185.040984L1251.6255 196.130578C1267.51059 201.375656 1273.50497 208.119328 1273.50497 219.6585 1273.50497 235.993172 1259.86777 244.535156 1238.88745 244.535156 1215.20967 244.535156 1200.22373 234.045 1186.58653 214.113703L1151.6693 241.687828C1171.90031 271.959422 1197.07669 284.997187 1236.4897 284.997187zM1556.88905 299.683406L1556.88905 257.572922 1541.41144 257.572637C1536.53245 257.565931 1535.01875 257.401654 1531.71267 253.376859L1528.71548 249.780234C1546.54875 230.448375 1557.03891 204.222984 1557.03891 173.351953 1557.03891 106.814391 1508.33461 61.1072813 1442.54634 61.1072813 1376.75808 61.1072813 1328.95294 106.664531 1328.95294 173.351953 1328.95294 240.039375 1376.60822 284.997187 1442.54634 284.997187 1460.67933 284.997187 1477.46358 281.550422 1492.44952 275.256328L1495.14698 279.002813C1507.28559 295.487344 1516.1273 299.683406 1536.50817 299.683406L1556.88905 299.683406zM1442.54634 241.537969C1404.48206 241.537969 1377.95695 213.963844 1377.95695 173.351953 1377.95695 132.740063 1404.63192 104.5665 1442.54634 104.5665 1480.61063 104.5665 1508.03489 133.039781 1508.03489 173.351953 1508.03489 188.637609 1504.13855 202.274812 1497.09516 213.064687L1479.86133 190.8855 1445.54353 218.159906 1462.92722 238.690641C1456.63312 240.488953 1449.73959 241.537969 1442.54634 241.537969zM1660.14216 286.345922C1713.19238 286.345922 1747.06059 257.572922 1747.06059 202.424672L1747.06059 64.1044688 1700.15461 64.1044688 1700.15461 199.277625C1700.15461 227.750906 1686.96698 242.586984 1660.89145 242.586984 1634.81592 242.586984 1622.52745 227.750906 1622.52745 199.277625L1622.52745 64.1044688 1574.42259 64.1044688 1574.42259 202.424672C1574.42259 257.572922 1607.54152 286.345922 1660.14216 286.345922zM1794.11644 282L1808.05336 246.783047 1894.82194 246.783047 1908.90872 282 1961.05978 282 1869.34584 64.1044688 1834.72833 64.1044688 1743.16425 282 1794.11644 282zM1878.78698 206.920453L1823.78859 206.920453 1850.3137 139.483734 1851.8123 139.483734 1878.78698 206.920453zM2019.50494 282L2019.50494 206.620734 2050.52583 206.620734 2086.7918 282 2138.94286 282 2096.83237 198.828047C2121.10959 187.738453 2134.59694 165.259547 2134.59694 135.137813 2134.59694 91.2290156 2105.82394 64.1044688 2056.5202 64.1044688L1971.99952 64.1044688 1971.99952 282 2019.50494 282zM2055.17147 165.858984L2019.50494 165.858984 2019.50494 104.866219 2055.32133 104.866219C2077.35066 104.866219 2087.69095 117.454406 2087.69095 135.73725 2087.69095 153.720375 2077.2008 165.858984 2055.17147 165.858984zM2303.03888 282L2303.03888 238.540781 2200.98464 238.540781 2200.98464 192.234234 2251.33739 192.234234 2251.33739 149.074734 2200.98464 149.074734 2200.98464 107.563688 2298.24338 107.563688 2298.24338 64.1044688 2153.47922 64.1044688 2153.47922 282 2303.03888 282zM59.3443125 619L59.3443125 544.819609 120.936516 544.819609 120.936516 503.008844 59.3443125 503.008844 59.3443125 444.713547 157.202484 444.713547 157.202484 401.104469 11.98875 401.104469 11.98875 619 59.3443125 619zM275.291672 621.997187C314.854547 621.997187 342.278813 601.916031 342.278813 558.906391L342.278813 401.104469 294.473672 401.104469 294.473672 550.664125C294.473672 571.794297 286.680984 578.687828 267.199266 578.687828L246.518672 578.687828C226.737234 578.687828 219.543984 572.393734 219.543984 550.664125L219.543984 401.104469 171.588984 401.104469 171.588984 559.05625C171.588984 601.166734 195.116906 621.997187 238.126547 621.997187L275.291672 621.997187zM505.775391 619L505.775391 575.390922 413.611875 575.390922 413.611875 401.104469 365.656875 401.104469 365.656875 619 505.775391 619zM577.408172 619L577.408172 444.563688 641.997563 444.563688 641.997563 401.104469 464.863781 401.104469 464.863781 444.563688 529.453172 444.563688 529.453172 619 577.408172 619zM742.103625 622.746484C795.153844 622.746484 829.171922 592.924469 829.171922 538.825234L829.171922 481.728813C829.171922 427.629578 795.153844 397.807563 742.253484 397.807563 689.053406 397.807563 655.035328 427.629578 655.035328 481.728813L655.035328 538.825234C655.035328 592.924469 688.903547 622.746484 742.103625 622.746484zM742.103625 579.437125C715.278797 579.437125 702.840469 565.050625 702.840469 537.176781L702.840469 483.227406C702.840469 455.353563 715.128938 441.116922 742.103625 441.116922 768.928453 441.116922 781.366781 455.353563 781.366781 483.227406L781.366781 537.176781C781.366781 565.050625 768.928453 579.437125 742.103625 579.437125zM898.107234 619L898.107234 494.317 899.905547 494.317 992.368781 619 1026.53672 619 1026.53672 401.104469 979.480875 401.104469 979.480875 526.237047 977.682563 526.237047 885.069469 401.104469 850.901531 401.104469 850.901531 619 898.107234 619zM1194.0795 621.997187C1245.03169 621.997187 1278.15061 595.322219 1278.15061 553.961031 1278.15061 524.588594 1261.9658 504.357578 1225.69983 492.069109L1191.68175 480.529938C1175.34708 474.985141 1170.102 468.691047 1170.102 458.35075 1170.102 445.762563 1179.54314 438.569313 1195.87781 438.569313 1211.76291 438.569313 1223.6018 445.462844 1233.64238 459.399766L1266.7613 432.874656C1249.82719 409.646453 1227.19842 398.107281 1195.87781 398.107281 1153.01803 398.107281 1124.39489 423.583375 1124.39489 460.598641 1124.39489 490.420656 1142.82759 511.251109 1175.6468 522.040984L1209.2153 533.130578C1225.10039 538.375656 1231.09477 545.119328 1231.09477 556.6585 1231.09477 572.993172 1217.45756 581.535156 1196.47725 581.535156 1172.79947 581.535156 1157.81353 571.045 1144.17633 551.113703L1109.25909 578.687828C1129.49011 608.959422 1154.66648 621.997187 1194.0795 621.997187zM1428.90914 639.980312L1464.72553 615.403375 1449.73959 594.273203C1460.82919 580.486141 1466.97342 561.753719 1466.97342 538.825234L1466.97342 481.728813C1466.97342 427.629578 1432.95534 397.807563 1380.05498 397.807563 1326.85491 397.807563 1292.83683 427.629578 1292.83683 481.728813L1292.83683 538.825234C1292.83683 592.924469 1326.70505 622.746484 1379.90513 622.746484 1392.19359 622.746484 1403.28319 621.098031 1413.32377 618.100844L1428.90914 639.980312zM1379.90513 579.437125C1353.0803 579.437125 1340.64197 565.050625 1340.64197 537.176781L1340.64197 483.227406C1340.64197 455.353563 1352.93044 441.116922 1379.90513 441.116922 1406.72995 441.116922 1419.16828 455.353563 1419.16828 483.227406L1419.16828 537.176781C1419.16828 544.220172 1418.41898 550.364406 1416.77053 555.609484L1405.98066 540.923266 1373.31131 565.200484 1383.80147 579.287266C1382.60259 579.437125 1381.25386 579.437125 1379.90513 579.437125zM1591.3567 621.997187C1630.91958 621.997187 1658.34384 601.916031 1658.34384 558.906391L1658.34384 401.104469 1610.5387 401.104469 1610.5387 550.664125C1610.5387 571.794297 1602.74602 578.687828 1583.2643 578.687828L1562.5837 578.687828C1542.80227 578.687828 1535.60902 572.393734 1535.60902 550.664125L1535.60902 401.104469 1487.65402 401.104469 1487.65402 559.05625C1487.65402 601.166734 1511.18194 621.997187 1554.19158 621.997187L1591.3567 621.997187zM1710.64477 619L1724.58169 583.783047 1811.35027 583.783047 1825.43705 619 1877.58811 619 1785.87417 401.104469 1751.25666 401.104469 1659.69258 619 1710.64477 619zM1795.31531 543.920453L1740.31692 543.920453 1766.84203 476.483734 1768.34063 476.483734 1795.31531 543.920453zM1936.03327 619L1936.03327 553.061875 1971.84966 553.061875 2001.82153 619 2055.02161 619 2019.95452 545.868625C2039.13652 536.577344 2049.02723 518.444359 2049.02723 496.415031L2049.02723 459.100047C2049.02723 424.032953 2026.84805 401.104469 1985.48686 401.104469L1888.52784 401.104469 1888.52784 619 1936.03327 619zM1978.59333 513.499L1936.03327 513.499 1936.03327 441.5665 1978.44347 441.5665C1995.22772 441.5665 2003.02041 446.062281 2003.02041 465.843719L2003.02041 488.622344C2003.02041 508.403781 1994.77814 513.499 1978.59333 513.499zM2217.91875 619L2217.91875 575.390922 2117.96255 575.390922 2117.96255 521.741266 2175.35869 521.741266 2175.35869 479.9305 2117.96255 479.9305 2117.96255 444.713547 2216.57002 444.713547 2216.57002 401.104469 2070.45713 401.104469 2070.45713 619 2217.91875 619z"/>
      <path fill="#FFA600" d="M13.4289016 335.110422L13.4289016 328.826242 13.56855 328.826242 18.3229445 335.110422 19.3830031 335.110422 19.3830031 325.88093 17.9230422 325.88093 17.9230422 332.171457 17.7960891 332.171457 13.0353469 325.88093 11.9689406 325.88093 11.9689406 335.110422 13.4289016 335.110422zM23.6298782 335.110422L24.3090774 333.275949 28.2827102 333.275949 28.9619094 335.110422 30.6186477 335.110422 26.8798782 325.849192 25.7817336 325.849192 22.0429641 335.110422 23.6298782 335.110422zM27.8320266 332.057199L24.759761 332.057199 26.200679 328.166086 26.3974563 328.166086 27.8320266 332.057199zM34.694136 335.110422L34.694136 329.359445 34.8401321 329.359445 37.4363235 335.110422 38.3567337 335.110422 40.9529251 329.359445 41.0989212 329.359445 41.0989212 335.110422 42.5081009 335.110422 42.5081009 325.88093 41.1814407 325.88093 37.9885696 332.914133 37.8552688 332.914133 34.6433548 325.88093 33.2786087 325.88093 33.2786087 335.110422 34.694136 335.110422zM52.3282181 335.110422L52.3282181 333.853586 47.6626908 333.853586 47.6626908 331.003488 50.4873978 331.003488 50.4873978 329.759348 47.6626908 329.759348 47.6626908 327.137766 52.163179 327.137766 52.163179 325.88093 46.1963822 325.88093 46.1963822 335.110422 52.3282181 335.110422zM62.986519 335.288156C65.1637651 335.288156 66.3698198 334.094797 66.3698198 332.514231 66.3698198 331.18757 65.7350541 330.406809 64.0783159 329.86091L62.783394 329.435617C61.7995073 329.111887 61.4948198 328.762766 61.4948198 328.153391 61.4948198 327.474192 62.0216752 326.928293 63.1579057 326.928293 64.0148393 326.928293 64.5480424 327.283762 64.9606401 327.874094L66.0905229 327.175852C65.4811479 326.28718 64.6178666 325.703195 63.170601 325.703195 61.2789995 325.703195 60.1173784 326.769602 60.1173784 328.197824 60.1173784 329.473703 60.8029252 330.248117 62.1295854 330.679758L63.4625932 331.117746C64.6242143 331.498606 64.9542924 331.955637 64.9542924 332.634836 64.9542924 333.453684 64.2814409 334.050363 62.986519 334.050363 61.8820268 334.050363 61.2472612 333.62507 60.7394487 332.78718L59.5905229 333.472727C60.2506791 334.640695 61.2345659 335.288156 62.986519 335.288156zM69.8486284 335.110422L70.5278276 333.275949 74.5014604 333.275949 75.1806597 335.110422 76.8373979 335.110422 73.0986284 325.849192 72.0004839 325.849192 68.2617143 335.110422 69.8486284 335.110422zM74.0507768 332.057199L70.9785112 332.057199 72.4194292 328.166086 72.6162065 328.166086 74.0507768 332.057199zM80.9573199 335.110422L80.9573199 328.826242 81.0969683 328.826242 85.8513628 335.110422 86.9114214 335.110422 86.9114214 325.88093 85.4514605 325.88093 85.4514605 332.171457 85.3245074 332.171457 80.5637652 325.88093 79.4973589 325.88093 79.4973589 335.110422 80.9573199 335.110422zM92.9991168 335.288156C95.1763629 335.288156 96.3824176 334.094797 96.3824176 332.514231 96.3824176 331.18757 95.7476519 330.406809 94.0909137 329.86091L92.7959918 329.435617C91.8121051 329.111887 91.5074176 328.762766 91.5074176 328.153391 91.5074176 327.474192 92.034273 326.928293 93.1705035 326.928293 94.0274371 326.928293 94.5606402 327.283762 94.9732379 327.874094L96.1031207 327.175852C95.4937457 326.28718 94.6304644 325.703195 93.1831988 325.703195 91.2915973 325.703195 90.1299762 326.769602 90.1299762 328.197824 90.1299762 329.473703 90.815523 330.248117 92.1421832 330.679758L93.475191 331.117746C94.6368121 331.498606 94.9668902 331.955637 94.9668902 332.634836 94.9668902 333.453684 94.2940387 334.050363 92.9991168 334.050363 91.8946246 334.050363 91.259859 333.62507 90.7520465 332.78718L89.6031207 333.472727C90.2632769 334.640695 91.2471637 335.288156 92.9991168 335.288156zM107.434273 335.110422C110.271675 335.110422 112.042672 333.396555 112.042672 330.508371 112.042672 327.620188 110.271675 325.88093 107.421578 325.88093L104.527047 325.88093 104.527047 335.110422 107.434273 335.110422zM107.440621 333.745676L105.993355 333.745676 105.993355 327.245676 107.440621 327.245676C109.427437 327.245676 110.55732 328.375559 110.55732 330.502024 110.55732 332.628488 109.427437 333.745676 107.440621 333.745676zM116.689449 335.110422L116.689449 325.88093 115.22314 325.88093 115.22314 335.110422 116.689449 335.110422zM122.846969 335.288156C125.024215 335.288156 126.230269 334.094797 126.230269 332.514231 126.230269 331.18757 125.595504 330.406809 123.938765 329.86091L122.643844 329.435617C121.659957 329.111887 121.355269 328.762766 121.355269 328.153391 121.355269 327.474192 121.882125 326.928293 123.018355 326.928293 123.875289 326.928293 124.408492 327.283762 124.82109 327.874094L125.950972 327.175852C125.341597 326.28718 124.478316 325.703195 123.031051 325.703195 121.139449 325.703195 119.977828 326.769602 119.977828 328.197824 119.977828 329.473703 120.663375 330.248117 121.990035 330.679758L123.323043 331.117746C124.484664 331.498606 124.814742 331.955637 124.814742 332.634836 124.814742 333.453684 124.14189 334.050363 122.846969 334.050363 121.742476 334.050363 121.107711 333.62507 120.599898 332.78718L119.450972 333.472727C120.111129 334.640695 121.095015 335.288156 122.846969 335.288156zM130.743746 335.110422L130.743746 331.790598 132.514742 331.790598C134.533297 331.790598 135.713961 330.654367 135.713961 328.826242 135.713961 327.055246 134.533297 325.88093 132.502047 325.88093L129.27109 325.88093 129.27109 335.110422 130.743746 335.110422zM132.432222 330.521067L130.743746 330.521067 130.743746 327.144113 132.432222 327.144113C133.625582 327.144113 134.241305 327.861399 134.241305 328.838938 134.241305 329.854563 133.619234 330.521067 132.432222 330.521067zM144.493062 335.110422L144.493062 333.796457 140.24648 333.796457 140.24648 325.88093 138.780172 325.88093 138.780172 335.110422 144.493062 335.110422zM148.092476 335.110422L148.771676 333.275949 152.745309 333.275949 153.424508 335.110422 155.081246 335.110422 151.342476 325.849192 150.244332 325.849192 146.505562 335.110422 148.092476 335.110422zM152.294625 332.057199L149.222359 332.057199 150.663277 328.166086 150.860055 328.166086 152.294625 332.057199zM160.286617 335.110422L160.286617 331.295481 163.841305 325.88093 162.171871 325.88093 159.670895 330.057688 159.461422 330.057688 157.049312 325.88093 155.297359 325.88093 158.807613 331.295481 158.807613 335.110422 160.286617 335.110422zM175.267672 335.110422C177.197359 335.110422 178.371676 334.190012 178.371676 332.495188 178.371676 331.384348 177.762301 330.628977 176.549899 330.368723L176.549899 330.203684C177.489352 329.937082 178.098727 329.308664 178.098727 328.261301 178.098727 326.814035 177.025973 325.88093 174.962984 325.88093L171.636813 325.88093 171.636813 335.110422 175.267672 335.110422zM174.950289 329.822824L173.109469 329.822824 173.109469 327.137766 174.943941 327.137766C176.118258 327.137766 176.632418 327.620188 176.632418 328.432688 176.632418 329.34675 176.143649 329.822824 174.950289 329.822824zM175.172457 333.853586L173.109469 333.853586 173.109469 330.959055 175.166109 330.959055C176.372164 330.959055 176.905367 331.403391 176.905367 332.399973 176.905367 333.428293 176.232516 333.853586 175.172457 333.853586zM185.43691 335.288156C188.128317 335.288156 189.924703 333.40925 189.924703 330.508371 189.924703 327.607492 188.128317 325.703195 185.43691 325.703195 182.745504 325.703195 180.987203 327.607492 180.987203 330.508371 180.987203 333.40925 182.751852 335.288156 185.43691 335.288156zM185.43691 333.936106C183.551656 333.936106 182.472555 332.622141 182.472555 330.508371 182.472555 328.400949 183.545309 327.055246 185.43691 327.055246 187.328512 327.055246 188.439352 328.400949 188.439352 330.508371 188.439352 332.622141 187.322164 333.936106 185.43691 333.936106zM198.741891 335.110422L198.741891 333.796457 194.495309 333.796457 194.495309 325.88093 193.029 325.88093 193.029 335.110422 198.741891 335.110422zM204.728024 335.110422C207.565426 335.110422 209.336422 333.396555 209.336422 330.508371 209.336422 327.620188 207.565426 325.88093 204.715328 325.88093L201.820797 325.88093 201.820797 335.110422 204.728024 335.110422zM204.734371 333.745676L203.287106 333.745676 203.287106 327.245676 204.734371 327.245676C206.721188 327.245676 207.851071 328.375559 207.851071 330.502024 207.851071 332.628488 206.721188 333.745676 204.734371 333.745676zM13.4289016 672L13.4289016 665.71582 13.56855 665.71582 18.3229445 672 19.3830031 672 19.3830031 662.770508 17.9230422 662.770508 17.9230422 669.061035 17.7960891 669.061035 13.0353469 662.770508 11.9689406 662.770508 11.9689406 672 13.4289016 672zM23.6298782 672L24.3090774 670.165527 28.2827102 670.165527 28.9619094 672 30.6186477 672 26.8798782 662.73877 25.7817336 662.73877 22.0429641 672 23.6298782 672zM27.8320266 668.946777L24.759761 668.946777 26.200679 665.055664 26.3974563 665.055664 27.8320266 668.946777zM34.694136 672L34.694136 666.249023 34.8401321 666.249023 37.4363235 672 38.3567337 672 40.9529251 666.249023 41.0989212 666.249023 41.0989212 672 42.5081009 672 42.5081009 662.770508 41.1814407 662.770508 37.9885696 669.803711 37.8552688 669.803711 34.6433548 662.770508 33.2786087 662.770508 33.2786087 672 34.694136 672zM52.3282181 672L52.3282181 670.743164 47.6626908 670.743164 47.6626908 667.893066 50.4873978 667.893066 50.4873978 666.648926 47.6626908 666.648926 47.6626908 664.027344 52.163179 664.027344 52.163179 662.770508 46.1963822 662.770508 46.1963822 672 52.3282181 672zM62.986519 672.177734C65.1637651 672.177734 66.3698198 670.984375 66.3698198 669.403809 66.3698198 668.077148 65.7350541 667.296387 64.0783159 666.750488L62.783394 666.325195C61.7995073 666.001465 61.4948198 665.652344 61.4948198 665.042969 61.4948198 664.36377 62.0216752 663.817871 63.1579057 663.817871 64.0148393 663.817871 64.5480424 664.17334 64.9606401 664.763672L66.0905229 664.06543C65.4811479 663.176758 64.6178666 662.592773 63.170601 662.592773 61.2789995 662.592773 60.1173784 663.65918 60.1173784 665.087402 60.1173784 666.363281 60.8029252 667.137695 62.1295854 667.569336L63.4625932 668.007324C64.6242143 668.388184 64.9542924 668.845215 64.9542924 669.524414 64.9542924 670.343262 64.2814409 670.939941 62.986519 670.939941 61.8820268 670.939941 61.2472612 670.514648 60.7394487 669.676758L59.5905229 670.362305C60.2506791 671.530273 61.2345659 672.177734 62.986519 672.177734zM69.8486284 672L70.5278276 670.165527 74.5014604 670.165527 75.1806597 672 76.8373979 672 73.0986284 662.73877 72.0004839 662.73877 68.2617143 672 69.8486284 672zM74.0507768 668.946777L70.9785112 668.946777 72.4194292 665.055664 72.6162065 665.055664 74.0507768 668.946777zM80.9573199 672L80.9573199 665.71582 81.0969683 665.71582 85.8513628 672 86.9114214 672 86.9114214 662.770508 85.4514605 662.770508 85.4514605 669.061035 85.3245074 669.061035 80.5637652 662.770508 79.4973589 662.770508 79.4973589 672 80.9573199 672zM92.9991168 672.177734C95.1763629 672.177734 96.3824176 670.984375 96.3824176 669.403809 96.3824176 668.077148 95.7476519 667.296387 94.0909137 666.750488L92.7959918 666.325195C91.8121051 666.001465 91.5074176 665.652344 91.5074176 665.042969 91.5074176 664.36377 92.034273 663.817871 93.1705035 663.817871 94.0274371 663.817871 94.5606402 664.17334 94.9732379 664.763672L96.1031207 664.06543C95.4937457 663.176758 94.6304644 662.592773 93.1831988 662.592773 91.2915973 662.592773 90.1299762 663.65918 90.1299762 665.087402 90.1299762 666.363281 90.815523 667.137695 92.1421832 667.569336L93.475191 668.007324C94.6368121 668.388184 94.9668902 668.845215 94.9668902 669.524414 94.9668902 670.343262 94.2940387 670.939941 92.9991168 670.939941 91.8946246 670.939941 91.259859 670.514648 90.7520465 669.676758L89.6031207 670.362305C90.2632769 671.530273 91.2471637 672.177734 92.9991168 672.177734zM107.434273 672C110.271675 672 112.042672 670.286133 112.042672 667.397949 112.042672 664.509766 110.271675 662.770508 107.421578 662.770508L104.527047 662.770508 104.527047 672 107.434273 672zM107.440621 670.635254L105.993355 670.635254 105.993355 664.135254 107.440621 664.135254C109.427437 664.135254 110.55732 665.265137 110.55732 667.391602 110.55732 669.518066 109.427437 670.635254 107.440621 670.635254zM116.689449 672L116.689449 662.770508 115.22314 662.770508 115.22314 672 116.689449 672zM122.846969 672.177734C125.024215 672.177734 126.230269 670.984375 126.230269 669.403809 126.230269 668.077148 125.595504 667.296387 123.938765 666.750488L122.643844 666.325195C121.659957 666.001465 121.355269 665.652344 121.355269 665.042969 121.355269 664.36377 121.882125 663.817871 123.018355 663.817871 123.875289 663.817871 124.408492 664.17334 124.82109 664.763672L125.950972 664.06543C125.341597 663.176758 124.478316 662.592773 123.031051 662.592773 121.139449 662.592773 119.977828 663.65918 119.977828 665.087402 119.977828 666.363281 120.663375 667.137695 121.990035 667.569336L123.323043 668.007324C124.484664 668.388184 124.814742 668.845215 124.814742 669.524414 124.814742 670.343262 124.14189 670.939941 122.846969 670.939941 121.742476 670.939941 121.107711 670.514648 120.599898 669.676758L119.450972 670.362305C120.111129 671.530273 121.095015 672.177734 122.846969 672.177734zM130.743746 672L130.743746 668.680176 132.514742 668.680176C134.533297 668.680176 135.713961 667.543945 135.713961 665.71582 135.713961 663.944824 134.533297 662.770508 132.502047 662.770508L129.27109 662.770508 129.27109 672 130.743746 672zM132.432222 667.410645L130.743746 667.410645 130.743746 664.033691 132.432222 664.033691C133.625582 664.033691 134.241305 664.750977 134.241305 665.728516 134.241305 666.744141 133.619234 667.410645 132.432222 667.410645zM144.493062 672L144.493062 670.686035 140.24648 670.686035 140.24648 662.770508 138.780172 662.770508 138.780172 672 144.493062 672zM148.092476 672L148.771676 670.165527 152.745309 670.165527 153.424508 672 155.081246 672 151.342476 662.73877 150.244332 662.73877 146.505562 672 148.092476 672zM152.294625 668.946777L149.222359 668.946777 150.663277 665.055664 150.860055 665.055664 152.294625 668.946777zM160.286617 672L160.286617 668.185059 163.841305 662.770508 162.171871 662.770508 159.670895 666.947266 159.461422 666.947266 157.049312 662.770508 155.297359 662.770508 158.807613 668.185059 158.807613 672 160.286617 672zM175.267672 672C177.197359 672 178.371676 671.07959 178.371676 669.384766 178.371676 668.273926 177.762301 667.518555 176.549899 667.258301L176.549899 667.093262C177.489352 666.82666 178.098727 666.198242 178.098727 665.150879 178.098727 663.703613 177.025973 662.770508 174.962984 662.770508L171.636813 662.770508 171.636813 672 175.267672 672zM174.950289 666.712402L173.109469 666.712402 173.109469 664.027344 174.943941 664.027344C176.118258 664.027344 176.632418 664.509766 176.632418 665.322266 176.632418 666.236328 176.143649 666.712402 174.950289 666.712402zM175.172457 670.743164L173.109469 670.743164 173.109469 667.848633 175.166109 667.848633C176.372164 667.848633 176.905367 668.292969 176.905367 669.289551 176.905367 670.317871 176.232516 670.743164 175.172457 670.743164zM185.43691 672.177734C188.128317 672.177734 189.924703 670.298828 189.924703 667.397949 189.924703 664.49707 188.128317 662.592773 185.43691 662.592773 182.745504 662.592773 180.987203 664.49707 180.987203 667.397949 180.987203 670.298828 182.751852 672.177734 185.43691 672.177734zM185.43691 670.825684C183.551656 670.825684 182.472555 669.511719 182.472555 667.397949 182.472555 665.290527 183.545309 663.944824 185.43691 663.944824 187.328512 663.944824 188.439352 665.290527 188.439352 667.397949 188.439352 669.511719 187.322164 670.825684 185.43691 670.825684zM198.741891 672L198.741891 670.686035 194.495309 670.686035 194.495309 662.770508 193.029 662.770508 193.029 672 198.741891 672zM204.728024 672C207.565426 672 209.336422 670.286133 209.336422 667.397949 209.336422 664.509766 207.565426 662.770508 204.715328 662.770508L201.820797 662.770508 201.820797 672 204.728024 672zM204.734371 670.635254L203.287106 670.635254 203.287106 664.135254 204.734371 664.135254C206.721188 664.135254 207.851071 665.265137 207.851071 667.391602 207.851071 669.518066 206.721188 670.635254 204.734371 670.635254zM212.751754 674.215332L213.646774 672.203125 213.646774 670.127441 211.710739 670.127441 211.710739 672 212.59941 672 212.612106 672.050781 211.65361 674.215332 212.751754 674.215332zM224.590719 672.177734C226.767965 672.177734 227.97402 670.984375 227.97402 669.403809 227.97402 668.077148 227.339254 667.296387 225.682516 666.750488L224.387594 666.325195C223.403707 666.001465 223.09902 665.652344 223.09902 665.042969 223.09902 664.36377 223.625875 663.817871 224.762106 663.817871 225.619039 663.817871 226.152243 664.17334 226.56484 664.763672L227.694723 664.06543C227.085348 663.176758 226.222067 662.592773 224.774801 662.592773 222.8832 662.592773 221.721578 663.65918 221.721578 665.087402 221.721578 666.363281 222.407125 667.137695 223.733786 667.569336L225.066793 668.007324C226.228414 668.388184 226.558493 668.845215 226.558493 669.524414 226.558493 670.343262 225.885641 670.939941 224.590719 670.939941 223.486227 670.939941 222.851461 670.514648 222.343649 669.676758L221.194723 670.362305C221.854879 671.530273 222.838766 672.177734 224.590719 672.177734zM233.414254 672.177734C235.5915 672.177734 236.797555 670.984375 236.797555 669.403809 236.797555 668.077148 236.162789 667.296387 234.506051 666.750488L233.211129 666.325195C232.227243 666.001465 231.922555 665.652344 231.922555 665.042969 231.922555 664.36377 232.449411 663.817871 233.585641 663.817871 234.442575 663.817871 234.975778 664.17334 235.388375 664.763672L236.518258 664.06543C235.908883 663.176758 235.045602 662.592773 233.598336 662.592773 231.706735 662.592773 230.545114 663.65918 230.545114 665.087402 230.545114 666.363281 231.230661 667.137695 232.557321 667.569336L233.890329 668.007324C235.05195 668.388184 235.382028 668.845215 235.382028 669.524414 235.382028 670.343262 234.709176 670.939941 233.414254 670.939941 232.309762 670.939941 231.674997 670.514648 231.167184 669.676758L230.018258 670.362305C230.678414 671.530273 231.662301 672.177734 233.414254 672.177734zM242.64404 672.184082C244.7832 672.184082 246.065426 670.56543 246.065426 667.397949 246.065426 664.230469 244.7832 662.586426 242.64404 662.586426 240.492184 662.586426 239.248043 664.230469 239.248043 667.397949 239.248043 670.56543 240.492184 672.184082 242.64404 672.184082zM242.64404 670.819336C241.374508 670.819336 240.727047 669.651367 240.727047 667.397949 240.727047 665.144531 241.374508 663.951172 242.64404 663.951172 243.907223 663.951172 244.586422 665.144531 244.586422 667.397949 244.586422 669.651367 243.907223 670.819336 242.64404 670.819336zM252.229293 672L252.229293 662.707031 251.258102 662.707031C250.889938 664.344727 250.267868 664.700195 248.52861 664.744629L248.52861 665.791992 250.801071 665.791992 250.801071 672 252.229293 672z"/>
    </g>
  </g>
</svg>
