<svg xmlns="http://www.w3.org/2000/svg" width="1072" height="768" viewBox="0 0 1072 768">
  <g fill="none" fill-rule="evenodd">
    <rect width="1072" height="768" fill="#222"/>
    <g transform="translate(45.71 45.499)">
      <path fill="#FFF" fill-rule="nonzero" d="M130.173425,632.979123 L130.173425,373.953966 C130.173425,312.571534 160.211636,285.580677 208.09864,285.580677 C256.42098,285.580677 286.459192,312.571534 286.459192,373.953966 L286.459192,632.979123 L416.189439,632.979123 L416.189439,368.729929 C416.189439,245.529729 353.500997,175.005232 245.972907,175.005232 C183.284465,175.005232 139.750826,201.125416 115.371987,240.741028 L112.324633,240.741028 L104.923914,187.194651 L0.443178119,187.194651 L0.443178119,632.979123 L130.173425,632.979123 Z" opacity=".3"/>
      <path fill="#FFF" fill-rule="nonzero" d="M240.359185,646.909888 C380.972842,646.909888 480.664877,545.476507 480.664877,410.522224 C480.664877,275.132604 380.537506,173.263887 240.359185,173.263887 C100.180865,173.263887 0.0534933223,275.132604 0.0534933223,410.522224 C0.0534933223,545.476507 99.7455286,646.909888 240.359185,646.909888 Z M240.359185,528.498388 C174.623389,528.498388 130.654413,480.176047 130.654413,410.522224 C130.654413,340.433064 174.623389,291.240051 240.359185,291.240051 C305.659645,291.240051 350.063958,340.433064 350.063958,410.522224 C350.063958,480.176047 306.094981,528.498388 240.359185,528.498388 Z" opacity=".3"/>
      <path stroke="#FFA600" stroke-width="1.673" d="M260.766503,642.556524 C373.083293,642.556524 464.939274,558.971936 464.939274,410.086887 C464.939274,261.201839 373.953966,179.793933 261.201839,179.793933 C203.737434,179.793933 162.815813,199.38407 132.777602,231.163628 L129.29491,231.163628 L129.29491,0 L0,0 L0,632.979123 L111.010782,632.979123 L119.71751,572.032028 L122.329528,572.032028 C149.755721,616.001004 194.59537,642.556524 260.766503,642.556524 Z M230.728291,530.67507 C172.82855,530.67507 127.988901,486.706093 127.988901,410.95756 C127.988901,333.903018 170.651868,291.675387 230.292955,291.675387 C289.934041,291.675387 331.290999,336.950372 331.290999,411.392897 C331.290999,485.835421 289.063369,530.67507 230.728291,530.67507 Z"/>
      <g transform="translate(528.981)">
        <path fill="#FFF" fill-rule="nonzero" d="M60.6680574,632.979123 L60.6680574,378.742667 C60.6680574,287.322023 108.990398,236.823001 189.092295,236.823001 C268.758856,236.823001 317.516533,284.274668 317.516533,377.001321 L317.516533,632.979123 L373.239592,632.979123 L373.239592,374.389303 C373.239592,254.671793 310.115814,188.935997 202.587723,188.935997 C125.097844,188.935997 79.3875226,222.892236 54.1380115,274.697267 L52.8320023,274.697267 L49.3493111,200.69008 L4.50966204,200.69008 L4.50966204,632.979123 L60.6680574,632.979123 Z" opacity=".3"/>
        <path fill="#FFF" fill-rule="nonzero" d="M227.680936,645.603879 C360.023202,645.603879 455.797209,548.088526 455.797209,417.487606 C455.797209,286.016014 360.023202,188.500661 227.680936,188.500661 C95.7740077,188.935997 0,286.016014 0,417.487606 C0,548.523862 95.7740077,645.603879 227.680936,645.603879 Z M227.680936,595.104857 C127.118228,595.104857 55.2877226,520.662333 55.2877226,417.487606 C55.2877226,313.442207 127.118228,238.12901 227.680936,238.12901 C328.678981,238.12901 400.944823,313.442207 400.944823,417.487606 C400.944823,520.662333 328.678981,595.104857 227.680936,595.104857 Z" opacity=".3"/>
        <path stroke="#FFA600" stroke-width="1.673" d="M224.090385,644.29787 C342.066549,644.29787 428.263156,555.924581 428.263156,416.181597 C428.263156,276.873949 343.372558,190.677343 224.090385,190.677343 C143.988487,190.677343 92.6187924,225.939591 59.9685625,279.485968 L58.2272169,279.485968 L58.2272169,3.72892828e-12 L2.50415794,3.72892828e-12 L2.50415794,632.979123 L50.3911618,632.979123 L53.873853,544.605834 L55.1798621,544.605834 C90.8774468,609.906294 139.635123,644.29787 224.090385,644.29787 Z M214.512984,595.540193 C123.527677,595.540193 57.7918805,524.145024 57.7918805,417.05227 C57.7918805,306.912161 120.480322,238.564346 214.512984,238.564346 C307.239637,238.564346 370.363415,309.088843 370.363415,416.616933 C370.363415,524.145024 306.368964,595.540193 214.512984,595.540193 Z"/>
      </g>
      <path fill="#FFA600" fill-rule="nonzero" d="M1.58026172 680.045524L1.58026172 673.243528 1.73141719 673.243528 6.87757383 680.045524 8.02498125 680.045524 8.02498125 670.055522 6.44471953 670.055522 6.44471953 676.864389 6.30730547 676.864389 1.15427813 670.055522 2.98427949e-13 670.055522 2.98427949e-13 680.045524 1.58026172 680.045524zM12.6217988 680.045524L13.356964 678.059891 17.6580241 678.059891 18.3931894 680.045524 20.1864429 680.045524 16.1395988 670.021169 14.9509671 670.021169 10.904123 680.045524 12.6217988 680.045524zM17.1702042 676.740716L13.8447839 676.740716 15.4044335 672.528975 15.6174253 672.528975 17.1702042 676.740716zM24.5977514 680.045524L24.5977514 673.820667 24.7557776 673.820667 27.5658952 680.045524 28.5621471 680.045524 31.3722647 673.820667 31.5302909 673.820667 31.5302909 680.045524 33.055587 680.045524 33.055587 670.055522 31.61961 670.055522 28.1636463 677.668261 28.0193616 677.668261 24.5427858 670.055522 23.0655846 670.055522 23.0655846 680.045524 24.5977514 680.045524zM43.6848818 680.045524L43.6848818 678.685125 38.634915 678.685125 38.634915 675.600179 41.6923779 675.600179 41.6923779 674.253522 38.634915 674.253522 38.634915 671.415921 43.5062435 671.415921 43.5062435 670.055522 37.0477826 670.055522 37.0477826 680.045524 43.6848818 680.045524zM55.2214266 680.237904C57.5643363 680.237904 58.8697699 678.953083 58.8697699 677.242278 58.8697699 675.833783 58.2239238 674.968075 56.4031875 674.363453L55.0015641 673.903116C53.9366051 673.55271 53.6068113 673.154209 53.6068113 672.48088 53.6068113 671.759456 54.1770797 671.189188 55.4069355 671.189188 56.3344805 671.189188 56.9116195 671.573947 57.3582152 672.212923L58.5812004 671.457145C57.9216129 670.495247 56.9871973 669.863142 55.420677 669.863142 53.3732074 669.863142 52.1158688 670.996808 52.1158688 672.528975 52.1158688 673.923728 52.8579047 674.782566 54.2938816 675.249774L55.7367293 675.723852C56.994068 676.136094 57.3513445 676.630785 57.3513445 677.36595 57.3513445 678.252271 56.62305 678.898117 55.2214266 678.898117 54.0259242 678.898117 53.3388539 678.43778 52.7891977 677.530847L51.5456004 678.272883C52.2601535 679.537092 53.3251125 680.237904 55.2214266 680.237904zM62.6489738 680.045524L63.384139 678.059891 67.6851991 678.059891 68.4203644 680.045524 70.2136179 680.045524 66.1667738 670.021169 64.9781421 670.021169 60.931298 680.045524 62.6489738 680.045524zM67.1973792 676.740716L63.8719589 676.740716 65.4316085 672.528975 65.6446003 672.528975 67.1973792 676.740716zM74.6730213 680.045524L74.6730213 673.243528 74.8241768 673.243528 79.9703334 680.045524 81.1177409 680.045524 81.1177409 670.055522 79.5374791 670.055522 79.5374791 676.864389 79.4000651 676.864389 74.2470377 670.055522 73.0927596 670.055522 73.0927596 680.045524 74.6730213 680.045524zM87.7070623 680.237904C90.049972 680.237904 91.3554056 678.953083 91.3554056 677.242278 91.3554056 675.833783 90.7095595 674.968075 88.8888232 674.363453L87.4871998 673.903116C86.4222408 673.55271 86.092447 673.154209 86.092447 672.48088 86.092447 671.759456 86.6627154 671.189188 87.8925713 671.189188 88.8201162 671.189188 89.3972552 671.573947 89.8438509 672.212923L91.0668361 671.457145C90.4072486 670.495247 89.472833 669.863142 87.9063127 669.863142 85.8588431 669.863142 84.6015045 670.996808 84.6015045 672.528975 84.6015045 673.923728 85.3435404 674.782566 86.7795173 675.249774L88.222365 675.723852C89.4797037 676.136094 89.8369802 676.630785 89.8369802 677.36595 89.8369802 678.252271 89.1086857 678.898117 87.7070623 678.898117 86.5115599 678.898117 85.8244896 678.43778 85.2748334 677.530847L84.0312361 678.272883C84.7457892 679.537092 85.8107482 680.237904 87.7070623 680.237904zM103.331675 680.045524C106.40288 680.045524 108.319806 678.190435 108.319806 675.064265 108.319806 671.938095 106.40288 670.055522 103.317934 670.055522L100.184893 670.055522 100.184893 680.045524 103.331675 680.045524zM103.338546 678.568323L101.772026 678.568323 101.772026 671.532723 103.338546 671.532723C105.489076 671.532723 106.712061 672.755708 106.712061 675.057394 106.712061 677.359079 105.489076 678.568323 103.338546 678.568323zM113.349478 680.045524L113.349478 670.055522 111.762345 670.055522 111.762345 680.045524 113.349478 680.045524zM120.014377 680.237904C122.357287 680.237904 123.66272 678.953083 123.66272 677.242278 123.66272 675.833783 123.016874 674.968075 121.196138 674.363453L119.794514 673.903116C118.729555 673.55271 118.399762 673.154209 118.399762 672.48088 118.399762 671.759456 118.97003 671.189188 120.199886 671.189188 121.127431 671.189188 121.70457 671.573947 122.151165 672.212923L123.374151 671.457145C122.714563 670.495247 121.780148 669.863142 120.213627 669.863142 118.166158 669.863142 116.908819 670.996808 116.908819 672.528975 116.908819 673.923728 117.650855 674.782566 119.086832 675.249774L120.52968 675.723852C121.787018 676.136094 122.144295 676.630785 122.144295 677.36595 122.144295 678.252271 121.416 678.898117 120.014377 678.898117 118.818874 678.898117 118.131804 678.43778 117.582148 677.530847L116.338551 678.272883C117.053104 679.537092 118.118063 680.237904 120.014377 680.237904zM128.561849 680.045524L128.561849 676.452147 130.478775 676.452147C132.663658 676.452147 133.941609 675.222291 133.941609 673.243528 133.941609 671.326602 132.663658 670.055522 130.465033 670.055522L126.967845 670.055522 126.967845 680.045524 128.561849 680.045524zM130.389456 675.078006L128.561849 675.078006 128.561849 671.422792 130.389456 671.422792C131.681148 671.422792 132.347606 672.199181 132.347606 673.25727 132.347606 674.356582 131.674277 675.078006 130.389456 675.078006zM143.444109 680.045524L143.444109 678.623289 138.847608 678.623289 138.847608 670.055522 137.260476 670.055522 137.260476 680.045524 143.444109 680.045524zM147.340114 680.045524L148.07528 678.059891 152.37634 678.059891 153.111505 680.045524 154.904759 680.045524 150.857914 670.021169 149.669283 670.021169 145.622439 680.045524 147.340114 680.045524zM151.88852 676.740716L148.5631 676.740716 150.122749 672.528975 150.335741 672.528975 151.88852 676.740716zM160.539052 680.045524L160.539052 675.916232 164.386646 670.055522 162.579651 670.055522 159.872594 674.576445 159.645861 674.576445 157.034994 670.055522 155.13868 670.055522 158.938178 675.916232 158.938178 680.045524 160.539052 680.045524zM176.754546 680.045524C178.84324 680.045524 180.11432 679.049272 180.11432 677.214795 180.11432 676.012422 179.454732 675.194808 178.142428 674.913109L178.142428 674.734471C179.159292 674.445901 179.818879 673.765702 179.818879 672.632036 179.818879 671.065515 178.657731 670.055522 176.424752 670.055522L172.824504 670.055522 172.824504 680.045524 176.754546 680.045524zM176.411011 674.322229L174.418507 674.322229 174.418507 671.415921 176.40414 671.415921C177.67522 671.415921 178.231747 671.938095 178.231747 672.817545 178.231747 673.806926 177.702703 674.322229 176.411011 674.322229zM176.651485 678.685125L174.418507 678.685125 174.418507 675.552085 176.644615 675.552085C177.950048 675.552085 178.527187 676.033034 178.527187 677.111734 178.527187 678.224788 177.798893 678.685125 176.651485 678.685125zM187.761729 680.237904C190.674908 680.237904 192.619316 678.204176 192.619316 675.064265 192.619316 671.924353 190.674908 669.863142 187.761729 669.863142 184.848551 669.863142 182.945366 671.924353 182.945366 675.064265 182.945366 678.204176 184.855422 680.237904 187.761729 680.237904zM187.761729 678.774444C185.721131 678.774444 184.553111 677.352209 184.553111 675.064265 184.553111 672.783191 185.71426 671.326602 187.761729 671.326602 189.809199 671.326602 191.011572 672.783191 191.011572 675.064265 191.011572 677.352209 189.802328 678.774444 187.761729 678.774444zM202.16304 680.045524L202.16304 678.623289 197.56654 678.623289 197.56654 670.055522 195.979407 670.055522 195.979407 680.045524 202.16304 680.045524zM208.64243 680.045524C211.713635 680.045524 213.630561 678.190435 213.630561 675.064265 213.630561 671.938095 211.713635 670.055522 208.628689 670.055522L205.495648 670.055522 205.495648 680.045524 208.64243 680.045524zM208.649301 678.568323L207.082781 678.568323 207.082781 671.532723 208.649301 671.532723C210.799831 671.532723 212.022816 672.755708 212.022816 675.057394 212.022816 677.359079 210.799831 678.568323 208.649301 678.568323zM532.297742 680.031783L532.297742 673.229787 532.448897 673.229787 537.595054 680.031783 538.742461 680.031783 538.742461 670.041781 537.1622 670.041781 537.1622 676.850647 537.024785 676.850647 531.871758 670.041781 530.71748 670.041781 530.71748 680.031783 532.297742 680.031783zM543.339279 680.031783L544.074444 678.04615 548.375504 678.04615 549.110669 680.031783 550.903923 680.031783 546.857079 670.007427 545.668447 670.007427 541.621603 680.031783 543.339279 680.031783zM547.887684 676.726975L544.562264 676.726975 546.121914 672.515234 546.334905 672.515234 547.887684 676.726975zM555.315231 680.031783L555.315231 673.806926 555.473258 673.806926 558.283375 680.031783 559.279627 680.031783 562.089745 673.806926 562.247771 673.806926 562.247771 680.031783 563.773067 680.031783 563.773067 670.041781 562.33709 670.041781 558.881126 677.65452 558.736842 677.65452 555.260266 670.041781 553.783065 670.041781 553.783065 680.031783 555.315231 680.031783zM574.402362 680.031783L574.402362 678.671384 569.352395 678.671384 569.352395 675.586438 572.409858 675.586438 572.409858 674.23978 569.352395 674.23978 569.352395 671.40218 574.223724 671.40218 574.223724 670.041781 567.765263 670.041781 567.765263 680.031783 574.402362 680.031783zM585.938907 680.224163C588.281816 680.224163 589.58725 678.939341 589.58725 677.228536 589.58725 675.820042 588.941404 674.954333 587.120667 674.349711L585.719044 673.889374C584.654085 673.538969 584.324291 673.140468 584.324291 672.467139 584.324291 671.745715 584.89456 671.175447 586.124416 671.175447 587.05196 671.175447 587.6291 671.560206 588.075695 672.199181L589.29868 671.443404C588.639093 670.481506 587.704677 669.849401 586.138157 669.849401 584.090687 669.849401 582.833349 670.983067 582.833349 672.515234 582.833349 673.909986 583.575385 674.768824 585.011362 675.236032L586.454209 675.710111C587.711548 676.122353 588.068825 676.617044 588.068825 677.352209 588.068825 678.238529 587.34053 678.884376 585.938907 678.884376 584.743404 678.884376 584.056334 678.424038 583.506678 677.517106L582.26308 678.259142C582.977634 679.523351 584.042592 680.224163 585.938907 680.224163zM593.366454 680.031783L594.101619 678.04615 598.402679 678.04615 599.137844 680.031783 600.931098 680.031783 596.884254 670.007427 595.695622 670.007427 591.648778 680.031783 593.366454 680.031783zM597.914859 676.726975L594.589439 676.726975 596.149089 672.515234 596.36208 672.515234 597.914859 676.726975zM605.390501 680.031783L605.390501 673.229787 605.541657 673.229787 610.687813 680.031783 611.835221 680.031783 611.835221 670.041781 610.254959 670.041781 610.254959 676.850647 610.117545 676.850647 604.964518 670.041781 603.81024 670.041781 603.81024 680.031783 605.390501 680.031783zM618.424542 680.224163C620.767452 680.224163 622.072886 678.939341 622.072886 677.228536 622.072886 675.820042 621.42704 674.954333 619.606303 674.349711L618.20468 673.889374C617.139721 673.538969 616.809927 673.140468 616.809927 672.467139 616.809927 671.745715 617.380195 671.175447 618.610051 671.175447 619.537596 671.175447 620.114735 671.560206 620.561331 672.199181L621.784316 671.443404C621.124729 670.481506 620.190313 669.849401 618.623793 669.849401 616.576323 669.849401 615.318984 670.983067 615.318984 672.515234 615.318984 673.909986 616.06102 674.768824 617.496997 675.236032L618.939845 675.710111C620.197184 676.122353 620.55446 676.617044 620.55446 677.352209 620.55446 678.238529 619.826166 678.884376 618.424542 678.884376 617.22904 678.884376 616.54197 678.424038 615.992313 677.517106L614.748716 678.259142C615.463269 679.523351 616.528228 680.224163 618.424542 680.224163zM634.049155 680.031783C637.12036 680.031783 639.037286 678.176693 639.037286 675.050523 639.037286 671.924353 637.12036 670.041781 634.035414 670.041781L630.902373 670.041781 630.902373 680.031783 634.049155 680.031783zM634.056026 678.554582L632.489506 678.554582 632.489506 671.518982 634.056026 671.518982C636.206556 671.518982 637.429541 672.741967 637.429541 675.043653 637.429541 677.345338 636.206556 678.554582 634.056026 678.554582zM644.066958 680.031783L644.066958 670.041781 642.479825 670.041781 642.479825 680.031783 644.066958 680.031783zM650.731857 680.224163C653.074767 680.224163 654.3802 678.939341 654.3802 677.228536 654.3802 675.820042 653.734354 674.954333 651.913618 674.349711L650.511994 673.889374C649.447035 673.538969 649.117242 673.140468 649.117242 672.467139 649.117242 671.745715 649.68751 671.175447 650.917366 671.175447 651.844911 671.175447 652.42205 671.560206 652.868645 672.199181L654.091631 671.443404C653.432043 670.481506 652.497627 669.849401 650.931107 669.849401 648.883638 669.849401 647.626299 670.983067 647.626299 672.515234 647.626299 673.909986 648.368335 674.768824 649.804312 675.236032L651.24716 675.710111C652.504498 676.122353 652.861775 676.617044 652.861775 677.352209 652.861775 678.238529 652.13348 678.884376 650.731857 678.884376 649.536354 678.884376 648.849284 678.424038 648.299628 677.517106L647.056031 678.259142C647.770584 679.523351 648.835543 680.224163 650.731857 680.224163zM659.279329 680.031783L659.279329 676.438405 661.196255 676.438405C663.381138 676.438405 664.659089 675.208549 664.659089 673.229787 664.659089 671.312861 663.381138 670.041781 661.182513 670.041781L657.685325 670.041781 657.685325 680.031783 659.279329 680.031783zM661.106936 675.064265L659.279329 675.064265 659.279329 671.409051 661.106936 671.409051C662.398628 671.409051 663.065086 672.18544 663.065086 673.243528 663.065086 674.342841 662.391757 675.064265 661.106936 675.064265zM674.161589 680.031783L674.161589 678.609547 669.565088 678.609547 669.565088 670.041781 667.977956 670.041781 667.977956 680.031783 674.161589 680.031783zM678.057594 680.031783L678.79276 678.04615 683.09382 678.04615 683.828985 680.031783 685.622239 680.031783 681.575394 670.007427 680.386763 670.007427 676.339919 680.031783 678.057594 680.031783zM682.606 676.726975L679.28058 676.726975 680.840229 672.515234 681.053221 672.515234 682.606 676.726975zM691.256532 680.031783L691.256532 675.90249 695.104126 670.041781 693.297131 670.041781 690.590074 674.562703 690.363341 674.562703 687.752474 670.041781 685.85616 670.041781 689.655658 675.90249 689.655658 680.031783 691.256532 680.031783zM709.725616 680.031783L709.725616 678.609547 705.129116 678.609547 705.129116 670.041781 703.541984 670.041781 703.541984 680.031783 709.725616 680.031783zM714.727805 680.031783L714.727805 670.041781 713.140673 670.041781 713.140673 680.031783 714.727805 680.031783zM722.71188 680.237904C724.244046 680.237904 725.336488 679.598929 725.84492 678.279754L726.002946 678.279754 726.112878 680.031783 727.363346 680.031783 727.363346 674.720729 723.041673 674.720729 723.041673 676.039904 725.796825 676.039904 725.796825 676.376569C725.796825 677.894994 724.814315 678.795056 722.931742 678.795056 720.95985 678.795056 719.771219 677.317855 719.771219 675.057394 719.771219 672.803803 721.069782 671.333473 723.034803 671.333473 724.209693 671.333473 725.020436 671.807551 725.652541 672.645777L726.923621 671.670137C726.051041 670.515859 724.828056 669.821918 723.027932 669.821918 720.231556 669.821918 718.163474 671.848776 718.163474 675.029911 718.163474 678.211047 720.0804 680.237904 722.71188 680.237904zM732.819001 680.031783L732.819001 675.696369 737.539174 675.696369 737.539174 680.031783 739.126306 680.031783 739.126306 670.041781 737.539174 670.041781 737.539174 674.294746 732.819001 674.294746 732.819001 670.041781 731.231869 670.041781 731.231869 680.031783 732.819001 680.031783zM747.096639 680.031783L747.096639 671.429663 750.181585 671.429663 750.181585 670.041781 742.390208 670.041781 742.390208 671.429663 745.495765 671.429663 745.495765 680.031783 747.096639 680.031783z"/>
    </g>
  </g>
</svg>
