<svg xmlns="http://www.w3.org/2000/svg" width="1891" height="728" viewBox="0 0 1891 728">
  <g fill="none" fill-rule="evenodd">
    <rect width="1891" height="728" fill="#222"/>
    <g fill-rule="nonzero" transform="translate(53.998 58.382)">
      <path fill="#FFF" d="M82.9101562 218.847656C132.714844 218.847656 165.087891 192.773438 165.087891 152.34375 165.087891 123.632812 149.267578 103.857422 113.818359 91.8457031L80.5664062 80.5664062C64.5996094 75.1464844 59.4726562 68.9941406 59.4726562 58.8867188 59.4726562 46.5820312 68.7011719 39.5507812 84.6679688 39.5507812 100.195313 39.5507812 111.767578 46.2890625 121.582031 59.9121094L153.955078 33.984375C137.402344 11.2792969 115.283203 0 84.6679688 0 42.7734375 0 14.7949219 24.9023438 14.7949219 61.0839844 14.7949219 90.234375 32.8125 110.595703 64.8925781 121.142578L97.7050781 131.982422C113.232422 137.109375 119.091797 143.701172 119.091797 154.980469 119.091797 170.947266 105.761719 179.296875 85.2539062 179.296875 62.109375 179.296875 47.4609375 169.042969 34.1308594 149.560547L0 176.513672C19.7753906 206.103516 44.3847656 218.847656 82.9101562 218.847656zM258.105469 220.898438C285.791016 220.898438 307.910156 210.205078 321.533203 191.015625L290.332031 167.871094C283.59375 178.125 273.046875 183.984375 258.105469 183.984375 239.794922 183.984375 227.490234 173.4375 224.414062 155.419922L331.787109 155.419922C337.353516 98.8769531 307.763672 60.7910156 257.080078 60.7910156 210.644531 60.7910156 179.589844 94.1894531 179.589844 141.210938 179.589844 188.232422 210.644531 220.898438 258.105469 220.898438zM288.867188 124.804688L224.853516 124.804688C228.222656 107.519531 239.355469 97.8515625 257.080078 97.8515625 275.390625 97.8515625 286.523438 107.8125 288.867188 124.804688zM425.683594 220.605469C452.783203 220.605469 474.902344 209.765625 489.404297 188.378906L457.617188 164.208984C449.560547 175.78125 440.185547 181.201172 425.683594 181.201172 404.150391 181.201172 389.501953 165.673828 389.501953 141.210938 389.501953 116.601562 404.296875 100.78125 425.683594 100.78125 440.039062 100.78125 449.414062 106.494141 457.470703 117.919922L489.404297 93.6035156C474.902344 72.3632812 452.783203 61.3769531 426.5625 61.3769531 378.662109 61.3769531 345.703125 94.7753906 345.703125 141.357422 345.703125 187.353516 378.515625 220.605469 425.683594 220.605469zM574.21875 220.605469C621.533203 220.605469 655.078125 186.474609 655.078125 141.064453 655.078125 95.5078125 621.386719 61.2304688 574.21875 61.2304688 527.050781 61.2304688 493.359375 95.5078125 493.359375 141.064453 493.359375 186.474609 526.904297 220.605469 574.21875 220.605469zM574.21875 180.761719C552.099609 180.761719 537.304688 164.501953 537.304688 141.064453 537.304688 117.480469 552.099609 100.927734 574.21875 100.927734 596.191406 100.927734 611.132812 117.480469 611.132812 141.064453 611.132812 164.501953 596.337891 180.761719 574.21875 180.761719zM716.601562 215.917969L716.601562 128.759766C716.601562 108.105469 726.708984 99.0234375 742.822266 99.0234375 759.082031 99.0234375 769.189453 108.105469 769.189453 128.759766L769.189453 215.917969 812.841797 215.917969 812.841797 127.001953C812.841797 85.546875 791.748047 61.8164062 755.566406 61.8164062 734.472656 61.8164062 719.824219 70.6054688 711.621094 83.9355469L710.595703 83.9355469 708.105469 65.9179688 672.949219 65.9179688 672.949219 215.917969 716.601562 215.917969zM899.267578 219.140625C921.533203 219.140625 936.767578 210.205078 945.703125 195.410156L946.875 195.410156 949.511719 215.917969 987.011719 215.917969 987.011719 2.9296875 943.359375 2.9296875 943.359375 80.7128906 942.480469 80.7128906C932.373047 70.0195312 918.603516 63.4277344 898.974609 63.4277344 861.328125 63.4277344 830.419922 90.8203125 830.419922 140.917969 830.419922 191.015625 861.621094 219.140625 899.267578 219.140625zM909.375 181.494141C889.892578 181.494141 875.683594 166.40625 875.683594 141.357422 875.683594 116.308594 889.453125 101.074219 909.521484 101.074219 929.443359 101.074219 943.798828 115.283203 943.798828 141.210938 943.798828 166.699219 929.003906 181.494141 909.375 181.494141zM1115.77148 215.917969L1129.39453 181.494141 1214.20898 181.494141 1227.97852 215.917969 1278.95508 215.917969 1189.30664 2.9296875 1155.46875 2.9296875 1065.9668 215.917969 1115.77148 215.917969zM1198.53516 142.529297L1144.77539 142.529297 1170.70312 76.6113281 1172.16797 76.6113281 1198.53516 142.529297zM1343.4082 215.917969L1405.22461 65.9179688 1359.66797 65.9179688 1327.00195 154.394531 1326.12305 154.394531 1294.18945 65.9179688 1245.99609 65.9179688 1307.8125 215.917969 1343.4082 215.917969zM80.5110219 555.513851C127.971959 555.513851 156.829381 532.222836 156.829381 494.86932 156.829381 466.890805 142.180944 447.701351 103.948522 435.396664L73.3332875 425.582211C47.4055531 417.379086 36.5657094 405.660336 36.5657094 388.228695 36.5657094 366.109555 54.1438344 353.365414 81.6828969 353.365414 104.680944 353.365414 120.061803 362.59393 131.194616 381.636898L146.721959 369.771664C132.512975 346.334164 111.858678 334.908383 81.6828969 334.908383 42.4250844 334.908383 16.7903187 355.855648 16.7903187 388.961117 16.7903187 415.035336 32.0246937 433.492367 64.8371937 443.746273L95.4524281 453.414242C125.188756 462.642758 136.0286 475.240414 136.0286 495.455258 136.0286 521.382992 115.960241 537.05682 80.6575062 537.05682 50.481725 537.05682 31.5852406 525.191586 16.9368031 499.703305L.97000625 511.715023C18.9875844 542.037289 42.8645375 555.513851 80.5110219 555.513851zM254.241491 555.80682C281.3411 555.80682 302.727819 544.527523 314.739537 524.31268L300.823522 514.791195C291.741491 530.611508 276.214147 539.693539 254.241491 539.693539 220.696569 539.693539 200.042272 519.185726 199.016881 484.615414L322.796178 484.615414C325.579381 434.224789 298.626256 402.144711 252.923131 402.144711 208.831334 402.144711 179.973912 433.345883 179.973912 479.927914 179.973912 526.216976 208.391881 555.80682 254.241491 555.80682zM304.485631 468.795101L199.456334 468.795101C202.678991 437.300961 222.454381 418.257992 252.923131 418.257992 283.538366 418.257992 302.727819 437.154476 304.485631 468.795101zM419.182897 556.392758C446.282506 556.392758 467.229772 544.820492 479.680944 522.847836L465.911412 512.447445C456.389928 530.172055 441.009069 539.40057 419.182897 539.40057 386.516881 539.40057 364.544225 515.670101 364.544225 479.488461 364.544225 443.30682 386.516881 419.429867 419.182897 419.429867 439.397741 419.429867 454.192662 427.486508 464.007116 443.013851L477.776647 432.466976C465.178991 412.691586 444.964147 402.291195 419.475866 402.291195 375.530553 402.291195 345.647741 433.785336 345.647741 479.634945 345.647741 525.045101 375.384069 556.392758 419.182897 556.392758zM573.284459 555.953305C617.815709 555.953305 650.042272 523.140805 650.042272 479.195492 650.042272 434.957211 617.815709 402.144711 573.284459 402.144711 528.899694 402.291195 496.673131 434.957211 496.673131 479.195492 496.673131 523.287289 528.899694 555.953305 573.284459 555.953305zM573.284459 538.961117C539.446569 538.961117 515.276647 513.912289 515.276647 479.195492 515.276647 444.185726 539.446569 418.84393 573.284459 418.84393 607.268834 418.84393 631.585241 444.185726 631.585241 479.195492 631.585241 513.912289 607.268834 538.961117 573.284459 538.961117zM697.503209 551.705258L697.503209 466.158383C697.503209 435.396664 713.762975 418.404476 740.7161 418.404476 767.522741 418.404476 783.928991 434.371273 783.928991 465.572445L783.928991 551.705258 802.678991 551.705258 802.678991 464.693539C802.678991 424.410336 781.438756 402.291195 745.257116 402.291195 719.182897 402.291195 703.802037 413.716976 695.305944 431.148617L694.866491 431.148617 693.694616 406.246273 678.606725 406.246273 678.606725 551.705258 697.503209 551.705258zM900.237584 555.513851C928.509069 555.513851 945.061803 543.941586 956.927037 521.96893L957.366491 521.96893 958.538366 551.705258 974.651647 551.705258 974.651647 338.716976 955.901647 338.716976 955.901647 432.759945 955.462194 432.759945C944.475866 414.742367 927.190709 402.877133 900.0911 402.877133 860.100866 402.877133 831.536412 431.881039 831.536412 478.756039 831.536412 525.777523 860.393834 555.513851 900.237584 555.513851zM903.460241 539.107601C872.552037 539.107601 851.018834 515.084164 851.018834 478.902523 851.018834 442.720883 872.259069 418.990414 903.460241 418.990414 934.954381 418.990414 956.048131 441.988461 956.048131 479.049008 956.048131 515.084164 934.075475 539.107601 903.460241 539.107601zM1088.03055 551.705258L1110.00321 497.945492 1216.9368 497.945492 1239.05594 551.705258 1261.17508 551.705258 1171.08719 337.105648 1156.43876 337.105648 1066.49735 551.705258 1088.03055 551.705258zM1210.05204 481.099789L1117.03446 481.099789 1163.03055 368.892758 1163.76297 368.892758 1210.05204 481.099789zM1316.69266 551.705258L1379.38797 406.246273 1359.75907 406.246273 1309.66141 525.045101 1309.07547 525.045101 1259.27079 406.246273 1238.47001 406.246273 1301.3118 551.705258 1316.69266 551.705258z"/>
      <path fill="#FFF" d="M1650.88194 215.917969L1650.88194 128.759766C1650.88194 108.105469 1660.98936 99.0234375 1677.10264 99.0234375 1693.36241 99.0234375 1703.46983 108.105469 1703.46983 128.759766L1703.46983 215.917969 1747.12218 215.917969 1747.12218 127.001953C1747.12218 85.546875 1726.02843 61.8164062 1689.84679 61.8164062 1668.75304 61.8164062 1654.1046 70.6054688 1645.90147 83.9355469L1644.87608 83.9355469 1642.38585 65.9179688 1607.2296 65.9179688 1607.2296 215.917969 1650.88194 215.917969zM1632.52771 551.705258L1632.52771 466.158383C1632.52771 435.396664 1648.78748 418.404476 1675.7406 418.404476 1702.54724 418.404476 1718.95349 434.371273 1718.95349 465.572445L1718.95349 551.705258 1737.70349 551.705258 1737.70349 464.693539C1737.70349 424.410336 1716.46326 402.291195 1680.28162 402.291195 1654.2074 402.291195 1638.82654 413.716976 1630.33044 431.148617L1629.89099 431.148617 1628.71912 406.246273 1613.63123 406.246273 1613.63123 551.705258 1632.52771 551.705258z" opacity=".3"/>
      <path fill="#FFF" d="M1687.95785 220.605469C1735.2723 220.605469 1768.81722 186.474609 1768.81722 141.064453 1768.81722 95.5078125 1735.12582 61.2304688 1687.95785 61.2304688 1640.78988 61.2304688 1607.09847 95.5078125 1607.09847 141.064453 1607.09847 186.474609 1640.6434 220.605469 1687.95785 220.605469zM1687.95785 180.761719C1665.83871 180.761719 1651.04379 164.501953 1651.04379 141.064453 1651.04379 117.480469 1665.83871 100.927734 1687.95785 100.927734 1709.93051 100.927734 1724.87191 117.480469 1724.87191 141.064453 1724.87191 164.501953 1710.07699 180.761719 1687.95785 180.761719zM1688.72512 555.953305C1733.25637 555.953305 1765.48293 523.140805 1765.48293 479.195492 1765.48293 434.957211 1733.25637 402.144711 1688.72512 402.144711 1644.34035 402.291195 1612.11379 434.957211 1612.11379 479.195492 1612.11379 523.287289 1644.34035 555.953305 1688.72512 555.953305zM1688.72512 538.961117C1654.88723 538.961117 1630.71731 513.912289 1630.71731 479.195492 1630.71731 444.185726 1654.88723 418.84393 1688.72512 418.84393 1722.70949 418.84393 1747.0259 444.185726 1747.0259 479.195492 1747.0259 513.912289 1722.70949 538.961117 1688.72512 538.961117z" opacity=".3"/>
      <path fill="#FBBC00" fill-opacity=".118" stroke="#FBBC00" d="M1694.82462 219.140625C1732.61758 219.140625 1763.52579 191.015625 1763.52579 140.917969 1763.52579 90.8203125 1732.91055 63.4277344 1694.9711 63.4277344 1675.63516 63.4277344 1661.86563 70.0195312 1651.75821 80.7128906L1650.58633 80.7128906 1650.58633 2.9296875 1607.08047 2.9296875 1607.08047 215.917969 1644.43399 215.917969 1647.36368 195.410156 1648.24258 195.410156C1657.4711 210.205078 1672.55899 219.140625 1694.82462 219.140625zM1684.71719 181.494141C1665.23477 181.494141 1650.14688 166.699219 1650.14688 141.210938 1650.14688 115.283203 1664.50235 101.074219 1684.57071 101.074219 1704.63907 101.074219 1718.55508 116.308594 1718.55508 141.357422 1718.55508 166.40625 1704.3461 181.494141 1684.71719 181.494141zM1687.51695 555.513851C1727.21422 555.513851 1756.21812 525.777523 1756.21812 478.756039 1756.21812 431.881039 1727.65367 402.877133 1687.51695 402.877133 1660.56382 402.877133 1643.27867 414.742367 1632.29234 432.759945L1631.7064 432.759945 1631.7064 338.716976 1612.9564 338.716976 1612.9564 551.705258 1629.06968 551.705258 1630.24156 521.96893 1630.68101 521.96893C1642.69273 543.941586 1659.09898 555.513851 1687.51695 555.513851zM1684.29429 539.107601C1653.67906 539.107601 1631.55992 515.084164 1631.55992 479.049008 1631.55992 441.988461 1652.65367 418.990414 1684.29429 418.990414 1715.49547 418.990414 1736.7357 442.720883 1736.7357 478.902523 1736.7357 515.084164 1715.2025 539.107601 1684.29429 539.107601z"/>
      <path fill="#FFA600" d="M17.2061328 267.117969L17.2061328 260.833789 17.3457813 260.833789 22.1001758 267.117969 23.1602344 267.117969 23.1602344 257.888477 21.7002734 257.888477 21.7002734 264.179004 21.5733203 264.179004 16.8125781 257.888477 15.7461719 257.888477 15.7461719 267.117969 17.2061328 267.117969zM27.4071094 267.117969L28.0863086 265.283496 32.0599414 265.283496 32.7391406 267.117969 34.3958789 267.117969 30.6571094 257.856738 29.5589648 257.856738 25.8201953 267.117969 27.4071094 267.117969zM31.6092578 264.064746L28.5369922 264.064746 29.9779102 260.173633 30.1746875 260.173633 31.6092578 264.064746zM38.4713672 267.117969L38.4713672 261.366992 38.6173633 261.366992 41.2135547 267.117969 42.1339648 267.117969 44.7301563 261.366992 44.8761523 261.366992 44.8761523 267.117969 46.285332 267.117969 46.285332 257.888477 44.9586719 257.888477 41.7658008 264.92168 41.6325 264.92168 38.4205859 257.888477 37.0558398 257.888477 37.0558398 267.117969 38.4713672 267.117969zM56.1054492 267.117969L56.1054492 265.861133 51.4399219 265.861133 51.4399219 263.011035 54.2646289 263.011035 54.2646289 261.766895 51.4399219 261.766895 51.4399219 259.145312 55.9404102 259.145312 55.9404102 257.888477 49.9736133 257.888477 49.9736133 267.117969 56.1054492 267.117969zM66.76375 267.295703C68.9283008 267.295703 70.1343555 266.108691 70.1343555 264.528125 70.1343555 263.226855 69.5376758 262.427051 67.8555469 261.868457L66.560625 261.443164C65.5767383 261.119434 65.2720508 260.75127 65.2720508 260.129199 65.2720508 259.462695 65.7989063 258.93584 66.9351367 258.93584 67.7920703 258.93584 68.3252734 259.291309 68.7378711 259.881641L69.8677539 259.183398C69.2583789 258.294727 68.3950977 257.710742 66.947832 257.710742 65.0562305 257.710742 63.8946094 258.758105 63.8946094 260.173633 63.8946094 261.462207 64.5801563 262.255664 65.9068164 262.687305L67.2398242 263.125293C68.4014453 263.506152 68.7315234 263.963184 68.7315234 264.642383 68.7315234 265.46123 68.0586719 266.05791 66.76375 266.05791 65.6592578 266.05791 65.0244922 265.632617 64.5166797 264.794727L63.3677539 265.480273C64.0279102 266.648242 65.0117969 267.295703 66.76375 267.295703zM73.6258594 267.117969L74.3050586 265.283496 78.2786914 265.283496 78.9578906 267.117969 80.6146289 267.117969 76.8758594 257.856738 75.7777148 257.856738 72.0389453 267.117969 73.6258594 267.117969zM77.8280078 264.064746L74.7557422 264.064746 76.1966602 260.173633 76.3934375 260.173633 77.8280078 264.064746zM84.7345508 267.117969L84.7345508 260.833789 84.8741992 260.833789 89.6285938 267.117969 90.6886523 267.117969 90.6886523 257.888477 89.2286914 257.888477 89.2286914 264.179004 89.1017383 264.179004 84.3409961 257.888477 83.2745898 257.888477 83.2745898 267.117969 84.7345508 267.117969zM96.7763477 267.295703C98.9408984 267.295703 100.146953 266.108691 100.146953 264.528125 100.146953 263.226855 99.5502734 262.427051 97.8681445 261.868457L96.5732227 261.443164C95.5893359 261.119434 95.2846484 260.75127 95.2846484 260.129199 95.2846484 259.462695 95.8115039 258.93584 96.9477344 258.93584 97.804668 258.93584 98.3378711 259.291309 98.7504688 259.881641L99.8803516 259.183398C99.2709766 258.294727 98.4076953 257.710742 96.9604297 257.710742 95.0688281 257.710742 93.907207 258.758105 93.907207 260.173633 93.907207 261.462207 94.5927539 262.255664 95.9194141 262.687305L97.2524219 263.125293C98.414043 263.506152 98.7441211 263.963184 98.7441211 264.642383 98.7441211 265.46123 98.0712695 266.05791 96.7763477 266.05791 95.6718555 266.05791 95.0370898 265.632617 94.5292773 264.794727L93.3803516 265.480273C94.0405078 266.648242 95.0243945 267.295703 96.7763477 267.295703zM111.211504 267.117969C114.048906 267.117969 115.819902 265.404102 115.819902 262.515918 115.819902 259.627734 114.048906 257.888477 111.198809 257.888477L108.304277 257.888477 108.304277 267.117969 111.211504 267.117969zM111.217852 265.753223L109.770586 265.753223 109.770586 259.253223 111.217852 259.253223C113.204668 259.253223 114.334551 260.383105 114.334551 262.50957 114.334551 264.636035 113.204668 265.753223 111.217852 265.753223zM120.46668 267.117969L120.46668 257.888477 119.000371 257.888477 119.000371 267.117969 120.46668 267.117969zM126.624199 267.295703C128.78875 267.295703 129.994805 266.108691 129.994805 264.528125 129.994805 263.226855 129.398125 262.427051 127.715996 261.868457L126.421074 261.443164C125.437188 261.119434 125.1325 260.75127 125.1325 260.129199 125.1325 259.462695 125.659355 258.93584 126.795586 258.93584 127.65252 258.93584 128.185723 259.291309 128.59832 259.881641L129.728203 259.183398C129.118828 258.294727 128.255547 257.710742 126.808281 257.710742 124.91668 257.710742 123.755059 258.758105 123.755059 260.173633 123.755059 261.462207 124.440605 262.255664 125.767266 262.687305L127.100273 263.125293C128.261895 263.506152 128.591973 263.963184 128.591973 264.642383 128.591973 265.46123 127.919121 266.05791 126.624199 266.05791 125.519707 266.05791 124.884941 265.632617 124.377129 264.794727L123.228203 265.480273C123.888359 266.648242 124.872246 267.295703 126.624199 267.295703zM134.520977 267.117969L134.520977 263.798145 136.291973 263.798145C138.310527 263.798145 139.491191 262.661914 139.491191 260.833789 139.491191 259.062793 138.310527 257.888477 136.279277 257.888477L133.04832 257.888477 133.04832 267.117969 134.520977 267.117969zM136.209453 262.528613L134.520977 262.528613 134.520977 259.15166 136.209453 259.15166C137.402813 259.15166 138.018535 259.868945 138.018535 260.846484 138.018535 261.862109 137.396465 262.528613 136.209453 262.528613zM148.270293 267.117969L148.270293 265.804004 144.023711 265.804004 144.023711 257.888477 142.557402 257.888477 142.557402 267.117969 148.270293 267.117969zM151.869707 267.117969L152.548906 265.283496 156.522539 265.283496 157.201738 267.117969 158.858477 267.117969 155.119707 257.856738 154.021563 257.856738 150.282793 267.117969 151.869707 267.117969zM156.071855 264.064746L152.99959 264.064746 154.440508 260.173633 154.637285 260.173633 156.071855 264.064746zM164.063848 267.117969L164.063848 263.303027 167.618535 257.888477 165.949102 257.888477 163.448125 262.065234 163.238652 262.065234 160.826543 257.888477 159.07459 257.888477 162.584844 263.303027 162.584844 267.117969 164.063848 267.117969zM179.044902 267.117969C180.97459 267.117969 182.148906 266.197559 182.148906 264.502734 182.148906 263.391895 181.539531 262.636523 180.327129 262.37627L180.327129 262.21123C181.266582 261.944629 181.875957 261.316211 181.875957 260.268848 181.875957 258.821582 180.803203 257.888477 178.740215 257.888477L175.414043 257.888477 175.414043 267.117969 179.044902 267.117969zM178.72752 261.830371L176.886699 261.830371 176.886699 259.145312 178.721172 259.145312C179.895488 259.145312 180.409648 259.627734 180.409648 260.440234 180.409648 261.354297 179.920879 261.830371 178.72752 261.830371zM178.949688 265.861133L176.886699 265.861133 176.886699 262.966602 178.94334 262.966602C180.149395 262.966602 180.682598 263.410937 180.682598 264.40752 180.682598 265.43584 180.009746 265.861133 178.949688 265.861133zM189.214141 267.295703C191.905547 267.295703 193.701934 265.416797 193.701934 262.515918 193.701934 259.615039 191.905547 257.710742 189.214141 257.710742 186.522734 257.710742 184.764434 259.615039 184.764434 262.515918 184.764434 265.416797 186.529082 267.295703 189.214141 267.295703zM189.214141 265.943652C187.328887 265.943652 186.249785 264.629687 186.249785 262.515918 186.249785 260.408496 187.322539 259.062793 189.214141 259.062793 191.105742 259.062793 192.216582 260.408496 192.216582 262.515918 192.216582 264.629687 191.099395 265.943652 189.214141 265.943652zM202.519121 267.117969L202.519121 265.804004 198.272539 265.804004 198.272539 257.888477 196.80623 257.888477 196.80623 267.117969 202.519121 267.117969zM208.505254 267.117969C211.342656 267.117969 213.113652 265.404102 213.113652 262.515918 213.113652 259.627734 211.342656 257.888477 208.492559 257.888477L205.598027 257.888477 205.598027 267.117969 208.505254 267.117969zM208.511602 265.753223L207.064336 265.753223 207.064336 259.253223 208.511602 259.253223C210.498418 259.253223 211.628301 260.383105 211.628301 262.50957 211.628301 264.636035 210.498418 265.753223 208.511602 265.753223zM17.2061328 604.232969L17.2061328 597.948789 17.3457813 597.948789 22.1001758 604.232969 23.1602344 604.232969 23.1602344 595.003477 21.7002734 595.003477 21.7002734 601.294004 21.5733203 601.294004 16.8125781 595.003477 15.7461719 595.003477 15.7461719 604.232969 17.2061328 604.232969zM27.4071094 604.232969L28.0863086 602.398496 32.0599414 602.398496 32.7391406 604.232969 34.3958789 604.232969 30.6571094 594.971738 29.5589648 594.971738 25.8201953 604.232969 27.4071094 604.232969zM31.6092578 601.179746L28.5369922 601.179746 29.9779102 597.288633 30.1746875 597.288633 31.6092578 601.179746zM38.4713672 604.232969L38.4713672 598.481992 38.6173633 598.481992 41.2135547 604.232969 42.1339648 604.232969 44.7301563 598.481992 44.8761523 598.481992 44.8761523 604.232969 46.285332 604.232969 46.285332 595.003477 44.9586719 595.003477 41.7658008 602.03668 41.6325 602.03668 38.4205859 595.003477 37.0558398 595.003477 37.0558398 604.232969 38.4713672 604.232969zM56.1054492 604.232969L56.1054492 602.976133 51.4399219 602.976133 51.4399219 600.126035 54.2646289 600.126035 54.2646289 598.881895 51.4399219 598.881895 51.4399219 596.260312 55.9404102 596.260312 55.9404102 595.003477 49.9736133 595.003477 49.9736133 604.232969 56.1054492 604.232969zM66.76375 604.410703C68.9283008 604.410703 70.1343555 603.223691 70.1343555 601.643125 70.1343555 600.341855 69.5376758 599.542051 67.8555469 598.983457L66.560625 598.558164C65.5767383 598.234434 65.2720508 597.86627 65.2720508 597.244199 65.2720508 596.577695 65.7989063 596.05084 66.9351367 596.05084 67.7920703 596.05084 68.3252734 596.406309 68.7378711 596.996641L69.8677539 596.298398C69.2583789 595.409727 68.3950977 594.825742 66.947832 594.825742 65.0562305 594.825742 63.8946094 595.873105 63.8946094 597.288633 63.8946094 598.577207 64.5801563 599.370664 65.9068164 599.802305L67.2398242 600.240293C68.4014453 600.621152 68.7315234 601.078184 68.7315234 601.757383 68.7315234 602.57623 68.0586719 603.17291 66.76375 603.17291 65.6592578 603.17291 65.0244922 602.747617 64.5166797 601.909727L63.3677539 602.595273C64.0279102 603.763242 65.0117969 604.410703 66.76375 604.410703zM73.6258594 604.232969L74.3050586 602.398496 78.2786914 602.398496 78.9578906 604.232969 80.6146289 604.232969 76.8758594 594.971738 75.7777148 594.971738 72.0389453 604.232969 73.6258594 604.232969zM77.8280078 601.179746L74.7557422 601.179746 76.1966602 597.288633 76.3934375 597.288633 77.8280078 601.179746zM84.7345508 604.232969L84.7345508 597.948789 84.8741992 597.948789 89.6285938 604.232969 90.6886523 604.232969 90.6886523 595.003477 89.2286914 595.003477 89.2286914 601.294004 89.1017383 601.294004 84.3409961 595.003477 83.2745898 595.003477 83.2745898 604.232969 84.7345508 604.232969zM96.7763477 604.410703C98.9408984 604.410703 100.146953 603.223691 100.146953 601.643125 100.146953 600.341855 99.5502734 599.542051 97.8681445 598.983457L96.5732227 598.558164C95.5893359 598.234434 95.2846484 597.86627 95.2846484 597.244199 95.2846484 596.577695 95.8115039 596.05084 96.9477344 596.05084 97.804668 596.05084 98.3378711 596.406309 98.7504688 596.996641L99.8803516 596.298398C99.2709766 595.409727 98.4076953 594.825742 96.9604297 594.825742 95.0688281 594.825742 93.907207 595.873105 93.907207 597.288633 93.907207 598.577207 94.5927539 599.370664 95.9194141 599.802305L97.2524219 600.240293C98.414043 600.621152 98.7441211 601.078184 98.7441211 601.757383 98.7441211 602.57623 98.0712695 603.17291 96.7763477 603.17291 95.6718555 603.17291 95.0370898 602.747617 94.5292773 601.909727L93.3803516 602.595273C94.0405078 603.763242 95.0243945 604.410703 96.7763477 604.410703zM111.211504 604.232969C114.048906 604.232969 115.819902 602.519102 115.819902 599.630918 115.819902 596.742734 114.048906 595.003477 111.198809 595.003477L108.304277 595.003477 108.304277 604.232969 111.211504 604.232969zM111.217852 602.868223L109.770586 602.868223 109.770586 596.368223 111.217852 596.368223C113.204668 596.368223 114.334551 597.498105 114.334551 599.62457 114.334551 601.751035 113.204668 602.868223 111.217852 602.868223zM120.46668 604.232969L120.46668 595.003477 119.000371 595.003477 119.000371 604.232969 120.46668 604.232969zM126.624199 604.410703C128.78875 604.410703 129.994805 603.223691 129.994805 601.643125 129.994805 600.341855 129.398125 599.542051 127.715996 598.983457L126.421074 598.558164C125.437188 598.234434 125.1325 597.86627 125.1325 597.244199 125.1325 596.577695 125.659355 596.05084 126.795586 596.05084 127.65252 596.05084 128.185723 596.406309 128.59832 596.996641L129.728203 596.298398C129.118828 595.409727 128.255547 594.825742 126.808281 594.825742 124.91668 594.825742 123.755059 595.873105 123.755059 597.288633 123.755059 598.577207 124.440605 599.370664 125.767266 599.802305L127.100273 600.240293C128.261895 600.621152 128.591973 601.078184 128.591973 601.757383 128.591973 602.57623 127.919121 603.17291 126.624199 603.17291 125.519707 603.17291 124.884941 602.747617 124.377129 601.909727L123.228203 602.595273C123.888359 603.763242 124.872246 604.410703 126.624199 604.410703zM134.520977 604.232969L134.520977 600.913145 136.291973 600.913145C138.310527 600.913145 139.491191 599.776914 139.491191 597.948789 139.491191 596.177793 138.310527 595.003477 136.279277 595.003477L133.04832 595.003477 133.04832 604.232969 134.520977 604.232969zM136.209453 599.643613L134.520977 599.643613 134.520977 596.26666 136.209453 596.26666C137.402813 596.26666 138.018535 596.983945 138.018535 597.961484 138.018535 598.977109 137.396465 599.643613 136.209453 599.643613zM148.270293 604.232969L148.270293 602.919004 144.023711 602.919004 144.023711 595.003477 142.557402 595.003477 142.557402 604.232969 148.270293 604.232969zM151.869707 604.232969L152.548906 602.398496 156.522539 602.398496 157.201738 604.232969 158.858477 604.232969 155.119707 594.971738 154.021563 594.971738 150.282793 604.232969 151.869707 604.232969zM156.071855 601.179746L152.99959 601.179746 154.440508 597.288633 154.637285 597.288633 156.071855 601.179746zM164.063848 604.232969L164.063848 600.418027 167.618535 595.003477 165.949102 595.003477 163.448125 599.180234 163.238652 599.180234 160.826543 595.003477 159.07459 595.003477 162.584844 600.418027 162.584844 604.232969 164.063848 604.232969zM181.126934 604.232969L181.126934 602.919004 176.880352 602.919004 176.880352 595.003477 175.414043 595.003477 175.414043 604.232969 181.126934 604.232969zM185.74832 604.232969L185.74832 595.003477 184.282012 595.003477 184.282012 604.232969 185.74832 604.232969zM193.12459 604.423398C194.540117 604.423398 195.549395 603.833066 196.019121 602.614316L196.165117 602.614316 196.26668 604.232969 197.421953 604.232969 197.421953 599.32623 193.429277 599.32623 193.429277 600.54498 195.974688 600.54498 195.974688 600.856016C195.974688 602.258848 195.066973 603.090391 193.327715 603.090391 191.505938 603.090391 190.407793 601.725645 190.407793 599.637266 190.407793 597.555234 191.6075 596.196836 193.42293 596.196836 194.508379 596.196836 195.257402 596.634824 195.841387 597.409238L197.015703 596.507871C196.209551 595.441465 195.079668 594.800352 193.416582 594.800352 190.833086 594.800352 188.922441 596.67291 188.922441 599.611875 188.922441 602.55084 190.693438 604.423398 193.12459 604.423398zM202.462285 604.232969L202.462285 600.227598 206.823125 600.227598 206.823125 604.232969 208.289434 604.232969 208.289434 595.003477 206.823125 595.003477 206.823125 598.932676 202.462285 598.932676 202.462285 595.003477 200.995977 595.003477 200.995977 604.232969 202.462285 604.232969zM215.653008 604.232969L215.653008 596.285703 218.503105 596.285703 218.503105 595.003477 211.304863 595.003477 211.304863 596.285703 214.174004 596.285703 214.174004 604.232969 215.653008 604.232969z"/>
    </g>
  </g>
</svg>
