<svg xmlns="http://www.w3.org/2000/svg" xmlns:xlink="http://www.w3.org/1999/xlink" width="1891" height="457" viewBox="0 0 1891 457">
  <defs>
    <rect id="name_sans-flats-a" width="200" height="171.5"/>
    <rect id="name_sans-flats-c" width="68.467" height="247.5"/>
    <rect id="name_sans-flats-e" width="53" height="185"/>
    <rect id="name_sans-flats-g" width="67" height="109"/>
    <rect id="name_sans-flats-i" width="61.992" height="198.5"/>
    <rect id="name_sans-flats-k" width="61.992" height="123"/>
    <rect id="name_sans-flats-m" width="72" height="135.5"/>
    <rect id="name_sans-flats-o" width="72" height="123"/>
    <rect id="name_sans-flats-q" width="65" height="87.5"/>
    <rect id="name_sans-flats-s" width="65" height="109"/>
    <rect id="name_sans-flats-u" width="65" height="197"/>
    <rect id="name_sans-flats-w" width="63.5" height="197"/>
  </defs>
  <g fill="none" fill-rule="evenodd">
    <rect width="1891" height="457" fill="#222"/>
    <path fill="#FFF" fill-rule="nonzero" d="M157.651682,336.648223 C219.671467,336.648223 259.984327,304.179041 259.984327,253.833568 C259.984327,218.080986 240.283925,193.455483 196.140431,178.497771 L154.733104,164.452113 C134.85029,157.702901 128.4659,150.041634 128.4659,137.455266 C128.4659,122.13273 139.957802,113.376996 159.840615,113.376996 C179.176195,113.376996 193.586675,121.767908 205.808221,138.732144 L246.121081,106.445373 C225.508623,78.1716475 197.964542,64.1259902 159.840615,64.1259902 C107.671031,64.1259902 72.8305049,95.1358828 72.8305049,140.191433 C72.8305049,176.491248 95.2670742,201.846396 135.215112,214.979997 L176.075206,228.478421 C195.410786,234.862811 202.707231,243.071312 202.707231,257.116969 C202.707231,276.999782 186.107818,287.397217 160.57026,287.397217 C131.749301,287.397217 113.508188,274.628438 96.9087744,250.367757 L54.4069805,283.931405 C79.0324834,320.778454 109.677554,336.648223 157.651682,336.648223 Z M378.027637,336.100989 C404.112429,336.100989 423.265598,327.710077 434.93991,308.739319 L436.399199,308.739319 L439.865011,333 L483.461271,333 L483.461271,224.465376 C483.461271,171.748559 456.282013,141.650722 401.741084,141.650722 C368.90708,141.650722 342.457466,156.608435 325.128408,179.774648 L362.705102,207.683552 C371.643247,195.097184 383.499971,187.435916 400.281795,187.435916 C420.164608,187.435916 430.562043,198.015762 430.562043,214.979997 L430.562043,220.087509 L381.675859,220.087509 C339.356477,220.087509 314.001329,242.706489 314.001329,278.094249 C314.001329,313.117187 338.626832,336.100989 378.027637,336.100989 Z M388.607482,294.146429 C374.014592,294.146429 365.988502,287.397217 365.988502,275.540493 C365.988502,264.048592 374.014592,257.29938 388.789894,257.29938 L430.562043,257.29938 L430.562043,258.029024 C430.562043,279.735949 413.780219,294.146429 388.607482,294.146429 Z M609.165849,333 L609.165849,197.286117 L635.433052,197.286117 L635.433052,146.211 L609.165849,146.211 L609.165849,128.152298 C609.165849,121.950319 612.084427,118.84933 617.739172,118.84933 L635.797874,118.84933 L635.797874,67.7742129 L612.266838,67.7742129 C577.2439,67.7742129 554.807331,88.569082 554.807331,125.780953 L554.807331,146.211 L534.012462,146.211 L534.012462,197.286117 L554.807331,197.286117 L554.807331,333 L609.165849,333 Z M804.004245,397.938363 C852.343195,397.938363 876.786287,370.576693 876.786287,325.885966 L876.786287,146.211 L832.642793,146.211 L828.99457,169.377214 L827.35287,169.377214 C815.313735,151.683334 795.613333,141.650722 768.069252,141.650722 C721.189591,141.650722 683.430486,175.944015 683.430486,231.944232 C683.430486,287.94445 721.372002,321.872921 767.522019,321.872921 C792.329933,321.872921 809.476579,313.846831 820.786069,298.341885 L822.610181,298.341885 L822.610181,326.068377 C822.610181,343.397435 814.036857,353.97728 798.3495,354.159691 L763.144151,354.159691 C746.727149,354.159691 739.430704,350.146646 732.134259,335.918578 L688.355587,360.36167 C703.3133,390.824329 720.824769,397.938363 759.131106,397.938363 L804.004245,397.938363 Z M781.020442,276.817371 C756.759762,276.817371 737.971415,257.664202 737.971415,232.673877 C737.971415,207.683552 753.476361,188.530383 779.01392,188.530383 C804.551479,188.530383 822.42777,203.852918 822.42777,230.849766 C822.42777,257.846613 805.281123,276.817371 781.020442,276.817371 Z M1009.24008,333 L1009.24008,284.66105 L1000.84916,284.66105 C995.37683,284.66105 993.187896,282.472116 993.187896,277.182193 L993.187896,67.7742129 L938.829379,67.7742129 L938.829379,282.107294 C938.829379,317.677465 955.793614,333 987.533151,333 L1009.24008,333 Z M1120.53417,333 L1120.53417,233.950755 C1120.53417,207.865963 1132.93813,197.286117 1155.55711,197.286117 L1171.7917,197.286117 L1171.7917,146.211 L1156.46917,146.211 C1137.13359,146.211 1122.5407,154.966734 1114.51461,177.403304 L1113.60255,177.403304 L1109.40709,146.211 L1066.17566,146.211 L1066.17566,333 L1120.53417,333 Z M1342.55183,333 L1342.55183,282.836938 L1320.29767,282.836938 C1309.17059,282.836938 1304.79272,277.547016 1304.79272,266.237525 L1304.79272,197.286117 L1342.55183,197.286117 L1342.55183,146.211 L1304.79272,146.211 L1304.79272,95.3182939 L1250.61662,105.350906 L1250.61662,146.211 L1224.71424,146.211 L1224.71424,197.286117 L1250.61662,197.286117 L1250.61662,270.432981 C1250.61662,313.846831 1271.5939,333 1311.54194,333 L1342.55183,333 Z M1444.72537,397.938363 C1483.21412,397.938363 1500.72559,386.811284 1515.6833,344.127079 L1584.81712,146.211 L1528.99931,146.211 L1493.06432,262.954125 L1491.78744,262.954125 L1449.10324,146.211 L1389.4548,146.211 L1462.96648,326.433199 C1466.06747,334.094467 1466.24988,338.289923 1462.96648,344.30949 C1460.23032,349.234591 1456.21727,351.423524 1445.81984,351.423524 L1406.96627,351.423524 L1406.96627,397.938363 L1444.72537,397.938363 Z M1689.17959,333 L1689.17959,142.9276 C1689.17959,123.774431 1698.66497,113.559407 1715.62921,113.559407 L1718.36538,113.559407 C1737.15372,113.559407 1746.27428,123.409608 1746.27428,138.002499 C1746.27428,152.59539 1737.70096,162.810413 1719.82467,162.810413 L1710.33929,162.810413 L1710.33929,209.142841 L1725.47941,209.142841 C1755.94207,209.142841 1767.25156,223.735731 1767.25156,246.172301 C1767.25156,268.791281 1755.94207,283.384172 1725.47941,283.384172 L1710.33929,283.384172 L1710.33929,333 L1729.49246,333 C1786.22232,333 1818.50909,300.530818 1818.50909,249.090879 C1818.50909,214.250353 1800.26797,186.706271 1764.15057,177.950537 L1764.15057,177.403304 C1784.76303,168.82998 1796.43734,152.230567 1796.43734,129.976409 C1796.43734,90.7580156 1767.61638,65.9501016 1718.91261,65.9501016 L1716.54126,65.9501016 C1666.92544,65.9501016 1634.82108,93.4941826 1634.82108,142.9276 L1634.82108,333 L1689.17959,333 Z"/>
    <g transform="translate(66 109)">
      <mask id="name_sans-flats-b" fill="#fff">
        <use xlink:href="#name_sans-flats-a"/>
      </mask>
      <g mask="url(#name_sans-flats-b)">
        <g transform="rotate(108 82.109 132.194)">
          <mask id="name_sans-flats-d" fill="#fff">
            <use xlink:href="#name_sans-flats-c"/>
          </mask>
          <rect width="66.58" height="263.97" x=".944" y="-11.006" fill="#FFA600" fill-opacity=".15" stroke="#FFA600" stroke-width="2" mask="url(#name_sans-flats-d)"/>
        </g>
      </g>
    </g>
    <g transform="rotate(90 140.503 352.997)">
      <mask id="name_sans-flats-f" fill="#fff">
        <use xlink:href="#name_sans-flats-e"/>
      </mask>
      <rect width="51.087" height="196.806" x=".956" y="-7.974" fill="#FFA600" fill-opacity=".15" stroke="#FFA600" stroke-width="2" mask="url(#name_sans-flats-f)"/>
    </g>
    <g transform="rotate(90 292.503 351.997)">
      <mask id="name_sans-flats-h" fill="#fff">
        <use xlink:href="#name_sans-flats-g"/>
      </mask>
      <rect width="65.11" height="115.134" x=".945" y="-4.287" fill="#FFA600" fill-opacity=".15" stroke="#FFA600" stroke-width="2" mask="url(#name_sans-flats-h)"/>
    </g>
    <g transform="rotate(90 269.25 613.75)">
      <mask id="name_sans-flats-j" fill="#fff">
        <use xlink:href="#name_sans-flats-i"/>
      </mask>
      <rect width="60.094" height="211.313" x=".949" y="-8.629" fill="#FFA600" fill-opacity=".15" stroke="#FFA600" stroke-width="2" mask="url(#name_sans-flats-j)"/>
    </g>
    <g transform="rotate(90 589.003 932.997)">
      <mask id="name_sans-flats-l" fill="#fff">
        <use xlink:href="#name_sans-flats-k"/>
      </mask>
      <rect width="60.094" height="130.179" x=".949" y="-4.966" fill="#FFA600" fill-opacity=".15" stroke="#FFA600" stroke-width="2" mask="url(#name_sans-flats-l)"/>
    </g>
    <g transform="rotate(90 607.503 743.497)">
      <mask id="name_sans-flats-n" fill="#fff">
        <use xlink:href="#name_sans-flats-m"/>
      </mask>
      <rect width="70.118" height="143.612" x=".941" y="-5.573" fill="#FFA600" fill-opacity=".15" stroke="#FFA600" stroke-width="2" mask="url(#name_sans-flats-n)"/>
    </g>
    <g transform="rotate(90 522.503 658.497)">
      <mask id="name_sans-flats-p" fill="#fff">
        <use xlink:href="#name_sans-flats-o"/>
      </mask>
      <rect width="70.118" height="130.179" x=".941" y="-4.966" fill="#FFA600" fill-opacity=".15" stroke="#FFA600" stroke-width="2" mask="url(#name_sans-flats-p)"/>
    </g>
    <g transform="rotate(90 371.128 647.122)">
      <mask id="name_sans-flats-r" fill="#fff">
        <use xlink:href="#name_sans-flats-q"/>
      </mask>
      <rect width="63.107" height="92.03" x=".947" y="-3.244" fill="#FFA600" fill-opacity=".15" stroke="#FFA600" stroke-width="2" mask="url(#name_sans-flats-r)"/>
    </g>
    <g transform="rotate(90 537.503 813.497)">
      <mask id="name_sans-flats-t" fill="#fff">
        <use xlink:href="#name_sans-flats-s"/>
      </mask>
      <rect width="63.107" height="115.134" x=".947" y="-4.287" fill="#FFA600" fill-opacity=".15" stroke="#FFA600" stroke-width="2" mask="url(#name_sans-flats-t)"/>
    </g>
    <g transform="rotate(90 774.003 1049.997)">
      <mask id="name_sans-flats-v" fill="#fff">
        <use xlink:href="#name_sans-flats-u"/>
      </mask>
      <rect width="63.107" height="209.701" x=".947" y="-8.556" fill="#FFA600" fill-opacity=".15" stroke="#FFA600" stroke-width="2" mask="url(#name_sans-flats-v)"/>
    </g>
    <g transform="rotate(90 835.003 988.997)">
      <mask id="name_sans-flats-x" fill="#fff">
        <use xlink:href="#name_sans-flats-w"/>
      </mask>
      <rect width="61.605" height="209.701" x=".948" y="-8.556" fill="#FFA600" fill-opacity=".15" stroke="#FFA600" stroke-width="2" mask="url(#name_sans-flats-x)"/>
    </g>
  </g>
</svg>
