<svg xmlns="http://www.w3.org/2000/svg" width="1891" height="463" viewBox="0 0 1891 463">
  <g fill="none" fill-rule="evenodd">
    <rect width="1891" height="463" fill="#222"/>
    <text fill="#FFF" font-family="NameSansDisplay-Bold, Name Sans Display" font-size="373.578" font-weight="bold" letter-spacing="43.2">
      <tspan x="54" y="333">nbdpqo</tspan>
    </text>
    <path fill="#FFF" fill-rule="nonzero" d="M1675.62202,333 L1675.62202,224.465376 C1675.62202,198.745406 1688.20839,187.435916 1708.27362,187.435916 C1728.52125,187.435916 1741.10762,198.745406 1741.10762,224.465376 L1741.10762,333 L1795.46614,333 L1795.46614,222.276442 C1795.46614,170.654092 1769.19894,141.103488 1724.14339,141.103488 C1697.87618,141.103488 1679.63507,152.048156 1669.42005,168.647569 L1668.14317,168.647569 L1665.04218,146.211 L1621.26351,146.211 L1621.26351,333 L1675.62202,333 Z" opacity=".368"/>
    <path fill="#FFF" fill-rule="nonzero" d="M1721.5,338.837156 C1780.4188,338.837156 1822.19095,296.335362 1822.19095,239.787911 C1822.19095,183.058049 1780.23638,140.373844 1721.5,140.373844 C1662.76362,140.373844 1620.80905,183.058049 1620.80905,239.787911 C1620.80905,296.335362 1662.5812,338.837156 1721.5,338.837156 Z M1721.5,289.221328 C1693.95592,289.221328 1675.53239,268.973692 1675.53239,239.787911 C1675.53239,210.419719 1693.95592,189.807261 1721.5,189.807261 C1748.86167,189.807261 1767.46761,210.419719 1767.46761,239.787911 C1767.46761,268.973692 1749.04408,289.221328 1721.5,289.221328 Z" opacity=".457"/>
    <path stroke="red" stroke-width="3" d="M1730.41048,337.013045 C1777.47255,337.013045 1815.9613,301.990107 1815.9613,239.6055 C1815.9613,177.220893 1777.83737,143.110011 1730.59289,143.110011 C1706.51462,143.110011 1689.36797,151.318512 1676.78161,164.634524 L1675.32232,164.634524 L1675.32232,67.7742129 L1621.14621,67.7742129 L1621.14621,333 L1667.66105,333 L1671.30927,307.462441 L1672.40374,307.462441 C1683.89564,325.885966 1702.68399,337.013045 1730.41048,337.013045 Z M1717.82411,290.133384 C1693.56343,290.133384 1674.77508,271.709859 1674.77508,239.970322 C1674.77508,207.683552 1692.65138,189.989672 1717.6417,189.989672 C1742.63203,189.989672 1759.96108,208.96043 1759.96108,240.152733 C1759.96108,271.345037 1742.2672,290.133384 1717.82411,290.133384 Z"/>
  </g>
</svg>
