<svg xmlns="http://www.w3.org/2000/svg" width="1891" height="647" viewBox="0 0 1891 647">
  <g fill="none" fill-rule="evenodd">
    <rect width="1891" height="647" fill="#222"/>
    <g fill-rule="nonzero" transform="translate(68.43 73.62)">
      <g fill="#FFF" transform="translate(.539)">
        <polygon points="37.546 77.035 37.546 68.493 23.632 68.493 23.632 11.202 37.546 11.202 37.546 2.66 0 2.66 0 11.202 13.913 11.202 13.913 68.493 0 68.493 0 77.035"/>
        <path fill-opacity=".4" d="M69.5671875,78.416543 C83.2760156,78.416543 91.5626953,72.0225 91.5626953,61.7408789 C91.5626953,53.8122656 87.3170508,49.0550977 75.0404883,46.2417188 L69.3625781,44.9117578 C61.2293555,43.0191211 58.9786523,41.0241797 58.9786523,36.8296875 C58.9786523,31.9702148 62.9685352,28.7987695 69.9764062,28.7987695 C75.6543164,28.7987695 79.5930469,31.0494727 82.9179492,35.2951172 L88.9539258,30.4867969 C84.6571289,25.1669531 78.723457,21.8420508 69.9764062,21.8420508 C58.2113672,21.8420508 50.7942773,28.1849414 50.7942773,37.1877539 C50.7942773,45.3721289 55.5514453,49.7200781 66.5491992,52.2776953 L72.0736523,53.6076563 C80.8718555,55.6025977 83.2248633,57.9556055 83.2248633,62.3035547 C83.2248633,67.9814648 78.1096289,71.5109766 69.9252539,71.5109766 C62.4058594,71.5109766 57.444082,68.4418359 53.6588086,62.354707 L47.3670703,67.1630273 C52.0219336,74.7847266 59.3878711,78.416543 69.5671875,78.416543 Z"/>
        <polygon points="115.502 77.035 115.502 0 106.192 0 106.192 77.035"/>
        <path fill-opacity=".4" d="M148.85332,78.0584766 C157.344609,78.0584766 163.6875,74.5289648 166.705488,67.3164844 L167.83084,67.3164844 L168.546973,77.0354297 L176.11752,77.0354297 L176.11752,43.4794922 C176.11752,29.2079883 168.188906,21.9955078 154.684687,21.9955078 C144.91459,21.9955078 138.16248,25.5761719 132.944941,32.1236719 L139.134375,37.4435156 C142.970801,32.0213672 147.421055,29.46375 154.326621,29.46375 C162.408691,29.46375 167.012402,33.7605469 167.012402,42.712207 L167.012402,46.0371094 L150.439043,46.0371094 C137.190586,46.0371094 130.540781,52.5846094 130.540781,61.8431836 C130.540781,71.6132813 137.139434,78.0584766 148.85332,78.0584766 Z M151.46209,71.0506055 C143.328867,71.0506055 139.441289,67.0095703 139.441289,61.4851172 C139.441289,56.0118164 142.868496,52.2776953 151.359785,52.2776953 L167.012402,52.2776953 L167.012402,55.2956836 C167.012402,64.7588672 161.07873,71.0506055 151.46209,71.0506055 Z M203.432871,77.0354297 L203.432871,43.9398633 C203.432871,34.8347461 208.445801,29.617207 217.090547,29.617207 C225.735293,29.617207 230.69707,34.3232227 230.69707,43.8887109 L230.69707,77.0354297 L239.955645,77.0354297 L239.955645,43.4283398 C239.955645,29.3614453 232.692012,21.9955078 220.261992,21.9955078 C211.770703,21.9955078 206.195098,25.9853906 203.432871,32.2259766 L202.409824,32.2259766 L202.000605,23.3254688 L194.174297,23.3254688 L194.174297,77.0354297 L203.432871,77.0354297 Z M276.785332,78.1607813 C284.867402,78.1607813 292.079883,74.5289648 295.50709,65.5261523 L296.530137,65.5261523 L297.450879,77.0354297 L305.12373,77.0354297 L305.12373,2.91322522e-13 L295.814004,2.91322522e-13 L295.814004,33.8628516 L294.790957,33.8628516 C291.312598,25.8830859 284.867402,22.0978125 276.631875,22.0978125 C263.178809,22.0978125 253.920234,32.0725195 253.920234,50.1292969 C253.920234,68.2372266 263.281113,78.1607813 276.785332,78.1607813 Z M279.547559,70.1810156 C269.726309,70.1810156 263.332266,63.4800586 263.332266,50.1292969 C263.332266,36.8808398 269.624004,30.1798828 279.394102,30.1798828 C289.522266,30.1798828 295.814004,37.4435156 295.814004,50.1804492 C295.814004,62.8150781 289.522266,70.1810156 279.547559,70.1810156 Z M367.018066,77.0354297 L367.018066,48.8504883 L383.131055,48.8504883 L398.476758,77.0354297 L409.423359,77.0354297 L392.696543,47.6739844 C402.773555,44.7583008 408.451465,36.8808398 408.451465,25.6784766 C408.451465,12.0208008 399.244043,2.65992188 383.335664,2.65992188 L357.299121,2.65992188 L357.299121,77.0354297 L367.018066,77.0354297 Z M382.926445,40.3591992 L367.018066,40.3591992 L367.018066,11.0489063 L382.926445,11.0489063 C393.208066,11.0489063 398.681367,17.3917969 398.681367,25.7296289 C398.681367,34.6301367 393.156914,40.3591992 382.926445,40.3591992 Z M435.562207,11.611582 L435.562207,2.91322522e-13 L423.18334,2.91322522e-13 L423.18334,11.611582 L435.562207,11.611582 Z M434.027637,77.0354297 L434.027637,23.2743164 L424.71791,23.2743164 L424.71791,77.0354297 L434.027637,77.0354297 Z M471.829219,78.1607813 C479.911289,78.1607813 487.12377,74.5289648 490.550977,65.5261523 L491.574023,65.5261523 L492.494766,77.0354297 L500.167617,77.0354297 L500.167617,2.91322522e-13 L490.857891,2.91322522e-13 L490.857891,33.8628516 L489.834844,33.8628516 C486.356484,25.8830859 479.911289,22.0978125 471.675762,22.0978125 C458.222695,22.0978125 448.964121,32.0725195 448.964121,50.1292969 C448.964121,68.2372266 458.325,78.1607813 471.829219,78.1607813 Z M474.591445,70.1810156 C464.770195,70.1810156 458.376152,63.4800586 458.376152,50.1292969 C458.376152,36.8808398 464.667891,30.1798828 474.437988,30.1798828 C484.566152,30.1798828 490.857891,37.4435156 490.857891,50.1804492 C490.857891,62.8150781 484.566152,70.1810156 474.591445,70.1810156 Z"/>
        <path d="M541.652168,100.61666 C557.560547,100.61666 568.558301,94.6318359 568.558301,83.2248633 C568.558301,74.6824219 562.829238,69.4648828 552.649922,69.4648828 L532.393594,69.4648828 C528.352559,69.4648828 525.999551,67.265332 525.999551,64.1450391 C525.999551,60.9735938 528.352559,58.9275 532.598203,58.9275 L538.583027,58.9275 C551.984941,58.9275 560.015859,51.9707813 560.015859,40.768418 L560.015859,36.8296875 C560.015859,32.1236719 561.806191,30.1798828 566.000684,30.1798828 L571.525137,30.1798828 L571.525137,20.0005664 L565.847227,20.0005664 C559.760098,20.0005664 556.844414,24.0927539 558.07207,31.9702148 L556.997871,31.9702148 C553.366055,25.6273242 546.818555,22.2512695 537.611133,22.2512695 C524.209219,22.2512695 515.564473,29.8218164 515.564473,40.768418 C515.564473,48.7993359 519.65666,54.7330078 527.124902,57.5463867 L527.124902,58.6205859 C520.577402,59.080957 517.610566,62.6616211 517.610566,67.111875 C517.610566,70.8971484 519.605508,73.7616797 523.186172,75.1939453 L523.186172,76.2169922 C516.280605,77.086582 512.597637,80.9741602 512.597637,86.7032227 C512.597637,95.7060352 521.140078,100.61666 537.713437,100.61666 L541.652168,100.61666 Z M537.76459,52.8915234 C529.733672,52.8915234 524.720742,48.1855078 524.720742,40.8707227 C524.720742,33.5047852 529.68252,28.8499219 537.76459,28.8499219 C545.744355,28.8499219 550.706133,33.5047852 550.706133,40.8707227 C550.706133,48.1855078 545.693203,52.8915234 537.76459,52.8915234 Z M541.242949,94.1203125 L538.224961,94.1203125 C526.306465,94.1203125 520.884316,90.7442578 520.884316,84.5036719 C520.884316,80.3091797 523.953457,77.086582 529.938281,77.086582 L550.501523,77.086582 C556.179434,77.086582 559.14627,80.0022656 559.14627,84.2479102 C559.14627,90.6419531 552.803379,94.1203125 541.242949,94.1203125 Z"/>
        <path fill-opacity=".4" d="M602.574609,78.723457 C611.679727,78.723457 618.329531,75.8589258 623.598223,70.4879297 L618.176074,64.7588672 C614.288496,68.7999023 609.326719,70.9994531 602.676914,70.9994531 C591.167637,70.9994531 585.285117,64.0427344 584.875898,52.6869141 L626.411602,52.6869141 C627.946172,33.3513281 618.380684,21.6374414 601.70502,21.6374414 C585.285117,21.6374414 575.617324,33.3001758 575.617324,50.3339063 C575.617324,67.3676367 584.875898,78.723457 602.574609,78.723457 Z M617.408789,46.1905664 L585.029355,46.1905664 C586.052402,35.6020313 592.292988,29.2591406 601.70502,29.2591406 C610.912441,29.2591406 616.948418,35.0905078 617.408789,46.1905664 Z"/>
      </g>
      <g fill="#FFF" transform="translate(5.72 203.688)">
        <path fill-opacity=".4" d="M30.2148438,241.386719 L30.2148438,0 L5.68434189e-14,0 L5.68434189e-14,241.386719 L30.2148438,241.386719 Z M122.851563,245.703125 C165.351563,245.703125 191.25,226.611328 191.25,194.238281 C191.25,169.335938 176.806641,154.726562 141.445313,146.591797 L120.693359,141.777344 C97.6171875,136.630859 90.3125,129.326172 90.3125,117.373047 C90.3125,103.59375 102.763672,95.1269531 122.851563,95.1269531 C140.947266,95.1269531 153.730469,102.265625 162.861328,115.546875 L183.447266,99.9414062 C170,80.6835938 149.746094,70.7226562 123.183594,70.7226562 C85.8300781,70.7226562 63.0859375,89.8144531 63.0859375,118.535156 C63.0859375,142.773438 77.5292969,157.880859 109.736328,165.683594 L130.654297,170.664062 C156.054688,176.806641 163.857422,183.115234 163.857422,196.396484 C163.857422,212.001953 149.580078,221.298828 123.349609,221.298828 C101.435547,221.298828 86.328125,212.001953 74.0429688,194.072266 L52.6269531,210.175781 C68.8964844,234.414062 91.9726563,245.703125 122.851563,245.703125 Z M269.277344,241.386719 L269.277344,216.152344 L261.308594,216.152344 C251.513672,216.152344 247.03125,211.171875 247.03125,200.712891 L247.03125,0 L218.642578,0 L218.642578,203.369141 C218.642578,229.599609 230.927734,241.386719 254.335938,241.386719 L269.277344,241.386719 Z M342.988281,244.375 C373.535156,244.375 392.626953,233.251953 403.251953,212.5 L404.082031,212.5 L405.742187,241.386719 L428.486328,241.386719 L428.486328,142.441406 C428.486328,97.2851562 404.580078,71.2207031 360.585937,71.2207031 C333.359375,71.2207031 311.611328,82.5097656 297.001953,104.091797 L317.753906,119.697266 C328.212891,104.921875 341.494141,96.6210938 360.585937,96.6210938 C386.152344,96.6210938 400.927734,112.392578 400.927734,138.623047 L400.927734,143.271484 L346.972656,143.271484 C308.125,143.271484 284.882812,162.695312 284.882812,194.072266 C284.882812,224.951172 307.128906,244.375 342.988281,244.375 Z M348.300781,221.464844 C325.390625,221.464844 311.777344,211.005859 311.777344,193.076172 C311.777344,175.810547 325.224609,165.517578 349.130859,165.517578 L400.927734,165.517578 L400.927734,171.826172 C400.927734,202.041016 380.341797,221.464844 348.300781,221.464844 Z M491.904297,241.386719 L491.904297,143.935547 C491.904297,112.060547 508.671875,94.9609375 536.064453,94.9609375 C563.457031,94.9609375 580.390625,111.064453 580.390625,143.4375 L580.390625,241.386719 L608.613281,241.386719 L608.613281,142.275391 C608.613281,96.2890625 584.541016,70.7226562 543.535156,70.7226562 C515.478516,70.7226562 498.212891,82.8417969 488.75,101.601562 L488.085937,101.601562 L486.425781,75.2050781 L463.515625,75.2050781 L463.515625,241.386719 L491.904297,241.386719 Z M716.191406,245.537109 C746.572266,245.537109 764.833984,233.251953 777.451172,210.341797 L778.28125,210.341797 L779.941406,241.386719 L804.345703,241.386719 L804.345703,0 L775.957031,0 L775.957031,101.933594 L775.292969,101.933594 C763.173828,83.671875 744.580078,71.71875 716.025391,71.71875 C671.201172,71.71875 638.164062,104.091797 638.164062,158.212891 C638.164062,212.333984 671.699219,245.537109 716.191406,245.537109 Z M721.669922,220.966797 C689.960938,220.966797 667.548828,196.230469 667.548828,158.378906 C667.548828,120.527344 689.628906,96.1230469 721.835938,96.1230469 C754.208984,96.1230469 776.289062,119.53125 776.289062,158.378906 C776.289062,196.396484 753.378906,220.966797 721.669922,220.966797 Z"/>
        <path d="M950.9375,241.386719 L950.9375,145.761719 L994.267578,145.761719 C1016.8457,145.761719 1028.13477,153.398438 1034.94141,171.992188 L1047.06055,205.195312 C1057.68555,232.255859 1069.14062,241.386719 1097.86133,241.386719 L1106.32812,241.386719 L1106.32812,213.330078 L1102.01172,213.330078 C1084.74609,213.330078 1079.93164,209.179688 1073.62305,190.917969 L1062.99805,161.035156 C1058.84766,148.085938 1050.71289,139.951172 1035.9375,136.630859 L1035.9375,135.634766 C1072.12891,127.998047 1091.38672,106.25 1091.38672,71.0546875 C1091.38672,26.3964844 1062.16797,0 1006.55273,0 L920.888672,0 L920.888672,241.386719 L950.9375,241.386719 Z M1002.56836,120.527344 L950.9375,120.527344 L950.9375,25.8984375 L1005.05859,25.8984375 C1041.25,25.8984375 1061.17188,42.8320312 1061.17188,73.046875 C1061.17188,103.925781 1041.08398,120.527344 1002.56836,120.527344 Z"/>
        <path fill-opacity=".4" d="M1160.44922,31.0449219 L1160.44922,0 L1127.74414,0 L1127.74414,31.0449219 L1160.44922,31.0449219 Z M1156.96289,241.386719 L1156.96289,75.2050781 L1128.57422,75.2050781 L1128.57422,241.386719 L1156.96289,241.386719 Z M1265.70312,245.537109 C1296.08398,245.537109 1314.3457,233.251953 1326.96289,210.341797 L1327.79297,210.341797 L1329.45312,241.386719 L1353.85742,241.386719 L1353.85742,0 L1325.46875,0 L1325.46875,101.933594 L1324.80469,101.933594 C1312.68555,83.671875 1294.0918,71.71875 1265.53711,71.71875 C1220.71289,71.71875 1187.67578,104.091797 1187.67578,158.212891 C1187.67578,212.333984 1221.21094,245.537109 1265.70312,245.537109 Z M1271.18164,220.966797 C1239.47266,220.966797 1217.06055,196.230469 1217.06055,158.378906 C1217.06055,120.527344 1239.14062,96.1230469 1271.34766,96.1230469 C1303.7207,96.1230469 1325.80078,119.53125 1325.80078,158.378906 C1325.80078,196.396484 1302.89062,220.966797 1271.18164,220.966797 Z M1486.00586,298.828125 C1527.01172,298.828125 1548.59375,275.419922 1548.59375,236.40625 L1548.59375,75.2050781 L1525.51758,75.2050781 L1523.69141,105.253906 L1522.86133,105.253906 C1510.9082,83.671875 1491.15234,71.5527344 1460.77148,71.5527344 C1416.77734,71.5527344 1384.57031,103.261719 1384.57031,153.398438 C1384.57031,203.535156 1416.61133,234.580078 1460.10742,234.580078 C1491.31836,234.580078 1508.08594,222.294922 1519.375,204.033203 L1520.37109,204.033203 L1520.37109,236.904297 C1520.37109,260.810547 1507.58789,274.423828 1483.84766,274.589844 L1451.97266,274.589844 L1451.97266,274.589844 C1430.72266,274.589844 1421.5918,267.119141 1416.11328,249.6875 L1391.37695,261.640625 C1400.00977,289.033203 1416.61133,298.828125 1449.98047,298.828125 L1486.00586,298.828125 Z M1467.08008,211.005859 C1435.37109,211.005859 1413.29102,187.929688 1413.125,153.730469 C1413.125,119.53125 1434.04297,96.1221375 1466.41602,96.1221375 C1497.95898,95.9570313 1520.37109,118.535156 1520.37109,152.900391 C1520.37109,187.265625 1498.78906,210.839844 1467.08008,211.005859 Z M1663.47656,246.367188 C1694.35547,246.367188 1718.92578,233.75 1732.70508,211.337891 L1712.11914,196.396484 C1702.82227,212.832031 1686.2207,222.128906 1663.47656,222.128906 C1629.77539,222.128906 1608.69141,201.708984 1606.86523,167.509766 L1742.5,167.509766 C1746.98242,108.408203 1715.60547,70.2246094 1662.14844,70.2246094 C1611.34766,70.2246094 1578.14453,106.25 1578.14453,159.208984 C1578.14453,212.001953 1611.18164,246.367188 1663.47656,246.367188 Z M1715.10742,144.433594 L1607.5293,144.433594 C1611.51367,113.222656 1631.43555,94.4628906 1662.14844,94.4628906 C1693.19336,94.4628906 1712.61719,113.222656 1715.10742,144.433594 Z"/>
      </g>
      <path fill="#FFA600" d="M2.70410156 130.53543L2.70410156 124.25125 2.84375 124.25125 7.59814453 130.53543 8.65820312 130.53543 8.65820312 121.305938 7.19824219 121.305938 7.19824219 127.596465 7.07128906 127.596465 2.31054688 121.305938 1.24414062 121.305938 1.24414062 130.53543 2.70410156 130.53543zM12.9050781 130.53543L13.5842773 128.700957 17.5579102 128.700957 18.2371094 130.53543 19.8938477 130.53543 16.1550781 121.274199 15.0569336 121.274199 11.3181641 130.53543 12.9050781 130.53543zM17.1072266 127.482207L14.0349609 127.482207 15.4758789 123.591094 15.6726562 123.591094 17.1072266 127.482207zM23.9693359 130.53543L23.9693359 124.784453 24.115332 124.784453 26.7115234 130.53543 27.6319336 130.53543 30.228125 124.784453 30.3741211 124.784453 30.3741211 130.53543 31.7833008 130.53543 31.7833008 121.305938 30.4566406 121.305938 27.2637695 128.339141 27.1304687 128.339141 23.9185547 121.305938 22.5538086 121.305938 22.5538086 130.53543 23.9693359 130.53543zM41.603418 130.53543L41.603418 129.278594 36.9378906 129.278594 36.9378906 126.428496 39.7625977 126.428496 39.7625977 125.184355 36.9378906 125.184355 36.9378906 122.562773 41.4383789 122.562773 41.4383789 121.305938 35.471582 121.305938 35.471582 130.53543 41.603418 130.53543zM52.2617188 130.713164C54.4389648 130.713164 55.6450195 129.519805 55.6450195 127.939238 55.6450195 126.612578 55.0102539 125.831816 53.3535156 125.285918L52.0585938 124.860625C51.074707 124.536895 50.7700195 124.187773 50.7700195 123.578398 50.7700195 122.899199 51.296875 122.353301 52.4331055 122.353301 53.2900391 122.353301 53.8232422 122.70877 54.2358398 123.299102L55.3657227 122.600859C54.7563477 121.712188 53.8930664 121.128203 52.4458008 121.128203 50.5541992 121.128203 49.3925781 122.194609 49.3925781 123.622832 49.3925781 124.898711 50.078125 125.673125 51.4047852 126.104766L52.737793 126.542754C53.8994141 126.923613 54.2294922 127.380645 54.2294922 128.059844 54.2294922 128.878691 53.5566406 129.475371 52.2617188 129.475371 51.1572266 129.475371 50.5224609 129.050078 50.0146484 128.212188L48.8657227 128.897734C49.5258789 130.065703 50.5097656 130.713164 52.2617188 130.713164zM59.1238281 130.53543L59.8030273 128.700957 63.7766602 128.700957 64.4558594 130.53543 66.1125977 130.53543 62.3738281 121.274199 61.2756836 121.274199 57.5369141 130.53543 59.1238281 130.53543zM63.3259766 127.482207L60.2537109 127.482207 61.6946289 123.591094 61.8914063 123.591094 63.3259766 127.482207zM70.2325195 130.53543L70.2325195 124.25125 70.372168 124.25125 75.1265625 130.53543 76.1866211 130.53543 76.1866211 121.305938 74.7266602 121.305938 74.7266602 127.596465 74.599707 127.596465 69.8389648 121.305938 68.7725586 121.305938 68.7725586 130.53543 70.2325195 130.53543zM82.2743164 130.713164C84.4515625 130.713164 85.6576172 129.519805 85.6576172 127.939238 85.6576172 126.612578 85.0228516 125.831816 83.3661133 125.285918L82.0711914 124.860625C81.0873047 124.536895 80.7826172 124.187773 80.7826172 123.578398 80.7826172 122.899199 81.3094727 122.353301 82.4457031 122.353301 83.3026367 122.353301 83.8358398 122.70877 84.2484375 123.299102L85.3783203 122.600859C84.7689453 121.712188 83.9056641 121.128203 82.4583984 121.128203 80.5667969 121.128203 79.4051758 122.194609 79.4051758 123.622832 79.4051758 124.898711 80.0907227 125.673125 81.4173828 126.104766L82.7503906 126.542754C83.9120117 126.923613 84.2420898 127.380645 84.2420898 128.059844 84.2420898 128.878691 83.5692383 129.475371 82.2743164 129.475371 81.1698242 129.475371 80.5350586 129.050078 80.0272461 128.212188L78.8783203 128.897734C79.5384766 130.065703 80.5223633 130.713164 82.2743164 130.713164zM97.4711914 130.53543L97.4711914 122.588164 100.321289 122.588164 100.321289 121.305938 93.1230469 121.305938 93.1230469 122.588164 95.9921875 122.588164 95.9921875 130.53543 97.4711914 130.53543zM109.468555 130.53543L109.468555 129.278594 104.803027 129.278594 104.803027 126.428496 107.627734 126.428496 107.627734 125.184355 104.803027 125.184355 104.803027 122.562773 109.303516 122.562773 109.303516 121.305938 103.336719 121.305938 103.336719 130.53543 109.468555 130.53543zM113.429785 130.53543L115.613379 126.891875 115.810156 126.891875 118.196875 130.53543 119.910742 130.53543 116.743262 125.761992 119.707617 121.305938 118.025488 121.305938 116.064063 124.676543 115.873633 124.676543 113.690039 121.305938 111.957129 121.305938 114.921484 125.761992 111.715918 130.53543 113.429785 130.53543zM126.366602 130.53543L126.366602 122.588164 129.216699 122.588164 129.216699 121.305938 122.018457 121.305938 122.018457 122.588164 124.887598 122.588164 124.887598 130.53543 126.366602 130.53543zM131.622754 132.750762L132.517773 130.738555 132.517773 128.662871 130.581738 128.662871 130.581738 130.53543 131.47041 130.53543 131.483105 130.586211 130.524609 132.750762 131.622754 132.750762zM144.179004 130.53543L146.470508 123.825957 146.629199 123.825957 148.927051 130.53543 149.987109 130.53543 152.96416 121.305938 151.351855 121.305938 149.530078 127.755156 149.352344 127.755156 147.105273 121.305938 146.070605 121.305938 143.861621 127.742461 143.683887 127.742461 141.836719 121.305938 140.148242 121.305938 143.137988 130.53543 144.179004 130.53543zM157.280859 130.53543L157.280859 121.305938 155.814551 121.305938 155.814551 130.53543 157.280859 130.53543zM164.70791 130.53543L164.70791 122.588164 167.558008 122.588164 167.558008 121.305938 160.359766 121.305938 160.359766 122.588164 163.228906 122.588164 163.228906 130.53543 164.70791 130.53543zM172.039746 130.53543L172.039746 126.530059 176.400586 126.530059 176.400586 130.53543 177.866895 130.53543 177.866895 121.305938 176.400586 121.305938 176.400586 125.235137 172.039746 125.235137 172.039746 121.305938 170.573437 121.305938 170.573437 130.53543 172.039746 130.53543zM190.531055 130.713164C193.222461 130.713164 195.018848 128.834258 195.018848 125.933379 195.018848 123.0325 193.222461 121.128203 190.531055 121.128203 187.839648 121.128203 186.081348 123.0325 186.081348 125.933379 186.081348 128.834258 187.845996 130.713164 190.531055 130.713164zM190.531055 129.361113C188.645801 129.361113 187.566699 128.047148 187.566699 125.933379 187.566699 123.825957 188.639453 122.480254 190.531055 122.480254 192.422656 122.480254 193.533496 123.825957 193.533496 125.933379 193.533496 128.047148 192.416309 129.361113 190.531055 129.361113zM199.595801 130.53543L199.595801 127.215605 201.366797 127.215605C203.385352 127.215605 204.566016 126.079375 204.566016 124.25125 204.566016 122.480254 203.385352 121.305938 201.354102 121.305938L198.123145 121.305938 198.123145 130.53543 199.595801 130.53543zM201.284277 125.946074L199.595801 125.946074 199.595801 122.569121 201.284277 122.569121C202.477637 122.569121 203.093359 123.286406 203.093359 124.263945 203.093359 125.27957 202.471289 125.946074 201.284277 125.946074zM211.301172 130.53543L211.301172 122.588164 214.15127 122.588164 214.15127 121.305938 206.953027 121.305938 206.953027 122.588164 209.822168 122.588164 209.822168 130.53543 211.301172 130.53543zM218.70918 130.53543L218.70918 121.305938 217.242871 121.305938 217.242871 130.53543 218.70918 130.53543zM226.333008 130.713164C229.024414 130.713164 230.820801 128.834258 230.820801 125.933379 230.820801 123.0325 229.024414 121.128203 226.333008 121.128203 223.641602 121.128203 221.883301 123.0325 221.883301 125.933379 221.883301 128.834258 223.647949 130.713164 226.333008 130.713164zM226.333008 129.361113C224.447754 129.361113 223.368652 128.047148 223.368652 125.933379 223.368652 123.825957 224.441406 122.480254 226.333008 122.480254 228.224609 122.480254 229.335449 123.825957 229.335449 125.933379 229.335449 128.047148 228.218262 129.361113 226.333008 129.361113zM235.385059 130.53543L235.385059 124.25125 235.524707 124.25125 240.279102 130.53543 241.33916 130.53543 241.33916 121.305938 239.879199 121.305938 239.879199 127.596465 239.752246 127.596465 234.991504 121.305938 233.925098 121.305938 233.925098 130.53543 235.385059 130.53543zM245.586035 130.53543L246.265234 128.700957 250.238867 128.700957 250.918066 130.53543 252.574805 130.53543 248.836035 121.274199 247.737891 121.274199 243.999121 130.53543 245.586035 130.53543zM249.788184 127.482207L246.715918 127.482207 248.156836 123.591094 248.353613 123.591094 249.788184 127.482207zM260.947656 130.53543L260.947656 129.221465 256.701074 129.221465 256.701074 121.305938 255.234766 121.305938 255.234766 130.53543 260.947656 130.53543zM269.688965 130.53543L270.368164 128.700957 274.341797 128.700957 275.020996 130.53543 276.677734 130.53543 272.938965 121.274199 271.84082 121.274199 268.102051 130.53543 269.688965 130.53543zM273.891113 127.482207L270.818848 127.482207 272.259766 123.591094 272.456543 123.591094 273.891113 127.482207zM285.050586 130.53543L285.050586 129.221465 280.804004 129.221465 280.804004 121.305938 279.337695 121.305938 279.337695 130.53543 285.050586 130.53543zM290.16709 130.53543L290.16709 122.588164 293.017187 122.588164 293.017187 121.305938 285.818945 121.305938 285.818945 122.588164 288.688086 122.588164 288.688086 130.53543 290.16709 130.53543zM302.678906 130.53543L302.678906 121.305938 301.212598 121.305938 301.212598 130.53543 302.678906 130.53543zM307.224121 132.750762L308.119141 130.738555 308.119141 128.662871 306.183105 128.662871 306.183105 130.53543 307.071777 130.53543 307.084473 130.586211 306.125977 132.750762 307.224121 132.750762zM322.376562 130.53543L322.376562 129.221465 318.12998 129.221465 318.12998 121.305938 316.663672 121.305938 316.663672 130.53543 322.376562 130.53543zM326.242578 132.750762L327.137598 130.738555 327.137598 128.662871 325.201562 128.662871 325.201562 130.53543 326.090234 130.53543 326.10293 130.586211 325.144434 132.750762 326.242578 132.750762zM339.300293 130.725859C340.71582 130.725859 341.725098 130.135527 342.194824 128.916777L342.34082 128.916777 342.442383 130.53543 343.597656 130.53543 343.597656 125.628691 339.60498 125.628691 339.60498 126.847441 342.150391 126.847441 342.150391 127.158477C342.150391 128.561309 341.242676 129.392852 339.503418 129.392852 337.681641 129.392852 336.583496 128.028105 336.583496 125.939727 336.583496 123.857695 337.783203 122.499297 339.598633 122.499297 340.684082 122.499297 341.433105 122.937285 342.01709 123.711699L343.191406 122.810332C342.385254 121.743926 341.255371 121.102813 339.592285 121.102813 337.008789 121.102813 335.098145 122.975371 335.098145 125.914336 335.098145 128.853301 336.869141 130.725859 339.300293 130.725859zM352.834082 130.53543L353.513281 128.700957 357.486914 128.700957 358.166113 130.53543 359.822852 130.53543 356.084082 121.274199 354.985937 121.274199 351.247168 130.53543 352.834082 130.53543zM357.03623 127.482207L353.963965 127.482207 355.404883 123.591094 355.60166 123.591094 357.03623 127.482207zM365.14248 130.53543L365.14248 122.588164 367.992578 122.588164 367.992578 121.305938 360.794336 121.305938 360.794336 122.588164 363.663477 122.588164 363.663477 130.53543 365.14248 130.53543zM379.977539 130.713164C382.668945 130.713164 384.465332 128.834258 384.465332 125.933379 384.465332 123.0325 382.668945 121.128203 379.977539 121.128203 377.286133 121.128203 375.527832 123.0325 375.527832 125.933379 375.527832 128.834258 377.29248 130.713164 379.977539 130.713164zM379.977539 129.361113C378.092285 129.361113 377.013184 128.047148 377.013184 125.933379 377.013184 123.825957 378.085937 122.480254 379.977539 122.480254 381.869141 122.480254 382.97998 123.825957 382.97998 125.933379 382.97998 128.047148 381.862793 129.361113 379.977539 129.361113zM389.042285 130.53543L389.042285 127.215605 390.813281 127.215605C392.831836 127.215605 394.0125 126.079375 394.0125 124.25125 394.0125 122.480254 392.831836 121.305938 390.800586 121.305938L387.569629 121.305938 387.569629 130.53543 389.042285 130.53543zM390.730762 125.946074L389.042285 125.946074 389.042285 122.569121 390.730762 122.569121C391.924121 122.569121 392.539844 123.286406 392.539844 124.263945 392.539844 125.27957 391.917773 125.946074 390.730762 125.946074zM399.217871 130.713164C401.395117 130.713164 402.601172 129.519805 402.601172 127.939238 402.601172 126.612578 401.966406 125.831816 400.309668 125.285918L399.014746 124.860625C398.030859 124.536895 397.726172 124.187773 397.726172 123.578398 397.726172 122.899199 398.253027 122.353301 399.389258 122.353301 400.246191 122.353301 400.779395 122.70877 401.191992 123.299102L402.321875 122.600859C401.7125 121.712188 400.849219 121.128203 399.401953 121.128203 397.510352 121.128203 396.34873 122.194609 396.34873 123.622832 396.34873 124.898711 397.034277 125.673125 398.360937 126.104766L399.693945 126.542754C400.855566 126.923613 401.185645 127.380645 401.185645 128.059844 401.185645 128.878691 400.512793 129.475371 399.217871 129.475371 398.113379 129.475371 397.478613 129.050078 396.970801 128.212188L395.821875 128.897734C396.482031 130.065703 397.465918 130.713164 399.217871 130.713164zM411.875391 130.53543L412.122949 129.221465 407.216211 129.221465 407.209863 129.069121 411.951562 122.156523 411.951562 121.305938 405.184961 121.305938 405.184961 122.619902 409.894922 122.619902 409.894922 122.778594 405.140527 129.684844 405.140527 130.53543 411.875391 130.53543zM426.558105 130.02127L426.558105 128.586699 421.854492 126.777617 421.854492 126.542754 426.558105 124.663848 426.558105 123.22293 420.108887 125.95877 420.108887 127.412383 426.558105 130.02127zM440.885352 130.53543L441.113867 129.278594 436.321387 129.278594C436.302344 128.510527 436.676855 128.028105 438.035254 127.234648L438.955664 126.695098C440.498145 125.787383 440.948828 124.835234 440.948828 123.806914 440.948828 122.258086 439.825293 121.121855 437.997168 121.121855 436.302344 121.121855 435.22959 122.099395 434.93125 123.572051L436.213477 123.864043C436.410254 122.930938 437.025977 122.391387 437.971777 122.385039 438.942969 122.378691 439.526953 122.94998 439.526953 123.813262 439.526953 124.492461 439.241309 125.089141 438.003516 125.806426L437.076758 126.339629C435.534277 127.240996 434.842383 128.174102 434.842383 129.919707L434.842383 130.53543 440.885352 130.53543zM449.670801 130.53543L449.670801 128.783477 450.845117 128.783477 450.845117 127.558379 449.670801 127.558379 449.670801 121.305938 448.585352 121.305938 443.519922 127.932891 443.519922 128.783477 448.261621 128.783477 448.261621 130.53543 449.670801 130.53543zM448.267969 127.558379L445.309961 127.558379 445.309961 127.444121 448.23623 123.62918 448.369531 123.62918 448.267969 127.558379zM2.70410156 501.65043L2.70410156 495.36625 2.84375 495.36625 7.59814453 501.65043 8.65820312 501.65043 8.65820312 492.420938 7.19824219 492.420938 7.19824219 498.711465 7.07128906 498.711465 2.31054688 492.420938 1.24414062 492.420938 1.24414062 501.65043 2.70410156 501.65043zM12.9050781 501.65043L13.5842773 499.815957 17.5579102 499.815957 18.2371094 501.65043 19.8938477 501.65043 16.1550781 492.389199 15.0569336 492.389199 11.3181641 501.65043 12.9050781 501.65043zM17.1072266 498.597207L14.0349609 498.597207 15.4758789 494.706094 15.6726562 494.706094 17.1072266 498.597207zM23.9693359 501.65043L23.9693359 495.899453 24.115332 495.899453 26.7115234 501.65043 27.6319336 501.65043 30.228125 495.899453 30.3741211 495.899453 30.3741211 501.65043 31.7833008 501.65043 31.7833008 492.420938 30.4566406 492.420938 27.2637695 499.454141 27.1304687 499.454141 23.9185547 492.420938 22.5538086 492.420938 22.5538086 501.65043 23.9693359 501.65043zM41.603418 501.65043L41.603418 500.393594 36.9378906 500.393594 36.9378906 497.543496 39.7625977 497.543496 39.7625977 496.299355 36.9378906 496.299355 36.9378906 493.677773 41.4383789 493.677773 41.4383789 492.420938 35.471582 492.420938 35.471582 501.65043 41.603418 501.65043zM52.2617188 501.828164C54.4389648 501.828164 55.6450195 500.634805 55.6450195 499.054238 55.6450195 497.727578 55.0102539 496.946816 53.3535156 496.400918L52.0585938 495.975625C51.074707 495.651895 50.7700195 495.302773 50.7700195 494.693398 50.7700195 494.014199 51.296875 493.468301 52.4331055 493.468301 53.2900391 493.468301 53.8232422 493.82377 54.2358398 494.414102L55.3657227 493.715859C54.7563477 492.827188 53.8930664 492.243203 52.4458008 492.243203 50.5541992 492.243203 49.3925781 493.309609 49.3925781 494.737832 49.3925781 496.013711 50.078125 496.788125 51.4047852 497.219766L52.737793 497.657754C53.8994141 498.038613 54.2294922 498.495645 54.2294922 499.174844 54.2294922 499.993691 53.5566406 500.590371 52.2617188 500.590371 51.1572266 500.590371 50.5224609 500.165078 50.0146484 499.327188L48.8657227 500.012734C49.5258789 501.180703 50.5097656 501.828164 52.2617188 501.828164zM59.1238281 501.65043L59.8030273 499.815957 63.7766602 499.815957 64.4558594 501.65043 66.1125977 501.65043 62.3738281 492.389199 61.2756836 492.389199 57.5369141 501.65043 59.1238281 501.65043zM63.3259766 498.597207L60.2537109 498.597207 61.6946289 494.706094 61.8914063 494.706094 63.3259766 498.597207zM70.2325195 501.65043L70.2325195 495.36625 70.372168 495.36625 75.1265625 501.65043 76.1866211 501.65043 76.1866211 492.420938 74.7266602 492.420938 74.7266602 498.711465 74.599707 498.711465 69.8389648 492.420938 68.7725586 492.420938 68.7725586 501.65043 70.2325195 501.65043zM82.2743164 501.828164C84.4515625 501.828164 85.6576172 500.634805 85.6576172 499.054238 85.6576172 497.727578 85.0228516 496.946816 83.3661133 496.400918L82.0711914 495.975625C81.0873047 495.651895 80.7826172 495.302773 80.7826172 494.693398 80.7826172 494.014199 81.3094727 493.468301 82.4457031 493.468301 83.3026367 493.468301 83.8358398 493.82377 84.2484375 494.414102L85.3783203 493.715859C84.7689453 492.827188 83.9056641 492.243203 82.4583984 492.243203 80.5667969 492.243203 79.4051758 493.309609 79.4051758 494.737832 79.4051758 496.013711 80.0907227 496.788125 81.4173828 497.219766L82.7503906 497.657754C83.9120117 498.038613 84.2420898 498.495645 84.2420898 499.174844 84.2420898 499.993691 83.5692383 500.590371 82.2743164 500.590371 81.1698242 500.590371 80.5350586 500.165078 80.0272461 499.327188L78.8783203 500.012734C79.5384766 501.180703 80.5223633 501.828164 82.2743164 501.828164zM96.7094727 501.65043C99.546875 501.65043 101.317871 499.936563 101.317871 497.048379 101.317871 494.160195 99.546875 492.420938 96.6967773 492.420938L93.8022461 492.420938 93.8022461 501.65043 96.7094727 501.65043zM96.7158203 500.285684L95.2685547 500.285684 95.2685547 493.785684 96.7158203 493.785684C98.7026367 493.785684 99.8325195 494.915566 99.8325195 497.042031 99.8325195 499.168496 98.7026367 500.285684 96.7158203 500.285684zM105.964648 501.65043L105.964648 492.420938 104.49834 492.420938 104.49834 501.65043 105.964648 501.65043zM112.122168 501.828164C114.299414 501.828164 115.505469 500.634805 115.505469 499.054238 115.505469 497.727578 114.870703 496.946816 113.213965 496.400918L111.919043 495.975625C110.935156 495.651895 110.630469 495.302773 110.630469 494.693398 110.630469 494.014199 111.157324 493.468301 112.293555 493.468301 113.150488 493.468301 113.683691 493.82377 114.096289 494.414102L115.226172 493.715859C114.616797 492.827188 113.753516 492.243203 112.30625 492.243203 110.414648 492.243203 109.253027 493.309609 109.253027 494.737832 109.253027 496.013711 109.938574 496.788125 111.265234 497.219766L112.598242 497.657754C113.759863 498.038613 114.089941 498.495645 114.089941 499.174844 114.089941 499.993691 113.41709 500.590371 112.122168 500.590371 111.017676 500.590371 110.38291 500.165078 109.875098 499.327188L108.726172 500.012734C109.386328 501.180703 110.370215 501.828164 112.122168 501.828164zM120.018945 501.65043L120.018945 498.330605 121.789941 498.330605C123.808496 498.330605 124.98916 497.194375 124.98916 495.36625 124.98916 493.595254 123.808496 492.420938 121.777246 492.420938L118.546289 492.420938 118.546289 501.65043 120.018945 501.65043zM121.707422 497.061074L120.018945 497.061074 120.018945 493.684121 121.707422 493.684121C122.900781 493.684121 123.516504 494.401406 123.516504 495.378945 123.516504 496.39457 122.894434 497.061074 121.707422 497.061074zM133.768262 501.65043L133.768262 500.336465 129.52168 500.336465 129.52168 492.420938 128.055371 492.420938 128.055371 501.65043 133.768262 501.65043zM137.367676 501.65043L138.046875 499.815957 142.020508 499.815957 142.699707 501.65043 144.356445 501.65043 140.617676 492.389199 139.519531 492.389199 135.780762 501.65043 137.367676 501.65043zM141.569824 498.597207L138.497559 498.597207 139.938477 494.706094 140.135254 494.706094 141.569824 498.597207zM149.561816 501.65043L149.561816 497.835488 153.116504 492.420938 151.44707 492.420938 148.946094 496.597695 148.736621 496.597695 146.324512 492.420938 144.572559 492.420938 148.082813 497.835488 148.082813 501.65043 149.561816 501.65043zM154.513281 503.865762L155.408301 501.853555 155.408301 499.777871 153.472266 499.777871 153.472266 501.65043 154.360938 501.65043 154.373633 501.701211 153.415137 503.865762 154.513281 503.865762zM167.069531 501.65043L169.361035 494.940957 169.519727 494.940957 171.817578 501.65043 172.877637 501.65043 175.854687 492.420938 174.242383 492.420938 172.420605 498.870156 172.242871 498.870156 169.995801 492.420938 168.961133 492.420938 166.752148 498.857461 166.574414 498.857461 164.727246 492.420938 163.03877 492.420938 166.028516 501.65043 167.069531 501.65043zM180.171387 501.65043L180.171387 492.420938 178.705078 492.420938 178.705078 501.65043 180.171387 501.65043zM187.598437 501.65043L187.598437 493.703164 190.448535 493.703164 190.448535 492.420938 183.250293 492.420938 183.250293 493.703164 186.119434 493.703164 186.119434 501.65043 187.598437 501.65043zM194.930273 501.65043L194.930273 497.645059 199.291113 497.645059 199.291113 501.65043 200.757422 501.65043 200.757422 492.420938 199.291113 492.420938 199.291113 496.350137 194.930273 496.350137 194.930273 492.420938 193.463965 492.420938 193.463965 501.65043 194.930273 501.65043zM213.421582 501.828164C216.112988 501.828164 217.909375 499.949258 217.909375 497.048379 217.909375 494.1475 216.112988 492.243203 213.421582 492.243203 210.730176 492.243203 208.971875 494.1475 208.971875 497.048379 208.971875 499.949258 210.736523 501.828164 213.421582 501.828164zM213.421582 500.476113C211.536328 500.476113 210.457227 499.162148 210.457227 497.048379 210.457227 494.940957 211.52998 493.595254 213.421582 493.595254 215.313184 493.595254 216.424023 494.940957 216.424023 497.048379 216.424023 499.162148 215.306836 500.476113 213.421582 500.476113zM222.486328 501.65043L222.486328 498.330605 224.257324 498.330605C226.275879 498.330605 227.456543 497.194375 227.456543 495.36625 227.456543 493.595254 226.275879 492.420938 224.244629 492.420938L221.013672 492.420938 221.013672 501.65043 222.486328 501.65043zM224.174805 497.061074L222.486328 497.061074 222.486328 493.684121 224.174805 493.684121C225.368164 493.684121 225.983887 494.401406 225.983887 495.378945 225.983887 496.39457 225.361816 497.061074 224.174805 497.061074zM234.191699 501.65043L234.191699 493.703164 237.041797 493.703164 237.041797 492.420938 229.843555 492.420938 229.843555 493.703164 232.712695 493.703164 232.712695 501.65043 234.191699 501.65043zM241.599707 501.65043L241.599707 492.420938 240.133398 492.420938 240.133398 501.65043 241.599707 501.65043zM249.223535 501.828164C251.914941 501.828164 253.711328 499.949258 253.711328 497.048379 253.711328 494.1475 251.914941 492.243203 249.223535 492.243203 246.532129 492.243203 244.773828 494.1475 244.773828 497.048379 244.773828 499.949258 246.538477 501.828164 249.223535 501.828164zM249.223535 500.476113C247.338281 500.476113 246.25918 499.162148 246.25918 497.048379 246.25918 494.940957 247.331934 493.595254 249.223535 493.595254 251.115137 493.595254 252.225977 494.940957 252.225977 497.048379 252.225977 499.162148 251.108789 500.476113 249.223535 500.476113zM258.275586 501.65043L258.275586 495.36625 258.415234 495.36625 263.169629 501.65043 264.229687 501.65043 264.229687 492.420938 262.769727 492.420938 262.769727 498.711465 262.642773 498.711465 257.882031 492.420938 256.815625 492.420938 256.815625 501.65043 258.275586 501.65043zM268.476562 501.65043L269.155762 499.815957 273.129395 499.815957 273.808594 501.65043 275.465332 501.65043 271.726562 492.389199 270.628418 492.389199 266.889648 501.65043 268.476562 501.65043zM272.678711 498.597207L269.606445 498.597207 271.047363 494.706094 271.244141 494.706094 272.678711 498.597207zM283.838184 501.65043L283.838184 500.336465 279.591602 500.336465 279.591602 492.420938 278.125293 492.420938 278.125293 501.65043 283.838184 501.65043zM295.639062 501.840859C297.05459 501.840859 298.063867 501.250527 298.533594 500.031777L298.67959 500.031777 298.781152 501.65043 299.936426 501.65043 299.936426 496.743691 295.94375 496.743691 295.94375 497.962441 298.48916 497.962441 298.48916 498.273477C298.48916 499.676309 297.581445 500.507852 295.842187 500.507852 294.02041 500.507852 292.922266 499.143105 292.922266 497.054727 292.922266 494.972695 294.121973 493.614297 295.937402 493.614297 297.022852 493.614297 297.771875 494.052285 298.355859 494.826699L299.530176 493.925332C298.724023 492.858926 297.594141 492.217813 295.931055 492.217813 293.347559 492.217813 291.436914 494.090371 291.436914 497.029336 291.436914 499.968301 293.20791 501.840859 295.639062 501.840859zM304.976758 501.65043L304.976758 498.248086 306.779492 498.248086 308.531445 501.65043 310.181836 501.65043 308.214062 498.044961C309.382031 497.645059 310.03584 496.673867 310.03584 495.321816 310.03584 493.576211 308.874219 492.420938 306.868359 492.420938L303.510449 492.420938 303.510449 501.65043 304.976758 501.65043zM306.798535 496.965859L304.976758 496.965859 304.976758 493.684121 306.798535 493.684121C307.960156 493.684121 308.563184 494.388711 308.563184 495.334512 308.563184 496.324746 307.953809 496.965859 306.798535 496.965859zM316.92334 501.828164C319.614746 501.828164 321.411133 499.949258 321.411133 497.048379 321.411133 494.1475 319.614746 492.243203 316.92334 492.243203 314.231934 492.243203 312.473633 494.1475 312.473633 497.048379 312.473633 499.949258 314.238281 501.828164 316.92334 501.828164zM316.92334 500.476113C315.038086 500.476113 313.958984 499.162148 313.958984 497.048379 313.958984 494.940957 315.031738 493.595254 316.92334 493.595254 318.814941 493.595254 319.925781 494.940957 319.925781 497.048379 319.925781 499.162148 318.808594 500.476113 316.92334 500.476113zM327.847949 501.65043L327.847949 493.703164 330.698047 493.703164 330.698047 492.420938 323.499805 492.420938 323.499805 493.703164 326.368945 493.703164 326.368945 501.65043 327.847949 501.65043zM340.283594 501.65043L340.283594 498.248086 342.086328 498.248086 343.838281 501.65043 345.488672 501.65043 343.520898 498.044961C344.688867 497.645059 345.342676 496.673867 345.342676 495.321816 345.342676 493.576211 344.181055 492.420938 342.175195 492.420938L338.817285 492.420938 338.817285 501.65043 340.283594 501.65043zM342.105371 496.965859L340.283594 496.965859 340.283594 493.684121 342.105371 493.684121C343.266992 493.684121 343.87002 494.388711 343.87002 495.334512 343.87002 496.324746 343.260645 496.965859 342.105371 496.965859zM354.236328 501.65043L354.915527 499.815957 358.88916 499.815957 359.568359 501.65043 361.225098 501.65043 357.486328 492.389199 356.388184 492.389199 352.649414 501.65043 354.236328 501.65043zM358.438477 498.597207L355.366211 498.597207 356.807129 494.706094 357.003906 494.706094 358.438477 498.597207zM366.544727 501.65043L366.544727 493.703164 369.394824 493.703164 369.394824 492.420938 362.196582 492.420938 362.196582 493.703164 365.065723 493.703164 365.065723 501.65043 366.544727 501.65043zM381.379785 501.828164C384.071191 501.828164 385.867578 499.949258 385.867578 497.048379 385.867578 494.1475 384.071191 492.243203 381.379785 492.243203 378.688379 492.243203 376.930078 494.1475 376.930078 497.048379 376.930078 499.949258 378.694727 501.828164 381.379785 501.828164zM381.379785 500.476113C379.494531 500.476113 378.41543 499.162148 378.41543 497.048379 378.41543 494.940957 379.488184 493.595254 381.379785 493.595254 383.271387 493.595254 384.382227 494.940957 384.382227 497.048379 384.382227 499.162148 383.265039 500.476113 381.379785 500.476113zM390.444531 501.65043L390.444531 498.330605 392.215527 498.330605C394.234082 498.330605 395.414746 497.194375 395.414746 495.36625 395.414746 493.595254 394.234082 492.420938 392.202832 492.420938L388.971875 492.420938 388.971875 501.65043 390.444531 501.65043zM392.133008 497.061074L390.444531 497.061074 390.444531 493.684121 392.133008 493.684121C393.326367 493.684121 393.94209 494.401406 393.94209 495.378945 393.94209 496.39457 393.32002 497.061074 392.133008 497.061074zM400.620117 501.828164C402.797363 501.828164 404.003418 500.634805 404.003418 499.054238 404.003418 497.727578 403.368652 496.946816 401.711914 496.400918L400.416992 495.975625C399.433105 495.651895 399.128418 495.302773 399.128418 494.693398 399.128418 494.014199 399.655273 493.468301 400.791504 493.468301 401.648437 493.468301 402.181641 493.82377 402.594238 494.414102L403.724121 493.715859C403.114746 492.827188 402.251465 492.243203 400.804199 492.243203 398.912598 492.243203 397.750977 493.309609 397.750977 494.737832 397.750977 496.013711 398.436523 496.788125 399.763184 497.219766L401.096191 497.657754C402.257812 498.038613 402.587891 498.495645 402.587891 499.174844 402.587891 499.993691 401.915039 500.590371 400.620117 500.590371 399.515625 500.590371 398.880859 500.165078 398.373047 499.327188L397.224121 500.012734C397.884277 501.180703 398.868164 501.828164 400.620117 501.828164zM413.277637 501.65043L413.525195 500.336465 408.618457 500.336465 408.612109 500.184121 413.353809 493.271523 413.353809 492.420938 406.587207 492.420938 406.587207 493.734902 411.297168 493.734902 411.297168 493.893594 406.542773 500.799844 406.542773 501.65043 413.277637 501.65043zM421.473047 499.676309L427.998437 497.975137 427.998437 496.553262 421.473047 494.44584 421.473047 495.766152 426.246484 497.035684 426.246484 497.346719 421.473047 498.355996 421.473047 499.676309zM427.99209 501.656777L427.99209 500.399941 421.473047 500.399941 421.473047 501.656777 427.99209 501.656777zM439.481934 501.65043L439.481934 500.850625C439.481934 498.229043 439.932617 496.343789 442.458984 493.411172L442.458984 492.420938 436.022461 492.420938 436.022461 493.709512 440.891113 493.709512 440.891113 493.855508C438.459961 496.39457 437.945801 498.463906 437.945801 500.856973L437.945801 501.65043 439.481934 501.65043zM450.749316 501.65043L450.977832 500.393594 446.185352 500.393594C446.166309 499.625527 446.54082 499.143105 447.899219 498.349648L448.819629 497.810098C450.362109 496.902383 450.812793 495.950234 450.812793 494.921914 450.812793 493.373086 449.689258 492.236855 447.861133 492.236855 446.166309 492.236855 445.093555 493.214395 444.795215 494.687051L446.077441 494.979043C446.274219 494.045938 446.889941 493.506387 447.835742 493.500039 448.806934 493.493691 449.390918 494.06498 449.390918 494.928262 449.390918 495.607461 449.105273 496.204141 447.86748 496.921426L446.940723 497.454629C445.398242 498.355996 444.706348 499.289102 444.706348 501.034707L444.706348 501.65043 450.749316 501.65043z"/>
    </g>
  </g>
</svg>
