<svg xmlns="http://www.w3.org/2000/svg" width="1891" height="463" viewBox="0 0 1891 463">
  <g fill="none" fill-rule="evenodd">
    <rect width="1891" height="463" fill="#222"/>
    <path fill="#FFF" fill-rule="nonzero" d="M122.221764,333 L122.221764,224.465376 C122.221764,198.745406 134.808132,187.435916 154.873356,187.435916 C175.120992,187.435916 187.70736,198.745406 187.70736,224.465376 L187.70736,333 L242.065878,333 L242.065878,222.276442 C242.065878,170.654092 215.798675,141.103488 170.743125,141.103488 C144.475922,141.103488 126.234809,152.048156 116.019785,168.647569 L114.742907,168.647569 L111.641918,146.211 L67.8632461,146.211 L67.8632461,333 L122.221764,333 Z M421.526994,337.013045 C468.589066,337.013045 507.077815,301.990107 507.077815,239.6055 C507.077815,177.220893 468.953889,143.110011 421.709405,143.110011 C397.631136,143.110011 380.484489,151.318512 367.898121,164.634524 L366.438832,164.634524 L366.438832,67.7742129 L312.262726,67.7742129 L312.262726,333 L358.777564,333 L362.425787,307.462441 L363.520254,307.462441 C375.012155,325.885966 393.800502,337.013045 421.526994,337.013045 Z M408.940626,290.133384 C384.679945,290.133384 365.891599,271.709859 365.891599,239.970322 C365.891599,207.683552 383.76789,189.989672 408.758215,189.989672 C433.74854,189.989672 451.077598,208.96043 451.077598,240.152733 C451.077598,271.345037 433.383718,290.133384 408.940626,290.133384 Z M653.522517,337.013045 C681.249009,337.013045 700.219767,325.885966 711.346846,307.462441 L712.806135,307.462441 L716.089535,333 L762.786785,333 L762.786785,67.7742129 L708.428268,67.7742129 L708.428268,164.634524 L707.333801,164.634524 C694.747433,151.318512 677.600786,143.110011 653.157694,143.110011 C606.278033,143.110011 567.789284,177.220893 567.789284,239.6055 C567.789284,301.990107 606.642855,337.013045 653.522517,337.013045 Z M666.108885,290.133384 C641.848204,290.133384 624.154324,271.345037 624.154324,240.152733 C624.154324,208.96043 641.300971,189.989672 666.291296,189.989672 C691.09921,189.989672 708.975501,207.683552 708.975501,239.970322 C708.975501,271.709859 690.551977,290.133384 666.108885,290.133384 Z M887.889384,397.938363 L887.889384,314.576476 L889.166262,314.576476 C902.482274,329.169366 917.80481,336.2834 942.612724,336.2834 C990.40444,336.2834 1028.52837,302.172519 1028.52837,239.6055 C1028.52837,177.038481 990.039618,142.197955 942.977546,142.197955 C915.433465,142.197955 896.097885,153.689856 884.970806,171.748559 L883.876339,171.748559 L880.228116,146.211 L833.713277,146.211 L833.713277,397.938363 L887.889384,397.938363 Z M930.208767,289.403739 C905.218441,289.403739 887.34215,271.892271 887.34215,239.6055 C887.34215,207.683552 906.130497,189.260027 930.391178,189.260027 C954.83427,189.260027 972.528149,208.230785 972.528149,239.423089 C972.528149,270.432981 955.199092,289.403739 930.208767,289.403739 Z M1284.23734,397.938363 L1284.23734,146.211 L1237.54009,146.211 L1234.07428,171.748559 L1232.7974,171.748559 C1221.85273,153.689856 1202.51715,142.197955 1174.97307,142.197955 C1127.911,142.197955 1089.23984,177.038481 1089.23984,239.6055 C1089.23984,301.990107 1127.54617,336.100989 1175.15548,336.100989 C1200.1458,336.100989 1216.74522,328.804544 1228.78435,312.752364 L1230.06123,312.752364 L1230.06123,397.938363 L1284.23734,397.938363 Z M1187.74185,289.403739 C1162.75152,289.403739 1145.42246,270.432981 1145.42246,239.423089 C1145.42246,208.230785 1163.11634,189.260027 1187.55944,189.260027 C1211.82012,189.260027 1230.42605,207.683552 1230.42605,239.6055 C1230.42605,271.892271 1212.73217,289.403739 1187.74185,289.403739 Z M1450.38244,338.837156 C1509.30124,338.837156 1551.07339,296.335362 1551.07339,239.787911 C1551.07339,183.058049 1509.11883,140.373844 1450.38244,140.373844 C1391.64606,140.373844 1349.6915,183.058049 1349.6915,239.787911 C1349.6915,296.335362 1391.46364,338.837156 1450.38244,338.837156 Z M1450.38244,289.221328 C1422.83836,289.221328 1404.41483,268.973692 1404.41483,239.787911 C1404.41483,210.419719 1422.83836,189.807261 1450.38244,189.807261 C1477.74411,189.807261 1496.35005,210.419719 1496.35005,239.787911 C1496.35005,268.973692 1477.92652,289.221328 1450.38244,289.221328 Z"/>
    <path fill="#FFF" fill-rule="nonzero" d="M1675.62202,333 L1675.62202,224.465376 C1675.62202,198.745406 1688.20839,187.435916 1708.27362,187.435916 C1728.52125,187.435916 1741.10762,198.745406 1741.10762,224.465376 L1741.10762,333 L1795.46614,333 L1795.46614,222.276442 C1795.46614,170.654092 1769.19894,141.103488 1724.14339,141.103488 C1697.87618,141.103488 1679.63507,152.048156 1669.42005,168.647569 L1668.14317,168.647569 L1665.04218,146.211 L1621.26351,146.211 L1621.26351,333 L1675.62202,333 Z" opacity=".368"/>
    <path fill="#FFF" fill-rule="nonzero" d="M1721.5,338.837156 C1780.4188,338.837156 1822.19095,296.335362 1822.19095,239.787911 C1822.19095,183.058049 1780.23638,140.373844 1721.5,140.373844 C1662.76362,140.373844 1620.80905,183.058049 1620.80905,239.787911 C1620.80905,296.335362 1662.5812,338.837156 1721.5,338.837156 Z M1721.5,289.221328 C1693.95592,289.221328 1675.53239,268.973692 1675.53239,239.787911 C1675.53239,210.419719 1693.95592,189.807261 1721.5,189.807261 C1748.86167,189.807261 1767.46761,210.419719 1767.46761,239.787911 C1767.46761,268.973692 1749.04408,289.221328 1721.5,289.221328 Z" opacity=".457"/>
    <path fill="#FFA600" fill-rule="nonzero" d="M1676.82232,66.2742129 L1676.822,162.434 L1677.04294,162.211032 C1690.23807,148.960383 1707.29654,141.93174 1729.07455,141.620799 L1729.83616,141.612678 L1730.59289,141.610011 C1781.62069,141.610011 1817.4613,179.515296 1817.4613,239.6055 C1817.4613,299.762653 1781.16617,338.513045 1730.41048,338.513045 C1704.6315,338.513045 1685.4359,329.022588 1673.01958,311.126712 L1672.64541,310.581841 L1672.425,310.254 L1668.96199,334.5 L1619.64621,334.5 L1619.64621,66.2742129 L1676.82232,66.2742129 Z M1673.822,69.274 L1622.646,69.274 L1622.646,331.499 L1666.36,331.499 L1670.00833,305.962441 L1673.23598,305.962441 L1673.67644,306.668576 C1685.43566,325.520647 1704.30023,335.513045 1730.41048,335.513045 C1779.46383,335.513045 1814.4613,298.1481 1814.4613,239.6055 C1814.4613,181.135743 1779.9251,144.610011 1730.59289,144.610011 C1708.39274,144.610011 1691.35422,151.646185 1678.3099,165.205377 L1677.87171,165.664898 L1677.42782,166.134524 L1673.82232,166.134524 L1673.822,69.274 Z M1717.6417,188.489672 C1743.99423,188.489672 1761.46108,208.734124 1761.46108,240.152733 C1761.46108,271.356221 1743.81941,291.633384 1717.82411,291.633384 C1691.60947,291.633384 1673.27508,271.297894 1673.27508,239.970322 C1673.27508,208.000264 1690.78729,188.489672 1717.6417,188.489672 Z M1717.6417,191.489672 C1692.52074,191.489672 1676.27508,209.589187 1676.27508,239.970322 C1676.27508,269.706357 1693.33961,288.633384 1717.82411,288.633384 C1742.06251,288.633384 1758.46108,269.785027 1758.46108,240.152733 C1758.46108,210.300726 1742.23097,191.489672 1717.6417,191.489672 Z"/>
    <text fill="#FFA600" font-family="NameSansText-Medium, Name Sans Text" font-size="13" font-weight="400" letter-spacing="1.2">
      <tspan x="68.5" y="397.5">NAME SANS DISPLAY BOLD</tspan>
    </text>
  </g>
</svg>
