<svg xmlns="http://www.w3.org/2000/svg" width="1891" height="609" viewBox="0 0 1891 609">
  <g fill="none" fill-rule="evenodd">
    <rect width="1891" height="609" fill="#222"/>
    <path fill="#FFF" fill-rule="nonzero" d="M345.082543,549.695724 C363.468325,549.695724 380.020171,546.422498 394.738082,539.876046 C409.455992,533.329593 421.620323,523.765273 431.231072,511.183084 C440.841821,498.600895 447.086487,483.349054 449.965069,465.42756 L449.965069,465.42756 L370.850494,451.916796 C369.643347,459.252537 367.089766,464.823986 363.189752,468.631143 C359.289738,472.4383 354.461149,474.341878 348.703985,474.341878 C343.968254,474.341878 339.882524,473.157945 336.446797,470.790079 C333.011071,468.422214 330.387847,465.102559 328.577126,460.831115 C326.766405,456.55967 325.861045,451.591795 325.861045,445.927489 C325.861045,440.170325 326.766405,435.179235 328.577126,430.95422 C330.387847,426.729204 333.011071,423.432764 336.446797,421.064898 C339.882524,418.697032 343.968254,417.513099 348.703985,417.513099 C354.461149,417.513099 359.289738,419.370249 363.189752,423.084548 C367.089766,426.798848 369.643347,432.370296 370.850494,439.798895 L370.850494,439.798895 L449.965069,421.970258 C446.807914,404.698767 440.447177,390.096928 430.882856,378.164742 C421.318536,366.232555 409.223849,357.155736 394.598795,350.934285 C379.973742,344.712834 363.468325,341.602108 345.082543,341.602108 C323.81818,341.602108 305.153826,345.943195 289.089482,354.62537 C273.025138,363.307544 260.512592,375.471875 251.551845,391.11836 C242.591098,406.764846 238.110724,425.034555 238.110724,445.927489 C238.110724,466.727565 242.591098,484.927631 251.551845,500.527688 C260.512592,516.127745 273.025138,528.222432 289.089482,536.811749 C305.153826,545.401066 323.81818,549.695724 345.082543,549.695724 Z M536.18324,549.556438 C552.80473,549.556438 567.197639,546.213569 579.361969,539.52783 C591.5263,532.842092 600.92812,523.788487 607.567429,512.367017 C614.206739,500.945547 617.526394,488.131214 617.526394,473.924019 C617.526394,459.53111 614.229954,446.531062 607.637073,434.923877 C601.044191,423.316692 591.665586,414.100587 579.501256,407.275562 C567.336926,400.450537 552.897587,397.038025 536.18324,397.038025 C519.561751,397.038025 505.145627,400.450537 492.934868,407.275562 C480.72411,414.100587 471.275861,423.316692 464.590122,434.923877 C457.904383,446.531062 454.561514,459.53111 454.561514,473.924019 C454.561514,488.131214 457.904383,500.945547 464.590122,512.367017 C471.275861,523.788487 480.72411,532.842092 492.934868,539.52783 C505.145627,546.213569 519.561751,549.556438 536.18324,549.556438 Z M536.18324,488.827645 C533.861803,488.827645 531.795724,488.224072 529.985004,487.016924 C528.174283,485.809777 526.758206,484.091914 525.736774,481.863334 C524.715341,479.634755 524.204625,476.988316 524.204625,473.924019 C524.204625,470.766865 524.715341,468.050784 525.736774,465.775775 C526.758206,463.500767 528.174283,461.736475 529.985004,460.482899 C531.795724,459.229323 533.861803,458.602535 536.18324,458.602535 C538.597535,458.602535 540.686828,459.229323 542.45112,460.482899 C544.215413,461.736475 545.608275,463.500767 546.629707,465.775775 C547.651139,468.050784 548.161856,470.766865 548.161856,473.924019 C548.161856,476.988316 547.651139,479.634755 546.629707,481.863334 C545.608275,484.091914 544.215413,485.809777 542.45112,487.016924 C540.686828,488.224072 538.597535,488.827645 536.18324,488.827645 Z M696.22311,546.91 L696.22311,483.952627 C696.22311,480.702616 697.035613,478.218678 698.660619,476.500815 C700.285625,474.782951 702.815991,473.924019 706.251718,473.924019 L706.251718,473.924019 L720.598199,473.924019 L720.598199,399.127318 L713.216029,399.127318 C704.394568,399.127318 697.801687,401.657684 693.437386,406.718417 C689.073084,411.77915 686.240931,418.534532 684.940926,426.984562 L684.940926,426.984562 L683.965922,426.984562 L677.558756,399.127318 L624.908564,399.127318 L624.908564,546.91 L696.22311,546.91 Z M823.670004,546.91 L823.670004,482.420479 L805.00565,482.420479 C804.819935,482.420479 804.703863,482.397265 804.657434,482.350836 C804.611005,482.304407 804.587791,482.188335 804.587791,482.00262 L804.587791,482.00262 L804.587,463.617 L823.670004,463.616839 L823.670004,399.127318 L804.587,399.128 L804.587791,358.455741 L734.666107,370.712929 L734.666,399.128 L725.751789,399.127318 L725.751789,463.616839 L734.666,463.617 L734.666107,494.399094 C734.666107,512.44143 738.776162,525.651065 746.996271,534.027998 L747.341154,534.37424 C755.791185,542.731413 768.280516,546.91 784.809148,546.91 L784.809148,546.91 L823.670004,546.91 Z M902.227433,546.91 L902.227433,344.387833 L832.584322,344.387833 L832.584322,546.91 L902.227433,546.91 Z M955.156198,548.999293 C965.463378,548.999293 973.983052,547.560002 980.715219,544.68142 C987.447387,541.802839 992.949193,537.345679 997.220637,531.309943 L997.220637,531.309943 L998.334927,531.309943 L1001.81708,546.91 L1061.98873,546.91 L1061.98873,469.049002 C1061.98873,444.813199 1055.65121,426.729204 1042.97616,414.797018 C1030.30111,402.864832 1011.84569,396.898738 987.609887,396.898738 C969.224106,396.898738 953.670478,400.868396 940.949003,408.80771 C928.227528,416.747025 919.034637,427.680994 913.370331,441.609616 L913.370331,441.609616 L969.781251,459.15968 C970.895541,456.18824 972.450904,453.913232 974.447339,452.334655 C976.443775,450.756078 979.02057,449.966789 982.177725,449.966789 C985.613452,449.966789 988.283104,450.965007 990.186683,452.961443 C992.090261,454.957879 993.04205,457.766818 993.04205,461.388259 L993.04205,461.388259 L993.04205,462.363263 L962.120509,462.363263 C944.663302,462.363263 931.361468,466.356135 922.215006,474.341878 C913.068544,482.327622 908.495313,492.959803 908.495313,506.238423 C908.495313,519.424185 912.813186,529.847438 921.448932,537.50818 C930.084678,545.168922 941.320433,548.999293 955.156198,548.999293 Z M983.292014,504.566988 C980.50629,504.566988 978.463425,503.916986 977.163421,502.616981 C975.863416,501.316977 975.213414,499.599113 975.213414,497.463391 C975.213414,495.327669 975.956273,493.609806 977.441993,492.309801 C978.927713,491.009796 980.87772,490.359794 983.292014,490.359794 L983.292014,490.359794 L993.04205,490.359794 L993.04205,493.702663 C993.04205,496.116958 992.647406,498.136608 991.858117,499.761614 C991.068829,501.38662 989.954539,502.593767 988.515248,503.383055 C987.075957,504.172344 985.334879,504.566988 983.292014,504.566988 Z M1142.49617,546.91 L1142.49617,458.184676 C1142.49617,456.513242 1143.00688,455.073951 1144.02832,453.866803 C1145.04975,452.659656 1146.72118,452.056083 1149.04262,452.056083 C1151.36406,452.056083 1153.01228,452.659656 1153.98728,453.866803 C1154.96228,455.073951 1155.44979,456.513242 1155.44979,458.184676 L1155.44979,458.184676 L1155.44979,546.91 L1226.90362,546.91 L1226.90362,450.523934 C1226.90362,433.71673 1222.63217,420.554182 1214.08929,411.03629 C1205.5464,401.518398 1193.19635,396.759452 1177.03915,396.759452 C1167.84626,396.759452 1160.06945,398.175529 1153.70871,401.007682 C1147.34797,403.839835 1141.84616,407.995207 1137.20329,413.473799 L1137.20329,413.473799 L1136.089,413.473799 L1132.32827,399.127318 L1071.18162,399.127318 L1071.18162,546.91 L1142.49617,546.91 Z M1297.24316,549.417152 C1302.72175,549.417152 1307.82891,548.813578 1312.56464,547.606431 C1317.30038,546.399284 1321.64146,544.588563 1325.58791,542.174268 C1329.53435,539.759974 1333.03972,536.695677 1336.10402,532.981378 L1336.10402,532.981378 L1337.21831,532.981378 L1340.56118,546.91 L1400.45425,546.91 L1400.45425,344.387833 L1329.83614,344.387833 L1329.83614,410.270216 L1328.72185,410.270216 C1326.30755,407.763064 1323.38254,405.580913 1319.94681,403.723763 C1316.51109,401.866614 1312.79679,400.404108 1308.80392,399.336247 C1304.81104,398.268386 1300.63246,397.734456 1296.26816,397.734456 C1283.36097,397.734456 1272.2645,400.914825 1262.97875,407.275562 C1253.693,413.636299 1246.56619,422.480975 1241.59831,433.809587 C1236.63044,445.1382 1234.1465,458.323963 1234.1465,473.366875 C1234.1465,488.316929 1236.65365,501.502691 1241.66796,512.924162 C1246.68226,524.345632 1253.90193,533.283165 1263.32696,539.73676 C1272.752,546.190355 1284.0574,549.417152 1297.24316,549.417152 Z M1317.71823,488.131214 C1315.21108,488.131214 1312.9825,487.504426 1311.0325,486.25085 C1309.08249,484.997274 1307.57355,483.209768 1306.50569,480.888331 C1305.43783,478.566894 1304.9039,475.920455 1304.9039,472.949016 C1304.9039,469.884719 1305.43783,467.215066 1306.50569,464.940058 C1307.57355,462.66505 1309.08249,460.877543 1311.0325,459.577539 C1312.9825,458.277534 1315.21108,457.627531 1317.71823,457.627531 C1320.31824,457.627531 1322.57004,458.277534 1324.47362,459.577539 C1326.37719,460.877543 1327.86291,462.66505 1328.93078,464.940058 C1329.99864,467.215066 1330.53257,469.884719 1330.53257,472.949016 C1330.53257,475.920455 1329.99864,478.566894 1328.93078,480.888331 C1327.86291,483.209768 1326.37719,484.997274 1324.47362,486.25085 C1322.57004,487.504426 1320.31824,488.131214 1317.71823,488.131214 Z M1504.91892,546.91 L1504.91892,482.420479 L1486.25456,482.420479 C1486.06885,482.420479 1485.95278,482.397265 1485.90635,482.350836 C1485.85992,482.304407 1485.83671,482.188335 1485.83671,482.00262 L1485.83671,482.00262 L1485.836,463.617 L1504.91892,463.616839 L1504.91892,399.127318 L1485.836,399.128 L1485.83671,358.455741 L1415.91502,370.712929 L1415.915,399.128 L1407.0007,399.127318 L1407.0007,463.616839 L1415.915,463.617 L1415.91502,494.399094 C1415.91502,512.44143 1420.02508,525.651065 1428.24518,534.027998 L1428.59007,534.37424 C1437.0401,542.731413 1449.52943,546.91 1466.05806,546.91 L1466.05806,546.91 L1504.91892,546.91 Z M1657.7159,549.556438 C1677.49455,549.556438 1694.6964,546.886786 1709.32145,541.54748 C1723.9465,536.208175 1735.2519,528.431361 1743.23764,518.217038 C1751.22339,508.002715 1755.21626,495.606241 1755.21626,481.027617 C1755.21626,470.349006 1753.10375,460.854329 1748.87874,452.543584 C1744.65372,444.23284 1738.20013,437.2221 1729.51795,431.511365 C1720.83578,425.80063 1709.76252,421.366685 1696.29819,418.20953 L1696.29819,418.20953 L1666.90879,411.384506 C1658.45876,409.434498 1653.04982,407.786278 1650.68195,406.439845 C1648.31408,405.093411 1647.13015,403.584477 1647.13015,401.913042 C1647.13015,400.705895 1647.54801,399.638034 1648.38373,398.709459 C1649.21944,397.780885 1650.49623,397.061239 1652.2141,396.550523 C1653.93196,396.039807 1656.13733,395.784449 1658.83019,395.784449 C1664.95879,395.784449 1670.43738,397.154097 1675.26597,399.893392 C1680.09456,402.632688 1683.80886,406.509488 1686.40887,411.523792 L1686.40887,411.523792 L1747.6948,387.845134 C1739.24477,372.059362 1727.4983,360.359319 1712.45539,352.745006 C1697.41248,345.130692 1679.21241,341.323536 1657.85519,341.323536 C1639.9337,341.323536 1624.38007,343.969974 1611.19431,349.26285 C1598.00854,354.555727 1587.79422,362.100397 1580.55134,371.896862 C1573.30845,381.693326 1569.68701,393.323725 1569.68701,406.78806 C1569.68701,418.766675 1572.21738,429.120285 1577.27811,437.848888 C1582.33884,446.577491 1589.32637,453.750732 1598.24069,459.368609 C1607.155,464.986487 1617.27647,469.188288 1628.60508,471.974012 L1628.60508,471.974012 L1655.20875,478.520465 C1659.4802,479.541897 1662.75342,480.516901 1665.02843,481.445475 C1667.30344,482.37405 1668.8588,483.349054 1669.69452,484.370486 C1670.53024,485.391918 1670.94809,486.599066 1670.94809,487.991928 C1670.94809,490.034793 1669.69452,491.659798 1667.18737,492.866946 C1664.68021,494.074093 1661.24449,494.677667 1656.88019,494.677667 C1650.38016,494.677667 1644.7855,493.308019 1640.0962,490.568723 C1635.40689,487.829427 1631.66938,483.349054 1628.88366,477.127603 L1628.88366,477.127603 L1561.60841,499.274112 C1569.59415,517.474178 1581.7817,530.404583 1598.17104,538.065325 C1614.56039,545.726067 1634.40868,549.556438 1657.7159,549.556438 Z M1854.10948,546.91 L1854.10948,482.420479 L1835.44512,482.420479 C1835.25941,482.420479 1835.14334,482.397265 1835.09691,482.350836 C1835.05048,482.304407 1835.02726,482.188335 1835.02726,482.00262 L1835.02726,482.00262 L1835.027,463.617 L1854.10948,463.616839 L1854.10948,399.127318 L1835.027,399.128 L1835.02726,358.455741 L1765.10558,370.712929 L1765.105,399.128 L1756.19126,399.127318 L1756.19126,463.616839 L1765.105,463.617 L1765.10558,494.399094 C1765.10558,512.44143 1769.21564,525.651065 1777.43574,534.027998 L1777.78063,534.37424 C1786.23066,542.731413 1798.71999,546.91 1815.24862,546.91 L1815.24862,546.91 L1854.10948,546.91 Z"/>
    <path fill="#FFF" fill-rule="nonzero" d="M344.538809,267.989308 C366.360317,267.989308 384.769313,263.926793 399.765796,255.801763 C414.76228,247.676733 426.55518,236.371335 435.144497,221.885568 C443.733814,207.399801 449.328477,190.546168 451.928487,171.324669 L451.928487,171.324669 L372.396054,164.917503 C371.003191,173.088961 367.799608,178.846125 362.785304,182.188995 C357.771,185.531864 352.292409,187.203299 346.34953,187.203299 C341.149511,187.203299 336.692352,186.135438 332.978053,183.999715 C329.263753,181.863993 326.408386,178.822911 324.41195,174.876468 C322.415514,170.930025 321.417296,166.310365 321.417296,161.017489 C321.417296,155.724612 322.415514,151.104953 324.41195,147.15851 C326.408386,143.212067 329.263753,140.170984 332.978053,138.035262 C336.692352,135.89954 341.149511,134.831679 346.34953,134.831679 C351.828121,134.831679 357.167427,136.387042 362.367446,139.497767 C367.567465,142.608493 370.910334,148.574586 372.396054,157.396047 L372.396054,157.396047 L452.067773,147.785298 C449.189191,127.449509 443.13024,110.317304 433.890921,96.3886815 C424.651601,82.4600593 412.5337,71.9207351 397.537217,64.770709 C382.540733,57.6206829 364.874598,54.0456699 344.538809,54.0456699 C323.645876,54.0456699 304.958308,58.4331859 288.476105,67.2082179 C271.993902,75.9832499 258.993854,88.3797237 249.475962,104.397639 C239.95807,120.415555 235.199124,139.288838 235.199124,161.017489 C235.199124,182.653282 239.95807,201.503351 249.475962,217.567695 C258.993854,233.632039 271.993902,246.051728 288.476105,254.82676 C304.958308,263.601792 323.645876,267.989308 344.538809,267.989308 Z M542.552044,266.457159 C558.987818,266.457159 573.566443,262.998218 586.287918,256.080336 C599.009393,249.162453 608.968358,239.551704 616.164813,227.248088 C623.361267,214.944471 626.959495,200.714062 626.959495,184.55686 C626.959495,168.399659 623.361267,154.146035 616.164813,141.79599 C608.968358,129.445945 599.009393,119.788767 586.287918,112.824456 C573.566443,105.860145 558.987818,102.377989 542.552044,102.377989 C526.11627,102.377989 511.537645,105.860145 498.81617,112.824456 C486.094695,119.788767 476.089302,129.445945 468.799989,141.79599 C461.510677,154.146035 457.866021,168.399659 457.866021,184.55686 C457.866021,200.714062 461.510677,214.944471 468.799989,227.248088 C476.089302,239.551704 486.094695,249.162453 498.81617,256.080336 C511.537645,262.998218 526.11627,266.457159 542.552044,266.457159 Z M542.552044,200.156917 C539.673462,200.156917 537.073453,199.506915 534.752016,198.20691 C532.430579,196.906905 530.619858,195.096184 529.319853,192.774747 C528.019848,190.45331 527.369846,187.714015 527.369846,184.55686 C527.369846,181.399706 528.019848,178.66041 529.319853,176.338973 C530.619858,174.017536 532.430579,172.206815 534.752016,170.906811 C537.073453,169.606806 539.673462,168.956803 542.552044,168.956803 C545.523484,168.956803 548.169922,169.606806 550.491359,170.906811 C552.812796,172.206815 554.623517,174.017536 555.923521,176.338973 C557.223526,178.66041 557.873529,181.399706 557.873529,184.55686 C557.873529,187.714015 557.223526,190.45331 555.923521,192.774747 C554.623517,195.096184 552.812796,196.906905 550.491359,198.20691 C548.169922,199.506915 545.523484,200.156917 542.552044,200.156917 Z M707.929907,262 L707.929907,187.342585 C707.929907,185.29972 708.162051,183.442571 708.626338,181.771136 C709.090625,180.099701 709.810271,178.637196 710.785274,177.38362 C711.760278,176.130044 713.013854,175.178255 714.546002,174.528252 C716.078151,173.87825 717.865657,173.553249 719.908522,173.553249 L719.908522,173.553249 L734.115717,173.553249 L734.115717,108.22801 L726.594261,108.22801 C717.958515,108.22801 710.994204,110.317304 705.701327,114.49589 C700.408451,118.674477 696.508437,124.710213 694.001285,132.603099 L694.001285,132.603099 L693.026281,132.603099 L690.797701,108.22801 L636.197502,108.22801 L636.197502,262 L707.929907,262 Z M842.25138,262 L842.25138,197.231907 L824.840602,197.231907 C823.81917,197.231907 823.122738,197.022977 822.751309,196.605119 C822.379879,196.18726 822.194164,195.514043 822.194164,194.585468 L822.194164,194.585468 L822.1934,168.957 L842.25138,168.956803 L842.25138,108.22801 L822.1934,108.229 L822.194164,72.7100237 L751.15819,72.7100237 L751.1574,108.229 L738.065285,108.22801 L738.065285,168.956803 L751.1574,168.957 L751.15819,207.678373 C751.15819,226.37205 755.431005,240.046866 763.976634,248.70282 L764.320738,249.046381 C773.09577,257.682127 786.026175,262 803.111951,262 L803.111951,262 L842.25138,262 Z M922.221641,262 L922.221641,59.4778326 L852.57853,59.4778326 L852.57853,262 L922.221641,262 Z M979.897971,264.22858 C986.58371,264.22858 992.573017,263.508934 997.865894,262.069643 C1003.15877,260.630352 1007.84807,258.541059 1011.9338,255.801763 C1016.01953,253.062467 1019.59454,249.696384 1022.65884,245.703512 L1023.77313,245.703512 L1024.74813,262 L1087.98408,262 L1087.98408,176.199687 C1087.98408,151.963884 1081.41441,133.949533 1068.27508,122.156633 C1055.13575,110.363733 1036.44818,104.467282 1012.21237,104.467282 C991.876586,104.467282 975.464026,109.017299 962.974695,118.117332 C950.485364,127.217365 941.826404,140.356699 936.997815,157.535333 L997.030176,168.260372 C997.587321,165.196075 998.724825,162.874638 1000.44269,161.296061 C1002.16055,159.717484 1004.45877,158.928195 1007.33736,158.928195 C1010.3088,158.928195 1012.67666,159.787127 1014.44095,161.504991 C1016.20525,163.222854 1017.08739,165.938935 1017.08739,169.653235 L1017.08739,172.160387 L984.494416,172.160387 C967.315782,172.160387 954.037162,176.594331 944.658557,185.462221 C935.279951,194.33011 930.590648,205.774795 930.590648,219.796275 C930.590648,233.353467 935.117451,244.148149 944.171055,252.180321 C953.224659,260.212493 965.133631,264.22858 979.897971,264.22858 Z M1004.8302,218.960557 C1001.67305,218.960557 999.328399,218.310555 997.796251,217.01055 C996.264102,215.710545 995.498028,213.946253 995.498028,211.717674 C995.498028,209.303379 996.240888,207.399801 997.726607,206.006939 C999.212327,204.614076 1001.58019,203.917645 1004.8302,203.917645 L1017.08739,203.917645 L1017.08739,206.842656 C1017.08739,208.885521 1016.80882,210.649813 1016.25168,212.135532 C1015.69453,213.621252 1014.88203,214.874828 1013.81417,215.89626 C1012.74631,216.917693 1011.4463,217.683767 1009.91415,218.194483 C1008.382,218.705199 1006.68735,218.960557 1004.8302,218.960557 Z M1172.33976,262 L1172.33976,169.931807 C1172.33976,168.631802 1172.50226,167.471084 1172.82726,166.449651 C1173.15226,165.428219 1173.66298,164.546073 1174.35941,163.803213 C1175.05584,163.060353 1175.93798,162.479994 1177.00585,162.062135 C1178.07371,161.644277 1179.3505,161.435347 1180.83622,161.435347 C1183.80766,161.435347 1185.96659,162.224636 1187.31303,163.803213 C1188.65946,165.38179 1189.33268,167.424655 1189.33268,169.931807 L1189.33268,169.931807 L1189.33268,262 L1261.06508,262 L1261.06508,161.017489 C1261.06508,142.724565 1256.44542,128.447727 1247.2061,118.186975 C1237.96678,107.926224 1224.38638,102.795848 1206.46488,102.795848 C1200.33629,102.795848 1194.6952,103.585136 1189.54161,105.163714 C1184.38802,106.742291 1179.69871,109.063728 1175.4737,112.128025 C1171.24868,115.192322 1167.41831,118.95305 1163.98258,123.410209 L1163.98258,123.410209 L1162.86829,123.410209 L1161.89329,108.22801 L1100.60735,108.22801 L1100.60735,262 L1172.33976,262 Z M1336.2752,264.646438 C1343.23951,264.646438 1349.46097,263.764292 1354.93956,262 C1360.41815,260.235708 1365.22352,257.682127 1369.35568,254.339258 C1373.48784,250.996388 1377.08607,247.003517 1380.15036,242.360643 L1380.15036,242.360643 L1381.26465,242.360643 L1382.7968,262 L1443.10774,262 L1443.10774,59.4778326 L1372.07176,59.4778326 L1372.07176,121.738774 L1370.95747,121.738774 C1367.89318,118.488762 1364.52709,115.749466 1360.85922,113.520887 C1357.19135,111.292307 1353.05919,109.597658 1348.46275,108.43694 C1343.8663,107.276221 1338.59664,106.695862 1332.65376,106.695862 C1320.86086,106.695862 1310.20547,109.806588 1300.68757,116.028039 C1291.16968,122.24949 1283.62501,131.210237 1278.05356,142.91028 C1272.48211,154.610323 1269.69639,168.771088 1269.69639,185.392578 C1269.69639,201.921209 1272.31961,216.10519 1277.56606,227.944519 C1282.81251,239.783848 1290.40361,248.860666 1300.33936,255.174975 C1310.27511,261.489284 1322.25372,264.646438 1336.2752,264.646438 Z M1356.19313,200.574776 C1353.31455,200.574776 1350.71454,199.947988 1348.3931,198.694412 C1346.07167,197.440836 1344.26095,195.630115 1342.96094,193.262249 C1341.66094,190.894383 1341.01093,188.131873 1341.01093,184.974719 C1341.01093,181.817565 1341.66094,179.078269 1342.96094,176.756832 C1344.26095,174.435395 1346.07167,172.624674 1348.3931,171.324669 C1350.71454,170.024664 1353.31455,169.374662 1356.19313,169.374662 C1358.42171,169.374662 1360.44136,169.746092 1362.25208,170.488952 C1364.0628,171.231812 1365.6646,172.276458 1367.05746,173.622892 C1368.45032,174.969325 1369.51818,176.571117 1370.26104,178.428267 C1371.0039,180.285416 1371.37533,182.37471 1371.37533,184.696147 L1371.37533,184.696147 L1371.37533,185.253291 C1371.37533,187.574728 1371.0039,189.687236 1370.26104,191.590815 C1369.51818,193.494393 1368.45032,195.119399 1367.05746,196.465832 C1365.6646,197.812266 1364.0628,198.833698 1362.25208,199.530129 C1360.44136,200.22656 1358.42171,200.574776 1356.19313,200.574776 Z M1554.8286,262 L1554.8286,197.231907 L1537.41782,197.231907 C1536.39639,197.231907 1535.69996,197.022977 1535.32853,196.605119 C1534.9571,196.18726 1534.77138,195.514043 1534.77138,194.585468 L1534.77138,194.585468 L1534.7704,168.957 L1554.8286,168.956803 L1554.8286,108.22801 L1534.7704,108.229 L1534.77138,72.7100237 L1463.73541,72.7100237 L1463.7354,108.229 L1450.64251,108.22801 L1450.64251,168.956803 L1463.7354,168.957 L1463.73541,207.678373 C1463.73541,226.37205 1468.00822,240.046866 1476.55385,248.70282 L1476.89796,249.046381 C1485.67299,257.682127 1498.60339,262 1515.68917,262 L1515.68917,262 L1554.8286,262 Z M1709.94218,267.292876 C1731.20654,267.292876 1749.17447,264.275008 1763.84595,258.239272 C1778.51743,252.203536 1789.63711,243.846362 1797.205,233.167752 C1804.77288,222.489142 1808.55682,210.185525 1808.55682,196.256903 C1808.55682,183.535428 1805.9336,172.880032 1800.68715,164.290715 C1795.44071,155.701398 1787.54782,148.621015 1777.0085,143.049566 C1766.46917,137.478117 1753.21377,132.928101 1737.24228,129.399516 L1737.24228,129.399516 L1709.94218,123.410209 C1706.97074,122.760206 1704.6493,121.901275 1702.97787,120.833414 C1701.30643,119.765553 1700.47072,118.256618 1700.47072,116.306611 C1700.47072,115.192322 1700.88858,114.147675 1701.72429,113.172671 C1702.56001,112.197668 1703.90644,111.408379 1705.76359,110.804806 C1707.62074,110.201232 1710.08147,109.899445 1713.14576,109.899445 C1717.78864,109.899445 1721.64222,111.013735 1724.70652,113.242314 C1727.77082,115.470894 1729.76725,118.163761 1730.69583,121.320915 L1730.69583,121.320915 L1799.36393,112.545883 C1795.09249,94.6243894 1785.36567,80.4404091 1770.18347,69.9939424 C1755.00127,59.5474757 1735.10656,54.3242423 1710.49932,54.3242423 C1692.57783,54.3242423 1677.25635,57.2028243 1664.53487,62.9599881 C1651.8134,68.717152 1642.08657,76.7028954 1635.35441,86.9172184 C1628.62224,97.1315414 1625.25616,108.878013 1625.25616,122.156633 C1625.25616,141.099559 1630.82761,155.701398 1641.9705,165.96215 C1653.1134,176.222901 1668.6206,183.814 1688.4921,188.735447 L1688.4921,188.735447 L1713.70291,194.864041 C1715.83863,195.328328 1717.53328,195.978331 1718.78685,196.814048 C1720.04043,197.649765 1720.94579,198.601554 1721.50294,199.669415 C1722.06008,200.737276 1722.33865,201.967638 1722.33865,203.3605 C1722.33865,205.124793 1721.45651,206.889085 1719.69222,208.653377 C1717.92792,210.417669 1714.35291,211.299815 1708.96718,211.299815 C1702.56001,211.299815 1697.68499,210.046239 1694.34212,207.539087 C1690.99925,205.031935 1688.77067,200.946206 1687.65638,195.281899 L1687.65638,195.281899 L1616.06327,203.081928 C1617.45613,215.89626 1622.099,227.132016 1629.99189,236.789194 C1637.88477,246.446372 1648.60981,253.944613 1662.16701,259.283919 C1675.7242,264.623224 1691.64926,267.292876 1709.94218,267.292876 Z M1915.39773,262 L1915.39773,197.231907 L1897.98695,197.231907 C1896.96552,197.231907 1896.26909,197.022977 1895.89766,196.605119 C1895.52623,196.18726 1895.34052,195.514043 1895.34052,194.585468 L1895.34052,194.585468 L1895.3404,168.957 L1915.39773,168.956803 L1915.39773,108.22801 L1895.3404,108.229 L1895.34052,72.7100237 L1824.30454,72.7100237 L1824.3044,108.229 L1811.21164,108.22801 L1811.21164,168.956803 L1824.3044,168.957 L1824.30454,207.678373 C1824.30454,226.37205 1828.57736,240.046866 1837.12299,248.70282 L1837.46709,249.046381 C1846.24212,257.682127 1859.17253,262 1876.2583,262 L1876.2583,262 L1915.39773,262 Z" opacity=".8"/>
    <text fill="#FFA600" font-size="16" font-weight="400" letter-spacing="1.508">
      <tspan x="53.134" y="84">NAME SANS V0.3</tspan> <tspan x="131.993" y="122">OPSZ 96</tspan> <tspan x="99.173" y="141">WGHT 1000</tspan>
    </text>
    <text fill="#FFA600" font-size="16" font-weight="400" letter-spacing="1.508">
      <tspan x="53.134" y="367">NAME SANS V0.5</tspan> <tspan x="131.993" y="405">OPSZ 96</tspan> <tspan x="99.173" y="424">WGHT 1000</tspan>
    </text>
  </g>
</svg>
