<svg xmlns="http://www.w3.org/2000/svg" width="1891" height="401" viewBox="0 0 1891 401">
  <g fill="none" fill-rule="evenodd">
    <rect width="1891" height="401" fill="#222"/>
    <path fill="#FFF" fill-opacity=".1" fill-rule="nonzero" d="M129.242907,333 L146.207143,290.133384 L251.640777,290.133384 L268.969835,333 L332.448909,333 L220.813296,67.7742129 L178.676324,67.7742129 L67.2231221,333 L129.242907,333 Z M232.122786,241.612022 L165.360312,241.612022 L197.464671,160.074246 L199.288782,160.074246 L232.122786,241.612022 Z M479.800317,333 L479.800317,210.054896 L481.259606,210.054896 L539.083936,333 L577.755096,333 L635.579425,210.054896 L637.038714,210.054896 L637.038714,333 L692.309287,333 L692.309287,67.7742129 L645.429626,67.7742129 L560.061216,246.172301 L558.966749,246.172301 L471.044583,67.7742129 L424.164922,67.7742129 L424.164922,333 L479.800317,333 Z M865.354575,333 L865.354575,178.132948 L867.72592,178.132948 L991.035846,333 L1032.62558,333 L1032.62558,67.7742129 L975.348488,67.7742129 L975.348488,223.188498 L972.977144,223.188498 L849.484807,67.7742129 L807.895068,67.7742129 L807.895068,333 L865.354575,333 Z M1250.93492,333 L1310.58336,177.038481 L1312.40747,177.038481 L1370.2318,333 L1408.53814,333 L1497.18995,67.7742129 L1434.80534,67.7742129 L1387.74327,222.094031 L1386.10157,222.094031 L1330.10135,67.7742129 L1294.34877,67.7742129 L1239.80784,222.094031 L1238.34855,222.094031 L1189.82719,67.7742129 L1124.15919,67.7742129 L1213.35823,333 L1250.93492,333 Z M1715.62439,333 L1822.3349,67.7742129 L1760.13271,67.7742129 L1696.65363,242.341667 L1694.28229,242.341667 L1631.53286,67.7742129 L1565.31762,67.7742129 L1671.84572,333 L1715.62439,333 Z"/>
    <path fill="#FFA600" fill-rule="nonzero" d="M244.723971,257.827113 L244.828914,257.878424 L256.828914,264.628424 C257.470807,264.989489 257.506468,265.882385 256.935896,266.302542 L256.828914,266.371576 L244.828914,273.121576 C244.347556,273.392339 243.737841,273.221619 243.467077,272.740261 C243.215653,272.293286 243.344897,271.735636 243.750045,271.441463 L243.848391,271.378424 L252.521,266.5 L140.411348,266.5 C139.859063,266.5 139.411348,266.052285 139.411348,265.5 C139.411348,264.987164 139.797388,264.564493 140.294726,264.506728 L140.411348,264.5 L252.521,264.5 L243.848391,259.621576 C243.401416,259.370152 243.222287,258.826469 243.415766,258.364681 L243.467077,258.259739 C243.7185,257.812764 244.262183,257.633634 244.723971,257.827113 Z"/>
    <path fill="#FFA600" fill-rule="nonzero" d="M200.699517 93.9333461L200.756899 94.0490229 285.878654 295.124671 289.031 302.572 290.1426 292.683076C290.199883 292.173449 290.630719 291.796543 291.131398 291.794692L291.248041 291.801032C291.757667 291.858316 292.134573 292.289152 292.136425 292.789831L292.130084 292.906473 290.592195 306.588483C290.509448 307.324654 289.692046 307.705743 289.081502 307.333179L288.986957 307.268032 278.092926 298.848851C277.655932 298.511131 277.575455 297.883102 277.913175 297.446108 278.224916 297.042729 278.784022 296.943127 279.211901 297.195816L279.315918 297.266356 287.189 303.351 284.036889 295.90435 199.83 96.99 110.205608 306.179939C110.003645 306.651332 109.482346 306.887818 109.002448 306.745054L108.892602 306.705311C108.421209 306.503347 108.184724 305.982048 108.327487 305.502151L108.36723 305.392305 198.916827 94.0450449C199.246571 93.2754062 200.300373 93.2391667 200.699517 93.9333461zM452.898604 93.8633637L452.957233 93.9664797 558.238 303.853 663.967774 93.9649632C664.423543 93.060191 665.7531 93.3371885 665.854699 94.2964868L665.860862 94.4148457 665.86 303.014 670.739287 294.339574C670.99071 293.892599 671.534393 293.713469 671.996181 293.906948L672.101123 293.95826C672.548099 294.209683 672.727228 294.753366 672.533749 295.215154L672.482438 295.320096 665.732438 307.320096C665.371373 307.96199 664.478477 307.99765 664.05832 307.427078L663.989287 307.320096 657.239287 295.320096C656.968523 294.838738 657.139243 294.229023 657.620601 293.95826 658.067576 293.706836 658.625227 293.83608 658.919399 294.241228L658.982438 294.339574 663.86 303.011 663.86 98.622 559.130192 306.529718C558.779819 307.225263 557.820335 307.261072 557.406905 306.638125L557.343254 306.528201 453.063 98.639 453.063383 306.079835C453.063383 306.592671 452.677343 307.015342 452.180004 307.073107L452.063383 307.079835C451.550547 307.079835 451.127876 306.693795 451.070111 306.196456L451.063383 306.079835 451.063383 94.4148457C451.063383 93.4008785 452.377211 93.050833 452.898604 93.8633637zM1004.77637 93.2325916L1004.84541 93.3395738 1011.59541 105.339574C1011.86617 105.820932 1011.69545 106.430647 1011.21409 106.701411 1010.76712 106.952834 1010.20947 106.82359 1009.91529 106.418442L1009.85226 106.320096 1004.973 97.645 1004.97383 306.079835C1004.97383 306.988035 1003.87596 307.408027 1003.26656 306.787637L1003.18997 306.700771 837.434 97.452 837.434169 306.079835C837.434169 306.592671 837.048129 307.015342 836.550791 307.073107L836.434169 307.079835C835.921334 307.079835 835.498662 306.693795 835.440897 306.196456L835.434169 306.079835 835.434169 94.579835C835.434169 93.6716355 836.532037 93.2516427 837.141444 93.8720334L837.218031 93.9588994 1002.973 303.206 1002.973 97.648 998.095407 106.320096C997.843983 106.767071 997.300301 106.946201 996.838513 106.752722L996.73357 106.701411C996.286595 106.449987 996.107466 105.906304 996.300945 105.444516L996.352256 105.339574 1003.10226 93.3395738C1003.46332 92.6976805 1004.35622 92.6620198 1004.77637 93.2325916zM1458.84396 93.555949L1458.87419 93.6728505 1461.54954 107.17859C1461.65686 107.720348 1461.30467 108.246527 1460.76292 108.353844 1460.25985 108.453495 1459.77023 108.156944 1459.61692 107.680309L1459.58766 107.567218 1457.653 97.806 1455.12475 105.520571 1389.26393 306.391392C1388.98065 307.255375 1387.8067 307.310105 1387.42158 306.533223L1387.37211 306.41658 1312.649 97.479 1233.76769 306.433013C1233.44816 307.279446 1232.28051 307.287781 1231.92456 306.5014L1231.87941 306.383659 1164.43231 94.8836589C1164.26451 94.3574817 1164.55503 93.7949041 1165.08121 93.6271068 1165.5698 93.471295 1166.08978 93.7106688 1166.29592 94.1669469L1166.33776 94.2760111 1232.911 303.038 1311.73901 94.2266573C1312.0527 93.3957026 1313.19241 93.3677844 1313.56789 94.1289813L1313.61616 94.2430903 1388.272 302.995 1453.2243 104.897457 1455.754 97.182 1448.41598 103.904287C1448.04005 104.248633 1447.47215 104.251486 1447.0936 103.929568L1447.00313 103.842332C1446.65878 103.466402 1446.65593 102.898501 1446.97785 102.519949L1447.06508 102.429477 1457.2178 93.1297592C1457.76256 92.6307669 1458.62577 92.878129 1458.84396 93.555949zM1783.66649 93.6558368L1783.68628 93.7689363 1785.31515 107.440413C1785.38049 107.988819 1784.98888 108.486358 1784.44048 108.551697 1783.93124 108.612369 1783.46587 108.279045 1783.34967 107.792033L1783.32919 107.677027 1782.151 97.795 1779.04923 105.263546 1695.57073 306.169838C1695.24375 306.956766 1694.16462 306.988812 1693.77331 306.273324L1693.71995 306.160395 1608.4782 94.9540976C1608.2715 94.4419514 1608.51911 93.8592118 1609.03126 93.6525123 1609.50682 93.460577 1610.04326 93.6603708 1610.28296 94.099945L1610.33285 94.2055724 1694.66 303.147 1777.20232 104.496136 1780.305 97.028 1772.47226 103.165868C1772.07097 103.480286 1771.50453 103.439461 1771.15185 103.089386L1771.06836 102.995452C1770.75394 102.594155 1770.79476 102.027716 1771.14484 101.67504L1771.23877 101.591543 1782.07656 93.1000809C1782.65969 92.6431913 1783.50438 92.9592099 1783.66649 93.6558368z"/>
  </g>
</svg>
