<svg xmlns="http://www.w3.org/2000/svg" width="1891" height="463" viewBox="0 0 1891 463">
  <g fill="none" fill-rule="evenodd">
    <rect width="1891" height="463" fill="#222"/>
    <path fill="#FFF" fill-rule="nonzero" d="M122.221764,333 L122.221764,224.465376 C122.221764,198.745406 134.808132,187.435916 154.873356,187.435916 C175.120992,187.435916 187.70736,198.745406 187.70736,224.465376 L187.70736,333 L242.065878,333 L242.065878,222.276442 C242.065878,170.654092 215.798675,141.103488 170.743125,141.103488 C144.475922,141.103488 126.234809,152.048156 116.019785,168.647569 L114.742907,168.647569 L111.641918,146.211 L67.8632461,146.211 L67.8632461,333 L122.221764,333 Z M421.526994,337.013045 C468.589066,337.013045 507.077815,301.990107 507.077815,239.6055 C507.077815,177.220893 468.953889,143.110011 421.709405,143.110011 C397.631136,143.110011 380.484489,151.318512 367.898121,164.634524 L366.438832,164.634524 L366.438832,67.7742129 L312.262726,67.7742129 L312.262726,333 L358.777564,333 L362.425787,307.462441 L363.520254,307.462441 C375.012155,325.885966 393.800502,337.013045 421.526994,337.013045 Z M408.940626,290.133384 C384.679945,290.133384 365.891599,271.709859 365.891599,239.970322 C365.891599,207.683552 383.76789,189.989672 408.758215,189.989672 C433.74854,189.989672 451.077598,208.96043 451.077598,240.152733 C451.077598,271.345037 433.383718,290.133384 408.940626,290.133384 Z M653.522517,337.013045 C681.249009,337.013045 700.219767,325.885966 711.346846,307.462441 L712.806135,307.462441 L716.089535,333 L762.786785,333 L762.786785,67.7742129 L708.428268,67.7742129 L708.428268,164.634524 L707.333801,164.634524 C694.747433,151.318512 677.600786,143.110011 653.157694,143.110011 C606.278033,143.110011 567.789284,177.220893 567.789284,239.6055 C567.789284,301.990107 606.642855,337.013045 653.522517,337.013045 Z M666.108885,290.133384 C641.848204,290.133384 624.154324,271.345037 624.154324,240.152733 C624.154324,208.96043 641.300971,189.989672 666.291296,189.989672 C691.09921,189.989672 708.975501,207.683552 708.975501,239.970322 C708.975501,271.709859 690.551977,290.133384 666.108885,290.133384 Z M887.889384,397.938363 L887.889384,314.576476 L889.166262,314.576476 C902.482274,329.169366 917.80481,336.2834 942.612724,336.2834 C990.40444,336.2834 1028.52837,302.172519 1028.52837,239.6055 C1028.52837,177.038481 990.039618,142.197955 942.977546,142.197955 C915.433465,142.197955 896.097885,153.689856 884.970806,171.748559 L883.876339,171.748559 L880.228116,146.211 L833.713277,146.211 L833.713277,397.938363 L887.889384,397.938363 Z M930.208767,289.403739 C905.218441,289.403739 887.34215,271.892271 887.34215,239.6055 C887.34215,207.683552 906.130497,189.260027 930.391178,189.260027 C954.83427,189.260027 972.528149,208.230785 972.528149,239.423089 C972.528149,270.432981 955.199092,289.403739 930.208767,289.403739 Z M1284.23734,397.938363 L1284.23734,146.211 L1237.54009,146.211 L1234.07428,171.748559 L1232.7974,171.748559 C1221.85273,153.689856 1202.51715,142.197955 1174.97307,142.197955 C1127.911,142.197955 1089.23984,177.038481 1089.23984,239.6055 C1089.23984,301.990107 1127.54617,336.100989 1175.15548,336.100989 C1200.1458,336.100989 1216.74522,328.804544 1228.78435,312.752364 L1230.06123,312.752364 L1230.06123,397.938363 L1284.23734,397.938363 Z M1187.74185,289.403739 C1162.75152,289.403739 1145.42246,270.432981 1145.42246,239.423089 C1145.42246,208.230785 1163.11634,189.260027 1187.55944,189.260027 C1211.82012,189.260027 1230.42605,207.683552 1230.42605,239.6055 C1230.42605,271.892271 1212.73217,289.403739 1187.74185,289.403739 Z M1450.38244,338.837156 C1509.30124,338.837156 1551.07339,296.335362 1551.07339,239.787911 C1551.07339,183.058049 1509.11883,140.373844 1450.38244,140.373844 C1391.64606,140.373844 1349.6915,183.058049 1349.6915,239.787911 C1349.6915,296.335362 1391.46364,338.837156 1450.38244,338.837156 Z M1450.38244,289.221328 C1422.83836,289.221328 1404.41483,268.973692 1404.41483,239.787911 C1404.41483,210.419719 1422.83836,189.807261 1450.38244,189.807261 C1477.74411,189.807261 1496.35005,210.419719 1496.35005,239.787911 C1496.35005,268.973692 1477.92652,289.221328 1450.38244,289.221328 Z"/>
    <path fill="#FFF" fill-rule="nonzero" d="M1675.62202,333 L1675.62202,224.465376 C1675.62202,198.745406 1688.20839,187.435916 1708.27362,187.435916 C1728.52125,187.435916 1741.10762,198.745406 1741.10762,224.465376 L1741.10762,333 L1795.46614,333 L1795.46614,222.276442 C1795.46614,170.654092 1769.19894,141.103488 1724.14339,141.103488 C1697.87618,141.103488 1679.63507,152.048156 1669.42005,168.647569 L1668.14317,168.647569 L1665.04218,146.211 L1621.26351,146.211 L1621.26351,333 L1675.62202,333 Z" opacity=".368"/>
    <path fill="#FFF" fill-rule="nonzero" d="M1721.5,338.837156 C1780.4188,338.837156 1822.19095,296.335362 1822.19095,239.787911 C1822.19095,183.058049 1780.23638,140.373844 1721.5,140.373844 C1662.76362,140.373844 1620.80905,183.058049 1620.80905,239.787911 C1620.80905,296.335362 1662.5812,338.837156 1721.5,338.837156 Z M1721.5,289.221328 C1693.95592,289.221328 1675.53239,268.973692 1675.53239,239.787911 C1675.53239,210.419719 1693.95592,189.807261 1721.5,189.807261 C1748.86167,189.807261 1767.46761,210.419719 1767.46761,239.787911 C1767.46761,268.973692 1749.04408,289.221328 1721.5,289.221328 Z" opacity=".457"/>
    <path fill="#FFA600" fill-rule="nonzero" d="M1676.82232 66.2742129L1676.822 162.434 1677.04294 162.211032C1690.23807 148.960383 1707.29654 141.93174 1729.07455 141.620799L1729.83616 141.612678 1730.59289 141.610011C1781.62069 141.610011 1817.4613 179.515296 1817.4613 239.6055 1817.4613 299.762653 1781.16617 338.513045 1730.41048 338.513045 1704.6315 338.513045 1685.4359 329.022588 1673.01958 311.126712L1672.64541 310.581841 1672.425 310.254 1668.96199 334.5 1619.64621 334.5 1619.64621 66.2742129 1676.82232 66.2742129zM1673.822 69.274L1622.646 69.274 1622.646 331.499 1666.36 331.499 1670.00833 305.962441 1673.23598 305.962441 1673.67644 306.668576C1685.43566 325.520647 1704.30023 335.513045 1730.41048 335.513045 1779.46383 335.513045 1814.4613 298.1481 1814.4613 239.6055 1814.4613 181.135743 1779.9251 144.610011 1730.59289 144.610011 1708.39274 144.610011 1691.35422 151.646185 1678.3099 165.205377L1677.87171 165.664898 1677.42782 166.134524 1673.82232 166.134524 1673.822 69.274zM1717.6417 188.489672C1743.99423 188.489672 1761.46108 208.734124 1761.46108 240.152733 1761.46108 271.356221 1743.81941 291.633384 1717.82411 291.633384 1691.60947 291.633384 1673.27508 271.297894 1673.27508 239.970322 1673.27508 208.000264 1690.78729 188.489672 1717.6417 188.489672zM1717.6417 191.489672C1692.52074 191.489672 1676.27508 209.589187 1676.27508 239.970322 1676.27508 269.706357 1693.33961 288.633384 1717.82411 288.633384 1742.06251 288.633384 1758.46108 269.785027 1758.46108 240.152733 1758.46108 210.300726 1742.23097 191.489672 1717.6417 191.489672zM71.2041016 397.5L71.2041016 391.21582 71.34375 391.21582 76.0981445 397.5 77.1582031 397.5 77.1582031 388.270508 75.6982422 388.270508 75.6982422 394.561035 75.5712891 394.561035 70.8105469 388.270508 69.7441406 388.270508 69.7441406 397.5 71.2041016 397.5zM81.4050781 397.5L82.0842773 395.665527 86.0579102 395.665527 86.7371094 397.5 88.3938477 397.5 84.6550781 388.23877 83.5569336 388.23877 79.8181641 397.5 81.4050781 397.5zM85.6072266 394.446777L82.5349609 394.446777 83.9758789 390.555664 84.1726563 390.555664 85.6072266 394.446777zM92.4693359 397.5L92.4693359 391.749023 92.615332 391.749023 95.2115234 397.5 96.1319336 397.5 98.728125 391.749023 98.8741211 391.749023 98.8741211 397.5 100.283301 397.5 100.283301 388.270508 98.9566406 388.270508 95.7637695 395.303711 95.6304688 395.303711 92.4185547 388.270508 91.0538086 388.270508 91.0538086 397.5 92.4693359 397.5zM110.103418 397.5L110.103418 396.243164 105.437891 396.243164 105.437891 393.393066 108.262598 393.393066 108.262598 392.148926 105.437891 392.148926 105.437891 389.527344 109.938379 389.527344 109.938379 388.270508 103.971582 388.270508 103.971582 397.5 110.103418 397.5zM120.761719 397.677734C122.92627 397.677734 124.132324 396.490723 124.132324 394.910156 124.132324 393.608887 123.535645 392.809082 121.853516 392.250488L120.558594 391.825195C119.574707 391.501465 119.27002 391.133301 119.27002 390.51123 119.27002 389.844727 119.796875 389.317871 120.933105 389.317871 121.790039 389.317871 122.323242 389.67334 122.73584 390.263672L123.865723 389.56543C123.256348 388.676758 122.393066 388.092773 120.945801 388.092773 119.054199 388.092773 117.892578 389.140137 117.892578 390.555664 117.892578 391.844238 118.578125 392.637695 119.904785 393.069336L121.237793 393.507324C122.399414 393.888184 122.729492 394.345215 122.729492 395.024414 122.729492 395.843262 122.056641 396.439941 120.761719 396.439941 119.657227 396.439941 119.022461 396.014648 118.514648 395.176758L117.365723 395.862305C118.025879 397.030273 119.009766 397.677734 120.761719 397.677734zM127.623828 397.5L128.303027 395.665527 132.27666 395.665527 132.955859 397.5 134.612598 397.5 130.873828 388.23877 129.775684 388.23877 126.036914 397.5 127.623828 397.5zM131.825977 394.446777L128.753711 394.446777 130.194629 390.555664 130.391406 390.555664 131.825977 394.446777zM138.73252 397.5L138.73252 391.21582 138.872168 391.21582 143.626563 397.5 144.686621 397.5 144.686621 388.270508 143.22666 388.270508 143.22666 394.561035 143.099707 394.561035 138.338965 388.270508 137.272559 388.270508 137.272559 397.5 138.73252 397.5zM150.774316 397.677734C152.938867 397.677734 154.144922 396.490723 154.144922 394.910156 154.144922 393.608887 153.548242 392.809082 151.866113 392.250488L150.571191 391.825195C149.587305 391.501465 149.282617 391.133301 149.282617 390.51123 149.282617 389.844727 149.809473 389.317871 150.945703 389.317871 151.802637 389.317871 152.33584 389.67334 152.748438 390.263672L153.87832 389.56543C153.268945 388.676758 152.405664 388.092773 150.958398 388.092773 149.066797 388.092773 147.905176 389.140137 147.905176 390.555664 147.905176 391.844238 148.590723 392.637695 149.917383 393.069336L151.250391 393.507324C152.412012 393.888184 152.74209 394.345215 152.74209 395.024414 152.74209 395.843262 152.069238 396.439941 150.774316 396.439941 149.669824 396.439941 149.035059 396.014648 148.527246 395.176758L147.37832 395.862305C148.038477 397.030273 149.022363 397.677734 150.774316 397.677734zM165.209473 397.5C168.046875 397.5 169.817871 395.786133 169.817871 392.897949 169.817871 390.009766 168.046875 388.270508 165.196777 388.270508L162.302246 388.270508 162.302246 397.5 165.209473 397.5zM165.21582 396.135254L163.768555 396.135254 163.768555 389.635254 165.21582 389.635254C167.202637 389.635254 168.33252 390.765137 168.33252 392.891602 168.33252 395.018066 167.202637 396.135254 165.21582 396.135254zM174.464648 397.5L174.464648 388.270508 172.99834 388.270508 172.99834 397.5 174.464648 397.5zM180.622168 397.677734C182.786719 397.677734 183.992773 396.490723 183.992773 394.910156 183.992773 393.608887 183.396094 392.809082 181.713965 392.250488L180.419043 391.825195C179.435156 391.501465 179.130469 391.133301 179.130469 390.51123 179.130469 389.844727 179.657324 389.317871 180.793555 389.317871 181.650488 389.317871 182.183691 389.67334 182.596289 390.263672L183.726172 389.56543C183.116797 388.676758 182.253516 388.092773 180.80625 388.092773 178.914648 388.092773 177.753027 389.140137 177.753027 390.555664 177.753027 391.844238 178.438574 392.637695 179.765234 393.069336L181.098242 393.507324C182.259863 393.888184 182.589941 394.345215 182.589941 395.024414 182.589941 395.843262 181.91709 396.439941 180.622168 396.439941 179.517676 396.439941 178.88291 396.014648 178.375098 395.176758L177.226172 395.862305C177.886328 397.030273 178.870215 397.677734 180.622168 397.677734zM188.518945 397.5L188.518945 394.180176 190.289941 394.180176C192.308496 394.180176 193.48916 393.043945 193.48916 391.21582 193.48916 389.444824 192.308496 388.270508 190.277246 388.270508L187.046289 388.270508 187.046289 397.5 188.518945 397.5zM190.207422 392.910645L188.518945 392.910645 188.518945 389.533691 190.207422 389.533691C191.400781 389.533691 192.016504 390.250977 192.016504 391.228516 192.016504 392.244141 191.394434 392.910645 190.207422 392.910645zM202.268262 397.5L202.268262 396.186035 198.02168 396.186035 198.02168 388.270508 196.555371 388.270508 196.555371 397.5 202.268262 397.5zM205.867676 397.5L206.546875 395.665527 210.520508 395.665527 211.199707 397.5 212.856445 397.5 209.117676 388.23877 208.019531 388.23877 204.280762 397.5 205.867676 397.5zM210.069824 394.446777L206.997559 394.446777 208.438477 390.555664 208.635254 390.555664 210.069824 394.446777zM218.061816 397.5L218.061816 393.685059 221.616504 388.270508 219.94707 388.270508 217.446094 392.447266 217.236621 392.447266 214.824512 388.270508 213.072559 388.270508 216.582813 393.685059 216.582813 397.5 218.061816 397.5zM233.042871 397.5C234.972559 397.5 236.146875 396.57959 236.146875 394.884766 236.146875 393.773926 235.5375 393.018555 234.325098 392.758301L234.325098 392.593262C235.264551 392.32666 235.873926 391.698242 235.873926 390.650879 235.873926 389.203613 234.801172 388.270508 232.738184 388.270508L229.412012 388.270508 229.412012 397.5 233.042871 397.5zM232.725488 392.212402L230.884668 392.212402 230.884668 389.527344 232.719141 389.527344C233.893457 389.527344 234.407617 390.009766 234.407617 390.822266 234.407617 391.736328 233.918848 392.212402 232.725488 392.212402zM232.947656 396.243164L230.884668 396.243164 230.884668 393.348633 232.941309 393.348633C234.147363 393.348633 234.680566 393.792969 234.680566 394.789551 234.680566 395.817871 234.007715 396.243164 232.947656 396.243164zM243.212109 397.677734C245.903516 397.677734 247.699902 395.798828 247.699902 392.897949 247.699902 389.99707 245.903516 388.092773 243.212109 388.092773 240.520703 388.092773 238.762402 389.99707 238.762402 392.897949 238.762402 395.798828 240.527051 397.677734 243.212109 397.677734zM243.212109 396.325684C241.326855 396.325684 240.247754 395.011719 240.247754 392.897949 240.247754 390.790527 241.320508 389.444824 243.212109 389.444824 245.103711 389.444824 246.214551 390.790527 246.214551 392.897949 246.214551 395.011719 245.097363 396.325684 243.212109 396.325684zM256.51709 397.5L256.51709 396.186035 252.270508 396.186035 252.270508 388.270508 250.804199 388.270508 250.804199 397.5 256.51709 397.5zM262.503223 397.5C265.340625 397.5 267.111621 395.786133 267.111621 392.897949 267.111621 390.009766 265.340625 388.270508 262.490527 388.270508L259.595996 388.270508 259.595996 397.5 262.503223 397.5zM262.50957 396.135254L261.062305 396.135254 261.062305 389.635254 262.50957 389.635254C264.496387 389.635254 265.62627 390.765137 265.62627 392.891602 265.62627 395.018066 264.496387 396.135254 262.50957 396.135254z"/>
  </g>
</svg>
