<svg xmlns="http://www.w3.org/2000/svg" width="1891" height="453" viewBox="0 0 1891 453">
  <g fill="none" fill-rule="evenodd">
    <rect width="1891" height="453" fill="#222"/>
    <path fill="#FFF" fill-rule="nonzero" d="M210.497283,336.648223 C245.520221,336.648223 271.605013,326.798021 288.386837,305.091097 L289.846126,305.091097 L292.399882,333 L337.273021,333 L337.273021,191.26655 L236.582075,191.26655 L236.582075,242.341667 L282.002447,242.341667 C277.62458,266.602348 253.363899,285.025872 216.699262,285.025872 C166.718611,285.025872 139.904175,251.462224 139.904175,200.93434 C139.904175,151.136101 171.27889,118.119686 216.699262,118.119686 C245.885043,118.119686 263.761334,128.881942 280.360747,154.784323 L326.693175,123.774431 C300.608383,82.9143369 266.31509,64.1259902 216.152028,64.1259902 C137.53283,64.1259902 80.2557344,117.025219 80.2557344,200.387106 C80.2557344,282.107294 132.425318,336.648223 210.497283,336.648223 Z M471.217319,336.100989 C497.302111,336.100989 516.45528,327.710077 528.129593,308.739319 L529.588882,308.739319 L533.054693,333 L576.650954,333 L576.650954,224.465376 C576.650954,171.748559 549.471695,141.650722 494.930767,141.650722 C462.096763,141.650722 435.647148,156.608435 418.318091,179.774648 L455.894784,207.683552 C464.83293,195.097184 476.689653,187.435916 493.471478,187.435916 C513.354291,187.435916 523.751726,198.015762 523.751726,214.979997 L523.751726,220.087509 L474.865542,220.087509 C432.546159,220.087509 407.191012,242.706489 407.191012,278.094249 C407.191012,313.117187 431.816515,336.100989 471.217319,336.100989 Z M481.797165,294.146429 C467.204274,294.146429 459.178185,287.397217 459.178185,275.540493 C459.178185,264.048592 467.204274,257.29938 481.979576,257.29938 L523.751726,257.29938 L523.751726,258.029024 C523.751726,279.735949 506.969901,294.146429 481.797165,294.146429 Z M763.31207,337.013045 C810.374143,337.013045 848.862892,301.990107 848.862892,239.6055 C848.862892,177.220893 810.738965,143.110011 763.494481,143.110011 C739.416212,143.110011 722.269565,151.318512 709.683197,164.634524 L708.223908,164.634524 L708.223908,67.7742129 L654.047802,67.7742129 L654.047802,333 L700.562641,333 L704.210863,307.462441 L705.30533,307.462441 C716.797231,325.885966 735.585578,337.013045 763.31207,337.013045 Z M750.725702,290.133384 C726.465021,290.133384 707.676675,271.709859 707.676675,239.970322 C707.676675,207.683552 725.552966,189.989672 750.543291,189.989672 C775.533616,189.989672 792.862674,208.96043 792.862674,240.152733 C792.862674,271.345037 775.168794,290.133384 750.725702,290.133384 Z M1038.80741,397.938363 C1087.14636,397.938363 1111.58945,370.576693 1111.58945,325.885966 L1111.58945,146.211 L1067.44596,146.211 L1063.79773,169.377214 L1062.15603,169.377214 C1050.1169,151.683334 1030.4165,141.650722 1002.87242,141.650722 C955.992754,141.650722 918.233649,175.944015 918.233649,231.944232 C918.233649,287.94445 956.175165,321.872921 1002.32518,321.872921 C1027.1331,321.872921 1044.27974,313.846831 1055.58923,298.341885 L1057.41334,298.341885 L1057.41334,326.068377 C1057.41334,343.397435 1048.84002,353.97728 1033.15266,354.159691 L997.947314,354.159691 C981.530312,354.159691 974.233867,350.146646 966.937422,335.918578 L923.15875,360.36167 C938.116463,390.824329 955.627932,397.938363 993.93427,397.938363 L1038.80741,397.938363 Z M1015.82361,276.817371 C991.562925,276.817371 972.774578,257.664202 972.774578,232.673877 C972.774578,207.683552 988.279524,188.530383 1013.81708,188.530383 C1039.35464,188.530383 1057.23093,203.852918 1057.23093,230.849766 C1057.23093,257.846613 1040.08429,276.817371 1015.82361,276.817371 Z M1244.07446,333 L1244.07446,224.465376 C1244.07446,198.745406 1256.66083,187.435916 1276.72605,187.435916 C1296.97369,187.435916 1309.56006,198.745406 1309.56006,224.465376 L1309.56006,333 L1363.91857,333 L1363.91857,222.276442 C1363.91857,170.654092 1337.65137,141.103488 1292.59582,141.103488 C1266.32862,141.103488 1248.0875,152.048156 1237.87248,168.647569 L1236.5956,168.647569 L1233.49461,146.211 L1189.71594,146.211 L1189.71594,333 L1244.07446,333 Z M1495.49153,397.938363 L1495.49153,314.576476 L1496.76841,314.576476 C1510.08442,329.169366 1525.40695,336.2834 1550.21487,336.2834 C1598.00658,336.2834 1636.13051,302.172519 1636.13051,239.6055 C1636.13051,177.038481 1597.64176,142.197955 1550.57969,142.197955 C1523.03561,142.197955 1503.70003,153.689856 1492.57295,171.748559 L1491.47848,171.748559 L1487.83026,146.211 L1441.31542,146.211 L1441.31542,397.938363 L1495.49153,397.938363 Z M1537.81091,289.403739 C1512.82059,289.403739 1494.94429,271.892271 1494.94429,239.6055 C1494.94429,207.683552 1513.73264,189.260027 1537.99332,189.260027 C1562.43641,189.260027 1580.13029,208.230785 1580.13029,239.423089 C1580.13029,270.432981 1562.80124,289.403739 1537.81091,289.403739 Z M1763.50801,333 L1763.50801,233.950755 C1763.50801,207.865963 1775.91197,197.286117 1798.53095,197.286117 L1814.76554,197.286117 L1814.76554,146.211 L1799.443,146.211 C1780.10742,146.211 1765.51453,154.966734 1757.48844,177.403304 L1756.57639,177.403304 L1752.38093,146.211 L1709.14949,146.211 L1709.14949,333 L1763.50801,333 Z"/>
    <circle cx="314.5" cy="315.104" r="38.163" fill="#FFA600" fill-opacity=".15" stroke="#FFA600" stroke-width="2"/>
    <circle cx="552.5" cy="315.104" r="38.163" fill="#FFA600" fill-opacity=".15" stroke="#FFA600" stroke-width="2"/>
    <circle cx="679.5" cy="315.104" r="38.163" fill="#FFA600" fill-opacity=".15" stroke="#FFA600" stroke-width="2"/>
    <circle cx="1086.5" cy="162.337" r="38.163" fill="#FFA600" fill-opacity=".15" stroke="#FFA600" stroke-width="2"/>
    <circle cx="1214.5" cy="162.337" r="38.163" fill="#FFA600" fill-opacity=".15" stroke="#FFA600" stroke-width="2"/>
    <circle cx="1464.5" cy="162.337" r="38.163" fill="#FFA600" fill-opacity=".15" stroke="#FFA600" stroke-width="2"/>
    <circle cx="1730.5" cy="162.337" r="38.163" fill="#FFA600" fill-opacity=".15" stroke="#FFA600" stroke-width="2"/>
  </g>
</svg>
