<svg xmlns="http://www.w3.org/2000/svg" width="1891" height="987" viewBox="0 0 1891 987">
  <g fill="none" fill-rule="evenodd">
    <rect width="1891" height="987" fill="#222"/>
    <path fill="#FFF" fill-rule="nonzero" d="M176.833114 348.13L176.833114 177.185888 240.12943 177.185888 240.12943 134.596719 66.5418525 134.596719 66.5418525 177.185888 129.838169 177.185888 129.838169 348.13 176.833114 348.13zM252.025026 348.13L252.025026 268.385453C252.025026 247.384587 262.011452 238.866753 280.221993 238.866753L293.292462 238.866753 293.292462 197.746176 280.956289 197.746176C265.389213 197.746176 253.640477 204.795418 247.178672 222.8591L246.444376 222.8591 243.066615 197.746176 208.260983 197.746176 208.260983 348.13 252.025026 348.13zM357.176215 177.185888L357.176215 134.596719 310.768707 134.596719 310.768707 177.185888 357.176215 177.185888zM355.854482 348.13L355.854482 197.746176 312.09044 197.746176 312.09044 348.13 355.854482 348.13zM473.341845 277.931301L473.341845 254.286969 380.23311 254.286969 380.23311 277.931301 473.341845 277.931301zM586.423431 348.13C629.453178 348.13 655.300397 326.10112 655.300397 287.770868 655.300397 260.014478 641.055055 242.978811 609.627185 236.957583L609.627185 236.223287C636.208701 230.789497 650.894621 214.928703 650.894621 189.522061 650.894621 155.010148 626.075416 134.596719 581.430218 134.596719L503.7417 134.596719 503.7417 348.13 586.423431 348.13zM576.143287 227.411735L530.323216 227.411735 530.323216 157.066177 579.22733 157.066177C609.627185 157.066177 624.313106 169.255491 624.313106 191.284371 624.313106 214.928703 608.74603 227.411735 576.143287 227.411735zM582.89881 325.660542L530.323216 325.660542 530.323216 249.440616 579.521049 249.440616C612.858088 249.440616 628.718882 261.48307 628.718882 286.889712 628.718882 312.883791 612.123792 325.660542 582.89881 325.660542zM755.017796 352.535776C800.250431 352.535776 832.853174 319.345596 832.853174 274.847258 832.853174 230.20206 800.250431 196.865021 755.017796 196.865021 709.785162 197.01188 677.035559 230.20206 677.035559 274.847258 677.035559 319.345596 709.638303 352.535776 755.017796 352.535776zM755.017796 329.7726C724.030504 329.7726 702.001624 306.862564 702.001624 274.847258 702.001624 242.685092 724.030504 219.481338 755.017796 219.481338 786.005088 219.481338 808.033969 242.685092 808.033969 274.847258 808.033969 306.862564 786.005088 329.7726 755.017796 329.7726zM883.960177 348.13L883.960177 268.97289C883.960177 239.013612 897.911801 224.915129 924.052739 224.915129L935.948334 224.915129 935.948334 201.123938 924.493317 201.123938C901.436422 201.123938 887.925375 210.522927 881.169852 230.495778L880.729274 230.495778 878.820104 201.123938 858.847253 201.123938 858.847253 348.13 883.960177 348.13zM1023.47642 352.535776C1068.70905 352.535776 1101.3118 319.345596 1101.3118 274.847258 1101.3118 230.20206 1068.70905 196.865021 1023.47642 196.865021 978.243785 197.01188 945.494183 230.20206 945.494183 274.847258 945.494183 319.345596 978.096926 352.535776 1023.47642 352.535776zM1023.47642 329.7726C992.489128 329.7726 970.460247 306.862564 970.460247 274.847258 970.460247 242.685092 992.489128 219.481338 1023.47642 219.481338 1054.46371 219.481338 1076.49259 242.685092 1076.49259 274.847258 1076.49259 306.862564 1054.46371 329.7726 1023.47642 329.7726zM1182.52494 352.095198C1206.90356 352.095198 1222.6175 341.815054 1231.13533 325.073105L1231.72277 325.073105 1233.33822 348.13 1253.60479 348.13 1253.60479 201.123938 1228.34501 201.123938 1228.34501 287.624008C1228.34501 315.820975 1213.65909 330.653755 1189.72104 330.653755 1166.37042 330.653755 1151.97822 316.702131 1151.97822 288.798882L1151.97822 201.123938 1126.71844 201.123938 1126.71844 290.414333C1126.71844 330.066318 1147.57245 352.095198 1182.52494 352.095198zM1370.35786 398.943284C1406.63208 398.943284 1425.72378 378.236137 1425.72378 343.724224L1425.72378 201.123938 1405.31035 201.123938 1403.6949 227.705454 1402.9606 227.705454C1392.38674 208.613757 1374.91049 197.893035 1348.03526 197.893035 1309.11757 197.893035 1280.62688 225.943143 1280.62688 270.294622 1280.62688 314.646102 1308.97071 342.108773 1347.44782 342.108773 1375.05735 342.108773 1389.89013 331.241192 1399.87656 315.086679L1400.75771 315.086679 1400.75771 344.164802C1400.75771 365.312527 1389.44955 377.354981 1368.44869 377.501841L1340.25172 377.501841 1340.25172 377.501841C1321.45374 377.501841 1313.37649 370.893176 1308.53013 355.47296L1286.64811 366.046823C1294.28479 390.278591 1308.97071 398.943284 1338.48941 398.943284L1370.35786 398.943284zM1353.61591 321.254766C1325.5658 321.254766 1306.03353 300.841337 1305.88667 270.588341 1305.88667 240.335345 1324.39093 219.627393 1353.02847 219.627393 1380.93172 219.481338 1400.75771 239.45419 1400.75771 269.854045 1400.75771 300.2539 1381.66602 321.107907 1353.61591 321.254766zM1482.70515 348.13L1482.70515 261.923648C1482.70515 233.87354 1497.83165 218.600183 1521.7697 218.600183 1545.70775 218.600183 1560.9811 232.845526 1560.9811 261.48307L1560.9811 348.13 1585.94717 348.13 1585.94717 260.161337C1585.94717 219.775057 1564.35886 197.158739 1528.81894 197.158739 1507.08377 197.158739 1492.54471 204.942277 1483.43944 219.481338L1482.70515 219.481338 1482.70515 134.596719 1457.59222 134.596719 1457.59222 348.13 1482.70515 348.13zM174.524943 611.6436L174.524943 439.524614 236.205808 439.524614 236.205808 398.110319 66.1428509 398.110319 66.1428509 439.524614 127.823716 439.524614 127.823716 611.6436 174.524943 611.6436zM271.452017 611.6436L271.452017 530.283602C271.452017 508.842158 281.291583 500.177465 300.089561 500.177465L315.803496 500.177465 315.803496 456.266563 302.292449 456.266563C285.844219 456.266563 273.801764 464.343819 268.514833 485.785263L265.28393 485.785263 262.053028 457.735155 227.541115 457.735155 227.541115 611.6436 271.452017 611.6436zM386.736491 437.468585L386.736491 394.29198 338.566673 394.29198 338.566673 437.468585 386.736491 437.468585zM384.680462 611.6436L384.680462 457.735155 340.769561 457.735155 340.769561 611.6436 384.680462 611.6436zM510.538799 537.626562L510.538799 513.247934 417.576924 513.247934 417.576924 537.626562 510.538799 537.626562zM632.578797 611.6436C675.902262 611.6436 702.336918 590.349016 702.336918 551.431327 702.336918 523.821797 687.504139 506.63927 656.957425 501.05862L656.957425 499.14945C682.217208 493.71566 697.343706 478.442303 697.343706 452.595083 697.343706 418.817466 672.5245 398.110319 626.704429 398.110319L550.631362 398.110319 550.631362 611.6436 632.578797 611.6436zM623.767245 491.072194L577.947173 491.072194 577.947173 421.314073 625.382696 421.314073C655.782551 421.314073 670.027894 433.650246 670.027894 455.09169 670.027894 478.88288 655.488833 491.072194 623.767245 491.072194zM629.935331 588.439846L577.947173 588.439846 577.947173 512.954216 627.438725 512.954216C660.188327 512.954216 675.167966 524.702952 675.167966 550.256453 675.167966 576.54425 657.985439 588.439846 629.935331 588.439846zM807.04753 615.755658C852.720742 615.755658 884.148612 582.712337 884.148612 536.451688 884.148612 490.04418 852.573883 456.854 807.04753 456.854 761.374318 456.854 729.946449 489.897321 729.946449 536.451688 729.946449 582.712337 761.374318 615.755658 807.04753 615.755658zM807.04753 592.845622C776.207098 592.845622 755.793668 569.788727 755.793668 536.451688 755.793668 502.820931 776.060238 479.617176 807.04753 479.617176 838.034822 479.617176 858.301392 502.820931 858.301392 536.451688 858.301392 569.935586 837.887963 592.845622 807.04753 592.845622zM943.920307 611.6436L943.920307 529.255587C943.920307 499.002591 958.459369 485.197826 984.894025 485.197826L999.873664 485.197826 999.873664 459.644325 986.068899 459.644325C963.012004 459.644325 948.766661 469.924469 942.304856 491.365913L940.395687 491.365913 938.486517 460.966058 918.073088 460.966058 918.073088 611.6436 943.920307 611.6436zM1091.66067 615.755658C1137.33388 615.755658 1168.76175 582.712337 1168.76175 536.451688 1168.76175 490.04418 1137.18702 456.854 1091.66067 456.854 1045.98745 456.854 1014.55958 489.897321 1014.55958 536.451688 1014.55958 582.712337 1045.98745 615.755658 1091.66067 615.755658zM1091.66067 592.845622C1060.82023 592.845622 1040.4068 569.788727 1040.4068 536.451688 1040.4068 502.820931 1060.67337 479.617176 1091.66067 479.617176 1122.64796 479.617176 1142.91453 502.820931 1142.91453 536.451688 1142.91453 569.935586 1122.5011 592.845622 1091.66067 592.845622zM1257.02413 615.755658C1281.40276 615.755658 1296.96983 604.447499 1305.04709 586.971254L1306.8094 586.971254 1308.13113 611.6436 1329.42572 611.6436 1329.42572 461.112917 1303.5785 461.112917 1303.5785 552.018764C1303.5785 579.628294 1289.03943 594.020496 1265.3951 594.020496 1241.45705 594.020496 1227.21171 580.36259 1227.21171 552.6062L1227.21171 461.112917 1201.21763 461.112917 1201.21763 554.074792C1201.21763 594.167355 1222.07164 615.755658 1257.02413 615.755658zM1452.93431 670.387281C1490.23654 668.77183 1509.91568 647.917823 1509.91568 611.790459L1509.91568 461.112917 1488.62109 461.112917 1486.56506 490.925335 1484.65589 490.925335C1474.96319 469.043314 1457.78066 457.588296 1430.75857 457.733761 1391.84088 457.733761 1363.79077 485.785263 1363.79077 533.367645 1363.79077 580.509449 1391.69402 608.265838 1430.31799 608.265838 1456.16521 608.265838 1472.46658 597.545117 1482.01243 578.306561L1483.9216 578.306561 1483.9216 612.524755C1483.9216 635.434791 1471.87914 647.183527 1450.58456 648.358401 1441.03871 648.798978 1430.31799 648.798978 1420.62528 648.358401 1404.32391 647.624105 1396.54037 642.630892 1390.95972 629.413564L1368.78398 640.721722C1377.15496 661.575729 1391.69402 669.359267 1418.27553 670.387281 1429.43683 670.827859 1441.77301 670.974718 1452.93431 670.387281zM1437.22037 586.824395C1409.0234 586.824395 1390.22543 567.145261 1390.07857 533.514504 1390.07857 499.736887 1408.28911 480.204613 1436.77979 480.057754 1465.41734 480.057754 1483.9216 500.324324 1483.9216 533.073926 1483.9216 565.823529 1465.71106 586.677535 1437.22037 586.824395zM1578.79264 611.6436L1578.79264 520.737753C1578.79264 492.981364 1593.47856 478.589162 1617.85719 478.589162 1642.23582 478.589162 1656.92174 492.540786 1656.92174 520.590894L1656.92174 611.6436 1682.76896 611.6436 1682.76896 519.269161C1682.76896 478.88288 1661.47437 457.000859 1626.8156 457.000859 1604.05243 457.000859 1589.51336 465.959271 1580.55495 481.820065L1578.79264 481.820065 1578.79264 394.29198 1552.94542 394.29198 1552.94542 611.6436 1578.79264 611.6436zM173.284222 875.4482L173.284222 702.15434 233.202776 702.15434 233.202776 661.914919 66.6644402 661.914919 66.6644402 702.15434 126.876713 702.15434 126.876713 875.4482 173.284222 875.4482zM291.799598 875.4482L291.799598 792.47275C291.799598 770.590729 301.639165 761.926036 320.730861 761.926036L339.088262 761.926036 339.088262 715.07795 324.549201 715.07795C307.219815 715.07795 294.736783 724.33008 290.624725 749.002426L284.897216 749.002426 281.813173 718.015134 247.741838 718.015134 247.741838 875.4482 291.799598 875.4482zM417.070499 698.042283L417.070499 654.27824 367.13837 654.27824 367.13837 698.042283 417.070499 698.042283zM414.133315 875.4482L414.133315 718.015134 370.075554 718.015134 370.075554 875.4482 414.133315 875.4482zM548.656345 797.759682L548.656345 772.646758 455.54761 772.646758 455.54761 797.759682 548.656345 797.759682zM679.507894 875.4482C723.125078 875.4482 750.147171 854.887912 750.147171 815.529645 750.147171 787.773256 734.726955 770.590729 705.061396 765.450657L705.061396 762.366614C728.852587 756.932823 744.419662 742.246903 744.419662 716.105965 744.419662 682.915785 719.894175 661.914919 672.752371 661.914919L598.294755 661.914919 598.294755 875.4482 679.507894 875.4482zM672.018075 755.023654L626.198004 755.023654 626.198004 685.70611 672.458653 685.70611C702.711649 685.70611 716.516414 698.336001 716.516414 719.336867 716.516414 742.981199 703.005367 755.023654 672.018075 755.023654zM677.745584 851.657009L626.198004 851.657009 626.198004 776.758816 676.276992 776.758816C708.292298 776.758816 722.243923 788.066974 722.243923 813.767335 722.243923 840.49571 704.767677 851.657009 677.745584 851.657009zM859.997855 879.413398C905.964786 879.413398 936.217781 846.370078 936.217781 798.347118 936.217781 750.1773 905.964786 716.98712 859.997855 716.98712 813.884065 716.98712 783.631069 750.030441 783.631069 798.200259 783.631069 846.370078 813.884065 879.413398 859.997855 879.413398zM859.997855 856.209644C829.304282 856.209644 810.359444 833.15275 810.359444 798.200259 810.359444 763.247769 829.010563 740.190874 859.997855 740.190874 890.838288 740.190874 909.489406 763.394628 909.489406 798.347118 909.489406 833.299609 890.691428 856.209644 859.997855 856.209644zM1004.94789 875.4482L1004.94789 789.976144C1004.94789 759.42943 1020.22125 745.918383 1046.80276 745.918383L1064.71958 745.918383 1064.71958 718.308853 1048.71193 718.308853C1025.50818 718.308853 1010.6754 729.470152 1004.65417 752.380188L1001.12955 752.380188 999.367239 721.246037 978.219513 721.246037 978.219513 875.4482 1004.94789 875.4482zM1160.61864 879.413398C1206.58557 879.413398 1236.83857 846.370078 1236.83857 798.347118 1236.83857 750.1773 1206.58557 716.98712 1160.61864 716.98712 1114.50485 716.98712 1084.25186 750.030441 1084.25186 798.200259 1084.25186 846.370078 1114.50485 879.413398 1160.61864 879.413398zM1160.61864 856.209644C1129.92507 856.209644 1110.98023 833.15275 1110.98023 798.200259 1110.98023 763.247769 1129.63135 740.190874 1160.61864 740.190874 1191.45908 740.190874 1210.11019 763.394628 1210.11019 798.347118 1210.11019 833.299609 1191.31222 856.209644 1160.61864 856.209644zM1332.44391 879.560258C1356.67568 879.560258 1372.24276 867.517803 1379.87943 849.160403L1382.81662 849.160403 1383.84463 875.4482 1406.31409 875.4482 1406.31409 721.246037 1379.58572 721.246037 1379.58572 816.704519C1379.58572 843.726612 1365.19351 857.678236 1342.13662 857.678236 1317.46427 857.678236 1303.21893 844.314049 1303.21893 816.851378L1303.21893 721.246037 1276.63741 721.246037 1276.63741 818.026252C1276.63741 858.559392 1297.34456 879.560258 1332.44391 879.560258zM1536.28448 942.269137C1574.7616 939.038235 1594.73445 917.74365 1594.73445 880.147694L1594.73445 721.246037 1572.70557 721.246037 1570.20896 754.436217 1567.27178 754.436217C1558.46022 729.763871 1541.42456 717.721416 1514.2556 717.866948 1475.19106 717.866948 1447.72839 746.065242 1447.72839 796.731667 1447.72839 846.810655 1475.19106 874.860763 1514.10875 874.860763 1538.19365 874.860763 1555.96362 864.286901 1565.06889 841.817443L1568.00607 841.817443 1568.00607 881.175709C1568.00607 905.848055 1555.22932 917.449932 1533.49416 919.65282 1523.65459 920.533975 1511.759 920.533975 1501.91943 919.505961 1487.96781 918.184228 1480.47799 914.659607 1474.16304 903.645167L1451.54672 915.834481C1460.652 933.310726 1475.33792 940.213109 1498.68853 942.269137 1510.58412 943.150293 1524.53575 943.297152 1536.28448 942.269137zM1521.45171 852.538164C1493.10788 852.538164 1475.0442 833.740186 1475.0442 796.584808 1475.0442 759.576289 1492.81416 740.92517 1521.15799 740.92517 1550.52983 740.92517 1568.00607 761.632318 1568.00607 796.731667 1568.00607 831.831017 1550.52983 852.538164 1521.45171 852.538164zM1675.36015 875.4482L1675.36015 779.842859C1675.36015 752.380188 1689.75235 738.869141 1714.57156 738.869141 1739.39076 738.869141 1753.63611 752.380188 1753.63611 779.842859L1753.63611 875.4482 1780.21762 875.4482 1780.21762 778.521126C1780.21762 738.134845 1759.36361 716.98712 1725.43914 716.98712 1701.64795 716.98712 1687.10889 727.414123 1678.44419 744.449791L1675.36015 744.449791 1675.36015 654.27824 1648.77863 654.27824 1648.77863 875.4482 1675.36015 875.4482z"/>
    <path fill="#FBBC00" fill-rule="nonzero" d="M67.828125,84 L67.828125,76.265625 L68,76.265625 L73.8515625,84 L75.15625,84 L75.15625,72.640625 L73.359375,72.640625 L73.359375,80.3828125 L73.203125,80.3828125 L67.34375,72.640625 L66.03125,72.640625 L66.03125,84 L67.828125,84 Z M80.4139423,84 L81.2498798,81.7421875 L86.1405048,81.7421875 L86.9764423,84 L89.0155048,84 L84.4139423,72.6015625 L83.0623798,72.6015625 L78.4608173,84 L80.4139423,84 Z M85.5858173,80.2421875 L81.8045673,80.2421875 L83.5780048,75.453125 L83.8201923,75.453125 L85.5858173,80.2421875 Z M94.0622596,84 L94.0622596,76.921875 L94.2419471,76.921875 L97.4372596,84 L98.5700721,84 L101.765385,76.921875 L101.945072,76.921875 L101.945072,84 L103.679447,84 L103.679447,72.640625 L102.046635,72.640625 L98.1169471,81.296875 L97.9528846,81.296875 L93.9997596,72.640625 L92.3200721,72.640625 L92.3200721,84 L94.0622596,84 Z M115.796514,84 L115.796514,82.453125 L110.054327,82.453125 L110.054327,78.9453125 L113.530889,78.9453125 L113.530889,77.4140625 L110.054327,77.4140625 L110.054327,74.1875 L115.593389,74.1875 L115.593389,72.640625 L108.249639,72.640625 L108.249639,84 L115.796514,84 Z M128.975962,84.21875 C131.640024,84.21875 133.124399,82.7578125 133.124399,80.8125 C133.124399,79.2109375 132.390024,78.2265625 130.319712,77.5390625 L128.725962,77.015625 C127.515024,76.6171875 127.140024,76.1640625 127.140024,75.3984375 C127.140024,74.578125 127.788462,73.9296875 129.186899,73.9296875 C130.241587,73.9296875 130.897837,74.3671875 131.405649,75.09375 L132.796274,74.234375 C132.046274,73.140625 130.983774,72.421875 129.202524,72.421875 C126.874399,72.421875 125.444712,73.7109375 125.444712,75.453125 C125.444712,77.0390625 126.288462,78.015625 127.921274,78.546875 L129.561899,79.0859375 C130.991587,79.5546875 131.397837,80.1171875 131.397837,80.953125 C131.397837,81.9609375 130.569712,82.6953125 128.975962,82.6953125 C127.616587,82.6953125 126.835337,82.171875 126.210337,81.140625 L124.796274,81.984375 C125.608774,83.421875 126.819712,84.21875 128.975962,84.21875 Z M137.452404,84 L138.288341,81.7421875 L143.178966,81.7421875 L144.014904,84 L146.053966,84 L141.452404,72.6015625 L140.100841,72.6015625 L135.499279,84 L137.452404,84 Z M142.624279,80.2421875 L138.843029,80.2421875 L140.616466,75.453125 L140.858654,75.453125 L142.624279,80.2421875 Z M151.155409,84 L151.155409,76.265625 L151.327284,76.265625 L157.178846,84 L158.483534,84 L158.483534,72.640625 L156.686659,72.640625 L156.686659,80.3828125 L156.530409,80.3828125 L150.671034,72.640625 L149.358534,72.640625 L149.358534,84 L151.155409,84 Z M166.006851,84.21875 C168.670913,84.21875 170.155288,82.7578125 170.155288,80.8125 C170.155288,79.2109375 169.420913,78.2265625 167.350601,77.5390625 L165.756851,77.015625 C164.545913,76.6171875 164.170913,76.1640625 164.170913,75.3984375 C164.170913,74.578125 164.819351,73.9296875 166.217788,73.9296875 C167.272476,73.9296875 167.928726,74.3671875 168.436538,75.09375 L169.827163,74.234375 C169.077163,73.140625 168.014663,72.421875 166.233413,72.421875 C163.905288,72.421875 162.475601,73.7109375 162.475601,75.453125 C162.475601,77.0390625 163.319351,78.015625 164.952163,78.546875 L166.592788,79.0859375 C168.022476,79.5546875 168.428726,80.1171875 168.428726,80.953125 C168.428726,81.9609375 167.600601,82.6953125 166.006851,82.6953125 C164.647476,82.6953125 163.866226,82.171875 163.241226,81.140625 L161.827163,81.984375 C162.639663,83.421875 163.850601,84.21875 166.006851,84.21875 Z M183.834736,84 C187.326923,84 189.506611,81.890625 189.506611,78.3359375 C189.506611,74.78125 187.326923,72.640625 183.819111,72.640625 L180.256611,72.640625 L180.256611,84 L183.834736,84 Z M183.842548,82.3203125 L182.061298,82.3203125 L182.061298,74.3203125 L183.842548,74.3203125 C186.287861,74.3203125 187.678486,75.7109375 187.678486,78.328125 C187.678486,80.9453125 186.287861,82.3203125 183.842548,82.3203125 Z M195.25649,84 L195.25649,72.640625 L193.451803,72.640625 L193.451803,84 L195.25649,84 Z M202.865745,84.21875 C205.529808,84.21875 207.014183,82.7578125 207.014183,80.8125 C207.014183,79.2109375 206.279808,78.2265625 204.209495,77.5390625 L202.615745,77.015625 C201.404808,76.6171875 201.029808,76.1640625 201.029808,75.3984375 C201.029808,74.578125 201.678245,73.9296875 203.076683,73.9296875 C204.13137,73.9296875 204.78762,74.3671875 205.295433,75.09375 L206.686058,74.234375 C205.936058,73.140625 204.873558,72.421875 203.092308,72.421875 C200.764183,72.421875 199.334495,73.7109375 199.334495,75.453125 C199.334495,77.0390625 200.178245,78.015625 201.811058,78.546875 L203.451683,79.0859375 C204.88137,79.5546875 205.28762,80.1171875 205.28762,80.953125 C205.28762,81.9609375 204.459495,82.6953125 202.865745,82.6953125 C201.50637,82.6953125 200.72512,82.171875 200.10012,81.140625 L198.686058,81.984375 C199.498558,83.421875 200.709495,84.21875 202.865745,84.21875 Z M212.615625,84 L212.615625,79.9140625 L214.795312,79.9140625 C217.279687,79.9140625 218.732812,78.515625 218.732812,76.265625 C218.732812,74.0859375 217.279687,72.640625 214.779687,72.640625 L210.803125,72.640625 L210.803125,84 L212.615625,84 Z M214.69375,78.3515625 L212.615625,78.3515625 L212.615625,74.1953125 L214.69375,74.1953125 C216.1625,74.1953125 216.920312,75.078125 216.920312,76.28125 C216.920312,77.53125 216.154687,78.3515625 214.69375,78.3515625 Z M229.56863,84 L229.56863,82.3828125 L224.342067,82.3828125 L224.342067,72.640625 L222.53738,72.640625 L222.53738,84 L229.56863,84 Z M234.029447,84 L234.865385,81.7421875 L239.75601,81.7421875 L240.591947,84 L242.63101,84 L238.029447,72.6015625 L236.677885,72.6015625 L232.076322,84 L234.029447,84 Z M239.201322,80.2421875 L235.420072,80.2421875 L237.19351,75.453125 L237.435697,75.453125 L239.201322,80.2421875 Z M249.068389,84 L249.068389,79.3046875 L253.443389,72.640625 L251.388702,72.640625 L248.310577,77.78125 L248.052764,77.78125 L245.084014,72.640625 L242.927764,72.640625 L247.248077,79.3046875 L247.248077,84 L249.068389,84 Z M255.193269,86.7265625 L256.294832,84.25 L256.294832,81.6953125 L253.912019,81.6953125 L253.912019,84 L255.005769,84 L255.021394,84.0625 L253.841707,86.7265625 L255.193269,86.7265625 Z M269.825841,84.21875 C272.489904,84.21875 273.974279,82.7578125 273.974279,80.8125 C273.974279,79.2109375 273.239904,78.2265625 271.169591,77.5390625 L269.575841,77.015625 C268.364904,76.6171875 267.989904,76.1640625 267.989904,75.3984375 C267.989904,74.578125 268.638341,73.9296875 270.036779,73.9296875 C271.091466,73.9296875 271.747716,74.3671875 272.255529,75.09375 L273.646154,74.234375 C272.896154,73.140625 271.833654,72.421875 270.052404,72.421875 C267.724279,72.421875 266.294591,73.7109375 266.294591,75.453125 C266.294591,77.0390625 267.138341,78.015625 268.771154,78.546875 L270.411779,79.0859375 C271.841466,79.5546875 272.247716,80.1171875 272.247716,80.953125 C272.247716,81.9609375 271.419591,82.6953125 269.825841,82.6953125 C268.466466,82.6953125 267.685216,82.171875 267.060216,81.140625 L265.646154,81.984375 C266.458654,83.421875 267.669591,84.21875 269.825841,84.21875 Z M282.106971,84 L282.106971,74.21875 L285.614784,74.21875 L285.614784,72.640625 L276.755409,72.640625 L276.755409,74.21875 L280.286659,74.21875 L280.286659,84 L282.106971,84 Z M288.802163,84 L289.638101,81.7421875 L294.528726,81.7421875 L295.364663,84 L297.403726,84 L292.802163,72.6015625 L291.450601,72.6015625 L286.849038,84 L288.802163,84 Z M293.974038,80.2421875 L290.192788,80.2421875 L291.966226,75.453125 L292.208413,75.453125 L293.974038,80.2421875 Z M302.505168,84 L302.505168,76.265625 L302.677043,76.265625 L308.528606,84 L309.833293,84 L309.833293,72.640625 L308.036418,72.640625 L308.036418,80.3828125 L307.880168,80.3828125 L302.020793,72.640625 L300.708293,72.640625 L300.708293,84 L302.505168,84 Z M317.981611,84 C321.473798,84 323.653486,81.890625 323.653486,78.3359375 C323.653486,74.78125 321.473798,72.640625 317.965986,72.640625 L314.403486,72.640625 L314.403486,84 L317.981611,84 Z M317.989423,82.3203125 L316.208173,82.3203125 L316.208173,74.3203125 L317.989423,74.3203125 C320.434736,74.3203125 321.825361,75.7109375 321.825361,78.328125 C321.825361,80.9453125 320.434736,82.3203125 317.989423,82.3203125 Z M327.809615,84 L328.645553,81.7421875 L333.536178,81.7421875 L334.372115,84 L336.411178,84 L331.809615,72.6015625 L330.458053,72.6015625 L325.85649,84 L327.809615,84 Z M332.98149,80.2421875 L329.20024,80.2421875 L330.973678,75.453125 L331.215865,75.453125 L332.98149,80.2421875 Z M341.520433,84 L341.520433,79.8125 L343.739183,79.8125 L345.895433,84 L347.926683,84 L345.504808,79.5625 C346.942308,79.0703125 347.746995,77.875 347.746995,76.2109375 C347.746995,74.0625 346.317308,72.640625 343.848558,72.640625 L339.715745,72.640625 L339.715745,84 L341.520433,84 Z M343.76262,78.234375 L341.520433,78.234375 L341.520433,74.1953125 L343.76262,74.1953125 C345.192308,74.1953125 345.934495,75.0625 345.934495,76.2265625 C345.934495,77.4453125 345.184495,78.234375 343.76262,78.234375 Z M355.332812,84 C358.825,84 361.004687,81.890625 361.004687,78.3359375 C361.004687,74.78125 358.825,72.640625 355.317187,72.640625 L351.754687,72.640625 L351.754687,84 L355.332812,84 Z M355.340625,82.3203125 L353.559375,82.3203125 L353.559375,74.3203125 L355.340625,74.3203125 C357.785937,74.3203125 359.176562,75.7109375 359.176562,78.328125 C359.176562,80.9453125 357.785937,82.3203125 355.340625,82.3203125 Z M365.238942,86.7265625 L366.340505,84.25 L366.340505,81.6953125 L363.957692,81.6953125 L363.957692,84 L365.051442,84 L365.067067,84.0625 L363.88738,86.7265625 L365.238942,86.7265625 Z M379.629327,84.2187851 C381.074639,84.2109375 382.019952,83.625 382.676202,82.46875 L382.855889,82.46875 L383.113702,82.75 C383.934014,83.625 384.652764,84.109375 385.902764,84.1796875 L386.441827,82.6875 C385.402764,82.53125 384.973077,82.3203125 384.191827,81.4765625 L384.066827,81.34375 C384.809014,80.328125 385.426202,79.3125 385.973077,78.171875 L384.496514,77.3984375 C384.207452,78.4765625 383.855889,79.40625 383.371514,80.375 L383.168389,80.375 L381.066827,78.1015625 L381.066827,77.921875 C382.621514,77.453125 383.551202,76.5234375 383.551202,75.078125 C383.551202,73.578125 382.418389,72.453125 380.621514,72.453125 C378.840264,72.453125 377.590264,73.59375 377.590264,75.34375 C377.590264,76.25 377.918389,77.1015625 378.598077,77.890625 L378.598077,78.046875 C376.957452,78.546875 376.215264,79.6328125 376.215264,81.0859375 C376.215264,82.9296875 377.480889,84.2265625 379.629327,84.2187851 Z M380.223077,77.1953125 C379.480889,76.3828125 379.254327,75.890625 379.254327,75.28125 C379.254327,74.453125 379.754327,73.8671875 380.644952,73.8671875 C381.473077,73.8671875 381.988702,74.3828125 381.988702,75.1640625 C381.988702,76.0078125 381.566827,76.625 380.223077,77.1953125 Z M379.769952,82.6796875 C378.621514,82.6796875 377.887139,81.953125 377.887139,80.8828125 C377.887139,80.0078125 378.269952,79.3203125 379.441827,78.796875 L382.027764,81.578125 C381.348077,82.3984375 380.652764,82.6796875 379.769952,82.6796875 Z M400.644712,84 L400.644712,74.21875 L404.152524,74.21875 L404.152524,72.640625 L395.293149,72.640625 L395.293149,74.21875 L398.824399,74.21875 L398.824399,84 L400.644712,84 Z M415.441466,84 L415.441466,82.453125 L409.699279,82.453125 L409.699279,78.9453125 L413.175841,78.9453125 L413.175841,77.4140625 L409.699279,77.4140625 L409.699279,74.1875 L415.238341,74.1875 L415.238341,72.640625 L407.894591,72.640625 L407.894591,84 L415.441466,84 Z M420.347596,84 L423.035096,79.515625 L423.277284,79.515625 L426.214784,84 L428.324159,84 L424.425721,78.125 L428.074159,72.640625 L426.003846,72.640625 L423.589784,76.7890625 L423.355409,76.7890625 L420.667909,72.640625 L418.535096,72.640625 L422.183534,78.125 L418.238221,84 L420.347596,84 Z M436.300601,84 L436.300601,74.21875 L439.808413,74.21875 L439.808413,72.640625 L430.949038,72.640625 L430.949038,74.21875 L434.480288,74.21875 L434.480288,84 L436.300601,84 Z M456.995673,80.046875 L456.995673,78.421875 L449.667548,78.421875 L449.667548,80.046875 L456.995673,80.046875 Z M472.151683,84 C474.526683,84 475.971995,82.8671875 475.971995,80.78125 C475.971995,79.4140625 475.221995,78.484375 473.729808,78.1640625 L473.729808,77.9609375 C474.886058,77.6328125 475.636058,76.859375 475.636058,75.5703125 C475.636058,73.7890625 474.315745,72.640625 471.776683,72.640625 L467.682933,72.640625 L467.682933,84 L472.151683,84 Z M471.761058,77.4921875 L469.495433,77.4921875 L469.495433,74.1875 L471.753245,74.1875 C473.198558,74.1875 473.83137,74.78125 473.83137,75.78125 C473.83137,76.90625 473.229808,77.4921875 471.761058,77.4921875 Z M472.034495,82.453125 L469.495433,82.453125 L469.495433,78.890625 L472.026683,78.890625 C473.511058,78.890625 474.167308,79.4375 474.167308,80.6640625 C474.167308,81.9296875 473.339183,82.453125 472.034495,82.453125 Z M484.698438,84.21875 C488.010938,84.21875 490.221875,81.90625 490.221875,78.3359375 C490.221875,74.765625 488.010938,72.421875 484.698438,72.421875 C481.385938,72.421875 479.221875,74.765625 479.221875,78.3359375 C479.221875,81.90625 481.39375,84.21875 484.698438,84.21875 Z M484.698438,82.5546875 C482.378125,82.5546875 481.05,80.9375 481.05,78.3359375 C481.05,75.7421875 482.370313,74.0859375 484.698438,74.0859375 C487.026563,74.0859375 488.39375,75.7421875 488.39375,78.3359375 C488.39375,80.9375 487.01875,82.5546875 484.698438,82.5546875 Z M501.104567,84 L501.104567,82.3828125 L495.878005,82.3828125 L495.878005,72.640625 L494.073317,72.640625 L494.073317,84 L501.104567,84 Z M508.502885,84 C511.995072,84 514.17476,81.890625 514.17476,78.3359375 C514.17476,74.78125 511.995072,72.640625 508.48726,72.640625 L504.92476,72.640625 L504.92476,84 L508.502885,84 Z M508.510697,82.3203125 L506.729447,82.3203125 L506.729447,74.3203125 L508.510697,74.3203125 C510.95601,74.3203125 512.346635,75.7109375 512.346635,78.328125 C512.346635,80.9453125 510.95601,82.3203125 508.510697,82.3203125 Z M527.049519,84.2187851 C528.494832,84.2109375 529.440144,83.625 530.096394,82.46875 L530.276082,82.46875 L530.533894,82.75 C531.354207,83.625 532.072957,84.109375 533.322957,84.1796875 L533.862019,82.6875 C532.822957,82.53125 532.393269,82.3203125 531.612019,81.4765625 L531.487019,81.34375 C532.229207,80.328125 532.846394,79.3125 533.393269,78.171875 L531.916707,77.3984375 C531.627644,78.4765625 531.276082,79.40625 530.791707,80.375 L530.588582,80.375 L528.487019,78.1015625 L528.487019,77.921875 C530.041707,77.453125 530.971394,76.5234375 530.971394,75.078125 C530.971394,73.578125 529.838582,72.453125 528.041707,72.453125 C526.260457,72.453125 525.010457,73.59375 525.010457,75.34375 C525.010457,76.25 525.338582,77.1015625 526.018269,77.890625 L526.018269,78.046875 C524.377644,78.546875 523.635457,79.6328125 523.635457,81.0859375 C523.635457,82.9296875 524.901082,84.2265625 527.049519,84.2187851 Z M527.643269,77.1953125 C526.901082,76.3828125 526.674519,75.890625 526.674519,75.28125 C526.674519,74.453125 527.174519,73.8671875 528.065144,73.8671875 C528.893269,73.8671875 529.408894,74.3828125 529.408894,75.1640625 C529.408894,76.0078125 528.987019,76.625 527.643269,77.1953125 Z M527.190144,82.6796875 C526.041707,82.6796875 525.307332,81.953125 525.307332,80.8828125 C525.307332,80.0078125 525.690144,79.3203125 526.862019,78.796875 L529.447957,81.578125 C528.768269,82.3984375 528.072957,82.6796875 527.190144,82.6796875 Z M545.353966,84 L545.353966,79.8125 L547.572716,79.8125 L549.728966,84 L551.760216,84 L549.338341,79.5625 C550.775841,79.0703125 551.580529,77.875 551.580529,76.2109375 C551.580529,74.0625 550.150841,72.640625 547.682091,72.640625 L543.549279,72.640625 L543.549279,84 L545.353966,84 Z M547.596154,78.234375 L545.353966,78.234375 L545.353966,74.1953125 L547.596154,74.1953125 C549.025841,74.1953125 549.768029,75.0625 549.768029,76.2265625 C549.768029,77.4453125 549.018029,78.234375 547.596154,78.234375 Z M563.135096,84 L563.135096,82.453125 L557.392909,82.453125 L557.392909,78.9453125 L560.869471,78.9453125 L560.869471,77.4140625 L557.392909,77.4140625 L557.392909,74.1875 L562.931971,74.1875 L562.931971,72.640625 L555.588221,72.640625 L555.588221,84 L563.135096,84 Z M570.947476,84.234375 C572.689663,84.234375 573.931851,83.5078125 574.509976,82.0078125 L574.689663,82.0078125 L574.814663,84 L576.236538,84 L576.236538,77.9609375 L571.322476,77.9609375 L571.322476,79.4609375 L574.455288,79.4609375 L574.455288,79.84375 C574.455288,81.5703125 573.338101,82.59375 571.197476,82.59375 C568.955288,82.59375 567.603726,80.9140625 567.603726,78.34375 C567.603726,75.78125 569.080288,74.109375 571.314663,74.109375 C572.650601,74.109375 573.572476,74.6484375 574.291226,75.6015625 L575.736538,74.4921875 C574.744351,73.1796875 573.353726,72.390625 571.306851,72.390625 C568.127163,72.390625 565.775601,74.6953125 565.775601,78.3125 C565.775601,81.9296875 567.955288,84.234375 570.947476,84.234375 Z M584.689543,84.21875 C587.377043,84.21875 589.056731,82.765625 589.056731,79.9921875 L589.056731,72.640625 L587.259856,72.640625 L587.259856,80 C587.259856,81.6875 586.384856,82.5546875 584.705168,82.5546875 C583.048918,82.5546875 582.197356,81.6875 582.197356,80 L582.197356,72.640625 L580.377043,72.640625 L580.377043,79.9921875 C580.377043,82.765625 582.017668,84.21875 584.689543,84.21875 Z M600.369111,84 L600.369111,82.3828125 L595.142548,82.3828125 L595.142548,72.640625 L593.337861,72.640625 L593.337861,84 L600.369111,84 Z M604.829928,84 L605.665865,81.7421875 L610.55649,81.7421875 L611.392428,84 L613.43149,84 L608.829928,72.6015625 L607.478365,72.6015625 L602.876803,84 L604.829928,84 Z M610.001803,80.2421875 L606.220553,80.2421875 L607.99399,75.453125 L608.236178,75.453125 L610.001803,80.2421875 Z M618.540745,84 L618.540745,79.8125 L620.759495,79.8125 L622.915745,84 L624.946995,84 L622.52512,79.5625 C623.96262,79.0703125 624.767308,77.875 624.767308,76.2109375 C624.767308,74.0625 623.33762,72.640625 620.86887,72.640625 L616.736058,72.640625 L616.736058,84 L618.540745,84 Z M620.782933,78.234375 L618.540745,78.234375 L618.540745,74.1953125 L620.782933,74.1953125 C622.21262,74.1953125 622.954808,75.0625 622.954808,76.2265625 C622.954808,77.4453125 622.204808,78.234375 620.782933,78.234375 Z"/>
  </g>
</svg>
