<svg xmlns="http://www.w3.org/2000/svg" width="1891" height="463" viewBox="0 0 1891 463">
  <g fill="none" fill-rule="evenodd">
    <rect width="1891" height="463" fill="#222"/>
    <path fill="#FFF" fill-rule="nonzero" d="M99.2379609,333 L99.2379609,226.471898 C99.2379609,188.165561 119.485597,167.005869 153.049245,167.005869 C186.430482,167.005869 206.860529,186.888683 206.860529,225.742254 L206.860529,333 L230.209154,333 L230.209154,224.647787 C230.209154,174.484726 203.75954,146.940645 158.70399,146.940645 C126.234809,146.940645 107.08164,161.168713 96.5017939,182.875638 L95.9545605,182.875638 L94.4952715,151.865745 L75.7069248,151.865745 L75.7069248,333 L99.2379609,333 Z M414.140626,337.742689 C463.574043,337.742689 499.691447,300.713229 499.691447,242.159256 C499.691447,183.787693 464.121276,147.670289 414.140626,147.670289 C380.576978,147.670289 359.052464,162.445591 345.371629,184.88216 L344.641984,184.88216 L344.641984,67.7742129 L321.293359,67.7742129 L321.293359,333 L341.358584,333 L342.817873,295.97054 L343.365106,295.97054 C358.322819,323.33221 378.752866,337.742689 414.140626,337.742689 Z M410.127581,317.312643 C372.003654,317.312643 344.459573,287.397217 344.459573,242.524078 C344.459573,196.374062 370.726776,167.735514 410.127581,167.735514 C448.981152,167.735514 475.430767,197.286117 475.430767,242.341667 C475.430767,287.397217 448.61633,317.312643 410.127581,317.312643 Z M663.375283,337.742689 C698.580632,337.742689 719.19309,323.33221 733.968392,295.97054 L734.515625,295.97054 L735.974914,333 L756.040139,333 L756.040139,67.7742129 L732.691514,67.7742129 L732.691514,184.88216 L732.14428,184.88216 C718.463445,162.445591 696.938932,147.670289 663.192872,147.670289 C613.394633,147.670289 577.824462,183.787693 577.824462,242.159256 C577.824462,300.713229 613.759455,337.742689 663.375283,337.742689 Z M667.388328,317.312643 C628.899579,317.312643 602.085143,287.397217 602.085143,242.341667 C602.085143,197.286117 628.534757,167.735514 667.388328,167.735514 C706.606722,167.735514 732.873925,196.374062 732.873925,242.524078 C732.873925,287.397217 705.512255,317.312643 667.388328,317.312643 Z M871.385024,397.938363 L871.385024,299.983585 L871.932258,299.983585 C885.977915,322.784977 907.137606,337.377867 940.701255,337.377867 C990.864316,337.377867 1026.43449,301.078052 1026.43449,242.706489 C1026.43449,184.152516 990.317083,147.123056 940.883666,147.123056 C905.495906,147.123056 883.971393,163.540058 870.108146,188.895205 L869.560913,188.895205 L868.101624,151.865745 L848.036399,151.865745 L848.036399,397.938363 L871.385024,397.938363 Z M936.870621,317.130231 C897.469816,317.130231 871.202613,288.674095 871.202613,242.524078 C871.202613,197.468528 898.746694,167.735514 936.870621,167.735514 C975.35937,167.735514 1002.17381,197.650939 1002.17381,242.706489 C1002.17381,287.579628 975.724192,317.130231 936.870621,317.130231 Z M1282.78318,397.938363 L1282.78318,151.865745 L1262.71795,151.865745 L1261.25867,188.895205 L1260.71143,188.895205 C1247.0306,163.540058 1225.32367,147.123056 1190.11832,147.123056 C1140.5025,147.123056 1104.5675,184.152516 1104.5675,242.706489 C1104.5675,301.078052 1139.95526,337.195456 1190.11832,337.195456 C1223.86438,337.195456 1245.20649,322.602565 1258.88732,299.618763 L1259.43455,299.618763 L1259.43455,397.938363 L1282.78318,397.938363 Z M1194.13137,317.130231 C1155.2778,317.130231 1128.64577,287.579628 1128.64577,242.706489 C1128.64577,197.650939 1155.64262,167.735514 1194.13137,167.735514 C1232.25529,167.735514 1259.61696,197.468528 1259.61696,242.524078 C1259.61696,288.674095 1233.34976,317.130231 1194.13137,317.130231 Z M1462.51919,338.289923 C1517.97218,338.289923 1558.10263,297.429829 1558.10263,242.706489 C1558.10263,187.618327 1517.97218,146.758233 1462.51919,146.758233 C1407.24862,146.940645 1367.11817,187.618327 1367.11817,242.706489 C1367.11817,297.61224 1407.24862,338.289923 1462.51919,338.289923 Z M1462.51919,317.130231 C1420.38222,317.130231 1390.28439,285.937928 1390.28439,242.706489 C1390.28439,199.110229 1420.38222,167.553103 1462.51919,167.553103 C1504.83858,167.553103 1535.11883,199.110229 1535.11883,242.706489 C1535.11883,285.937928 1504.83858,317.130231 1462.51919,317.130231 Z"/>
    <path fill="#FFA600" fill-rule="nonzero" d="M71.2041016,397.5 L71.2041016,391.21582 L71.34375,391.21582 L76.0981445,397.5 L77.1582031,397.5 L77.1582031,388.270508 L75.6982422,388.270508 L75.6982422,394.561035 L75.5712891,394.561035 L70.8105469,388.270508 L69.7441406,388.270508 L69.7441406,397.5 L71.2041016,397.5 Z M81.4050781,397.5 L82.0842773,395.665527 L86.0579102,395.665527 L86.7371094,397.5 L88.3938477,397.5 L84.6550781,388.23877 L83.5569336,388.23877 L79.8181641,397.5 L81.4050781,397.5 Z M85.6072266,394.446777 L82.5349609,394.446777 L83.9758789,390.555664 L84.1726563,390.555664 L85.6072266,394.446777 Z M92.4693359,397.5 L92.4693359,391.749023 L92.615332,391.749023 L95.2115234,397.5 L96.1319336,397.5 L98.728125,391.749023 L98.8741211,391.749023 L98.8741211,397.5 L100.283301,397.5 L100.283301,388.270508 L98.9566406,388.270508 L95.7637695,395.303711 L95.6304688,395.303711 L92.4185547,388.270508 L91.0538086,388.270508 L91.0538086,397.5 L92.4693359,397.5 Z M110.103418,397.5 L110.103418,396.243164 L105.437891,396.243164 L105.437891,393.393066 L108.262598,393.393066 L108.262598,392.148926 L105.437891,392.148926 L105.437891,389.527344 L109.938379,389.527344 L109.938379,388.270508 L103.971582,388.270508 L103.971582,397.5 L110.103418,397.5 Z M120.761719,397.677734 C122.92627,397.677734 124.132324,396.490723 124.132324,394.910156 C124.132324,393.608887 123.535645,392.809082 121.853516,392.250488 L120.558594,391.825195 C119.574707,391.501465 119.27002,391.133301 119.27002,390.51123 C119.27002,389.844727 119.796875,389.317871 120.933105,389.317871 C121.790039,389.317871 122.323242,389.67334 122.73584,390.263672 L123.865723,389.56543 C123.256348,388.676758 122.393066,388.092773 120.945801,388.092773 C119.054199,388.092773 117.892578,389.140137 117.892578,390.555664 C117.892578,391.844238 118.578125,392.637695 119.904785,393.069336 L121.237793,393.507324 C122.399414,393.888184 122.729492,394.345215 122.729492,395.024414 C122.729492,395.843262 122.056641,396.439941 120.761719,396.439941 C119.657227,396.439941 119.022461,396.014648 118.514648,395.176758 L117.365723,395.862305 C118.025879,397.030273 119.009766,397.677734 120.761719,397.677734 Z M127.623828,397.5 L128.303027,395.665527 L132.27666,395.665527 L132.955859,397.5 L134.612598,397.5 L130.873828,388.23877 L129.775684,388.23877 L126.036914,397.5 L127.623828,397.5 Z M131.825977,394.446777 L128.753711,394.446777 L130.194629,390.555664 L130.391406,390.555664 L131.825977,394.446777 Z M138.73252,397.5 L138.73252,391.21582 L138.872168,391.21582 L143.626563,397.5 L144.686621,397.5 L144.686621,388.270508 L143.22666,388.270508 L143.22666,394.561035 L143.099707,394.561035 L138.338965,388.270508 L137.272559,388.270508 L137.272559,397.5 L138.73252,397.5 Z M150.774316,397.677734 C152.938867,397.677734 154.144922,396.490723 154.144922,394.910156 C154.144922,393.608887 153.548242,392.809082 151.866113,392.250488 L150.571191,391.825195 C149.587305,391.501465 149.282617,391.133301 149.282617,390.51123 C149.282617,389.844727 149.809473,389.317871 150.945703,389.317871 C151.802637,389.317871 152.33584,389.67334 152.748438,390.263672 L153.87832,389.56543 C153.268945,388.676758 152.405664,388.092773 150.958398,388.092773 C149.066797,388.092773 147.905176,389.140137 147.905176,390.555664 C147.905176,391.844238 148.590723,392.637695 149.917383,393.069336 L151.250391,393.507324 C152.412012,393.888184 152.74209,394.345215 152.74209,395.024414 C152.74209,395.843262 152.069238,396.439941 150.774316,396.439941 C149.669824,396.439941 149.035059,396.014648 148.527246,395.176758 L147.37832,395.862305 C148.038477,397.030273 149.022363,397.677734 150.774316,397.677734 Z M165.209473,397.5 C168.046875,397.5 169.817871,395.786133 169.817871,392.897949 C169.817871,390.009766 168.046875,388.270508 165.196777,388.270508 L162.302246,388.270508 L162.302246,397.5 L165.209473,397.5 Z M165.21582,396.135254 L163.768555,396.135254 L163.768555,389.635254 L165.21582,389.635254 C167.202637,389.635254 168.33252,390.765137 168.33252,392.891602 C168.33252,395.018066 167.202637,396.135254 165.21582,396.135254 Z M174.464648,397.5 L174.464648,388.270508 L172.99834,388.270508 L172.99834,397.5 L174.464648,397.5 Z M180.622168,397.677734 C182.786719,397.677734 183.992773,396.490723 183.992773,394.910156 C183.992773,393.608887 183.396094,392.809082 181.713965,392.250488 L180.419043,391.825195 C179.435156,391.501465 179.130469,391.133301 179.130469,390.51123 C179.130469,389.844727 179.657324,389.317871 180.793555,389.317871 C181.650488,389.317871 182.183691,389.67334 182.596289,390.263672 L183.726172,389.56543 C183.116797,388.676758 182.253516,388.092773 180.80625,388.092773 C178.914648,388.092773 177.753027,389.140137 177.753027,390.555664 C177.753027,391.844238 178.438574,392.637695 179.765234,393.069336 L181.098242,393.507324 C182.259863,393.888184 182.589941,394.345215 182.589941,395.024414 C182.589941,395.843262 181.91709,396.439941 180.622168,396.439941 C179.517676,396.439941 178.88291,396.014648 178.375098,395.176758 L177.226172,395.862305 C177.886328,397.030273 178.870215,397.677734 180.622168,397.677734 Z M188.518945,397.5 L188.518945,394.180176 L190.289941,394.180176 C192.308496,394.180176 193.48916,393.043945 193.48916,391.21582 C193.48916,389.444824 192.308496,388.270508 190.277246,388.270508 L187.046289,388.270508 L187.046289,397.5 L188.518945,397.5 Z M190.207422,392.910645 L188.518945,392.910645 L188.518945,389.533691 L190.207422,389.533691 C191.400781,389.533691 192.016504,390.250977 192.016504,391.228516 C192.016504,392.244141 191.394434,392.910645 190.207422,392.910645 Z M202.268262,397.5 L202.268262,396.186035 L198.02168,396.186035 L198.02168,388.270508 L196.555371,388.270508 L196.555371,397.5 L202.268262,397.5 Z M205.867676,397.5 L206.546875,395.665527 L210.520508,395.665527 L211.199707,397.5 L212.856445,397.5 L209.117676,388.23877 L208.019531,388.23877 L204.280762,397.5 L205.867676,397.5 Z M210.069824,394.446777 L206.997559,394.446777 L208.438477,390.555664 L208.635254,390.555664 L210.069824,394.446777 Z M218.061816,397.5 L218.061816,393.685059 L221.616504,388.270508 L219.94707,388.270508 L217.446094,392.447266 L217.236621,392.447266 L214.824512,388.270508 L213.072559,388.270508 L216.582813,393.685059 L216.582813,397.5 L218.061816,397.5 Z M235.124902,397.5 L235.124902,396.186035 L230.87832,396.186035 L230.87832,388.270508 L229.412012,388.270508 L229.412012,397.5 L235.124902,397.5 Z M239.746289,397.5 L239.746289,388.270508 L238.27998,388.270508 L238.27998,397.5 L239.746289,397.5 Z M247.122559,397.69043 C248.538086,397.69043 249.547363,397.100098 250.01709,395.881348 L250.163086,395.881348 L250.264648,397.5 L251.419922,397.5 L251.419922,392.593262 L247.427246,392.593262 L247.427246,393.812012 L249.972656,393.812012 L249.972656,394.123047 C249.972656,395.525879 249.064941,396.357422 247.325684,396.357422 C245.503906,396.357422 244.405762,394.992676 244.405762,392.904297 C244.405762,390.822266 245.605469,389.463867 247.420898,389.463867 C248.506348,389.463867 249.255371,389.901855 249.839355,390.67627 L251.013672,389.774902 C250.20752,388.708496 249.077637,388.067383 247.414551,388.067383 C244.831055,388.067383 242.92041,389.939941 242.92041,392.878906 C242.92041,395.817871 244.691406,397.69043 247.122559,397.69043 Z M256.460254,397.5 L256.460254,393.494629 L260.821094,393.494629 L260.821094,397.5 L262.287402,397.5 L262.287402,388.270508 L260.821094,388.270508 L260.821094,392.199707 L256.460254,392.199707 L256.460254,388.270508 L254.993945,388.270508 L254.993945,397.5 L256.460254,397.5 Z M269.650977,397.5 L269.650977,389.552734 L272.501074,389.552734 L272.501074,388.270508 L265.302832,388.270508 L265.302832,389.552734 L268.171973,389.552734 L268.171973,397.5 L269.650977,397.5 Z"/>
    <path fill="#FFF" fill-rule="nonzero" d="M1656.27585,333 L1656.27585,226.471898 C1656.27585,188.165561 1676.52348,167.005869 1710.08713,167.005869 C1743.46837,167.005869 1763.89841,186.888683 1763.89841,225.742254 L1763.89841,333 L1787.24704,333 L1787.24704,224.647787 C1787.24704,174.484726 1760.79743,146.940645 1715.74188,146.940645 C1683.27269,146.940645 1664.11952,161.168713 1653.53968,182.875638 L1652.99245,182.875638 L1651.53316,151.865745 L1632.74481,151.865745 L1632.74481,333 L1656.27585,333 Z" opacity=".5"/>
    <path fill="#FFF" fill-rule="nonzero" d="M1728.14583,338.289923 C1783.59882,338.289923 1823.72927,297.429829 1823.72927,242.706489 C1823.72927,187.618327 1783.59882,146.758233 1728.14583,146.758233 C1672.87526,146.940645 1632.74481,187.618327 1632.74481,242.706489 C1632.74481,297.61224 1672.87526,338.289923 1728.14583,338.289923 Z M1728.14583,317.130231 C1686.00886,317.130231 1655.91102,285.937928 1655.91102,242.706489 C1655.91102,199.110229 1686.00886,167.553103 1728.14583,167.553103 C1770.46522,167.553103 1800.74546,199.110229 1800.74546,242.706489 C1800.74546,285.937928 1770.46522,317.130231 1728.14583,317.130231 Z" opacity=".5"/>
    <path stroke="#FFA600" stroke-linecap="round" stroke-linejoin="round" stroke-width="2" d="M1725.59208,337.742689 C1775.02549,337.742689 1811.1429,300.713229 1811.1429,242.159256 C1811.1429,183.787693 1775.57273,147.670289 1725.59208,147.670289 C1692.02843,147.670289 1670.50391,162.445591 1656.82308,184.88216 L1656.09344,184.88216 L1656.09344,67.7742129 L1632.74481,67.7742129 L1632.74481,333 L1652.81003,333 L1654.26932,295.97054 L1654.81656,295.97054 C1669.77427,323.33221 1690.20432,337.742689 1725.59208,337.742689 Z M1721.57903,317.312643 C1683.4551,317.312643 1655.91102,287.397217 1655.91102,242.524078 C1655.91102,196.374062 1682.17823,167.735514 1721.57903,167.735514 C1760.4326,167.735514 1786.88222,197.286117 1786.88222,242.341667 C1786.88222,287.397217 1760.06778,317.312643 1721.57903,317.312643 Z"/>
  </g>
</svg>
