<svg xmlns="http://www.w3.org/2000/svg" width="1012" height="396" viewBox="0 0 1012 396">
  <g fill="none" fill-rule="evenodd">
    <rect width="1012" height="396" fill="#222"/>
    <path stroke="#FFF" stroke-width=".5" d="M55.0806174 140.217406C87.5520167 140.217406 109.15489 120.224685 111.570118 87.887465L111.570118 137.533819 111.838477 137.533819 111.838477 56.7578591C111.838477 23.7497425 94.2609835 4.29373875 64.3389916 4.29373875 44.3462705 4.29373875 28.3789296 12.3444989 18.0471207 29.5194539L18.3154794 29.6536332C28.6472882 12.6128576 44.4804499 4.56209742 64.3389916 4.56209742 94.1268042 4.56209742 111.570118 23.8839218 111.570118 56.7578591L111.570118 63.1984672 57.2274868 63.1984672C25.2928048 63.1984672 7.04441514 76.8847595 7.04441514 100.768681 7.04441514 125.457679 25.1586255 140.217406 55.0806174 140.217406zM55.0806174 139.949047C25.2928048 139.949047 7.31277381 125.18932 7.31277381 100.768681 7.31277381 77.1531182 25.4269842 63.4668259 57.2274868 63.4668259L111.570118 63.4668259 111.570118 81.3126776C111.570118 117.13856 89.6988861 139.949047 55.0806174 139.949047zM205.845137 140.217406C237.51146 140.217406 258.040898 121.834837 261.395382 91.9128451L261.66374 137.533819 264.078968 137.533819 264.078968 56.8920384C264.078968 23.3472045 246.233117 3.75702141 215.640228 3.75702141 195.379148 3.75702141 179.277628 12.0761402 168.677461 29.1169159L170.958509 30.7270679C181.156139 14.2230096 196.452583 6.44060812 215.640228 6.44060812 244.354606 6.44060812 261.127023 24.9573565 261.127023 56.4895004L261.127023 62.5275705 208.126185 62.5275705C176.325683 62.5275705 157.943114 76.4822215 157.943114 100.634502 157.943114 125.3235 176.057324 140.217406 205.845137 140.217406zM206.381854 137.667999C177.935835 137.667999 160.895059 123.713348 160.895059 100.500323 160.895059 78.0923735 178.070014 65.2111573 208.394544 65.2111573L261.127023 65.2111573 261.127023 81.3126776C261.127023 115.796767 239.926688 137.667999 206.381854 137.667999zM359.628691 140.217406C389.684862 140.217406 408.872507 124.384244 414.105501 98.0850946L414.239681 98.0850946 414.508039 137.533819 419.204316 137.533819 419.204316 57.0262178C419.204316 23.0788458 401.224285 3.22030406 369.82632 3.22030406 349.431061 3.22030406 332.927003 11.6736022 322.192656 28.7143779L326.486395 31.8005026C336.549845 15.8331616 351.175393 8.45329816 369.692141 8.45329816 397.467264 8.45329816 413.568784 26.1649705 413.568784 56.2211418L413.568784 61.7224945 362.043919 61.7224945C330.243416 61.7224945 311.726668 76.0796835 311.726668 100.366143 311.726668 125.18932 329.840878 140.217406 359.628691 140.217406zM360.702126 135.38695C333.5979 135.38695 317.228021 122.103196 317.228021 100.097785 317.228021 79.0316289 333.5979 66.9554886 362.580636 66.9554886L413.568784 66.9554886 413.568784 81.4468569C413.568784 114.454974 393.039346 135.38695 360.702126 135.38695zM516.028742 140.083227C542.998789 140.083227 559.637026 129.483059 568.358683 110.563773L568.761221 110.563773 569.432118 137.533819 578.690492 137.533819 578.690492 57.4287558C578.690492 22.2737698 560.173744 2.14686938 527.299806 2.14686938 506.36783 2.14686938 489.461234 11.0027055 478.324349 27.7751225L486.777647 33.947372C496.438559 19.187645 509.990672 12.3444989 527.031448 12.3444989 552.659701 12.3444989 567.419428 28.4460192 567.419428 55.6844244L567.419428 60.2465218 518.712329 60.2465218C487.180185 60.2465218 468.260899 75.1404281 468.260899 99.9636053 468.260899 124.920962 486.375109 140.083227 516.028742 140.083227zM518.175612 130.824853C493.889152 130.824853 479.263604 119.017071 479.263604 99.4268879 479.263604 81.0443189 493.889152 70.4441514 519.785764 70.4441514L567.419428 70.4441514 567.419428 81.5810363C567.419428 111.637208 548.231783 130.824853 518.175612 130.824853zM678.265595 140.083227C704.028027 140.083227 720.129547 130.288135 728.717025 112.442284L729.253742 112.442284 730.327177 137.533819 744.147649 137.533819 744.147649 57.4287558C744.147649 21.6028731 725.094183 1.07343469 690.878452 1.07343469 669.543938 1.07343469 652.234804 10.0634502 640.695381 27.1042259L653.442418 36.4967794C662.432433 23.2130251 674.642753 16.5040583 690.744273 16.5040583 713.957298 16.5040583 727.375232 30.8612473 727.375232 55.1477071L727.375232 59.1730871 681.21754 59.1730871C649.685396 59.1730871 630.900289 74.4695314 630.900289 99.5610673 630.900289 124.652603 648.88032 140.083227 678.265595 140.083227zM681.485899 126.128576C660.017205 126.128576 647.270168 115.930946 647.270168 99.0243499 647.270168 82.7886503 659.883026 73.3960968 682.559333 73.3960968L727.375232 73.3960968 727.375232 81.4468569C727.375232 108.685262 709.395201 126.128576 681.485899 126.128576zM849.96209 139.949047C874.651088 139.949047 890.081712 130.959032 898.669189 114.186615L899.340086 114.186615 900.681879 137.533819 919.064448 137.533819 919.064448 57.5629351C919.064448 21.0661557 899.742624-3.12638804e-13 864.1851-3.12638804e-13 842.179689-3.12638804e-13 824.602196 9.12419484 812.794414 26.5675085L829.566831 39.1803661C838.020129 27.2384052 848.754476 20.5294384 864.1851 20.5294384 884.848718 20.5294384 896.790679 33.2764753 896.790679 54.4768104L896.790679 58.2338318 853.182394 58.2338318C821.78443 58.2338318 802.999323 73.9328141 802.999323 99.2927086 802.999323 124.250065 820.979354 139.949047 849.96209 139.949047zM854.255829 121.432299C835.739081 121.432299 824.736375 112.979001 824.736375 98.4876326 824.736375 84.5329816 835.604901 76.2138628 854.926726 76.2138628L896.790679 76.2138628 896.790679 81.3126776C896.790679 105.733317 880.152441 121.432299 854.255829 121.432299zM46.5602296 321.949047C70.0416134 321.949047 84.9355196 313.764108 93.3888178 298.065126L94.1938938 298.065126 95.9382252 319.533819 118.882892 319.533819 118.882892 239.562935C118.882892 202.395259 99.0243499 180.926565 62.1250325 180.926565 39.7170834 180.926565 21.7370524 190.184939 9.52673285 207.896612L30.5928886 223.729773C38.3752901 213.129606 47.7678436 206.688998 62.2592119 206.688998 80.5076016 206.688998 91.1077691 217.691703 91.1077691 235.940093L91.1077691 239.160397 50.0488923 239.160397C18.6509277 239.160397 2.84217094e-13 255.261917 2.84217094e-13 280.890171 2.84217094e-13 305.981706 17.8458517 321.949047 46.5602296 321.949047zM51.927403 298.736022C36.2284207 298.736022 27.1042259 291.892876 27.1042259 280.085095 27.1042259 268.277313 35.960062 261.165808 52.0615823 261.165808L91.1077691 261.165808 91.1077691 263.178498C91.1077691 284.781371 75.6771455 298.736022 51.927403 298.736022zM196.922211 321.814868C218.256725 321.814868 232.748093 314.703363 241.335571 299.809457L242.274826 299.809457 244.421696 319.533819 271.92846 319.533819 271.92846 239.562935C271.92846 201.590183 251.935739 179.853131 213.426269 179.853131 190.213244 179.853131 171.428137 190.05076 158.949459 207.359894L183.370098 225.474105C190.481603 215.679013 199.471618 209.506764 212.889552 209.506764 229.39361 209.506764 238.517805 218.899317 238.517805 234.329941L238.517805 237.818604 200.008336 237.818604C168.74455 237.818604 150.093623 254.188483 150.093623 279.950915 150.093623 305.444989 168.073654 321.814868 196.922211 321.814868zM203.496998 294.844822C190.213244 294.844822 182.833381 288.940931 182.833381 278.609122 182.833381 268.545672 190.079065 262.507602 203.631178 262.507602L238.517805 262.507602 238.517805 263.715216C238.517805 282.500323 224.697333 294.844822 203.496998 294.844822zM350.236137 321.814868C369.423782 321.814868 383.512613 315.642619 392.10009 301.687968L393.173525 301.687968 395.722932 319.533819 427.791794 319.533819 427.791794 239.697114C427.791794 200.919286 407.799073 178.779696 367.679451 178.779696 343.527171 178.779696 324.071167 189.782401 311.32413 206.823177L338.965073 227.352616C345.539861 218.094241 354.261517 212.458709 366.606016 212.458709 381.231564 212.458709 388.879786 220.241111 388.879786 232.719789L388.879786 236.47681 352.919724 236.47681C321.790118 236.47681 303.13919 253.115048 303.13919 279.145839 303.13919 304.908272 321.253401 321.814868 350.236137 321.814868zM358.018539 290.953621C347.284192 290.953621 341.380301 285.988985 341.380301 277.267329 341.380301 268.81403 347.284192 263.849395 358.152718 263.849395L388.879786 263.849395 388.879786 264.386112C388.879786 280.353453 376.535287 290.953621 358.018539 290.953621zM505.696933 321.814868C525.018758 321.814868 538.70505 315.776798 547.292528 302.224685L548.365962 302.224685 551.049549 319.533819 587.948866 319.533819 587.948866 240.63637C587.948866 200.382569 567.01689 178.108799 525.689654 178.108799 499.524684 178.108799 478.861066 190.05076 466.516567 208.970047L499.122146 228.828588C504.891857 220.241111 512.674259 215.008117 523.811144 215.008117 536.960719 215.008117 543.938044 222.119621 543.938044 233.524865L543.938044 236.745169 509.185596 236.745169C477.519273 236.745169 459.002524 253.383407 459.002524 279.414198 459.002524 305.042451 477.116735 321.814868 505.696933 321.814868zM517.102177 288.672572C507.307085 288.672572 502.074091 284.110475 502.074091 276.328073 502.074091 268.679851 507.441265 264.117754 517.236356 264.117754L543.938044 264.117754 543.938044 265.057009C543.938044 279.414198 533.203697 288.672572 517.102177 288.672572zM665.183109 321.680689C684.639113 321.680689 697.922867 315.910977 706.241986 303.16394L707.315421 303.16394 710.401546 319.533819 755.888341 319.533819 755.888341 242.246522C755.888341 199.309134 733.346212 176.767006 689.737928 176.767006 659.815936 176.767006 637.273808 190.587477 625.466026 212.727068L667.06162 231.377996C671.355359 223.998132 677.393429 219.570214 686.517624 219.570214 696.983612 219.570214 702.619144 225.339926 702.619144 235.000838L702.619144 237.281886 669.879386 237.281886C637.407987 237.281886 619.159597 253.920124 619.159597 279.816736 619.159597 305.31081 637.273808 321.680689 665.183109 321.680689zM683.028961 284.647192C674.978201 284.647192 670.952821 280.890171 670.952821 274.449562 670.952821 268.277313 675.380739 264.520292 683.028961 264.520292L702.619144 264.520292 702.619144 266.398802C702.619144 277.804046 694.836743 284.647192 683.028961 284.647192zM832.049149 321.546509C851.773511 321.546509 864.25219 316.045157 872.571308 304.505734L873.644743 304.505734 876.999227 319.533819 934.9647 319.533819 934.9647 244.527571C934.9647 197.833162 910.007343 175.022675 863.312934 175.022675 827.88959 175.022675 802.663874 191.258374 791.795348 218.094241L846.137979 235.000838C848.284849 229.365306 851.907691 226.145002 858.07994 226.145002 864.654728 226.145002 868.545928 230.170382 868.545928 237.147707L868.545928 238.086962 838.758116 238.086962C805.079102 238.086962 787.099071 254.7252 787.099071 280.353453 787.099071 305.713348 805.347461 321.546509 832.049149 321.546509zM859.153375 278.743301C853.786201 278.743301 851.370973 276.059714 851.370973 271.900155 851.370973 267.874775 854.457098 265.057009 859.153375 265.057009L868.545928 265.057009 868.545928 268.277313C868.545928 275.388818 864.923086 278.743301 859.153375 278.743301z" transform="translate(37.518 36.025)"/>
  </g>
</svg>
