<svg xmlns="http://www.w3.org/2000/svg" width="1891" height="787" viewBox="0 0 1891 787">
  <g fill="none" fill-rule="evenodd">
    <rect width="1891" height="787" fill="#222"/>
    <g fill-rule="nonzero" transform="translate(53.998 55.053)">
      <path fill="#FFF" d="M98.1987891 259.203164C157.187461 259.203164 195.530098 228.320859 195.530098 180.435937 195.530098 146.430703 176.79252 123.00873 134.806465 108.782051L95.4228516 95.4228516C76.5117773 89.0034961 70.4394141 81.7166602 70.4394141 69.7454297 70.4394141 55.1717578 81.369668 46.8439453 100.280742 46.8439453 118.671328 46.8439453 132.37752 54.8247656 144.001758 70.9599023L182.344395 40.2510937C162.739336 13.3591992 136.541426-3.12638804e-13 100.280742-3.12638804e-13 50.6608594-3.12638804e-13 17.5231055 29.4943359 17.5231055 72.3478711 17.5231055 106.873594 38.863125 130.989551 76.8587695 143.48127L115.721895 156.31998C134.11248 162.392344 141.052324 170.199668 141.052324 183.558867 141.052324 202.469941 125.26418 212.359219 100.974727 212.359219 73.5623437 212.359219 56.2127344 200.214492 40.4245898 177.139512L-4.54747351e-13 209.062793C23.4219727 244.109004 52.5693164 259.203164 98.1987891 259.203164zM305.700117 261.632109C338.490879 261.632109 364.688789 248.966895 380.823926 226.238906L343.869258 198.826523C335.888437 210.97125 323.396719 217.911094 305.700117 217.911094 284.013105 217.911094 269.439434 205.419375 265.796016 184.079355L392.968652 184.079355C399.561504 117.109863 364.515293 72.0008789 304.485645 72.0008789 249.487383 72.0008789 212.706211 111.557988 212.706211 167.250234 212.706211 222.94248 249.487383 261.632109 305.700117 261.632109zM342.134297 147.818672L266.316504 147.818672C270.306914 127.346133 283.492617 115.895391 304.485645 115.895391 326.172656 115.895391 339.358359 127.693125 342.134297 147.818672zM504.179648 261.285117C536.276426 261.285117 562.474336 248.446406 579.650449 223.115977L542.001797 194.489121C532.459512 208.195312 521.355762 214.614668 504.179648 214.614668 478.675723 214.614668 461.326113 196.224082 461.326113 167.250234 461.326113 138.102891 478.849219 119.365312 504.179648 119.365312 521.182266 119.365312 532.286016 126.13166 541.828301 139.664355L579.650449 110.864004C562.474336 85.7070703 536.276426 72.6948633 505.220625 72.6948633 448.487402 72.6948633 409.450781 112.251973 409.450781 167.42373 409.450781 221.901504 448.313906 261.285117 504.179648 261.285117zM680.104687 261.285117C736.143926 261.285117 775.874531 220.860527 775.874531 167.076738 775.874531 113.119453 735.97043 72.5213672 680.104687 72.5213672 624.238945 72.5213672 584.334844 113.119453 584.334844 167.076738 584.334844 220.860527 624.065449 261.285117 680.104687 261.285117zM680.104687 214.09418C653.906777 214.09418 636.383672 194.836113 636.383672 167.076738 636.383672 139.143867 653.906777 119.538809 680.104687 119.538809 706.129102 119.538809 723.825703 139.143867 723.825703 167.076738 723.825703 194.836113 706.302598 214.09418 680.104687 214.09418zM848.742891 255.733242L848.742891 152.503066C848.742891 128.040117 860.714121 117.283359 879.798691 117.283359 899.056758 117.283359 911.027988 128.040117 911.027988 152.503066L911.027988 255.733242 962.729824 255.733242 962.729824 150.421113C962.729824 101.321719 937.746387 73.2153516 894.892852 73.2153516 869.909414 73.2153516 852.559805 83.6251172 842.844023 99.4132617L841.629551 99.4132617 838.680117 78.0732422 797.041055 78.0732422 797.041055 255.733242 848.742891 255.733242zM1065.09252 259.550156C1091.46393 259.550156 1109.50752 248.966895 1120.09078 231.443789L1121.47875 231.443789 1124.60168 255.733242 1169.01668 255.733242 1169.01668 3.46992187 1117.31484 3.46992187 1117.31484 95.5963477 1116.27387 95.5963477C1104.30264 82.9311328 1087.994 75.1238086 1064.74553 75.1238086 1020.15703 75.1238086 983.549355 107.567578 983.549355 166.903242 983.549355 226.238906 1020.50402 259.550156 1065.09252 259.550156zM1077.06375 214.96166C1053.98877 214.96166 1037.15965 197.091562 1037.15965 167.42373 1037.15965 137.755898 1053.46828 119.712305 1077.23725 119.712305 1100.83271 119.712305 1117.83533 136.541426 1117.83533 167.250234 1117.83533 197.438555 1100.31223 214.96166 1077.06375 214.96166zM1321.51975 255.733242L1337.65488 214.96166 1438.10912 214.96166 1454.41775 255.733242 1514.79439 255.733242 1408.61479 3.46992187 1368.53719 3.46992187 1262.53107 255.733242 1321.51975 255.733242zM1419.54504 168.811699L1355.87197 168.811699 1386.58078 90.738457 1388.31574 90.738457 1419.54504 168.811699zM1591.13268 255.733242L1664.34803 78.0732422 1610.39074 78.0732422 1571.70111 182.864883 1570.66014 182.864883 1532.83799 78.0732422 1475.75777 78.0732422 1548.97312 255.733242 1591.13268 255.733242zM95.3572543 626.680742C151.569989 626.680742 185.748719 599.094863 185.748719 554.853359 185.748719 521.715605 168.39911 498.987617 123.116629 484.413945L86.8559457 472.789707C56.1471371 463.073926 43.3084262 449.194238 43.3084262 428.548203 43.3084262 402.350293 64.1279574 387.256133 96.7452231 387.256133 123.98411 387.256133 142.2012 398.186387 155.386903 420.740879L173.777489 406.687695C156.948368 378.92832 132.485418 365.395625 96.7452231 365.395625 50.2482699 365.395625 19.8864535 390.205566 19.8864535 429.415684 19.8864535 460.297988 37.9300473 482.158496 76.7931723 494.303223L113.053856 505.753965C148.273563 516.684219 161.112274 531.604883 161.112274 555.547344 161.112274 586.256152 137.343309 604.820234 95.5307504 604.820234 59.7905551 604.820234 37.409559 590.767051 20.0599496 560.57873L1.1488754 574.80541C22.4888949 610.719102 50.7687582 626.680742 95.3572543 626.680742zM301.123621 627.027734C333.220399 627.027734 358.550829 613.668535 372.777508 589.726074L356.295379 578.448828C345.538621 597.186406 327.148036 607.943164 301.123621 607.943164 261.393016 607.943164 236.930067 583.653711 235.715594 542.708633L382.319793 542.708633C385.616219 483.025977 353.692938 445.030332 299.562157 445.030332 247.339832 445.030332 213.161102 481.985 213.161102 537.156758 213.161102 591.981523 246.819344 627.027734 301.123621 627.027734zM360.632782 523.971055L236.236082 523.971055C240.052996 486.669395 263.474969 464.114902 299.562157 464.114902 335.82284 464.114902 358.550829 486.495898 360.632782 523.971055zM496.480223 627.721719C528.577 627.721719 553.386942 614.015527 568.13411 587.991113L551.825477 575.672891C540.548231 596.665918 522.331141 607.596172 496.480223 607.596172 457.790594 607.596172 431.76618 579.489805 431.76618 536.63627 431.76618 493.782734 457.790594 465.502871 496.480223 465.502871 520.422684 465.502871 537.945789 475.045156 549.570028 493.435742L565.878661 480.944023C550.957996 457.522051 527.015536 445.203828 496.827215 445.203828 444.778387 445.203828 409.385184 482.505488 409.385184 536.809766 409.385184 590.593555 444.604891 627.721719 496.480223 627.721719zM678.998114 627.20123C731.740926 627.20123 769.910067 588.338105 769.910067 536.289277 769.910067 483.893457 731.740926 445.030332 678.998114 445.030332 626.428797 445.203828 588.259657 483.893457 588.259657 536.289277 588.259657 588.511602 626.428797 627.20123 678.998114 627.20123zM678.998114 607.075684C638.920516 607.075684 610.293661 577.407852 610.293661 536.289277 610.293661 494.823711 638.920516 464.808887 678.998114 464.808887 719.249207 464.808887 748.049559 494.823711 748.049559 536.289277 748.049559 577.407852 719.249207 607.075684 678.998114 607.075684zM826.122801 622.169844L826.122801 520.848125C826.122801 484.413945 845.380868 464.288398 877.304149 464.288398 909.053934 464.288398 928.485496 483.199473 928.485496 520.154141L928.485496 622.169844 950.692996 622.169844 950.692996 519.113164C950.692996 471.401738 925.536063 445.203828 882.682528 445.203828 851.800223 445.203828 833.583133 458.736523 823.52036 479.382559L822.999871 479.382559 821.611903 449.888223 803.741805 449.888223 803.741805 622.169844 826.122801 622.169844zM1066.24139 626.680742C1099.72614 626.680742 1119.3312 612.974551 1133.38438 586.950137L1133.90487 586.950137 1135.29284 622.169844 1154.37741 622.169844 1154.37741 369.906523 1132.16991 369.906523 1132.16991 481.291016 1131.64942 481.291016C1118.63722 459.950996 1098.16468 445.897813 1066.0679 445.897813 1018.70347 445.897813 984.871727 480.250039 984.871727 535.768789 984.871727 591.461035 1019.05046 626.680742 1066.24139 626.680742zM1070.05831 607.24918C1033.45063 607.24918 1007.94671 578.79582 1007.94671 535.942285 1007.94671 493.08875 1033.10364 464.982383 1070.05831 464.982383 1107.35997 464.982383 1132.34341 492.22127 1132.34341 536.115781 1132.34341 578.79582 1106.31899 607.24918 1070.05831 607.24918zM1288.66339 622.169844L1314.6878 558.496777 1441.33995 558.496777 1467.53786 622.169844 1493.73577 622.169844 1387.03567 367.998066 1369.68606 367.998066 1263.15946 622.169844 1288.66339 622.169844zM1433.18563 538.544727L1323.01561 538.544727 1377.49339 405.646719 1378.36087 405.646719 1433.18563 538.544727zM1559.49079 622.169844L1633.74712 449.888223 1610.49864 449.888223 1551.16298 590.593555 1550.46899 590.593555 1491.48032 449.888223 1466.84388 449.888223 1541.2737 622.169844 1559.49079 622.169844z"/>
      <path fill="#FFA600" d="M17.2061328 309.44693L17.2061328 303.16275 17.3457812 303.16275 22.1001758 309.44693 23.1602344 309.44693 23.1602344 300.217438 21.7002734 300.217438 21.7002734 306.507965 21.5733203 306.507965 16.8125781 300.217438 15.7461719 300.217438 15.7461719 309.44693 17.2061328 309.44693zM27.4071094 309.44693L28.0863086 307.612457 32.0599414 307.612457 32.7391406 309.44693 34.3958789 309.44693 30.6571094 300.185699 29.5589648 300.185699 25.8201953 309.44693 27.4071094 309.44693zM31.6092578 306.393707L28.5369922 306.393707 29.9779102 302.502594 30.1746875 302.502594 31.6092578 306.393707zM38.4713672 309.44693L38.4713672 303.695953 38.6173633 303.695953 41.2135547 309.44693 42.1339648 309.44693 44.7301562 303.695953 44.8761523 303.695953 44.8761523 309.44693 46.285332 309.44693 46.285332 300.217438 44.9586719 300.217438 41.7658008 307.250641 41.6325 307.250641 38.4205859 300.217438 37.0558398 300.217438 37.0558398 309.44693 38.4713672 309.44693zM56.1054492 309.44693L56.1054492 308.190094 51.4399219 308.190094 51.4399219 305.339996 54.2646289 305.339996 54.2646289 304.095856 51.4399219 304.095856 51.4399219 301.474273 55.9404102 301.474273 55.9404102 300.217438 49.9736133 300.217438 49.9736133 309.44693 56.1054492 309.44693zM66.76375 309.624664C68.9283008 309.624664 70.1343555 308.437652 70.1343555 306.857086 70.1343555 305.555816 69.5376758 304.756012 67.8555469 304.197418L66.560625 303.772125C65.5767383 303.448395 65.2720508 303.080231 65.2720508 302.45816 65.2720508 301.791656 65.7989062 301.264801 66.9351367 301.264801 67.7920703 301.264801 68.3252734 301.62027 68.7378711 302.210602L69.8677539 301.512359C69.2583789 300.623688 68.3950977 300.039703 66.947832 300.039703 65.0562305 300.039703 63.8946094 301.087066 63.8946094 302.502594 63.8946094 303.791168 64.5801562 304.584625 65.9068164 305.016266L67.2398242 305.454254C68.4014453 305.835113 68.7315234 306.292145 68.7315234 306.971344 68.7315234 307.790191 68.0586719 308.386871 66.76375 308.386871 65.6592578 308.386871 65.0244922 307.961578 64.5166797 307.123688L63.3677539 307.809234C64.0279102 308.977203 65.0117969 309.624664 66.76375 309.624664zM73.6258594 309.44693L74.3050586 307.612457 78.2786914 307.612457 78.9578906 309.44693 80.6146289 309.44693 76.8758594 300.185699 75.7777148 300.185699 72.0389453 309.44693 73.6258594 309.44693zM77.8280078 306.393707L74.7557422 306.393707 76.1966602 302.502594 76.3934375 302.502594 77.8280078 306.393707zM84.7345508 309.44693L84.7345508 303.16275 84.8741992 303.16275 89.6285937 309.44693 90.6886523 309.44693 90.6886523 300.217438 89.2286914 300.217438 89.2286914 306.507965 89.1017383 306.507965 84.3409961 300.217438 83.2745898 300.217438 83.2745898 309.44693 84.7345508 309.44693zM96.7763477 309.624664C98.9408984 309.624664 100.146953 308.437652 100.146953 306.857086 100.146953 305.555816 99.5502734 304.756012 97.8681445 304.197418L96.5732227 303.772125C95.5893359 303.448395 95.2846484 303.080231 95.2846484 302.45816 95.2846484 301.791656 95.8115039 301.264801 96.9477344 301.264801 97.804668 301.264801 98.3378711 301.62027 98.7504687 302.210602L99.8803516 301.512359C99.2709766 300.623688 98.4076953 300.039703 96.9604297 300.039703 95.0688281 300.039703 93.907207 301.087066 93.907207 302.502594 93.907207 303.791168 94.5927539 304.584625 95.9194141 305.016266L97.2524219 305.454254C98.414043 305.835113 98.7441211 306.292145 98.7441211 306.971344 98.7441211 307.790191 98.0712695 308.386871 96.7763477 308.386871 95.6718555 308.386871 95.0370898 307.961578 94.5292773 307.123688L93.3803516 307.809234C94.0405078 308.977203 95.0243945 309.624664 96.7763477 309.624664zM111.211504 309.44693C114.048906 309.44693 115.819902 307.733063 115.819902 304.844879 115.819902 301.956695 114.048906 300.217438 111.198809 300.217438L108.304277 300.217438 108.304277 309.44693 111.211504 309.44693zM111.217852 308.082184L109.770586 308.082184 109.770586 301.582184 111.217852 301.582184C113.204668 301.582184 114.334551 302.712066 114.334551 304.838531 114.334551 306.964996 113.204668 308.082184 111.217852 308.082184zM120.46668 309.44693L120.46668 300.217438 119.000371 300.217438 119.000371 309.44693 120.46668 309.44693zM126.624199 309.624664C128.78875 309.624664 129.994805 308.437652 129.994805 306.857086 129.994805 305.555816 129.398125 304.756012 127.715996 304.197418L126.421074 303.772125C125.437187 303.448395 125.1325 303.080231 125.1325 302.45816 125.1325 301.791656 125.659355 301.264801 126.795586 301.264801 127.65252 301.264801 128.185723 301.62027 128.59832 302.210602L129.728203 301.512359C129.118828 300.623688 128.255547 300.039703 126.808281 300.039703 124.91668 300.039703 123.755059 301.087066 123.755059 302.502594 123.755059 303.791168 124.440605 304.584625 125.767266 305.016266L127.100273 305.454254C128.261895 305.835113 128.591973 306.292145 128.591973 306.971344 128.591973 307.790191 127.919121 308.386871 126.624199 308.386871 125.519707 308.386871 124.884941 307.961578 124.377129 307.123688L123.228203 307.809234C123.888359 308.977203 124.872246 309.624664 126.624199 309.624664zM134.520977 309.44693L134.520977 306.127106 136.291973 306.127106C138.310527 306.127106 139.491191 304.990875 139.491191 303.16275 139.491191 301.391754 138.310527 300.217438 136.279277 300.217438L133.04832 300.217438 133.04832 309.44693 134.520977 309.44693zM136.209453 304.857574L134.520977 304.857574 134.520977 301.480621 136.209453 301.480621C137.402812 301.480621 138.018535 302.197906 138.018535 303.175445 138.018535 304.19107 137.396465 304.857574 136.209453 304.857574zM148.270293 309.44693L148.270293 308.132965 144.023711 308.132965 144.023711 300.217438 142.557402 300.217438 142.557402 309.44693 148.270293 309.44693zM151.869707 309.44693L152.548906 307.612457 156.522539 307.612457 157.201738 309.44693 158.858477 309.44693 155.119707 300.185699 154.021562 300.185699 150.282793 309.44693 151.869707 309.44693zM156.071855 306.393707L152.99959 306.393707 154.440508 302.502594 154.637285 302.502594 156.071855 306.393707zM164.063848 309.44693L164.063848 305.631988 167.618535 300.217438 165.949102 300.217438 163.448125 304.394195 163.238652 304.394195 160.826543 300.217438 159.07459 300.217438 162.584844 305.631988 162.584844 309.44693 164.063848 309.44693zM179.044902 309.44693C180.97459 309.44693 182.148906 308.52652 182.148906 306.831695 182.148906 305.720856 181.539531 304.965484 180.327129 304.705231L180.327129 304.540191C181.266582 304.27359 181.875957 303.645172 181.875957 302.597809 181.875957 301.150543 180.803203 300.217438 178.740215 300.217438L175.414043 300.217438 175.414043 309.44693 179.044902 309.44693zM178.72752 304.159332L176.886699 304.159332 176.886699 301.474273 178.721172 301.474273C179.895488 301.474273 180.409648 301.956695 180.409648 302.769195 180.409648 303.683258 179.920879 304.159332 178.72752 304.159332zM178.949687 308.190094L176.886699 308.190094 176.886699 305.295563 178.94334 305.295563C180.149395 305.295563 180.682598 305.739898 180.682598 306.736481 180.682598 307.764801 180.009746 308.190094 178.949687 308.190094zM189.214141 309.624664C191.905547 309.624664 193.701934 307.745758 193.701934 304.844879 193.701934 301.944 191.905547 300.039703 189.214141 300.039703 186.522734 300.039703 184.764434 301.944 184.764434 304.844879 184.764434 307.745758 186.529082 309.624664 189.214141 309.624664zM189.214141 308.272613C187.328887 308.272613 186.249785 306.958648 186.249785 304.844879 186.249785 302.737457 187.322539 301.391754 189.214141 301.391754 191.105742 301.391754 192.216582 302.737457 192.216582 304.844879 192.216582 306.958648 191.099395 308.272613 189.214141 308.272613zM202.519121 309.44693L202.519121 308.132965 198.272539 308.132965 198.272539 300.217438 196.80623 300.217438 196.80623 309.44693 202.519121 309.44693zM208.505254 309.44693C211.342656 309.44693 213.113652 307.733063 213.113652 304.844879 213.113652 301.956695 211.342656 300.217438 208.492559 300.217438L205.598027 300.217438 205.598027 309.44693 208.505254 309.44693zM208.511602 308.082184L207.064336 308.082184 207.064336 301.582184 208.511602 301.582184C210.498418 301.582184 211.628301 302.712066 211.628301 304.838531 211.628301 306.964996 210.498418 308.082184 208.511602 308.082184zM17.2061328 677.56193L17.2061328 671.27775 17.3457812 671.27775 22.1001758 677.56193 23.1602344 677.56193 23.1602344 668.332438 21.7002734 668.332438 21.7002734 674.622965 21.5733203 674.622965 16.8125781 668.332438 15.7461719 668.332438 15.7461719 677.56193 17.2061328 677.56193zM27.4071094 677.56193L28.0863086 675.727457 32.0599414 675.727457 32.7391406 677.56193 34.3958789 677.56193 30.6571094 668.300699 29.5589648 668.300699 25.8201953 677.56193 27.4071094 677.56193zM31.6092578 674.508707L28.5369922 674.508707 29.9779102 670.617594 30.1746875 670.617594 31.6092578 674.508707zM38.4713672 677.56193L38.4713672 671.810953 38.6173633 671.810953 41.2135547 677.56193 42.1339648 677.56193 44.7301562 671.810953 44.8761523 671.810953 44.8761523 677.56193 46.285332 677.56193 46.285332 668.332438 44.9586719 668.332438 41.7658008 675.365641 41.6325 675.365641 38.4205859 668.332438 37.0558398 668.332438 37.0558398 677.56193 38.4713672 677.56193zM56.1054492 677.56193L56.1054492 676.305094 51.4399219 676.305094 51.4399219 673.454996 54.2646289 673.454996 54.2646289 672.210856 51.4399219 672.210856 51.4399219 669.589273 55.9404102 669.589273 55.9404102 668.332438 49.9736133 668.332438 49.9736133 677.56193 56.1054492 677.56193zM66.76375 677.739664C68.9283008 677.739664 70.1343555 676.552652 70.1343555 674.972086 70.1343555 673.670816 69.5376758 672.871012 67.8555469 672.312418L66.560625 671.887125C65.5767383 671.563395 65.2720508 671.195231 65.2720508 670.57316 65.2720508 669.906656 65.7989062 669.379801 66.9351367 669.379801 67.7920703 669.379801 68.3252734 669.73527 68.7378711 670.325602L69.8677539 669.627359C69.2583789 668.738688 68.3950977 668.154703 66.947832 668.154703 65.0562305 668.154703 63.8946094 669.202066 63.8946094 670.617594 63.8946094 671.906168 64.5801562 672.699625 65.9068164 673.131266L67.2398242 673.569254C68.4014453 673.950113 68.7315234 674.407145 68.7315234 675.086344 68.7315234 675.905191 68.0586719 676.501871 66.76375 676.501871 65.6592578 676.501871 65.0244922 676.076578 64.5166797 675.238688L63.3677539 675.924234C64.0279102 677.092203 65.0117969 677.739664 66.76375 677.739664zM73.6258594 677.56193L74.3050586 675.727457 78.2786914 675.727457 78.9578906 677.56193 80.6146289 677.56193 76.8758594 668.300699 75.7777148 668.300699 72.0389453 677.56193 73.6258594 677.56193zM77.8280078 674.508707L74.7557422 674.508707 76.1966602 670.617594 76.3934375 670.617594 77.8280078 674.508707zM84.7345508 677.56193L84.7345508 671.27775 84.8741992 671.27775 89.6285937 677.56193 90.6886523 677.56193 90.6886523 668.332438 89.2286914 668.332438 89.2286914 674.622965 89.1017383 674.622965 84.3409961 668.332438 83.2745898 668.332438 83.2745898 677.56193 84.7345508 677.56193zM96.7763477 677.739664C98.9408984 677.739664 100.146953 676.552652 100.146953 674.972086 100.146953 673.670816 99.5502734 672.871012 97.8681445 672.312418L96.5732227 671.887125C95.5893359 671.563395 95.2846484 671.195231 95.2846484 670.57316 95.2846484 669.906656 95.8115039 669.379801 96.9477344 669.379801 97.804668 669.379801 98.3378711 669.73527 98.7504687 670.325602L99.8803516 669.627359C99.2709766 668.738688 98.4076953 668.154703 96.9604297 668.154703 95.0688281 668.154703 93.907207 669.202066 93.907207 670.617594 93.907207 671.906168 94.5927539 672.699625 95.9194141 673.131266L97.2524219 673.569254C98.414043 673.950113 98.7441211 674.407145 98.7441211 675.086344 98.7441211 675.905191 98.0712695 676.501871 96.7763477 676.501871 95.6718555 676.501871 95.0370898 676.076578 94.5292773 675.238688L93.3803516 675.924234C94.0405078 677.092203 95.0243945 677.739664 96.7763477 677.739664zM111.211504 677.56193C114.048906 677.56193 115.819902 675.848063 115.819902 672.959879 115.819902 670.071695 114.048906 668.332438 111.198809 668.332438L108.304277 668.332438 108.304277 677.56193 111.211504 677.56193zM111.217852 676.197184L109.770586 676.197184 109.770586 669.697184 111.217852 669.697184C113.204668 669.697184 114.334551 670.827066 114.334551 672.953531 114.334551 675.079996 113.204668 676.197184 111.217852 676.197184zM120.46668 677.56193L120.46668 668.332438 119.000371 668.332438 119.000371 677.56193 120.46668 677.56193zM126.624199 677.739664C128.78875 677.739664 129.994805 676.552652 129.994805 674.972086 129.994805 673.670816 129.398125 672.871012 127.715996 672.312418L126.421074 671.887125C125.437187 671.563395 125.1325 671.195231 125.1325 670.57316 125.1325 669.906656 125.659355 669.379801 126.795586 669.379801 127.65252 669.379801 128.185723 669.73527 128.59832 670.325602L129.728203 669.627359C129.118828 668.738688 128.255547 668.154703 126.808281 668.154703 124.91668 668.154703 123.755059 669.202066 123.755059 670.617594 123.755059 671.906168 124.440605 672.699625 125.767266 673.131266L127.100273 673.569254C128.261895 673.950113 128.591973 674.407145 128.591973 675.086344 128.591973 675.905191 127.919121 676.501871 126.624199 676.501871 125.519707 676.501871 124.884941 676.076578 124.377129 675.238688L123.228203 675.924234C123.888359 677.092203 124.872246 677.739664 126.624199 677.739664zM134.520977 677.56193L134.520977 674.242106 136.291973 674.242106C138.310527 674.242106 139.491191 673.105875 139.491191 671.27775 139.491191 669.506754 138.310527 668.332438 136.279277 668.332438L133.04832 668.332438 133.04832 677.56193 134.520977 677.56193zM136.209453 672.972574L134.520977 672.972574 134.520977 669.595621 136.209453 669.595621C137.402812 669.595621 138.018535 670.312906 138.018535 671.290445 138.018535 672.30607 137.396465 672.972574 136.209453 672.972574zM148.270293 677.56193L148.270293 676.247965 144.023711 676.247965 144.023711 668.332438 142.557402 668.332438 142.557402 677.56193 148.270293 677.56193zM151.869707 677.56193L152.548906 675.727457 156.522539 675.727457 157.201738 677.56193 158.858477 677.56193 155.119707 668.300699 154.021562 668.300699 150.282793 677.56193 151.869707 677.56193zM156.071855 674.508707L152.99959 674.508707 154.440508 670.617594 154.637285 670.617594 156.071855 674.508707zM164.063848 677.56193L164.063848 673.746988 167.618535 668.332438 165.949102 668.332438 163.448125 672.509195 163.238652 672.509195 160.826543 668.332438 159.07459 668.332438 162.584844 673.746988 162.584844 677.56193 164.063848 677.56193zM181.126934 677.56193L181.126934 676.247965 176.880352 676.247965 176.880352 668.332438 175.414043 668.332438 175.414043 677.56193 181.126934 677.56193zM185.74832 677.56193L185.74832 668.332438 184.282012 668.332438 184.282012 677.56193 185.74832 677.56193zM193.12459 677.752359C194.540117 677.752359 195.549395 677.162027 196.019121 675.943277L196.165117 675.943277 196.26668 677.56193 197.421953 677.56193 197.421953 672.655191 193.429277 672.655191 193.429277 673.873941 195.974687 673.873941 195.974687 674.184977C195.974687 675.587809 195.066973 676.419352 193.327715 676.419352 191.505937 676.419352 190.407793 675.054606 190.407793 672.966227 190.407793 670.884195 191.6075 669.525797 193.42293 669.525797 194.508379 669.525797 195.257402 669.963785 195.841387 670.738199L197.015703 669.836832C196.209551 668.770426 195.079668 668.129313 193.416582 668.129313 190.833086 668.129313 188.922441 670.001871 188.922441 672.940836 188.922441 675.879801 190.693437 677.752359 193.12459 677.752359zM202.462285 677.56193L202.462285 673.556559 206.823125 673.556559 206.823125 677.56193 208.289434 677.56193 208.289434 668.332438 206.823125 668.332438 206.823125 672.261637 202.462285 672.261637 202.462285 668.332438 200.995977 668.332438 200.995977 677.56193 202.462285 677.56193zM215.653008 677.56193L215.653008 669.614664 218.503105 669.614664 218.503105 668.332438 211.304863 668.332438 211.304863 669.614664 214.174004 669.614664 214.174004 677.56193 215.653008 677.56193z"/>
    </g>
  </g>
</svg>
