<svg xmlns="http://www.w3.org/2000/svg" xmlns:xlink="http://www.w3.org/1999/xlink" width="1891" height="1089" viewBox="0 0 1891 1089">
  <defs>
    <rect id="name_sans-optical_quirks-a" width="95" height="102"/>
    <rect id="name_sans-optical_quirks-c" width="24.5" height="283.5"/>
    <rect id="name_sans-optical_quirks-e" width="19.5" height="284"/>
    <rect id="name_sans-optical_quirks-g" width="77" height="166.5"/>
    <rect id="name_sans-optical_quirks-i" width="83" height="283.5"/>
    <rect id="name_sans-optical_quirks-k" width="78" height="111.658"/>
    <rect id="name_sans-optical_quirks-m" width="90" height="166"/>
    <rect id="name_sans-optical_quirks-o" width="24.5" height="283.5"/>
    <rect id="name_sans-optical_quirks-q" width="19.5" height="284"/>
    <rect id="name_sans-optical_quirks-s" width="83" height="283.5"/>
  </defs>
  <g fill="none" fill-rule="evenodd">
    <rect width="1891" height="1089" fill="#222"/>
    <path fill="#FFF" fill-rule="nonzero" d="M336.109523,338.648223 C398.129309,338.648223 438.442169,306.179041 438.442169,255.833568 C438.442169,220.080986 418.741767,195.455483 374.598272,180.497771 L333.190945,166.452113 C313.308132,159.702901 306.923742,152.041634 306.923742,139.455266 C306.923742,124.13273 318.415644,115.376996 338.298457,115.376996 C357.634037,115.376996 372.044517,123.767908 384.266063,140.732144 L424.578923,108.445373 C403.966465,80.1716475 376.422384,66.1259902 338.298457,66.1259902 C286.128873,66.1259902 251.288347,97.1358828 251.288347,142.191433 C251.288347,178.491248 273.724916,203.846396 313.672954,216.979997 L354.533048,230.478421 C373.868628,236.862811 381.165073,245.071312 381.165073,259.116969 C381.165073,278.999782 364.56566,289.397217 339.028102,289.397217 C310.207143,289.397217 291.966029,276.628438 275.366616,252.367757 L232.864822,285.931405 C257.490325,322.778454 288.135396,338.648223 336.109523,338.648223 Z M542.781337,340.107512 C607.902111,340.107512 649.49185,299.429829 649.49185,241.423089 C649.49185,189.618327 617.934724,151.129578 563.393795,151.129578 C544.058215,151.129578 527.458802,155.872268 513.595556,165.90488 L512.136267,164.992824 L512.136267,120.84933 L630.521092,120.84933 L638.182359,69.7742129 L458.324982,69.7742129 L458.324982,200.745406 L499.73231,219.351342 C512.501089,204.211218 528.006035,195.455483 546.42956,195.455483 C574.885696,195.455483 593.12681,214.061419 593.12681,241.970322 C593.12681,269.879226 574.703285,289.762039 544.058215,289.762039 C520.527179,289.762039 507.211166,279.729427 494.442387,260.576258 L450.846126,295.051962 C471.640995,325.697032 501.37401,340.107512 542.781337,340.107512 Z M787.577077,335 C841.753184,335 876.228888,306.179041 876.228888,256.745624 C876.228888,230.843243 865.831453,209.683552 843.759706,197.279595 L843.759706,195.455483 C859.447063,184.875638 870.391731,166.816936 870.391731,143.285899 C870.391731,97.6831162 838.104961,69.7742129 779.733398,69.7742129 L671.928419,69.7742129 L671.928419,335 L787.577077,335 Z M775.720354,176.667137 L729.570337,176.667137 L729.570337,118.295574 L774.990709,118.295574 C802.352379,118.295574 812.749813,128.693009 812.749813,146.934122 C812.749813,165.722469 801.622734,176.667137 775.720354,176.667137 Z M779.733398,286.478639 L729.570337,286.478639 L729.570337,224.094031 L783.19921,224.094031 C806.000602,224.094031 818.58697,235.038699 818.58697,255.103924 C818.58697,277.540493 804.17649,286.478639 779.733398,286.478639 Z M988.046912,338.648223 C1057.91038,338.648223 1098.77047,287.390694 1098.77047,195.090661 C1098.77047,109.53984 1060.82895,66.1259902 994.978535,66.1259902 C931.864283,66.1259902 894.28759,108.262962 894.28759,163.168713 C894.28759,210.048374 926.209538,250.543646 984.398689,250.543646 C1008.29455,250.543646 1027.99495,242.152733 1041.67579,223.91162 L1043.13507,224.276442 C1038.39238,266.960647 1017.77993,289.397217 989.141379,289.397217 C967.252043,289.397217 951.929508,281.188716 938.248673,261.853136 L897.935813,294.322317 C919.460326,324.967388 946.639585,338.648223 988.046912,338.648223 Z M994.978535,205.305685 C967.981688,205.305685 949.01093,187.976627 949.01093,160.797368 C949.01093,133.618109 967.981688,115.376996 994.613713,115.376996 C1020.88092,115.376996 1039.30444,132.706054 1039.30444,160.797368 C1039.30444,188.341449 1021.61056,205.305685 994.978535,205.305685 Z M1225.72862,338.648223 C1288.84287,338.648223 1326.41956,296.511251 1326.41956,241.6055 C1326.41956,194.725839 1294.49762,154.230567 1236.30846,154.230567 C1212.59502,154.230567 1192.7122,162.621479 1179.03137,180.862593 L1177.57208,180.497771 C1182.31477,137.813565 1202.5624,115.376996 1230.83613,115.376996 C1250.35412,115.376996 1264.21737,122.855853 1276.43891,140.18491 L1315.65731,108.810195 C1296.50414,81.6309365 1268.96006,66.1259902 1231.9306,66.1259902 C1162.61437,66.1259902 1121.93668,117.383519 1121.93668,209.683552 C1121.93668,295.234373 1159.8782,338.648223 1225.72862,338.648223 Z M1226.09344,289.397217 C1199.82624,289.397217 1181.40271,272.068159 1181.40271,243.976845 C1181.40271,216.432764 1199.09659,199.468528 1225.72862,199.468528 C1252.72547,199.468528 1271.69622,216.797586 1271.69622,243.976845 C1271.69622,271.156104 1252.72547,289.397217 1226.09344,289.397217 Z M1405.03876,335 L1405.03876,226.465376 C1405.03876,200.745406 1417.62513,189.435916 1437.69035,189.435916 C1457.93799,189.435916 1470.52436,200.745406 1470.52436,226.465376 L1470.52436,335 L1524.88288,335 L1524.88288,224.276442 C1524.88288,172.654092 1498.61567,143.103488 1453.56012,143.103488 C1427.29292,143.103488 1409.05181,154.048156 1398.83678,170.647569 L1397.55991,170.647569 L1394.45892,148.211 L1350.68024,148.211 L1350.68024,335 L1405.03876,335 Z M1661.14399,339.013045 C1708.20606,339.013045 1746.69481,303.990107 1746.69481,241.6055 C1746.69481,179.220893 1708.57089,145.110011 1661.3264,145.110011 C1637.24813,145.110011 1620.10149,153.318512 1607.51512,166.634524 L1606.05583,166.634524 L1606.05583,69.7742129 L1551.87972,69.7742129 L1551.87972,335 L1598.39456,335 L1602.04279,309.462441 L1603.13725,309.462441 C1614.62915,327.885966 1633.4175,339.013045 1661.14399,339.013045 Z M1648.55762,292.133384 C1624.29694,292.133384 1605.5086,273.709859 1605.5086,241.970322 C1605.5086,209.683552 1623.38489,191.989672 1648.37521,191.989672 C1673.36554,191.989672 1690.6946,210.96043 1690.6946,242.152733 C1690.6946,273.345037 1673.00072,292.133384 1648.55762,292.133384 Z"/>
    <g transform="translate(1392 187)">
      <mask id="name_sans-optical_quirks-b" fill="#fff">
        <use xlink:href="#name_sans-optical_quirks-a"/>
      </mask>
      <path fill="#FFA600" fill-opacity=".15" stroke="#FFA600" stroke-width="2" d="M45.6848626,8.43590093 L46.2284488,8.43887091 C54.9761846,8.53545872 61.6096979,10.9968456 66.0099577,16.1617843 C70.3716096,21.2814057 72.5243584,28.9942866 72.5243584,39.465376 L72.5243584,39.465376 L72.5243584,142 L19.0380074,142 L19.0387617,39.465376 C19.0387617,28.9058764 21.2287865,21.1461788 25.650101,16.0248711 C30.1161028,10.851801 36.8422744,8.43591602 45.6848626,8.43590093 L45.6848626,8.43590093 Z" mask="url(#name_sans-optical_quirks-b)"/>
    </g>
    <g transform="translate(229.5 60.594)">
      <mask id="name_sans-optical_quirks-d" fill="#fff">
        <use xlink:href="#name_sans-optical_quirks-c"/>
      </mask>
      <rect width="17" height="307.77" x="3.75" y="-16.79" fill="#FFA600" fill-opacity=".15" stroke="#FFA600" stroke-width="2" mask="url(#name_sans-optical_quirks-d)"/>
    </g>
    <g transform="translate(422 60.337)">
      <mask id="name_sans-optical_quirks-f" fill="#fff">
        <use xlink:href="#name_sans-optical_quirks-e"/>
      </mask>
      <rect width="13.531" height="312" x="2.985" y="-6" fill="#FFA600" fill-opacity=".15" stroke="#FFA600" stroke-width="2" mask="url(#name_sans-optical_quirks-f)"/>
    </g>
    <g transform="translate(446.5 60.337)">
      <mask id="name_sans-optical_quirks-h" fill="#fff">
        <use xlink:href="#name_sans-optical_quirks-g"/>
      </mask>
      <rect width="53.429" height="178.925" x="11.786" y="-8.076" fill="#FFA600" fill-opacity=".15" stroke="#FFA600" stroke-width="2" mask="url(#name_sans-optical_quirks-h)"/>
    </g>
    <g transform="translate(816.5 60.337)">
      <mask id="name_sans-optical_quirks-j" fill="#fff">
        <use xlink:href="#name_sans-optical_quirks-i"/>
      </mask>
      <rect width="5" height="304.657" x="54" y="-13.752" fill="#FFA600" fill-opacity=".15" stroke="#FFA600" stroke-width="2" mask="url(#name_sans-optical_quirks-j)"/>
    </g>
    <path fill="#FFA600" fill-opacity=".15" stroke="#FFA600" stroke-width="2" d="M994.456028 121.639683C1006.20077 121.639683 1015.91681 125.442035 1022.67098 132.320371 1029.37938 139.152084 1033.14676 148.996615 1033.14676 161.060055 1033.14676 172.968766 1029.4992 182.599689 1022.88143 189.248151 1016.23741 195.922987 1006.62249 199.568371 994.82085 199.568371 982.754445 199.568371 972.726381 195.79292 965.733723 189.049344 958.782502 182.34573 954.853245 172.724133 954.853245 161.060055 954.853245 149.293673 958.838177 139.439835 965.779702 132.529496 972.745747 125.594746 982.672726 121.639683 994.456028 121.639683zM1226.04123 205.5C1238.10763 205.5 1248.1357 209.275451 1255.12836 216.019027 1262.07958 222.722642 1266.00883 232.344239 1266.00883 244.008316 1266.00883 255.774698 1262.0239 265.628536 1255.08238 272.538875 1248.11633 279.473625 1238.18935 283.428688 1226.40605 283.428688 1214.66131 283.428688 1204.94527 279.626336 1198.1911 272.748001 1191.4827 265.916287 1187.71532 256.071756 1187.71532 244.008316 1187.71532 232.099605 1191.36288 222.468683 1197.98065 215.82022 1204.62467 209.145384 1214.23959 205.5 1226.04123 205.5z"/>
    <path fill="#FFA600" fill-rule="nonzero" d="M104.915144 84L104.915144 76.265625 105.087019 76.265625 110.938582 84 112.243269 84 112.243269 72.640625 110.446394 72.640625 110.446394 80.3828125 110.290144 80.3828125 104.430769 72.640625 103.118269 72.640625 103.118269 84 104.915144 84zM117.500962 84L118.336899 81.7421875 123.227524 81.7421875 124.063462 84 126.102524 84 121.500962 72.6015625 120.149399 72.6015625 115.547837 84 117.500962 84zM122.672837 80.2421875L118.891587 80.2421875 120.665024 75.453125 120.907212 75.453125 122.672837 80.2421875zM131.149279 84L131.149279 76.921875 131.328966 76.921875 134.524279 84 135.657091 84 138.852404 76.921875 139.032091 76.921875 139.032091 84 140.766466 84 140.766466 72.640625 139.133654 72.640625 135.203966 81.296875 135.039904 81.296875 131.086779 72.640625 129.407091 72.640625 129.407091 84 131.149279 84zM152.883534 84L152.883534 82.453125 147.141346 82.453125 147.141346 78.9453125 150.617909 78.9453125 150.617909 77.4140625 147.141346 77.4140625 147.141346 74.1875 152.680409 74.1875 152.680409 72.640625 145.336659 72.640625 145.336659 84 152.883534 84zM166.062981 84.21875C168.727043 84.21875 170.211418 82.7578125 170.211418 80.8125 170.211418 79.2109375 169.477043 78.2265625 167.406731 77.5390625L165.812981 77.015625C164.602043 76.6171875 164.227043 76.1640625 164.227043 75.3984375 164.227043 74.578125 164.875481 73.9296875 166.273918 73.9296875 167.328606 73.9296875 167.984856 74.3671875 168.492668 75.09375L169.883293 74.234375C169.133293 73.140625 168.070793 72.421875 166.289543 72.421875 163.961418 72.421875 162.531731 73.7109375 162.531731 75.453125 162.531731 77.0390625 163.375481 78.015625 165.008293 78.546875L166.648918 79.0859375C168.078606 79.5546875 168.484856 80.1171875 168.484856 80.953125 168.484856 81.9609375 167.656731 82.6953125 166.062981 82.6953125 164.703606 82.6953125 163.922356 82.171875 163.297356 81.140625L161.883293 81.984375C162.695793 83.421875 163.906731 84.21875 166.062981 84.21875zM174.539423 84L175.375361 81.7421875 180.265986 81.7421875 181.101923 84 183.140986 84 178.539423 72.6015625 177.187861 72.6015625 172.586298 84 174.539423 84zM179.711298 80.2421875L175.930048 80.2421875 177.703486 75.453125 177.945673 75.453125 179.711298 80.2421875zM188.242428 84L188.242428 76.265625 188.414303 76.265625 194.265865 84 195.570553 84 195.570553 72.640625 193.773678 72.640625 193.773678 80.3828125 193.617428 80.3828125 187.758053 72.640625 186.445553 72.640625 186.445553 84 188.242428 84zM203.09387 84.21875C205.757933 84.21875 207.242308 82.7578125 207.242308 80.8125 207.242308 79.2109375 206.507933 78.2265625 204.43762 77.5390625L202.84387 77.015625C201.632933 76.6171875 201.257933 76.1640625 201.257933 75.3984375 201.257933 74.578125 201.90637 73.9296875 203.304808 73.9296875 204.359495 73.9296875 205.015745 74.3671875 205.523558 75.09375L206.914183 74.234375C206.164183 73.140625 205.101683 72.421875 203.320433 72.421875 200.992308 72.421875 199.56262 73.7109375 199.56262 75.453125 199.56262 77.0390625 200.40637 78.015625 202.039183 78.546875L203.679808 79.0859375C205.109495 79.5546875 205.515745 80.1171875 205.515745 80.953125 205.515745 81.9609375 204.68762 82.6953125 203.09387 82.6953125 201.734495 82.6953125 200.953245 82.171875 200.328245 81.140625L198.914183 81.984375C199.726683 83.421875 200.93762 84.21875 203.09387 84.21875zM81.4233173 103C84.9155048 103 87.0951923 100.890625 87.0951923 97.3359375 87.0951923 93.78125 84.9155048 91.640625 81.4076923 91.640625L77.8451923 91.640625 77.8451923 103 81.4233173 103zM81.4311298 101.320312L79.6498798 101.320312 79.6498798 93.3203125 81.4311298 93.3203125C83.8764423 93.3203125 85.2670673 94.7109375 85.2670673 97.328125 85.2670673 99.9453125 83.8764423 101.320312 81.4311298 101.320312zM92.8450721 103L92.8450721 91.640625 91.0403846 91.640625 91.0403846 103 92.8450721 103zM100.454327 103.21875C103.118389 103.21875 104.602764 101.757812 104.602764 99.8125 104.602764 98.2109375 103.868389 97.2265625 101.798077 96.5390625L100.204327 96.015625C98.9933894 95.6171875 98.6183894 95.1640625 98.6183894 94.3984375 98.6183894 93.578125 99.2668269 92.9296875 100.665264 92.9296875 101.719952 92.9296875 102.376202 93.3671875 102.884014 94.09375L104.274639 93.234375C103.524639 92.140625 102.462139 91.421875 100.680889 91.421875 98.3527644 91.421875 96.9230769 92.7109375 96.9230769 94.453125 96.9230769 96.0390625 97.7668269 97.015625 99.3996394 97.546875L101.040264 98.0859375C102.469952 98.5546875 102.876202 99.1171875 102.876202 99.953125 102.876202 100.960938 102.048077 101.695312 100.454327 101.695312 99.0949519 101.695312 98.3137019 101.171875 97.6887019 100.140625L96.2746394 100.984375C97.0871394 102.421875 98.2980769 103.21875 100.454327 103.21875zM110.204207 103L110.204207 98.9140625 112.383894 98.9140625C114.868269 98.9140625 116.321394 97.515625 116.321394 95.265625 116.321394 93.0859375 114.868269 91.640625 112.368269 91.640625L108.391707 91.640625 108.391707 103 110.204207 103zM112.282332 97.3515625L110.204207 97.3515625 110.204207 93.1953125 112.282332 93.1953125C113.751082 93.1953125 114.508894 94.078125 114.508894 95.28125 114.508894 96.53125 113.743269 97.3515625 112.282332 97.3515625zM127.157212 103L127.157212 101.382812 121.930649 101.382812 121.930649 91.640625 120.125962 91.640625 120.125962 103 127.157212 103zM131.618029 103L132.453966 100.742188 137.344591 100.742188 138.180529 103 140.219591 103 135.618029 91.6015625 134.266466 91.6015625 129.664904 103 131.618029 103zM136.789904 99.2421875L133.008654 99.2421875 134.782091 94.453125 135.024279 94.453125 136.789904 99.2421875zM146.656971 103L146.656971 98.3046875 151.031971 91.640625 148.977284 91.640625 145.899159 96.78125 145.641346 96.78125 142.672596 91.640625 140.516346 91.640625 144.836659 98.3046875 144.836659 103 146.656971 103zM165.156731 103C167.531731 103 168.977043 101.867188 168.977043 99.78125 168.977043 98.4140625 168.227043 97.484375 166.734856 97.1640625L166.734856 96.9609375C167.891106 96.6328125 168.641106 95.859375 168.641106 94.5703125 168.641106 92.7890625 167.320793 91.640625 164.781731 91.640625L160.687981 91.640625 160.687981 103 165.156731 103zM164.766106 96.4921875L162.500481 96.4921875 162.500481 93.1875 164.758293 93.1875C166.203606 93.1875 166.836418 93.78125 166.836418 94.78125 166.836418 95.90625 166.234856 96.4921875 164.766106 96.4921875zM165.039543 101.453125L162.500481 101.453125 162.500481 97.890625 165.031731 97.890625C166.516106 97.890625 167.172356 98.4375 167.172356 99.6640625 167.172356 100.929688 166.344231 101.453125 165.039543 101.453125zM177.703486 103.21875C181.015986 103.21875 183.226923 100.90625 183.226923 97.3359375 183.226923 93.765625 181.015986 91.421875 177.703486 91.421875 174.390986 91.421875 172.226923 93.765625 172.226923 97.3359375 172.226923 100.90625 174.398798 103.21875 177.703486 103.21875zM177.703486 101.554688C175.383173 101.554688 174.055048 99.9375 174.055048 97.3359375 174.055048 94.7421875 175.375361 93.0859375 177.703486 93.0859375 180.031611 93.0859375 181.398798 94.7421875 181.398798 97.3359375 181.398798 99.9375 180.023798 101.554688 177.703486 101.554688zM194.109615 103L194.109615 101.382812 188.883053 101.382812 188.883053 91.640625 187.078365 91.640625 187.078365 103 194.109615 103zM201.507933 103C205.00012 103 207.179808 100.890625 207.179808 97.3359375 207.179808 93.78125 205.00012 91.640625 201.492308 91.640625L197.929808 91.640625 197.929808 103 201.507933 103zM201.515745 101.320312L199.734495 101.320312 199.734495 93.3203125 201.515745 93.3203125C203.961058 93.3203125 205.351683 94.7109375 205.351683 97.328125 205.351683 99.9453125 203.961058 101.320312 201.515745 101.320312zM104.915144 423L104.915144 415.265625 105.087019 415.265625 110.938582 423 112.243269 423 112.243269 411.640625 110.446394 411.640625 110.446394 419.382812 110.290144 419.382812 104.430769 411.640625 103.118269 411.640625 103.118269 423 104.915144 423zM117.500962 423L118.336899 420.742188 123.227524 420.742188 124.063462 423 126.102524 423 121.500962 411.601562 120.149399 411.601562 115.547837 423 117.500962 423zM122.672837 419.242188L118.891587 419.242188 120.665024 414.453125 120.907212 414.453125 122.672837 419.242188zM131.149279 423L131.149279 415.921875 131.328966 415.921875 134.524279 423 135.657091 423 138.852404 415.921875 139.032091 415.921875 139.032091 423 140.766466 423 140.766466 411.640625 139.133654 411.640625 135.203966 420.296875 135.039904 420.296875 131.086779 411.640625 129.407091 411.640625 129.407091 423 131.149279 423zM152.883534 423L152.883534 421.453125 147.141346 421.453125 147.141346 417.945312 150.617909 417.945312 150.617909 416.414062 147.141346 416.414062 147.141346 413.1875 152.680409 413.1875 152.680409 411.640625 145.336659 411.640625 145.336659 423 152.883534 423zM166.062981 423.21875C168.727043 423.21875 170.211418 421.757812 170.211418 419.8125 170.211418 418.210938 169.477043 417.226562 167.406731 416.539062L165.812981 416.015625C164.602043 415.617188 164.227043 415.164062 164.227043 414.398438 164.227043 413.578125 164.875481 412.929688 166.273918 412.929688 167.328606 412.929688 167.984856 413.367188 168.492668 414.09375L169.883293 413.234375C169.133293 412.140625 168.070793 411.421875 166.289543 411.421875 163.961418 411.421875 162.531731 412.710938 162.531731 414.453125 162.531731 416.039062 163.375481 417.015625 165.008293 417.546875L166.648918 418.085938C168.078606 418.554688 168.484856 419.117188 168.484856 419.953125 168.484856 420.960938 167.656731 421.695312 166.062981 421.695312 164.703606 421.695312 163.922356 421.171875 163.297356 420.140625L161.883293 420.984375C162.695793 422.421875 163.906731 423.21875 166.062981 423.21875zM174.539423 423L175.375361 420.742188 180.265986 420.742188 181.101923 423 183.140986 423 178.539423 411.601562 177.187861 411.601562 172.586298 423 174.539423 423zM179.711298 419.242188L175.930048 419.242188 177.703486 414.453125 177.945673 414.453125 179.711298 419.242188zM188.242428 423L188.242428 415.265625 188.414303 415.265625 194.265865 423 195.570553 423 195.570553 411.640625 193.773678 411.640625 193.773678 419.382812 193.617428 419.382812 187.758053 411.640625 186.445553 411.640625 186.445553 423 188.242428 423zM203.09387 423.21875C205.757933 423.21875 207.242308 421.757812 207.242308 419.8125 207.242308 418.210938 206.507933 417.226562 204.43762 416.539062L202.84387 416.015625C201.632933 415.617188 201.257933 415.164062 201.257933 414.398438 201.257933 413.578125 201.90637 412.929688 203.304808 412.929688 204.359495 412.929688 205.015745 413.367188 205.523558 414.09375L206.914183 413.234375C206.164183 412.140625 205.101683 411.421875 203.320433 411.421875 200.992308 411.421875 199.56262 412.710938 199.56262 414.453125 199.56262 416.039062 200.40637 417.015625 202.039183 417.546875L203.679808 418.085938C205.109495 418.554688 205.515745 419.117188 205.515745 419.953125 205.515745 420.960938 204.68762 421.695312 203.09387 421.695312 201.734495 421.695312 200.953245 421.171875 200.328245 420.140625L198.914183 420.984375C199.726683 422.421875 200.93762 423.21875 203.09387 423.21875zM59.3453125 442.21875C62.009375 442.21875 63.49375 440.757812 63.49375 438.8125 63.49375 437.210938 62.759375 436.226562 60.6890625 435.539062L59.0953125 435.015625C57.884375 434.617188 57.509375 434.164062 57.509375 433.398438 57.509375 432.578125 58.1578125 431.929688 59.55625 431.929688 60.6109375 431.929688 61.2671875 432.367188 61.775 433.09375L63.165625 432.234375C62.415625 431.140625 61.353125 430.421875 59.571875 430.421875 57.24375 430.421875 55.8140625 431.710938 55.8140625 433.453125 55.8140625 435.039062 56.6578125 436.015625 58.290625 436.546875L59.93125 437.085938C61.3609375 437.554688 61.7671875 438.117188 61.7671875 438.953125 61.7671875 439.960938 60.9390625 440.695312 59.3453125 440.695312 57.9859375 440.695312 57.2046875 440.171875 56.5796875 439.140625L55.165625 439.984375C55.978125 441.421875 57.1890625 442.21875 59.3453125 442.21875zM71.6264423 442L71.6264423 432.21875 75.1342548 432.21875 75.1342548 430.640625 66.2748798 430.640625 66.2748798 432.21875 69.8061298 432.21875 69.8061298 442 71.6264423 442zM78.3216346 442L79.1575721 439.742188 84.0481971 439.742188 84.8841346 442 86.9231971 442 82.3216346 430.601562 80.9700721 430.601562 76.3685096 442 78.3216346 442zM83.4935096 438.242188L79.7122596 438.242188 81.4856971 433.453125 81.7278846 433.453125 83.4935096 438.242188zM92.0246394 442L92.0246394 434.265625 92.1965144 434.265625 98.0480769 442 99.3527644 442 99.3527644 430.640625 97.5558894 430.640625 97.5558894 438.382812 97.3996394 438.382812 91.5402644 430.640625 90.2277644 430.640625 90.2277644 442 92.0246394 442zM107.501082 442C110.993269 442 113.172957 439.890625 113.172957 436.335938 113.172957 432.78125 110.993269 430.640625 107.485457 430.640625L103.922957 430.640625 103.922957 442 107.501082 442zM107.508894 440.320312L105.727644 440.320312 105.727644 432.320312 107.508894 432.320312C109.954207 432.320312 111.344832 433.710938 111.344832 436.328125 111.344832 438.945312 109.954207 440.320312 107.508894 440.320312zM117.329087 442L118.165024 439.742188 123.055649 439.742188 123.891587 442 125.930649 442 121.329087 430.601562 119.977524 430.601562 115.375962 442 117.329087 442zM122.500962 438.242188L118.719712 438.242188 120.493149 433.453125 120.735337 433.453125 122.500962 438.242188zM131.039904 442L131.039904 437.8125 133.258654 437.8125 135.414904 442 137.446154 442 135.024279 437.5625C136.461779 437.070312 137.266466 435.875 137.266466 434.210938 137.266466 432.0625 135.836779 430.640625 133.368029 430.640625L129.235216 430.640625 129.235216 442 131.039904 442zM133.282091 436.234375L131.039904 436.234375 131.039904 432.195312 133.282091 432.195312C134.711779 432.195312 135.453966 433.0625 135.453966 434.226562 135.453966 435.445312 134.703966 436.234375 133.282091 436.234375zM144.852284 442C148.344471 442 150.524159 439.890625 150.524159 436.335938 150.524159 432.78125 148.344471 430.640625 144.836659 430.640625L141.274159 430.640625 141.274159 442 144.852284 442zM144.860096 440.320312L143.078846 440.320312 143.078846 432.320312 144.860096 432.320312C147.305409 432.320312 148.696034 433.710938 148.696034 436.328125 148.696034 438.945312 147.305409 440.320312 144.860096 440.320312zM165.156731 442C167.531731 442 168.977043 440.867188 168.977043 438.78125 168.977043 437.414062 168.227043 436.484375 166.734856 436.164062L166.734856 435.960938C167.891106 435.632812 168.641106 434.859375 168.641106 433.570312 168.641106 431.789062 167.320793 430.640625 164.781731 430.640625L160.687981 430.640625 160.687981 442 165.156731 442zM164.766106 435.492188L162.500481 435.492188 162.500481 432.1875 164.758293 432.1875C166.203606 432.1875 166.836418 432.78125 166.836418 433.78125 166.836418 434.90625 166.234856 435.492188 164.766106 435.492188zM165.039543 440.453125L162.500481 440.453125 162.500481 436.890625 165.031731 436.890625C166.516106 436.890625 167.172356 437.4375 167.172356 438.664062 167.172356 439.929688 166.344231 440.453125 165.039543 440.453125zM177.703486 442.21875C181.015986 442.21875 183.226923 439.90625 183.226923 436.335938 183.226923 432.765625 181.015986 430.421875 177.703486 430.421875 174.390986 430.421875 172.226923 432.765625 172.226923 436.335938 172.226923 439.90625 174.398798 442.21875 177.703486 442.21875zM177.703486 440.554688C175.383173 440.554688 174.055048 438.9375 174.055048 436.335938 174.055048 433.742188 175.375361 432.085938 177.703486 432.085938 180.031611 432.085938 181.398798 433.742188 181.398798 436.335938 181.398798 438.9375 180.023798 440.554688 177.703486 440.554688zM194.109615 442L194.109615 440.382812 188.883053 440.382812 188.883053 430.640625 187.078365 430.640625 187.078365 442 194.109615 442zM201.507933 442C205.00012 442 207.179808 439.890625 207.179808 436.335938 207.179808 432.78125 205.00012 430.640625 201.492308 430.640625L197.929808 430.640625 197.929808 442 201.507933 442zM201.515745 440.320312L199.734495 440.320312 199.734495 432.320312 201.515745 432.320312C203.961058 432.320312 205.351683 433.710938 205.351683 436.328125 205.351683 438.945312 203.961058 440.320312 201.515745 440.320312zM104.915144 772L104.915144 764.265625 105.087019 764.265625 110.938582 772 112.243269 772 112.243269 760.640625 110.446394 760.640625 110.446394 768.382812 110.290144 768.382812 104.430769 760.640625 103.118269 760.640625 103.118269 772 104.915144 772zM117.500962 772L118.336899 769.742188 123.227524 769.742188 124.063462 772 126.102524 772 121.500962 760.601562 120.149399 760.601562 115.547837 772 117.500962 772zM122.672837 768.242188L118.891587 768.242188 120.665024 763.453125 120.907212 763.453125 122.672837 768.242188zM131.149279 772L131.149279 764.921875 131.328966 764.921875 134.524279 772 135.657091 772 138.852404 764.921875 139.032091 764.921875 139.032091 772 140.766466 772 140.766466 760.640625 139.133654 760.640625 135.203966 769.296875 135.039904 769.296875 131.086779 760.640625 129.407091 760.640625 129.407091 772 131.149279 772zM152.883534 772L152.883534 770.453125 147.141346 770.453125 147.141346 766.945312 150.617909 766.945312 150.617909 765.414062 147.141346 765.414062 147.141346 762.1875 152.680409 762.1875 152.680409 760.640625 145.336659 760.640625 145.336659 772 152.883534 772zM166.062981 772.21875C168.727043 772.21875 170.211418 770.757812 170.211418 768.8125 170.211418 767.210938 169.477043 766.226562 167.406731 765.539062L165.812981 765.015625C164.602043 764.617188 164.227043 764.164062 164.227043 763.398438 164.227043 762.578125 164.875481 761.929688 166.273918 761.929688 167.328606 761.929688 167.984856 762.367188 168.492668 763.09375L169.883293 762.234375C169.133293 761.140625 168.070793 760.421875 166.289543 760.421875 163.961418 760.421875 162.531731 761.710938 162.531731 763.453125 162.531731 765.039062 163.375481 766.015625 165.008293 766.546875L166.648918 767.085938C168.078606 767.554688 168.484856 768.117188 168.484856 768.953125 168.484856 769.960938 167.656731 770.695312 166.062981 770.695312 164.703606 770.695312 163.922356 770.171875 163.297356 769.140625L161.883293 769.984375C162.695793 771.421875 163.906731 772.21875 166.062981 772.21875zM174.539423 772L175.375361 769.742188 180.265986 769.742188 181.101923 772 183.140986 772 178.539423 760.601562 177.187861 760.601562 172.586298 772 174.539423 772zM179.711298 768.242188L175.930048 768.242188 177.703486 763.453125 177.945673 763.453125 179.711298 768.242188zM188.242428 772L188.242428 764.265625 188.414303 764.265625 194.265865 772 195.570553 772 195.570553 760.640625 193.773678 760.640625 193.773678 768.382812 193.617428 768.382812 187.758053 760.640625 186.445553 760.640625 186.445553 772 188.242428 772zM203.09387 772.21875C205.757933 772.21875 207.242308 770.757812 207.242308 768.8125 207.242308 767.210938 206.507933 766.226562 204.43762 765.539062L202.84387 765.015625C201.632933 764.617188 201.257933 764.164062 201.257933 763.398438 201.257933 762.578125 201.90637 761.929688 203.304808 761.929688 204.359495 761.929688 205.015745 762.367188 205.523558 763.09375L206.914183 762.234375C206.164183 761.140625 205.101683 760.421875 203.320433 760.421875 200.992308 760.421875 199.56262 761.710938 199.56262 763.453125 199.56262 765.039062 200.40637 766.015625 202.039183 766.546875L203.679808 767.085938C205.109495 767.554688 205.515745 768.117188 205.515745 768.953125 205.515745 769.960938 204.68762 770.695312 203.09387 770.695312 201.734495 770.695312 200.953245 770.171875 200.328245 769.140625L198.914183 769.984375C199.726683 771.421875 200.93762 772.21875 203.09387 772.21875zM111.469832 791L111.469832 781.21875 114.977644 781.21875 114.977644 779.640625 106.118269 779.640625 106.118269 781.21875 109.649519 781.21875 109.649519 791 111.469832 791zM126.266587 791L126.266587 789.453125 120.524399 789.453125 120.524399 785.945312 124.000962 785.945312 124.000962 784.414062 120.524399 784.414062 120.524399 781.1875 126.063462 781.1875 126.063462 779.640625 118.719712 779.640625 118.719712 791 126.266587 791zM131.172716 791L133.860216 786.515625 134.102404 786.515625 137.039904 791 139.149279 791 135.250841 785.125 138.899279 779.640625 136.828966 779.640625 134.414904 783.789062 134.180529 783.789062 131.493029 779.640625 129.360216 779.640625 133.008654 785.125 129.063341 791 131.172716 791zM147.125721 791L147.125721 781.21875 150.633534 781.21875 150.633534 779.640625 141.774159 779.640625 141.774159 781.21875 145.305409 781.21875 145.305409 791 147.125721 791zM165.156731 791C167.531731 791 168.977043 789.867188 168.977043 787.78125 168.977043 786.414062 168.227043 785.484375 166.734856 785.164062L166.734856 784.960938C167.891106 784.632812 168.641106 783.859375 168.641106 782.570312 168.641106 780.789062 167.320793 779.640625 164.781731 779.640625L160.687981 779.640625 160.687981 791 165.156731 791zM164.766106 784.492188L162.500481 784.492188 162.500481 781.1875 164.758293 781.1875C166.203606 781.1875 166.836418 781.78125 166.836418 782.78125 166.836418 783.90625 166.234856 784.492188 164.766106 784.492188zM165.039543 789.453125L162.500481 789.453125 162.500481 785.890625 165.031731 785.890625C166.516106 785.890625 167.172356 786.4375 167.172356 787.664062 167.172356 788.929688 166.344231 789.453125 165.039543 789.453125zM177.703486 791.21875C181.015986 791.21875 183.226923 788.90625 183.226923 785.335938 183.226923 781.765625 181.015986 779.421875 177.703486 779.421875 174.390986 779.421875 172.226923 781.765625 172.226923 785.335938 172.226923 788.90625 174.398798 791.21875 177.703486 791.21875zM177.703486 789.554688C175.383173 789.554688 174.055048 787.9375 174.055048 785.335938 174.055048 782.742188 175.375361 781.085938 177.703486 781.085938 180.031611 781.085938 181.398798 782.742188 181.398798 785.335938 181.398798 787.9375 180.023798 789.554688 177.703486 789.554688zM194.109615 791L194.109615 789.382812 188.883053 789.382812 188.883053 779.640625 187.078365 779.640625 187.078365 791 194.109615 791zM201.507933 791C205.00012 791 207.179808 788.890625 207.179808 785.335938 207.179808 781.78125 205.00012 779.640625 201.492308 779.640625L197.929808 779.640625 197.929808 791 201.507933 791zM201.515745 789.320312L199.734495 789.320312 199.734495 781.320312 201.515745 781.320312C203.961058 781.320312 205.351683 782.710938 205.351683 785.328125 205.351683 787.945312 203.961058 789.320312 201.515745 789.320312z"/>
    <path fill="#FFF" fill-rule="nonzero" d="M332.656757 683.195456C395.588598 683.195456 433.347702 648.902163 433.347702 600.380802 433.347702 563.351342 414.924178 538.90825 369.321395 523.585715L329.92059 510.452113C308.760898 503.338079 302.55892 495.311989 302.55892 482.360799 302.55892 467.585497 314.050821 457.917707 336.669802 457.917707 356.552615 457.917707 369.868628 466.308619 381.360529 482.725621L423.497501 453.175018C404.526743 425.448525 377.894718 409.396346 336.852213 409.396346 283.405751 409.396346 247.83558 440.406238 247.83558 484.732144 247.83558 522.491248 269.542505 547.481573 307.484021 559.88553L347.249647 573.019132C370.23345 580.680399 377.347484 590.165778 377.347484 604.211436 377.347484 622.63496 361.842538 634.491684 334.116046 634.491684 306.754376 634.491684 290.154963 623.182193 275.19725 600.015979L231.418578 630.113816C253.307914 665.683987 282.858518 683.195456 332.656757 683.195456zM545.895371 684.107512C611.198557 684.107512 652.241062 643.429829 652.241062 585.787911 652.241062 535.989672 622.508047 497.865745 569.426407 497.865745 548.631538 497.865745 531.667303 503.885313 518.533701 514.82998L515.979945 513.917925 519.628168 463.754863 632.540659 463.754863 640.201927 413.774213 469.647518 413.774213 461.439017 547.663984 500.65741 564.263397C513.608601 549.488096 529.843191 540.185128 549.726005 540.185128 578.364553 540.185128 595.876021 558.426241 595.876021 585.970322 595.876021 613.514403 577.634908 633.397217 547.35466 633.397217 524.006035 633.397217 509.960378 622.999782 497.921243 603.846613L451.953638 635.403739C472.930918 668.784977 500.65741 684.107512 545.895371 684.107512zM802.730246 679C858.912875 679 893.023757 650.361452 893.023757 601.475269 893.023757 575.208065 880.802211 553.136318 854.535008 542.19165L854.535008 538.178605C873.323354 528.145993 885.5449 510.452113 885.5449 485.82661 885.5449 441.683116 853.622952 413.774213 794.156923 413.774213L689.452933 413.774213 689.452933 679 802.730246 679zM792.515223 521.396781L746.912439 521.396781 746.912439 462.477985 791.238345 462.477985C818.052781 462.477985 828.085394 472.87542 828.085394 491.116533 828.085394 510.452113 818.417604 521.396781 792.515223 521.396781zM796.89309 630.296228L746.912439 630.296228 746.912439 567.181976 800.358901 567.181976C823.707526 567.181976 835.56425 577.761821 835.56425 598.739102 835.56425 621.175671 821.153771 630.296228 796.89309 630.296228zM1011.40858 683.925101C1081.45446 683.925101 1122.67937 632.120339 1122.67937 538.90825 1122.67937 453.357429 1084.55545 409.943579 1018.88744 409.943579 956.138009 409.943579 918.926138 451.350906 918.926138 504.797368 918.926138 551.85944 949.571208 590.530601 1004.47696 590.530601 1030.37934 590.530601 1050.9918 581.227633 1064.67263 560.250353L1068.13844 560.979997C1064.30781 610.413414 1043.33053 635.403739 1012.32064 635.403739 990.613713 635.221328 976.203233 627.012827 963.981687 608.589303L921.479894 638.139906C941.362707 668.602565 967.812321 683.925101 1011.40858 683.925101zM1017.42815 546.569518C989.519246 546.569518 973.284655 529.422871 973.284655 503.702901 973.284655 476.888465 991.70818 459.194585 1018.52262 459.194585 1044.425 459.194585 1063.03093 477.618109 1063.03093 504.797368 1063.03093 529.970104 1044.97223 546.569518 1017.42815 546.569518zM1252.73851 683.377867C1315.48794 683.377867 1352.69981 641.788129 1352.69981 588.524078 1352.69981 541.462006 1322.05474 502.608435 1267.69622 502.608435 1241.24661 502.608435 1220.63415 512.458636 1206.95332 533.071094L1203.4875 532.341449C1207.13573 483.090443 1227.9306 458.100118 1257.66361 458.100118 1276.99919 458.100118 1289.40315 465.578975 1299.98299 481.631154L1341.0255 453.722251C1323.14921 425.813348 1296.882 409.396346 1259.30531 409.396346 1190.17149 409.396346 1148.94658 461.201107 1148.94658 554.413196 1148.94658 639.964018 1187.0705 683.377867 1252.73851 683.377867zM1253.10333 633.94445C1227.20095 633.94445 1208.59502 615.703337 1208.59502 588.524078 1208.59502 563.351342 1226.47131 546.751929 1254.1978 546.751929 1282.1067 546.751929 1298.34129 564.080986 1298.34129 589.618545 1298.34129 616.432981 1279.91777 633.94445 1253.10333 633.94445zM1439.89233 679L1439.89233 564.993042C1439.89233 540.367539 1451.93147 528.875638 1472.90875 528.875638 1493.88603 528.875638 1505.74275 540.367539 1505.74275 564.993042L1505.74275 679 1560.28368 679 1560.28368 562.439286C1560.28368 511.54658 1534.92853 483.272854 1491.51468 483.272854 1464.33542 483.272854 1446.64154 495.4944 1436.42652 514.82998L1432.7783 514.82998 1430.04213 487.833133 1385.3514 487.833133 1385.3514 679 1439.89233 679zM1712.23215 683.013045C1760.20628 683.013045 1796.14128 646.348407 1796.14128 583.416566 1796.14128 520.484726 1760.38869 484.18491 1712.23215 484.18491 1686.51218 484.18491 1669.00072 495.4944 1657.3264 512.458636L1653.67818 512.458636 1653.67818 409.031523 1599.13725 409.031523 1599.13725 679 1644.74004 679 1649.48272 648.172519 1652.94854 648.172519C1663.8932 671.156321 1683.59361 683.013045 1712.23215 683.013045zM1697.27444 636.133384C1671.00724 636.133384 1653.49577 616.980215 1653.49577 583.598978 1653.49577 550.035329 1670.46 531.246982 1697.27444 531.246982 1723.90647 531.246982 1740.32347 550.400151 1740.32347 583.598978 1740.32347 616.980215 1723.72406 636.133384 1697.27444 636.133384zM329.021579 1029.9251C393.047887 1029.9251 428.253235 993.625285 428.253235 947.110446 428.253235 908.621697 410.924178 884.361017 363.862105 868.673659L326.650234 856.452113C304.031254 848.973257 298.011687 840.582345 298.011687 827.448743 298.011687 813.038264 309.503588 802.640829 335.041146 802.640829 355.288782 802.640829 367.692739 811.031741 378.272585 826.90151L422.416079 799.904662C404.90461 772.725403 379.184641 754.849112 335.405969 754.849112 280.682629 754.849112 244.382813 785.676594 244.382813 829.272854 244.382813 868.491248 265.360094 893.299162 301.112676 904.973475L339.966247 917.742254C366.598272 926.497988 373.529896 937.442656 373.529896 951.488313 373.529896 968.452549 359.119416 981.768562 329.20399 981.768562 303.301609 981.768562 288.343896 971.735949 274.845473 949.664202L229.789923 976.478639C249.125503 1010.77193 277.399229 1029.9251 329.021579 1029.9251zM548.826994 1030.10751C614.495002 1030.10751 654.990273 989.61224 654.990273 932.335145 654.990273 884.361017 627.08137 846.601912 575.45902 846.601912 553.02245 846.601912 536.058215 854.080769 524.566313 865.57267L519.458802 864.478203 527.120069 808.842808 634.560227 808.842808 642.039083 759.774213 480.787642 759.774213 464.37064 896.764974 501.582511 911.175453C514.533701 896.764974 531.497937 887.097184 553.02245 887.097184 581.660998 887.097184 598.625233 904.791063 598.625233 931.970322 598.625233 959.149581 580.566531 979.032395 550.468694 979.032395 527.30248 979.032395 512.527179 968.452549 501.4001 949.29938L453.061149 977.937928C474.220841 1014.05533 499.758399 1030.10751 548.826994 1030.10751zM817.701004 1025C875.890155 1025 909.636215 996.726274 909.636215 948.204913 909.636215 921.755299 895.408146 898.771496 864.945487 889.286117L864.945487 883.084139C886.834823 873.416349 900.333247 855.90488 900.333247 830.367321 900.333247 787.865527 868.776121 759.774213 808.215625 759.774213L706.612624 759.774213 706.612624 1025 817.701004 1025zM808.94527 868.308837L764.072131 868.308837 764.072131 808.660396 807.303569 808.660396C833.388361 808.660396 843.238563 819.240242 843.238563 837.298944 843.238563 857.181758 835.030062 868.308837 808.94527 868.308837zM813.687959 976.113816L764.072131 976.113816 764.072131 912.452331 817.153771 912.452331C841.23204 912.452331 852.359119 922.484943 852.359119 944.374279 852.359119 966.99326 837.94864 976.113816 813.687959 976.113816zM1034.22302 1031.38439C1104.4513 1031.38439 1146.04104 979.032395 1146.04104 884.725839 1146.04104 799.175018 1107.91712 755.761168 1042.24911 755.761168 979.864501 755.761168 943.199863 796.621262 943.199863 848.426023 943.199863 895.670507 972.385645 932.699967 1024.008 932.699967 1052.28172 932.699967 1073.44141 922.302532 1087.48707 898.953907L1092.41217 899.501141C1089.676 955.866181 1068.3339 983.227851 1034.95266 983.227851 1013.61056 983.227851 999.929726 975.01935 989.167469 957.507881L944.659152 983.957495C962.717854 1014.23774 988.620235 1031.38439 1034.22302 1031.38439zM1039.51294 889.833351C1010.69198 889.833351 997.193559 872.869115 997.193559 848.608435 997.193559 822.341231 1014.88744 805.194585 1041.88429 805.194585 1067.60426 805.194585 1086.3926 824.530165 1086.3926 850.979779 1086.3926 873.59876 1067.96908 889.833351 1039.51294 889.833351zM1279.38358 1030.28992C1341.58578 1030.28992 1378.43283 989.247418 1378.43283 937.625067 1378.43283 890.198173 1349.24704 853.168713 1298.53675 853.168713 1269.35097 853.168713 1248.00887 864.478203 1234.14562 887.097184L1229.22052 886.367539C1231.95669 830.18491 1253.11638 802.640829 1283.94386 802.82324 1303.27944 802.82324 1314.40652 810.302097 1322.97984 825.25981L1365.84646 800.816718C1349.24704 771.995759 1324.25672 754.666701 1286.3152 754.666701 1217.18138 754.666701 1175.59165 807.018696 1175.59165 901.325252 1175.59165 986.876073 1213.71557 1030.28992 1279.38358 1030.28992zM1279.7484 980.674095C1254.02843 980.674095 1235.24009 961.520926 1235.24009 935.071312 1235.24009 912.26992 1253.4812 896.035329 1282.11975 896.035329 1310.94071 896.035329 1324.43913 913.181976 1324.43913 937.260245 1324.43913 963.527448 1306.56284 980.674095 1279.7484 980.674095zM1474.38108 1025L1474.38108 905.703119C1474.38108 881.989672 1485.69057 870.315359 1507.57991 870.315359 1529.46924 870.315359 1540.59632 881.989672 1540.59632 905.703119L1540.59632 1025 1595.31966 1025 1595.31966 902.60213C1595.31966 852.621479 1570.69416 825.624632 1528.92201 825.624632 1501.01311 825.624632 1483.86646 838.940645 1473.46903 861.194803L1467.63187 861.194803 1465.26053 829.455266 1419.65774 829.455266 1419.65774 1025 1474.38108 1025zM1762.59067 1029.01304C1811.65927 1029.01304 1845.0405 990.706707 1845.0405 927.227633 1845.0405 863.748559 1811.47686 825.442221 1762.59067 825.442221 1735.229 825.442221 1717.1703 839.670289 1706.59045 860.465158L1700.7533 860.465158 1700.7533 750.288834 1645.84755 750.288834 1645.84755 1025 1690.53827 1025 1696.37543 989.065007 1702.21259 989.065007C1712.42761 1016.42668 1733.04007 1029.01304 1762.59067 1029.01304zM1745.44403 982.133384C1716.98789 982.133384 1700.93571 962.432981 1700.93571 927.410044 1700.93571 892.387106 1716.98789 872.504293 1745.44403 872.504293 1773.71775 872.504293 1789.40511 891.839873 1789.40511 927.227633 1789.40511 962.797804 1773.71775 982.133384 1745.44403 982.133384z"/>
    <path fill="#979797" fill-rule="nonzero" d="M1745.44403,872.004293 C1716.70978,872.004293 1700.43571,892.101786 1700.43571,927.410044 C1700.43571,962.675842 1716.67567,982.633384 1745.44403,982.633384 C1774.09712,982.633384 1789.90511,962.957998 1789.90511,927.227633 C1789.90511,891.655497 1774.07766,872.004293 1745.44403,872.004293 Z M1745.44403,873.004293 C1773.47196,873.004293 1788.90511,892.165939 1788.90511,927.227633 C1788.90511,962.447947 1773.49076,981.633384 1745.44403,981.633384 C1717.27865,981.633384 1701.43571,962.163748 1701.43571,927.410044 C1701.43571,892.613088 1717.31405,873.004293 1745.44403,873.004293 Z"/>
    <path fill="#FFA600" fill-opacity=".15" stroke="#FFA600" stroke-width="2" d="M1745.44403,878.504293 C1757.78271,878.504293 1767.2974,882.619171 1773.69741,890.787061 C1780.11936,898.982955 1783.40511,911.190143 1783.40511,927.227633 C1783.40511,943.342979 1780.12395,955.595018 1773.70516,963.816931 C1767.30726,972.012077 1757.79185,976.133384 1745.44403,976.133384 C1733.03053,976.133384 1723.38156,971.940105 1716.86353,963.736814 C1710.32209,955.50406 1706.93571,943.296783 1706.93571,927.410044 C1706.93571,911.496336 1710.33402,899.242254 1716.88305,890.969711 C1723.40574,882.730445 1733.05278,878.504293 1745.44403,878.504293 Z"/>
    <g transform="translate(1468.489 868)">
      <mask id="name_sans-optical_quirks-l" fill="#fff">
        <use xlink:href="#name_sans-optical_quirks-k"/>
      </mask>
      <path fill="#FFA600" fill-opacity=".15" stroke="#FFA600" stroke-width="2" d="M39.086274,8.31534701 L39.6524315,8.31814964 C48.689215,8.40854109 55.3395857,10.6842328 59.697806,15.5092673 C64.0670647,20.3465225 66.1076616,27.686403 66.1076616,37.7031191 L66.1076616,37.7031191 L66.1076616,151 L11.8923384,151 L11.8923384,37.7031191 C11.8923384,27.6198639 14.0027164,20.2368999 18.4950145,15.3959013 C22.9848563,10.5575496 29.8249866,8.31535938 39.086274,8.31534701 L39.086274,8.31534701 Z" mask="url(#name_sans-optical_quirks-l)"/>
    </g>
    <g transform="translate(452.606 749.93)">
      <mask id="name_sans-optical_quirks-n" fill="#fff">
        <use xlink:href="#name_sans-optical_quirks-m"/>
      </mask>
      <polygon fill="#FFA600" fill-opacity=".15" stroke="#FFA600" stroke-width="2" points="19.616 -5.939 73.044 -5.939 69.074 173.474 19.616 172.987" mask="url(#name_sans-optical_quirks-n)" transform="rotate(7 46.33 83.768)"/>
    </g>
    <g transform="translate(226.5 750.594)">
      <mask id="name_sans-optical_quirks-p" fill="#fff">
        <use xlink:href="#name_sans-optical_quirks-o"/>
      </mask>
      <rect width="14" height="307.77" x="3.75" y="-16.79" fill="#FFA600" fill-opacity=".15" stroke="#FFA600" stroke-width="2" mask="url(#name_sans-optical_quirks-p)"/>
    </g>
    <g transform="translate(419 750.337)">
      <mask id="name_sans-optical_quirks-r" fill="#fff">
        <use xlink:href="#name_sans-optical_quirks-q"/>
      </mask>
      <rect width="7" height="312" x="2.985" y="-6" fill="#FFA600" fill-opacity=".15" stroke="#FFA600" stroke-width="2" mask="url(#name_sans-optical_quirks-r)"/>
    </g>
    <g transform="translate(851 755.25)">
      <mask id="name_sans-optical_quirks-t" fill="#fff">
        <use xlink:href="#name_sans-optical_quirks-s"/>
      </mask>
      <rect width="9.5" height="304.657" x="49.5" y="-13.752" fill="#FFA600" fill-opacity=".15" stroke="#FFA600" stroke-width="2" mask="url(#name_sans-optical_quirks-t)"/>
    </g>
    <path fill="#FFA600" fill-opacity=".15" stroke="#FFA600" stroke-width="2" d="M1041.88429 811.604384C1053.05885 811.604384 1062.69451 815.75441 1069.52936 822.810158 1076.36674 829.868522 1080.3926 839.822217 1080.3926 851.389578 1080.3926 861.138991 1076.36499 869.383823 1069.21323 875.164969 1062.08301 880.928708 1051.87958 884.243149 1039.51294 884.243149 1027.64229 884.243149 1018.59177 881.128591 1012.49862 875.214142 1006.29563 869.193064 1003.19356 860.300556 1003.19356 849.018233 1003.19356 837.593976 1006.92136 828.224421 1013.63801 821.723848 1020.35938 815.218712 1030.04949 811.604384 1041.88429 811.604384zM1282.11975 902.445128C1293.95244 902.445128 1302.99863 905.583506 1309.09919 911.505154 1315.31636 917.539988 1318.43913 926.435707 1318.43913 937.670044 1318.43913 949.05657 1314.68601 958.422047 1307.96156 964.930161 1301.22612 971.448917 1291.53317 975.083893 1279.7484 975.083893 1268.55025 975.083893 1258.91197 970.966895 1252.08157 963.947279 1245.25291 956.929449 1241.24009 947.023228 1241.24009 935.48111 1241.24009 925.622175 1245.2306 917.329718 1252.36742 911.529558 1259.48011 905.749014 1269.68395 902.445128 1282.11975 902.445128zM1648.37521 197.989672C1659.39185 197.989672 1668.51225 202.193401 1674.84683 209.859364 1681.15292 217.490849 1684.6946 228.515142 1684.6946 242.152733 1684.6946 255.657665 1681.12455 266.621694 1674.84016 274.233406 1668.50763 281.903431 1659.42234 286.133384 1648.55762 286.133384 1637.51793 286.133384 1628.18034 281.851264 1621.65067 274.10074 1615.21213 266.458383 1611.5086 255.475312 1611.5086 241.970322 1611.5086 228.132275 1615.02033 217.174651 1621.35374 209.65138 1627.75893 202.042835 1637.04289 197.989672 1648.37521 197.989672z"/>
  </g>
</svg>
