<svg xmlns="http://www.w3.org/2000/svg" xmlns:xlink="http://www.w3.org/1999/xlink" width="1803" height="405" viewBox="0 0 1803 405">
  <defs>
    <rect id="name_sans-optics-a" width="24.5" height="283.5"/>
    <rect id="name_sans-optics-c" width="19.5" height="284"/>
    <rect id="name_sans-optics-e" width="77" height="166.5"/>
    <rect id="name_sans-optics-g" width="83" height="283.5"/>
  </defs>
  <g fill="none" fill-rule="evenodd">
    <rect width="1803" height="405" fill="#222"/>
    <path fill="#FFF" fill-rule="nonzero" d="M165.109523,338.648223 C227.129309,338.648223 267.442169,306.179041 267.442169,255.833568 C267.442169,220.080986 247.741767,195.455483 203.598272,180.497771 L162.190945,166.452113 C142.308132,159.702901 135.923742,152.041634 135.923742,139.455266 C135.923742,124.13273 147.415644,115.376996 167.298457,115.376996 C186.634037,115.376996 201.044517,123.767908 213.266062,140.732144 L253.578923,108.445373 C232.966465,80.1716475 205.422384,66.1259902 167.298457,66.1259902 C115.128873,66.1259902 80.2883467,97.1358828 80.2883467,142.191433 C80.2883467,178.491248 102.724916,203.846396 142.672954,216.979997 L183.533048,230.478421 C202.868628,236.862811 210.165073,245.071312 210.165073,259.116969 C210.165073,278.999782 193.56566,289.397217 168.028102,289.397217 C139.207143,289.397217 120.966029,276.628438 104.366616,252.367757 L61.8648223,285.931405 C86.4903252,322.778454 117.135396,338.648223 165.109523,338.648223 Z M371.781337,340.107512 C436.902111,340.107512 478.49185,299.429829 478.49185,241.423089 C478.49185,189.618327 446.934724,151.129578 392.393795,151.129578 C373.058215,151.129578 356.458802,155.872268 342.595556,165.90488 L341.136267,164.992824 L341.136267,120.84933 L459.521092,120.84933 L467.182359,69.7742129 L287.324982,69.7742129 L287.324982,200.745406 L328.73231,219.351342 C341.501089,204.211218 357.006035,195.455483 375.42956,195.455483 C403.885696,195.455483 422.12681,214.061419 422.12681,241.970322 C422.12681,269.879226 403.703285,289.762039 373.058215,289.762039 C349.527179,289.762039 336.211166,279.729427 323.442387,260.576258 L279.846126,295.051962 C300.640995,325.697032 330.37401,340.107512 371.781337,340.107512 Z M616.577077,335 C670.753184,335 705.228888,306.179041 705.228888,256.745624 C705.228888,230.843243 694.831453,209.683552 672.759706,197.279595 L672.759706,195.455483 C688.447063,184.875638 699.391731,166.816936 699.391731,143.285899 C699.391731,97.6831162 667.104961,69.7742129 608.733398,69.7742129 L500.928419,69.7742129 L500.928419,335 L616.577077,335 Z M604.720354,176.667137 L558.570337,176.667137 L558.570337,118.295574 L603.990709,118.295574 C631.352379,118.295574 641.749813,128.693009 641.749813,146.934122 C641.749813,165.722469 630.622734,176.667137 604.720354,176.667137 Z M608.733398,286.478639 L558.570337,286.478639 L558.570337,224.094031 L612.19921,224.094031 C635.000602,224.094031 647.58697,235.038699 647.58697,255.103924 C647.58697,277.540493 633.17649,286.478639 608.733398,286.478639 Z M902.780145,338.648223 C972.643608,338.648223 1013.5037,287.390694 1013.5037,195.090661 C1013.5037,109.53984 975.562187,66.1259902 909.711768,66.1259902 C846.597516,66.1259902 809.020822,108.262962 809.020822,163.168713 C809.020822,210.048374 840.942771,250.543646 899.131922,250.543646 C923.02778,250.543646 942.728183,242.152733 956.409018,223.91162 L957.868307,224.276442 C953.125617,266.960647 932.513159,289.397217 903.874611,289.397217 C881.985275,289.397217 866.66274,281.188716 852.981905,261.853136 L812.669045,294.322317 C834.193559,324.967388 861.372817,338.648223 902.780145,338.648223 Z M909.711768,205.305685 C882.71492,205.305685 863.744162,187.976627 863.744162,160.797368 C863.744162,133.618109 882.71492,115.376996 909.346945,115.376996 C935.614148,115.376996 954.037673,132.706054 954.037673,160.797368 C954.037673,188.341449 936.343793,205.305685 909.711768,205.305685 Z M1140.46185,338.648223 C1203.5761,338.648223 1241.1528,296.511251 1241.1528,241.6055 C1241.1528,194.725839 1209.23085,154.230567 1151.0417,154.230567 C1127.32825,154.230567 1107.44544,162.621479 1093.7646,180.862593 L1092.30531,180.497771 C1097.048,137.813565 1117.29564,115.376996 1145.56936,115.376996 C1165.08735,115.376996 1178.9506,122.855853 1191.17215,140.18491 L1230.39054,108.810195 C1211.23737,81.6309365 1183.69329,66.1259902 1146.66383,66.1259902 C1077.3476,66.1259902 1036.66992,117.383519 1036.66992,209.683552 C1036.66992,295.234373 1074.61143,338.648223 1140.46185,338.648223 Z M1140.82667,289.397217 C1114.55947,289.397217 1096.13595,272.068159 1096.13595,243.976845 C1096.13595,216.432764 1113.82983,199.468528 1140.46185,199.468528 C1167.4587,199.468528 1186.42946,216.797586 1186.42946,243.976845 C1186.42946,271.156104 1167.4587,289.397217 1140.82667,289.397217 Z M1405.50523,335 L1405.50523,226.465376 C1405.50523,200.745406 1418.09159,189.435916 1438.15682,189.435916 C1458.40446,189.435916 1470.99082,200.745406 1470.99082,226.465376 L1470.99082,335 L1525.34934,335 L1525.34934,224.276442 C1525.34934,172.654092 1499.08214,143.103488 1454.02659,143.103488 C1427.75938,143.103488 1409.51827,154.048156 1399.30325,170.647569 L1398.02637,170.647569 L1394.92538,148.211 L1351.14671,148.211 L1351.14671,335 L1405.50523,335 Z M1620.56795,340.107512 C1645.9231,340.107512 1664.89386,329.162844 1674.74406,312.745842 L1676.02094,312.745842 L1679.30434,335 L1723.08301,335 L1723.08301,148.211 L1668.72449,148.211 L1668.72449,258.387324 C1668.72449,283.012827 1656.50295,293.775084 1637.34978,293.775084 C1618.0142,293.775084 1605.97506,283.012827 1605.97506,258.387324 L1605.97506,148.211 L1551.61654,148.211 L1551.61654,261.853136 C1551.61654,311.833786 1577.1541,340.107512 1620.56795,340.107512 Z"/>
    <g transform="translate(59.25 60.594)">
      <mask id="name_sans-optics-b" fill="#fff">
        <use xlink:href="#name_sans-optics-a"/>
      </mask>
      <rect width="17" height="307.77" x="3.75" y="-16.79" fill="#FFA600" fill-opacity=".15" stroke="#FFA600" stroke-width="2" mask="url(#name_sans-optics-b)"/>
    </g>
    <g transform="translate(250.75 60.337)">
      <mask id="name_sans-optics-d" fill="#fff">
        <use xlink:href="#name_sans-optics-c"/>
      </mask>
      <rect width="13.531" height="312" x="2.985" y="-6" fill="#FFA600" fill-opacity=".15" stroke="#FFA600" stroke-width="2" mask="url(#name_sans-optics-d)"/>
    </g>
    <g transform="translate(275.25 60.337)">
      <mask id="name_sans-optics-f" fill="#fff">
        <use xlink:href="#name_sans-optics-e"/>
      </mask>
      <rect width="53.429" height="178.925" x="11.786" y="-8.076" fill="#FFA600" fill-opacity=".15" stroke="#FFA600" stroke-width="2" mask="url(#name_sans-optics-f)"/>
    </g>
    <g transform="translate(648.25 60.337)">
      <mask id="name_sans-optics-h" fill="#fff">
        <use xlink:href="#name_sans-optics-g"/>
      </mask>
      <rect width="57.592" height="304.657" x="12.704" y="-13.752" fill="#FFA600" fill-opacity=".15" stroke="#FFA600" stroke-width="2" mask="url(#name_sans-optics-h)"/>
    </g>
    <circle cx="1439" cy="222.837" r="51" fill="#FFA600" fill-opacity=".15" stroke="#FFA600" stroke-width="2"/>
    <circle cx="1637.5" cy="258.837" r="51" fill="#FFA600" fill-opacity=".15" stroke="#FFA600" stroke-width="2"/>
    <path fill="#FFA600" fill-opacity=".15" fill-rule="nonzero" stroke="#FFA600" stroke-width="2" d="M909.041146 205.568371C882.044299 205.568371 863.073541 188.239314 863.073541 161.060055 863.073541 133.880796 882.044299 115.639683 908.676324 115.639683 934.943527 115.639683 953.367052 132.968741 953.367052 161.060055 953.367052 188.604136 935.673172 205.568371 909.041146 205.568371zM1140.15605 289.428688C1113.88885 289.428688 1095.46532 272.099631 1095.46532 244.008316 1095.46532 216.464235 1113.1592 199.5 1139.79123 199.5 1166.78808 199.5 1185.75883 216.829058 1185.75883 244.008316 1185.75883 271.187575 1166.78808 289.428688 1140.15605 289.428688z"/>
  </g>
</svg>
