<svg xmlns="http://www.w3.org/2000/svg" width="1891" height="401" viewBox="0 0 1891 401">
  <g fill="none" fill-rule="evenodd">
    <rect width="1891" height="401" fill="#222"/>
    <path fill="#FFF" fill-rule="nonzero" d="M129.242907,333 L146.207143,290.133384 L251.640777,290.133384 L268.969835,333 L332.448909,333 L220.813296,67.7742129 L178.676324,67.7742129 L67.2231221,333 L129.242907,333 Z M232.122786,241.612022 L165.360312,241.612022 L197.464671,160.074246 L199.288782,160.074246 L232.122786,241.612022 Z M479.800317,333 L479.800317,210.054896 L481.259606,210.054896 L539.083936,333 L577.755096,333 L635.579425,210.054896 L637.038714,210.054896 L637.038714,333 L692.309287,333 L692.309287,67.7742129 L645.429626,67.7742129 L560.061216,246.172301 L558.966749,246.172301 L471.044583,67.7742129 L424.164922,67.7742129 L424.164922,333 L479.800317,333 Z M865.354575,333 L865.354575,178.132948 L867.72592,178.132948 L991.035846,333 L1032.62558,333 L1032.62558,67.7742129 L975.348488,67.7742129 L975.348488,223.188498 L972.977144,223.188498 L849.484807,67.7742129 L807.895068,67.7742129 L807.895068,333 L865.354575,333 Z M1250.93492,333 L1310.58336,177.038481 L1312.40747,177.038481 L1370.2318,333 L1408.53814,333 L1497.18995,67.7742129 L1434.80534,67.7742129 L1387.74327,222.094031 L1386.10157,222.094031 L1330.10135,67.7742129 L1294.34877,67.7742129 L1239.80784,222.094031 L1238.34855,222.094031 L1189.82719,67.7742129 L1124.15919,67.7742129 L1213.35823,333 L1250.93492,333 Z M1715.62439,333 L1822.3349,67.7742129 L1760.13271,67.7742129 L1696.65363,242.341667 L1694.28229,242.341667 L1631.53286,67.7742129 L1565.31762,67.7742129 L1671.84572,333 L1715.62439,333 Z"/>
    <circle cx="666" cy="78.774" r="38.163" fill="#FFA600" fill-opacity=".15" stroke="#FFA600" stroke-width="2"/>
    <circle cx="450.5" cy="78.774" r="38.163" fill="#FFA600" fill-opacity=".15" stroke="#FFA600" stroke-width="2"/>
    <circle cx="558.5" cy="315.104" r="38.163" fill="#FFA600" fill-opacity=".15" stroke="#FFA600" stroke-width="2"/>
    <circle cx="1008.674" cy="315.104" r="38.163" fill="#FFA600" fill-opacity=".15" stroke="#FFA600" stroke-width="2"/>
    <circle cx="1232.174" cy="315.104" r="38.163" fill="#FFA600" fill-opacity=".15" stroke="#FFA600" stroke-width="2"/>
    <circle cx="1388.826" cy="315.104" r="38.163" fill="#FFA600" fill-opacity=".15" stroke="#FFA600" stroke-width="2"/>
    <circle cx="1693.826" cy="315.104" r="38.163" fill="#FFA600" fill-opacity=".15" stroke="#FFA600" stroke-width="2"/>
    <circle cx="199.5" cy="78.774" r="38.163" fill="#FFA600" fill-opacity=".15" stroke="#FFA600" stroke-width="2"/>
    <circle cx="831.5" cy="78.774" r="38.163" fill="#FFA600" fill-opacity=".15" stroke="#FFA600" stroke-width="2"/>
    <circle cx="1312.5" cy="78.774" r="38.163" fill="#FFA600" fill-opacity=".15" stroke="#FFA600" stroke-width="2"/>
  </g>
</svg>
