<svg xmlns="http://www.w3.org/2000/svg" width="1891" height="332" viewBox="0 0 1891 332">
  <g fill="none" fill-rule="evenodd">
    <rect width="1891" height="332" fill="#222"/>
    <path fill="#FFF" fill-rule="nonzero" d="M145.463257,269.0393 C161.527601,269.0393 175.409795,265.162501 187.109838,257.408901 C198.80988,249.655301 207.817056,237.978473 214.131365,222.378416 C220.445673,206.778359 223.602828,187.324717 223.602828,164.017489 C223.602828,140.617403 220.445673,121.094118 214.131365,105.447632 C207.817056,89.8011465 198.80988,78.0546751 187.109838,70.2082179 C175.409795,62.3617607 161.527601,58.4385321 145.463257,58.4385321 C121.413169,58.4385321 102.516672,67.2832072 88.7737645,84.9725575 C75.0308572,102.661908 68.1594036,129.010218 68.1594036,164.017489 C68.1594036,199.024759 75.0308572,225.280212 88.7737645,242.783848 C102.516672,260.287483 121.413169,269.0393 145.463257,269.0393 Z M145.463257,228.50701 C134.598932,228.50701 126.427473,223.051633 120.948882,212.140879 C115.47029,201.230124 112.730995,185.188995 112.730995,164.017489 C112.730995,142.845983 115.47029,126.711995 120.948882,115.615526 C126.427473,104.519057 134.598932,98.9708229 145.463257,98.9708229 C152.613283,98.9708229 158.672234,101.45476 163.640109,106.422636 C168.607984,111.390511 172.391927,118.703038 174.991936,128.360216 C177.591946,138.017394 178.89195,149.903152 178.89195,164.017489 C178.89195,185.188995 176.013368,201.230124 170.256205,212.140879 C164.499041,223.051633 156.234725,228.50701 145.463257,228.50701 Z M311.67813,265 L311.67813,62.4778326 L282.149451,62.4778326 C280.385159,66.4707043 278.388723,70.0921461 276.160143,73.3421579 C273.931564,76.5921698 271.447626,79.5403948 268.708331,82.1868331 C265.969035,84.8332713 262.951167,87.1547083 259.654726,89.1511442 C256.358285,91.14758 252.806487,92.8422291 248.99933,94.2350913 C245.192173,95.6279535 241.060015,96.7422433 236.602856,97.5779606 L236.602856,126.549495 L269.474405,126.549495 L269.474405,265 L311.67813,265 Z M487.643039,265 L494.60735,224.328423 L438.057144,224.328423 L438.057144,62.4778326 L408.528465,62.4778326 C406.392742,67.8635665 404.001662,72.6225124 401.355224,76.7546704 C398.708786,80.8868283 395.737346,84.5082701 392.440906,87.6189957 C389.144465,90.7297214 385.430166,93.399374 381.298008,95.6279535 C377.16585,97.8565331 372.54619,99.667254 367.439029,101.060116 C362.331867,102.452978 356.667561,103.567268 350.44611,104.402986 L350.44611,104.402986 L350.44611,132.678089 L395.853418,132.678089 L395.853418,224.328423 L336.099629,224.328423 L336.099629,265 L487.643039,265 Z M645.918597,265 L652.604336,227.671292 L558.775,227.672 L558.785426,227.159934 C558.829284,225.75197 558.979415,224.391238 559.235817,223.077739 L559.35221,222.517702 C560.048641,219.360548 562.579008,215.715892 566.943309,211.583734 C571.307611,207.451576 578.689781,202.181914 589.089819,195.774747 L589.089819,195.774747 L608.172031,183.796132 C619.500644,176.646106 628.275676,169.612152 634.497127,162.69427 C640.718578,155.776387 645.08288,148.742433 647.590032,141.592407 C650.097184,134.442381 651.35076,127.013782 651.35076,119.306611 C651.35076,107.513711 648.657893,97.1368876 643.272159,88.1761406 C637.886425,79.2153936 630.202469,72.2278681 620.220289,67.2135641 C610.23811,62.1992601 598.282709,59.6921081 584.354087,59.6921081 C572.839759,59.6921081 562.509364,61.7581871 553.362903,65.890345 C544.216441,70.022503 536.555698,75.8725243 530.380676,83.4404091 C524.205653,91.0082938 519.771709,99.9922552 517.078842,110.392293 L517.078842,110.392293 L554.825408,122.510194 C557.146845,113.967306 560.652215,107.652997 565.341518,103.567268 C570.03082,99.481539 576.182629,97.3922457 583.796942,97.2993882 C588.996961,97.2993882 593.523763,98.2047486 597.377349,100.01547 C601.230934,101.82619 604.202374,104.472629 606.291667,107.954784 C608.38096,111.43694 609.425607,115.638741 609.425607,120.560187 C609.425607,124.274487 608.729176,127.779857 607.336314,131.076297 C605.943451,134.372738 603.22737,137.854893 599.18807,141.522764 C595.148769,145.190634 589.136247,149.438864 581.150504,154.267453 L581.150504,154.267453 L563.461154,164.992492 C553.153973,171.213944 544.378941,178.062183 537.136058,185.53721 C529.893174,193.012237 524.34494,201.276553 520.491354,210.330158 C516.637769,219.383762 514.710976,229.435585 514.710976,240.485625 L514.710976,240.485625 L514.710976,265 L645.918597,265 Z M742.908218,267.785724 C758.508275,267.785724 772.065467,265.232144 783.579795,260.124982 C795.094123,255.017821 803.985226,247.774937 810.253106,238.396332 C816.520986,229.017726 819.654926,218.014114 819.654926,205.385497 C819.654926,196.564036 818.145992,188.694364 815.128124,181.776482 C812.110256,174.8586 807.653097,169.12465 801.756647,164.574634 C796.932279,160.851893 791.222119,158.123725 784.626168,156.390129 L784.415,156.337 L784.415,155.059 L784.944231,154.82069 C791.05198,152.014356 796.586475,147.674572 801.547718,141.801336 C807.862026,134.326309 811.019181,125.435205 811.019181,115.128025 C811.019181,103.985127 808.210242,94.2583057 802.592364,85.9475611 C796.974487,77.6368165 789.011958,71.1832215 778.704777,66.5867761 C768.397597,61.9903308 756.140409,59.6921081 741.933214,59.6921081 C727.633162,59.6921081 715.167045,62.5474757 704.534864,68.2582108 C693.902682,73.9689459 684.918721,82.0707612 677.58298,92.5636566 L707.529517,116.520887 C711.893819,109.928006 716.83848,104.96013 722.3635,101.617261 C727.88852,98.2743917 734.411758,96.6029571 741.933214,96.6029571 C747.597521,96.6029571 752.449324,97.4386744 756.488625,99.1101091 C760.527925,100.781544 763.638651,103.172624 765.820802,106.28335 C768.002952,109.394075 769.094028,113.08516 769.094028,117.356604 C769.094028,123.670913 766.842234,128.917361 762.338646,133.095947 C757.835058,137.274534 751.172534,139.363827 742.351073,139.363827 L733.297469,139.363827 L733.297469,176.553249 L742.908218,176.553249 C750.708246,176.553249 757.092198,177.737182 762.060074,180.105047 C767.027949,182.472913 770.672605,185.769354 772.994042,189.994369 C775.315479,194.219385 776.476198,199.164046 776.476198,204.828352 C776.476198,210.306943 775.152978,214.926603 772.50654,218.687331 C769.860102,222.448059 766.052945,225.303427 761.08507,227.253434 C756.117195,229.203441 750.151101,230.178444 743.18679,230.178444 C733.436755,230.178444 725.033153,227.76415 717.975984,222.935561 C710.918816,218.106972 704.233077,211.096232 697.918768,201.903341 L665.465078,227.532006 C674.565111,241.182056 685.406222,251.303521 697.988411,257.896403 C710.5706,264.489284 725.543869,267.785724 742.908218,267.785724 Z M975.562619,265 L975.562,230.458 L997.29127,230.457017 L997.29127,191.456875 L975.562,191.457 L975.562619,62.4778326 L946.312512,62.4778326 L835.301393,204.689066 L835.301393,230.457017 L933.916,230.458 L933.916039,265 L975.562619,265 Z M933.916,191.457 L891.015,191.457 L891.015,189.875 L932.278,137.136 L933.916,137.136 L933.916,191.457 Z M1081.74513,268.900014 C1098.36662,268.900014 1112.75953,265.696431 1124.92386,259.289265 C1137.08819,252.882099 1146.51322,244.014209 1153.19896,232.685596 C1159.8847,221.356984 1163.22757,208.310507 1163.22757,193.546168 C1163.22757,180.360405 1160.65078,168.567505 1155.49719,158.167467 C1150.34359,147.767429 1142.86857,139.572757 1133.0721,133.583449 C1123.27564,127.594142 1111.4131,124.599488 1097.48447,124.599488 C1086.063,124.599488 1075.87189,126.874496 1066.91115,131.424513 C1064.41047,132.694285 1062.00562,134.152082 1059.69659,135.797904 L1059.502,135.938 L1058.345,135.235 L1058.34505,101.477975 L1148.7418,101.477975 L1154.59182,62.4778326 L1017.25561,62.4778326 L1017.25561,162.48534 L1048.87358,176.692535 C1053.79503,170.935371 1059.20398,166.454998 1065.10043,163.251415 C1070.99688,160.047831 1077.47369,158.44604 1084.53085,158.44604 C1091.77374,158.44604 1098.06483,159.93176 1103.40414,162.903199 C1108.74344,165.874638 1112.8756,170.006796 1115.80061,175.299673 C1118.72562,180.592549 1120.18813,186.814 1120.18813,193.964027 C1120.18813,201.021195 1118.70241,207.31229 1115.73097,212.83731 C1112.75953,218.36233 1108.46487,222.680203 1102.84699,225.790928 C1097.22912,228.901654 1090.52016,230.457017 1082.72013,230.457017 C1073.71296,230.457017 1066.37722,228.576653 1060.71291,224.815925 C1055.0486,221.055197 1049.75573,215.506962 1044.83428,208.171221 L1011.54487,234.496317 C1019.53062,246.19636 1029.28065,254.85532 1040.79498,260.473198 C1052.30931,266.091075 1065.95936,268.900014 1081.74513,268.900014 Z M1260.91362,267.785724 C1276.97797,267.785724 1290.74409,264.512498 1302.21199,257.966046 C1313.67989,251.419593 1322.47813,242.551704 1328.60673,231.362377 C1334.73532,220.173051 1337.79962,207.614076 1337.79962,193.685454 C1337.79962,181.706839 1335.15318,170.656799 1329.8603,160.535333 C1324.56743,150.413868 1316.81383,142.288838 1306.5995,136.160244 C1296.38518,130.03165 1283.84942,126.967354 1268.99222,126.967354 C1261.47077,126.967354 1254.50646,128.104858 1248.09929,130.379866 C1241.69212,132.654874 1235.98139,136.160244 1230.96708,140.895976 C1228.96136,142.790268 1227.09307,144.896276 1225.36221,147.213999 L1225.286,147.318 L1224.063,146.987 L1224.10655,146.578714 C1225.59466,132.909928 1229.1583,122.008506 1234.79746,113.874449 C1242.4582,102.824408 1252.46359,97.2993882 1264.81364,97.2993882 C1272.24224,97.2993882 1278.74226,98.8083223 1284.31371,101.82619 C1289.88516,104.844059 1294.99232,109.649433 1299.63519,116.242314 L1329.58173,92.2850842 C1322.24599,81.8850462 1313.28524,73.8528741 1302.69949,68.1885677 C1292.11374,62.5242613 1279.76369,59.6921081 1265.64935,59.6921081 C1239.18497,59.6921081 1218.57061,69.1403569 1203.80627,88.0368544 C1189.04193,106.933352 1181.65976,134.024522 1181.65976,169.310365 C1181.65976,201.996199 1188.57764,226.580217 1202.41341,243.06242 C1216.24917,259.544623 1235.74924,267.785724 1260.91362,267.785724 Z M1261.19219,230.178444 C1251.16359,230.178444 1242.96891,227.067719 1236.60818,220.846267 C1230.24744,214.624816 1227.06707,206.174785 1227.06707,195.496175 C1227.06707,190.203299 1227.87957,185.467567 1229.50458,181.28898 C1231.12959,177.110394 1233.42781,173.558595 1236.39925,170.633584 C1239.37069,167.708574 1242.92249,165.45678 1247.05464,163.878203 C1251.1868,162.299625 1255.80646,161.510337 1260.91362,161.510337 C1267.78508,161.510337 1273.86724,162.903199 1279.16012,165.688923 C1284.45299,168.474648 1288.58515,172.421091 1291.55659,177.528252 C1294.52803,182.635414 1296.01375,188.624721 1296.01375,195.496175 C1296.01375,202.460486 1294.52803,208.542651 1291.55659,213.74267 C1288.58515,218.942689 1284.47621,222.98199 1279.22976,225.860571 C1273.98331,228.739153 1267.97079,230.178444 1261.19219,230.178444 Z M1431.30708,265 L1431.30708,249.957088 C1431.30708,234.449889 1432.09637,220.219479 1433.67495,207.265861 C1435.25353,194.312242 1438.10889,181.753268 1442.24105,169.588938 C1446.37321,157.424608 1452.3393,144.819204 1460.13933,131.772728 C1467.93936,118.726252 1478.0144,104.263699 1490.36444,88.3850699 L1490.36444,62.4778326 L1347.03892,62.4778326 L1347.03892,101.477975 L1437.296,101.478 L1437.296,103.058 L1436.73881,103.757573 C1428.91211,113.620371 1422.08723,123.260543 1416.26417,132.678089 C1408.74271,144.842419 1402.70698,157.076392 1398.15696,169.380008 C1393.60694,181.683625 1390.3105,194.428314 1388.26764,207.614076 C1386.22477,220.799839 1385.20334,234.914176 1385.20334,249.957088 L1385.20334,265 L1431.30708,265 Z M1570.36114,268.203583 C1586.14691,268.203583 1600.00589,265.603574 1611.93808,260.403555 C1623.87027,255.203536 1633.20244,247.84458 1639.93461,238.326688 C1646.66678,228.808797 1650.03286,217.549827 1650.03286,204.549779 C1650.03286,192.292592 1647.22392,181.892554 1641.60604,173.349666 C1635.98817,164.806777 1626.12206,157.563894 1612.00772,151.621015 L1612.00772,151.621015 L1612.00772,150.367439 C1620.3649,145.817422 1626.84171,140.037044 1631.43815,133.026304 C1636.0346,126.015564 1638.33282,118.053035 1638.33282,109.138717 C1638.33282,99.8529689 1635.63995,91.4725812 1630.25422,83.9975539 C1624.86848,76.5225267 1617.11488,70.5564335 1606.99342,66.0992744 C1596.87195,61.6421152 1584.66119,59.4135357 1570.36114,59.4135357 C1556.43252,59.4135357 1544.38426,61.7581871 1534.21637,66.4474899 C1524.04847,71.1367927 1516.20202,77.6600308 1510.677,86.0172042 C1505.15198,94.3743775 1502.38947,103.985127 1502.38947,114.849452 C1502.38947,124.1352 1504.57162,132.63166 1508.93592,140.338831 C1513.30022,148.046002 1519.80024,154.499597 1528.43599,159.699616 L1528.43599,159.699616 L1528.43599,161.092478 C1519.80024,163.97106 1512.69665,167.940717 1507.1252,173.00145 C1501.55375,178.062183 1497.42159,183.819347 1494.72872,190.272942 C1492.03586,196.726537 1490.68942,203.342632 1490.68942,210.121228 C1490.68942,221.635556 1493.86979,231.757022 1500.23053,240.485625 C1506.59127,249.214228 1515.73773,256.016039 1527.66991,260.891056 C1539.6021,265.766074 1553.83251,268.203583 1570.36114,268.203583 Z M1581.22547,140.75669 L1576.35045,139.503114 C1568.82899,137.553106 1562.83969,135.301313 1558.38253,132.747732 C1553.92537,130.194151 1550.72178,127.385212 1548.77178,124.320915 C1546.82177,121.256618 1545.84677,117.913749 1545.84677,114.292307 C1545.84677,110.856581 1546.75213,107.769069 1548.56285,105.029774 C1550.37357,102.290478 1553.06644,100.108327 1556.64145,98.4833211 C1560.21646,96.8583151 1564.69684,96.0458122 1570.08257,96.0458122 C1576.11831,96.0458122 1581.15582,96.9511726 1585.19512,98.7618935 C1589.23442,100.572614 1592.29872,103.056552 1594.38802,106.213706 C1596.47731,109.370861 1597.52196,112.992303 1597.52196,117.078032 C1597.52196,121.535191 1596.12909,125.853064 1593.34337,130.03165 C1590.55764,134.210237 1586.51834,137.78525 1581.22547,140.75669 L1581.22547,140.75669 Z M1570.22186,230.735589 C1563.16469,230.735589 1556.80395,229.7838 1551.13964,227.880222 C1545.47534,225.976643 1540.99496,223.028418 1537.69852,219.035547 C1534.40208,215.042675 1532.75386,209.889085 1532.75386,203.574776 C1532.75386,197.353325 1534.79673,191.689018 1538.88246,186.581857 C1542.96818,181.474695 1549.18964,177.203251 1557.54681,173.767524 L1557.54681,173.767524 L1564.78969,175.717531 C1575.83973,178.688971 1584.28976,181.613982 1590.13979,184.492563 C1595.98981,187.371145 1600.00589,190.505085 1602.18804,193.894383 C1604.37019,197.283682 1605.46127,201.253339 1605.46127,205.803355 C1605.46127,211.096232 1603.92912,215.59982 1600.86482,219.314119 C1597.80053,223.028418 1593.62194,225.860571 1588.32906,227.810579 C1583.03619,229.760586 1577.00045,230.735589 1570.22186,230.735589 Z M1732.676,267.785724 C1759.3261,267.785724 1780.07975,258.314261 1794.93694,239.371335 C1809.79414,220.428409 1817.22274,193.360453 1817.22274,158.167467 C1817.22274,125.481634 1810.30486,100.897616 1796.46909,84.4154126 C1782.63333,67.9332096 1763.13325,59.6921081 1737.96888,59.6921081 C1721.90453,59.6921081 1708.13841,62.9653344 1696.67051,69.5117868 C1685.20261,76.0582393 1676.40437,84.9029144 1670.27577,96.0458122 C1664.14718,107.18871 1661.08288,119.770899 1661.08288,133.792378 C1661.08288,145.678136 1663.72932,156.704962 1669.0222,166.872856 C1674.31507,177.040751 1682.09189,185.188995 1692.35264,191.317588 C1702.61339,197.446182 1715.12594,200.510479 1729.89028,200.510479 C1737.41173,200.510479 1744.37604,199.372975 1750.78321,197.097967 C1757.19038,194.822958 1762.90111,191.317588 1767.91542,186.581857 C1769.92114,184.687564 1771.78943,182.581556 1773.52029,180.263834 L1773.596,180.161 L1774.81,180.49 L1774.76625,180.899119 C1773.2601,194.567905 1769.65327,205.469326 1763.94576,213.603384 C1756.19216,224.653424 1746.04748,230.178444 1733.51172,230.178444 C1725.15454,230.178444 1717.88845,228.50701 1711.71342,225.16414 C1705.5384,221.821271 1699.85088,216.481966 1694.65086,209.146225 L1663.86861,233.939172 C1672.13292,245.639215 1681.72046,254.205318 1692.63121,259.63748 C1703.54197,265.069643 1716.89023,267.785724 1732.676,267.785724 Z M1737.96888,165.967496 C1731.09742,165.967496 1725.01526,164.574634 1719.72238,161.788909 C1714.42951,159.003185 1710.29735,155.056742 1707.32591,149.94958 C1704.35447,144.842419 1702.86875,138.853111 1702.86875,131.981658 C1702.86875,125.017346 1704.35447,118.935181 1707.32591,113.735162 C1710.29735,108.535143 1714.40629,104.495843 1719.65274,101.617261 C1724.89919,98.7386792 1730.91171,97.2993882 1737.6903,97.2993882 C1747.71891,97.2993882 1755.91359,100.386899 1762.27432,106.561922 C1768.63506,112.736945 1771.81543,121.21019 1771.81543,131.981658 C1771.81543,137.274534 1771.00293,142.010266 1769.37792,146.188852 C1767.75291,150.367439 1765.45469,153.919238 1762.48325,156.844248 C1759.51181,159.769259 1755.96001,162.021053 1751.82786,163.59963 C1747.6957,165.178207 1743.07604,165.967496 1737.96888,165.967496 Z"/>
    <line x1="1190.5" x2="1335.5" y1="300.5" y2="300.5" stroke="#FFA600" stroke-linecap="round" stroke-linejoin="round" stroke-width="2"/>
    <line x1="1503" x2="1648" y1="300.5" y2="300.5" stroke="#FFA600" stroke-linecap="round" stroke-linejoin="round" stroke-width="2"/>
    <line x1="1677" x2="1822" y1="300.5" y2="300.5" stroke="#FFA600" stroke-linecap="round" stroke-linejoin="round" stroke-width="2"/>
  </g>
</svg>
