<svg xmlns="http://www.w3.org/2000/svg" width="1891" height="728" viewBox="0 0 1891 728">
  <g fill="none" fill-rule="evenodd">
    <rect width="1891" height="728" fill="#222"/>
    <g fill-rule="nonzero" transform="translate(68.43 62.313)">
      <g fill="#FFF" transform="translate(5.452)">
        <polygon points="104.294 213.987 104.294 190.258 65.646 190.258 65.646 31.118 104.294 31.118 104.294 7.389 0 7.389 0 31.118 38.648 31.118 38.648 190.258 0 190.258 0 213.987"/>
        <path fill-opacity=".4" d="M193.242188,217.82373 C231.322266,217.82373 254.34082,200.0625 254.34082,171.502441 C254.34082,149.478516 242.547363,136.26416 208.445801,128.449219 L192.673828,124.754883 C170.081543,119.497559 163.82959,113.956055 163.82959,102.304688 C163.82959,88.8061523 174.912598,79.996582 194.378906,79.996582 C210.150879,79.996582 221.091797,86.2485352 230.327637,98.0419922 L247.094238,84.6855469 C235.158691,69.9082031 218.67627,60.6723633 194.378906,60.6723633 C161.698242,60.6723633 141.095215,78.2915039 141.095215,103.299316 C141.095215,126.033691 154.30957,138.111328 184.858887,145.21582 L200.20459,148.910156 C224.644043,154.45166 231.180176,160.987793 231.180176,173.06543 C231.180176,188.837402 216.971191,198.641602 194.236816,198.641602 C173.349609,198.641602 159.566895,190.116211 149.052246,173.20752 L131.575195,186.563965 C144.505371,207.735352 164.966309,217.82373 193.242188,217.82373 Z"/>
        <polygon points="320.839 213.987 320.839 0 294.979 0 294.979 213.987"/>
        <path fill-opacity=".4" d="M413.481445,216.829102 C437.068359,216.829102 454.6875,207.024902 463.070801,186.990234 L466.196777,186.990234 L468.186035,213.987305 L489.215332,213.987305 L489.215332,120.776367 C489.215332,81.1333008 467.191406,61.0986328 429.679688,61.0986328 C402.540527,61.0986328 383.784668,71.0449219 369.291504,89.2324219 L386.484375,104.009766 C397.141113,88.9482422 409.50293,81.84375 428.685059,81.84375 C451.135254,81.84375 463.92334,93.7792969 463.92334,118.64502 L463.92334,127.880859 L417.88623,127.880859 C381.084961,127.880859 362.613281,146.068359 362.613281,171.786621 C362.613281,198.925781 380.942871,216.829102 413.481445,216.829102 Z M420.728027,197.362793 C398.135742,197.362793 387.336914,186.137695 387.336914,170.791992 C387.336914,155.588379 396.856934,145.21582 420.443848,145.21582 L463.92334,145.21582 L463.92334,153.599121 C463.92334,179.885742 447.440918,197.362793 420.728027,197.362793 Z M565.091309,213.987305 L565.091309,122.055176 C565.091309,96.7631836 579.016113,82.2700195 603.029297,82.2700195 C627.04248,82.2700195 640.825195,95.3422852 640.825195,121.913086 L640.825195,213.987305 L666.543457,213.987305 L666.543457,120.634277 C666.543457,81.5595703 646.366699,61.0986328 611.838867,61.0986328 C588.251953,61.0986328 572.76416,72.1816406 565.091309,89.5166016 L562.249512,89.5166016 L561.112793,64.7929688 L539.373047,64.7929688 L539.373047,213.987305 L565.091309,213.987305 Z M768.848145,217.113281 C791.29834,217.113281 811.333008,207.024902 820.853027,182.01709 L823.694824,182.01709 L826.252441,213.987305 L847.565918,213.987305 L847.565918,0 L821.705566,0 L821.705566,94.0634766 L818.86377,94.0634766 C809.20166,71.8974609 791.29834,61.3828125 768.421875,61.3828125 C731.052246,61.3828125 705.333984,89.090332 705.333984,139.248047 C705.333984,189.547852 731.336426,217.113281 768.848145,217.113281 Z M776.520996,194.947266 C749.239746,194.947266 731.478516,176.333496 731.478516,139.248047 C731.478516,102.446777 748.955566,83.8330078 776.094727,83.8330078 C804.228516,83.8330078 821.705566,104.009766 821.705566,139.390137 C821.705566,174.486328 804.228516,194.947266 776.520996,194.947266 Z M1019.49463,213.987305 L1019.49463,135.695801 L1064.25293,135.695801 L1106.87988,213.987305 L1137.28711,213.987305 L1090.82373,132.427734 C1118.81543,124.328613 1134.5874,102.446777 1134.5874,71.3291016 C1134.5874,33.3911133 1109.01123,7.38867188 1064.82129,7.38867188 L992.497559,7.38867188 L992.497559,213.987305 L1019.49463,213.987305 Z M1063.68457,112.108887 L1019.49463,112.108887 L1019.49463,30.6914062 L1063.68457,30.6914062 C1092.24463,30.6914062 1107.44824,48.3105469 1107.44824,71.4711914 C1107.44824,96.1948242 1092.10254,112.108887 1063.68457,112.108887 Z M1209.89502,32.2543945 L1209.89502,0 L1175.50928,0 L1175.50928,32.2543945 L1209.89502,32.2543945 Z M1205.63232,213.987305 L1205.63232,64.6508789 L1179.77197,64.6508789 L1179.77197,213.987305 L1205.63232,213.987305 Z M1310.63672,217.113281 C1333.08691,217.113281 1353.12158,207.024902 1362.6416,182.01709 L1365.4834,182.01709 L1368.04102,213.987305 L1389.35449,213.987305 L1389.35449,0 L1363.49414,0 L1363.49414,94.0634766 L1360.65234,94.0634766 C1350.99023,71.8974609 1333.08691,61.3828125 1310.21045,61.3828125 C1272.84082,61.3828125 1247.12256,89.090332 1247.12256,139.248047 C1247.12256,189.547852 1273.125,217.113281 1310.63672,217.113281 Z M1318.30957,194.947266 C1291.02832,194.947266 1273.26709,176.333496 1273.26709,139.248047 C1273.26709,102.446777 1290.74414,83.8330078 1317.8833,83.8330078 C1346.01709,83.8330078 1363.49414,104.009766 1363.49414,139.390137 C1363.49414,174.486328 1346.01709,194.947266 1318.30957,194.947266 Z"/>
        <path d="M1537.12793,279.774902 C1565.68799,279.774902 1582.59668,263.008301 1582.59668,237.005859 C1582.59668,211.998047 1567.39307,196.936523 1540.25391,196.936523 L1479.43945,196.936523 C1467.78809,196.936523 1460.96777,190.400391 1460.96777,181.022461 C1460.96777,170.934082 1467.78809,164.397949 1480.00781,164.397949 L1496.06396,164.397949 C1533.2915,164.397949 1555.59961,144.931641 1555.59961,113.529785 L1555.59961,102.304688 C1555.59961,89.2324219 1560.57275,83.8330078 1572.22412,83.8330078 L1587.56982,83.8330078 L1587.56982,55.5571289 L1571.79785,55.5571289 C1554.88916,55.5571289 1546.79004,66.9243164 1550.2002,88.8061523 L1547.21631,88.8061523 C1537.12793,71.1870117 1518.94043,61.809082 1493.36426,61.809082 C1456.13672,61.809082 1432.12354,82.9804688 1432.12354,113.529785 C1432.12354,135.97998 1443.34863,152.604492 1464.23584,160.419434 L1464.23584,163.54541 C1445.90625,164.682129 1437.80713,175.480957 1437.80713,188.695312 C1437.80713,199.63623 1443.49072,207.735352 1453.29492,211.855957 L1453.29492,214.839844 C1434.11279,217.539551 1423.45605,228.906738 1423.45605,246.099609 C1423.45605,266.702637 1438.65967,279.774902 1464.8042,279.774902 L1537.12793,279.774902 Z M1493.79053,147.489258 C1471.48242,147.489258 1457.55762,134.274902 1457.55762,113.813965 C1457.55762,93.2109375 1471.34033,80.1386719 1493.79053,80.1386719 C1515.95654,80.1386719 1529.73926,93.2109375 1529.73926,113.813965 C1529.73926,134.274902 1515.81445,147.489258 1493.79053,147.489258 Z M1531.87061,259.740234 L1472.05078,259.740234 C1454.85791,259.740234 1445.90625,251.214844 1445.90625,239.137207 C1445.90625,226.775391 1454.28955,218.25 1472.19287,218.25 L1533.14941,218.25 C1549.34766,218.25 1556.73633,226.349121 1556.73633,238.426758 C1556.73633,250.930664 1548.21094,259.740234 1531.87061,259.740234 Z"/>
        <path fill-opacity=".4" d="M1673.81836,218.67627 C1699.11035,218.67627 1717.58203,210.719238 1732.21729,195.799805 L1717.15576,179.885742 C1706.35693,191.11084 1692.57422,197.220703 1674.10254,197.220703 C1642.13232,197.220703 1625.79199,177.896484 1624.65527,146.352539 L1740.03223,146.352539 C1744.29492,92.6425781 1717.72412,60.1040039 1671.40283,60.1040039 C1625.79199,60.1040039 1598.93701,92.5004883 1598.93701,139.816406 C1598.93701,187.132324 1624.65527,218.67627 1673.81836,218.67627 Z M1715.02441,128.307129 L1625.08154,128.307129 C1627.92334,98.8945312 1645.2583,81.2753906 1671.40283,81.2753906 C1696.979,81.2753906 1713.74561,97.4736328 1715.02441,128.307129 Z"/>
      </g>
      <g fill="#FFF" transform="translate(3.146 337.114)">
        <path fill-opacity=".4" d="M26.6601562,212.988281 L26.6601562,9.09494702e-13 L0,9.09494702e-13 L0,212.988281 L26.6601562,212.988281 Z M108.398438,216.796875 C145.898438,216.796875 168.75,199.951172 168.75,171.386719 C168.75,149.414063 156.005859,136.523438 124.804688,129.345703 L106.494141,125.097656 C86.1328125,120.556641 79.6875,114.111328 79.6875,103.564453 C79.6875,91.40625 90.6738281,83.9355469 108.398438,83.9355469 C124.365234,83.9355469 135.644531,90.234375 143.701172,101.953125 L161.865234,88.1835938 C150,71.1914063 132.128906,62.4023438 108.691406,62.4023438 C75.7324219,62.4023438 55.6640625,79.2480469 55.6640625,104.589844 C55.6640625,125.976563 68.4082031,139.306641 96.8261719,146.191406 L115.283203,150.585938 C137.695312,156.005859 144.580078,161.572266 144.580078,173.291016 C144.580078,187.060547 131.982422,195.263672 108.837891,195.263672 C89.5019531,195.263672 76.171875,187.060547 65.3320312,171.240234 L46.4355469,185.449219 C60.7910156,206.835938 81.1523438,216.796875 108.398438,216.796875 Z M237.597656,212.988281 L237.597656,190.722656 L230.566406,190.722656 C221.923828,190.722656 217.96875,186.328125 217.96875,177.099609 L217.96875,9.09494702e-13 L192.919922,9.09494702e-13 L192.919922,179.443359 C192.919922,202.587891 203.759766,212.988281 224.414062,212.988281 L237.597656,212.988281 Z M302.636719,215.625 C329.589844,215.625 346.435547,205.810547 355.810547,187.5 L356.542969,187.5 L358.007812,212.988281 L378.076172,212.988281 L378.076172,125.683594 C378.076172,85.8398438 356.982422,62.8417969 318.164062,62.8417969 C294.140625,62.8417969 274.951172,72.8027344 262.060547,91.8457031 L280.371094,105.615234 C289.599609,92.578125 301.318359,85.2539063 318.164062,85.2539063 C340.722656,85.2539063 353.759766,99.1699219 353.759766,122.314453 L353.759766,126.416016 L306.152344,126.416016 C271.875,126.416016 251.367188,143.554688 251.367188,171.240234 C251.367188,198.486328 270.996094,215.625 302.636719,215.625 Z M307.324219,195.410156 C287.109375,195.410156 275.097656,186.181641 275.097656,170.361328 C275.097656,155.126953 286.962891,146.044922 308.056641,146.044922 L353.759766,146.044922 L353.759766,151.611328 C353.759766,178.271484 335.595703,195.410156 307.324219,195.410156 Z M434.033203,212.988281 L434.033203,127.001953 C434.033203,98.8769531 448.828125,83.7890625 472.998047,83.7890625 C497.167969,83.7890625 512.109375,97.9980469 512.109375,126.5625 L512.109375,212.988281 L537.011719,212.988281 L537.011719,125.537109 C537.011719,84.9609375 515.771484,62.4023438 479.589844,62.4023438 C454.833984,62.4023438 439.599609,73.0957031 431.25,89.6484375 L430.664062,89.6484375 L429.199219,66.3574219 L408.984375,66.3574219 L408.984375,212.988281 L434.033203,212.988281 Z M631.933594,216.650391 C658.740234,216.650391 674.853516,205.810547 685.986328,185.595703 L686.71875,185.595703 L688.183594,212.988281 L709.716797,212.988281 L709.716797,9.09494702e-13 L684.667969,9.09494702e-13 L684.667969,89.9414063 L684.082031,89.9414063 C673.388672,73.828125 656.982422,63.28125 631.787109,63.28125 C592.236328,63.28125 563.085938,91.8457031 563.085938,139.599609 C563.085938,187.353516 592.675781,216.650391 631.933594,216.650391 Z M636.767578,194.970703 C608.789062,194.970703 589.013672,173.144531 589.013672,139.746094 C589.013672,106.347656 608.496094,84.8144531 636.914062,84.8144531 C665.478516,84.8144531 684.960938,105.46875 684.960938,139.746094 C684.960938,173.291016 664.746094,194.970703 636.767578,194.970703 Z"/>
        <path d="M839.0625,212.988281 L839.0625,128.613281 L877.294922,128.613281 C897.216797,128.613281 907.177734,135.351563 913.183594,151.757813 L923.876953,181.054688 C933.251953,204.931641 943.359375,212.988281 968.701172,212.988281 L976.171875,212.988281 L976.171875,188.232422 L972.363281,188.232422 C957.128906,188.232422 952.880859,184.570313 947.314453,168.457031 L937.939453,142.089844 C934.277344,130.664063 927.099609,123.486328 914.0625,120.556641 L914.0625,119.677734 C945.996094,112.939453 962.988281,93.75 962.988281,62.6953125 C962.988281,23.2910156 937.207031,9.09494702e-13 888.134766,9.09494702e-13 L812.548828,9.09494702e-13 L812.548828,212.988281 L839.0625,212.988281 Z M884.619141,106.347656 L839.0625,106.347656 L839.0625,22.8515625 L886.816406,22.8515625 C918.75,22.8515625 936.328125,37.7929688 936.328125,64.453125 C936.328125,91.6992188 918.603516,106.347656 884.619141,106.347656 Z"/>
        <path fill-opacity=".4" d="M1023.92578,27.3925781 L1023.92578,9.09494702e-13 L995.068359,9.09494702e-13 L995.068359,27.3925781 L1023.92578,27.3925781 Z M1020.84961,212.988281 L1020.84961,66.3574219 L995.800781,66.3574219 L995.800781,212.988281 L1020.84961,212.988281 Z M1116.79687,216.650391 C1143.60352,216.650391 1159.7168,205.810547 1170.84961,185.595703 L1171.58203,185.595703 L1173.04687,212.988281 L1194.58008,212.988281 L1194.58008,9.09494702e-13 L1169.53125,9.09494702e-13 L1169.53125,89.9414063 L1168.94531,89.9414063 C1158.25195,73.828125 1141.8457,63.28125 1116.65039,63.28125 C1077.09961,63.28125 1047.94922,91.8457031 1047.94922,139.599609 C1047.94922,187.353516 1077.53906,216.650391 1116.79687,216.650391 Z M1121.63086,194.970703 C1093.65234,194.970703 1073.87695,173.144531 1073.87695,139.746094 C1073.87695,106.347656 1093.35937,84.8144531 1121.77734,84.8144531 C1150.3418,84.8144531 1169.82422,105.46875 1169.82422,139.746094 C1169.82422,173.291016 1149.60937,194.970703 1121.63086,194.970703 Z M1311.18164,263.671875 C1347.36328,263.671875 1366.40625,243.017578 1366.40625,208.59375 L1366.40625,66.3574219 L1346.04492,66.3574219 L1344.43359,92.8710938 L1343.70117,92.8710938 C1333.1543,73.828125 1315.72266,63.1347656 1288.91602,63.1347656 C1250.09766,63.1347656 1221.67969,91.1132813 1221.67969,135.351563 C1221.67969,179.589844 1249.95117,206.982422 1288.33008,206.982422 C1315.86914,206.982422 1330.66406,196.142578 1340.625,180.029297 L1341.50391,180.029297 L1341.50391,209.033203 C1341.50391,230.126953 1330.22461,242.138672 1309.27734,242.285156 L1281.15234,242.285156 L1281.15234,242.285156 C1262.40234,242.285156 1254.3457,235.693359 1249.51172,220.3125 L1227.68555,230.859375 C1235.30273,255.029297 1249.95117,263.671875 1279.39453,263.671875 L1311.18164,263.671875 Z M1294.48242,186.181641 C1266.50391,186.181641 1247.02148,165.820313 1246.875,135.644531 C1246.875,105.46875 1265.33203,84.8136507 1293.89648,84.8136507 C1321.72852,84.6679688 1341.50391,104.589844 1341.50391,134.912109 C1341.50391,165.234375 1322.46094,186.035156 1294.48242,186.181641 Z M1467.77344,217.382813 C1495.01953,217.382813 1516.69922,206.25 1528.85742,186.474609 L1510.69336,173.291016 C1502.49023,187.792969 1487.8418,195.996094 1467.77344,195.996094 C1438.03711,195.996094 1419.43359,177.978516 1417.82227,147.802734 L1537.5,147.802734 C1541.45508,95.6542969 1513.76953,61.9628906 1466.60156,61.9628906 C1421.77734,61.9628906 1392.48047,93.75 1392.48047,140.478516 C1392.48047,187.060547 1421.63086,217.382813 1467.77344,217.382813 Z M1513.33008,127.441406 L1418.4082,127.441406 C1421.92383,99.9023438 1439.50195,83.3496094 1466.60156,83.3496094 C1493.99414,83.3496094 1511.13281,99.9023438 1513.33008,127.441406 Z"/>
      </g>
      <path fill="#FFA600" d="M2.70410156 264.842727L2.70410156 258.558547 2.84375 258.558547 7.59814453 264.842727 8.65820312 264.842727 8.65820312 255.613235 7.19824219 255.613235 7.19824219 261.903762 7.07128906 261.903762 2.31054688 255.613235 1.24414062 255.613235 1.24414062 264.842727 2.70410156 264.842727zM12.9050781 264.842727L13.5842773 263.008254 17.5579102 263.008254 18.2371094 264.842727 19.8938477 264.842727 16.1550781 255.581496 15.0569336 255.581496 11.3181641 264.842727 12.9050781 264.842727zM17.1072266 261.789504L14.0349609 261.789504 15.4758789 257.898391 15.6726562 257.898391 17.1072266 261.789504zM23.9693359 264.842727L23.9693359 259.09175 24.115332 259.09175 26.7115234 264.842727 27.6319336 264.842727 30.228125 259.09175 30.3741211 259.09175 30.3741211 264.842727 31.7833008 264.842727 31.7833008 255.613235 30.4566406 255.613235 27.2637695 262.646438 27.1304687 262.646438 23.9185547 255.613235 22.5538086 255.613235 22.5538086 264.842727 23.9693359 264.842727zM41.603418 264.842727L41.603418 263.585891 36.9378906 263.585891 36.9378906 260.735793 39.7625977 260.735793 39.7625977 259.491652 36.9378906 259.491652 36.9378906 256.87007 41.4383789 256.87007 41.4383789 255.613235 35.471582 255.613235 35.471582 264.842727 41.603418 264.842727zM52.2617188 265.020461C54.4389648 265.020461 55.6450195 263.827102 55.6450195 262.246535 55.6450195 260.919875 55.0102539 260.139113 53.3535156 259.593215L52.0585938 259.167922C51.074707 258.844192 50.7700195 258.49507 50.7700195 257.885695 50.7700195 257.206496 51.296875 256.660598 52.4331055 256.660598 53.2900391 256.660598 53.8232422 257.016067 54.2358398 257.606399L55.3657227 256.908156C54.7563477 256.019485 53.8930664 255.4355 52.4458008 255.4355 50.5541992 255.4355 49.3925781 256.501906 49.3925781 257.930129 49.3925781 259.206008 50.078125 259.980422 51.4047852 260.412063L52.737793 260.850051C53.8994141 261.23091 54.2294922 261.687942 54.2294922 262.367141 54.2294922 263.185988 53.5566406 263.782668 52.2617188 263.782668 51.1572266 263.782668 50.5224609 263.357375 50.0146484 262.519485L48.8657227 263.205031C49.5258789 264.373 50.5097656 265.020461 52.2617188 265.020461zM59.1238281 264.842727L59.8030273 263.008254 63.7766602 263.008254 64.4558594 264.842727 66.1125977 264.842727 62.3738281 255.581496 61.2756836 255.581496 57.5369141 264.842727 59.1238281 264.842727zM63.3259766 261.789504L60.2537109 261.789504 61.6946289 257.898391 61.8914063 257.898391 63.3259766 261.789504zM70.2325195 264.842727L70.2325195 258.558547 70.372168 258.558547 75.1265625 264.842727 76.1866211 264.842727 76.1866211 255.613235 74.7266602 255.613235 74.7266602 261.903762 74.599707 261.903762 69.8389648 255.613235 68.7725586 255.613235 68.7725586 264.842727 70.2325195 264.842727zM82.2743164 265.020461C84.4515625 265.020461 85.6576172 263.827102 85.6576172 262.246535 85.6576172 260.919875 85.0228516 260.139113 83.3661133 259.593215L82.0711914 259.167922C81.0873047 258.844192 80.7826172 258.49507 80.7826172 257.885695 80.7826172 257.206496 81.3094727 256.660598 82.4457031 256.660598 83.3026367 256.660598 83.8358398 257.016067 84.2484375 257.606399L85.3783203 256.908156C84.7689453 256.019485 83.9056641 255.4355 82.4583984 255.4355 80.5667969 255.4355 79.4051758 256.501906 79.4051758 257.930129 79.4051758 259.206008 80.0907227 259.980422 81.4173828 260.412063L82.7503906 260.850051C83.9120117 261.23091 84.2420898 261.687942 84.2420898 262.367141 84.2420898 263.185988 83.5692383 263.782668 82.2743164 263.782668 81.1698242 263.782668 80.5350586 263.357375 80.0272461 262.519485L78.8783203 263.205031C79.5384766 264.373 80.5223633 265.020461 82.2743164 265.020461zM97.4711914 264.842727L97.4711914 256.895461 100.321289 256.895461 100.321289 255.613235 93.1230469 255.613235 93.1230469 256.895461 95.9921875 256.895461 95.9921875 264.842727 97.4711914 264.842727zM109.468555 264.842727L109.468555 263.585891 104.803027 263.585891 104.803027 260.735793 107.627734 260.735793 107.627734 259.491652 104.803027 259.491652 104.803027 256.87007 109.303516 256.87007 109.303516 255.613235 103.336719 255.613235 103.336719 264.842727 109.468555 264.842727zM113.429785 264.842727L115.613379 261.199172 115.810156 261.199172 118.196875 264.842727 119.910742 264.842727 116.743262 260.069289 119.707617 255.613235 118.025488 255.613235 116.064063 258.98384 115.873633 258.98384 113.690039 255.613235 111.957129 255.613235 114.921484 260.069289 111.715918 264.842727 113.429785 264.842727zM126.366602 264.842727L126.366602 256.895461 129.216699 256.895461 129.216699 255.613235 122.018457 255.613235 122.018457 256.895461 124.887598 256.895461 124.887598 264.842727 126.366602 264.842727zM131.622754 267.058059L132.517773 265.045852 132.517773 262.970168 130.581738 262.970168 130.581738 264.842727 131.47041 264.842727 131.483105 264.893508 130.524609 267.058059 131.622754 267.058059zM144.179004 264.842727L146.470508 258.133254 146.629199 258.133254 148.927051 264.842727 149.987109 264.842727 152.96416 255.613235 151.351855 255.613235 149.530078 262.062453 149.352344 262.062453 147.105273 255.613235 146.070605 255.613235 143.861621 262.049758 143.683887 262.049758 141.836719 255.613235 140.148242 255.613235 143.137988 264.842727 144.179004 264.842727zM157.280859 264.842727L157.280859 255.613235 155.814551 255.613235 155.814551 264.842727 157.280859 264.842727zM164.70791 264.842727L164.70791 256.895461 167.558008 256.895461 167.558008 255.613235 160.359766 255.613235 160.359766 256.895461 163.228906 256.895461 163.228906 264.842727 164.70791 264.842727zM172.039746 264.842727L172.039746 260.837356 176.400586 260.837356 176.400586 264.842727 177.866895 264.842727 177.866895 255.613235 176.400586 255.613235 176.400586 259.542434 172.039746 259.542434 172.039746 255.613235 170.573437 255.613235 170.573437 264.842727 172.039746 264.842727zM190.531055 265.020461C193.222461 265.020461 195.018848 263.141555 195.018848 260.240676 195.018848 257.339797 193.222461 255.4355 190.531055 255.4355 187.839648 255.4355 186.081348 257.339797 186.081348 260.240676 186.081348 263.141555 187.845996 265.020461 190.531055 265.020461zM190.531055 263.66841C188.645801 263.66841 187.566699 262.354445 187.566699 260.240676 187.566699 258.133254 188.639453 256.787551 190.531055 256.787551 192.422656 256.787551 193.533496 258.133254 193.533496 260.240676 193.533496 262.354445 192.416309 263.66841 190.531055 263.66841zM199.595801 264.842727L199.595801 261.522902 201.366797 261.522902C203.385352 261.522902 204.566016 260.386672 204.566016 258.558547 204.566016 256.787551 203.385352 255.613235 201.354102 255.613235L198.123145 255.613235 198.123145 264.842727 199.595801 264.842727zM201.284277 260.253371L199.595801 260.253371 199.595801 256.876418 201.284277 256.876418C202.477637 256.876418 203.093359 257.593703 203.093359 258.571242 203.093359 259.586867 202.471289 260.253371 201.284277 260.253371zM211.301172 264.842727L211.301172 256.895461 214.15127 256.895461 214.15127 255.613235 206.953027 255.613235 206.953027 256.895461 209.822168 256.895461 209.822168 264.842727 211.301172 264.842727zM218.70918 264.842727L218.70918 255.613235 217.242871 255.613235 217.242871 264.842727 218.70918 264.842727zM226.333008 265.020461C229.024414 265.020461 230.820801 263.141555 230.820801 260.240676 230.820801 257.339797 229.024414 255.4355 226.333008 255.4355 223.641602 255.4355 221.883301 257.339797 221.883301 260.240676 221.883301 263.141555 223.647949 265.020461 226.333008 265.020461zM226.333008 263.66841C224.447754 263.66841 223.368652 262.354445 223.368652 260.240676 223.368652 258.133254 224.441406 256.787551 226.333008 256.787551 228.224609 256.787551 229.335449 258.133254 229.335449 260.240676 229.335449 262.354445 228.218262 263.66841 226.333008 263.66841zM235.385059 264.842727L235.385059 258.558547 235.524707 258.558547 240.279102 264.842727 241.33916 264.842727 241.33916 255.613235 239.879199 255.613235 239.879199 261.903762 239.752246 261.903762 234.991504 255.613235 233.925098 255.613235 233.925098 264.842727 235.385059 264.842727zM245.586035 264.842727L246.265234 263.008254 250.238867 263.008254 250.918066 264.842727 252.574805 264.842727 248.836035 255.581496 247.737891 255.581496 243.999121 264.842727 245.586035 264.842727zM249.788184 261.789504L246.715918 261.789504 248.156836 257.898391 248.353613 257.898391 249.788184 261.789504zM260.947656 264.842727L260.947656 263.528762 256.701074 263.528762 256.701074 255.613235 255.234766 255.613235 255.234766 264.842727 260.947656 264.842727zM272.799316 264.842727L272.799316 256.895461 275.649414 256.895461 275.649414 255.613235 268.451172 255.613235 268.451172 256.895461 271.320312 256.895461 271.320312 264.842727 272.799316 264.842727zM284.79668 264.842727L284.79668 263.585891 280.131152 263.585891 280.131152 260.735793 282.955859 260.735793 282.955859 259.491652 280.131152 259.491652 280.131152 256.87007 284.631641 256.87007 284.631641 255.613235 278.664844 255.613235 278.664844 264.842727 284.79668 264.842727zM288.75791 264.842727L290.941504 261.199172 291.138281 261.199172 293.525 264.842727 295.238867 264.842727 292.071387 260.069289 295.035742 255.613235 293.353613 255.613235 291.392187 258.98384 291.201758 258.98384 289.018164 255.613235 287.285254 255.613235 290.249609 260.069289 287.044043 264.842727 288.75791 264.842727zM301.694727 264.842727L301.694727 256.895461 304.544824 256.895461 304.544824 255.613235 297.346582 255.613235 297.346582 256.895461 300.215723 256.895461 300.215723 264.842727 301.694727 264.842727zM309.889844 261.630813L309.889844 260.3105 305.86543 260.3105 305.86543 261.630813 309.889844 261.630813zM315.40625 265.020461C317.583496 265.020461 318.789551 263.827102 318.789551 262.246535 318.789551 260.919875 318.154785 260.139113 316.498047 259.593215L315.203125 259.167922C314.219238 258.844192 313.914551 258.49507 313.914551 257.885695 313.914551 257.206496 314.441406 256.660598 315.577637 256.660598 316.43457 256.660598 316.967773 257.016067 317.380371 257.606399L318.510254 256.908156C317.900879 256.019485 317.037598 255.4355 315.590332 255.4355 313.69873 255.4355 312.537109 256.501906 312.537109 257.930129 312.537109 259.206008 313.222656 259.980422 314.549316 260.412063L315.882324 260.850051C317.043945 261.23091 317.374023 261.687942 317.374023 262.367141 317.374023 263.185988 316.701172 263.782668 315.40625 263.782668 314.301758 263.782668 313.666992 263.357375 313.15918 262.519485L312.010254 263.205031C312.67041 264.373 313.654297 265.020461 315.40625 265.020461zM323.303027 264.842727L323.303027 261.522902 325.074023 261.522902C327.092578 261.522902 328.273242 260.386672 328.273242 258.558547 328.273242 256.787551 327.092578 255.613235 325.061328 255.613235L321.830371 255.613235 321.830371 264.842727 323.303027 264.842727zM324.991504 260.253371L323.303027 260.253371 323.303027 256.876418 324.991504 256.876418C326.184863 256.876418 326.800586 257.593703 326.800586 258.571242 326.800586 259.586867 326.178516 260.253371 324.991504 260.253371zM337.471289 264.842727L337.471289 263.585891 332.805762 263.585891 332.805762 260.735793 335.630469 260.735793 335.630469 259.491652 332.805762 259.491652 332.805762 256.87007 337.30625 256.87007 337.30625 255.613235 331.339453 255.613235 331.339453 264.842727 337.471289 264.842727zM343.927148 265.026809C345.62832 265.026809 346.682031 264.398391 347.507227 263.052688L346.294824 262.322707C345.799707 263.185988 345.050684 263.655715 343.927148 263.655715 342.1625 263.655715 341.077051 262.252883 341.077051 260.240676 341.077051 258.222121 342.1625 256.800246 343.927148 256.800246 345.037988 256.800246 345.755273 257.263625 346.269434 258.139602L347.519922 257.384231C346.669336 255.994094 345.577539 255.429152 343.927148 255.429152 341.356348 255.429152 339.591699 257.365188 339.591699 260.240676 339.591699 263.116164 341.356348 265.026809 343.927148 265.026809zM352.173047 264.842727L352.173047 255.613235 350.706738 255.613235 350.706738 264.842727 352.173047 264.842727zM357.378418 264.842727L357.378418 261.33882 360.552246 261.33882 360.552246 260.062942 357.378418 260.062942 357.378418 256.882766 361.897949 256.882766 361.897949 255.613235 355.931152 255.613235 355.931152 264.842727 357.378418 264.842727zM366.411426 264.842727L366.411426 255.613235 364.945117 255.613235 364.945117 264.842727 366.411426 264.842727zM373.920996 265.026809C375.622168 265.026809 376.675879 264.398391 377.501074 263.052688L376.288672 262.322707C375.793555 263.185988 375.044531 263.655715 373.920996 263.655715 372.156348 263.655715 371.070898 262.252883 371.070898 260.240676 371.070898 258.222121 372.156348 256.800246 373.920996 256.800246 375.031836 256.800246 375.749121 257.263625 376.263281 258.139602L377.51377 257.384231C376.663184 255.994094 375.571387 255.429152 373.920996 255.429152 371.350195 255.429152 369.585547 257.365188 369.585547 260.240676 369.585547 263.116164 371.350195 265.026809 373.920996 265.026809zM387.175488 264.842727L387.175488 261.33882 390.349316 261.33882 390.349316 260.062942 387.175488 260.062942 387.175488 256.882766 391.69502 256.882766 391.69502 255.613235 385.728223 255.613235 385.728223 264.842727 387.175488 264.842727zM398.28418 265.020461C400.975586 265.020461 402.771973 263.141555 402.771973 260.240676 402.771973 257.339797 400.975586 255.4355 398.28418 255.4355 395.592773 255.4355 393.834473 257.339797 393.834473 260.240676 393.834473 263.141555 395.599121 265.020461 398.28418 265.020461zM398.28418 263.66841C396.398926 263.66841 395.319824 262.354445 395.319824 260.240676 395.319824 258.133254 396.392578 256.787551 398.28418 256.787551 400.175781 256.787551 401.286621 258.133254 401.286621 260.240676 401.286621 262.354445 400.169434 263.66841 398.28418 263.66841zM407.342578 264.842727L407.342578 261.440383 409.145312 261.440383 410.897266 264.842727 412.547656 264.842727 410.579883 261.237258C411.747852 260.837356 412.40166 259.866164 412.40166 258.514113 412.40166 256.768508 411.240039 255.613235 409.23418 255.613235L405.87627 255.613235 405.87627 264.842727 407.342578 264.842727zM409.164355 260.158156L407.342578 260.158156 407.342578 256.876418 409.164355 256.876418C410.325977 256.876418 410.929004 257.581008 410.929004 258.526809 410.929004 259.517043 410.319629 260.158156 409.164355 260.158156zM417.048437 264.842727L417.048437 259.09175 417.194434 259.09175 419.790625 264.842727 420.711035 264.842727 423.307227 259.09175 423.453223 259.09175 423.453223 264.842727 424.862402 264.842727 424.862402 255.613235 423.535742 255.613235 420.342871 262.646438 420.20957 262.646438 416.997656 255.613235 415.63291 255.613235 415.63291 264.842727 417.048437 264.842727zM430.950098 265.020461C433.127344 265.020461 434.333398 263.827102 434.333398 262.246535 434.333398 260.919875 433.698633 260.139113 432.041895 259.593215L430.746973 259.167922C429.763086 258.844192 429.458398 258.49507 429.458398 257.885695 429.458398 257.206496 429.985254 256.660598 431.121484 256.660598 431.978418 256.660598 432.511621 257.016067 432.924219 257.606399L434.054102 256.908156C433.444727 256.019485 432.581445 255.4355 431.13418 255.4355 429.242578 255.4355 428.080957 256.501906 428.080957 257.930129 428.080957 259.206008 428.766504 259.980422 430.093164 260.412063L431.426172 260.850051C432.587793 261.23091 432.917871 261.687942 432.917871 262.367141 432.917871 263.185988 432.24502 263.782668 430.950098 263.782668 429.845605 263.782668 429.21084 263.357375 428.703027 262.519485L427.554102 263.205031C428.214258 264.373 429.198145 265.020461 430.950098 265.020461zM2.70410156 601.957727L2.70410156 595.673547 2.84375 595.673547 7.59814453 601.957727 8.65820312 601.957727 8.65820312 592.728235 7.19824219 592.728235 7.19824219 599.018762 7.07128906 599.018762 2.31054688 592.728235 1.24414062 592.728235 1.24414062 601.957727 2.70410156 601.957727zM12.9050781 601.957727L13.5842773 600.123254 17.5579102 600.123254 18.2371094 601.957727 19.8938477 601.957727 16.1550781 592.696496 15.0569336 592.696496 11.3181641 601.957727 12.9050781 601.957727zM17.1072266 598.904504L14.0349609 598.904504 15.4758789 595.013391 15.6726562 595.013391 17.1072266 598.904504zM23.9693359 601.957727L23.9693359 596.20675 24.115332 596.20675 26.7115234 601.957727 27.6319336 601.957727 30.228125 596.20675 30.3741211 596.20675 30.3741211 601.957727 31.7833008 601.957727 31.7833008 592.728235 30.4566406 592.728235 27.2637695 599.761438 27.1304687 599.761438 23.9185547 592.728235 22.5538086 592.728235 22.5538086 601.957727 23.9693359 601.957727zM41.603418 601.957727L41.603418 600.700891 36.9378906 600.700891 36.9378906 597.850793 39.7625977 597.850793 39.7625977 596.606652 36.9378906 596.606652 36.9378906 593.98507 41.4383789 593.98507 41.4383789 592.728235 35.471582 592.728235 35.471582 601.957727 41.603418 601.957727zM52.2617188 602.135461C54.4389648 602.135461 55.6450195 600.942102 55.6450195 599.361535 55.6450195 598.034875 55.0102539 597.254113 53.3535156 596.708215L52.0585938 596.282922C51.074707 595.959192 50.7700195 595.61007 50.7700195 595.000695 50.7700195 594.321496 51.296875 593.775598 52.4331055 593.775598 53.2900391 593.775598 53.8232422 594.131067 54.2358398 594.721399L55.3657227 594.023156C54.7563477 593.134485 53.8930664 592.5505 52.4458008 592.5505 50.5541992 592.5505 49.3925781 593.616906 49.3925781 595.045129 49.3925781 596.321008 50.078125 597.095422 51.4047852 597.527063L52.737793 597.965051C53.8994141 598.34591 54.2294922 598.802942 54.2294922 599.482141 54.2294922 600.300988 53.5566406 600.897668 52.2617188 600.897668 51.1572266 600.897668 50.5224609 600.472375 50.0146484 599.634485L48.8657227 600.320031C49.5258789 601.488 50.5097656 602.135461 52.2617188 602.135461zM59.1238281 601.957727L59.8030273 600.123254 63.7766602 600.123254 64.4558594 601.957727 66.1125977 601.957727 62.3738281 592.696496 61.2756836 592.696496 57.5369141 601.957727 59.1238281 601.957727zM63.3259766 598.904504L60.2537109 598.904504 61.6946289 595.013391 61.8914063 595.013391 63.3259766 598.904504zM70.2325195 601.957727L70.2325195 595.673547 70.372168 595.673547 75.1265625 601.957727 76.1866211 601.957727 76.1866211 592.728235 74.7266602 592.728235 74.7266602 599.018762 74.599707 599.018762 69.8389648 592.728235 68.7725586 592.728235 68.7725586 601.957727 70.2325195 601.957727zM82.2743164 602.135461C84.4515625 602.135461 85.6576172 600.942102 85.6576172 599.361535 85.6576172 598.034875 85.0228516 597.254113 83.3661133 596.708215L82.0711914 596.282922C81.0873047 595.959192 80.7826172 595.61007 80.7826172 595.000695 80.7826172 594.321496 81.3094727 593.775598 82.4457031 593.775598 83.3026367 593.775598 83.8358398 594.131067 84.2484375 594.721399L85.3783203 594.023156C84.7689453 593.134485 83.9056641 592.5505 82.4583984 592.5505 80.5667969 592.5505 79.4051758 593.616906 79.4051758 595.045129 79.4051758 596.321008 80.0907227 597.095422 81.4173828 597.527063L82.7503906 597.965051C83.9120117 598.34591 84.2420898 598.802942 84.2420898 599.482141 84.2420898 600.300988 83.5692383 600.897668 82.2743164 600.897668 81.1698242 600.897668 80.5350586 600.472375 80.0272461 599.634485L78.8783203 600.320031C79.5384766 601.488 80.5223633 602.135461 82.2743164 602.135461zM96.7094727 601.957727C99.546875 601.957727 101.317871 600.24386 101.317871 597.355676 101.317871 594.467492 99.546875 592.728235 96.6967773 592.728235L93.8022461 592.728235 93.8022461 601.957727 96.7094727 601.957727zM96.7158203 600.592981L95.2685547 600.592981 95.2685547 594.092981 96.7158203 594.092981C98.7026367 594.092981 99.8325195 595.222863 99.8325195 597.349328 99.8325195 599.475793 98.7026367 600.592981 96.7158203 600.592981zM105.964648 601.957727L105.964648 592.728235 104.49834 592.728235 104.49834 601.957727 105.964648 601.957727zM112.122168 602.135461C114.299414 602.135461 115.505469 600.942102 115.505469 599.361535 115.505469 598.034875 114.870703 597.254113 113.213965 596.708215L111.919043 596.282922C110.935156 595.959192 110.630469 595.61007 110.630469 595.000695 110.630469 594.321496 111.157324 593.775598 112.293555 593.775598 113.150488 593.775598 113.683691 594.131067 114.096289 594.721399L115.226172 594.023156C114.616797 593.134485 113.753516 592.5505 112.30625 592.5505 110.414648 592.5505 109.253027 593.616906 109.253027 595.045129 109.253027 596.321008 109.938574 597.095422 111.265234 597.527063L112.598242 597.965051C113.759863 598.34591 114.089941 598.802942 114.089941 599.482141 114.089941 600.300988 113.41709 600.897668 112.122168 600.897668 111.017676 600.897668 110.38291 600.472375 109.875098 599.634485L108.726172 600.320031C109.386328 601.488 110.370215 602.135461 112.122168 602.135461zM120.018945 601.957727L120.018945 598.637902 121.789941 598.637902C123.808496 598.637902 124.98916 597.501672 124.98916 595.673547 124.98916 593.902551 123.808496 592.728235 121.777246 592.728235L118.546289 592.728235 118.546289 601.957727 120.018945 601.957727zM121.707422 597.368371L120.018945 597.368371 120.018945 593.991418 121.707422 593.991418C122.900781 593.991418 123.516504 594.708703 123.516504 595.686242 123.516504 596.701867 122.894434 597.368371 121.707422 597.368371zM133.768262 601.957727L133.768262 600.643762 129.52168 600.643762 129.52168 592.728235 128.055371 592.728235 128.055371 601.957727 133.768262 601.957727zM137.367676 601.957727L138.046875 600.123254 142.020508 600.123254 142.699707 601.957727 144.356445 601.957727 140.617676 592.696496 139.519531 592.696496 135.780762 601.957727 137.367676 601.957727zM141.569824 598.904504L138.497559 598.904504 139.938477 595.013391 140.135254 595.013391 141.569824 598.904504zM149.561816 601.957727L149.561816 598.142785 153.116504 592.728235 151.44707 592.728235 148.946094 596.904992 148.736621 596.904992 146.324512 592.728235 144.572559 592.728235 148.082813 598.142785 148.082813 601.957727 149.561816 601.957727zM154.513281 604.173059L155.408301 602.160852 155.408301 600.085168 153.472266 600.085168 153.472266 601.957727 154.360938 601.957727 154.373633 602.008508 153.415137 604.173059 154.513281 604.173059zM164.739941 604.173059L165.634961 602.160852 165.634961 600.085168 163.698926 600.085168 163.698926 601.957727 164.587598 601.957727 164.600293 602.008508 163.641797 604.173059 164.739941 604.173059zM177.296191 601.957727L179.587695 595.248254 179.746387 595.248254 182.044238 601.957727 183.104297 601.957727 186.081348 592.728235 184.469043 592.728235 182.647266 599.177453 182.469531 599.177453 180.222461 592.728235 179.187793 592.728235 176.978809 599.164758 176.801074 599.164758 174.953906 592.728235 173.26543 592.728235 176.255176 601.957727 177.296191 601.957727zM190.398047 601.957727L190.398047 592.728235 188.931738 592.728235 188.931738 601.957727 190.398047 601.957727zM197.825098 601.957727L197.825098 594.010461 200.675195 594.010461 200.675195 592.728235 193.476953 592.728235 193.476953 594.010461 196.346094 594.010461 196.346094 601.957727 197.825098 601.957727zM205.156934 601.957727L205.156934 597.952356 209.517773 597.952356 209.517773 601.957727 210.984082 601.957727 210.984082 592.728235 209.517773 592.728235 209.517773 596.657434 205.156934 596.657434 205.156934 592.728235 203.690625 592.728235 203.690625 601.957727 205.156934 601.957727zM223.648242 602.135461C226.339648 602.135461 228.136035 600.256555 228.136035 597.355676 228.136035 594.454797 226.339648 592.5505 223.648242 592.5505 220.956836 592.5505 219.198535 594.454797 219.198535 597.355676 219.198535 600.256555 220.963184 602.135461 223.648242 602.135461zM223.648242 600.78341C221.762988 600.78341 220.683887 599.469445 220.683887 597.355676 220.683887 595.248254 221.756641 593.902551 223.648242 593.902551 225.539844 593.902551 226.650684 595.248254 226.650684 597.355676 226.650684 599.469445 225.533496 600.78341 223.648242 600.78341zM232.712988 601.957727L232.712988 598.637902 234.483984 598.637902C236.502539 598.637902 237.683203 597.501672 237.683203 595.673547 237.683203 593.902551 236.502539 592.728235 234.471289 592.728235L231.240332 592.728235 231.240332 601.957727 232.712988 601.957727zM234.401465 597.368371L232.712988 597.368371 232.712988 593.991418 234.401465 593.991418C235.594824 593.991418 236.210547 594.708703 236.210547 595.686242 236.210547 596.701867 235.588477 597.368371 234.401465 597.368371zM244.418359 601.957727L244.418359 594.010461 247.268457 594.010461 247.268457 592.728235 240.070215 592.728235 240.070215 594.010461 242.939355 594.010461 242.939355 601.957727 244.418359 601.957727zM251.826367 601.957727L251.826367 592.728235 250.360059 592.728235 250.360059 601.957727 251.826367 601.957727zM259.450195 602.135461C262.141602 602.135461 263.937988 600.256555 263.937988 597.355676 263.937988 594.454797 262.141602 592.5505 259.450195 592.5505 256.758789 592.5505 255.000488 594.454797 255.000488 597.355676 255.000488 600.256555 256.765137 602.135461 259.450195 602.135461zM259.450195 600.78341C257.564941 600.78341 256.48584 599.469445 256.48584 597.355676 256.48584 595.248254 257.558594 593.902551 259.450195 593.902551 261.341797 593.902551 262.452637 595.248254 262.452637 597.355676 262.452637 599.469445 261.335449 600.78341 259.450195 600.78341zM268.502246 601.957727L268.502246 595.673547 268.641895 595.673547 273.396289 601.957727 274.456348 601.957727 274.456348 592.728235 272.996387 592.728235 272.996387 599.018762 272.869434 599.018762 268.108691 592.728235 267.042285 592.728235 267.042285 601.957727 268.502246 601.957727zM278.703223 601.957727L279.382422 600.123254 283.356055 600.123254 284.035254 601.957727 285.691992 601.957727 281.953223 592.696496 280.855078 592.696496 277.116309 601.957727 278.703223 601.957727zM282.905371 598.904504L279.833105 598.904504 281.274023 595.013391 281.470801 595.013391 282.905371 598.904504zM294.064844 601.957727L294.064844 600.643762 289.818262 600.643762 289.818262 592.728235 288.351953 592.728235 288.351953 601.957727 294.064844 601.957727zM305.154785 601.957727C307.992187 601.957727 309.763184 600.24386 309.763184 597.355676 309.763184 594.467492 307.992187 592.728235 305.14209 592.728235L302.247559 592.728235 302.247559 601.957727 305.154785 601.957727zM305.161133 600.592981L303.713867 600.592981 303.713867 594.092981 305.161133 594.092981C307.147949 594.092981 308.277832 595.222863 308.277832 597.349328 308.277832 599.475793 307.147949 600.592981 305.161133 600.592981zM314.409961 601.957727L314.409961 592.728235 312.943652 592.728235 312.943652 601.957727 314.409961 601.957727zM320.56748 602.135461C322.744727 602.135461 323.950781 600.942102 323.950781 599.361535 323.950781 598.034875 323.316016 597.254113 321.659277 596.708215L320.364355 596.282922C319.380469 595.959192 319.075781 595.61007 319.075781 595.000695 319.075781 594.321496 319.602637 593.775598 320.738867 593.775598 321.595801 593.775598 322.129004 594.131067 322.541602 594.721399L323.671484 594.023156C323.062109 593.134485 322.198828 592.5505 320.751562 592.5505 318.859961 592.5505 317.69834 593.616906 317.69834 595.045129 317.69834 596.321008 318.383887 597.095422 319.710547 597.527063L321.043555 597.965051C322.205176 598.34591 322.535254 598.802942 322.535254 599.482141 322.535254 600.300988 321.862402 600.897668 320.56748 600.897668 319.462988 600.897668 318.828223 600.472375 318.32041 599.634485L317.171484 600.320031C317.831641 601.488 318.815527 602.135461 320.56748 602.135461zM328.464258 601.957727L328.464258 598.637902 330.235254 598.637902C332.253809 598.637902 333.434473 597.501672 333.434473 595.673547 333.434473 593.902551 332.253809 592.728235 330.222559 592.728235L326.991602 592.728235 326.991602 601.957727 328.464258 601.957727zM330.152734 597.368371L328.464258 597.368371 328.464258 593.991418 330.152734 593.991418C331.346094 593.991418 331.961816 594.708703 331.961816 595.686242 331.961816 596.701867 331.339746 597.368371 330.152734 597.368371zM342.213574 601.957727L342.213574 600.643762 337.966992 600.643762 337.966992 592.728235 336.500684 592.728235 336.500684 601.957727 342.213574 601.957727zM345.812988 601.957727L346.492187 600.123254 350.46582 600.123254 351.14502 601.957727 352.801758 601.957727 349.062988 592.696496 347.964844 592.696496 344.226074 601.957727 345.812988 601.957727zM350.015137 598.904504L346.942871 598.904504 348.383789 595.013391 348.580566 595.013391 350.015137 598.904504zM358.007129 601.957727L358.007129 598.142785 361.561816 592.728235 359.892383 592.728235 357.391406 596.904992 357.181934 596.904992 354.769824 592.728235 353.017871 592.728235 356.528125 598.142785 356.528125 601.957727 358.007129 601.957727zM366.221289 598.745813L366.221289 597.4255 362.196875 597.4255 362.196875 598.745813 366.221289 598.745813zM371.737695 602.135461C373.914941 602.135461 375.120996 600.942102 375.120996 599.361535 375.120996 598.034875 374.48623 597.254113 372.829492 596.708215L371.53457 596.282922C370.550684 595.959192 370.245996 595.61007 370.245996 595.000695 370.245996 594.321496 370.772852 593.775598 371.909082 593.775598 372.766016 593.775598 373.299219 594.131067 373.711816 594.721399L374.841699 594.023156C374.232324 593.134485 373.369043 592.5505 371.921777 592.5505 370.030176 592.5505 368.868555 593.616906 368.868555 595.045129 368.868555 596.321008 369.554102 597.095422 370.880762 597.527063L372.21377 597.965051C373.375391 598.34591 373.705469 598.802942 373.705469 599.482141 373.705469 600.300988 373.032617 600.897668 371.737695 600.897668 370.633203 600.897668 369.998437 600.472375 369.490625 599.634485L368.341699 600.320031C369.001855 601.488 369.985742 602.135461 371.737695 602.135461zM379.634473 601.957727L379.634473 598.637902 381.405469 598.637902C383.424023 598.637902 384.604687 597.501672 384.604687 595.673547 384.604687 593.902551 383.424023 592.728235 381.392773 592.728235L378.161816 592.728235 378.161816 601.957727 379.634473 601.957727zM381.322949 597.368371L379.634473 597.368371 379.634473 593.991418 381.322949 593.991418C382.516309 593.991418 383.132031 594.708703 383.132031 595.686242 383.132031 596.701867 382.509961 597.368371 381.322949 597.368371zM393.802734 601.957727L393.802734 600.700891 389.137207 600.700891 389.137207 597.850793 391.961914 597.850793 391.961914 596.606652 389.137207 596.606652 389.137207 593.98507 393.637695 593.98507 393.637695 592.728235 387.670898 592.728235 387.670898 601.957727 393.802734 601.957727zM400.258594 602.141809C401.959766 602.141809 403.013477 601.513391 403.838672 600.167688L402.62627 599.437707C402.131152 600.300988 401.382129 600.770715 400.258594 600.770715 398.493945 600.770715 397.408496 599.367883 397.408496 597.355676 397.408496 595.337121 398.493945 593.915246 400.258594 593.915246 401.369434 593.915246 402.086719 594.378625 402.600879 595.254602L403.851367 594.499231C403.000781 593.109094 401.908984 592.544152 400.258594 592.544152 397.687793 592.544152 395.923145 594.480188 395.923145 597.355676 395.923145 600.231164 397.687793 602.141809 400.258594 602.141809zM408.504492 601.957727L408.504492 592.728235 407.038184 592.728235 407.038184 601.957727 408.504492 601.957727zM413.709863 601.957727L413.709863 598.45382 416.883691 598.45382 416.883691 597.177942 413.709863 597.177942 413.709863 593.997766 418.229395 593.997766 418.229395 592.728235 412.262598 592.728235 412.262598 601.957727 413.709863 601.957727zM422.742871 601.957727L422.742871 592.728235 421.276562 592.728235 421.276562 601.957727 422.742871 601.957727zM430.252441 602.141809C431.953613 602.141809 433.007324 601.513391 433.83252 600.167688L432.620117 599.437707C432.125 600.300988 431.375977 600.770715 430.252441 600.770715 428.487793 600.770715 427.402344 599.367883 427.402344 597.355676 427.402344 595.337121 428.487793 593.915246 430.252441 593.915246 431.363281 593.915246 432.080566 594.378625 432.594727 595.254602L433.845215 594.499231C432.994629 593.109094 431.902832 592.544152 430.252441 592.544152 427.681641 592.544152 425.916992 594.480188 425.916992 597.355676 425.916992 600.231164 427.681641 602.141809 430.252441 602.141809zM443.506934 601.957727L443.506934 598.45382 446.680762 598.45382 446.680762 597.177942 443.506934 597.177942 443.506934 593.997766 448.026465 593.997766 448.026465 592.728235 442.059668 592.728235 442.059668 601.957727 443.506934 601.957727zM454.615625 602.135461C457.307031 602.135461 459.103418 600.256555 459.103418 597.355676 459.103418 594.454797 457.307031 592.5505 454.615625 592.5505 451.924219 592.5505 450.165918 594.454797 450.165918 597.355676 450.165918 600.256555 451.930566 602.135461 454.615625 602.135461zM454.615625 600.78341C452.730371 600.78341 451.65127 599.469445 451.65127 597.355676 451.65127 595.248254 452.724023 593.902551 454.615625 593.902551 456.507227 593.902551 457.618066 595.248254 457.618066 597.355676 457.618066 599.469445 456.500879 600.78341 454.615625 600.78341zM463.674023 601.957727L463.674023 598.555383 465.476758 598.555383 467.228711 601.957727 468.879102 601.957727 466.911328 598.352258C468.079297 597.952356 468.733105 596.981164 468.733105 595.629113 468.733105 593.883508 467.571484 592.728235 465.565625 592.728235L462.207715 592.728235 462.207715 601.957727 463.674023 601.957727zM465.495801 597.273156L463.674023 597.273156 463.674023 593.991418 465.495801 593.991418C466.657422 593.991418 467.260449 594.696008 467.260449 595.641809 467.260449 596.632043 466.651074 597.273156 465.495801 597.273156zM473.379883 601.957727L473.379883 596.20675 473.525879 596.20675 476.12207 601.957727 477.04248 601.957727 479.638672 596.20675 479.784668 596.20675 479.784668 601.957727 481.193848 601.957727 481.193848 592.728235 479.867187 592.728235 476.674316 599.761438 476.541016 599.761438 473.329102 592.728235 471.964355 592.728235 471.964355 601.957727 473.379883 601.957727zM487.281543 602.135461C489.458789 602.135461 490.664844 600.942102 490.664844 599.361535 490.664844 598.034875 490.030078 597.254113 488.37334 596.708215L487.078418 596.282922C486.094531 595.959192 485.789844 595.61007 485.789844 595.000695 485.789844 594.321496 486.316699 593.775598 487.45293 593.775598 488.309863 593.775598 488.843066 594.131067 489.255664 594.721399L490.385547 594.023156C489.776172 593.134485 488.912891 592.5505 487.465625 592.5505 485.574023 592.5505 484.412402 593.616906 484.412402 595.045129 484.412402 596.321008 485.097949 597.095422 486.424609 597.527063L487.757617 597.965051C488.919238 598.34591 489.249316 598.802942 489.249316 599.482141 489.249316 600.300988 488.576465 600.897668 487.281543 600.897668 486.177051 600.897668 485.542285 600.472375 485.034473 599.634485L483.885547 600.320031C484.545703 601.488 485.52959 602.135461 487.281543 602.135461z"/>
    </g>
  </g>
</svg>
