<svg xmlns="http://www.w3.org/2000/svg" xmlns:xlink="http://www.w3.org/1999/xlink" width="1891" height="868" viewBox="0 0 1891 868">
  <defs>
    <rect id="name_sans-flats-a" width="200" height="171.5"/>
    <rect id="name_sans-flats-c" width="68.467" height="247.5"/>
    <rect id="name_sans-flats-e" width="53" height="185"/>
    <rect id="name_sans-flats-g" width="67" height="109"/>
    <rect id="name_sans-flats-i" width="61.992" height="198.5"/>
    <rect id="name_sans-flats-k" width="61.992" height="123"/>
    <rect id="name_sans-flats-m" width="72" height="135.5"/>
    <rect id="name_sans-flats-o" width="72" height="123"/>
    <rect id="name_sans-flats-q" width="65" height="87.5"/>
    <rect id="name_sans-flats-s" width="65" height="109"/>
    <rect id="name_sans-flats-u" width="65" height="197"/>
    <rect id="name_sans-flats-w" width="63.5" height="197"/>
    <rect id="name_sans-flats-y" width="185" height="171.5"/>
    <rect id="name_sans-flats-A" width="68.467" height="247.5"/>
    <rect id="name_sans-flats-C" width="53" height="179"/>
    <rect id="name_sans-flats-E" width="58" height="197"/>
    <rect id="name_sans-flats-G" width="58" height="111"/>
    <rect id="name_sans-flats-I" width="70" height="101"/>
    <rect id="name_sans-flats-K" width="70" height="91"/>
    <rect id="name_sans-flats-M" width="70" height="133"/>
    <rect id="name_sans-flats-O" width="70" height="149"/>
    <rect id="name_sans-flats-Q" width="70" height="114"/>
    <rect id="name_sans-flats-S" width="70" height="197"/>
    <rect id="name_sans-flats-U" width="70" height="197"/>
  </defs>
  <g fill="none" fill-rule="evenodd">
    <rect width="1891" height="868" fill="#222"/>
    <path fill="#FFF" fill-rule="nonzero" d="M157.286859 336.648223C219.306645 336.648223 259.619505 304.179041 259.619505 253.833568 259.619505 218.080986 239.919103 193.455483 195.775608 178.497771L154.368281 164.452113C134.485468 157.702901 128.101078 150.041634 128.101078 137.455266 128.101078 122.13273 139.592979 113.376996 159.475793 113.376996 178.811373 113.376996 193.221853 121.767908 205.443398 138.732144L245.756259 106.445373C225.143801 78.1716475 197.59972 64.1259902 159.475793 64.1259902 107.306209 64.1259902 72.4656826 95.1358828 72.4656826 140.191433 72.4656826 176.491248 94.902252 201.846396 134.85029 214.979997L175.710384 228.478421C195.045964 234.862811 202.342409 243.071312 202.342409 257.116969 202.342409 276.999782 185.742996 287.397217 160.205438 287.397217 131.384479 287.397217 113.143365 274.628438 96.5439521 250.367757L54.0421582 283.931405C78.6676611 320.778454 109.312731 336.648223 157.286859 336.648223zM377.662814 336.100989C403.747606 336.100989 422.900775 327.710077 434.575088 308.739319L436.034377 308.739319 439.500188 333 483.096449 333 483.096449 224.465376C483.096449 171.748559 455.91719 141.650722 401.376262 141.650722 368.542258 141.650722 342.092644 156.608435 324.763586 179.774648L362.340279 207.683552C371.278425 195.097184 383.135148 187.435916 399.916973 187.435916 419.799786 187.435916 430.197221 198.015762 430.197221 214.979997L430.197221 220.087509 381.311037 220.087509C338.991654 220.087509 313.636507 242.706489 313.636507 278.094249 313.636507 313.117187 338.26201 336.100989 377.662814 336.100989zM388.24266 294.146429C373.64977 294.146429 365.62368 287.397217 365.62368 275.540493 365.62368 264.048592 373.64977 257.29938 388.425071 257.29938L430.197221 257.29938 430.197221 258.029024C430.197221 279.735949 413.415396 294.146429 388.24266 294.146429zM608.801026 333L608.801026 197.286117 635.068229 197.286117 635.068229 146.211 608.801026 146.211 608.801026 128.152298C608.801026 121.950319 611.719604 118.84933 617.37435 118.84933L635.433052 118.84933 635.433052 67.7742129 611.902016 67.7742129C576.879078 67.7742129 554.442509 88.569082 554.442509 125.780953L554.442509 146.211 533.64764 146.211 533.64764 197.286117 554.442509 197.286117 554.442509 333 608.801026 333zM796.342978 397.938363C849.424617 397.938363 876.421465 369.117404 876.421465 322.237743L876.421465 146.211 832.277971 146.211 828.629748 169.377214 826.988048 169.377214C814.948913 151.683334 795.248511 141.650722 767.70443 141.650722 720.824769 141.650722 683.065664 175.944015 683.065664 231.944232 683.065664 287.94445 721.00718 321.872921 767.157196 321.872921 791.96511 321.872921 809.111757 313.846831 820.421247 298.341885L822.245358 298.341885 822.245358 323.697032C822.245358 341.755734 811.847924 352.700402 792.694755 352.882813L762.232096 352.882813C746.727149 352.882813 739.977938 348.869769 732.863903 335.188934L687.990765 360.36167C702.766066 390.277096 721.554413 397.938363 758.766284 397.938363L796.342978 397.938363zM780.65562 276.817371C756.394939 276.817371 737.606593 257.664202 737.606593 232.673877 737.606593 207.683552 753.111539 188.530383 778.649098 188.530383 804.186656 188.530383 822.062947 203.852918 822.062947 230.849766 822.062947 257.846613 804.916301 276.817371 780.65562 276.817371zM1008.87525 333L1008.87525 284.66105 1000.48434 284.66105C995.012008 284.66105 992.823074 282.472116 992.823074 277.182193L992.823074 67.7742129 938.464557 67.7742129 938.464557 282.107294C938.464557 317.677465 955.428792 333 987.168329 333L1008.87525 333zM1120.16935 333L1120.16935 233.950755C1120.16935 207.865963 1132.57331 197.286117 1155.19229 197.286117L1171.42688 197.286117 1171.42688 146.211 1156.10434 146.211C1136.76876 146.211 1122.17587 154.966734 1114.14978 177.403304L1113.23773 177.403304 1109.04227 146.211 1065.81083 146.211 1065.81083 333 1120.16935 333zM1342.55183 333L1342.55183 282.836938 1320.29767 282.836938C1309.17059 282.836938 1304.79272 277.547016 1304.79272 266.237525L1304.79272 197.286117 1342.55183 197.286117 1342.55183 146.211 1304.79272 146.211 1304.79272 95.3182939 1250.61662 105.350906 1250.61662 146.211 1224.71424 146.211 1224.71424 197.286117 1250.61662 197.286117 1250.61662 270.432981C1250.61662 313.846831 1271.5939 333 1311.54194 333L1342.55183 333zM1444.72537 397.938363C1483.21412 397.938363 1500.72559 386.811284 1515.6833 344.127079L1584.81712 146.211 1528.99931 146.211 1493.06432 262.954125 1491.78744 262.954125 1449.10324 146.211 1389.4548 146.211 1462.96648 326.433199C1466.06747 334.094467 1466.24988 338.289923 1462.96648 344.30949 1460.23032 349.234591 1456.21727 351.423524 1445.81984 351.423524L1406.96627 351.423524 1406.96627 397.938363 1444.72537 397.938363zM1689.17959 333L1689.17959 142.9276C1689.17959 123.774431 1698.66497 113.559407 1715.62921 113.559407L1718.36538 113.559407C1737.15372 113.559407 1746.27428 123.409608 1746.27428 138.002499 1746.27428 152.59539 1737.70096 162.810413 1719.82467 162.810413L1710.33929 162.810413 1710.33929 209.142841 1725.47941 209.142841C1755.94207 209.142841 1767.25156 223.735731 1767.25156 246.172301 1767.25156 268.791281 1755.94207 283.384172 1725.47941 283.384172L1710.33929 283.384172 1710.33929 333 1729.49246 333C1786.22232 333 1818.50909 300.530818 1818.50909 249.090879 1818.50909 214.250353 1800.26797 186.706271 1764.15057 177.950537L1764.15057 177.403304C1784.76303 168.82998 1796.43734 152.230567 1796.43734 129.976409 1796.43734 90.7580156 1767.61638 65.9501016 1718.91261 65.9501016L1716.54126 65.9501016C1666.92544 65.9501016 1634.82108 93.4941826 1634.82108 142.9276L1634.82108 333 1689.17959 333zM156.995886 724.096786C218.650849 724.096786 253.126553 691.080371 253.126553 646.207233 253.126553 608.630539 235.067851 586.741203 186.728901 570.871435L149.51703 558.649889C118.324726 548.434865 108.474525 537.125375 108.474525 517.242562 108.474525 495.353226 125.256349 477.476935 161.556165 477.476935 188.370601 477.476935 204.970014 488.421603 217.556382 506.115483L244.188408 489.51607C226.676939 464.708155 202.416258 448.655976 161.738576 448.655976 107.74488 448.655976 75.8229321 478.753813 75.8229321 518.154617 75.8229321 553.907199 94.7936899 575.249302 134.194495 588.018081L172.13601 600.604449C208.800648 612.461173 219.562905 626.689241 219.562905 648.9434 219.562905 675.940247 197.85598 694.911005 156.995886 694.911005 122.337771 694.911005 102.454958 681.594992 87.4972446 656.422256L60.3179858 672.656847C79.1063325 705.855673 107.380058 724.096786 156.995886 724.096786zM373.606432 722.637497C403.88668 722.637497 426.505661 710.051129 437.267917 684.331159L441.280962 684.331159 443.834718 718.989275 470.831566 718.989275 470.831566 599.327572C470.831566 548.434865 442.55784 522.714896 394.401301 522.714896 359.560775 522.714896 335.482505 535.483675 316.87657 558.8323L338.948317 577.803058C352.629152 558.467478 368.49892 549.346921 393.124423 549.346921 421.945382 549.346921 438.362384 564.669456 438.362384 596.591405L438.362384 608.448128 379.261177 608.448128C332.016694 608.448128 308.303247 631.796753 308.303247 664.813168 308.303247 699.653695 331.834283 722.637497 373.606432 722.637497zM382.9094 697.647172C353.90603 697.647172 340.042784 683.236693 340.042784 663.53629 340.042784 644.018299 352.26433 630.702286 382.544578 630.702286L438.362384 630.702286 438.362384 641.464543C438.362384 675.210603 417.202693 697.647172 382.9094 697.647172zM592.405912 718.989275L592.405912 556.096133 635.819761 556.096133 635.819761 527.275174 592.405912 527.275174 592.405912 488.968836C592.405912 478.206579 598.790301 472.551834 609.005325 472.551834L642.386562 472.551834 642.386562 444.278109 605.721924 444.278109C577.448199 444.278109 559.207085 459.965466 559.207085 488.05678L559.207085 527.275174 531.480593 527.275174 531.480593 556.096133 559.207085 556.096133 559.207085 718.989275 592.405912 718.989275zM788.221588 801.98634C836.013305 797.973295 860.821219 771.523681 860.821219 724.826431L860.821219 527.457585 833.459549 527.457585 830.35856 568.682501 826.710337 568.682501C815.765669 538.037431 794.605978 523.079718 760.859918 523.260481 712.338557 523.260481 678.227675 558.285067 678.227675 621.216907 678.227675 683.419104 712.338557 718.25963 760.677507 718.25963 790.592933 718.25963 812.66468 705.126029 823.97417 677.217125L827.622393 677.217125 827.622393 726.103309C827.622393 756.748379 811.752625 771.158859 784.755777 773.895026 772.534231 774.989492 757.758929 774.989492 745.537383 773.712614 728.208326 772.070914 718.905358 767.693047 711.061679 754.012212L682.970365 769.152336C694.279855 790.859261 712.520968 799.432584 741.524338 801.98634 756.29964 803.080807 773.628698 803.263218 788.221588 801.98634zM769.798064 690.533138C734.592715 690.533138 712.156146 667.184513 712.156146 621.034496 712.156146 575.066891 734.227893 551.900677 769.433242 551.900677 805.915468 551.900677 827.622393 577.620647 827.622393 621.216907 827.622393 664.813168 805.915468 690.533138 769.798064 690.533138zM1013.40546 718.989275L1013.40546 688.709027 992.063355 688.709027C983.490032 688.709027 978.929753 684.513571 978.929753 675.575425L978.929753 444.278109 946.09575 444.278109 946.09575 678.129181C946.09575 706.402906 960.871051 718.989275 987.320666 718.989275L1013.40546 718.989275zM1110.53671 718.989275L1110.53671 612.825995C1110.53671 574.88448 1129.50747 558.102655 1162.52388 558.102655L1184.77804 558.102655 1184.77804 523.809363 1164.89523 523.809363C1136.07427 523.809363 1117.65075 537.672609 1110.17189 566.128745L1105.79402 566.128745 1103.60509 527.457585 1077.33789 527.457585 1077.33789 718.989275 1110.53671 718.989275zM1357.24509 718.989275L1357.24509 689.621082 1315.29053 689.621082C1303.43381 689.621082 1297.04942 684.148748 1297.04942 671.56238L1297.04942 556.096133 1357.24509 556.096133 1357.24509 527.275174 1297.04942 527.275174 1297.04942 474.923179 1264.03301 480.213102 1264.03301 527.275174 1231.01659 527.275174 1231.01659 556.096133 1264.03301 556.096133 1264.03301 672.109614C1264.03301 704.578795 1281.36206 718.989275 1312.37196 718.989275L1357.24509 718.989275zM1444.89097 799.250173C1476.4481 799.250173 1491.40581 789.764794 1502.35048 759.849368L1588.63094 527.275174 1553.42559 527.275174 1503.62735 678.129181 1498.70225 678.129181 1442.33721 527.275174 1404.3957 527.275174 1484.6566 718.624452 1470.97576 753.282568C1466.23307 764.95688 1458.38939 769.69957 1444.52615 769.69957L1410.78009 769.69957 1410.78009 799.250173 1444.89097 799.250173zM1682.66121 718.989275L1682.66121 519.431495C1682.66121 486.779903 1700.35509 469.998078 1732.27703 469.998078L1737.01972 469.998078C1767.84721 469.998078 1784.62903 487.874369 1784.62903 512.317461 1784.62903 539.679131 1766.02309 556.278544 1738.2966 556.278544L1716.77209 556.278544 1716.77209 584.369859 1738.84384 584.369859C1776.05571 584.369859 1797.76263 602.063739 1797.76263 636.357031 1797.76263 668.826213 1779.52152 689.073849 1740.48554 689.073849L1716.77209 689.073849 1716.77209 718.989275 1742.85688 718.989275C1797.58022 718.989275 1828.77252 688.344204 1828.77252 639.093198 1828.77252 595.86176 1802.87014 571.601079 1762.9221 567.223212L1762.9221 563.939812C1792.65512 558.8323 1814.17963 538.219842 1814.17963 505.021016 1814.17963 466.714678 1785.7235 440.629886 1738.66142 440.629886L1731.36498 440.629886C1680.8371 440.629886 1649.8272 468.903612 1649.8272 519.431495L1649.8272 718.989275 1682.66121 718.989275z"/>
    <path fill="#FFA600" fill-rule="nonzero" d="M77.7607588 388.905L77.7607588 381.247969 77.930915 381.247969 83.7239619 388.905 85.0156025 388.905 85.0156025 377.659219 83.2366963 377.659219 83.2366963 385.323984 83.0820088 385.323984 77.2812275 377.659219 75.9818525 377.659219 75.9818525 388.905 77.7607588 388.905zM90.220718 388.905L91.0482961 386.669766 95.8900148 386.669766 96.717593 388.905 98.7362648 388.905 94.180718 377.620547 92.8426711 377.620547 88.2871242 388.905 90.220718 388.905zM95.3408742 385.184766L91.5974367 385.184766 93.3531398 380.443594 93.5929055 380.443594 95.3408742 385.184766zM103.732552 388.905L103.732552 381.897656 103.910443 381.897656 107.073802 388.905 108.195287 388.905 111.358646 381.897656 111.536537 381.897656 111.536537 388.905 113.253568 388.905 113.253568 377.659219 111.637083 377.659219 107.746693 386.228906 107.584271 386.228906 103.670677 377.659219 102.007787 377.659219 102.007787 388.905 103.732552 388.905zM125.249465 388.905L125.249465 387.373594 119.564699 387.373594 119.564699 383.900859 123.006496 383.900859 123.006496 382.384922 119.564699 382.384922 119.564699 379.190625 125.048371 379.190625 125.048371 377.659219 117.778058 377.659219 117.778058 388.905 125.249465 388.905zM138.297117 389.121562C140.950008 389.121562 142.419539 387.6675 142.419539 385.741641 142.419539 384.125156 141.646102 383.173828 139.62743 382.508672L138.049617 381.990469C136.850789 381.596016 136.479539 381.170625 136.479539 380.428125 136.479539 379.600547 137.121492 378.935391 138.505945 378.935391 139.550086 378.935391 140.199774 379.368516 140.702508 380.087812L142.079227 379.237031C141.336727 378.154219 140.284852 377.442656 138.521414 377.442656 136.21657 377.442656 134.80118 378.742031 134.80118 380.482266 134.80118 382.036875 135.636492 382.980469 137.252977 383.506406L138.877195 384.040078C140.292586 384.504141 140.694774 385.061016 140.694774 385.888594 140.694774 386.886328 139.87493 387.613359 138.297117 387.613359 136.951336 387.613359 136.177899 387.095156 135.559149 386.074219L134.159227 386.909531C134.963602 388.332656 136.16243 389.121562 138.297117 389.121562zM146.688795 388.905L147.516373 386.669766 152.358092 386.669766 153.18567 388.905 155.204342 388.905 150.648795 377.620547 149.310748 377.620547 144.755202 388.905 146.688795 388.905zM151.808952 385.184766L148.065514 385.184766 149.821217 380.443594 150.060983 380.443594 151.808952 385.184766zM160.25477 388.905L160.25477 381.247969 160.424926 381.247969 166.217973 388.905 167.509614 388.905 167.509614 377.659219 165.730708 377.659219 165.730708 385.323984 165.57602 385.323984 159.775239 377.659219 158.475864 377.659219 158.475864 388.905 160.25477 388.905zM174.957698 389.121562C177.610589 389.121562 179.08012 387.6675 179.08012 385.741641 179.08012 384.125156 178.306682 383.173828 176.288011 382.508672L174.710198 381.990469C173.51137 381.596016 173.14012 381.170625 173.14012 380.428125 173.14012 379.600547 173.782073 378.935391 175.166526 378.935391 176.210667 378.935391 176.860354 379.368516 177.363089 380.087812L178.739807 379.237031C177.997307 378.154219 176.945432 377.442656 175.181995 377.442656 172.877151 377.442656 171.461761 378.742031 171.461761 380.482266 171.461761 382.036875 172.297073 382.980469 173.913557 383.506406L175.537776 384.040078C176.953167 384.504141 177.355354 385.061016 177.355354 385.888594 177.355354 386.886328 176.535511 387.613359 174.957698 387.613359 173.611917 387.613359 172.838479 387.095156 172.219729 386.074219L170.819807 386.909531C171.624182 388.332656 172.823011 389.121562 174.957698 389.121562zM192.607304 388.905C196.06457 388.905 198.22246 386.816719 198.22246 383.297578 198.22246 379.778437 196.06457 377.659219 192.591835 377.659219L189.06496 377.659219 189.06496 388.905 192.607304 388.905zM192.615038 387.242109L190.851601 387.242109 190.851601 379.322109 192.615038 379.322109C195.035898 379.322109 196.412616 380.698828 196.412616 383.289844 196.412616 385.880859 195.035898 387.242109 192.615038 387.242109zM203.914841 388.905L203.914841 377.659219 202.128201 377.659219 202.128201 388.905 203.914841 388.905zM211.448004 389.121562C214.100894 389.121562 215.570426 387.6675 215.570426 385.741641 215.570426 384.125156 214.796988 383.173828 212.778316 382.508672L211.200504 381.990469C210.001676 381.596016 209.630426 381.170625 209.630426 380.428125 209.630426 379.600547 210.272379 378.935391 211.656832 378.935391 212.700972 378.935391 213.35066 379.368516 213.853394 380.087812L215.230113 379.237031C214.487613 378.154219 213.435738 377.442656 211.672301 377.442656 209.367457 377.442656 207.952066 378.742031 207.952066 380.482266 207.952066 382.036875 208.787379 382.980469 210.403863 383.506406L212.028082 384.040078C213.443472 384.504141 213.84566 385.061016 213.84566 385.888594 213.84566 386.886328 213.025816 387.613359 211.448004 387.613359 210.102222 387.613359 209.328785 387.095156 208.710035 386.074219L207.310113 386.909531C208.114488 388.332656 209.313316 389.121562 211.448004 389.121562zM221.100385 388.905L221.100385 384.859922 223.258275 384.859922C225.717807 384.859922 227.1564 383.475469 227.1564 381.247969 227.1564 379.090078 225.717807 377.659219 223.242807 377.659219L219.30601 377.659219 219.30601 388.905 221.100385 388.905zM223.157728 383.313047L221.100385 383.313047 221.100385 379.198359 223.157728 379.198359C224.611791 379.198359 225.362025 380.072344 225.362025 381.263437 225.362025 382.500937 224.604057 383.313047 223.157728 383.313047zM237.88386 388.905L237.88386 387.303984 232.709563 387.303984 232.709563 377.659219 230.922922 377.659219 230.922922 388.905 237.88386 388.905zM242.300069 388.905L243.127647 386.669766 247.969366 386.669766 248.796944 388.905 250.815616 388.905 246.260069 377.620547 244.922022 377.620547 240.366475 388.905 242.300069 388.905zM247.420225 385.184766L243.676788 385.184766 245.432491 380.443594 245.672256 380.443594 247.420225 385.184766zM257.188622 388.905L257.188622 384.256641 261.519872 377.659219 259.485731 377.659219 256.438387 382.748437 256.183153 382.748437 253.244091 377.659219 251.109403 377.659219 255.386512 384.256641 255.386512 388.905 257.188622 388.905zM275.503384 388.905C277.854634 388.905 279.285493 387.783516 279.285493 385.718437 279.285493 384.364922 278.542993 383.444531 277.065728 383.127422L277.065728 382.926328C278.210415 382.601484 278.952915 381.835781 278.952915 380.559609 278.952915 378.796172 277.645806 377.659219 275.132134 377.659219L271.079321 377.659219 271.079321 388.905 275.503384 388.905zM275.116665 382.462266L272.873696 382.462266 272.873696 379.190625 275.108931 379.190625C276.53979 379.190625 277.166275 379.778437 277.166275 380.768437 277.166275 381.882187 276.570728 382.462266 275.116665 382.462266zM275.387368 387.373594L272.873696 387.373594 272.873696 383.846719 275.379634 383.846719C276.849165 383.846719 277.498853 384.388125 277.498853 385.602422 277.498853 386.855391 276.679009 387.373594 275.387368 387.373594zM287.924671 389.121562C291.204046 389.121562 293.392874 386.832187 293.392874 383.297578 293.392874 379.762969 291.204046 377.442656 287.924671 377.442656 284.645296 377.442656 282.502874 379.762969 282.502874 383.297578 282.502874 386.832187 284.653031 389.121562 287.924671 389.121562zM287.924671 387.474141C285.627562 387.474141 284.312718 385.873125 284.312718 383.297578 284.312718 380.729766 285.619828 379.090078 287.924671 379.090078 290.229515 379.090078 291.583031 380.729766 291.583031 383.297578 291.583031 385.873125 290.221781 387.474141 287.924671 387.474141zM304.16674 388.905L304.16674 387.303984 298.992443 387.303984 298.992443 377.659219 297.205802 377.659219 297.205802 388.905 304.16674 388.905zM311.491074 388.905C314.94834 388.905 317.10623 386.816719 317.10623 383.297578 317.10623 379.778437 314.94834 377.659219 311.475605 377.659219L307.94873 377.659219 307.94873 388.905 311.491074 388.905zM311.498808 387.242109L309.735371 387.242109 309.735371 379.322109 311.498808 379.322109C313.919668 379.322109 315.296387 380.698828 315.296387 383.289844 315.296387 385.880859 313.919668 387.242109 311.498808 387.242109zM77.7607588 773.905L77.7607588 766.247969 77.930915 766.247969 83.7239619 773.905 85.0156025 773.905 85.0156025 762.659219 83.2366963 762.659219 83.2366963 770.323984 83.0820088 770.323984 77.2812275 762.659219 75.9818525 762.659219 75.9818525 773.905 77.7607588 773.905zM90.220718 773.905L91.0482961 771.669766 95.8900148 771.669766 96.717593 773.905 98.7362648 773.905 94.180718 762.620547 92.8426711 762.620547 88.2871242 773.905 90.220718 773.905zM95.3408742 770.184766L91.5974367 770.184766 93.3531398 765.443594 93.5929055 765.443594 95.3408742 770.184766zM103.732552 773.905L103.732552 766.897656 103.910443 766.897656 107.073802 773.905 108.195287 773.905 111.358646 766.897656 111.536537 766.897656 111.536537 773.905 113.253568 773.905 113.253568 762.659219 111.637083 762.659219 107.746693 771.228906 107.584271 771.228906 103.670677 762.659219 102.007787 762.659219 102.007787 773.905 103.732552 773.905zM125.249465 773.905L125.249465 772.373594 119.564699 772.373594 119.564699 768.900859 123.006496 768.900859 123.006496 767.384922 119.564699 767.384922 119.564699 764.190625 125.048371 764.190625 125.048371 762.659219 117.778058 762.659219 117.778058 773.905 125.249465 773.905zM138.297117 774.121562C140.950008 774.121562 142.419539 772.6675 142.419539 770.741641 142.419539 769.125156 141.646102 768.173828 139.62743 767.508672L138.049617 766.990469C136.850789 766.596016 136.479539 766.170625 136.479539 765.428125 136.479539 764.600547 137.121492 763.935391 138.505945 763.935391 139.550086 763.935391 140.199774 764.368516 140.702508 765.087812L142.079227 764.237031C141.336727 763.154219 140.284852 762.442656 138.521414 762.442656 136.21657 762.442656 134.80118 763.742031 134.80118 765.482266 134.80118 767.036875 135.636492 767.980469 137.252977 768.506406L138.877195 769.040078C140.292586 769.504141 140.694774 770.061016 140.694774 770.888594 140.694774 771.886328 139.87493 772.613359 138.297117 772.613359 136.951336 772.613359 136.177899 772.095156 135.559149 771.074219L134.159227 771.909531C134.963602 773.332656 136.16243 774.121562 138.297117 774.121562zM146.688795 773.905L147.516373 771.669766 152.358092 771.669766 153.18567 773.905 155.204342 773.905 150.648795 762.620547 149.310748 762.620547 144.755202 773.905 146.688795 773.905zM151.808952 770.184766L148.065514 770.184766 149.821217 765.443594 150.060983 765.443594 151.808952 770.184766zM160.25477 773.905L160.25477 766.247969 160.424926 766.247969 166.217973 773.905 167.509614 773.905 167.509614 762.659219 165.730708 762.659219 165.730708 770.323984 165.57602 770.323984 159.775239 762.659219 158.475864 762.659219 158.475864 773.905 160.25477 773.905zM174.957698 774.121562C177.610589 774.121562 179.08012 772.6675 179.08012 770.741641 179.08012 769.125156 178.306682 768.173828 176.288011 767.508672L174.710198 766.990469C173.51137 766.596016 173.14012 766.170625 173.14012 765.428125 173.14012 764.600547 173.782073 763.935391 175.166526 763.935391 176.210667 763.935391 176.860354 764.368516 177.363089 765.087812L178.739807 764.237031C177.997307 763.154219 176.945432 762.442656 175.181995 762.442656 172.877151 762.442656 171.461761 763.742031 171.461761 765.482266 171.461761 767.036875 172.297073 767.980469 173.913557 768.506406L175.537776 769.040078C176.953167 769.504141 177.355354 770.061016 177.355354 770.888594 177.355354 771.886328 176.535511 772.613359 174.957698 772.613359 173.611917 772.613359 172.838479 772.095156 172.219729 771.074219L170.819807 771.909531C171.624182 773.332656 172.823011 774.121562 174.957698 774.121562zM193.535429 773.905L193.535429 764.221562 197.008163 764.221562 197.008163 762.659219 188.237382 762.659219 188.237382 764.221562 191.73332 764.221562 191.73332 773.905 193.535429 773.905zM208.184216 773.905L208.184216 772.373594 202.499451 772.373594 202.499451 768.900859 205.941248 768.900859 205.941248 767.384922 202.499451 767.384922 202.499451 764.190625 207.983123 764.190625 207.983123 762.659219 200.71281 762.659219 200.71281 773.905 208.184216 773.905zM213.041285 773.905L215.70191 769.465469 215.941676 769.465469 218.849801 773.905 220.938082 773.905 217.078629 768.08875 220.690582 762.659219 218.640972 762.659219 216.251051 766.766172 216.019019 766.766172 213.358394 762.659219 211.24691 762.659219 214.858863 768.08875 210.953004 773.905 213.041285 773.905zM228.83476 773.905L228.83476 764.221562 232.307494 764.221562 232.307494 762.659219 223.536713 762.659219 223.536713 764.221562 227.03265 764.221562 227.03265 773.905 228.83476 773.905zM244.048038 773.905L244.048038 769.759375 246.2446 769.759375 248.379288 773.905 250.390225 773.905 247.992569 769.511875C249.415694 769.024609 250.212334 767.84125 250.212334 766.193828 250.212334 764.066875 248.796944 762.659219 246.352881 762.659219L242.261397 762.659219 242.261397 773.905 244.048038 773.905zM246.267803 768.197031L244.048038 768.197031 244.048038 764.198359 246.267803 764.198359C247.683194 764.198359 248.417959 765.056875 248.417959 766.209297 248.417959 767.415859 247.675459 768.197031 246.267803 768.197031zM261.651356 773.905L261.651356 772.373594 255.966591 772.373594 255.966591 768.900859 259.408387 768.900859 259.408387 767.384922 255.966591 767.384922 255.966591 764.190625 261.450262 764.190625 261.450262 762.659219 254.17995 762.659219 254.17995 773.905 261.651356 773.905zM269.385612 774.137031C271.110378 774.137031 272.340143 773.417734 272.912487 771.932734L273.090378 771.932734 273.214128 773.905 274.621784 773.905 274.621784 767.926328 269.756862 767.926328 269.756862 769.411328 272.858347 769.411328 272.858347 769.790312C272.858347 771.499609 271.752331 772.512812 269.633112 772.512812 267.413347 772.512812 266.0753 770.849922 266.0753 768.305312 266.0753 765.768437 267.537097 764.113281 269.749128 764.113281 271.071706 764.113281 271.984362 764.646953 272.695925 765.590547L274.126784 764.492266C273.144518 763.192891 271.7678 762.411719 269.741393 762.411719 266.593503 762.411719 264.265456 764.693359 264.265456 768.274375 264.265456 771.855391 266.423347 774.137031 269.385612 774.137031zM282.990259 774.121562C285.650884 774.121562 287.313775 772.682969 287.313775 769.937266L287.313775 762.659219 285.534868 762.659219 285.534868 769.945C285.534868 771.615625 284.668618 772.474141 283.005728 772.474141 281.36604 772.474141 280.522993 771.615625 280.522993 769.945L280.522993 762.659219 278.720884 762.659219 278.720884 769.937266C278.720884 772.682969 280.345103 774.121562 282.990259 774.121562zM298.513031 773.905L298.513031 772.303984 293.338734 772.303984 293.338734 762.659219 291.552093 762.659219 291.552093 773.905 298.513031 773.905zM302.92924 773.905L303.756818 771.669766 308.598537 771.669766 309.426115 773.905 311.444787 773.905 306.88924 762.620547 305.551193 762.620547 300.995646 773.905 302.92924 773.905zM308.049396 770.184766L304.305959 770.184766 306.061662 765.443594 306.301427 765.443594 308.049396 770.184766zM316.502949 773.905L316.502949 769.759375 318.699512 769.759375 320.834199 773.905 322.845137 773.905 320.44748 769.511875C321.870605 769.024609 322.667246 767.84125 322.667246 766.193828 322.667246 764.066875 321.251855 762.659219 318.807793 762.659219L314.716308 762.659219 314.716308 773.905 316.502949 773.905zM318.722715 768.197031L316.502949 768.197031 316.502949 764.198359 318.722715 764.198359C320.138105 764.198359 320.872871 765.056875 320.872871 766.209297 320.872871 767.415859 320.130371 768.197031 318.722715 768.197031z"/>
    <g transform="translate(66 59.493)">
      <g transform="translate(0 49.507)">
        <mask id="name_sans-flats-b" fill="#fff">
          <use xlink:href="#name_sans-flats-a"/>
        </mask>
        <g mask="url(#name_sans-flats-b)">
          <g transform="rotate(108 82.109 132.194)">
            <mask id="name_sans-flats-d" fill="#fff">
              <use xlink:href="#name_sans-flats-c"/>
            </mask>
            <rect width="66.58" height="263.97" x=".944" y="-11.006" fill="#FFA600" fill-opacity=".15" stroke="#FFA600" stroke-width="2" mask="url(#name_sans-flats-d)"/>
          </g>
        </g>
      </g>
      <g transform="rotate(90 137.25 290.25)">
        <mask id="name_sans-flats-f" fill="#fff">
          <use xlink:href="#name_sans-flats-e"/>
        </mask>
        <rect width="51.087" height="196.806" x=".956" y="-7.974" fill="#FFA600" fill-opacity=".15" stroke="#FFA600" stroke-width="2" mask="url(#name_sans-flats-f)"/>
      </g>
      <g transform="rotate(90 289.25 289.25)">
        <mask id="name_sans-flats-h" fill="#fff">
          <use xlink:href="#name_sans-flats-g"/>
        </mask>
        <rect width="65.11" height="115.134" x=".945" y="-4.287" fill="#FFA600" fill-opacity=".15" stroke="#FFA600" stroke-width="2" mask="url(#name_sans-flats-h)"/>
      </g>
      <g transform="rotate(90 265.996 551.004)">
        <mask id="name_sans-flats-j" fill="#fff">
          <use xlink:href="#name_sans-flats-i"/>
        </mask>
        <rect width="60.094" height="211.313" x=".949" y="-8.629" fill="#FFA600" fill-opacity=".15" stroke="#FFA600" stroke-width="2" mask="url(#name_sans-flats-j)"/>
      </g>
      <g transform="rotate(90 585.75 870.25)">
        <mask id="name_sans-flats-l" fill="#fff">
          <use xlink:href="#name_sans-flats-k"/>
        </mask>
        <rect width="60.094" height="130.179" x=".949" y="-4.966" fill="#FFA600" fill-opacity=".15" stroke="#FFA600" stroke-width="2" mask="url(#name_sans-flats-l)"/>
      </g>
      <g transform="rotate(90 604.25 680.75)">
        <mask id="name_sans-flats-n" fill="#fff">
          <use xlink:href="#name_sans-flats-m"/>
        </mask>
        <rect width="70.118" height="143.612" x=".941" y="-5.573" fill="#FFA600" fill-opacity=".15" stroke="#FFA600" stroke-width="2" mask="url(#name_sans-flats-n)"/>
      </g>
      <g transform="rotate(90 519.25 595.75)">
        <mask id="name_sans-flats-p" fill="#fff">
          <use xlink:href="#name_sans-flats-o"/>
        </mask>
        <rect width="70.118" height="130.179" x=".941" y="-4.966" fill="#FFA600" fill-opacity=".15" stroke="#FFA600" stroke-width="2" mask="url(#name_sans-flats-p)"/>
      </g>
      <g transform="rotate(90 367.875 584.375)">
        <mask id="name_sans-flats-r" fill="#fff">
          <use xlink:href="#name_sans-flats-q"/>
        </mask>
        <rect width="63.107" height="92.03" x=".947" y="-3.244" fill="#FFA600" fill-opacity=".15" stroke="#FFA600" stroke-width="2" mask="url(#name_sans-flats-r)"/>
      </g>
      <g transform="rotate(90 534.25 750.75)">
        <mask id="name_sans-flats-t" fill="#fff">
          <use xlink:href="#name_sans-flats-s"/>
        </mask>
        <rect width="63.107" height="115.134" x=".947" y="-4.287" fill="#FFA600" fill-opacity=".15" stroke="#FFA600" stroke-width="2" mask="url(#name_sans-flats-t)"/>
      </g>
      <g transform="rotate(90 770.75 987.25)">
        <mask id="name_sans-flats-v" fill="#fff">
          <use xlink:href="#name_sans-flats-u"/>
        </mask>
        <rect width="63.107" height="209.701" x=".947" y="-8.556" fill="#FFA600" fill-opacity=".15" stroke="#FFA600" stroke-width="2" mask="url(#name_sans-flats-v)"/>
      </g>
      <g transform="rotate(90 831.75 926.25)">
        <mask id="name_sans-flats-x" fill="#fff">
          <use xlink:href="#name_sans-flats-w"/>
        </mask>
        <rect width="61.605" height="209.701" x=".948" y="-8.556" fill="#FFA600" fill-opacity=".15" stroke="#FFA600" stroke-width="2" mask="url(#name_sans-flats-x)"/>
      </g>
    </g>
    <g transform="translate(77 423.993)">
      <g transform="translate(0 63.007)">
        <mask id="name_sans-flats-z" fill="#fff">
          <use xlink:href="#name_sans-flats-y"/>
        </mask>
        <g mask="url(#name_sans-flats-z)">
          <g transform="rotate(108 76.609 128.198)">
            <mask id="name_sans-flats-B" fill="#fff">
              <use xlink:href="#name_sans-flats-A"/>
            </mask>
            <rect width="54" height="263.97" x="13.524" y="-11.006" fill="#FFA600" fill-opacity=".15" stroke="#FFA600" stroke-width="2" mask="url(#name_sans-flats-B)"/>
          </g>
        </g>
      </g>
      <g transform="rotate(90 119.75 286.25)">
        <mask id="name_sans-flats-D" fill="#fff">
          <use xlink:href="#name_sans-flats-C"/>
        </mask>
        <rect width="46" height="203.5" x="6.044" y="-18.474" fill="#FFA600" fill-opacity=".15" stroke="#FFA600" stroke-width="2" mask="url(#name_sans-flats-D)"/>
      </g>
      <g transform="rotate(90 231.25 560.75)">
        <mask id="name_sans-flats-F" fill="#fff">
          <use xlink:href="#name_sans-flats-E"/>
        </mask>
        <rect width="50.528" height="224.165" x="6.519" y="-20.432" fill="#FFA600" fill-opacity=".15" stroke="#FFA600" stroke-width="2" mask="url(#name_sans-flats-F)"/>
      </g>
      <g transform="rotate(90 553.75 883.25)">
        <mask id="name_sans-flats-H" fill="#fff">
          <use xlink:href="#name_sans-flats-G"/>
        </mask>
        <rect width="50.528" height="125.433" x="6.519" y="-11.076" fill="#FFA600" fill-opacity=".15" stroke="#FFA600" stroke-width="2" mask="url(#name_sans-flats-H)"/>
      </g>
      <g transform="rotate(90 287.5 287.5)">
        <mask id="name_sans-flats-J" fill="#fff">
          <use xlink:href="#name_sans-flats-I"/>
        </mask>
        <rect width="50.5" height="145.5" x="9.044" y="-24.974" fill="#FFA600" fill-opacity=".15" stroke="#FFA600" stroke-width="2" mask="url(#name_sans-flats-J)"/>
      </g>
      <g transform="rotate(90 351.5 596.5)">
        <mask id="name_sans-flats-L" fill="#fff">
          <use xlink:href="#name_sans-flats-K"/>
        </mask>
        <rect width="50.5" height="130.896" x="9.044" y="-22.402" fill="#FFA600" fill-opacity=".15" stroke="#FFA600" stroke-width="2" mask="url(#name_sans-flats-L)"/>
      </g>
      <g transform="rotate(90 518 602)">
        <mask id="name_sans-flats-N" fill="#fff">
          <use xlink:href="#name_sans-flats-M"/>
        </mask>
        <rect width="50.5" height="192.233" x="9.044" y="-33.203" fill="#FFA600" fill-opacity=".15" stroke="#FFA600" stroke-width="2" mask="url(#name_sans-flats-N)"/>
      </g>
      <g transform="rotate(90 603.5 687.5)">
        <mask id="name_sans-flats-P" fill="#fff">
          <use xlink:href="#name_sans-flats-O"/>
        </mask>
        <rect width="50.5" height="215.599" x="9.044" y="-37.318" fill="#FFA600" fill-opacity=".15" stroke="#FFA600" stroke-width="2" mask="url(#name_sans-flats-P)"/>
      </g>
      <g transform="rotate(90 523 768)">
        <mask id="name_sans-flats-R" fill="#fff">
          <use xlink:href="#name_sans-flats-Q"/>
        </mask>
        <rect width="50.5" height="164.485" x="9.044" y="-28.317" fill="#FFA600" fill-opacity=".15" stroke="#FFA600" stroke-width="2" mask="url(#name_sans-flats-R)"/>
      </g>
      <g transform="rotate(90 757.5 1002.5)">
        <mask id="name_sans-flats-T" fill="#fff">
          <use xlink:href="#name_sans-flats-S"/>
        </mask>
        <rect width="50.5" height="285.698" x="9.044" y="-49.662" fill="#FFA600" fill-opacity=".15" stroke="#FFA600" stroke-width="2" mask="url(#name_sans-flats-T)"/>
      </g>
      <g transform="rotate(90 824 936)">
        <mask id="name_sans-flats-V" fill="#fff">
          <use xlink:href="#name_sans-flats-U"/>
        </mask>
        <rect width="50.5" height="285.698" x="9.044" y="-49.662" fill="#FFA600" fill-opacity=".15" stroke="#FFA600" stroke-width="2" mask="url(#name_sans-flats-V)"/>
      </g>
    </g>
  </g>
</svg>
