<svg xmlns="http://www.w3.org/2000/svg" width="1891" height="728" viewBox="0 0 1891 728">
  <g fill="none" fill-rule="evenodd">
    <rect width="1891" height="728" fill="#222"/>
    <g fill-rule="nonzero" transform="translate(57.953 54.695)">
      <path fill="#FFF" d="M79.6875 225.560547C131.103516 225.560547 159.375 196.410156 159.375 159.056641 159.375 128.148438 145.458984 108.666016 107.666016 96.0683594L77.7832031 86.2539062C59.6191406 80.2480469 54.7851562 73.5097656 54.7851562 62.9628906 54.7851562 51.390625 64.0136719 43.0410156 84.5214844 43.0410156 100.78125 43.0410156 110.742188 49.7792969 119.238281 62.5234375L154.6875 40.84375C140.625 19.0175781 119.970703 4.66210938 84.8144531 4.66210938 40.8691406 4.66210938 11.71875 29.4179688 11.71875 64.4277344 11.71875 95.921875 28.5644531 115.84375 57.2753906 125.21875L88.4765625 135.472656C109.863281 142.503906 115.429688 151.292969 115.429688 162.572266 115.429688 176.195312 103.857422 186.888672 79.8339844 186.888672 59.0332031 186.888672 47.0214844 178.832031 36.1816406 161.107422L0 182.640625C15.5273438 210.179688 38.2324219 225.560547 79.6875 225.560547zM264.550781 226.878906C292.382812 226.878906 312.451172 218.822266 328.857422 202.855469L304.394531 175.462891C293.847656 185.570312 281.982422 191.283203 264.990234 191.283203 241.113281 191.283203 229.394531 178.832031 227.197266 156.859375L336.767578 156.859375C343.505859 97.5332031 315.234375 59.3007812 261.474609 59.3007812 211.523438 59.3007812 182.958984 93.8710938 182.958984 143.382812 182.958984 193.1875 210.351562 226.878906 264.550781 226.878906zM294.433594 129.173828L227.34375 129.173828C230.273438 106.761719 243.310547 94.4570312 261.474609 94.4570312 281.103516 94.4570312 293.115234 106.46875 294.433594 129.173828zM439.160156 225.707031C467.578125 225.707031 487.792969 216.478516 503.466797 191.576172L470.214844 169.457031C463.769531 182.201172 453.222656 187.035156 439.599609 187.035156 416.162109 187.035156 405.615234 169.017578 405.615234 143.089844 405.615234 117.162109 416.162109 98.9980469 439.599609 98.9980469 452.636719 98.9980469 463.476562 104.271484 470.214844 116.429688L503.613281 95.3359375C487.353516 69.2617188 467.285156 60.1796875 439.160156 60.1796875 390.966797 60.1796875 361.523438 94.3105469 361.523438 143.089844 361.523438 191.869141 391.113281 225.707031 439.160156 225.707031zM603.662109 225.707031C652.001953 225.707031 684.375 192.894531 684.375 143.089844 684.375 93.1386719 652.001953 60.1796875 603.662109 60.1796875 555.322266 60.1796875 522.949219 93.1386719 522.949219 143.089844 522.949219 192.894531 555.322266 225.707031 603.662109 225.707031zM603.662109 187.474609C580.517578 187.474609 567.1875 171.654297 567.1875 143.089844 567.1875 114.525391 580.078125 98.4121094 603.662109 98.4121094 627.246094 98.4121094 640.283203 114.525391 640.283203 143.089844 640.283203 171.654297 626.806641 187.474609 603.662109 187.474609zM761.279297 221.605469L761.279297 125.804688C761.279297 106.761719 770.361328 97.3867188 787.939453 97.3867188 805.517578 97.3867188 814.453125 106.761719 814.453125 125.804688L814.453125 221.605469 858.398438 221.605469 858.398438 123.314453C858.398438 83.1777344 838.623047 61.4980469 805.078125 61.4980469 782.666016 61.4980469 768.896484 72.1914062 760.546875 90.0625L755.859375 90.0625 753.955078 64.5742188 717.333984 64.5742188 717.333984 221.605469 761.279297 221.605469zM956.103516 224.828125C979.833984 224.828125 996.386719 214.720703 1004.58984 192.748047L1009.27734 192.748047 1013.96484 221.605469 1049.85352 221.605469 1049.85352 1 1005.76172 1 1005.76172 89.4765625 1001.07422 89.4765625C992.724609 72.7773438 978.076172 61.3515625 956.103516 61.3515625 916.845703 61.3515625 889.892578 92.1132812 889.892578 143.089844 889.892578 194.066406 916.699219 224.828125 956.103516 224.828125zM969.873047 187.181641C947.167969 187.181641 934.570312 171.654297 934.570312 143.089844 934.570312 114.671875 947.167969 99.1445312 969.873047 99.1445312 992.724609 99.1445312 1005.61523 115.111328 1005.61523 143.236328 1005.61523 171.361328 992.724609 187.181641 969.873047 187.181641zM1209.08203 221.605469L1220.50781 188.5 1300.3418 188.5 1311.76758 221.605469 1363.62305 221.605469 1278.80859 8.6171875 1244.23828 8.6171875 1159.42383 221.605469 1209.08203 221.605469zM1287.30469 150.414062L1233.69141 150.414062 1257.71484 80.6875 1263.28125 80.6875 1287.30469 150.414062zM1446.09375 221.605469L1509.66797 64.5742188 1462.06055 64.5742188 1432.91016 162.132812 1427.34375 162.132812 1398.48633 64.5742188 1349.12109 64.5742188 1412.10938 221.605469 1446.09375 221.605469zM79.8339844 561.822031C128.466797 561.822031 156.005859 536.33375 156.005859 500.884531 156.005859 471.441172 142.236328 454.156016 102.392578 440.972422L72.5097656 431.157969C45.1171875 422.075937 36.1816406 411.822031 36.1816406 393.657969 36.1816406 374.615 51.1230469 358.648203 83.0566406 358.648203 106.494141 358.648203 120.849609 368.169687 131.542969 382.818125L148.242188 372.417734C134.326172 352.935312 115.136719 340.630625 83.3496094 340.630625 39.9902344 340.630625 15.6738281 364.214609 15.6738281 394.243906 15.6738281 422.368906 30.1757812 439.068125 62.8417969 449.615L93.3105469 459.575937C125.244141 470.122812 135.058594 482.281016 135.058594 502.349375 135.058594 526.665781 115.576172 543.511484 79.9804688 543.511484 49.6582031 543.511484 32.3730469 531.939219 19.921875 510.845469L2.78320312 521.245859C17.7246094 547.320078 40.5761719 561.822031 79.8339844 561.822031zM263.378906 562.407969C288.867188 562.407969 307.617188 554.058359 322.265625 538.970469L309.814453 526.226328C298.388672 538.384531 283.300781 544.683359 263.671875 544.683359 227.783203 544.683359 209.179688 522.417734 208.447266 486.382578L330.322266 486.382578C333.984375 432.183359 306.884766 400.39625 261.181641 400.39625 215.185547 400.39625 187.646484 433.20875 187.646484 481.841562 187.646484 530.327891 213.867188 562.407969 263.378906 562.407969zM310.107422 470.70875L208.886719 470.70875C211.816406 437.89625 231.298828 417.681406 261.181641 417.681406 289.746094 417.681406 308.935547 435.991953 310.107422 470.70875zM434.033203 561.822031C459.960938 561.822031 478.857422 551.714609 491.601562 531.060312L475.634766 520.659922C467.431641 535.308359 453.369141 543.365 434.179688 543.365 402.685547 543.365 383.642578 518.902109 383.642578 481.402109 383.642578 443.902109 402.685547 419.14625 434.179688 419.14625 452.929688 419.14625 466.845703 426.909922 475.341797 441.704844L491.455078 431.597422C478.271484 410.210703 459.814453 400.542734 434.033203 400.542734 390.673828 400.542734 362.841797 433.062266 362.841797 481.402109 362.841797 529.741953 390.820312 561.822031 434.033203 561.822031zM596.044922 561.675547C641.015625 561.675547 670.605469 528.570078 670.605469 481.255625 670.605469 433.941172 641.015625 400.689219 596.044922 400.689219 550.927734 400.689219 521.337891 433.794687 521.337891 481.255625 521.337891 528.570078 550.927734 561.675547 596.044922 561.675547zM596.044922 543.511484C562.939453 543.511484 542.285156 518.169687 542.285156 481.255625 542.285156 444.195078 562.646484 418.999766 596.044922 418.999766 629.296875 418.999766 649.804688 444.341562 649.804688 481.255625 649.804688 518.316172 629.150391 543.511484 596.044922 543.511484zM735.351562 557.720469L735.351562 463.238047C735.351562 434.820078 751.464844 418.120859 778.564453 418.120859 805.810547 418.120859 821.777344 432.915781 821.777344 463.091562L821.777344 557.720469 842.431641 557.720469 842.431641 462.212656C842.431641 421.929453 821.191406 400.982187 784.863281 400.982187 759.960938 400.982187 743.408203 412.700937 735.498047 430.425547L733.154297 430.425547 732.275391 404.937266 714.697266 404.937266 714.697266 557.720469 735.351562 557.720469zM950.390625 560.943125C973.242188 560.943125 995.361328 550.542734 1005.61523 523.296641L1007.95898 523.296641 1010.00977 557.720469 1027.44141 557.720469 1027.44141 337.115 1006.49414 337.115 1006.49414 436.870859 1004.15039 436.870859C993.603516 412.115 973.974609 401.421641 949.804688 401.421641 911.425781 401.421641 885.058594 429.107187 885.058594 481.255625 885.058594 533.404062 911.865234 560.943125 950.390625 560.943125zM956.25 542.925547C926.513672 542.925547 906.298828 522.564219 906.298828 481.255625 906.298828 439.947031 926.074219 419.732187 955.810547 419.732187 986.71875 419.732187 1006.49414 442.144297 1006.49414 481.402109 1006.49414 520.073984 986.71875 542.925547 956.25 542.925547zM1181.68945 557.720469L1201.9043 506.157969 1305.0293 506.157969 1325.24414 557.720469 1349.70703 557.720469 1261.96289 343.267344 1245.84961 343.267344 1158.10547 557.720469 1181.68945 557.720469zM1297.99805 487.993906L1208.93555 487.993906 1251.85547 378.277109 1255.07812 378.277109 1297.99805 487.993906zM1431.00586 557.720469L1496.77734 404.937266 1474.21875 404.937266 1425.14648 528.423594 1421.77734 528.423594 1372.70508 404.937266 1349.26758 404.937266 1414.89258 557.720469 1431.00586 557.720469z"/>
      <g transform="translate(1607.185)">
        <path fill="#FFF" d="M43.9453125,220.605469 L43.9453125,124.804688 C43.9453125,105.761719 53.0273438,96.3867188 70.6054688,96.3867188 C88.1835938,96.3867188 97.1191406,105.761719 97.1191406,124.804688 L97.1191406,220.605469 L141.064453,220.605469 L141.064453,122.314453 C141.064453,82.1777344 121.289062,60.4980469 87.7441406,60.4980469 C65.3320312,60.4980469 51.5625,71.1914062 43.2128906,89.0625 L38.5253906,89.0625 L36.6210938,63.5742188 L0,63.5742188 L0,220.605469 L43.9453125,220.605469 Z" opacity=".3"/>
        <path fill="#FFF" d="M83.5381986,224.707031 C131.878042,224.707031 164.251089,191.894531 164.251089,142.089844 C164.251089,92.1386719 131.878042,59.1796875 83.5381986,59.1796875 C35.1983549,59.1796875 2.82530798,92.1386719 2.82530798,142.089844 C2.82530798,191.894531 35.1983549,224.707031 83.5381986,224.707031 Z M83.5381986,186.474609 C60.3936674,186.474609 47.0635892,170.654297 47.0635892,142.089844 C47.0635892,113.525391 59.9542142,97.4121094 83.5381986,97.4121094 C107.122183,97.4121094 120.159292,113.525391 120.159292,142.089844 C120.159292,170.654297 106.68273,186.474609 83.5381986,186.474609 Z" opacity=".3"/>
        <path fill="#FBBC00" fill-opacity=".118" stroke="#FBBC00" d="M93.857877,223.828125 C133.262174,223.828125 160.068814,193.066406 160.068814,142.089844 C160.068814,91.1132812 133.115689,60.3515625 93.857877,60.3515625 C71.8852207,60.3515625 57.3832676,71.7773438 48.8871739,88.4765625 L44.1996739,88.4765625 L44.1996739,0 L0.107877,0 L0.107877,220.605469 L35.9965489,220.605469 L40.6840489,191.748047 L45.3715489,191.748047 C53.5746739,213.720703 70.1274082,223.828125 93.857877,223.828125 Z M80.0883457,186.181641 C57.2367832,186.181641 44.3461582,170.361328 44.3461582,142.236328 C44.3461582,114.111328 57.2367832,98.1445312 80.0883457,98.1445312 C102.793424,98.1445312 115.39108,113.671875 115.39108,142.089844 C115.39108,170.654297 102.793424,186.181641 80.0883457,186.181641 Z"/>
      </g>
      <g transform="translate(1611.819 337.115)">
        <path fill="#FFF" d="M21.3446139,220.605469 L21.3446139,126.123047 C21.3446139,97.7050781 37.4578951,81.0058594 64.5575045,81.0058594 C91.8035983,81.0058594 107.770395,95.8007812 107.770395,125.976562 L107.770395,220.605469 L128.424692,220.605469 L128.424692,125.097656 C128.424692,84.8144531 107.184458,63.8671875 70.8563326,63.8671875 C45.9539889,63.8671875 29.4012545,75.5859375 21.4910983,93.3105469 L19.1473483,93.3105469 L18.268442,67.8222656 L0.690317024,67.8222656 L0.690317024,220.605469 L21.3446139,220.605469 Z" opacity=".3"/>
        <path fill="#FFF" d="M74.7070312,224.560547 C119.677734,224.560547 149.267578,191.455078 149.267578,144.140625 C149.267578,96.8261719 119.677734,63.5742188 74.7070312,63.5742188 C29.5898438,63.5742188 0,96.6796875 0,144.140625 C0,191.455078 29.5898438,224.560547 74.7070312,224.560547 Z M74.7070312,206.396484 C41.6015625,206.396484 20.9472656,181.054688 20.9472656,144.140625 C20.9472656,107.080078 41.3085938,81.8847656 74.7070312,81.8847656 C107.958984,81.8847656 128.466797,107.226562 128.466797,144.140625 C128.466797,181.201172 107.8125,206.396484 74.7070312,206.396484 Z" opacity=".3"/>
        <path fill="#FBBC00" fill-opacity=".118" stroke="#FBBC00" d="M77.5813971,223.828125 C115.960303,223.828125 142.766944,196.289062 142.766944,144.140625 C142.766944,91.9921875 116.399757,64.3066406 78.1673346,64.3066406 C53.9974128,64.3066406 34.3685065,75 23.8216315,99.7558594 L21.4778815,99.7558594 L21.4778815,0 L0.530615899,0 L0.530615899,220.605469 L17.9622565,220.605469 L19.8665534,186.181641 L22.2103034,186.181641 C32.610694,213.427734 54.5833503,223.828125 77.5813971,223.828125 Z M71.5755378,205.810547 C41.1067878,205.810547 21.4778815,182.958984 21.4778815,144.287109 C21.4778815,105.029297 41.1067878,82.6171875 72.1614753,82.6171875 C101.897803,82.6171875 121.673194,102.832031 121.673194,144.140625 C121.673194,185.449219 101.45835,205.810547 71.5755378,205.810547 Z"/>
      </g>
      <path fill="#FFA600" d="M13.1808547 272.460891L13.1808547 266.176711 13.3205031 266.176711 18.0748977 272.460891 19.1349562 272.460891 19.1349562 263.231399 17.6749953 263.231399 17.6749953 269.521926 17.5480422 269.521926 12.7873 263.231399 11.7208937 263.231399 11.7208937 272.460891 13.1808547 272.460891zM23.3818312 272.460891L24.0610305 270.626418 28.0346633 270.626418 28.7138625 272.460891 30.3706008 272.460891 26.6318312 263.19966 25.5336867 263.19966 21.7949172 272.460891 23.3818312 272.460891zM27.5839797 269.407668L24.5117141 269.407668 25.952632 265.516555 26.1494094 265.516555 27.5839797 269.407668zM34.4460891 272.460891L34.4460891 266.709914 34.5920852 266.709914 37.1882766 272.460891 38.1086867 272.460891 40.7048781 266.709914 40.8508742 266.709914 40.8508742 272.460891 42.2600539 272.460891 42.2600539 263.231399 40.9333937 263.231399 37.7405227 270.264602 37.6072219 270.264602 34.3953078 263.231399 33.0305617 263.231399 33.0305617 272.460891 34.4460891 272.460891zM52.0801711 272.460891L52.0801711 271.204055 47.4146437 271.204055 47.4146437 268.353957 50.2393508 268.353957 50.2393508 267.109817 47.4146437 267.109817 47.4146437 264.488235 51.915132 264.488235 51.915132 263.231399 45.9483352 263.231399 45.9483352 272.460891 52.0801711 272.460891zM62.7384719 272.638625C64.9030227 272.638625 66.1090773 271.451613 66.1090773 269.871047 66.1090773 268.569777 65.5123977 267.769973 63.8302687 267.211379L62.5353469 266.786086C61.5514602 266.462356 61.2467727 266.094192 61.2467727 265.472121 61.2467727 264.805617 61.7736281 264.278762 62.9098586 264.278762 63.7667922 264.278762 64.2999953 264.634231 64.712593 265.224563L65.8424758 264.52632C65.2331008 263.637649 64.3698195 263.053664 62.9225539 263.053664 61.0309523 263.053664 59.8693312 264.101027 59.8693312 265.516555 59.8693312 266.805129 60.5548781 267.598586 61.8815383 268.030227L63.2145461 268.468215C64.3761672 268.849074 64.7062453 269.306106 64.7062453 269.985305 64.7062453 270.804152 64.0333937 271.400832 62.7384719 271.400832 61.6339797 271.400832 60.9992141 270.975539 60.4914016 270.137649L59.3424758 270.823195C60.002632 271.991164 60.9865187 272.638625 62.7384719 272.638625zM69.6005812 272.460891L70.2797805 270.626418 74.2534133 270.626418 74.9326125 272.460891 76.5893508 272.460891 72.8505812 263.19966 71.7524367 263.19966 68.0136672 272.460891 69.6005812 272.460891zM73.8027297 269.407668L70.7304641 269.407668 72.171382 265.516555 72.3681594 265.516555 73.8027297 269.407668zM80.7092727 272.460891L80.7092727 266.176711 80.8489211 266.176711 85.6033156 272.460891 86.6633742 272.460891 86.6633742 263.231399 85.2034133 263.231399 85.2034133 269.521926 85.0764602 269.521926 80.315718 263.231399 79.2493117 263.231399 79.2493117 272.460891 80.7092727 272.460891zM92.7510695 272.638625C94.9156203 272.638625 96.121675 271.451613 96.121675 269.871047 96.121675 268.569777 95.5249953 267.769973 93.8428664 267.211379L92.5479445 266.786086C91.5640578 266.462356 91.2593703 266.094192 91.2593703 265.472121 91.2593703 264.805617 91.7862258 264.278762 92.9224562 264.278762 93.7793898 264.278762 94.312593 264.634231 94.7251906 265.224563L95.8550734 264.52632C95.2456984 263.637649 94.3824172 263.053664 92.9351516 263.053664 91.04355 263.053664 89.8819289 264.101027 89.8819289 265.516555 89.8819289 266.805129 90.5674758 267.598586 91.8941359 268.030227L93.2271437 268.468215C94.3887648 268.849074 94.718843 269.306106 94.718843 269.985305 94.718843 270.804152 94.0459914 271.400832 92.7510695 271.400832 91.6465773 271.400832 91.0118117 270.975539 90.5039992 270.137649L89.3550734 270.823195C90.0152297 271.991164 90.9991164 272.638625 92.7510695 272.638625zM107.947945 272.460891L107.947945 264.513625 110.798042 264.513625 110.798042 263.231399 103.5998 263.231399 103.5998 264.513625 106.468941 264.513625 106.468941 272.460891 107.947945 272.460891zM119.945308 272.460891L119.945308 271.204055 115.27978 271.204055 115.27978 268.353957 118.104487 268.353957 118.104487 267.109817 115.27978 267.109817 115.27978 264.488235 119.780269 264.488235 119.780269 263.231399 113.813472 263.231399 113.813472 272.460891 119.945308 272.460891zM123.906538 272.460891L126.090132 268.817336 126.286909 268.817336 128.673628 272.460891 130.387495 272.460891 127.220015 267.687453 130.18437 263.231399 128.502241 263.231399 126.540816 266.602004 126.350386 266.602004 124.166792 263.231399 122.433882 263.231399 125.398238 267.687453 122.192671 272.460891 123.906538 272.460891zM136.843355 272.460891L136.843355 264.513625 139.693452 264.513625 139.693452 263.231399 132.49521 263.231399 132.49521 264.513625 135.364351 264.513625 135.364351 272.460891 136.843355 272.460891zM151.44355 272.460891C153.373237 272.460891 154.547554 271.540481 154.547554 269.845656 154.547554 268.734817 153.938179 267.979445 152.725777 267.719192L152.725777 267.554152C153.66523 267.287551 154.274605 266.659133 154.274605 265.61177 154.274605 264.164504 153.201851 263.231399 151.138862 263.231399L147.812691 263.231399 147.812691 272.460891 151.44355 272.460891zM151.126167 267.173293L149.285347 267.173293 149.285347 264.488235 151.11982 264.488235C152.294136 264.488235 152.808296 264.970656 152.808296 265.783156 152.808296 266.697219 152.319527 267.173293 151.126167 267.173293zM151.348335 271.204055L149.285347 271.204055 149.285347 268.309524 151.341987 268.309524C152.548042 268.309524 153.081245 268.75386 153.081245 269.750442 153.081245 270.778762 152.408394 271.204055 151.348335 271.204055zM161.612788 272.638625C164.304195 272.638625 166.100581 270.759719 166.100581 267.85884 166.100581 264.957961 164.304195 263.053664 161.612788 263.053664 158.921382 263.053664 157.163081 264.957961 157.163081 267.85884 157.163081 270.759719 158.92773 272.638625 161.612788 272.638625zM161.612788 271.286574C159.727534 271.286574 158.648433 269.97261 158.648433 267.85884 158.648433 265.751418 159.721187 264.405715 161.612788 264.405715 163.50439 264.405715 164.61523 265.751418 164.61523 267.85884 164.61523 269.97261 163.498042 271.286574 161.612788 271.286574zM174.917769 272.460891L174.917769 271.146926 170.671187 271.146926 170.671187 263.231399 169.204878 263.231399 169.204878 272.460891 174.917769 272.460891zM180.903902 272.460891C183.741304 272.460891 185.5123 270.747024 185.5123 267.85884 185.5123 264.970656 183.741304 263.231399 180.891206 263.231399L177.996675 263.231399 177.996675 272.460891 180.903902 272.460891zM180.910249 271.096145L179.462984 271.096145 179.462984 264.596145 180.910249 264.596145C182.897066 264.596145 184.026948 265.726027 184.026948 267.852492 184.026948 269.978957 182.897066 271.096145 180.910249 271.096145zM13.1808547 609.575891L13.1808547 603.291711 13.3205031 603.291711 18.0748977 609.575891 19.1349562 609.575891 19.1349562 600.346399 17.6749953 600.346399 17.6749953 606.636926 17.5480422 606.636926 12.7873 600.346399 11.7208937 600.346399 11.7208937 609.575891 13.1808547 609.575891zM23.3818312 609.575891L24.0610305 607.741418 28.0346633 607.741418 28.7138625 609.575891 30.3706008 609.575891 26.6318312 600.31466 25.5336867 600.31466 21.7949172 609.575891 23.3818312 609.575891zM27.5839797 606.522668L24.5117141 606.522668 25.952632 602.631555 26.1494094 602.631555 27.5839797 606.522668zM34.4460891 609.575891L34.4460891 603.824914 34.5920852 603.824914 37.1882766 609.575891 38.1086867 609.575891 40.7048781 603.824914 40.8508742 603.824914 40.8508742 609.575891 42.2600539 609.575891 42.2600539 600.346399 40.9333937 600.346399 37.7405227 607.379602 37.6072219 607.379602 34.3953078 600.346399 33.0305617 600.346399 33.0305617 609.575891 34.4460891 609.575891zM52.0801711 609.575891L52.0801711 608.319055 47.4146437 608.319055 47.4146437 605.468957 50.2393508 605.468957 50.2393508 604.224817 47.4146437 604.224817 47.4146437 601.603235 51.915132 601.603235 51.915132 600.346399 45.9483352 600.346399 45.9483352 609.575891 52.0801711 609.575891zM62.7384719 609.753625C64.9030227 609.753625 66.1090773 608.566613 66.1090773 606.986047 66.1090773 605.684777 65.5123977 604.884973 63.8302687 604.326379L62.5353469 603.901086C61.5514602 603.577356 61.2467727 603.209192 61.2467727 602.587121 61.2467727 601.920617 61.7736281 601.393762 62.9098586 601.393762 63.7667922 601.393762 64.2999953 601.749231 64.712593 602.339563L65.8424758 601.64132C65.2331008 600.752649 64.3698195 600.168664 62.9225539 600.168664 61.0309523 600.168664 59.8693312 601.216027 59.8693312 602.631555 59.8693312 603.920129 60.5548781 604.713586 61.8815383 605.145227L63.2145461 605.583215C64.3761672 605.964074 64.7062453 606.421106 64.7062453 607.100305 64.7062453 607.919152 64.0333937 608.515832 62.7384719 608.515832 61.6339797 608.515832 60.9992141 608.090539 60.4914016 607.252649L59.3424758 607.938195C60.002632 609.106164 60.9865187 609.753625 62.7384719 609.753625zM69.6005812 609.575891L70.2797805 607.741418 74.2534133 607.741418 74.9326125 609.575891 76.5893508 609.575891 72.8505812 600.31466 71.7524367 600.31466 68.0136672 609.575891 69.6005812 609.575891zM73.8027297 606.522668L70.7304641 606.522668 72.171382 602.631555 72.3681594 602.631555 73.8027297 606.522668zM80.7092727 609.575891L80.7092727 603.291711 80.8489211 603.291711 85.6033156 609.575891 86.6633742 609.575891 86.6633742 600.346399 85.2034133 600.346399 85.2034133 606.636926 85.0764602 606.636926 80.315718 600.346399 79.2493117 600.346399 79.2493117 609.575891 80.7092727 609.575891zM92.7510695 609.753625C94.9156203 609.753625 96.121675 608.566613 96.121675 606.986047 96.121675 605.684777 95.5249953 604.884973 93.8428664 604.326379L92.5479445 603.901086C91.5640578 603.577356 91.2593703 603.209192 91.2593703 602.587121 91.2593703 601.920617 91.7862258 601.393762 92.9224562 601.393762 93.7793898 601.393762 94.312593 601.749231 94.7251906 602.339563L95.8550734 601.64132C95.2456984 600.752649 94.3824172 600.168664 92.9351516 600.168664 91.04355 600.168664 89.8819289 601.216027 89.8819289 602.631555 89.8819289 603.920129 90.5674758 604.713586 91.8941359 605.145227L93.2271437 605.583215C94.3887648 605.964074 94.718843 606.421106 94.718843 607.100305 94.718843 607.919152 94.0459914 608.515832 92.7510695 608.515832 91.6465773 608.515832 91.0118117 608.090539 90.5039992 607.252649L89.3550734 607.938195C90.0152297 609.106164 90.9991164 609.753625 92.7510695 609.753625zM107.947945 609.575891L107.947945 601.628625 110.798042 601.628625 110.798042 600.346399 103.5998 600.346399 103.5998 601.628625 106.468941 601.628625 106.468941 609.575891 107.947945 609.575891zM119.945308 609.575891L119.945308 608.319055 115.27978 608.319055 115.27978 605.468957 118.104487 605.468957 118.104487 604.224817 115.27978 604.224817 115.27978 601.603235 119.780269 601.603235 119.780269 600.346399 113.813472 600.346399 113.813472 609.575891 119.945308 609.575891zM123.906538 609.575891L126.090132 605.932336 126.286909 605.932336 128.673628 609.575891 130.387495 609.575891 127.220015 604.802453 130.18437 600.346399 128.502241 600.346399 126.540816 603.717004 126.350386 603.717004 124.166792 600.346399 122.433882 600.346399 125.398238 604.802453 122.192671 609.575891 123.906538 609.575891zM136.843355 609.575891L136.843355 601.628625 139.693452 601.628625 139.693452 600.346399 132.49521 600.346399 132.49521 601.628625 135.364351 601.628625 135.364351 609.575891 136.843355 609.575891zM153.525581 609.575891L153.525581 608.261926 149.278999 608.261926 149.278999 600.346399 147.812691 600.346399 147.812691 609.575891 153.525581 609.575891zM158.146968 609.575891L158.146968 600.346399 156.680659 600.346399 156.680659 609.575891 158.146968 609.575891zM165.523237 609.76632C166.938765 609.76632 167.948042 609.175988 168.417769 607.957238L168.563765 607.957238 168.665327 609.575891 169.820601 609.575891 169.820601 604.669152 165.827925 604.669152 165.827925 605.887902 168.373335 605.887902 168.373335 606.198938C168.373335 607.60177 167.46562 608.433313 165.726362 608.433313 163.904585 608.433313 162.806441 607.068567 162.806441 604.980188 162.806441 602.898156 164.006148 601.539758 165.821577 601.539758 166.907027 601.539758 167.65605 601.977746 168.240034 602.75216L169.414351 601.850793C168.608198 600.784387 167.478316 600.143274 165.81523 600.143274 163.231734 600.143274 161.321089 602.015832 161.321089 604.954797 161.321089 607.893762 163.092085 609.76632 165.523237 609.76632zM174.860933 609.575891L174.860933 605.57052 179.221773 605.57052 179.221773 609.575891 180.688081 609.575891 180.688081 600.346399 179.221773 600.346399 179.221773 604.275598 174.860933 604.275598 174.860933 600.346399 173.394624 600.346399 173.394624 609.575891 174.860933 609.575891zM188.051655 609.575891L188.051655 601.628625 190.901753 601.628625 190.901753 600.346399 183.703511 600.346399 183.703511 601.628625 186.572652 601.628625 186.572652 609.575891 188.051655 609.575891z"/>
    </g>
  </g>
</svg>
