<svg xmlns="http://www.w3.org/2000/svg" width="1891" height="635" viewBox="0 0 1891 635">
  <g fill="none" fill-rule="evenodd">
    <rect width="1891" height="635" fill="#222"/>
    <path fill="#FFF" fill-rule="nonzero" d="M344.803971,550.810014 C358.082591,550.810014 369.689776,549.092151 379.625526,545.656424 C389.561277,542.220697 398.359523,536.927821 406.020266,529.777795 C413.681008,522.627769 420.714962,513.527735 427.122128,502.477695 L427.122128,502.477695 L390.90771,481.027617 C386.264836,490.313365 380.2291,497.440177 372.800502,502.408052 C365.371903,507.375927 356.086155,509.859865 344.943257,509.859865 C333.893217,509.859865 324.444968,507.190212 316.598511,501.850907 C308.752054,496.511602 302.762746,489.036575 298.630588,479.425825 C294.49843,469.815076 292.432351,458.648964 292.432351,445.927489 C292.432351,433.113156 294.49843,421.854187 298.630588,412.15058 C302.762746,402.446973 308.752054,394.879088 316.598511,389.446926 C324.444968,384.014763 333.893217,381.298682 344.943257,381.298682 C355.993297,381.298682 365.093331,383.73619 372.243357,388.611208 C379.393383,393.486226 385.429119,400.752324 390.350566,410.409502 L390.350566,410.409502 L427.539987,388.123706 C420.854248,376.516521 413.564936,367.230773 405.67205,360.266462 C397.779164,353.302151 388.864846,348.241418 378.929095,345.084264 C368.993345,341.927109 357.618303,340.348532 344.803971,340.348532 C325.861045,340.348532 309.123484,344.689619 294.591288,353.371794 C280.059092,362.053968 268.68405,374.287942 260.466163,390.073714 C252.248276,405.859485 248.139332,424.47741 248.139332,445.927489 C248.139332,467.28471 252.248276,485.832991 260.466163,501.572335 C268.68405,517.311678 280.059092,529.452793 294.591288,537.995682 C309.123484,546.53857 325.861045,550.810014 344.803971,550.810014 Z M527.226314,550.810014 C542.547799,550.810014 555.965705,547.560002 567.480033,541.059979 C578.99436,534.559955 587.955107,525.413493 594.362274,513.620593 C600.76944,501.827693 603.973023,488.038357 603.973023,472.252585 C603.973023,456.373955 600.76944,442.538191 594.362274,430.74529 C587.955107,418.95239 578.99436,409.782714 567.480033,403.236262 C555.965705,396.689809 542.547799,393.416583 527.226314,393.416583 C511.90483,393.416583 498.486924,396.689809 486.972596,403.236262 C475.458268,409.782714 466.497521,418.95239 460.090355,430.74529 C453.683189,442.538191 450.479606,456.373955 450.479606,472.252585 C450.479606,488.038357 453.683189,501.827693 460.090355,513.620593 C466.497521,525.413493 475.458268,534.559955 486.972596,541.059979 C498.486924,547.560002 511.90483,550.810014 527.226314,550.810014 Z M527.226314,514.45631 C519.890573,514.45631 513.645908,512.831304 508.492317,509.581292 C503.338727,506.331281 499.392284,501.54912 496.652988,495.234811 C493.913693,488.920503 492.544045,481.25976 492.544045,472.252585 C492.544045,463.152552 493.867264,455.445381 496.513702,449.131072 C499.16014,442.816763 503.083369,438.011388 508.283388,434.714948 C513.483407,431.418507 519.797716,429.770287 527.226314,429.770287 C534.74777,429.770287 541.085293,431.418507 546.238884,434.714948 C551.392474,438.011388 555.315702,442.816763 558.008569,449.131072 C560.701436,455.445381 562.04787,463.152552 562.04787,472.252585 C562.04787,481.25976 560.678222,488.920503 557.938926,495.234811 C555.199631,501.54912 551.229973,506.331281 546.029954,509.581292 C540.829935,512.831304 534.562055,514.45631 527.226314,514.45631 Z M677.076375,546.91 L677.076375,468.213284 C677.076375,457.813246 679.374598,450.384648 683.971043,445.927489 C688.567488,441.47033 695.415728,439.24175 704.515761,439.24175 L704.515761,439.24175 L721.926539,439.24175 L721.926539,394.809445 L708.137203,394.809445 C699.965744,394.809445 693.047862,397.246954 687.383555,402.121972 C681.719249,406.99699 677.912092,415.28452 675.962085,426.984562 L675.962085,426.984562 L670.529922,426.984562 L667.604912,397.59517 L635.290508,397.59517 L635.290508,546.91 L677.076375,546.91 Z M839.692232,546.91 L839.692232,510.138437 L805.149248,510.138437 C804.592104,510.138437 804.197459,510.022365 803.965316,509.790222 C803.733172,509.558078 803.6171,509.117005 803.6171,508.467003 L803.6171,508.467003 L803.617,433.671 L839.692232,433.670301 L839.692232,397.59517 L803.617,397.596 L803.6171,357.202165 L761.831233,363.470045 L761.831,397.596 L738.570434,397.59517 L738.570434,433.670301 L761.831,433.671 L761.831233,509.024147 C761.831233,521.902415 765.155237,531.3893 771.803243,537.484803 L772.138414,537.786752 C779.009867,543.868917 788.85276,546.91 801.667093,546.91 L801.667093,546.91 L839.692232,546.91 Z M934.724104,546.91 L934.724104,508.745575 L917.731185,508.745575 C916.709752,508.745575 915.966892,508.513431 915.502605,508.049144 C915.038318,507.584857 914.806174,506.841997 914.806174,505.820564 L914.806174,505.820564 L914.806174,337.144949 L873.438166,337.144949 L873.438166,509.163434 C873.438166,522.163481 876.711392,531.704587 883.257844,537.786752 C889.804297,543.868917 899.252546,546.91 911.602591,546.91 L911.602591,546.91 L934.724104,546.91 Z M1002.86818,549.556438 C1012.98964,549.556438 1021.78789,547.374287 1029.26292,543.009986 C1036.73794,538.645684 1042.05403,531.727802 1045.21119,522.256339 L1045.21119,522.256339 L1050.22549,522.256339 L1053.56836,546.91 L1087.13634,546.91 L1087.13634,456.234669 C1087.13634,435.713166 1081.93632,420.205966 1071.53629,409.713071 C1061.13625,399.220175 1045.62905,393.973728 1025.01469,393.973728 C1011.64321,393.973728 999.548523,396.155879 988.730626,400.52018 C977.912729,404.884482 968.418052,411.430934 960.246594,420.159538 L960.246594,420.159538 L987.268121,444.39534 C992.09671,438.638176 997.343158,434.25066 1003.00746,431.232792 C1008.67177,428.214924 1015.54322,426.70599 1023.62182,426.70599 C1031.60757,426.70599 1037.38795,428.772069 1040.96296,432.904227 C1044.53797,437.036385 1046.32548,443.513194 1046.32548,452.334655 L1046.32548,452.334655 L1046.32548,459.856111 L1010.94678,459.856111 C993.303857,459.856111 979.653807,463.965055 969.996629,472.182942 C960.339451,480.400829 955.510862,491.009796 955.510862,504.009843 C955.510862,518.031323 959.805521,529.127792 968.394838,537.299251 C976.984155,545.470709 988.475268,549.556438 1002.86818,549.556438 Z M1015.68251,519.6099 C1009.08963,519.6099 1004.09854,517.915251 1000.70924,514.525953 C997.319943,511.136655 995.625294,506.795568 995.625294,501.502691 C995.625294,496.209815 997.203871,491.961585 1000.36103,488.758002 C1003.51818,485.554419 1008.34677,483.952627 1014.84679,483.952627 L1014.84679,483.952627 L1046.32548,483.952627 L1046.32548,487.991928 C1046.32548,494.491952 1045.09512,500.109829 1042.63439,504.845561 C1040.17367,509.581292 1036.6683,513.225949 1032.11828,515.779529 C1027.56827,518.33311 1022.08968,519.6099 1015.68251,519.6099 Z M1167.85053,546.91 L1167.85053,455.816811 C1167.85053,446.716777 1169.98626,439.938181 1174.2577,435.481022 C1178.52914,431.023863 1184.84345,428.795283 1193.20063,428.795283 C1201.5578,428.795283 1207.84889,431.023863 1212.07391,435.481022 C1216.29892,439.938181 1218.41143,446.716777 1218.41143,455.816811 L1218.41143,455.816811 L1218.41143,546.91 L1260.1973,546.91 L1260.1973,453.448945 C1260.1973,434.320304 1255.74014,419.741679 1246.82582,409.713071 C1237.9115,399.684463 1225.4686,394.670159 1209.49711,394.670159 C1198.8185,394.670159 1190.0899,397.061239 1183.3113,401.843399 C1176.53271,406.62556 1171.14697,413.288084 1167.1541,421.830972 L1167.1541,421.830972 L1162.69694,421.830972 L1160.88622,397.59517 L1126.06467,397.59517 L1126.06467,546.91 L1167.85053,546.91 Z M1353.01738,549.974297 C1360.53883,549.974297 1367.29421,548.883221 1373.28352,546.701071 C1379.27283,544.51892 1384.42642,541.176051 1388.74429,536.672463 C1393.06217,532.168875 1396.52111,526.434925 1399.12112,519.470614 L1399.12112,519.470614 L1403.57827,519.470614 L1408.03543,546.91 L1442.16056,546.91 L1442.16056,337.144949 L1400.23541,337.144949 L1400.23541,421.273827 L1395.77825,421.273827 C1393.17824,415.980951 1389.85858,411.338077 1385.81928,407.345205 C1381.77998,403.352333 1377.04425,400.218393 1371.61209,397.943385 C1366.17992,395.668377 1359.98169,394.530873 1353.01738,394.530873 C1340.57447,394.530873 1329.61729,397.641598 1320.14583,403.86305 C1310.67436,410.084501 1303.29219,418.998819 1297.99932,430.606004 C1292.70644,442.213189 1290.06,456.095383 1290.06,472.252585 C1290.06,488.409787 1292.70644,502.29198 1297.99932,513.899165 C1303.29219,525.50635 1310.67436,534.420669 1320.14583,540.64212 C1329.61729,546.863571 1340.57447,549.974297 1353.01738,549.974297 Z M1366.11028,514.177738 C1358.96025,514.177738 1352.87809,512.575946 1347.86379,509.372363 C1342.84948,506.16878 1339.04233,501.433048 1336.44232,495.165168 C1333.84231,488.897288 1332.5423,481.25976 1332.5423,472.252585 C1332.5423,463.245409 1333.84231,455.631096 1336.44232,449.409644 C1339.04233,443.188193 1342.84948,438.475676 1347.86379,435.272093 C1352.87809,432.06851 1358.96025,430.466718 1366.11028,430.466718 C1373.35316,430.466718 1379.50497,432.091724 1384.56571,435.341736 C1389.62644,438.591748 1393.48002,443.350694 1396.12646,449.618574 C1398.7729,455.886454 1400.09612,463.477553 1400.09612,472.391871 C1400.09612,481.306189 1398.7729,488.874074 1396.12646,495.095525 C1393.48002,501.316977 1389.62644,506.052708 1384.56571,509.30272 C1379.50497,512.552732 1373.35316,514.177738 1366.11028,514.177738 Z M1571.62717,546.91 L1571.62717,510.138437 L1537.08419,510.138437 C1536.52704,510.138437 1536.1324,510.022365 1535.90025,509.790222 C1535.66811,509.558078 1535.55204,509.117005 1535.55204,508.467003 L1535.55204,508.467003 L1535.552,433.671 L1571.62717,433.670301 L1571.62717,397.59517 L1535.552,397.596 L1535.55204,357.202165 L1493.76617,363.470045 L1493.766,397.596 L1470.50537,397.59517 L1470.50537,433.670301 L1493.766,433.671 L1493.76617,509.024147 C1493.76617,521.902415 1497.09017,531.3893 1503.73818,537.484803 L1504.07335,537.786752 C1510.94481,543.868917 1520.7877,546.91 1533.60203,546.91 L1533.60203,546.91 L1571.62717,546.91 Z M1747.21226,550.670728 C1763.55517,550.670728 1777.34451,547.861789 1788.58026,542.243912 C1799.81602,536.626034 1808.35891,529.034935 1814.20893,519.470614 C1820.05895,509.906294 1822.98396,499.227683 1822.98396,487.434783 C1822.98396,477.59189 1821.38217,468.93293 1818.17859,461.457903 C1814.975,453.982875 1809.77498,447.459637 1802.57853,441.888188 C1795.38207,436.316739 1785.79454,431.534579 1773.81592,427.541707 L1773.81592,427.541707 L1745.40154,418.20953 C1736.76579,415.330949 1730.9622,412.173794 1727.99076,408.738067 C1725.01932,405.302341 1723.5336,401.077325 1723.5336,396.063021 C1723.5336,392.348722 1724.53182,389.075496 1726.52825,386.243342 C1728.52469,383.411189 1731.6122,381.18261 1735.79079,379.557604 C1739.96937,377.932598 1745.30868,377.120095 1751.8087,377.120095 C1759.51587,377.120095 1765.94625,378.698672 1771.09984,381.855826 C1776.25343,385.012981 1780.82666,389.609426 1784.81954,395.645162 L1784.81954,395.645162 L1818.5268,375.030802 C1811.84106,364.630764 1803.27496,356.296805 1792.82849,350.028925 C1782.38203,343.761045 1768.80162,340.627105 1752.08727,340.627105 C1738.15865,340.627105 1725.99432,343.041399 1715.59428,347.869988 C1705.19425,352.698577 1697.09243,359.384316 1691.28884,367.927204 C1685.48525,376.470092 1682.58345,386.312986 1682.58345,397.455883 C1682.58345,407.391634 1684.30131,416.143452 1687.73704,423.711336 C1691.17277,431.279221 1696.11743,437.686387 1702.57102,442.932835 C1709.02462,448.179283 1716.80143,452.288226 1725.90146,455.259666 L1725.90146,455.259666 L1755.56943,465.009701 C1762.34803,467.238281 1767.59447,469.652575 1771.30877,472.252585 C1775.02307,474.852594 1777.59987,477.684747 1779.03916,480.749044 C1780.47845,483.813341 1781.19809,487.156211 1781.19809,490.777652 C1781.19809,497.277676 1778.41237,502.756267 1772.84092,507.213427 C1767.26947,511.670586 1758.77301,513.899165 1747.35154,513.899165 C1737.50865,513.899165 1729.43005,511.925944 1723.11574,507.979501 C1716.80143,504.033058 1711.04427,497.834821 1705.84425,489.38479 L1705.84425,489.38479 L1671.44055,509.859865 C1678.86915,522.95277 1688.43347,533.027806 1700.13351,540.084975 C1711.83356,547.142144 1727.52647,550.670728 1747.21226,550.670728 Z M1938.16205,546.91 L1938.16205,510.138437 L1903.61907,510.138437 C1903.06192,510.138437 1902.66728,510.022365 1902.43514,509.790222 C1902.20299,509.558078 1902.08692,509.117005 1902.08692,508.467003 L1902.08692,508.467003 L1902.086,433.671 L1938.16205,433.670301 L1938.16205,397.59517 L1902.086,397.596 L1902.08692,357.202165 L1860.30105,363.470045 L1860.301,397.596 L1837.04025,397.59517 L1837.04025,433.670301 L1860.301,433.671 L1860.30105,509.024147 C1860.30105,521.902415 1863.62506,531.3893 1870.27306,537.484803 L1870.60823,537.786752 C1877.47969,543.868917 1887.32258,546.91 1900.13691,546.91 L1900.13691,546.91 L1938.16205,546.91 Z"/>
    <path fill="#FFF" fill-rule="nonzero" d="M348.020965,266.596445 C362.321017,266.596445 374.903206,264.600009 385.767531,260.607138 C396.631856,256.614266 405.940819,251.089246 413.694419,244.032077 C421.448018,236.974909 427.878399,228.896308 432.98556,219.796275 L432.98556,219.796275 L397.885432,198.346196 C393.335416,207.0748 386.905035,213.737324 378.59429,218.333769 C370.283546,222.930215 360.185295,225.228437 348.299537,225.228437 C336.692352,225.228437 326.594101,222.489142 318.004784,217.01055 C309.415467,211.531959 302.752942,203.987288 298.017211,194.376539 C293.281479,184.76579 290.913613,173.646106 290.913613,161.017489 C290.913613,148.296014 293.281479,137.129902 298.017211,127.519152 C302.752942,117.908403 309.415467,110.386947 318.004784,104.954784 C326.594101,99.5226215 336.692352,96.8065402 348.299537,96.8065402 C360.092437,96.8065402 370.004973,99.0351197 378.037146,103.492279 C386.069318,107.949438 392.546127,114.728034 397.467574,123.828067 L397.467574,123.828067 L432.706988,101.96013 C427.321254,92.4886673 420.681944,84.2707802 412.789058,77.306469 C404.896172,70.3421579 395.563995,64.956424 384.792527,61.1492672 C374.021059,57.3421105 361.763872,55.4385321 348.020965,55.4385321 C328.613751,55.4385321 311.226188,59.7796194 295.858274,68.4617939 C280.490361,77.1439685 268.349245,89.3779417 259.434927,105.163714 C250.520609,120.949485 246.06345,139.56741 246.06345,161.017489 C246.06345,182.467567 250.520609,201.085492 259.434927,216.871264 C268.349245,232.657036 280.490361,244.891009 295.858274,253.573184 C311.226188,262.255358 328.613751,266.596445 348.020965,266.596445 Z M532.589186,265.900014 C547.632098,265.900014 560.980361,262.673217 572.633975,256.219622 C584.287588,249.766027 593.457265,240.642779 600.143003,228.849879 C606.828742,217.056979 610.171611,203.267643 610.171611,187.481871 C610.171611,171.696099 606.828742,157.906763 600.143003,146.113863 C593.457265,134.320963 584.287588,125.174501 572.633975,118.674477 C560.980361,112.174453 547.632098,108.924442 532.589186,108.924442 C517.731989,108.924442 504.453369,112.174453 492.753326,118.674477 C481.053283,125.174501 471.860393,134.320963 465.174654,146.113863 C458.488915,157.906763 455.146046,171.696099 455.146046,187.481871 C455.146046,203.267643 458.488915,217.056979 465.174654,228.849879 C471.860393,240.642779 481.053283,249.766027 492.753326,256.219622 C504.453369,262.673217 517.731989,265.900014 532.589186,265.900014 Z M532.589186,229.685596 C525.253445,229.685596 518.776635,228.014162 513.158758,224.671292 C507.54088,221.328423 503.176578,216.499834 500.065853,210.185525 C496.955127,203.871217 495.399764,196.303332 495.399764,187.481871 C495.399764,178.567553 496.955127,170.976454 500.065853,164.708574 C503.176578,158.440694 507.54088,153.58889 513.158758,150.153163 C518.776635,146.717437 525.253445,144.999573 532.589186,144.999573 C540.017784,144.999573 546.541022,146.717437 552.1589,150.153163 C557.776777,153.58889 562.141079,158.440694 565.251805,164.708574 C568.36253,170.976454 569.917893,178.567553 569.917893,187.481871 C569.917893,196.303332 568.36253,203.871217 565.251805,210.185525 C562.141079,216.499834 557.776777,221.328423 552.1589,224.671292 C546.541022,228.014162 540.017784,229.685596 532.589186,229.685596 Z M683.401496,262 L683.401496,158.649623 C683.401496,158.649623 684.028284,158.138907 685.28186,157.117475 C686.535436,156.096042 688.4158,154.958538 690.922952,153.704962 C693.430104,152.451386 696.564044,151.337096 700.324772,150.362093 C704.0855,149.387089 708.426587,148.899587 713.348034,148.899587 L713.348034,148.899587 L729.087377,148.899587 L729.087377,112.963742 L714.880182,112.963742 C706.615866,112.963742 699.605126,115.261965 693.847963,119.85841 C688.090799,124.454855 684.422928,132.231669 682.844351,143.188852 L682.844351,143.188852 L676.99433,143.188852 L674.487178,112.963742 L643.42635,112.963742 L643.42635,262 L683.401496,262 Z M849.576879,262 L849.576879,225.228437 L813.641034,225.228437 C813.083889,225.228437 812.689245,225.13558 812.457101,224.949865 C812.224957,224.76415 812.108886,224.346291 812.108886,223.696289 L812.108886,223.696289 L812.1084,148.9 L849.576879,148.899587 L849.576879,112.963742 L812.1084,112.964 L812.108886,72.1528788 L772.13374,72.1528788 L772.1334,112.964 L747.897937,112.963742 L747.897937,148.899587 L772.1334,148.9 L772.13374,225.50701 C772.13374,237.830299 775.364252,246.945511 781.825276,252.852644 L782.162348,253.155325 C788.848086,259.051775 798.458836,262 810.994596,262 L810.994596,262 L849.576879,262 Z M926.768991,262 L926.768991,52.234949 L886.515273,52.234949 L886.515273,262 L926.768991,262 Z M1014.34515,264.507152 C1021.58804,264.507152 1027.92556,263.369648 1033.35772,261.09464 C1038.78988,258.819631 1043.31669,255.639263 1046.93813,251.553533 C1050.55957,247.467804 1053.25244,242.639215 1055.01673,237.067766 L1061.14532,237.067766 L1063.23462,262 L1094.29544,262 L1094.29544,173.274676 C1094.29544,152.288885 1088.56149,136.387042 1077.0936,125.569145 C1065.6257,114.751249 1049.81671,109.3423 1029.66664,109.3423 C1016.10944,109.3423 1004.47904,111.826238 994.775438,116.794113 C985.071831,121.761988 977.062874,128.378084 970.748565,136.6424 L994.566509,157.256761 C998.837953,152.335314 1003.73619,148.667444 1009.26121,146.253149 C1014.78623,143.838855 1021.21661,142.631707 1028.55235,142.631707 C1036.63095,142.631707 1043.0149,144.906716 1047.7042,149.456732 C1052.39351,154.006749 1054.73816,160.738916 1054.73816,169.653235 L1054.73816,174.388966 L1017.82731,174.388966 C1000.46296,174.388966 987.045053,178.567553 977.57359,186.924726 C968.102127,195.281899 963.366395,206.006939 963.366395,219.099843 C963.366395,232.842751 967.939626,243.846362 977.086088,252.110678 C986.23255,260.374994 998.652238,264.507152 1014.34515,264.507152 Z M1022.84161,233.307038 C1015.8773,233.307038 1010.60764,231.798104 1007.03263,228.780236 C1003.45761,225.762368 1001.67011,221.606995 1001.67011,216.314119 C1001.67011,211.206958 1003.34154,207.144443 1006.68441,204.126575 C1010.02728,201.108706 1015.08801,199.599772 1021.86661,199.599772 L1054.73816,199.599772 L1054.73816,223.835575 C1054.73816,223.835575 1054.06494,224.323077 1052.71851,225.29808 C1051.37207,226.273084 1049.39885,227.364159 1046.79884,228.571307 C1044.19883,229.778454 1040.90239,230.869529 1036.90952,231.844533 C1032.91665,232.819536 1028.22735,233.307038 1022.84161,233.307038 Z M1174.90017,262 L1174.90017,151.685312 C1174.90017,151.685312 1175.61982,151.244239 1177.05911,150.362093 C1178.4984,149.479947 1180.54126,148.458514 1183.1877,147.297796 C1185.83414,146.137077 1188.87522,145.115645 1192.31095,144.233499 C1195.74667,143.351353 1199.5074,142.91028 1203.59313,142.91028 C1211.76459,142.91028 1217.80033,145.069216 1221.70034,149.387089 C1225.60036,153.704962 1227.55036,160.553201 1227.55036,169.931807 L1227.55036,169.931807 L1227.55036,262 L1267.66479,262 L1267.66479,167.842514 C1267.66479,148.621015 1263.23085,134.019176 1254.36296,124.036997 C1245.49507,114.054817 1233.30753,109.063728 1217.80033,109.063728 C1210.27887,109.063728 1203.73242,110.363733 1198.16097,112.963742 C1192.58952,115.563751 1187.85379,119.022693 1183.95377,123.340566 C1180.05376,127.658438 1176.85018,132.417384 1174.34303,137.617403 L1174.34303,137.617403 L1168.493,137.617403 L1166.40371,112.963742 L1134.92502,112.963742 L1134.92502,262 L1174.90017,262 Z M1363.66774,265.760728 C1371.93205,265.760728 1379.03565,264.600009 1384.97853,262.278572 C1390.92141,259.957135 1395.95893,256.382122 1400.09109,251.553533 C1404.22324,246.724944 1407.72861,240.59635 1410.6072,233.167752 L1410.6072,233.167752 L1416.5965,233.167752 L1418.6858,262 L1450.0252,262 L1450.0252,52.234949 L1409.91076,52.234949 L1409.91076,136.781686 L1404.20003,136.781686 C1401.69288,131.024522 1398.51251,126.172719 1394.65892,122.226276 C1390.80534,118.279833 1386.25532,115.215536 1381.00887,113.033385 C1375.76243,110.851234 1369.61062,109.760159 1362.55345,109.760159 C1350.38912,109.760159 1339.54801,112.917313 1330.03012,119.231622 C1320.51222,125.545931 1313.01398,134.483463 1307.53539,146.04422 C1302.0568,157.604976 1299.3175,171.463955 1299.3175,187.621157 C1299.3175,203.778359 1302.10323,217.706981 1307.67468,229.407024 C1313.24613,241.107067 1320.88365,250.091028 1330.58726,256.358908 C1340.29087,262.626788 1351.31769,265.760728 1363.66774,265.760728 Z M1370.49276,229.685596 C1363.99274,229.685596 1358.46772,228.130234 1353.9177,225.019508 C1349.36769,221.908782 1345.88553,217.196265 1343.47124,210.881956 C1341.05694,204.567648 1339.84979,196.767619 1339.84979,187.481871 C1339.84979,178.196123 1341.1498,170.396094 1343.74981,164.081786 C1346.34982,157.767477 1350.01769,153.031745 1354.75342,149.874591 C1359.48915,146.717437 1365.01417,145.138859 1371.32848,145.138859 C1377.64279,145.138859 1383.16781,145.858505 1387.90354,147.297796 C1392.63927,148.737087 1396.65536,150.385307 1399.9518,152.242457 C1403.24824,154.099606 1405.73218,155.771041 1407.40361,157.256761 C1409.07505,158.74248 1409.91076,159.48534 1409.91076,159.48534 L1409.91076,159.48534 L1409.91076,214.364112 C1409.91076,214.364112 1409.07505,215.153401 1407.40361,216.731978 C1405.73218,218.310555 1403.24824,220.121276 1399.9518,222.16414 C1396.65536,224.207005 1392.54641,225.971297 1387.62497,227.457017 C1382.70352,228.942737 1376.99279,229.685596 1370.49276,229.685596 Z M1581.97803,262 L1581.97803,225.228437 L1546.04218,225.228437 C1545.48504,225.228437 1545.09039,225.13558 1544.85825,224.949865 C1544.62611,224.76415 1544.51004,224.346291 1544.51004,223.696289 L1544.51004,223.696289 L1544.5094,148.9 L1581.97803,148.899587 L1581.97803,112.963742 L1544.5094,112.964 L1544.51004,72.1528788 L1504.53489,72.1528788 L1504.5344,112.964 L1480.29909,112.963742 L1480.29909,148.899587 L1504.5344,148.9 L1504.53489,225.50701 C1504.53489,237.830299 1507.7654,246.945511 1514.22643,252.852644 L1514.5635,253.155325 C1521.24924,259.051775 1530.85999,262 1543.39575,262 L1543.39575,262 L1581.97803,262 Z M1762.17186,265.900014 C1777.95763,265.900014 1791.32911,263.137504 1802.28629,257.612484 C1813.24348,252.087464 1821.55422,244.635651 1827.21853,235.257045 C1832.88283,225.87844 1835.71499,215.385544 1835.71499,203.778359 C1835.71499,193.935466 1834.06677,185.206863 1830.77033,177.592549 C1827.47388,169.978236 1822.01851,163.269283 1814.40419,157.46569 C1806.78988,151.662097 1796.43627,146.624579 1783.34337,142.353135 L1783.34337,142.353135 L1757.7147,133.856675 C1749.17181,130.978093 1743.48429,127.77451 1740.65214,124.245926 C1737.81999,120.717342 1736.40391,116.399469 1736.40391,111.292307 C1736.40391,107.392293 1737.3557,103.863709 1739.25928,100.706554 C1741.16286,97.5494 1744.06465,95.0886768 1747.96467,93.3243846 C1751.86468,91.5600925 1756.7397,90.6779464 1762.58972,90.6779464 C1770.20403,90.6779464 1776.35584,92.2100948 1781.04514,95.2743917 C1785.73445,98.3386886 1789.75053,102.842276 1793.0934,108.785155 L1793.0934,108.785155 L1825.12923,91.7922362 C1819.92921,81.1136258 1812.26847,72.4082369 1802.14701,65.6760695 C1792.02554,58.9439021 1778.97906,55.5778183 1763.00758,55.5778183 C1750.10039,55.5778183 1738.77178,57.9921129 1729.02174,62.8207019 C1719.2717,67.649291 1711.6806,74.2421722 1706.24844,82.5993455 C1700.81628,90.9565188 1698.1002,100.427982 1698.1002,111.013735 C1698.1002,125.685217 1701.86093,137.75669 1709.38238,147.228153 C1716.90384,156.699616 1728.00031,163.803213 1742.67179,168.538945 L1742.67179,168.538945 L1767.46474,176.478259 C1774.98619,178.892554 1780.78979,181.585421 1784.87551,184.55686 C1788.96124,187.5283 1791.7934,190.778312 1793.37197,194.306896 C1794.95055,197.83548 1795.73984,201.642637 1795.73984,205.728366 C1795.73984,212.692677 1792.97733,218.589127 1787.45231,223.417716 C1781.92729,228.246305 1773.59333,230.6606 1762.45043,230.6606 C1751.40039,230.6606 1742.695,228.339163 1736.33427,223.696289 C1729.97353,219.053415 1724.37887,211.531959 1719.55028,201.131921 L1719.55028,201.131921 L1686.12158,219.099843 C1690.20731,228.942737 1695.59305,237.346339 1702.27878,244.31065 C1708.96452,251.274961 1717.22884,256.614266 1727.07173,260.328565 C1736.91463,264.042865 1748.61467,265.900014 1762.17186,265.900014 Z M1950.96752,262 L1950.96752,225.228437 L1915.03167,225.228437 C1914.47453,225.228437 1914.07988,225.13558 1913.84774,224.949865 C1913.61559,224.76415 1913.49952,224.346291 1913.49952,223.696289 L1913.49952,223.696289 L1913.4994,148.9 L1950.96752,148.899587 L1950.96752,112.963742 L1913.4994,112.964 L1913.49952,72.1528788 L1873.52438,72.1528788 L1873.5234,112.964 L1849.28857,112.963742 L1849.28857,148.899587 L1873.5234,148.9 L1873.52438,225.50701 C1873.52438,237.830299 1876.75489,246.945511 1883.21591,252.852644 L1883.55299,253.155325 C1890.23872,259.051775 1899.84947,262 1912.38523,262 L1912.38523,262 L1950.96752,262 Z" opacity=".8"/>
    <text fill="#FFA600" font-size="16" font-weight="400" letter-spacing="1.508">
      <tspan x="53.134" y="84">NAME SANS V0.3</tspan> <tspan x="131.368" y="122">OPSZ 12</tspan> <tspan x="111.306" y="141">WGHT 760</tspan>
    </text>
    <text fill="#FFA600" font-size="16" font-weight="400" letter-spacing="1.508">
      <tspan x="53.134" y="367">NAME SANS V0.5</tspan> <tspan x="131.368" y="405">OPSZ 12</tspan> <tspan x="111.306" y="424">WGHT 700</tspan>
    </text>
  </g>
</svg>
