<svg xmlns="http://www.w3.org/2000/svg" width="1891" height="787" viewBox="0 0 1891 787">
  <g fill="none" fill-rule="evenodd">
    <rect width="1891" height="787" fill="#222"/>
    <g fill-rule="nonzero" transform="translate(57.953 53.053)">
      <path fill="#FFF" d="M93.3778125 263.140049C153.6271 263.140049 186.755625 228.981621 186.755625 185.210771 186.755625 148.992539 170.448838 126.163037 126.163037 111.401104L91.1463574 99.9005273C69.861709 92.8628613 64.1972461 84.9669434 64.1972461 72.6081152 64.1972461 59.0477344 75.0112207 49.2636621 99.0422754 49.2636621 118.095469 49.2636621 129.767695 57.1595801 139.723418 72.0931641L181.262812 46.6889062C164.784375 21.112998 140.58167 4.29125977 99.3855762 4.29125977 47.890459 4.29125977 13.7320312 33.3001758 13.7320312 74.3246191 13.7320312 111.229453 33.4718262 134.573906 67.1153027 145.559531L103.676836 157.575059C128.737793 165.814277 135.260508 176.113301 135.260508 189.330381 135.260508 205.293867 121.700127 217.824346 93.5494629 217.824346 69.1751074 217.824346 55.0997754 208.383574 42.3976465 187.613877L0 212.846484C18.1949414 245.116758 44.800752 263.140049 93.3778125 263.140049zM310.000605 264.684902C342.61418 264.684902 366.130283 255.244131 385.355127 236.534238L356.689512 204.435615C344.330684 216.279492 330.427002 222.973857 310.515557 222.973857 282.536543 222.973857 268.804512 208.383574 266.229756 182.636016L394.624248 182.636016C402.520166 113.117607 369.391641 68.3168555 306.395947 68.3168555 247.863164 68.3168555 214.391338 108.826348 214.391338 166.84418 214.391338 225.205312 246.489961 264.684902 310.000605 264.684902zM345.017285 150.194092L266.401406 150.194092C269.834414 123.931582 285.111299 109.512949 306.395947 109.512949 329.3971 109.512949 343.472432 123.588281 345.017285 150.194092zM514.607871 263.311699C547.908047 263.311699 571.595801 252.497725 589.962393 223.317158L550.997754 197.397949C543.445137 212.331533 531.086309 217.995996 515.122822 217.995996 487.65876 217.995996 475.299932 196.882998 475.299932 166.500879 475.299932 136.11876 487.65876 114.834111 515.122822 114.834111 530.399707 114.834111 543.101836 121.013525 550.997754 135.260508L590.134043 110.542852C571.08085 79.989082 547.564746 69.3467578 514.607871 69.3467578 458.134893 69.3467578 423.633164 109.341299 423.633164 166.500879 423.633164 223.660459 458.306543 263.311699 514.607871 263.311699zM707.37126 263.311699C764.015889 263.311699 801.950625 224.862012 801.950625 166.500879 801.950625 107.968096 764.015889 69.3467578 707.37126 69.3467578 650.726631 69.3467578 612.791895 107.968096 612.791895 166.500879 612.791895 224.862012 650.726631 263.311699 707.37126 263.311699zM707.37126 218.510947C680.250498 218.510947 664.630312 199.972705 664.630312 166.500879 664.630312 133.029053 679.735547 114.14751 707.37126 114.14751 735.006973 114.14751 750.283857 133.029053 750.283857 166.500879 750.283857 199.972705 734.492021 218.510947 707.37126 218.510947zM892.06708 258.505488L892.06708 146.246133C892.06708 123.931582 902.709404 112.945957 923.307451 112.945957 943.905498 112.945957 954.376172 123.931582 954.376172 146.246133L954.376172 258.505488 1005.87129 258.505488 1005.87129 143.328076C1005.87129 96.2958691 982.698486 70.8916113 943.390547 70.8916113 917.128037 70.8916113 900.9929 83.4220898 891.208828 104.363438L885.716016 104.363438 883.484561 74.4962695 840.571963 74.4962695 840.571963 258.505488 892.06708 258.505488zM1120.3621 262.281797C1148.16946 262.281797 1167.56596 250.43792 1177.17838 224.690361L1182.67119 224.690361 1188.164 258.505488 1230.21835 258.505488 1230.21835 0 1178.55158 0 1178.55158 103.676836 1173.05877 103.676836C1163.2747 84.1086914 1146.10966 70.7199609 1120.3621 70.7199609 1074.35979 70.7199609 1042.77612 106.766543 1042.77612 166.500879 1042.77612 226.235215 1074.18814 262.281797 1120.3621 262.281797zM1136.49724 218.167646C1109.89143 218.167646 1095.12949 199.972705 1095.12949 166.500879 1095.12949 133.200703 1109.89143 115.005762 1136.49724 115.005762 1163.2747 115.005762 1178.37993 133.715654 1178.37993 166.672529 1178.37993 199.629404 1163.2747 218.167646 1136.49724 218.167646zM1416.80232 258.505488L1430.19105 219.7125 1523.74052 219.7125 1537.12925 258.505488 1597.89349 258.505488 1498.50791 8.92582031 1457.99842 8.92582031 1358.61284 258.505488 1416.80232 258.505488zM1508.46363 175.083398L1445.63959 175.083398 1473.79025 93.3778125 1480.31297 93.3778125 1508.46363 175.083398zM1694.53266 258.505488L1769.02893 74.4962695 1713.24255 74.4962695 1679.08412 188.81543 1672.56141 188.81543 1638.74628 74.4962695 1580.9001 74.4962695 1654.70977 258.505488 1694.53266 258.505488zM93.5494629 630.707329C150.537393 630.707329 182.807666 600.840161 182.807666 559.300767 182.807666 524.799038 166.672529 504.544292 119.983623 489.095757L84.9669434 477.595181C52.8683203 466.952856 42.3976465 454.937329 42.3976465 433.652681 42.3976465 411.33813 59.9059863 392.628237 97.3257715 392.628237 124.789834 392.628237 141.611572 403.785513 154.142051 420.950552L173.710195 408.763374C157.403408 385.933872 134.917207 371.515239 97.6690723 371.515239 46.8605566 371.515239 18.3665918 399.150952 18.3665918 434.339282 18.3665918 467.296157 35.3599805 486.864302 73.6380176 499.22313L109.341299 510.895356C146.761084 523.254185 158.26166 537.501167 158.26166 561.017271 158.26166 589.511235 135.432158 609.25103 93.7211133 609.25103 58.1894824 609.25103 37.9347363 595.690649 23.3444531 570.972993L3.26135742 583.160171C20.7696973 613.71394 47.5471582 630.707329 93.5494629 630.707329zM308.627402 631.393931C338.49457 631.393931 360.46582 621.609858 377.630859 603.929868L363.040576 588.996284C349.651846 603.243267 331.971855 610.624233 308.970703 610.624233 266.916357 610.624233 245.116758 584.533374 244.258506 542.307378L387.071631 542.307378C391.362891 478.796733 359.607568 441.548599 306.052646 441.548599 252.154424 441.548599 219.88415 479.998286 219.88415 536.986216 219.88415 593.802495 250.60957 631.393931 308.627402 631.393931zM363.383877 523.940786L244.773457 523.940786C248.206465 485.491099 271.035967 461.803345 306.052646 461.803345 339.524473 461.803345 362.010674 483.259644 363.383877 523.940786zM508.600107 630.707329C538.982227 630.707329 561.125127 618.863452 576.058711 594.660747L557.348818 582.473569C547.736396 599.638608 531.257959 609.07938 508.771758 609.07938 471.866924 609.07938 449.552373 580.413765 449.552373 536.471265 449.552373 492.528765 471.866924 463.519849 508.771758 463.519849 530.743008 463.519849 547.049795 472.617319 557.005518 489.954009L575.887061 478.110132C560.438525 453.049175 538.810576 441.720249 508.600107 441.720249 457.791592 441.720249 425.178018 479.826636 425.178018 536.471265 425.178018 593.115894 457.963242 630.707329 508.600107 630.707329zM698.445439 630.535679C751.142109 630.535679 785.815488 591.74269 785.815488 536.299614 785.815488 480.856538 751.142109 441.891899 698.445439 441.891899 645.577119 441.891899 610.90374 480.684888 610.90374 536.299614 610.90374 591.74269 645.577119 630.535679 698.445439 630.535679zM698.445439 609.25103C659.652451 609.25103 635.449746 579.555513 635.449746 536.299614 635.449746 492.872065 659.30915 463.348198 698.445439 463.348198 737.410078 463.348198 761.441133 493.043716 761.441133 536.299614 761.441133 579.727163 737.238428 609.25103 698.445439 609.25103zM861.684961 625.901118L861.684961 515.186616C861.684961 481.88644 880.566504 462.318296 912.321826 462.318296 944.248799 462.318296 962.958691 479.654985 962.958691 515.014966L962.958691 625.901118 987.161396 625.901118 987.161396 513.985063C987.161396 466.781206 962.27209 442.2352 919.702793 442.2352 890.522227 442.2352 871.125732 455.967231 861.856611 476.736929L859.110205 476.736929 858.080303 446.869761 837.482256 446.869761 837.482256 625.901118 861.684961 625.901118zM1113.66773 629.677427C1140.4452 629.677427 1166.3644 617.490249 1178.37993 585.563276L1181.12634 585.563276 1183.52944 625.901118 1203.95584 625.901118 1203.95584 367.39563 1179.40983 367.39563 1179.40983 484.289546 1176.66343 484.289546C1164.3046 455.28063 1141.30345 442.750151 1112.98113 442.750151 1068.00873 442.750151 1037.11166 475.192075 1037.11166 536.299614 1037.11166 597.407153 1068.52368 629.677427 1113.66773 629.677427zM1120.53375 608.564429C1085.68872 608.564429 1062.00097 584.705024 1062.00097 536.299614 1062.00097 487.894204 1085.17377 464.20645 1120.0188 464.20645 1156.23703 464.20645 1179.40983 490.46896 1179.40983 536.471265 1179.40983 581.786968 1156.23703 608.564429 1120.53375 608.564429zM1384.7037 625.901118L1408.39146 565.480181 1529.23333 565.480181 1552.92108 625.901118 1581.5867 625.901118 1478.76812 374.604946 1459.88657 374.604946 1357.06799 625.901118 1384.7037 625.901118zM1520.99411 544.195532L1416.63067 544.195532 1466.92424 415.62939 1470.70055 415.62939 1520.99411 544.195532zM1676.85267 625.901118L1753.92369 446.869761 1727.48953 446.869761 1669.98665 591.57104 1666.03869 591.57104 1608.53581 446.869761 1581.07175 446.869761 1657.97112 625.901118 1676.85267 625.901118z"/>
      <path fill="#FFA600" d="M13.1808547 313.102352L13.1808547 306.818172 13.3205031 306.818172 18.0748977 313.102352 19.1349562 313.102352 19.1349562 303.87286 17.6749953 303.87286 17.6749953 310.163387 17.5480422 310.163387 12.7873 303.87286 11.7208937 303.87286 11.7208937 313.102352 13.1808547 313.102352zM23.3818312 313.102352L24.0610305 311.267879 28.0346633 311.267879 28.7138625 313.102352 30.3706008 313.102352 26.6318312 303.841121 25.5336867 303.841121 21.7949172 313.102352 23.3818312 313.102352zM27.5839797 310.049129L24.5117141 310.049129 25.952632 306.158016 26.1494094 306.158016 27.5839797 310.049129zM34.4460891 313.102352L34.4460891 307.351375 34.5920852 307.351375 37.1882766 313.102352 38.1086867 313.102352 40.7048781 307.351375 40.8508742 307.351375 40.8508742 313.102352 42.2600539 313.102352 42.2600539 303.87286 40.9333937 303.87286 37.7405227 310.906063 37.6072219 310.906063 34.3953078 303.87286 33.0305617 303.87286 33.0305617 313.102352 34.4460891 313.102352zM52.0801711 313.102352L52.0801711 311.845516 47.4146437 311.845516 47.4146437 308.995418 50.2393508 308.995418 50.2393508 307.751278 47.4146437 307.751278 47.4146437 305.129696 51.915132 305.129696 51.915132 303.87286 45.9483352 303.87286 45.9483352 313.102352 52.0801711 313.102352zM62.7384719 313.280086C64.9030227 313.280086 66.1090773 312.093075 66.1090773 310.512508 66.1090773 309.211239 65.5123977 308.411434 63.8302687 307.85284L62.5353469 307.427547C61.5514602 307.103817 61.2467727 306.735653 61.2467727 306.113582 61.2467727 305.447078 61.7736281 304.920223 62.9098586 304.920223 63.7667922 304.920223 64.2999953 305.275692 64.712593 305.866024L65.8424758 305.167782C65.2331008 304.27911 64.3698195 303.695125 62.9225539 303.695125 61.0309523 303.695125 59.8693312 304.742489 59.8693312 306.158016 59.8693312 307.44659 60.5548781 308.240047 61.8815383 308.671688L63.2145461 309.109676C64.3761672 309.490536 64.7062453 309.947567 64.7062453 310.626766 64.7062453 311.445614 64.0333937 312.042293 62.7384719 312.042293 61.6339797 312.042293 60.9992141 311.617 60.4914016 310.77911L59.3424758 311.464657C60.002632 312.632625 60.9865187 313.280086 62.7384719 313.280086zM69.6005812 313.102352L70.2797805 311.267879 74.2534133 311.267879 74.9326125 313.102352 76.5893508 313.102352 72.8505812 303.841121 71.7524367 303.841121 68.0136672 313.102352 69.6005812 313.102352zM73.8027297 310.049129L70.7304641 310.049129 72.171382 306.158016 72.3681594 306.158016 73.8027297 310.049129zM80.7092727 313.102352L80.7092727 306.818172 80.8489211 306.818172 85.6033156 313.102352 86.6633742 313.102352 86.6633742 303.87286 85.2034133 303.87286 85.2034133 310.163387 85.0764602 310.163387 80.315718 303.87286 79.2493117 303.87286 79.2493117 313.102352 80.7092727 313.102352zM92.7510695 313.280086C94.9156203 313.280086 96.121675 312.093075 96.121675 310.512508 96.121675 309.211239 95.5249953 308.411434 93.8428664 307.85284L92.5479445 307.427547C91.5640578 307.103817 91.2593703 306.735653 91.2593703 306.113582 91.2593703 305.447078 91.7862258 304.920223 92.9224562 304.920223 93.7793898 304.920223 94.312593 305.275692 94.7251906 305.866024L95.8550734 305.167782C95.2456984 304.27911 94.3824172 303.695125 92.9351516 303.695125 91.04355 303.695125 89.8819289 304.742489 89.8819289 306.158016 89.8819289 307.44659 90.5674758 308.240047 91.8941359 308.671688L93.2271437 309.109676C94.3887648 309.490536 94.718843 309.947567 94.718843 310.626766 94.718843 311.445614 94.0459914 312.042293 92.7510695 312.042293 91.6465773 312.042293 91.0118117 311.617 90.5039992 310.77911L89.3550734 311.464657C90.0152297 312.632625 90.9991164 313.280086 92.7510695 313.280086zM107.947945 313.102352L107.947945 305.155086 110.798042 305.155086 110.798042 303.87286 103.5998 303.87286 103.5998 305.155086 106.468941 305.155086 106.468941 313.102352 107.947945 313.102352zM119.945308 313.102352L119.945308 311.845516 115.27978 311.845516 115.27978 308.995418 118.104487 308.995418 118.104487 307.751278 115.27978 307.751278 115.27978 305.129696 119.780269 305.129696 119.780269 303.87286 113.813472 303.87286 113.813472 313.102352 119.945308 313.102352zM123.906538 313.102352L126.090132 309.458797 126.286909 309.458797 128.673628 313.102352 130.387495 313.102352 127.220015 308.328914 130.18437 303.87286 128.502241 303.87286 126.540816 307.243465 126.350386 307.243465 124.166792 303.87286 122.433882 303.87286 125.398237 308.328914 122.192671 313.102352 123.906538 313.102352zM136.843355 313.102352L136.843355 305.155086 139.693452 305.155086 139.693452 303.87286 132.49521 303.87286 132.49521 305.155086 135.364351 305.155086 135.364351 313.102352 136.843355 313.102352zM151.44355 313.102352C153.373237 313.102352 154.547554 312.181942 154.547554 310.487118 154.547554 309.376278 153.938179 308.620907 152.725777 308.360653L152.725777 308.195614C153.66523 307.929012 154.274605 307.300594 154.274605 306.253231 154.274605 304.805965 153.201851 303.87286 151.138862 303.87286L147.812691 303.87286 147.812691 313.102352 151.44355 313.102352zM151.126167 307.814754L149.285347 307.814754 149.285347 305.129696 151.11982 305.129696C152.294136 305.129696 152.808296 305.612118 152.808296 306.424618 152.808296 307.33868 152.319527 307.814754 151.126167 307.814754zM151.348335 311.845516L149.285347 311.845516 149.285347 308.950985 151.341987 308.950985C152.548042 308.950985 153.081245 309.395321 153.081245 310.391903 153.081245 311.420223 152.408394 311.845516 151.348335 311.845516zM161.612788 313.280086C164.304195 313.280086 166.100581 311.40118 166.100581 308.500301 166.100581 305.599422 164.304195 303.695125 161.612788 303.695125 158.921382 303.695125 157.163081 305.599422 157.163081 308.500301 157.163081 311.40118 158.92773 313.280086 161.612788 313.280086zM161.612788 311.928036C159.727534 311.928036 158.648433 310.614071 158.648433 308.500301 158.648433 306.392879 159.721187 305.047176 161.612788 305.047176 163.50439 305.047176 164.61523 306.392879 164.61523 308.500301 164.61523 310.614071 163.498042 311.928036 161.612788 311.928036zM174.917769 313.102352L174.917769 311.788387 170.671187 311.788387 170.671187 303.87286 169.204878 303.87286 169.204878 313.102352 174.917769 313.102352zM180.903902 313.102352C183.741304 313.102352 185.5123 311.388485 185.5123 308.500301 185.5123 305.612118 183.741304 303.87286 180.891206 303.87286L177.996675 303.87286 177.996675 313.102352 180.903902 313.102352zM180.910249 311.737606L179.462984 311.737606 179.462984 305.237606 180.910249 305.237606C182.897066 305.237606 184.026948 306.367489 184.026948 308.493953 184.026948 310.620418 182.897066 311.737606 180.910249 311.737606zM13.1808547 680.217352L13.1808547 673.933172 13.3205031 673.933172 18.0748977 680.217352 19.1349562 680.217352 19.1349562 670.98786 17.6749953 670.98786 17.6749953 677.278387 17.5480422 677.278387 12.7873 670.98786 11.7208937 670.98786 11.7208937 680.217352 13.1808547 680.217352zM23.3818312 680.217352L24.0610305 678.382879 28.0346633 678.382879 28.7138625 680.217352 30.3706008 680.217352 26.6318312 670.956121 25.5336867 670.956121 21.7949172 680.217352 23.3818312 680.217352zM27.5839797 677.164129L24.5117141 677.164129 25.952632 673.273016 26.1494094 673.273016 27.5839797 677.164129zM34.4460891 680.217352L34.4460891 674.466375 34.5920852 674.466375 37.1882766 680.217352 38.1086867 680.217352 40.7048781 674.466375 40.8508742 674.466375 40.8508742 680.217352 42.2600539 680.217352 42.2600539 670.98786 40.9333937 670.98786 37.7405227 678.021063 37.6072219 678.021063 34.3953078 670.98786 33.0305617 670.98786 33.0305617 680.217352 34.4460891 680.217352zM52.0801711 680.217352L52.0801711 678.960516 47.4146437 678.960516 47.4146437 676.110418 50.2393508 676.110418 50.2393508 674.866278 47.4146437 674.866278 47.4146437 672.244696 51.915132 672.244696 51.915132 670.98786 45.9483352 670.98786 45.9483352 680.217352 52.0801711 680.217352zM62.7384719 680.395086C64.9030227 680.395086 66.1090773 679.208075 66.1090773 677.627508 66.1090773 676.326239 65.5123977 675.526434 63.8302687 674.96784L62.5353469 674.542547C61.5514602 674.218817 61.2467727 673.850653 61.2467727 673.228582 61.2467727 672.562078 61.7736281 672.035223 62.9098586 672.035223 63.7667922 672.035223 64.2999953 672.390692 64.712593 672.981024L65.8424758 672.282782C65.2331008 671.39411 64.3698195 670.810125 62.9225539 670.810125 61.0309523 670.810125 59.8693312 671.857489 59.8693312 673.273016 59.8693312 674.56159 60.5548781 675.355047 61.8815383 675.786688L63.2145461 676.224676C64.3761672 676.605536 64.7062453 677.062567 64.7062453 677.741766 64.7062453 678.560614 64.0333937 679.157293 62.7384719 679.157293 61.6339797 679.157293 60.9992141 678.732 60.4914016 677.89411L59.3424758 678.579657C60.002632 679.747625 60.9865187 680.395086 62.7384719 680.395086zM69.6005812 680.217352L70.2797805 678.382879 74.2534133 678.382879 74.9326125 680.217352 76.5893508 680.217352 72.8505812 670.956121 71.7524367 670.956121 68.0136672 680.217352 69.6005812 680.217352zM73.8027297 677.164129L70.7304641 677.164129 72.171382 673.273016 72.3681594 673.273016 73.8027297 677.164129zM80.7092727 680.217352L80.7092727 673.933172 80.8489211 673.933172 85.6033156 680.217352 86.6633742 680.217352 86.6633742 670.98786 85.2034133 670.98786 85.2034133 677.278387 85.0764602 677.278387 80.315718 670.98786 79.2493117 670.98786 79.2493117 680.217352 80.7092727 680.217352zM92.7510695 680.395086C94.9156203 680.395086 96.121675 679.208075 96.121675 677.627508 96.121675 676.326239 95.5249953 675.526434 93.8428664 674.96784L92.5479445 674.542547C91.5640578 674.218817 91.2593703 673.850653 91.2593703 673.228582 91.2593703 672.562078 91.7862258 672.035223 92.9224562 672.035223 93.7793898 672.035223 94.312593 672.390692 94.7251906 672.981024L95.8550734 672.282782C95.2456984 671.39411 94.3824172 670.810125 92.9351516 670.810125 91.04355 670.810125 89.8819289 671.857489 89.8819289 673.273016 89.8819289 674.56159 90.5674758 675.355047 91.8941359 675.786688L93.2271437 676.224676C94.3887648 676.605536 94.718843 677.062567 94.718843 677.741766 94.718843 678.560614 94.0459914 679.157293 92.7510695 679.157293 91.6465773 679.157293 91.0118117 678.732 90.5039992 677.89411L89.3550734 678.579657C90.0152297 679.747625 90.9991164 680.395086 92.7510695 680.395086zM107.947945 680.217352L107.947945 672.270086 110.798042 672.270086 110.798042 670.98786 103.5998 670.98786 103.5998 672.270086 106.468941 672.270086 106.468941 680.217352 107.947945 680.217352zM119.945308 680.217352L119.945308 678.960516 115.27978 678.960516 115.27978 676.110418 118.104487 676.110418 118.104487 674.866278 115.27978 674.866278 115.27978 672.244696 119.780269 672.244696 119.780269 670.98786 113.813472 670.98786 113.813472 680.217352 119.945308 680.217352zM123.906538 680.217352L126.090132 676.573797 126.286909 676.573797 128.673628 680.217352 130.387495 680.217352 127.220015 675.443914 130.18437 670.98786 128.502241 670.98786 126.540816 674.358465 126.350386 674.358465 124.166792 670.98786 122.433882 670.98786 125.398237 675.443914 122.192671 680.217352 123.906538 680.217352zM136.843355 680.217352L136.843355 672.270086 139.693452 672.270086 139.693452 670.98786 132.49521 670.98786 132.49521 672.270086 135.364351 672.270086 135.364351 680.217352 136.843355 680.217352zM153.525581 680.217352L153.525581 678.903387 149.278999 678.903387 149.278999 670.98786 147.812691 670.98786 147.812691 680.217352 153.525581 680.217352zM158.146968 680.217352L158.146968 670.98786 156.680659 670.98786 156.680659 680.217352 158.146968 680.217352zM165.523237 680.407782C166.938765 680.407782 167.948042 679.81745 168.417769 678.5987L168.563765 678.5987 168.665327 680.217352 169.820601 680.217352 169.820601 675.310614 165.827925 675.310614 165.827925 676.529364 168.373335 676.529364 168.373335 676.840399C168.373335 678.243231 167.46562 679.074774 165.726362 679.074774 163.904585 679.074774 162.806441 677.710028 162.806441 675.621649 162.806441 673.539618 164.006148 672.181219 165.821577 672.181219 166.907027 672.181219 167.65605 672.619207 168.240034 673.393621L169.414351 672.492254C168.608198 671.425848 167.478316 670.784735 165.81523 670.784735 163.231734 670.784735 161.321089 672.657293 161.321089 675.596258 161.321089 678.535223 163.092085 680.407782 165.523237 680.407782zM174.860933 680.217352L174.860933 676.211981 179.221773 676.211981 179.221773 680.217352 180.688081 680.217352 180.688081 670.98786 179.221773 670.98786 179.221773 674.917059 174.860933 674.917059 174.860933 670.98786 173.394624 670.98786 173.394624 680.217352 174.860933 680.217352zM188.051655 680.217352L188.051655 672.270086 190.901753 672.270086 190.901753 670.98786 183.703511 670.98786 183.703511 672.270086 186.572652 672.270086 186.572652 680.217352 188.051655 680.217352z"/>
    </g>
  </g>
</svg>
