<svg xmlns="http://www.w3.org/2000/svg" width="1839" height="1761" viewBox="0 0 1839 1761">
  <g fill="none" fill-rule="evenodd" transform="translate(35.177 .155)">
    <path fill="gray" d="M537.676646,1752.66536 C773.612368,1752.66536 922.877825,1686.86016 1022.38813,1548.82974 L1035.22817,1548.82974 L1075.35329,1728.59029 L1768.71541,1728.59029 L1768.71541,831.392545 C1768.71541,272.850835 1470.1845,-6.82121026e-13 911.64279,-6.82121026e-13 C487.921493,-6.82121026e-13 186.18057,194.205594 56.1751719,515.206577 L706.202162,717.437196 C731.88224,650.02699 775.217373,611.506872 849.047599,611.506872 C927.692839,611.506872 974.237982,659.657019 974.237982,743.117275 L974.237982,754.352309 L617.926891,754.352309 C215.070658,754.352309 -7.95807864e-13,953.372918 -7.95807864e-13,1259.92886 C-7.95807864e-13,1563.27478 218.280668,1752.66536 537.676646,1752.66536 Z M861.887638,1240.6688 C797.687442,1240.6688 768.797353,1208.5687 768.797353,1158.81355 C768.797353,1110.6634 805.712466,1076.9583 861.887638,1076.9583 L974.237982,1076.9583 L974.237982,1115.47841 C974.237982,1200.54367 930.902849,1240.6688 861.887638,1240.6688 Z" opacity=".26"/>
    <path stroke="#9F9F9F" stroke-width="2" d="M899.993496,45.9401376 C1136.77279,45.9401376 1314.89071,110.454114 1434.49056,231.655746 C1555.73202,354.520973 1616.80798,535.602773 1618.01737,766.597265 L1618.0357,773.612368 L1618.0357,1727.59029 L1236.30682,1727.59029 L1205.81172,1514.12464 L1191.54526,1514.12464 C1089.02726,1681.09697 920.658411,1754.87537 691.342857,1754.87537 C519.119491,1754.87537 379.017056,1704.91248 281.726274,1616.76869 C183.539528,1527.81318 128.986133,1399.98208 128.986133,1245.48381 C128.986133,1089.16222 185.312866,961.203038 288.632577,872.643286 C389.716812,785.999655 535.745472,737.076743 717.911714,736.106949 L723.442955,736.09225 L1154.58427,736.09225 L1154.58427,690.152112 C1154.58427,614.000026 1130.83909,552.429781 1084.48309,510.262576 C1039.61807,469.451623 973.535397,446.796371 887.153456,446.796371 C740.982203,446.796371 637.162903,512.679198 558.670127,621.237838 L556.299293,624.540533 L227.293676,380.181992 C379.598248,177.046019 611.816289,45.9401376 899.993496,45.9401376 Z M1154.58427,1061.51325 L786.038147,1061.51325 L784.097692,1061.51767 C720.208548,1061.80936 670.76377,1076.52845 637.067249,1103.48567 C602.466347,1131.16639 584.412533,1171.7544 584.412533,1223.01374 C584.412533,1275.6828 602.325326,1316.95085 636.449567,1345.02079 C670.294695,1372.86114 720.142032,1387.72424 784.433142,1387.72424 C895.503196,1387.72424 988.038854,1355.89213 1052.80161,1300.13984 C1117.5649,1244.3871 1154.58427,1164.70929 1154.58427,1068.93327 L1154.58427,1068.93327 L1154.58427,1061.51325 Z"/>
    <path stroke="#9F9F9F" stroke-width="2" d="M921.979168,88.7991389 C1132.62168,88.7991389 1295.46021,150.81943 1405.92995,266.691109 C1516.50136,382.66943 1574.58464,552.560861 1575.73525,768.047086 L1575.75268,774.59092 L1575.75268,1727.73521 L1358.37175,1727.73521 L1342.36262,1449.17631 L1332.8021,1449.17631 C1280.81478,1550.94678 1207.71793,1628.70637 1109.70624,1680.54726 C1014.96693,1730.65731 896.963648,1756.55165 752.282364,1756.55165 C579.900293,1756.55165 440.177005,1709.95962 343.4906,1626.25682 C246.597963,1542.37547 192.96273,1421.23266 192.96273,1272.47494 C192.96273,1121.03509 249.212979,998.520489 352.483444,914.026473 C454.136187,830.856047 601.303802,784.527654 785.1228,783.609403 L790.704282,783.595486 L1312.00109,783.595486 L1312.00109,737.769915 C1312.00109,610.526259 1275.99543,508.766022 1208.93112,438.941868 C1142.34439,369.614943 1045.11861,331.738865 921.979168,331.738865 C739.719541,331.738865 612.257421,410.021385 511.759691,549.599997 L508.72253,553.848396 L310.191308,404.552917 C450.877126,197.22827 660.119448,88.7991389 921.979168,88.7991389 Z M1312.00109,996.11786 L811.516154,996.11786 L808.076107,996.12525 C694.802512,996.612819 606.088765,1021.21534 545.351422,1066.026 C483.227813,1111.85942 450.310675,1178.82875 450.310675,1262.86946 C450.310675,1349.51675 483.167479,1418.12972 543.640327,1465.13361 C604.2266,1512.22567 692.586986,1537.62562 803.511588,1537.62562 C958.287005,1537.62562 1085.38011,1490.68618 1173.79367,1407.29295 C1262.23751,1323.87116 1312.00109,1203.95604 1312.00109,1057.95256 L1312.00109,1057.95256 L1312.00109,996.11786 Z"/>
    <path fill="#FB0000" d="M815.372225,1760.69039 C1203.78341,1760.69039 1462.18921,1521.54466 1491.07929,1134.73847 L1491.07929,1728.59029 L1494.2893,1728.59029 L1494.2893,762.377333 C1494.2893,367.546125 1284.03366,134.820413 926.117564,134.820413 C686.971832,134.820413 495.976248,231.120707 372.39087,436.561336 L375.600879,438.166341 C499.186258,234.330717 688.576837,138.030422 926.117564,138.030422 C1282.42865,138.030422 1491.07929,369.15113 1491.07929,762.377333 L1491.07929,839.417569 L841.052304,839.417569 C459.061135,839.417569 240.780467,1003.12807 240.780467,1288.81894 C240.780467,1584.13985 457.45613,1760.69039 815.372225,1760.69039 Z M815.372225,1757.48038 C459.061135,1757.48038 243.990477,1580.92984 243.990477,1288.81894 C243.990477,1006.33808 460.66614,842.627579 841.052304,842.627579 L1491.07929,842.627579 L1491.07929,1056.09323 C1491.07929,1484.62954 1229.46349,1757.48038 815.372225,1757.48038 Z"/>
  </g>
</svg>
