<svg xmlns="http://www.w3.org/2000/svg" width="1891" height="609" viewBox="0 0 1891 609">
  <g fill="none" fill-rule="evenodd">
    <rect width="1891" height="609" fill="#222"/>
    <path fill="#FFF" fill-rule="nonzero" d="M345.500402,549.695724 C357.943304,549.695724 369.202274,548.140362 379.277311,545.029636 C389.352348,541.91891 398.405952,537.368894 406.438124,531.379586 C414.470296,525.390279 421.550679,518.031323 427.679273,509.30272 L427.679273,509.30272 L395.36487,483.256196 C389.329133,491.799085 382.364822,498.113393 374.471936,502.199123 C366.57905,506.284852 357.200445,508.327716 346.336119,508.327716 C333.986074,508.327716 323.44675,505.588421 314.718147,500.109829 C305.989544,494.631238 299.303805,487.179425 294.660931,477.754391 C290.018057,468.329356 287.69662,457.627531 287.69662,445.648916 C287.69662,433.670301 290.018057,422.945262 294.660931,413.473799 C299.303805,404.002336 305.989544,396.550523 314.718147,391.11836 C323.44675,385.686198 333.986074,382.970116 346.336119,382.970116 C357.107587,382.970116 366.370121,385.05941 374.123721,389.237996 C381.87732,393.416583 388.818417,399.823749 394.947011,408.459495 L394.947011,408.459495 L427.679273,381.995113 C421.457822,373.266509 414.33101,365.907554 406.298838,359.918246 C398.266666,353.928939 389.213061,349.378922 379.138025,346.268197 C369.062988,343.157471 357.804018,341.602108 345.361116,341.602108 C324.746755,341.602108 306.685975,346.036053 291.178775,354.903942 C275.671576,363.771832 263.600103,376.029019 254.964357,391.675505 C246.328612,407.321991 242.010739,425.313128 242.010739,445.648916 C242.010739,465.891847 246.328612,483.85977 254.964357,499.552684 C263.600103,515.245599 275.69479,527.526001 291.248418,536.39389 C306.802046,545.26178 324.886041,549.695724 345.500402,549.695724 Z M511.251007,551.367159 C526.293919,551.367159 539.595753,548.070719 551.156509,541.477837 C562.717266,534.884956 571.77087,525.87778 578.317323,514.45631 C584.863775,503.03484 588.137001,490.12765 588.137001,475.73474 C588.137001,461.248973 584.840561,448.295355 578.24768,436.873884 C571.654798,425.452414 562.57798,416.422024 551.017223,409.782714 C539.456467,403.143404 526.201061,399.823749 511.251007,399.823749 C496.300952,399.823749 483.045547,403.143404 471.48479,409.782714 C459.924034,416.422024 450.847215,425.452414 444.254334,436.873884 C437.661452,448.295355 434.365012,461.248973 434.365012,475.73474 C434.365012,490.12765 437.638238,503.03484 444.184691,514.45631 C450.731143,525.87778 459.807962,534.884956 471.415147,541.477837 C483.022332,548.070719 496.300952,551.367159 511.251007,551.367159 Z M511.251007,513.481307 C504.286696,513.481307 498.158102,511.879515 492.865225,508.675932 C487.572349,505.472349 483.463405,501.038404 480.538395,495.374098 C477.613384,489.709791 476.150879,483.163339 476.150879,475.73474 C476.150879,468.213284 477.613384,461.597189 480.538395,455.886454 C483.463405,450.175719 487.572349,445.695345 492.865225,442.445333 C498.158102,439.195321 504.286696,437.570315 511.251007,437.570315 C518.215318,437.570315 524.343912,439.195321 529.636788,442.445333 C534.929664,445.695345 539.038608,450.175719 541.963619,455.886454 C544.888629,461.597189 546.351135,468.213284 546.351135,475.73474 C546.351135,483.163339 544.888629,489.709791 541.963619,495.374098 C539.038608,501.038404 534.952879,505.472349 529.706431,508.675932 C524.459983,511.879515 518.308175,513.481307 511.251007,513.481307 Z M646.637215,546.91 L646.637215,471.277581 C646.637215,461.341831 648.935438,454.191805 653.531883,449.827503 C658.128328,445.463201 664.744424,443.281051 673.38017,443.281051 L673.38017,443.281051 L685.776643,443.281051 L685.776643,404.280908 L674.076601,404.280908 C666.74086,404.280908 660.333693,406.114843 654.855102,409.782714 C649.376511,413.450585 645.105066,419.555964 642.04077,428.098852 L642.04077,428.098852 L641.344338,428.098852 L638.140755,404.280908 L605.129921,404.280908 L605.129921,546.91 L646.637215,546.91 Z M787.734158,546.91 L787.734158,508.606289 L770.741239,508.606289 C766.469795,508.606289 763.428712,507.561642 761.617991,505.472349 C759.807271,503.383055 758.90191,500.202687 758.90191,495.931243 L758.90191,495.931243 L758.901,443.282 L787.734158,443.281051 L787.734158,404.280908 L758.901,404.281 L758.90191,365.420052 L717.533902,373.080794 L717.533,404.281 L697.755258,404.280908 L697.755258,443.281051 L717.533,443.282 L717.533902,499.134826 C717.533902,515.420389 721.365127,527.401459 729.027576,535.078036 L729.373231,535.418887 C737.266117,543.079629 748.826873,546.91 764.0555,546.91 L764.0555,546.91 L787.734158,546.91 Z M859.18799,546.91 L859.18799,509.999151 L852.780824,509.999151 C850.737959,509.999151 849.25224,509.558078 848.323665,508.675932 C847.39509,507.793786 846.930803,506.331281 846.930803,504.288416 L846.930803,504.288416 L846.930803,344.387833 L805.423508,344.387833 L805.423508,508.049144 C805.423508,521.606336 808.603877,531.472444 814.964615,537.647466 C821.325352,543.822489 830.541457,546.91 842.61293,546.91 L842.61293,546.91 L859.18799,546.91 Z M917.409631,549.277866 C927.345382,549.277866 935.957913,547.606431 943.247226,544.263562 C950.536538,540.920692 956.409774,535.627816 960.866933,528.384932 L960.866933,528.384932 L961.981222,528.384932 L964.627661,546.91 L997.917068,546.91 L997.917068,464.034698 C997.917068,443.884624 992.717049,428.307782 982.317011,417.30417 C971.916973,406.300558 956.316916,400.798753 935.51684,400.798753 C922.98108,400.798753 911.745325,403.445191 901.809574,408.738067 C891.873824,414.030944 883.609508,421.088112 877.016627,429.909573 L877.016627,429.909573 L905.709589,451.220365 C909.145315,446.391776 913.184616,442.607834 917.82749,439.868538 C922.470364,437.129242 927.995384,435.759594 934.40255,435.759594 C942.016864,435.759594 947.774028,437.639958 951.674042,441.400687 C955.574056,445.161415 957.524063,450.29179 957.524063,456.791814 L957.524063,456.791814 L957.524063,460.691828 L920.195356,460.691828 C904.038154,460.691828 891.386322,464.6847 882.23986,472.670443 C873.093398,480.656187 868.520167,491.427655 868.520167,504.984847 C868.520167,518.356324 872.907683,529.081364 881.682715,537.159964 C890.457747,545.238565 902.366719,549.277866 917.409631,549.277866 Z M925.488232,517.242035 C919.916783,517.242035 915.645339,516.011673 912.6739,513.55095 C909.70246,511.090226 908.216741,507.584857 908.216741,503.03484 C908.216741,498.670538 909.70246,495.258026 912.6739,492.797303 C915.645339,490.336579 919.963212,489.106218 925.627518,489.106218 L925.627518,489.106218 L957.524063,489.106218 L957.524063,489.663363 C957.524063,495.141954 956.17763,499.970543 953.484763,504.14913 C950.791896,508.327716 947.054382,511.554514 942.272222,513.829522 C937.490062,516.10453 931.895398,517.242035 925.488232,517.242035 Z M1060.03872,546.91 L1060.03872,464.034698 C1060.03872,454.191805 1062.29052,447.018564 1066.7941,442.514976 C1071.29769,438.011388 1077.35664,435.759594 1084.97096,435.759594 C1092.67813,435.759594 1098.78351,438.011388 1103.2871,442.514976 C1107.79068,447.018564 1110.04248,454.191805 1110.04248,464.034698 L1110.04248,464.034698 L1110.04248,546.91 L1151.54977,546.91 L1151.54977,462.363263 C1151.54977,442.677477 1146.76761,427.425636 1137.20329,416.607739 C1127.63897,405.789842 1114.26749,400.380894 1097.08886,400.380894 C1087.06025,400.380894 1078.56379,402.307687 1071.59948,406.161272 C1064.63517,410.014858 1059.20301,415.098805 1055.30299,421.413114 L1055.30299,421.413114 L1054.32799,421.413114 L1051.96012,404.280908 L1018.53143,404.280908 L1018.53143,546.91 L1060.03872,546.91 Z M1233.72864,549.974297 C1240.78581,549.974297 1247.10012,549.068936 1252.67157,547.258216 C1258.24302,545.447495 1263.14125,542.847485 1267.36627,539.458187 C1271.59128,536.068889 1275.09665,532.052803 1277.88237,527.409929 L1277.88237,527.409929 L1278.99666,527.409929 L1281.50382,546.91 L1317.16109,546.91 L1317.16109,344.387833 L1275.6538,344.387833 L1275.6538,418.348817 L1274.81808,418.348817 C1271.66092,414.91309 1268.0627,411.988079 1264.0234,409.573785 C1259.9841,407.15949 1255.43408,405.279126 1250.37335,403.932693 C1245.31261,402.586259 1239.67152,401.913042 1233.45007,401.913042 C1221.56431,401.913042 1210.67677,404.745196 1200.78745,410.409502 C1190.89813,416.073808 1183.00524,424.384553 1177.10879,435.341736 C1171.21234,446.298919 1168.26412,459.716825 1168.26412,475.595454 C1168.26412,491.474083 1171.23556,504.938418 1177.17844,515.988459 C1183.12131,527.038499 1191.06063,535.465315 1200.99638,541.268908 C1210.93213,547.072501 1221.84288,549.974297 1233.72864,549.974297 Z M1243.33939,514.177738 C1237.2108,514.177738 1231.73221,512.645589 1226.90362,509.581292 C1222.07503,506.516995 1218.26787,502.129479 1215.48215,496.418744 C1212.69642,490.708009 1211.30356,483.906199 1211.30356,476.013313 C1211.30356,468.027569 1212.64999,461.17933 1215.34286,455.468595 C1218.03573,449.75786 1221.81967,445.370344 1226.69469,442.306047 C1231.56971,439.24175 1237.16437,437.709602 1243.47868,437.709602 C1249.79299,437.709602 1255.41086,439.172107 1260.33231,442.097118 C1265.25376,445.022128 1269.10734,449.316787 1271.89307,454.981093 C1274.67879,460.6454 1276.07165,467.609711 1276.07165,475.874027 C1276.07165,483.952627 1274.63236,490.847295 1271.75378,496.558031 C1268.8752,502.268766 1264.97518,506.633067 1260.05374,509.650935 C1255.13229,512.668804 1249.56084,514.177738 1243.33939,514.177738 Z M1422.74005,546.91 L1422.74005,508.606289 L1405.74713,508.606289 C1401.47568,508.606289 1398.4346,507.561642 1396.62388,505.472349 C1394.81316,503.383055 1393.9078,500.202687 1393.9078,495.931243 L1393.9078,495.931243 L1393.907,443.282 L1422.74005,443.281051 L1422.74005,404.280908 L1393.907,404.281 L1393.9078,365.420052 L1352.53979,373.080794 L1352.539,404.281 L1332.76115,404.280908 L1332.76115,443.281051 L1352.539,443.282 L1352.53979,499.134826 C1352.53979,515.420389 1356.37101,527.401459 1364.03346,535.078036 L1364.37912,535.418887 C1372.27201,543.079629 1383.83276,546.91 1399.06139,546.91 L1399.06139,546.91 L1422.74005,546.91 Z M1575.67632,549.695724 C1591.46209,549.695724 1605.205,547.095715 1616.90504,541.895696 C1628.60508,536.695677 1637.6819,529.359936 1644.1355,519.888473 C1650.58909,510.41701 1653.81589,499.274112 1653.81589,486.459779 C1653.81589,477.359746 1652.09803,469.188288 1648.6623,461.945404 C1645.22657,454.702521 1639.91048,448.341783 1632.71403,442.863192 C1625.51757,437.3846 1616.30147,432.741726 1605.06571,428.93457 L1605.06571,428.93457 L1573.44774,418.20953 C1565.83343,415.609521 1560.58698,412.730939 1557.7084,409.573785 C1554.82981,406.41663 1553.39052,402.423759 1553.39052,397.59517 C1553.39052,393.695155 1554.34231,390.3755 1556.24589,387.636205 C1558.14947,384.896909 1560.88876,382.807616 1564.46378,381.368325 C1568.03879,379.929034 1572.33345,379.209388 1577.34775,379.209388 C1584.77635,379.209388 1591.3228,380.81118 1596.98711,384.014763 C1602.65142,387.218346 1607.80501,392.070149 1612.44788,398.570173 L1612.44788,398.570173 L1643.23014,373.916512 C1635.33725,363.145044 1626.02829,355.066443 1615.30325,349.680709 C1604.57821,344.294975 1591.92638,341.602108 1577.34775,341.602108 C1564.06913,341.602108 1552.43873,344.062831 1542.45655,348.984278 C1532.47438,353.905724 1524.72078,360.707535 1519.19576,369.38971 C1513.67074,378.071884 1510.90823,388.170135 1510.90823,399.684463 C1510.90823,408.877354 1512.76537,417.164884 1516.47967,424.547054 C1520.19397,431.929223 1525.60292,438.313175 1532.70652,443.698909 C1539.81012,449.084643 1548.42265,453.448945 1558.54411,456.791814 L1558.54411,456.791814 L1589.74423,467.098995 C1594.66567,468.677572 1598.61212,470.488293 1601.58356,472.531157 C1604.555,474.574022 1606.71393,476.918673 1608.06037,479.565111 C1609.4068,482.21155 1610.08002,485.34549 1610.08002,488.966931 C1610.08002,496.581245 1607.155,502.338409 1601.30498,506.238423 C1595.45496,510.138437 1587.65493,512.088444 1577.9049,512.088444 C1566.94772,512.088444 1557.68518,509.697364 1550.1173,504.915204 C1542.54941,500.133044 1535.60832,493.099089 1529.29401,483.813341 L1529.29401,483.813341 L1496.84032,509.442006 C1506.21892,523.463486 1517.12968,533.677809 1529.57258,540.084975 C1542.01548,546.492141 1557.38339,549.695724 1575.67632,549.695724 Z M1743.23764,546.91 L1743.23764,508.606289 L1726.24472,508.606289 C1721.97328,508.606289 1718.9322,507.561642 1717.12148,505.472349 C1715.31076,503.383055 1714.4054,500.202687 1714.4054,495.931243 L1714.4054,495.931243 L1714.405,443.282 L1743.23764,443.281051 L1743.23764,404.280908 L1714.405,404.281 L1714.4054,365.420052 L1673.03739,373.080794 L1673.037,404.281 L1653.25874,404.280908 L1653.25874,443.281051 L1673.037,443.282 L1673.03739,499.134826 C1673.03739,515.420389 1676.86861,527.401459 1684.53106,535.078036 L1684.87672,535.418887 C1692.7696,543.079629 1704.33036,546.91 1719.55899,546.91 L1719.55899,546.91 L1743.23764,546.91 Z"/>
    <path fill="#FFF" fill-rule="nonzero" d="M344.12095,266.735732 C362.692447,266.735732 378.547862,263.462505 391.687195,256.916053 C404.826529,250.3696 415.481925,241.478497 423.653383,230.242741 C431.824842,219.006986 437.767721,206.517655 441.48202,192.774747 L441.48202,192.774747 L400.253298,183.303284 C395.981854,197.881909 388.901471,208.537305 379.012149,215.269472 C369.122827,222.00164 357.817429,225.367723 345.095954,225.367723 C332.838766,225.367723 322.229799,222.651642 313.269052,217.219479 C304.308305,211.787317 297.413637,204.219432 292.585048,194.515825 C287.756459,184.812218 285.342165,173.646106 285.342165,161.017489 C285.342165,148.296014 287.756459,137.106687 292.585048,127.449509 C297.413637,117.792331 304.308305,110.247661 313.269052,104.815498 C322.229799,99.3833353 332.838766,96.667254 345.095954,96.667254 C359.953151,96.667254 371.815694,100.451196 380.683584,108.019081 C389.551473,115.586966 395.842568,125.870932 399.556867,138.870979 L399.556867,138.870979 L441.064161,128.424513 C437.164147,113.845888 431.012339,101.05477 422.608737,90.0511584 C414.205135,79.0475468 403.456881,70.5046585 390.363976,64.4224935 C377.271071,58.3403284 361.856729,55.2992459 344.12095,55.2992459 C323.506589,55.2992459 305.376166,59.6867619 289.729681,68.4617939 C274.083195,77.2368259 261.872436,89.5404423 253.097404,105.372643 C244.322372,121.204843 239.934856,139.753125 239.934856,161.017489 C239.934856,182.188995 244.322372,200.714062 253.097404,216.592691 C261.872436,232.471321 274.083195,244.798152 289.729681,253.573184 C305.376166,262.348216 323.506589,266.735732 344.12095,266.735732 Z M533.741097,266.457159 C549.526869,266.457159 563.432277,263.067861 575.457321,256.289265 C587.482365,249.510669 596.884185,240.178492 603.662781,228.292734 C610.441377,216.406977 613.830675,202.803355 613.830675,187.481871 C613.830675,172.160387 610.441377,158.533551 603.662781,146.601365 C596.884185,134.669178 587.482365,125.267358 575.457321,118.395905 C563.432277,111.524451 549.526869,108.088724 533.741097,108.088724 C517.955325,108.088724 504.003489,111.524451 491.885587,118.395905 C479.767686,125.267358 470.319437,134.669178 463.540841,146.601365 C456.762245,158.533551 453.372947,172.160387 453.372947,187.481871 C453.372947,202.803355 456.762245,216.406977 463.540841,228.292734 C470.319437,240.178492 479.767686,249.510669 491.885587,256.289265 C504.003489,263.067861 517.955325,266.457159 533.741097,266.457159 Z M533.741097,228.43202 C525.569639,228.43202 518.558899,226.667728 512.708878,223.139144 C506.858856,219.61056 502.355269,214.758756 499.198114,208.583734 C496.04096,202.408711 494.462383,195.374757 494.462383,187.481871 C494.462383,179.496128 496.04096,172.415745 499.198114,166.240722 C502.355269,160.0657 506.858856,155.167467 512.708878,151.546026 C518.558899,147.924584 525.569639,146.113863 533.741097,146.113863 C541.819698,146.113863 548.807224,147.924584 554.703674,151.546026 C560.600124,155.167467 565.103712,160.0657 568.214437,166.240722 C571.325163,172.415745 572.880526,179.496128 572.880526,187.481871 C572.880526,195.374757 571.325163,202.408711 568.214437,208.583734 C565.103712,214.758756 560.600124,219.61056 554.703674,223.139144 C548.807224,226.667728 541.819698,228.43202 533.741097,228.43202 Z M674.456557,262 L674.456557,179.263984 C674.456557,174.156822 675.083345,169.769306 676.336921,166.101436 C677.590497,162.433565 679.494075,159.438912 682.047656,157.117475 C684.601237,154.796037 687.711962,153.101388 691.379833,152.033527 C695.047704,150.965666 699.249505,150.431736 703.985236,150.431736 L703.985236,150.431736 L719.167434,150.431736 L719.167434,112.824456 L705.099526,112.824456 C697.299497,112.824456 690.381615,114.403033 684.345879,117.560187 C678.310142,120.717342 673.435125,126.613792 669.720825,135.249538 L669.720825,135.249538 L669.024394,135.249538 L667.770818,112.824456 L633.506408,112.824456 L633.506408,262 L674.456557,262 Z M824.906735,262 L824.906735,224.532006 L807.217385,224.532006 C802.295939,224.532006 798.836997,223.533788 796.840562,221.537352 C794.844126,219.540917 793.845908,216.26769 793.845908,211.717674 L793.845908,211.717674 L793.8454,149.875 L824.906735,149.874591 L824.906735,112.824456 L793.8454,112.825 L793.845908,72.1528788 L752.895758,72.1528788 L752.8954,112.825 L731.167108,112.824456 L731.167108,149.874591 L752.8954,149.875 L752.895758,212.274819 C752.895758,229.116513 756.933254,241.559818 765.008245,249.604734 L765.361875,249.951742 C773.67262,257.983914 785.628021,262 801.228078,262 L801.228078,262 L824.906735,262 Z M899.145236,262 L899.145236,224.671292 L892.180925,224.671292 C887.90948,224.671292 885.773758,222.581999 885.773758,218.403412 L885.773758,218.403412 L885.773758,59.4778326 L844.684323,59.4778326 L844.684323,222.721285 C844.684323,236.371335 847.91112,246.3303 854.364715,252.59818 C860.81831,258.86606 870.266559,262 882.709461,262 L882.709461,262 L899.145236,262 Z M961.52787,264.507152 C968.027894,264.507152 974.365417,263.787507 980.540439,262.348216 C986.715462,260.908925 992.286911,258.657131 997.254786,255.592834 C1002.22266,252.528537 1006.23875,248.582094 1009.30304,243.753505 L1010.41733,243.753505 L1011.39234,262 L1045.51746,262 L1045.51746,172.160387 C1045.51746,151.267453 1039.7603,135.551324 1028.24597,125.012 C1016.73164,114.472676 1000.85301,109.203014 980.610082,109.203014 C965.102883,109.203014 952.242122,112.870885 942.027799,120.206626 C931.813476,127.542367 924.384877,137.245973 919.742003,149.317446 L954.006414,160.042485 C956.420708,155.028181 959.693935,151.081738 963.826093,148.203156 C967.958251,145.324574 973.367199,143.885283 980.052937,143.885283 C988.131538,143.885283 994.422633,145.83529 998.926221,149.735305 C1003.42981,153.635319 1005.6816,159.624627 1005.6816,167.703227 L1005.6816,170.488952 L964.452881,170.488952 C946.995674,170.488952 933.461696,174.737182 923.850947,183.233641 C914.240197,191.730101 909.434823,203.081928 909.434823,217.289123 C909.434823,231.682032 914.077697,243.149931 923.363445,251.69282 C932.649193,260.235708 945.370668,264.507152 961.52787,264.507152 Z M970.302902,231.357031 C962.874303,231.357031 957.418926,229.848097 953.936771,226.830229 C950.454615,223.812361 948.713537,219.703417 948.713537,214.503398 C948.713537,209.117664 950.501044,204.869434 954.076057,201.758709 C957.65107,198.647983 963.292162,197.09262 970.999333,197.09262 L1005.6816,197.09262 L1005.6816,201.131921 C1005.6816,206.053367 1004.82267,210.394455 1003.10481,214.155183 C1001.38694,217.915911 998.949435,221.073065 995.792281,223.626646 C992.635126,226.180226 988.897613,228.107019 984.57974,229.407024 C980.261867,230.707029 975.502921,231.357031 970.302902,231.357031 Z M1108.9033,262 L1108.9033,175.503256 C1108.9033,170.024664 1109.5533,165.312147 1110.85331,161.365704 C1112.15331,157.419261 1114.03368,154.169249 1116.4944,151.615669 C1118.95512,149.062088 1121.88013,147.181724 1125.26943,145.974577 C1128.65873,144.767429 1132.4891,144.163856 1136.76055,144.163856 C1145.21058,144.163856 1151.94274,146.647793 1156.95705,151.615669 C1161.97135,156.583544 1164.4785,164.592502 1164.4785,175.642542 L1164.4785,175.642542 L1164.4785,262 L1205.56794,262 L1205.56794,173.553249 C1205.56794,152.938888 1200.41435,136.990615 1190.10717,125.708431 C1179.79999,114.426247 1165.49994,108.785155 1147.20701,108.785155 C1140.52127,108.785155 1134.39268,109.71373 1128.82123,111.57088 C1123.24978,113.428029 1118.37476,116.004825 1114.19618,119.301265 C1110.01759,122.597706 1106.58186,126.474506 1103.889,130.931665 L1103.889,130.931665 L1102.77471,130.931665 L1101.7997,112.824456 L1067.95315,112.824456 L1067.95315,262 L1108.9033,262 Z M1293.76415,265.342869 C1301.37847,265.342869 1308.15706,264.367866 1314.09994,262.417859 C1320.04282,260.467852 1325.21963,257.682127 1329.63036,254.060685 C1334.04109,250.439244 1337.73217,246.167799 1340.70361,241.246353 L1340.70361,241.246353 L1341.67861,241.246353 L1342.93219,262 L1379.42518,262 L1379.42518,59.4778326 L1338.33575,59.4778326 L1338.33575,127.867368 L1337.36074,127.867368 C1334.01787,124.245926 1330.1875,121.1352 1325.86963,118.535191 C1321.55176,115.935181 1316.74638,113.915531 1311.4535,112.47624 C1306.16063,111.036949 1300.21775,110.317304 1293.62487,110.317304 C1280.99625,110.317304 1269.50514,113.265529 1259.15153,119.161979 C1248.79792,125.058429 1240.48717,133.740604 1234.21929,145.208502 C1227.95141,156.676401 1224.81747,170.721096 1224.81747,187.342585 C1224.81747,204.056931 1227.9282,218.217697 1234.14965,229.824883 C1240.3711,241.432068 1248.72828,250.253529 1259.22117,256.289265 C1269.71407,262.325001 1281.22839,265.342869 1293.76415,265.342869 Z M1302.81776,228.710593 C1296.03916,228.710593 1290.00343,227.039158 1284.71055,223.696289 C1279.41767,220.353419 1275.23909,215.594474 1272.17479,209.419451 C1269.11049,203.244429 1267.57834,195.839044 1267.57834,187.203299 C1267.57834,178.567553 1269.06406,171.162169 1272.0355,164.987146 C1275.00694,158.812124 1279.16232,154.053178 1284.50162,150.710308 C1289.84093,147.367439 1295.99273,145.696004 1302.95705,145.696004 C1308.15706,145.696004 1312.93922,146.57815 1317.30353,148.342442 C1321.66783,150.106735 1325.47498,152.729958 1328.725,156.212114 C1331.97501,159.69427 1334.45895,163.942499 1336.17681,168.956803 C1337.89467,173.971107 1338.7536,179.7747 1338.7536,186.367581 L1338.7536,186.367581 L1338.7536,187.89973 C1338.7536,194.306896 1337.84824,200.040845 1336.03752,205.101578 C1334.2268,210.162311 1331.69644,214.433755 1328.44642,217.915911 C1325.19641,221.398066 1321.38926,224.067719 1317.02495,225.924868 C1312.66065,227.782018 1307.92492,228.710593 1302.81776,228.710593 Z M1490.26315,262 L1490.26315,224.532006 L1472.5738,224.532006 C1467.65235,224.532006 1464.19341,223.533788 1462.19698,221.537352 C1460.20054,219.540917 1459.20232,216.26769 1459.20232,211.717674 L1459.20232,211.717674 L1459.2014,149.875 L1490.26315,149.874591 L1490.26315,112.824456 L1459.2014,112.825 L1459.20232,72.1528788 L1418.25217,72.1528788 L1418.2514,112.825 L1396.52352,112.824456 L1396.52352,149.874591 L1418.2514,149.875 L1418.25217,212.274819 C1418.25217,229.116513 1422.28967,241.559818 1430.36466,249.604734 L1430.71829,249.951742 C1439.02903,257.983914 1450.98444,262 1466.58449,262 L1466.58449,262 L1490.26315,262 Z M1644.83211,266.0393 C1661.4536,266.0393 1675.4983,263.207147 1686.9662,257.542841 C1698.4341,251.878535 1707.11627,244.264221 1713.01272,234.6999 C1718.90917,225.13558 1721.8574,214.456969 1721.8574,202.664069 C1721.8574,193.192606 1720.23239,184.649718 1716.98238,177.035404 C1713.73237,169.421091 1708.50913,162.735352 1701.31268,156.978188 C1694.11622,151.221024 1684.52869,146.57815 1672.55007,143.049566 L1672.55007,143.049566 L1643.85711,134.274534 C1634.38565,131.303095 1628.1642,127.960225 1625.19276,124.245926 C1622.22132,120.531627 1620.7356,116.167325 1620.7356,111.153021 C1620.7356,107.531579 1621.61774,104.211924 1623.38204,101.194056 C1625.14633,98.176188 1627.76955,95.7618935 1631.25171,93.9511726 C1634.73386,92.1404517 1639.07495,91.2350913 1644.27497,91.2350913 C1651.51785,91.2350913 1657.46073,92.8368828 1662.10361,96.040466 C1666.74648,99.2440491 1670.55364,104.420854 1673.52508,111.57088 L1673.52508,111.57088 L1710.85378,100.010123 C1705.74662,86.1743585 1697.76088,75.2868188 1686.89655,67.3475041 C1676.03223,59.4081895 1662.01075,55.4385321 1644.83211,55.4385321 C1632.38921,55.4385321 1621.36239,57.8992554 1611.75164,62.8207019 C1602.14089,67.7421484 1594.64265,74.5671733 1589.25691,83.2957766 C1583.87118,92.0243799 1581.17831,102.006559 1581.17831,113.242314 C1581.17831,126.892364 1585.17118,138.545978 1593.15693,148.203156 C1601.14267,157.860334 1613.12129,165.196075 1629.09277,170.210379 L1629.09277,170.210379 L1657.36787,178.985411 C1663.58933,181.028276 1668.27863,183.349713 1671.43578,185.949723 C1674.59294,188.549732 1676.72866,191.4051 1677.84295,194.515825 C1678.95724,197.626551 1679.51438,200.853348 1679.51438,204.196218 C1679.51438,211.624816 1676.82152,217.799839 1671.43578,222.721285 C1666.05005,227.642732 1657.22859,230.103455 1644.9714,230.103455 C1634.19993,230.103455 1625.86597,227.549874 1619.96952,222.442713 C1614.07307,217.335551 1609.68556,209.581952 1606.80698,199.181914 L1606.80698,199.181914 L1568.78184,209.349808 C1571.84613,221.142708 1576.51222,231.264174 1582.7801,239.714204 C1589.04798,248.164235 1597.26587,254.664259 1607.43376,259.214276 C1617.60166,263.764292 1630.06778,266.0393 1644.83211,266.0393 Z M1816.48917,262 L1816.48917,224.532006 L1798.79982,224.532006 C1793.87837,224.532006 1790.41943,223.533788 1788.42299,221.537352 C1786.42656,219.540917 1785.42834,216.26769 1785.42834,211.717674 L1785.42834,211.717674 L1785.4274,149.875 L1816.48917,149.874591 L1816.48917,112.824456 L1785.4274,112.825 L1785.42834,72.1528788 L1744.47819,72.1528788 L1744.4774,112.825 L1722.74954,112.824456 L1722.74954,149.874591 L1744.4774,149.875 L1744.47819,212.274819 C1744.47819,229.116513 1748.51569,241.559818 1756.59068,249.604734 L1756.94431,249.951742 C1765.25505,257.983914 1777.21045,262 1792.81051,262 L1792.81051,262 L1816.48917,262 Z" opacity=".7"/>
    <path fill="#FFA600" fill-rule="nonzero" d="M56.4626202 84L56.4626202 76.265625 56.6344952 76.265625 62.4860577 84 63.7907452 84 63.7907452 72.640625 61.9938702 72.640625 61.9938702 80.3828125 61.8376202 80.3828125 55.9782452 72.640625 54.6657452 72.640625 54.6657452 84 56.4626202 84zM69.0484375 84L69.884375 81.7421875 74.775 81.7421875 75.6109375 84 77.65 84 73.0484375 72.6015625 71.696875 72.6015625 67.0953125 84 69.0484375 84zM74.2203125 80.2421875L70.4390625 80.2421875 72.2125 75.453125 72.4546875 75.453125 74.2203125 80.2421875zM82.6967548 84L82.6967548 76.921875 82.8764423 76.921875 86.0717548 84 87.2045673 84 90.3998798 76.921875 90.5795673 76.921875 90.5795673 84 92.3139423 84 92.3139423 72.640625 90.6811298 72.640625 86.7514423 81.296875 86.5873798 81.296875 82.6342548 72.640625 80.9545673 72.640625 80.9545673 84 82.6967548 84zM104.43101 84L104.43101 82.453125 98.6888221 82.453125 98.6888221 78.9453125 102.165385 78.9453125 102.165385 77.4140625 98.6888221 77.4140625 98.6888221 74.1875 104.227885 74.1875 104.227885 72.640625 96.8841346 72.640625 96.8841346 84 104.43101 84zM117.610457 84.21875C120.274519 84.21875 121.758894 82.7578125 121.758894 80.8125 121.758894 79.2109375 121.024519 78.2265625 118.954207 77.5390625L117.360457 77.015625C116.149519 76.6171875 115.774519 76.1640625 115.774519 75.3984375 115.774519 74.578125 116.422957 73.9296875 117.821394 73.9296875 118.876082 73.9296875 119.532332 74.3671875 120.040144 75.09375L121.430769 74.234375C120.680769 73.140625 119.618269 72.421875 117.837019 72.421875 115.508894 72.421875 114.079207 73.7109375 114.079207 75.453125 114.079207 77.0390625 114.922957 78.015625 116.555769 78.546875L118.196394 79.0859375C119.626082 79.5546875 120.032332 80.1171875 120.032332 80.953125 120.032332 81.9609375 119.204207 82.6953125 117.610457 82.6953125 116.251082 82.6953125 115.469832 82.171875 114.844832 81.140625L113.430769 81.984375C114.243269 83.421875 115.454207 84.21875 117.610457 84.21875zM126.086899 84L126.922837 81.7421875 131.813462 81.7421875 132.649399 84 134.688462 84 130.086899 72.6015625 128.735337 72.6015625 124.133774 84 126.086899 84zM131.258774 80.2421875L127.477524 80.2421875 129.250962 75.453125 129.493149 75.453125 131.258774 80.2421875zM139.789904 84L139.789904 76.265625 139.961779 76.265625 145.813341 84 147.118029 84 147.118029 72.640625 145.321154 72.640625 145.321154 80.3828125 145.164904 80.3828125 139.305529 72.640625 137.993029 72.640625 137.993029 84 139.789904 84zM154.641346 84.21875C157.305409 84.21875 158.789784 82.7578125 158.789784 80.8125 158.789784 79.2109375 158.055409 78.2265625 155.985096 77.5390625L154.391346 77.015625C153.180409 76.6171875 152.805409 76.1640625 152.805409 75.3984375 152.805409 74.578125 153.453846 73.9296875 154.852284 73.9296875 155.906971 73.9296875 156.563221 74.3671875 157.071034 75.09375L158.461659 74.234375C157.711659 73.140625 156.649159 72.421875 154.867909 72.421875 152.539784 72.421875 151.110096 73.7109375 151.110096 75.453125 151.110096 77.0390625 151.953846 78.015625 153.586659 78.546875L155.227284 79.0859375C156.656971 79.5546875 157.063221 80.1171875 157.063221 80.953125 157.063221 81.9609375 156.235096 82.6953125 154.641346 82.6953125 153.281971 82.6953125 152.500721 82.171875 151.875721 81.140625L150.461659 81.984375C151.274159 83.421875 152.485096 84.21875 154.641346 84.21875zM173.664543 84L178.242668 72.640625 176.195793 72.640625 173.156731 81.1015625 172.867668 81.1015625 169.875481 72.640625 167.742668 72.640625 172.328606 84 173.664543 84zM185.125361 84.2265625C187.758173 84.2265625 189.336298 82.234375 189.336298 78.3359375 189.336298 74.4375 187.758173 72.4140625 185.125361 72.4140625 182.476923 72.4140625 180.945673 74.4375 180.945673 78.3359375 180.945673 82.234375 182.476923 84.2265625 185.125361 84.2265625zM185.125361 82.546875C183.562861 82.546875 182.765986 81.109375 182.765986 78.3359375 182.765986 75.5625 183.562861 74.09375 185.125361 74.09375 186.680048 74.09375 187.515986 75.5625 187.515986 78.3359375 187.515986 81.109375 186.680048 82.546875 185.125361 82.546875zM195.258053 84L195.258053 81.6953125 192.87524 81.6953125 192.87524 84 195.258053 84zM203.007933 84.21875C205.617308 84.21875 207.234495 82.78125 207.234495 80.8125 207.234495 79.109375 206.18762 78.2265625 204.453245 77.96875L204.453245 77.765625C206.06262 77.484375 206.765745 76.5234375 206.765745 75.3828125 206.765745 73.6171875 205.28137 72.4140625 203.054808 72.4140625 201.09387 72.4140625 199.757933 73.5078125 199.367308 75.0859375L200.90637 75.5C201.132933 74.546875 201.898558 73.9375 203.078245 73.9375 204.320433 73.9375 205.070433 74.609375 205.070433 75.5625 205.070433 76.5703125 204.328245 77.3125 202.671995 77.3125L202.390745 77.3125 202.390745 78.7421875 202.68762 78.7421875C204.492308 78.7421875 205.484495 79.421875 205.484495 80.6484375 205.484495 81.84375 204.640745 82.6640625 203.00012 82.6640625 201.515745 82.6640625 200.726683 81.859375 200.40637 80.34375L198.742308 80.6796875C199.117308 82.828125 200.515745 84.21875 203.007933 84.21875zM138.282091 122.21875C141.594591 122.21875 143.805529 119.90625 143.805529 116.335938 143.805529 112.765625 141.594591 110.421875 138.282091 110.421875 134.969591 110.421875 132.805529 112.765625 132.805529 116.335938 132.805529 119.90625 134.977404 122.21875 138.282091 122.21875zM138.282091 120.554688C135.961779 120.554688 134.633654 118.9375 134.633654 116.335938 134.633654 113.742188 135.953966 112.085938 138.282091 112.085938 140.610216 112.085938 141.977404 113.742188 141.977404 116.335938 141.977404 118.9375 140.602404 120.554688 138.282091 120.554688zM149.469471 122L149.469471 117.914062 151.649159 117.914062C154.133534 117.914062 155.586659 116.515625 155.586659 114.265625 155.586659 112.085938 154.133534 110.640625 151.633534 110.640625L147.656971 110.640625 147.656971 122 149.469471 122zM151.547596 116.351562L149.469471 116.351562 149.469471 112.195312 151.547596 112.195312C153.016346 112.195312 153.774159 113.078125 153.774159 114.28125 153.774159 115.53125 153.008534 116.351562 151.547596 116.351562zM162.024038 122.21875C164.688101 122.21875 166.172476 120.757812 166.172476 118.8125 166.172476 117.210938 165.438101 116.226562 163.367788 115.539062L161.774038 115.015625C160.563101 114.617188 160.188101 114.164062 160.188101 113.398438 160.188101 112.578125 160.836538 111.929688 162.234976 111.929688 163.289663 111.929688 163.945913 112.367188 164.453726 113.09375L165.844351 112.234375C165.094351 111.140625 164.031851 110.421875 162.250601 110.421875 159.922476 110.421875 158.492788 111.710938 158.492788 113.453125 158.492788 115.039062 159.336538 116.015625 160.969351 116.546875L162.609976 117.085938C164.039663 117.554688 164.445913 118.117188 164.445913 118.953125 164.445913 119.960938 163.617788 120.695312 162.024038 120.695312 160.664663 120.695312 159.883413 120.171875 159.258413 119.140625L157.844351 119.984375C158.656851 121.421875 159.867788 122.21875 162.024038 122.21875zM177.633293 122L177.937981 120.382812 171.898918 120.382812 171.891106 120.195312 177.727043 111.6875 177.727043 110.640625 169.398918 110.640625 169.398918 112.257812 175.195793 112.257812 175.195793 112.453125 169.344231 120.953125 169.344231 122 177.633293 122zM191.18774 122.257812C194.109615 122.257812 195.804928 120.046875 195.804928 116.039062 195.804928 112.359375 194.21899 110.453125 191.43774 110.453125 188.84399 110.453125 187.273678 112.125 187.273678 114.375 187.273678 116.476562 188.578365 118 190.820553 118 192.336178 118 193.461178 117.351562 193.984615 116.085938L194.117428 116.101562C194.117428 119.171875 193.047115 120.742188 191.211178 120.742188 190.078365 120.742188 189.37524 120.3125 188.836178 119.351562L187.414303 120.148438C188.179928 121.539062 189.297115 122.257812 191.18774 122.257812zM191.304928 116.648438C189.789303 116.648438 188.976803 115.75 188.976803 114.375 188.976803 112.945312 189.953365 112.015625 191.429928 112.015625 192.773678 112.015625 193.734615 112.96875 193.851803 114.375 193.953365 115.585938 192.87524 116.648438 191.304928 116.648438zM203.15637 122.226562C205.75012 122.226562 207.328245 120.554688 207.328245 118.304688 207.328245 116.203125 206.023558 114.671875 203.804808 114.671875 202.289183 114.671875 201.140745 115.328125 200.617308 116.585938L200.476683 116.570312C200.484495 113.5 201.56262 111.9375 203.304808 111.945312 204.351683 111.945312 204.961058 112.34375 205.429808 113.210938L206.796995 112.46875C206.078245 111.140625 205.03137 110.421875 203.37512 110.421875 200.492308 110.421875 198.796995 112.632812 198.796995 116.640625 198.796995 120.320312 200.382933 122.226562 203.15637 122.226562zM203.171995 120.664062C201.828245 120.664062 200.867308 119.71875 200.75012 118.304688 200.65637 117.125 201.703245 116.023438 203.296995 116.023438 204.81262 116.023438 205.62512 116.929688 205.62512 118.304688 205.62512 119.726562 204.632933 120.664062 203.171995 120.664062zM116.672837 141L119.493149 132.742188 119.688462 132.742188 122.516587 141 123.821274 141 127.485337 129.640625 125.500962 129.640625 123.258774 137.578125 123.040024 137.578125 120.274399 129.640625 119.000962 129.640625 116.282212 137.5625 116.063462 137.5625 113.790024 129.640625 111.711899 129.640625 115.391587 141 116.672837 141zM135.157091 141.234375C136.899279 141.234375 138.141466 140.507812 138.719591 139.007812L138.899279 139.007812 139.024279 141 140.446154 141 140.446154 134.960938 135.532091 134.960938 135.532091 136.460938 138.664904 136.460938 138.664904 136.84375C138.664904 138.570312 137.547716 139.59375 135.407091 139.59375 133.164904 139.59375 131.813341 137.914062 131.813341 135.34375 131.813341 132.78125 133.289904 131.109375 135.524279 131.109375 136.860216 131.109375 137.782091 131.648438 138.500841 132.601562L139.946154 131.492188C138.953966 130.179688 137.563341 129.390625 135.516466 129.390625 132.336779 129.390625 129.985216 131.695312 129.985216 135.3125 129.985216 138.929688 132.164904 141.234375 135.157091 141.234375zM146.680409 141L146.680409 136.070312 152.047596 136.070312 152.047596 141 153.852284 141 153.852284 129.640625 152.047596 129.640625 152.047596 134.476562 146.680409 134.476562 146.680409 129.640625 144.875721 129.640625 144.875721 141 146.680409 141zM162.945913 141L162.945913 131.21875 166.453726 131.21875 166.453726 129.640625 157.594351 129.640625 157.594351 131.21875 161.125601 131.21875 161.125601 141 162.945913 141zM180.539423 141L180.539423 140.015625C180.539423 136.710938 181.180048 134.523438 184.258173 130.859375L184.258173 129.640625 175.734736 129.640625 175.734736 131.226562 182.250361 131.226562 182.250361 131.414062C179.359736 134.476562 178.640986 136.984375 178.640986 140.023438L178.640986 141 180.539423 141zM194.648678 141L194.648678 138.84375 195.976803 138.84375 195.976803 137.335938 194.648678 137.335938 194.648678 129.640625 193.31274 129.640625 187.18774 137.6875 187.18774 138.84375 192.914303 138.84375 192.914303 141 194.648678 141zM192.922115 137.335938L189.320553 137.335938 189.320553 137.171875 192.84399 132.554688 193.039303 132.554688 192.922115 137.335938zM202.976683 141.226562C205.609495 141.226562 207.18762 139.234375 207.18762 135.335938 207.18762 131.4375 205.609495 129.414062 202.976683 129.414062 200.328245 129.414062 198.796995 131.4375 198.796995 135.335938 198.796995 139.234375 200.328245 141.226562 202.976683 141.226562zM202.976683 139.546875C201.414183 139.546875 200.617308 138.109375 200.617308 135.335938 200.617308 132.5625 201.414183 131.09375 202.976683 131.09375 204.53137 131.09375 205.367308 132.5625 205.367308 135.335938 205.367308 138.109375 204.53137 139.546875 202.976683 139.546875zM56.4626202 367L56.4626202 359.265625 56.6344952 359.265625 62.4860577 367 63.7907452 367 63.7907452 355.640625 61.9938702 355.640625 61.9938702 363.382812 61.8376202 363.382812 55.9782452 355.640625 54.6657452 355.640625 54.6657452 367 56.4626202 367zM69.0484375 367L69.884375 364.742188 74.775 364.742188 75.6109375 367 77.65 367 73.0484375 355.601562 71.696875 355.601562 67.0953125 367 69.0484375 367zM74.2203125 363.242188L70.4390625 363.242188 72.2125 358.453125 72.4546875 358.453125 74.2203125 363.242188zM82.6967548 367L82.6967548 359.921875 82.8764423 359.921875 86.0717548 367 87.2045673 367 90.3998798 359.921875 90.5795673 359.921875 90.5795673 367 92.3139423 367 92.3139423 355.640625 90.6811298 355.640625 86.7514423 364.296875 86.5873798 364.296875 82.6342548 355.640625 80.9545673 355.640625 80.9545673 367 82.6967548 367zM104.43101 367L104.43101 365.453125 98.6888221 365.453125 98.6888221 361.945312 102.165385 361.945312 102.165385 360.414062 98.6888221 360.414062 98.6888221 357.1875 104.227885 357.1875 104.227885 355.640625 96.8841346 355.640625 96.8841346 367 104.43101 367zM117.610457 367.21875C120.274519 367.21875 121.758894 365.757812 121.758894 363.8125 121.758894 362.210938 121.024519 361.226562 118.954207 360.539062L117.360457 360.015625C116.149519 359.617188 115.774519 359.164062 115.774519 358.398438 115.774519 357.578125 116.422957 356.929688 117.821394 356.929688 118.876082 356.929688 119.532332 357.367188 120.040144 358.09375L121.430769 357.234375C120.680769 356.140625 119.618269 355.421875 117.837019 355.421875 115.508894 355.421875 114.079207 356.710938 114.079207 358.453125 114.079207 360.039062 114.922957 361.015625 116.555769 361.546875L118.196394 362.085938C119.626082 362.554688 120.032332 363.117188 120.032332 363.953125 120.032332 364.960938 119.204207 365.695312 117.610457 365.695312 116.251082 365.695312 115.469832 365.171875 114.844832 364.140625L113.430769 364.984375C114.243269 366.421875 115.454207 367.21875 117.610457 367.21875zM126.086899 367L126.922837 364.742188 131.813462 364.742188 132.649399 367 134.688462 367 130.086899 355.601562 128.735337 355.601562 124.133774 367 126.086899 367zM131.258774 363.242188L127.477524 363.242188 129.250962 358.453125 129.493149 358.453125 131.258774 363.242188zM139.789904 367L139.789904 359.265625 139.961779 359.265625 145.813341 367 147.118029 367 147.118029 355.640625 145.321154 355.640625 145.321154 363.382812 145.164904 363.382812 139.305529 355.640625 137.993029 355.640625 137.993029 367 139.789904 367zM154.641346 367.21875C157.305409 367.21875 158.789784 365.757812 158.789784 363.8125 158.789784 362.210938 158.055409 361.226562 155.985096 360.539062L154.391346 360.015625C153.180409 359.617188 152.805409 359.164062 152.805409 358.398438 152.805409 357.578125 153.453846 356.929688 154.852284 356.929688 155.906971 356.929688 156.563221 357.367188 157.071034 358.09375L158.461659 357.234375C157.711659 356.140625 156.649159 355.421875 154.867909 355.421875 152.539784 355.421875 151.110096 356.710938 151.110096 358.453125 151.110096 360.039062 151.953846 361.015625 153.586659 361.546875L155.227284 362.085938C156.656971 362.554688 157.063221 363.117188 157.063221 363.953125 157.063221 364.960938 156.235096 365.695312 154.641346 365.695312 153.281971 365.695312 152.500721 365.171875 151.875721 364.140625L150.461659 364.984375C151.274159 366.421875 152.485096 367.21875 154.641346 367.21875zM173.664543 367L178.242668 355.640625 176.195793 355.640625 173.156731 364.101562 172.867668 364.101562 169.875481 355.640625 167.742668 355.640625 172.328606 367 173.664543 367zM185.125361 367.226562C187.758173 367.226562 189.336298 365.234375 189.336298 361.335938 189.336298 357.4375 187.758173 355.414062 185.125361 355.414062 182.476923 355.414062 180.945673 357.4375 180.945673 361.335938 180.945673 365.234375 182.476923 367.226562 185.125361 367.226562zM185.125361 365.546875C183.562861 365.546875 182.765986 364.109375 182.765986 361.335938 182.765986 358.5625 183.562861 357.09375 185.125361 357.09375 186.680048 357.09375 187.515986 358.5625 187.515986 361.335938 187.515986 364.109375 186.680048 365.546875 185.125361 365.546875zM195.258053 367L195.258053 364.695312 192.87524 364.695312 192.87524 367 195.258053 367zM202.773558 367.21875C205.515745 367.21875 207.12512 365.476562 207.12512 363.117188 207.12512 361.054688 205.898558 359.445312 203.484495 359.445312 202.40637 359.445312 201.56262 359.8125 200.953245 360.445312L200.789183 360.414062 201.226683 357.1875 206.273558 357.1875 206.507933 355.640625 199.765745 355.640625 199.046995 361.414062 200.226683 361.867188C200.890745 361.171875 201.796995 360.734375 202.820433 360.734375 204.50012 360.71875 205.34387 361.671875 205.34387 363.101562 205.34387 364.546875 204.453245 365.609375 202.71887 365.609375 201.539183 365.609375 200.71887 365.078125 200.12512 364.078125L198.601683 364.984375C199.507933 366.515625 200.671995 367.21875 202.773558 367.21875zM138.282091 405.21875C141.594591 405.21875 143.805529 402.90625 143.805529 399.335938 143.805529 395.765625 141.594591 393.421875 138.282091 393.421875 134.969591 393.421875 132.805529 395.765625 132.805529 399.335938 132.805529 402.90625 134.977404 405.21875 138.282091 405.21875zM138.282091 403.554688C135.961779 403.554688 134.633654 401.9375 134.633654 399.335938 134.633654 396.742188 135.953966 395.085938 138.282091 395.085938 140.610216 395.085938 141.977404 396.742188 141.977404 399.335938 141.977404 401.9375 140.602404 403.554688 138.282091 403.554688zM149.469471 405L149.469471 400.914062 151.649159 400.914062C154.133534 400.914062 155.586659 399.515625 155.586659 397.265625 155.586659 395.085938 154.133534 393.640625 151.633534 393.640625L147.656971 393.640625 147.656971 405 149.469471 405zM151.547596 399.351562L149.469471 399.351562 149.469471 395.195312 151.547596 395.195312C153.016346 395.195312 153.774159 396.078125 153.774159 397.28125 153.774159 398.53125 153.008534 399.351562 151.547596 399.351562zM162.024038 405.21875C164.688101 405.21875 166.172476 403.757812 166.172476 401.8125 166.172476 400.210938 165.438101 399.226562 163.367788 398.539062L161.774038 398.015625C160.563101 397.617188 160.188101 397.164062 160.188101 396.398438 160.188101 395.578125 160.836538 394.929688 162.234976 394.929688 163.289663 394.929688 163.945913 395.367188 164.453726 396.09375L165.844351 395.234375C165.094351 394.140625 164.031851 393.421875 162.250601 393.421875 159.922476 393.421875 158.492788 394.710938 158.492788 396.453125 158.492788 398.039062 159.336538 399.015625 160.969351 399.546875L162.609976 400.085938C164.039663 400.554688 164.445913 401.117188 164.445913 401.953125 164.445913 402.960938 163.617788 403.695312 162.024038 403.695312 160.664663 403.695312 159.883413 403.171875 159.258413 402.140625L157.844351 402.984375C158.656851 404.421875 159.867788 405.21875 162.024038 405.21875zM177.633293 405L177.937981 403.382812 171.898918 403.382812 171.891106 403.195312 177.727043 394.6875 177.727043 393.640625 169.398918 393.640625 169.398918 395.257812 175.195793 395.257812 175.195793 395.453125 169.344231 403.953125 169.344231 405 177.633293 405zM191.18774 405.257812C194.109615 405.257812 195.804928 403.046875 195.804928 399.039062 195.804928 395.359375 194.21899 393.453125 191.43774 393.453125 188.84399 393.453125 187.273678 395.125 187.273678 397.375 187.273678 399.476562 188.578365 401 190.820553 401 192.336178 401 193.461178 400.351562 193.984615 399.085938L194.117428 399.101562C194.117428 402.171875 193.047115 403.742188 191.211178 403.742188 190.078365 403.742188 189.37524 403.3125 188.836178 402.351562L187.414303 403.148438C188.179928 404.539062 189.297115 405.257812 191.18774 405.257812zM191.304928 399.648438C189.789303 399.648438 188.976803 398.75 188.976803 397.375 188.976803 395.945312 189.953365 395.015625 191.429928 395.015625 192.773678 395.015625 193.734615 395.96875 193.851803 397.375 193.953365 398.585938 192.87524 399.648438 191.304928 399.648438zM203.15637 405.226562C205.75012 405.226562 207.328245 403.554688 207.328245 401.304688 207.328245 399.203125 206.023558 397.671875 203.804808 397.671875 202.289183 397.671875 201.140745 398.328125 200.617308 399.585938L200.476683 399.570312C200.484495 396.5 201.56262 394.9375 203.304808 394.945312 204.351683 394.945312 204.961058 395.34375 205.429808 396.210938L206.796995 395.46875C206.078245 394.140625 205.03137 393.421875 203.37512 393.421875 200.492308 393.421875 198.796995 395.632812 198.796995 399.640625 198.796995 403.320312 200.382933 405.226562 203.15637 405.226562zM203.171995 403.664062C201.828245 403.664062 200.867308 402.71875 200.75012 401.304688 200.65637 400.125 201.703245 399.023438 203.296995 399.023438 204.81262 399.023438 205.62512 399.929688 205.62512 401.304688 205.62512 402.726562 204.632933 403.664062 203.171995 403.664062zM116.672837 424L119.493149 415.742188 119.688462 415.742188 122.516587 424 123.821274 424 127.485337 412.640625 125.500962 412.640625 123.258774 420.578125 123.040024 420.578125 120.274399 412.640625 119.000962 412.640625 116.282212 420.5625 116.063462 420.5625 113.790024 412.640625 111.711899 412.640625 115.391587 424 116.672837 424zM135.157091 424.234375C136.899279 424.234375 138.141466 423.507812 138.719591 422.007812L138.899279 422.007812 139.024279 424 140.446154 424 140.446154 417.960938 135.532091 417.960938 135.532091 419.460938 138.664904 419.460938 138.664904 419.84375C138.664904 421.570312 137.547716 422.59375 135.407091 422.59375 133.164904 422.59375 131.813341 420.914062 131.813341 418.34375 131.813341 415.78125 133.289904 414.109375 135.524279 414.109375 136.860216 414.109375 137.782091 414.648438 138.500841 415.601562L139.946154 414.492188C138.953966 413.179688 137.563341 412.390625 135.516466 412.390625 132.336779 412.390625 129.985216 414.695312 129.985216 418.3125 129.985216 421.929688 132.164904 424.234375 135.157091 424.234375zM146.680409 424L146.680409 419.070312 152.047596 419.070312 152.047596 424 153.852284 424 153.852284 412.640625 152.047596 412.640625 152.047596 417.476562 146.680409 417.476562 146.680409 412.640625 144.875721 412.640625 144.875721 424 146.680409 424zM162.945913 424L162.945913 414.21875 166.453726 414.21875 166.453726 412.640625 157.594351 412.640625 157.594351 414.21875 161.125601 414.21875 161.125601 424 162.945913 424zM180.539423 424L180.539423 423.015625C180.539423 419.710938 181.180048 417.523438 184.258173 413.859375L184.258173 412.640625 175.734736 412.640625 175.734736 414.226562 182.250361 414.226562 182.250361 414.414062C179.359736 417.476562 178.640986 419.984375 178.640986 423.023438L178.640986 424 180.539423 424zM191.46899 424.226562C194.101803 424.226562 195.679928 422.234375 195.679928 418.335938 195.679928 414.4375 194.101803 412.414062 191.46899 412.414062 188.820553 412.414062 187.289303 414.4375 187.289303 418.335938 187.289303 422.234375 188.820553 424.226562 191.46899 424.226562zM191.46899 422.546875C189.90649 422.546875 189.109615 421.109375 189.109615 418.335938 189.109615 415.5625 189.90649 414.09375 191.46899 414.09375 193.023678 414.09375 193.859615 415.5625 193.859615 418.335938 193.859615 421.109375 193.023678 422.546875 191.46899 422.546875zM202.976683 424.226562C205.609495 424.226562 207.18762 422.234375 207.18762 418.335938 207.18762 414.4375 205.609495 412.414062 202.976683 412.414062 200.328245 412.414062 198.796995 414.4375 198.796995 418.335938 198.796995 422.234375 200.328245 424.226562 202.976683 424.226562zM202.976683 422.546875C201.414183 422.546875 200.617308 421.109375 200.617308 418.335938 200.617308 415.5625 201.414183 414.09375 202.976683 414.09375 204.53137 414.09375 205.367308 415.5625 205.367308 418.335938 205.367308 421.109375 204.53137 422.546875 202.976683 422.546875z"/>
  </g>
</svg>
