<svg xmlns="http://www.w3.org/2000/svg" width="1969" height="460" viewBox="0 0 1969 460">
  <g fill="none" fill-rule="evenodd">
    <rect width="1969" height="460" fill="#222"/>
    <path fill="#FFF" fill-rule="nonzero" d="M152.242907,360 L169.207143,317.133384 L274.640777,317.133384 L291.969835,360 L355.448909,360 L243.813296,94.7742129 L201.676324,94.7742129 L90.2231221,360 L152.242907,360 Z M255.122786,268.612022 L188.360312,268.612022 L220.464671,187.074246 L222.288782,187.074246 L255.122786,268.612022 Z M510.13355,360 L510.13355,237.054896 L511.592839,237.054896 L569.417168,360 L608.088328,360 L665.912657,237.054896 L667.371946,237.054896 L667.371946,360 L722.64252,360 L722.64252,94.7742129 L675.762858,94.7742129 L590.394448,273.172301 L589.299981,273.172301 L501.377815,94.7742129 L454.498154,94.7742129 L454.498154,360 L510.13355,360 Z M895.02104,360 L895.02104,205.132948 L897.392385,205.132948 L1020.70231,360 L1062.29205,360 L1062.29205,94.7742129 L1005.01495,94.7742129 L1005.01495,250.188498 L1002.64361,250.188498 L879.151271,94.7742129 L837.561533,94.7742129 L837.561533,360 L895.02104,360 Z M1287.93462,360 L1347.58306,204.038481 L1349.40717,204.038481 L1407.2315,360 L1445.53784,360 L1534.18965,94.7742129 L1471.80504,94.7742129 L1424.74297,249.094031 L1423.10127,249.094031 L1367.10105,94.7742129 L1331.34847,94.7742129 L1276.80754,249.094031 L1275.34825,249.094031 L1226.82689,94.7742129 L1161.15888,94.7742129 L1250.35793,360 L1287.93462,360 Z M1766.76384,360 L1873.47436,94.7742129 L1811.27216,94.7742129 L1747.79309,269.341667 L1745.42174,269.341667 L1682.67231,94.7742129 L1616.45707,94.7742129 L1722.98517,360 L1766.76384,360 Z"/>
  </g>
</svg>
