<svg xmlns="http://www.w3.org/2000/svg" width="1891" height="1167" viewBox="0 0 1891 1167">
  <g fill="none" fill-rule="evenodd">
    <rect width="1891" height="1167" fill="#222"/>
    <path fill="#FFF" fill-rule="nonzero" d="M371.497283,338.648223 C406.520221,338.648223 432.605013,328.798021 449.386837,307.091097 L450.846126,307.091097 L453.399882,335 L498.273021,335 L498.273021,193.26655 L397.582075,193.26655 L397.582075,244.341667 L443.002447,244.341667 C438.62458,268.602348 414.363899,287.025872 377.699262,287.025872 C327.718611,287.025872 300.904175,253.462224 300.904175,202.93434 C300.904175,153.136101 332.27889,120.119686 377.699262,120.119686 C406.885043,120.119686 424.761334,130.881942 441.360747,156.784323 L487.693175,125.774431 C461.608383,84.9143369 427.31509,66.1259902 377.152028,66.1259902 C298.53283,66.1259902 241.255734,119.025219 241.255734,202.387106 C241.255734,284.107294 293.425318,338.648223 371.497283,338.648223 Z M581.817319,338.100989 C607.902111,338.100989 627.05528,329.710077 638.729593,310.739319 L640.188882,310.739319 L643.654693,335 L687.250954,335 L687.250954,226.465376 C687.250954,173.748559 660.071695,143.650722 605.530767,143.650722 C572.696763,143.650722 546.247148,158.608435 528.918091,181.774648 L566.494784,209.683552 C575.43293,197.097184 587.289653,189.435916 604.071478,189.435916 C623.954291,189.435916 634.351726,200.015762 634.351726,216.979997 L634.351726,222.087509 L585.465542,222.087509 C543.146159,222.087509 517.791012,244.706489 517.791012,280.094249 C517.791012,315.117187 542.416515,338.100989 581.817319,338.100989 Z M592.397165,296.146429 C577.804274,296.146429 569.778185,289.397217 569.778185,277.540493 C569.778185,266.048592 577.804274,259.29938 592.579576,259.29938 L634.351726,259.29938 L634.351726,260.029024 C634.351726,281.735949 617.569901,296.146429 592.397165,296.146429 Z M823.51207,339.013045 C870.574143,339.013045 909.062892,303.990107 909.062892,241.6055 C909.062892,179.220893 870.938965,145.110011 823.694481,145.110011 C799.616212,145.110011 782.469565,153.318512 769.883197,166.634524 L768.423908,166.634524 L768.423908,69.7742129 L714.247802,69.7742129 L714.247802,335 L760.762641,335 L764.410863,309.462441 L765.50533,309.462441 C776.997231,327.885966 795.785578,339.013045 823.51207,339.013045 Z M810.925702,292.133384 C786.665021,292.133384 767.876675,273.709859 767.876675,241.970322 C767.876675,209.683552 785.752966,191.989672 810.743291,191.989672 C835.733616,191.989672 853.062674,210.96043 853.062674,242.152733 C853.062674,273.345037 835.368794,292.133384 810.925702,292.133384 Z M1048.60741,399.938363 C1096.94636,399.938363 1121.38945,372.576693 1121.38945,327.885966 L1121.38945,148.211 L1077.24596,148.211 L1073.59773,171.377214 L1071.95603,171.377214 C1059.9169,153.683334 1040.2165,143.650722 1012.67242,143.650722 C965.792754,143.650722 928.033649,177.944015 928.033649,233.944232 C928.033649,289.94445 965.975165,323.872921 1012.12518,323.872921 C1036.9331,323.872921 1054.07974,315.846831 1065.38923,300.341885 L1067.21334,300.341885 L1067.21334,328.068377 C1067.21334,345.397435 1058.64002,355.97728 1042.95266,356.159691 L1007.74731,356.159691 C991.330312,356.159691 984.033867,352.146646 976.737422,337.918578 L932.95875,362.36167 C947.916463,392.824329 965.427932,399.938363 1003.73427,399.938363 L1048.60741,399.938363 Z M1025.62361,278.817371 C1001.36292,278.817371 982.574578,259.664202 982.574578,234.673877 C982.574578,209.683552 998.079524,190.530383 1023.61708,190.530383 C1049.15464,190.530383 1067.03093,205.852918 1067.03093,232.849766 C1067.03093,259.846613 1049.88429,278.817371 1025.62361,278.817371 Z M1203.47446,335 L1203.47446,226.465376 C1203.47446,200.745406 1216.06083,189.435916 1236.12605,189.435916 C1256.37369,189.435916 1268.96006,200.745406 1268.96006,226.465376 L1268.96006,335 L1323.31857,335 L1323.31857,224.276442 C1323.31857,172.654092 1297.05137,143.103488 1251.99582,143.103488 C1225.72862,143.103488 1207.4875,154.048156 1197.27248,170.647569 L1195.9956,170.647569 L1192.89461,148.211 L1149.11594,148.211 L1149.11594,335 L1203.47446,335 Z M1404.49153,399.938363 L1404.49153,316.576476 L1405.76841,316.576476 C1419.08442,331.169366 1434.40695,338.2834 1459.21487,338.2834 C1507.00658,338.2834 1545.13051,304.172519 1545.13051,241.6055 C1545.13051,179.038481 1506.64176,144.197955 1459.57969,144.197955 C1432.03561,144.197955 1412.70003,155.689856 1401.57295,173.748559 L1400.47848,173.748559 L1396.83026,148.211 L1350.31542,148.211 L1350.31542,399.938363 L1404.49153,399.938363 Z M1446.81091,291.403739 C1421.82059,291.403739 1403.94429,273.892271 1403.94429,241.6055 C1403.94429,209.683552 1422.73264,191.260027 1446.99332,191.260027 C1471.43641,191.260027 1489.13029,210.230785 1489.13029,241.423089 C1489.13029,272.432981 1471.80124,291.403739 1446.81091,291.403739 Z M1622.10801,335 L1622.10801,235.950755 C1622.10801,209.865963 1634.51197,199.286117 1657.13095,199.286117 L1673.36554,199.286117 L1673.36554,148.211 L1658.043,148.211 C1638.70742,148.211 1624.11453,156.966734 1616.08844,179.403304 L1615.17639,179.403304 L1610.98093,148.211 L1567.74949,148.211 L1567.74949,335 L1622.10801,335 Z"/>
    <text fill="#FFA600" font-family="NameSansText-Medium, Name Sans Text" font-size="16" font-weight="400" letter-spacing="1.508">
      <tspan x="101.587" y="84">NAME SANS </tspan> <tspan x="76.314" y="103">DISPLAY BOLD</tspan>
    </text>
    <text fill="#FFA600" font-family="NameSansText-Medium, Name Sans Text" font-size="16" font-weight="400" letter-spacing="1.508">
      <tspan x="101.587" y="423">NAME SANS </tspan> <tspan x="54.861" y="442">STANDARD BOLD</tspan>
    </text>
    <text fill="#FFA600" font-family="NameSansText-Medium, Name Sans Text" font-size="16" font-weight="400" letter-spacing="1.508">
      <tspan x="101.587" y="772">NAME SANS </tspan> <tspan x="105.423" y="791">TEXT BOLD</tspan>
    </text>
    <path fill="#FFF" fill-rule="nonzero" d="M370.037994 683.377867C407.067454 683.377867 432.969835 670.609088 447.927548 643.794651L451.393359 643.794651 454.67676 679 499.549898 679 499.549898 533.983149 389.373574 533.983149 389.373574 583.234155 443.914503 583.234155C442.820036 612.419937 419.836233 631.937928 377.516851 631.937928 330.272367 631.937928 304.187575 598.921513 304.187575 546.93434 304.187575 495.4944 334.467823 463.025219 379.340962 463.025219 407.797099 463.025219 426.038212 474.699531 442.090392 498.048156L488.240408 465.031741C463.250083 428.549515 429.321612 408.849112 378.97614 408.849112 302.545875 408.849112 245.268779 461.383519 245.268779 546.204695 245.268779 630.296228 297.255952 683.377867 370.037994 683.377867zM593.491632 682.2834C619.758835 682.2834 639.641648 672.61561 649.674261 650.726274L653.687306 650.726274 657.517939 679 701.296611 679 701.296611 565.357864C701.296611 512.093813 673.934941 483.090443 619.758835 483.090443 585.830364 483.090443 558.468694 496.406456 539.133114 519.390259L575.615341 549.123273C586.377598 535.260027 599.146377 527.416349 618.117135 527.416349 638.547182 527.416349 648.214972 537.996194 648.214972 558.061419L648.214972 565.540275 600.605666 565.540275C556.279761 565.540275 530.37738 588.706489 530.37738 623.364604 530.37738 659.299598 554.820472 682.2834 593.491632 682.2834zM607.172467 641.605718C591.120287 641.605718 582.729375 633.397217 582.729375 620.446026 582.729375 607.859658 590.755465 599.833568 606.625233 599.833568L648.214972 599.833568 648.214972 602.934558C648.214972 626.648005 632.162792 641.605718 607.172467 641.605718zM853.427496 683.013045C901.401624 683.013045 937.336617 647.078052 937.336617 583.416566 937.336617 519.755081 901.584035 484.18491 853.974729 484.18491 827.707526 484.18491 810.013646 495.129578 798.521745 512.458636L794.873522 512.458636 794.873522 409.031523 740.332594 409.031523 740.332594 679 785.935377 679 790.678066 648.172519 794.143878 648.172519C805.088546 671.156321 824.788948 683.013045 853.427496 683.013045zM838.469783 636.133384C812.20258 636.133384 794.691111 616.980215 794.691111 583.598978 794.691111 550.035329 811.655347 531.246982 838.469783 531.246982 865.101809 531.246982 881.518811 550.400151 881.518811 583.598978 881.518811 616.980215 864.919397 636.133384 838.469783 636.133384zM1081.44141 752.694098C1131.9693 750.505164 1159.14855 721.684205 1159.14855 674.439722L1159.14855 487.833133 1114.82265 487.833133 1110.26237 517.201325 1106.43174 517.201325C1095.66948 494.947167 1076.69872 483.272854 1047.87776 483.45316 998.626758 483.637677 962.691765 520.484726 962.691765 579.038699 962.691765 636.863028 998.444347 673.892488 1046.96571 673.892488 1073.23291 673.892488 1090.37956 664.224698 1100.77699 644.706707L1104.60763 644.706707 1104.60763 675.7166C1104.60763 696.69388 1092.56849 706.36167 1075.23943 707.638548 1063.2003 708.368192 1050.43152 708.368192 1038.20997 707.638548 1024.52914 706.908903 1018.50957 703.260681 1011.57795 690.491901L966.339987 714.752582C979.656 742.661485 997.714702 751.41722 1032.92005 752.694098 1048.78982 753.423742 1065.75405 753.423742 1081.44141 752.694098zM1061.74101 628.472116C1034.74416 628.472116 1018.14475 608.406892 1018.14475 579.22111 1018.14475 550.400151 1033.10246 530.334927 1060.64654 530.334927 1088.55545 530.334927 1104.60763 548.211218 1104.60763 578.309055 1104.60763 608.406892 1088.92027 628.472116 1061.74101 628.472116zM1253.81993 679L1253.81993 564.993042C1253.81993 540.367539 1265.85907 528.875638 1286.83635 528.875638 1307.81363 528.875638 1319.67035 540.367539 1319.67035 564.993042L1319.67035 679 1374.21128 679 1374.21128 562.439286C1374.21128 511.54658 1348.85613 483.272854 1305.44228 483.272854 1278.26302 483.272854 1260.56914 495.4944 1250.35412 514.82998L1246.7059 514.82998 1243.96973 487.833133 1199.279 487.833133 1199.279 679 1253.81993 679zM1467.60578 751.599631L1467.60578 654.192086 1471.254 654.192086C1482.92832 672.250788 1499.71014 682.648223 1526.52458 682.648223 1574.31629 682.648223 1610.06887 647.078052 1610.06887 583.416566 1610.06887 519.57267 1574.13388 483.820088 1526.15975 483.820088 1497.52121 483.820088 1477.63839 495.859223 1466.87614 518.660614L1463.41032 518.660614 1458.66763 487.833133 1413.06485 487.833133 1413.06485 751.599631 1467.60578 751.599631zM1511.20204 635.58615C1484.3876 635.58615 1467.42337 616.980215 1467.42337 583.416566 1467.42337 549.852918 1484.93484 530.88216 1511.20204 530.88216 1537.65166 530.88216 1554.25107 549.852918 1554.25107 583.234155 1554.25107 616.615393 1537.83407 635.58615 1511.20204 635.58615zM1696.53175 679L1696.53175 577.944232C1696.53175 551.312207 1708.7533 540.54995 1732.10192 540.54995L1751.61991 540.54995 1751.61991 486.009021 1734.83809 486.009021C1714.40804 486.009021 1699.45033 496.041634 1692.88353 522.673659L1688.87048 522.673659 1684.85744 487.833133 1641.99082 487.833133 1641.99082 679 1696.53175 679zM368.578705 1030.10751C407.432276 1030.10751 433.152246 1014.60257 446.285848 982.680617L451.940593 982.680617 455.953638 1025 500.644365 1025 500.644365 876.88216 380.982662 876.88216 380.982662 924.126644 444.279325 924.126644 444.279325 927.592455C444.279325 960.244048 423.666867 979.032395 377.152028 979.032395 332.643712 979.032395 307.288564 946.563213 307.288564 892.93434 307.288564 840.035111 336.656757 807.930752 380.982662 807.930752 408.709154 807.930752 427.31509 820.51712 442.637625 841.4944L488.787642 806.471463C464.709372 774.184692 431.328135 753.572234 380.61784 753.572234 306.376509 753.572234 249.281824 805.924229 249.281824 892.204695 249.281824 978.485161 300.904175 1030.10751 368.578705 1030.10751zM604.983533 1028.46581C631.433147 1028.46581 652.045605 1017.52114 660.436518 992.713229L667.003318 992.713229 671.381186 1025 715.342269 1025 715.342269 906.250353C715.342269 852.439068 687.798187 824.712576 633.986903 824.712576 598.963966 824.712576 570.507829 836.204478 549.165727 859.005869L584.553486 890.745406C597.139854 875.605282 611.185512 867.579192 632.162792 867.579192 652.957661 867.579192 661.895807 878.159038 661.895807 901.142841L661.895807 910.993042 615.563379 910.993042C569.413362 910.993042 542.963748 934.8889 542.963748 968.817371 542.963748 1005.48201 567.224429 1028.46581 604.983533 1028.46581zM621.765357 989.247418C604.4363 989.247418 595.498154 979.397217 595.498154 965.533971 595.498154 951.670725 603.706655 942.550168 620.670891 942.550168L661.895807 942.550168 661.895807 947.840091C661.895807 973.560061 646.755683 989.247418 621.765357 989.247418zM883.160511 1029.01304C932.229105 1029.01304 965.610343 992.165996 965.610343 927.227633 965.610343 862.471681 932.046694 825.442221 884.254978 825.442221 855.61643 825.442221 837.375316 839.123056 827.160293 860.465158L821.323137 860.465158 821.323137 750.288834 766.417386 750.288834 766.417386 1025 811.108113 1025 816.94527 989.065007 822.782426 989.065007C832.997449 1016.42668 853.609907 1029.01304 883.160511 1029.01304zM866.013864 982.133384C837.557728 982.133384 821.505548 962.432981 821.505548 927.410044 821.505548 892.387106 837.557728 872.504293 866.013864 872.504293 894.28759 872.504293 909.974947 891.839873 909.974947 927.227633 909.974947 962.797804 894.28759 982.133384 866.013864 982.133384zM1114.27542 1107.63224C1167.17464 1103.25438 1196.90766 1072.97413 1196.90766 1022.99348L1196.90766 829.455266 1152.39934 829.455266 1146.7446 865.025437 1140.90744 865.025437C1131.23965 838.211 1113.18095 825.077398 1082.9007 825.257936 1031.46076 825.624632 997.34988 865.207848 997.34988 926.315577 997.34988 985.781606 1030.73112 1025.91206 1081.62382 1025.91206 1109.35032 1025.91206 1126.49696 1014.78498 1136.16475 991.071529L1142.00191 991.071529 1142.00191 1025.36482C1142.00191 1049.99033 1126.67937 1058.92847 1107.5262 1061.29982 1094.93984 1062.7591 1081.259 1062.57669 1068.67263 1061.1174 1057.72796 1059.65812 1052.98528 1056.55713 1046.23606 1045.06522L999.721225 1069.32591C1011.39554 1094.49864 1030.00147 1104.71367 1061.92342 1107.63224 1079.25248 1108.90912 1097.31118 1109.09153 1114.27542 1107.63224zM1097.676 980.309272C1068.1254 980.309272 1053.71492 959.149581 1053.71492 925.950755 1053.71492 893.299162 1068.1254 872.321882 1097.676 872.321882 1127.77384 872.321882 1142.00191 892.751929 1142.00191 925.950755 1142.00191 959.149581 1127.77384 980.309272 1097.676 980.309272zM1304.16541 1025L1304.16541 905.703119C1304.16541 881.989672 1315.4749 870.315359 1337.36423 870.315359 1359.25357 870.315359 1370.38065 881.989672 1370.38065 905.703119L1370.38065 1025 1425.10399 1025 1425.10399 902.60213C1425.10399 852.621479 1400.47848 825.624632 1358.70633 825.624632 1330.79743 825.624632 1313.65078 838.940645 1303.25335 861.194803L1297.41619 861.194803 1295.04485 829.455266 1249.44207 829.455266 1249.44207 1025 1304.16541 1025zM1530.53762 1105.2609L1530.53762 993.990107 1536.37478 993.990107C1546.5898 1015.51462 1564.83091 1029.01304 1593.46946 1029.01304 1641.26118 1029.01304 1674.82483 991.983585 1674.82483 927.227633 1674.82483 862.28927 1641.44359 825.442221 1592.375 825.442221 1562.82439 825.442221 1542.21193 838.028589 1531.99691 865.57267L1526.15975 865.57267 1520.3226 829.455266 1475.63187 829.455266 1475.63187 1105.2609 1530.53762 1105.2609zM1575.22835 981.950973C1546.77221 981.950973 1530.72003 962.25057 1530.72003 927.227633 1530.72003 892.022284 1546.77221 872.504293 1575.22835 872.504293 1603.50207 872.504293 1619.18943 891.657462 1619.18943 927.227633 1619.18943 962.797804 1603.50207 981.950973 1575.22835 981.950973zM1770.77308 1025L1770.77308 921.93771C1770.77308 894.758451 1782.99463 883.996194 1806.70808 883.996194L1829.50947 883.996194 1829.50947 825.807043 1811.45077 825.807043C1789.92625 825.807043 1774.42131 837.298944 1769.31379 867.944015L1762.19976 867.944015 1758.36913 829.455266 1716.04974 829.455266 1716.04974 1025 1770.77308 1025z"/>
    <circle cx="473.5" cy="317.104" r="38.163" fill="#FFA600" fill-opacity=".15" stroke="#FFA600" stroke-width="2"/>
    <circle cx="659.5" cy="317.104" r="38.163" fill="#FFA600" fill-opacity=".15" stroke="#FFA600" stroke-width="2"/>
    <circle cx="740.826" cy="317.104" r="38.163" fill="#FFA600" fill-opacity=".15" stroke="#FFA600" stroke-width="2"/>
    <circle cx="1093.5" cy="165.337" r="38.163" fill="#FFA600" fill-opacity=".15" stroke="#FFA600" stroke-width="2"/>
    <circle cx="1176.5" cy="165.337" r="38.163" fill="#FFA600" fill-opacity=".15" stroke="#FFA600" stroke-width="2"/>
    <circle cx="1377.5" cy="165.337" r="38.163" fill="#FFA600" fill-opacity=".15" stroke="#FFA600" stroke-width="2"/>
    <circle cx="1595.5" cy="165.337" r="38.163" fill="#FFA600" fill-opacity=".15" stroke="#FFA600" stroke-width="2"/>
  </g>
</svg>
