<svg xmlns="http://www.w3.org/2000/svg" width="1072" height="649" viewBox="0 0 1072 649">
  <g fill="none" fill-rule="evenodd">
    <rect width="1072" height="649" fill="#222"/>
    <g fill-rule="nonzero" transform="translate(524.331 -296.925)">
      <path fill="#FFF" d="M193.988509,823 L193.988509,537.260169 C193.988509,480.461732 221.076995,452.499424 273.506321,452.499424 C325.935648,452.499424 352.587223,480.461732 352.587223,537.260169 L352.587223,823 L483.66054,823 L483.66054,529.832681 C483.66054,410.119051 424.677547,345.456215 324.624915,345.456215 C257.777523,345.456215 216.707884,377.350722 191.803954,430.653871 L177.8228,430.653871 L172.142956,354.631347 L62.9151922,354.631347 L62.9151922,823 L193.988509,823 Z" opacity=".1"/>
      <path fill="#FFA600" d="M130.861979,402.152169 C131.507397,402.152169 132.03825,402.642683 132.102085,403.271259 L132.108521,403.398711 L132.108521,784.840563 C132.108521,785.529009 131.550425,786.087105 130.861979,786.087105 C130.216561,786.087105 129.685708,785.596591 129.621873,784.968014 L129.615437,784.840563 L129.615437,403.398711 C129.615437,402.710265 130.173533,402.152169 130.861979,402.152169 Z"/>
      <path fill="#FFA600" d="M307.215565,402.122153 L310.752178,402.152297 C382.906514,403.189202 423.851958,449.222083 422.39585,526.442632 L422.338735,528.79218 L422.338,780.949 L427.864661,771.105349 C428.201673,770.505032 428.961528,770.29158 429.561846,770.628591 C430.122142,770.943135 430.345436,771.626023 430.098715,772.203758 L430.038604,772.325776 L422.179165,786.325776 C421.725542,787.133812 420.596154,787.17229 420.078173,786.44121 L420.005222,786.325776 L412.145783,772.325776 C411.808772,771.725458 412.022224,770.965603 412.622541,770.628591 C413.182838,770.314047 413.882109,770.479018 414.246858,770.990493 L414.319726,771.105349 L419.845,780.948 L419.845993,532.809412 C419.845997,532.731604 419.846001,532.653077 419.846005,532.57381 L419.846201,528.755156 C422.144056,451.425801 382.154784,405.67174 310.713642,404.645082 C193.933307,402.712648 132.108521,495.033739 132.108521,665.244323 C132.108521,665.932769 131.550425,666.490865 130.861979,666.490865 C130.173533,666.490865 129.615437,665.932769 129.615437,665.244323 C129.615437,497.236947 189.824726,403.968081 303.712446,402.149247 L307.215565,402.122153 Z"/>
    </g>
    <g fill="#FFF" fill-rule="nonzero" transform="translate(-6.97 -301.19)">
      <path d="M188.736961,827 L188.736961,476.739313 C188.736961,476.739313 191.151039,475.203082 195.979194,472.13062 C200.807348,469.058158 207.610658,465.619927 216.389121,461.815926 C225.167584,458.011925 235.335971,454.646847 246.894281,451.720693 C258.452591,448.794539 270.961901,447.331461 284.422212,447.331461 C311.635448,447.331461 331.679606,454.573694 344.554685,469.058158 C357.429765,483.542623 363.867305,506.439781 363.867305,537.749634 L363.867305,537.749634 L363.867305,827 L482.376559,827 L482.376559,532.043632 C482.376559,470.887005 468.404172,424.653764 440.459397,393.343912 C412.514622,362.034059 374.108845,346.379133 325.242066,346.379133 C300.954984,346.379133 279.886672,350.695211 262.03713,359.327367 C244.187588,367.959522 229.191047,379.298371 217.047506,393.343912 C204.903965,407.389453 195.174501,422.605456 187.859115,438.991921 L187.859115,438.991921 L169.424342,438.991921 L162.401571,358.668982 L70.2277066,358.668982 L70.2277066,827 L188.736961,827 Z" opacity=".06"/>
      <path d="M130.263639 406.272969C130.909057 406.272969 131.43991 406.763483 131.503745 407.392059L131.510181 407.519511 131.51 785.069 137.036107 775.226149C137.373118 774.625832 138.132974 774.41238 138.733291 774.749391 139.293588 775.063935 139.516881 775.746823 139.270161 776.324558L139.210049 776.446576 131.35061 790.446576C130.896988 791.254612 129.767599 791.29309 129.249618 790.56201L129.176668 790.446576 121.317229 776.446576C120.980217 775.846258 121.193669 775.086403 121.793987 774.749391 122.354283 774.434847 123.053555 774.599818 123.418304 775.111293L123.491171 775.226149 129.017 785.07 129.017097 407.519511C129.017097 406.831065 129.575193 406.272969 130.263639 406.272969zM309.406197 398.101167C383.98102 398.101167 425.921349 446.181496 425.875448 530.351345L425.861195 532.91298 425.861 785.069 431.387121 775.226149C431.724132 774.625832 432.483988 774.41238 433.084306 774.749391 433.644602 775.063935 433.867895 775.746823 433.621175 776.324558L433.561064 776.446576 425.701625 790.446576C425.248002 791.254612 424.118614 791.29309 423.600633 790.56201L423.527682 790.446576 415.668243 776.446576C415.331231 775.846258 415.544683 775.086403 416.145001 774.749391 416.705298 774.434847 417.404569 774.599818 417.769318 775.111293L417.842186 775.226149 423.368 785.07 423.368181 532.89984C424.258507 448.444865 383.260743 400.594251 309.385572 400.594081 255.026662 399.694571 212.137835 423.173409 168.753015 479.258619 168.331785 479.803159 167.548874 479.903121 167.004334 479.481892 166.459795 479.060662 166.359832 478.277751 166.781062 477.733211 210.620516 421.060279 254.228165 397.187933 309.406197 398.101167z" opacity=".6"/>
    </g>
    <path fill="#FFA600" fill-rule="nonzero" d="M66.1339016 568.270422L66.1339016 561.986242 66.27355 561.986242 71.0279445 568.270422 72.0880031 568.270422 72.0880031 559.04093 70.6280422 559.04093 70.6280422 565.331457 70.5010891 565.331457 65.7403469 559.04093 64.6739406 559.04093 64.6739406 568.270422 66.1339016 568.270422zM76.3348781 568.270422L77.0140773 566.435949 80.9877102 566.435949 81.6669094 568.270422 83.3236477 568.270422 79.5848781 559.009192 78.4867336 559.009192 74.7479641 568.270422 76.3348781 568.270422zM80.5370266 565.217199L77.4647609 565.217199 78.9056789 561.326086 79.1024562 561.326086 80.5370266 565.217199zM87.3991359 568.270422L87.3991359 562.519445 87.545132 562.519445 90.1413234 568.270422 91.0617336 568.270422 93.657925 562.519445 93.8039211 562.519445 93.8039211 568.270422 95.2131008 568.270422 95.2131008 559.04093 93.8864406 559.04093 90.6935695 566.074133 90.5602687 566.074133 87.3483547 559.04093 85.9836086 559.04093 85.9836086 568.270422 87.3991359 568.270422zM105.033218 568.270422L105.033218 567.013586 100.367691 567.013586 100.367691 564.163488 103.192398 564.163488 103.192398 562.919348 100.367691 562.919348 100.367691 560.297766 104.868179 560.297766 104.868179 559.04093 98.901382 559.04093 98.901382 568.270422 105.033218 568.270422zM115.691519 568.448156C117.868765 568.448156 119.07482 567.254797 119.07482 565.674231 119.07482 564.34757 118.440054 563.566809 116.783316 563.02091L115.488394 562.595617C114.504507 562.271887 114.19982 561.922766 114.19982 561.313391 114.19982 560.634192 114.726675 560.088293 115.862905 560.088293 116.719839 560.088293 117.253042 560.443762 117.66564 561.034094L118.795523 560.335852C118.186148 559.44718 117.322866 558.863195 115.875601 558.863195 113.983999 558.863195 112.822378 559.929602 112.822378 561.357824 112.822378 562.633703 113.507925 563.408117 114.834585 563.839758L116.167593 564.277746C117.329214 564.658606 117.659292 565.115637 117.659292 565.794836 117.659292 566.613684 116.986441 567.210363 115.691519 567.210363 114.587027 567.210363 113.952261 566.78507 113.444448 565.94718L112.295523 566.632727C112.955679 567.800695 113.939566 568.448156 115.691519 568.448156zM122.553628 568.270422L123.232827 566.435949 127.20646 566.435949 127.885659 568.270422 129.542398 568.270422 125.803628 559.009192 124.705484 559.009192 120.966714 568.270422 122.553628 568.270422zM126.755777 565.217199L123.683511 565.217199 125.124429 561.326086 125.321206 561.326086 126.755777 565.217199zM133.66232 568.270422L133.66232 561.986242 133.801968 561.986242 138.556362 568.270422 139.616421 568.270422 139.616421 559.04093 138.15646 559.04093 138.15646 565.331457 138.029507 565.331457 133.268765 559.04093 132.202359 559.04093 132.202359 568.270422 133.66232 568.270422zM145.704116 568.448156C147.881362 568.448156 149.087417 567.254797 149.087417 565.674231 149.087417 564.34757 148.452652 563.566809 146.795913 563.02091L145.500991 562.595617C144.517105 562.271887 144.212417 561.922766 144.212417 561.313391 144.212417 560.634192 144.739273 560.088293 145.875503 560.088293 146.732437 560.088293 147.26564 560.443762 147.678237 561.034094L148.80812 560.335852C148.198745 559.44718 147.335464 558.863195 145.888198 558.863195 143.996597 558.863195 142.834976 559.929602 142.834976 561.357824 142.834976 562.633703 143.520523 563.408117 144.847183 563.839758L146.180191 564.277746C147.341812 564.658606 147.67189 565.115637 147.67189 565.794836 147.67189 566.613684 146.999038 567.210363 145.704116 567.210363 144.599624 567.210363 143.964859 566.78507 143.457046 565.94718L142.30812 566.632727C142.968277 567.800695 143.952163 568.448156 145.704116 568.448156zM160.900991 568.270422L160.900991 560.323156 163.751089 560.323156 163.751089 559.04093 156.552847 559.04093 156.552847 560.323156 159.421987 560.323156 159.421987 568.270422 160.900991 568.270422zM172.898355 568.270422L172.898355 567.013586 168.232827 567.013586 168.232827 564.163488 171.057534 564.163488 171.057534 562.919348 168.232827 562.919348 168.232827 560.297766 172.733316 560.297766 172.733316 559.04093 166.766519 559.04093 166.766519 568.270422 172.898355 568.270422zM176.859585 568.270422L179.043179 564.626867 179.239956 564.626867 181.626675 568.270422 183.340542 568.270422 180.173062 563.496985 183.137417 559.04093 181.455288 559.04093 179.493862 562.411535 179.303433 562.411535 177.119839 559.04093 175.386929 559.04093 178.351284 563.496985 175.145718 568.270422 176.859585 568.270422zM189.796402 568.270422L189.796402 560.323156 192.646499 560.323156 192.646499 559.04093 185.448257 559.04093 185.448257 560.323156 188.317398 560.323156 188.317398 568.270422 189.796402 568.270422zM204.644155 568.270422L208.363882 559.04093 206.700796 559.04093 204.231558 565.915442 203.996695 565.915442 201.565542 559.04093 199.832632 559.04093 203.558706 568.270422 204.644155 568.270422zM213.93107 568.454504C216.07023 568.454504 217.352456 566.835852 217.352456 563.668371 217.352456 560.500891 216.07023 558.856848 213.93107 558.856848 211.779214 558.856848 210.535073 560.500891 210.535073 563.668371 210.535073 566.835852 211.779214 568.454504 213.93107 568.454504zM213.93107 567.089758C212.661538 567.089758 212.014077 565.921789 212.014077 563.668371 212.014077 561.414953 212.661538 560.221594 213.93107 560.221594 215.194253 560.221594 215.873452 561.414953 215.873452 563.668371 215.873452 565.921789 215.194253 567.089758 213.93107 567.089758zM221.821499 568.270422L221.821499 566.397863 219.885464 566.397863 219.885464 568.270422 221.821499 568.270422zM228.086929 568.448156C230.156265 568.448156 231.419448 567.286535 231.419448 565.655188 231.419448 564.309485 230.587905 563.566809 229.204116 563.363684L229.204116 563.198645C230.429214 562.970129 231.083023 562.246496 231.083023 561.230871 231.083023 559.834387 229.864273 558.856848 228.074234 558.856848 226.506362 558.856848 225.420913 559.74552 225.07814 561.021399L226.341323 561.37052C226.531753 560.589758 227.147476 560.094641 228.118667 560.094641 229.108902 560.094641 229.705581 560.634192 229.705581 561.421301 229.705581 562.252844 229.077163 562.836828 227.820327 562.836828L227.591812 562.836828 227.591812 563.998449 227.833023 563.998449C229.223159 563.998449 229.997573 564.569738 229.997573 565.598059 229.997573 566.512121 229.35646 567.184973 228.105972 567.184973 226.874527 567.184973 226.239761 566.537512 225.979507 565.318762L224.627456 565.585363C224.925796 567.324621 226.062027 568.448156 228.086929 568.448156zM68.3428859 598.270422L68.3428859 590.323156 71.1929836 590.323156 71.1929836 589.04093 63.9947414 589.04093 63.9947414 590.323156 66.863882 590.323156 66.863882 598.270422 68.3428859 598.270422zM75.6747219 598.270422L75.6747219 594.868078 77.4774562 594.868078 79.2294094 598.270422 80.8798 598.270422 78.9120266 594.664953C80.0799953 594.265051 80.7338039 593.29386 80.7338039 591.941809 80.7338039 590.196203 79.5721828 589.04093 77.5663234 589.04093L74.2084133 589.04093 74.2084133 598.270422 75.6747219 598.270422zM77.4964992 593.585852L75.6747219 593.585852 75.6747219 590.304113 77.4964992 590.304113C78.6581203 590.304113 79.2611477 591.008703 79.2611477 591.954504 79.2611477 592.944738 78.6517727 593.585852 77.4964992 593.585852zM84.4347805 598.270422L85.1139797 596.435949 89.0876125 596.435949 89.7668117 598.270422 91.42355 598.270422 87.6847805 589.009192 86.5866359 589.009192 82.8478664 598.270422 84.4347805 598.270422zM88.6369289 595.217199L85.5646633 595.217199 87.0055812 591.326086 87.2023586 591.326086 88.6369289 595.217199zM95.5434719 598.270422L95.5434719 591.986242 95.6831203 591.986242 100.437515 598.270422 101.497573 598.270422 101.497573 589.04093 100.037612 589.04093 100.037612 595.331457 99.9106594 595.331457 95.1499172 589.04093 94.0835109 589.04093 94.0835109 598.270422 95.5434719 598.270422zM107.585269 598.448156C109.762515 598.448156 110.96857 597.254797 110.96857 595.674231 110.96857 594.34757 110.333804 593.566809 108.677066 593.02091L107.382144 592.595617C106.398257 592.271887 106.09357 591.922766 106.09357 591.313391 106.09357 590.634192 106.620425 590.088293 107.756655 590.088293 108.613589 590.088293 109.146792 590.443762 109.55939 591.034094L110.689273 590.335852C110.079898 589.44718 109.216616 588.863195 107.769351 588.863195 105.877749 588.863195 104.716128 589.929602 104.716128 591.357824 104.716128 592.633703 105.401675 593.408117 106.728335 593.839758L108.061343 594.277746C109.222964 594.658606 109.553042 595.115637 109.553042 595.794836 109.553042 596.613684 108.880191 597.210363 107.585269 597.210363 106.480777 597.210363 105.846011 596.78507 105.338198 595.94718L104.189273 596.632727C104.849429 597.800695 105.833316 598.448156 107.585269 598.448156zM119.72228 598.270422L119.72228 596.956457 115.475698 596.956457 115.475698 589.04093 114.00939 589.04093 114.00939 598.270422 119.72228 598.270422zM123.321695 598.270422L124.000894 596.435949 127.974527 596.435949 128.653726 598.270422 130.310464 598.270422 126.571695 589.009192 125.47355 589.009192 121.73478 598.270422 123.321695 598.270422zM127.523843 595.217199L124.451577 595.217199 125.892495 591.326086 126.089273 591.326086 127.523843 595.217199zM135.630093 598.270422L135.630093 590.323156 138.480191 590.323156 138.480191 589.04093 131.281948 589.04093 131.281948 590.323156 134.151089 590.323156 134.151089 598.270422 135.630093 598.270422zM143.038101 598.270422L143.038101 589.04093 141.571792 589.04093 141.571792 598.270422 143.038101 598.270422zM150.661929 598.448156C153.353335 598.448156 155.149722 596.56925 155.149722 593.668371 155.149722 590.767492 153.353335 588.863195 150.661929 588.863195 147.970523 588.863195 146.212222 590.767492 146.212222 593.668371 146.212222 596.56925 147.97687 598.448156 150.661929 598.448156zM150.661929 597.096106C148.776675 597.096106 147.697573 595.782141 147.697573 593.668371 147.697573 591.560949 148.770327 590.215246 150.661929 590.215246 152.55353 590.215246 153.66437 591.560949 153.66437 593.668371 153.66437 595.782141 152.547183 597.096106 150.661929 597.096106zM159.71398 598.270422L159.71398 591.986242 159.853628 591.986242 164.608023 598.270422 165.668081 598.270422 165.668081 589.04093 164.20812 589.04093 164.20812 595.331457 164.081167 595.331457 159.320425 589.04093 158.254019 589.04093 158.254019 598.270422 159.71398 598.270422zM175.875698 598.270422L175.875698 592.519445 176.021695 592.519445 178.617886 598.270422 179.538296 598.270422 182.134487 592.519445 182.280484 592.519445 182.280484 598.270422 183.689663 598.270422 183.689663 589.04093 182.363003 589.04093 179.170132 596.074133 179.036831 596.074133 175.824917 589.04093 174.460171 589.04093 174.460171 598.270422 175.875698 598.270422zM191.243667 598.448156C193.935073 598.448156 195.73146 596.56925 195.73146 593.668371 195.73146 590.767492 193.935073 588.863195 191.243667 588.863195 188.552261 588.863195 186.79396 590.767492 186.79396 593.668371 186.79396 596.56925 188.558609 598.448156 191.243667 598.448156zM191.243667 597.096106C189.358413 597.096106 188.279312 595.782141 188.279312 593.668371 188.279312 591.560949 189.352066 590.215246 191.243667 590.215246 193.135269 590.215246 194.246109 591.560949 194.246109 593.668371 194.246109 595.782141 193.128921 597.096106 191.243667 597.096106zM201.742984 598.270422C204.580386 598.270422 206.351382 596.556555 206.351382 593.668371 206.351382 590.780188 204.580386 589.04093 201.730288 589.04093L198.835757 589.04093 198.835757 598.270422 201.742984 598.270422zM201.749331 596.905676L200.302066 596.905676 200.302066 590.405676 201.749331 590.405676C203.736148 590.405676 204.86603 591.535559 204.86603 593.662024 204.86603 595.788488 203.736148 596.905676 201.749331 596.905676zM215.587515 598.270422L215.587515 597.013586 210.921987 597.013586 210.921987 594.163488 213.746695 594.163488 213.746695 592.919348 210.921987 592.919348 210.921987 590.297766 215.422476 590.297766 215.422476 589.04093 209.455679 589.04093 209.455679 598.270422 215.587515 598.270422zM224.455484 598.270422L224.455484 596.956457 220.208902 596.956457 220.208902 589.04093 218.742593 589.04093 218.742593 598.270422 224.455484 598.270422zM589.133902 568.270422L589.133902 561.986242 589.27355 561.986242 594.027945 568.270422 595.088003 568.270422 595.088003 559.04093 593.628042 559.04093 593.628042 565.331457 593.501089 565.331457 588.740347 559.04093 587.673941 559.04093 587.673941 568.270422 589.133902 568.270422zM599.334878 568.270422L600.014077 566.435949 603.98771 566.435949 604.666909 568.270422 606.323648 568.270422 602.584878 559.009192 601.486734 559.009192 597.747964 568.270422 599.334878 568.270422zM603.537027 565.217199L600.464761 565.217199 601.905679 561.326086 602.102456 561.326086 603.537027 565.217199zM610.399136 568.270422L610.399136 562.519445 610.545132 562.519445 613.141323 568.270422 614.061734 568.270422 616.657925 562.519445 616.803921 562.519445 616.803921 568.270422 618.213101 568.270422 618.213101 559.04093 616.886441 559.04093 613.69357 566.074133 613.560269 566.074133 610.348355 559.04093 608.983609 559.04093 608.983609 568.270422 610.399136 568.270422zM628.033218 568.270422L628.033218 567.013586 623.367691 567.013586 623.367691 564.163488 626.192398 564.163488 626.192398 562.919348 623.367691 562.919348 623.367691 560.297766 627.868179 560.297766 627.868179 559.04093 621.901382 559.04093 621.901382 568.270422 628.033218 568.270422zM638.691519 568.448156C640.868765 568.448156 642.07482 567.254797 642.07482 565.674231 642.07482 564.34757 641.440054 563.566809 639.783316 563.02091L638.488394 562.595617C637.504507 562.271887 637.19982 561.922766 637.19982 561.313391 637.19982 560.634192 637.726675 560.088293 638.862905 560.088293 639.719839 560.088293 640.253042 560.443762 640.66564 561.034094L641.795523 560.335852C641.186148 559.44718 640.322866 558.863195 638.875601 558.863195 636.983999 558.863195 635.822378 559.929602 635.822378 561.357824 635.822378 562.633703 636.507925 563.408117 637.834585 563.839758L639.167593 564.277746C640.329214 564.658606 640.659292 565.115637 640.659292 565.794836 640.659292 566.613684 639.986441 567.210363 638.691519 567.210363 637.587027 567.210363 636.952261 566.78507 636.444448 565.94718L635.295523 566.632727C635.955679 567.800695 636.939566 568.448156 638.691519 568.448156zM645.553628 568.270422L646.232827 566.435949 650.20646 566.435949 650.885659 568.270422 652.542398 568.270422 648.803628 559.009192 647.705484 559.009192 643.966714 568.270422 645.553628 568.270422zM649.755777 565.217199L646.683511 565.217199 648.124429 561.326086 648.321206 561.326086 649.755777 565.217199zM656.66232 568.270422L656.66232 561.986242 656.801968 561.986242 661.556362 568.270422 662.616421 568.270422 662.616421 559.04093 661.15646 559.04093 661.15646 565.331457 661.029507 565.331457 656.268765 559.04093 655.202359 559.04093 655.202359 568.270422 656.66232 568.270422zM668.704116 568.448156C670.881362 568.448156 672.087417 567.254797 672.087417 565.674231 672.087417 564.34757 671.452652 563.566809 669.795913 563.02091L668.500991 562.595617C667.517105 562.271887 667.212417 561.922766 667.212417 561.313391 667.212417 560.634192 667.739273 560.088293 668.875503 560.088293 669.732437 560.088293 670.26564 560.443762 670.678237 561.034094L671.80812 560.335852C671.198745 559.44718 670.335464 558.863195 668.888198 558.863195 666.996597 558.863195 665.834976 559.929602 665.834976 561.357824 665.834976 562.633703 666.520523 563.408117 667.847183 563.839758L669.180191 564.277746C670.341812 564.658606 670.67189 565.115637 670.67189 565.794836 670.67189 566.613684 669.999038 567.210363 668.704116 567.210363 667.599624 567.210363 666.964859 566.78507 666.457046 565.94718L665.30812 566.632727C665.968277 567.800695 666.952163 568.448156 668.704116 568.448156zM683.900991 568.270422L683.900991 560.323156 686.751089 560.323156 686.751089 559.04093 679.552847 559.04093 679.552847 560.323156 682.421987 560.323156 682.421987 568.270422 683.900991 568.270422zM695.898355 568.270422L695.898355 567.013586 691.232827 567.013586 691.232827 564.163488 694.057534 564.163488 694.057534 562.919348 691.232827 562.919348 691.232827 560.297766 695.733316 560.297766 695.733316 559.04093 689.766519 559.04093 689.766519 568.270422 695.898355 568.270422zM699.859585 568.270422L702.043179 564.626867 702.239956 564.626867 704.626675 568.270422 706.340542 568.270422 703.173062 563.496985 706.137417 559.04093 704.455288 559.04093 702.493862 562.411535 702.303433 562.411535 700.119839 559.04093 698.386929 559.04093 701.351284 563.496985 698.145718 568.270422 699.859585 568.270422zM712.796402 568.270422L712.796402 560.323156 715.646499 560.323156 715.646499 559.04093 708.448257 559.04093 708.448257 560.323156 711.317398 560.323156 711.317398 568.270422 712.796402 568.270422zM727.644155 568.270422L731.363882 559.04093 729.700796 559.04093 727.231558 565.915442 726.996695 565.915442 724.565542 559.04093 722.832632 559.04093 726.558706 568.270422 727.644155 568.270422zM736.93107 568.454504C739.07023 568.454504 740.352456 566.835852 740.352456 563.668371 740.352456 560.500891 739.07023 558.856848 736.93107 558.856848 734.779214 558.856848 733.535073 560.500891 733.535073 563.668371 733.535073 566.835852 734.779214 568.454504 736.93107 568.454504zM736.93107 567.089758C735.661538 567.089758 735.014077 565.921789 735.014077 563.668371 735.014077 561.414953 735.661538 560.221594 736.93107 560.221594 738.194253 560.221594 738.873452 561.414953 738.873452 563.668371 738.873452 565.921789 738.194253 567.089758 736.93107 567.089758zM744.821499 568.270422L744.821499 566.397863 742.885464 566.397863 742.885464 568.270422 744.821499 568.270422zM750.737808 568.448156C752.97853 568.448156 754.286148 567.045324 754.286148 565.141027 754.286148 563.465246 753.289566 562.132238 751.429702 562.132238 750.534683 562.132238 749.868179 562.449621 749.385757 562.944738L749.252456 562.919348 749.601577 560.297766 753.619644 560.297766 753.810073 559.04093 748.420913 559.04093 747.836929 563.776281 748.795425 564.150793C749.328628 563.560461 749.988784 563.179602 750.858413 563.179602 752.134292 563.179602 752.838882 563.985754 752.838882 565.128332 752.838882 566.277258 752.108902 567.140539 750.782241 567.140539 749.779312 567.140539 749.169937 566.683508 748.719253 565.86466L747.48146 566.600988C748.18605 567.845129 749.08107 568.448156 750.737808 568.448156zM593.805777 598.270422L593.805777 597.013586 589.140249 597.013586 589.140249 594.163488 591.964956 594.163488 591.964956 592.919348 589.140249 592.919348 589.140249 590.297766 593.640737 590.297766 593.640737 589.04093 587.673941 589.04093 587.673941 598.270422 593.805777 598.270422zM597.767007 598.270422L599.950601 594.626867 600.147378 594.626867 602.534097 598.270422 604.247964 598.270422 601.080484 593.496985 604.044839 589.04093 602.36271 589.04093 600.401284 592.411535 600.210855 592.411535 598.027261 589.04093 596.294351 589.04093 599.258706 593.496985 596.05314 598.270422 597.767007 598.270422zM608.507534 598.270422L608.507534 594.950598 610.27853 594.950598C612.297085 594.950598 613.477749 593.814367 613.477749 591.986242 613.477749 590.215246 612.297085 589.04093 610.265835 589.04093L607.034878 589.04093 607.034878 598.270422 608.507534 598.270422zM610.196011 593.681067L608.507534 593.681067 608.507534 590.304113 610.196011 590.304113C611.38937 590.304113 612.005093 591.021399 612.005093 591.998938 612.005093 593.014563 611.383023 593.681067 610.196011 593.681067zM616.023452 598.270422L616.702652 596.435949 620.676284 596.435949 621.355484 598.270422 623.012222 598.270422 619.273452 589.009192 618.175308 589.009192 614.436538 598.270422 616.023452 598.270422zM620.225601 595.217199L617.153335 595.217199 618.594253 591.326086 618.79103 591.326086 620.225601 595.217199zM627.132144 598.270422L627.132144 591.986242 627.271792 591.986242 632.026187 598.270422 633.086245 598.270422 633.086245 589.04093 631.626284 589.04093 631.626284 595.331457 631.499331 595.331457 626.738589 589.04093 625.672183 589.04093 625.672183 598.270422 627.132144 598.270422zM639.173941 598.448156C641.351187 598.448156 642.557241 597.254797 642.557241 595.674231 642.557241 594.34757 641.922476 593.566809 640.265737 593.02091L638.970816 592.595617C637.986929 592.271887 637.682241 591.922766 637.682241 591.313391 637.682241 590.634192 638.209097 590.088293 639.345327 590.088293 640.202261 590.088293 640.735464 590.443762 641.148062 591.034094L642.277945 590.335852C641.66857 589.44718 640.805288 588.863195 639.358023 588.863195 637.466421 588.863195 636.3048 589.929602 636.3048 591.357824 636.3048 592.633703 636.990347 593.408117 638.317007 593.839758L639.650015 594.277746C640.811636 594.658606 641.141714 595.115637 641.141714 595.794836 641.141714 596.613684 640.468862 597.210363 639.173941 597.210363 638.069448 597.210363 637.434683 596.78507 636.92687 595.94718L635.777945 596.632727C636.438101 597.800695 637.421987 598.448156 639.173941 598.448156zM647.140542 598.270422L647.140542 589.04093 645.674234 589.04093 645.674234 598.270422 647.140542 598.270422zM654.76437 598.448156C657.455777 598.448156 659.252163 596.56925 659.252163 593.668371 659.252163 590.767492 657.455777 588.863195 654.76437 588.863195 652.072964 588.863195 650.314663 590.767492 650.314663 593.668371 650.314663 596.56925 652.079312 598.448156 654.76437 598.448156zM654.76437 597.096106C652.879116 597.096106 651.800015 595.782141 651.800015 593.668371 651.800015 591.560949 652.872769 590.215246 654.76437 590.215246 656.655972 590.215246 657.766812 591.560949 657.766812 593.668371 657.766812 595.782141 656.649624 597.096106 654.76437 597.096106zM663.816421 598.270422L663.816421 591.986242 663.95607 591.986242 668.710464 598.270422 669.770523 598.270422 669.770523 589.04093 668.310562 589.04093 668.310562 595.331457 668.183609 595.331457 663.422866 589.04093 662.35646 589.04093 662.35646 598.270422 663.816421 598.270422zM679.97814 598.270422L679.97814 592.519445 680.124136 592.519445 682.720327 598.270422 683.640737 598.270422 686.236929 592.519445 686.382925 592.519445 686.382925 598.270422 687.792105 598.270422 687.792105 589.04093 686.465445 589.04093 683.272573 596.074133 683.139273 596.074133 679.927359 589.04093 678.562612 589.04093 678.562612 598.270422 679.97814 598.270422zM695.346109 598.448156C698.037515 598.448156 699.833902 596.56925 699.833902 593.668371 699.833902 590.767492 698.037515 588.863195 695.346109 588.863195 692.654702 588.863195 690.896402 590.767492 690.896402 593.668371 690.896402 596.56925 692.66105 598.448156 695.346109 598.448156zM695.346109 597.096106C693.460855 597.096106 692.381753 595.782141 692.381753 593.668371 692.381753 591.560949 693.454507 590.215246 695.346109 590.215246 697.23771 590.215246 698.34855 591.560949 698.34855 593.668371 698.34855 595.782141 697.231362 597.096106 695.346109 597.096106zM705.845425 598.270422C708.682827 598.270422 710.453823 596.556555 710.453823 593.668371 710.453823 590.780188 708.682827 589.04093 705.83273 589.04093L702.938198 589.04093 702.938198 598.270422 705.845425 598.270422zM705.851773 596.905676L704.404507 596.905676 704.404507 590.405676 705.851773 590.405676C707.838589 590.405676 708.968472 591.535559 708.968472 593.662024 708.968472 595.788488 707.838589 596.905676 705.851773 596.905676zM719.689956 598.270422L719.689956 597.013586 715.024429 597.013586 715.024429 594.163488 717.849136 594.163488 717.849136 592.919348 715.024429 592.919348 715.024429 590.297766 719.524917 590.297766 719.524917 589.04093 713.55812 589.04093 713.55812 598.270422 719.689956 598.270422zM728.557925 598.270422L728.557925 596.956457 724.311343 596.956457 724.311343 589.04093 722.845034 589.04093 722.845034 598.270422 728.557925 598.270422z"/>
  </g>
</svg>
