<svg xmlns="http://www.w3.org/2000/svg" xmlns:xlink="http://www.w3.org/1999/xlink" width="1891" height="400" viewBox="0 0 1891 400">
  <defs>
    <rect id="name_sans-extra-a" width="59.5" height="63"/>
    <rect id="name_sans-extra-c" width="54.042" height="63"/>
    <rect id="name_sans-extra-e" width="191.588" height="62"/>
  </defs>
  <g fill="none" fill-rule="evenodd">
    <rect width="1891" height="400" fill="#222"/>
    <g fill-rule="nonzero" transform="translate(61.498 64.15)">
      <path fill="#FFF" d="M159.899953,217.895531 L166.493766,174.286453 L65.0389687,174.286453 L65.0389687,172.787859 L162.447562,28.773 L162.447562,0 L4.49578125,0 L4.49578125,43.6090781 L97.5584531,43.6090781 L97.5584531,45.4073906 L0,189.122531 L0,217.895531 L159.899953,217.895531 Z M229.884281,43.4592187 L229.884281,0 L182.528719,0 L182.528719,43.4592187 L229.884281,43.4592187 Z M228.535547,217.895531 L228.535547,64.4395312 L183.877453,64.4395312 L183.877453,217.895531 L228.535547,217.895531 Z M342.428672,217.895531 L342.428672,176.684203 L324.145828,176.684203 C315.004406,176.684203 311.407781,172.338281 311.407781,163.047 L311.407781,106.400156 L342.428672,106.400156 L342.428672,64.4395312 L311.407781,64.4395312 L311.407781,22.6287656 L266.899547,30.8710312 L266.899547,64.4395312 L245.619516,64.4395312 L245.619516,106.400156 L266.899547,106.400156 L266.899547,166.493766 C266.899547,202.160297 284.133375,217.895531 316.952578,217.895531 L342.428672,217.895531 Z M409.116094,43.4592187 L409.116094,0 L361.760531,0 L361.760531,43.4592187 L409.116094,43.4592187 Z M407.767359,217.895531 L407.767359,64.4395312 L363.109266,64.4395312 L363.109266,217.895531 L407.767359,217.895531 Z M604.982297,220.892719 C644.545172,220.892719 671.969437,200.811562 671.969437,157.801922 L671.969437,0 L624.164297,0 L624.164297,149.559656 C624.164297,170.689828 616.371609,177.583359 596.889891,177.583359 L576.209297,177.583359 C556.427859,177.583359 549.234609,171.289266 549.234609,149.559656 L549.234609,0 L501.279609,0 L501.279609,157.951781 C501.279609,200.062266 524.807531,220.892719 567.817172,220.892719 L604.982297,220.892719 Z M739.406156,217.895531 L739.406156,124.982719 C739.406156,106.699875 749.147016,98.30775 763.383656,98.30775 C777.920016,98.30775 787.361156,106.699875 787.361156,124.982719 L787.361156,217.895531 L832.169109,217.895531 L832.169109,124.982719 C832.169109,106.699875 841.310531,98.30775 855.697031,98.30775 C870.083531,98.30775 879.674531,106.699875 879.674531,124.982719 L879.674531,217.895531 L924.332625,217.895531 L924.332625,122.584969 C924.332625,83.1719531 904.101609,60.2434687 867.086344,60.2434687 C845.656453,60.2434687 830.520656,68.9353125 822.128531,83.92125 L821.379234,83.92125 C812.537531,67.8862969 796.352719,60.2434687 776.571281,60.2434687 C757.089562,60.2434687 742.403344,66.9871406 733.411781,81.9730781 L732.362766,81.9730781 L730.114875,64.4395312 L694.748062,64.4395312 L694.748062,217.895531 L739.406156,217.895531 Z M991.169906,217.895531 L991.169906,136.521891 C991.169906,115.092 1001.36034,106.400156 1019.94291,106.400156 L1033.28039,106.400156 L1033.28039,64.4395312 L1020.6922,64.4395312 C1004.80711,64.4395312 992.818359,71.6327812 986.224547,90.0654844 L985.47525,90.0654844 L982.028484,64.4395312 L946.511812,64.4395312 L946.511812,217.895531 L991.169906,217.895531 Z M1121.24784,222.99075 C1149.57127,222.99075 1172.20003,212.051016 1186.13695,192.419437 L1154.21691,168.741656 C1147.32337,179.231812 1136.5335,185.226187 1121.24784,185.226187 C1102.51542,185.226187 1089.92723,174.436312 1086.78019,156.003609 L1196.62711,156.003609 C1202.32177,98.1578906 1172.05017,59.1944531 1120.19883,59.1944531 C1072.69341,59.1944531 1040.92322,93.3623906 1040.92322,141.46725 C1040.92322,189.572109 1072.69341,222.99075 1121.24784,222.99075 Z M1152.71831,124.683 L1087.22977,124.683 C1090.67653,106.999594 1102.06584,97.108875 1120.19883,97.108875 C1138.93125,97.108875 1150.32056,107.299312 1152.71831,124.683 Z M1261.66608,43.4592187 L1261.66608,0 L1214.31052,0 L1214.31052,43.4592187 L1261.66608,43.4592187 Z M1260.31734,217.895531 L1260.31734,64.4395312 L1215.65925,64.4395312 L1215.65925,217.895531 L1260.31734,217.895531 Z M1357.57608,271.245469 C1405.68094,271.245469 1432.65562,244.420641 1432.65562,202.160297 C1432.65562,170.839687 1418.11927,149.259937 1389.79584,142.516266 L1389.79584,141.617109 L1427.71027,90.5150625 L1427.71027,64.4395312 L1328.05378,64.4395312 L1328.05378,45.4073906 C1328.05378,40.3121719 1330.45153,37.7645625 1335.09717,37.7645625 L1349.93325,37.7645625 L1349.93325,0 L1327.6042,0 C1300.62952,0 1283.39569,16.0349531 1283.39569,44.6580937 L1283.39569,217.895531 L1328.05378,217.895531 L1328.05378,104.152266 L1372.86173,104.152266 L1372.86173,105.351141 L1343.63916,142.965844 L1343.63916,169.191234 L1356.3772,169.191234 C1379.90512,169.191234 1389.19641,181.779422 1389.19641,201.411 C1389.19641,219.843703 1379.90512,232.132172 1356.3772,232.132172 L1343.63916,232.132172 L1343.63916,271.245469 L1357.57608,271.245469 Z M1524.06984,222.99075 C1552.39327,222.99075 1575.02203,212.051016 1588.95895,192.419437 L1557.03891,168.741656 C1550.14537,179.231812 1539.3555,185.226187 1524.06984,185.226187 C1505.33742,185.226187 1492.74923,174.436312 1489.60219,156.003609 L1599.44911,156.003609 C1605.14377,98.1578906 1574.87217,59.1944531 1523.02083,59.1944531 C1475.51541,59.1944531 1443.74522,93.3623906 1443.74522,141.46725 C1443.74522,189.572109 1475.51541,222.99075 1524.06984,222.99075 Z M1555.54031,124.683 L1490.05177,124.683 C1493.49853,106.999594 1504.88784,97.108875 1523.02083,97.108875 C1541.75325,97.108875 1553.14256,107.299312 1555.54031,124.683 Z M1662.83962,217.895531 L1662.83962,128.729203 C1662.83962,107.599031 1673.17992,98.30775 1689.66445,98.30775 C1706.29884,98.30775 1716.63914,107.599031 1716.63914,128.729203 L1716.63914,217.895531 L1761.29723,217.895531 L1761.29723,126.930891 C1761.29723,84.5206875 1739.71748,60.2434687 1702.70222,60.2434687 C1681.12247,60.2434687 1666.13653,69.2350312 1657.74441,82.8722344 L1656.69539,82.8722344 L1654.14778,64.4395312 L1618.18153,64.4395312 L1618.18153,217.895531 L1662.83962,217.895531 Z"/>
      <path fill="#FFA600" d="M9.63621406,276.005953 L9.63621406,269.721774 L9.7758625,269.721774 L14.530257,276.005953 L15.5903156,276.005953 L15.5903156,266.776461 L14.1303547,266.776461 L14.1303547,273.066988 L14.0034016,273.066988 L9.24265938,266.776461 L8.17625313,266.776461 L8.17625313,276.005953 L9.63621406,276.005953 Z M19.8371907,276.005953 L20.5163899,274.171481 L24.4900227,274.171481 L25.1692219,276.005953 L26.8259602,276.005953 L23.0871907,266.744723 L21.9890461,266.744723 L18.2502766,276.005953 L19.8371907,276.005953 Z M24.0393391,272.952731 L20.9670735,272.952731 L22.4079915,269.061617 L22.6047688,269.061617 L24.0393391,272.952731 Z M30.9014485,276.005953 L30.9014485,270.254977 L31.0474446,270.254977 L33.643636,276.005953 L34.5640462,276.005953 L37.1602376,270.254977 L37.3062337,270.254977 L37.3062337,276.005953 L38.7154134,276.005953 L38.7154134,266.776461 L37.3887532,266.776461 L34.1958821,273.809664 L34.0625813,273.809664 L30.8506673,266.776461 L29.4859212,266.776461 L29.4859212,276.005953 L30.9014485,276.005953 Z M48.5355306,276.005953 L48.5355306,274.749117 L43.8700033,274.749117 L43.8700033,271.89902 L46.6947103,271.89902 L46.6947103,270.654879 L43.8700033,270.654879 L43.8700033,268.033297 L48.3704915,268.033297 L48.3704915,266.776461 L42.4036947,266.776461 L42.4036947,276.005953 L48.5355306,276.005953 Z M59.1938315,276.183688 C61.3710776,276.183688 62.5771323,274.990328 62.5771323,273.409762 C62.5771323,272.083102 61.9423666,271.30234 60.2856284,270.756442 L58.9907065,270.331149 C58.0068198,270.007418 57.7021323,269.658297 57.7021323,269.048922 C57.7021323,268.369723 58.2289877,267.823824 59.3652182,267.823824 C60.2221518,267.823824 60.7553549,268.179293 61.1679526,268.769625 L62.2978354,268.071383 C61.6884604,267.182711 60.8251791,266.598727 59.3779135,266.598727 C57.486312,266.598727 56.3246909,267.665133 56.3246909,269.093356 C56.3246909,270.369235 57.0102377,271.143649 58.3368979,271.575289 L59.6699057,272.013277 C60.8315268,272.394137 61.1616049,272.851168 61.1616049,273.530367 C61.1616049,274.349215 60.4887534,274.945895 59.1938315,274.945895 C58.0893393,274.945895 57.4545737,274.520602 56.9467612,273.682711 L55.7978354,274.368258 C56.4579916,275.536227 57.4418784,276.183688 59.1938315,276.183688 Z M66.0559409,276.005953 L66.7351401,274.171481 L70.7087729,274.171481 L71.3879722,276.005953 L73.0447104,276.005953 L69.3059409,266.744723 L68.2077964,266.744723 L64.4690268,276.005953 L66.0559409,276.005953 Z M70.2580893,272.952731 L67.1858237,272.952731 L68.6267417,269.061617 L68.823519,269.061617 L70.2580893,272.952731 Z M77.1646324,276.005953 L77.1646324,269.721774 L77.3042808,269.721774 L82.0586753,276.005953 L83.1187339,276.005953 L83.1187339,266.776461 L81.658773,266.776461 L81.658773,273.066988 L81.5318199,273.066988 L76.7710777,266.776461 L75.7046714,266.776461 L75.7046714,276.005953 L77.1646324,276.005953 Z M89.2064293,276.183688 C91.3836754,276.183688 92.5897301,274.990328 92.5897301,273.409762 C92.5897301,272.083102 91.9549644,271.30234 90.2982262,270.756442 L89.0033043,270.331149 C88.0194176,270.007418 87.7147301,269.658297 87.7147301,269.048922 C87.7147301,268.369723 88.2415855,267.823824 89.377816,267.823824 C90.2347496,267.823824 90.7679527,268.179293 91.1805504,268.769625 L92.3104332,268.071383 C91.7010582,267.182711 90.8377769,266.598727 89.3905113,266.598727 C87.4989098,266.598727 86.3372887,267.665133 86.3372887,269.093356 C86.3372887,270.369235 87.0228355,271.143649 88.3494957,271.575289 L89.6825035,272.013277 C90.8441246,272.394137 91.1742027,272.851168 91.1742027,273.530367 C91.1742027,274.349215 90.5013512,274.945895 89.2064293,274.945895 C88.1019371,274.945895 87.4671715,274.520602 86.959359,273.682711 L85.8104332,274.368258 C86.4705894,275.536227 87.4544762,276.183688 89.2064293,276.183688 Z M103.641586,276.005953 C106.478988,276.005953 108.249984,274.292086 108.249984,271.403902 C108.249984,268.515719 106.478988,266.776461 103.62889,266.776461 L100.734359,266.776461 L100.734359,276.005953 L103.641586,276.005953 Z M103.647933,274.641207 L102.200668,274.641207 L102.200668,268.141207 L103.647933,268.141207 C105.63475,268.141207 106.764633,269.27109 106.764633,271.397555 C106.764633,273.52402 105.63475,274.641207 103.647933,274.641207 Z M112.896761,276.005953 L112.896761,266.776461 L111.430453,266.776461 L111.430453,276.005953 L112.896761,276.005953 Z M119.054281,276.183688 C121.231527,276.183688 122.437582,274.990328 122.437582,273.409762 C122.437582,272.083102 121.802816,271.30234 120.146078,270.756442 L118.851156,270.331149 C117.867269,270.007418 117.562582,269.658297 117.562582,269.048922 C117.562582,268.369723 118.089437,267.823824 119.225668,267.823824 C120.082601,267.823824 120.615804,268.179293 121.028402,268.769625 L122.158285,268.071383 C121.54891,267.182711 120.685629,266.598727 119.238363,266.598727 C117.346762,266.598727 116.18514,267.665133 116.18514,269.093356 C116.18514,270.369235 116.870687,271.143649 118.197347,271.575289 L119.530355,272.013277 C120.691976,272.394137 121.022054,272.851168 121.022054,273.530367 C121.022054,274.349215 120.349203,274.945895 119.054281,274.945895 C117.949789,274.945895 117.315023,274.520602 116.807211,273.682711 L115.658285,274.368258 C116.318441,275.536227 117.302328,276.183688 119.054281,276.183688 Z M126.951058,276.005953 L126.951058,272.686129 L128.722055,272.686129 C130.740609,272.686129 131.921273,271.549899 131.921273,269.721774 C131.921273,267.950777 130.740609,266.776461 128.709359,266.776461 L125.478402,266.776461 L125.478402,276.005953 L126.951058,276.005953 Z M128.639535,271.416598 L126.951058,271.416598 L126.951058,268.039645 L128.639535,268.039645 C129.832894,268.039645 130.448617,268.75693 130.448617,269.734469 C130.448617,270.750094 129.826547,271.416598 128.639535,271.416598 Z M140.700375,276.005953 L140.700375,274.691988 L136.453793,274.691988 L136.453793,266.776461 L134.987484,266.776461 L134.987484,276.005953 L140.700375,276.005953 Z M144.299789,276.005953 L144.978988,274.171481 L148.952621,274.171481 L149.63182,276.005953 L151.288559,276.005953 L147.549789,266.744723 L146.451644,266.744723 L142.712875,276.005953 L144.299789,276.005953 Z M148.501937,272.952731 L145.429672,272.952731 L146.87059,269.061617 L147.067367,269.061617 L148.501937,272.952731 Z M156.49393,276.005953 L156.49393,272.191012 L160.048617,266.776461 L158.379184,266.776461 L155.878207,270.953219 L155.668734,270.953219 L153.256625,266.776461 L151.504672,266.776461 L155.014926,272.191012 L155.014926,276.005953 L156.49393,276.005953 Z M171.474984,276.005953 C173.404672,276.005953 174.578988,275.085543 174.578988,273.390719 C174.578988,272.279879 173.969613,271.524508 172.757211,271.264254 L172.757211,271.099215 C173.696664,270.832613 174.306039,270.204195 174.306039,269.156832 C174.306039,267.709567 173.233285,266.776461 171.170297,266.776461 L167.844125,266.776461 L167.844125,276.005953 L171.474984,276.005953 Z M171.157602,270.718356 L169.316781,270.718356 L169.316781,268.033297 L171.151254,268.033297 C172.32557,268.033297 172.839731,268.515719 172.839731,269.328219 C172.839731,270.242281 172.350961,270.718356 171.157602,270.718356 Z M171.37977,274.749117 L169.316781,274.749117 L169.316781,271.854586 L171.373422,271.854586 C172.579477,271.854586 173.11268,272.298922 173.11268,273.295504 C173.11268,274.323824 172.439828,274.749117 171.37977,274.749117 Z M181.644223,276.183688 C184.335629,276.183688 186.132016,274.304781 186.132016,271.403902 C186.132016,268.503024 184.335629,266.598727 181.644223,266.598727 C178.952817,266.598727 177.194516,268.503024 177.194516,271.403902 C177.194516,274.304781 178.959164,276.183688 181.644223,276.183688 Z M181.644223,274.831637 C179.758969,274.831637 178.679867,273.517672 178.679867,271.403902 C178.679867,269.296481 179.752621,267.950777 181.644223,267.950777 C183.535824,267.950777 184.646664,269.296481 184.646664,271.403902 C184.646664,273.517672 183.529477,274.831637 181.644223,274.831637 Z M194.949203,276.005953 L194.949203,274.691988 L190.702621,274.691988 L190.702621,266.776461 L189.236313,266.776461 L189.236313,276.005953 L194.949203,276.005953 Z M200.935336,276.005953 C203.772739,276.005953 205.543735,274.292086 205.543735,271.403902 C205.543735,268.515719 203.772739,266.776461 200.922641,266.776461 L198.02811,266.776461 L198.02811,276.005953 L200.935336,276.005953 Z M200.941684,274.641207 L199.494418,274.641207 L199.494418,268.141207 L200.941684,268.141207 C202.9285,268.141207 204.058383,269.27109 204.058383,271.397555 C204.058383,273.52402 202.9285,274.641207 200.941684,274.641207 Z M208.959067,278.221285 L209.854086,276.209078 L209.854086,274.133395 L207.918051,274.133395 L207.918051,276.005953 L208.806723,276.005953 L208.819418,276.056735 L207.860922,278.221285 L208.959067,278.221285 Z M220.798032,276.183688 C222.975278,276.183688 224.181332,274.990328 224.181332,273.409762 C224.181332,272.083102 223.546567,271.30234 221.889828,270.756442 L220.594907,270.331149 C219.61102,270.007418 219.306332,269.658297 219.306332,269.048922 C219.306332,268.369723 219.833188,267.823824 220.969418,267.823824 C221.826352,267.823824 222.359555,268.179293 222.772153,268.769625 L223.902036,268.071383 C223.292661,267.182711 222.429379,266.598727 220.982114,266.598727 C219.090512,266.598727 217.928891,267.665133 217.928891,269.093356 C217.928891,270.369235 218.614438,271.143649 219.941098,271.575289 L221.274106,272.013277 C222.435727,272.394137 222.765805,272.851168 222.765805,273.530367 C222.765805,274.349215 222.092953,274.945895 220.798032,274.945895 C219.693539,274.945895 219.058774,274.520602 218.550961,273.682711 L217.402036,274.368258 C218.062192,275.536227 219.046078,276.183688 220.798032,276.183688 Z M229.621567,276.183688 C231.798813,276.183688 233.004868,274.990328 233.004868,273.409762 C233.004868,272.083102 232.370102,271.30234 230.713364,270.756442 L229.418442,270.331149 C228.434555,270.007418 228.129868,269.658297 228.129868,269.048922 C228.129868,268.369723 228.656723,267.823824 229.792954,267.823824 C230.649887,267.823824 231.18309,268.179293 231.595688,268.769625 L232.725571,268.071383 C232.116196,267.182711 231.252914,266.598727 229.805649,266.598727 C227.914047,266.598727 226.752426,267.665133 226.752426,269.093356 C226.752426,270.369235 227.437973,271.143649 228.764633,271.575289 L230.097641,272.013277 C231.259262,272.394137 231.58934,272.851168 231.58934,273.530367 C231.58934,274.349215 230.916489,274.945895 229.621567,274.945895 C228.517075,274.945895 227.882309,274.520602 227.374497,273.682711 L226.225571,274.368258 C226.885727,275.536227 227.869614,276.183688 229.621567,276.183688 Z M238.851352,276.190035 C240.990512,276.190035 242.272739,274.571383 242.272739,271.403902 C242.272739,268.236422 240.990512,266.592379 238.851352,266.592379 C236.699497,266.592379 235.455356,268.236422 235.455356,271.403902 C235.455356,274.571383 236.699497,276.190035 238.851352,276.190035 Z M238.851352,274.825289 C237.581821,274.825289 236.93436,273.65732 236.93436,271.403902 C236.93436,269.150485 237.581821,267.957125 238.851352,267.957125 C240.114536,267.957125 240.793735,269.150485 240.793735,271.403902 C240.793735,273.65732 240.114536,274.825289 238.851352,274.825289 Z M248.436606,276.005953 L248.436606,266.712985 L247.465415,266.712985 C247.097251,268.35068 246.47518,268.706149 244.735922,268.750582 L244.735922,269.797945 L247.008383,269.797945 L247.008383,276.005953 L248.436606,276.005953 Z M259.285337,276.183716 C260.459653,276.17734 261.227719,275.701266 261.760922,274.761813 L261.906919,274.761813 L262.116391,274.990328 C262.782895,275.701266 263.36688,276.09482 264.382505,276.151949 L264.820493,274.939547 C263.976255,274.812594 263.627133,274.641207 262.992368,273.95566 L262.890805,273.84775 C263.493833,273.022555 263.995297,272.19736 264.439633,271.270602 L263.239926,270.642184 C263.005063,271.51816 262.719419,272.273531 262.325864,273.060641 L262.160825,273.060641 L260.453305,271.213473 L260.453305,271.067477 C261.716489,270.686617 262.47186,269.931246 262.47186,268.75693 C262.47186,267.53818 261.55145,266.624117 260.091489,266.624117 C258.644223,266.624117 257.628598,267.550875 257.628598,268.97275 C257.628598,269.709078 257.8952,270.400973 258.447446,271.042086 L258.447446,271.169039 C257.114438,271.575289 256.511411,272.457613 256.511411,273.638277 C256.511411,275.136324 257.539731,276.190035 259.285337,276.183716 Z M259.767758,270.477145 C259.164731,269.816988 258.980649,269.417086 258.980649,268.921969 C258.980649,268.249117 259.386899,267.773043 260.110532,267.773043 C260.783383,267.773043 261.202329,268.191988 261.202329,268.826754 C261.202329,269.512301 260.859555,270.013766 259.767758,270.477145 Z M259.399594,274.933199 C258.466489,274.933199 257.869809,274.342867 257.869809,273.473238 C257.869809,272.762301 258.180844,272.203707 259.132993,271.778414 L261.234067,274.03818 C260.681821,274.704684 260.11688,274.933199 259.399594,274.933199 Z M275.040805,276.183688 C277.218051,276.183688 278.424106,274.990328 278.424106,273.409762 C278.424106,272.083102 277.789341,271.30234 276.132602,270.756442 L274.83768,270.331149 C273.853794,270.007418 273.549106,269.658297 273.549106,269.048922 C273.549106,268.369723 274.075962,267.823824 275.212192,267.823824 C276.069126,267.823824 276.602329,268.179293 277.014926,268.769625 L278.144809,268.071383 C277.535434,267.182711 276.672153,266.598727 275.224887,266.598727 C273.333286,266.598727 272.171665,267.665133 272.171665,269.093356 C272.171665,270.369235 272.857212,271.143649 274.183872,271.575289 L275.51688,272.013277 C276.678501,272.394137 277.008579,272.851168 277.008579,273.530367 C277.008579,274.349215 276.335727,274.945895 275.040805,274.945895 C273.936313,274.945895 273.301548,274.520602 272.793735,273.682711 L271.644809,274.368258 C272.304966,275.536227 273.288852,276.183688 275.040805,276.183688 Z M283.864341,276.183688 C286.041587,276.183688 287.247641,274.990328 287.247641,273.409762 C287.247641,272.083102 286.612876,271.30234 284.956137,270.756442 L283.661216,270.331149 C282.677329,270.007418 282.372641,269.658297 282.372641,269.048922 C282.372641,268.369723 282.899497,267.823824 284.035727,267.823824 C284.892661,267.823824 285.425864,268.179293 285.838462,268.769625 L286.968344,268.071383 C286.358969,267.182711 285.495688,266.598727 284.048423,266.598727 C282.156821,266.598727 280.9952,267.665133 280.9952,269.093356 C280.9952,270.369235 281.680747,271.143649 283.007407,271.575289 L284.340415,272.013277 C285.502036,272.394137 285.832114,272.851168 285.832114,273.530367 C285.832114,274.349215 285.159262,274.945895 283.864341,274.945895 C282.759848,274.945895 282.125083,274.520602 281.61727,273.682711 L280.468344,274.368258 C281.128501,275.536227 282.112387,276.183688 283.864341,276.183688 Z M293.35438,276.005953 L293.35438,266.712985 L292.383188,266.712985 C292.015024,268.35068 291.392954,268.706149 289.653696,268.750582 L289.653696,269.797945 L291.926157,269.797945 L291.926157,276.005953 L293.35438,276.005953 Z M299.702329,276.190035 C301.841489,276.190035 303.123716,274.571383 303.123716,271.403902 C303.123716,268.236422 301.841489,266.592379 299.702329,266.592379 C297.550473,266.592379 296.306333,268.236422 296.306333,271.403902 C296.306333,274.571383 297.550473,276.190035 299.702329,276.190035 Z M299.702329,274.825289 C298.432798,274.825289 297.785337,273.65732 297.785337,271.403902 C297.785337,269.150485 298.432798,267.957125 299.702329,267.957125 C300.965513,267.957125 301.644712,269.150485 301.644712,271.403902 C301.644712,273.65732 300.965513,274.825289 299.702329,274.825289 Z"/>
    </g>
    <g transform="translate(183.794 229)">
      <mask id="name_sans-extra-b" fill="#fff">
        <use xlink:href="#name_sans-extra-a"/>
      </mask>
      <polygon fill="#FFA600" fill-opacity=".15" stroke="#FFA600" stroke-width="2" points="-2.794 3.259 51.206 3.259 43.206 59.741 -2.794 59.741" mask="url(#name_sans-extra-b)"/>
    </g>
    <g transform="matrix(0 -1 -1 0 382.179 124.547)">
      <mask id="name_sans-extra-d" fill="#fff">
        <use xlink:href="#name_sans-extra-c"/>
      </mask>
      <polygon fill="#FFA600" fill-opacity=".15" stroke="#FFA600" stroke-width="2" points="-2.538 3.259 45.509 3.259 34.243 59.741 -2.538 59.741" mask="url(#name_sans-extra-d)"/>
    </g>
    <g transform="translate(551.706 232)">
      <mask id="name_sans-extra-f" fill="#fff">
        <use xlink:href="#name_sans-extra-e"/>
      </mask>
      <rect width="195" height="55.586" x="-1.706" y="3.207" fill="#FFA600" fill-opacity=".15" stroke="#FFA600" stroke-width="2" mask="url(#name_sans-extra-f)"/>
    </g>
    <path stroke="#FFA600" stroke-width="2" d="M1415.93094,59.6494687 L1415.93094,106.414072 L1396.28706,106.414864 C1395.44356,106.465491 1394.9963,106.645435 1394.71123,106.874646 C1394.3456,107.168635 1394.11902,107.578024 1394.07154,108.385534 L1394.07154,108.385534 L1394.04853,124.08799 L1493.70795,124.08901 L1493.70795,156.151583 L1458.24378,203.949359 C1471.29571,208.347441 1481.35081,215.987063 1488.16028,226.412482 C1494.79983,236.577738 1498.35299,249.378503 1498.63507,264.365412 L1498.63507,264.365412 L1498.6485,265.306935 L1498.65331,266.309766 C1498.65331,289.144086 1491.15991,307.555973 1477.45252,320.243667 C1463.72962,332.945707 1443.81151,339.894937 1419.07377,339.894937 L1419.07377,339.894937 L1400.63684,339.894937 L1400.63684,291.781641 L1417.87489,291.781641 C1427.56421,291.781641 1434.5826,289.638258 1439.21203,285.36436 C1443.89852,281.037772 1446.19409,274.498342 1446.19409,265.560469 C1446.19409,256.049285 1443.93139,249.146116 1439.28016,244.596947 C1434.65863,240.076824 1427.63162,237.840703 1417.87489,237.840703 L1417.87489,237.840703 L1400.63684,237.840703 L1400.63684,205.57272 L1426.09512,172.801 L1394.04999,172.801 L1394.05146,286.545 L1340.39337,286.545 L1340.39337,108.807562 C1340.39337,93.6130322 1345.02539,81.3117602 1353.44293,72.8180852 C1361.87206,64.312722 1374.07482,59.6494687 1389.10189,59.6494687 L1389.10189,59.6494687 L1415.93094,59.6494687 Z"/>
  </g>
</svg>
