<svg xmlns="http://www.w3.org/2000/svg" xmlns:xlink="http://www.w3.org/1999/xlink" width="1891" height="1159" viewBox="0 0 1891 1159">
  <defs>
    <rect id="optical_sizes-a" width="276" height="1051"/>
  </defs>
  <g fill="none" fill-rule="evenodd">
    <rect width="1891" height="1159" fill="#222"/>
    <path fill="#FFF" fill-rule="nonzero" d="M374.800717,338.531035 C452.48349,338.531035 509.68626,285.388956 509.68626,206.999976 C509.68626,128.610995 452.306938,74.762709 374.800717,74.762709 C297.294495,74.762709 240.974484,128.434443 240.974484,206.999976 C240.974484,285.565508 297.117943,338.531035 374.800717,338.531035 Z M374.800717,287.331025 C329.95657,287.331025 298.706909,254.845502 298.706909,206.999976 C298.706909,159.154449 330.133122,125.962719 374.800717,125.962719 C419.644863,125.962719 451.953835,159.507553 451.953835,206.999976 C451.953835,254.492398 419.821415,287.331025 374.800717,287.331025 Z M584.01455,397.852426 L584.01455,317.168272 L585.250412,317.168272 C598.13869,331.292413 612.969038,338.177932 636.980077,338.177932 C683.236638,338.177932 720.135955,305.162753 720.135955,244.6055 C720.135955,184.048247 682.883534,150.326861 637.333181,150.326861 C610.673865,150.326861 591.959379,161.449622 581.189722,178.928246 L580.130411,178.928246 L576.599376,154.211 L531.578678,154.211 L531.578678,397.852426 L584.01455,397.852426 Z M624.974558,292.80413 C600.786967,292.80413 583.484895,275.855161 583.484895,244.6055 C583.484895,213.708942 601.669726,195.877215 625.151109,195.877215 C648.809045,195.877215 665.934565,214.238598 665.934565,244.428948 C665.934565,274.442747 649.162148,292.80413 624.974558,292.80413 Z M842.839427,335 L842.839427,286.448267 L821.300112,286.448267 C810.530455,286.448267 806.293213,281.328266 806.293213,270.382057 L806.293213,203.645492 L842.839427,203.645492 L842.839427,154.211 L806.293213,154.211 L806.293213,104.95306 L753.857341,114.663406 L753.857341,154.211 L728.786991,154.211 L728.786991,203.645492 L753.857341,203.645492 L753.857341,274.442747 C753.857341,316.462065 774.160793,335 812.825628,335 L842.839427,335 Z M921.404959,127.728236 L921.404959,78.2937441 L865.614604,78.2937441 L865.614604,127.728236 L921.404959,127.728236 Z M919.815993,335 L919.815993,154.211 L867.203569,154.211 L867.203569,335 L919.815993,335 Z M1038.10567,340.649656 C1070.76775,340.649656 1097.42706,327.584826 1114.90569,301.80827 L1076.59395,272.677229 C1066.88361,286.624818 1055.58429,293.157233 1038.10567,293.157233 C1012.15256,293.157233 994.497387,274.442747 994.497387,244.958604 C994.497387,215.297908 1012.32911,196.230318 1038.10567,196.230318 C1055.40774,196.230318 1066.70706,203.115837 1076.4174,216.886874 L1114.90569,187.579282 C1097.42706,161.979277 1070.76775,148.737896 1039.16498,148.737896 C981.432557,148.737896 941.708411,188.991696 941.708411,245.135155 C941.708411,300.572407 981.256005,340.649656 1038.10567,340.649656 Z M1187.29191,338.00138 C1212.53881,338.00138 1231.07674,329.879999 1242.37605,311.518616 L1243.78847,311.518616 L1247.14295,335 L1289.33882,335 L1289.33882,229.951704 C1289.33882,178.928246 1263.03261,149.797206 1210.24363,149.797206 C1178.46432,149.797206 1152.86431,164.27445 1136.0919,186.696523 L1172.46156,213.708942 C1181.11259,201.526871 1192.58846,194.111697 1208.83122,194.111697 C1228.07536,194.111697 1238.13881,204.351699 1238.13881,220.771013 L1238.13881,225.714462 L1190.82294,225.714462 C1149.86293,225.714462 1125.32224,247.60688 1125.32224,281.857921 C1125.32224,315.755858 1149.15673,338.00138 1187.29191,338.00138 Z M1197.53191,297.394476 C1183.40777,297.394476 1175.63949,290.862061 1175.63949,279.386196 C1175.63949,268.263436 1183.40777,261.731021 1197.70846,261.731021 L1238.13881,261.731021 L1238.13881,262.437228 C1238.13881,283.446887 1221.89605,297.394476 1197.53191,297.394476 Z M1381.85194,335 L1381.85194,288.213784 L1373.73056,288.213784 C1368.43401,288.213784 1366.31539,286.095163 1366.31539,280.975162 L1366.31539,78.2937441 L1313.70296,78.2937441 L1313.70296,285.74206 C1313.70296,320.169652 1330.12228,335 1360.84228,335 L1381.85194,335 Z M1570.40922,338.531035 C1630.43682,338.531035 1669.45476,307.104822 1669.45476,258.376537 C1669.45476,223.772393 1650.38717,199.937905 1607.66164,185.460661 L1567.58439,171.866176 C1548.34025,165.333761 1542.16094,157.918587 1542.16094,145.736516 C1542.16094,130.906168 1553.2837,122.431684 1572.52784,122.431684 C1591.24233,122.431684 1605.18992,130.553064 1617.01888,146.972378 L1656.03682,115.722717 C1636.08647,88.3571943 1609.42716,74.762709 1572.52784,74.762709 C1522.03404,74.762709 1488.31265,104.776508 1488.31265,148.384792 C1488.31265,183.518592 1510.02852,208.059286 1548.69335,220.771013 L1588.24095,233.835843 C1606.95543,240.015154 1614.0175,247.959983 1614.0175,261.554469 C1614.0175,280.79861 1597.95129,290.862061 1573.23405,290.862061 C1545.33887,290.862061 1527.6837,278.503438 1511.61749,255.022054 L1470.48093,287.507577 C1494.31541,323.171032 1523.97611,338.531035 1570.40922,338.531035 Z M1743.25339,127.728236 L1743.25339,78.2937441 L1687.46304,78.2937441 L1687.46304,127.728236 L1743.25339,127.728236 Z M1741.66443,335 L1741.66443,154.211 L1689.052,154.211 L1689.052,335 L1741.66443,335 Z M1913.62584,335 L1921.21756,288.213784 L1836.47272,288.213784 L1836.47272,287.154474 L1914.8617,184.931006 L1914.8617,154.211 L1764.61615,154.211 L1764.61615,200.997216 L1842.82858,200.997216 L1842.82858,202.40963 L1764.61615,304.279994 L1764.61615,335 L1913.62584,335 Z M2019.20379,341.00276 C2052.57207,341.00276 2079.23139,328.114481 2095.6507,304.986201 L2058.04518,277.091023 C2049.92379,289.449646 2037.21207,296.511717 2019.20379,296.511717 C1997.13482,296.511717 1982.30447,283.79999 1978.59688,262.084124 L2108.00932,262.084124 C2114.71829,193.935146 2079.05483,148.031688 2017.96793,148.031688 C1962.00102,148.031688 1924.57205,188.285489 1924.57205,244.958604 C1924.57205,301.631718 1962.00102,341.00276 2019.20379,341.00276 Z M2056.27966,225.184807 L1979.12654,225.184807 C1983.18723,204.351699 1996.60516,192.699283 2017.96793,192.699283 C2040.0369,192.699283 2053.45483,204.704803 2056.27966,225.184807 Z"/>
    <path fill="#FFA600" fill-rule="nonzero" d="M104.915144 89L104.915144 81.265625 105.087019 81.265625 110.938582 89 112.243269 89 112.243269 77.640625 110.446394 77.640625 110.446394 85.3828125 110.290144 85.3828125 104.430769 77.640625 103.118269 77.640625 103.118269 89 104.915144 89zM117.500962 89L118.336899 86.7421875 123.227524 86.7421875 124.063462 89 126.102524 89 121.500962 77.6015625 120.149399 77.6015625 115.547837 89 117.500962 89zM122.672837 85.2421875L118.891587 85.2421875 120.665024 80.453125 120.907212 80.453125 122.672837 85.2421875zM131.149279 89L131.149279 81.921875 131.328966 81.921875 134.524279 89 135.657091 89 138.852404 81.921875 139.032091 81.921875 139.032091 89 140.766466 89 140.766466 77.640625 139.133654 77.640625 135.203966 86.296875 135.039904 86.296875 131.086779 77.640625 129.407091 77.640625 129.407091 89 131.149279 89zM152.883534 89L152.883534 87.453125 147.141346 87.453125 147.141346 83.9453125 150.617909 83.9453125 150.617909 82.4140625 147.141346 82.4140625 147.141346 79.1875 152.680409 79.1875 152.680409 77.640625 145.336659 77.640625 145.336659 89 152.883534 89zM166.062981 89.21875C168.727043 89.21875 170.211418 87.7578125 170.211418 85.8125 170.211418 84.2109375 169.477043 83.2265625 167.406731 82.5390625L165.812981 82.015625C164.602043 81.6171875 164.227043 81.1640625 164.227043 80.3984375 164.227043 79.578125 164.875481 78.9296875 166.273918 78.9296875 167.328606 78.9296875 167.984856 79.3671875 168.492668 80.09375L169.883293 79.234375C169.133293 78.140625 168.070793 77.421875 166.289543 77.421875 163.961418 77.421875 162.531731 78.7109375 162.531731 80.453125 162.531731 82.0390625 163.375481 83.015625 165.008293 83.546875L166.648918 84.0859375C168.078606 84.5546875 168.484856 85.1171875 168.484856 85.953125 168.484856 86.9609375 167.656731 87.6953125 166.062981 87.6953125 164.703606 87.6953125 163.922356 87.171875 163.297356 86.140625L161.883293 86.984375C162.695793 88.421875 163.906731 89.21875 166.062981 89.21875zM174.539423 89L175.375361 86.7421875 180.265986 86.7421875 181.101923 89 183.140986 89 178.539423 77.6015625 177.187861 77.6015625 172.586298 89 174.539423 89zM179.711298 85.2421875L175.930048 85.2421875 177.703486 80.453125 177.945673 80.453125 179.711298 85.2421875zM188.242428 89L188.242428 81.265625 188.414303 81.265625 194.265865 89 195.570553 89 195.570553 77.640625 193.773678 77.640625 193.773678 85.3828125 193.617428 85.3828125 187.758053 77.640625 186.445553 77.640625 186.445553 89 188.242428 89zM203.09387 89.21875C205.757933 89.21875 207.242308 87.7578125 207.242308 85.8125 207.242308 84.2109375 206.507933 83.2265625 204.43762 82.5390625L202.84387 82.015625C201.632933 81.6171875 201.257933 81.1640625 201.257933 80.3984375 201.257933 79.578125 201.90637 78.9296875 203.304808 78.9296875 204.359495 78.9296875 205.015745 79.3671875 205.523558 80.09375L206.914183 79.234375C206.164183 78.140625 205.101683 77.421875 203.320433 77.421875 200.992308 77.421875 199.56262 78.7109375 199.56262 80.453125 199.56262 82.0390625 200.40637 83.015625 202.039183 83.546875L203.679808 84.0859375C205.109495 84.5546875 205.515745 85.1171875 205.515745 85.953125 205.515745 86.9609375 204.68762 87.6953125 203.09387 87.6953125 201.734495 87.6953125 200.953245 87.171875 200.328245 86.140625L198.914183 86.984375C199.726683 88.421875 200.93762 89.21875 203.09387 89.21875zM81.4233173 108C84.9155048 108 87.0951923 105.890625 87.0951923 102.335938 87.0951923 98.78125 84.9155048 96.640625 81.4076923 96.640625L77.8451923 96.640625 77.8451923 108 81.4233173 108zM81.4311298 106.320312L79.6498798 106.320312 79.6498798 98.3203125 81.4311298 98.3203125C83.8764423 98.3203125 85.2670673 99.7109375 85.2670673 102.328125 85.2670673 104.945312 83.8764423 106.320312 81.4311298 106.320312zM92.8450721 108L92.8450721 96.640625 91.0403846 96.640625 91.0403846 108 92.8450721 108zM100.454327 108.21875C103.118389 108.21875 104.602764 106.757812 104.602764 104.8125 104.602764 103.210938 103.868389 102.226562 101.798077 101.539062L100.204327 101.015625C98.9933894 100.617188 98.6183894 100.164062 98.6183894 99.3984375 98.6183894 98.578125 99.2668269 97.9296875 100.665264 97.9296875 101.719952 97.9296875 102.376202 98.3671875 102.884014 99.09375L104.274639 98.234375C103.524639 97.140625 102.462139 96.421875 100.680889 96.421875 98.3527644 96.421875 96.9230769 97.7109375 96.9230769 99.453125 96.9230769 101.039062 97.7668269 102.015625 99.3996394 102.546875L101.040264 103.085938C102.469952 103.554688 102.876202 104.117188 102.876202 104.953125 102.876202 105.960938 102.048077 106.695312 100.454327 106.695312 99.0949519 106.695312 98.3137019 106.171875 97.6887019 105.140625L96.2746394 105.984375C97.0871394 107.421875 98.2980769 108.21875 100.454327 108.21875zM110.204207 108L110.204207 103.914062 112.383894 103.914062C114.868269 103.914062 116.321394 102.515625 116.321394 100.265625 116.321394 98.0859375 114.868269 96.640625 112.368269 96.640625L108.391707 96.640625 108.391707 108 110.204207 108zM112.282332 102.351562L110.204207 102.351562 110.204207 98.1953125 112.282332 98.1953125C113.751082 98.1953125 114.508894 99.078125 114.508894 100.28125 114.508894 101.53125 113.743269 102.351562 112.282332 102.351562zM127.157212 108L127.157212 106.382812 121.930649 106.382812 121.930649 96.640625 120.125962 96.640625 120.125962 108 127.157212 108zM131.618029 108L132.453966 105.742188 137.344591 105.742188 138.180529 108 140.219591 108 135.618029 96.6015625 134.266466 96.6015625 129.664904 108 131.618029 108zM136.789904 104.242188L133.008654 104.242188 134.782091 99.453125 135.024279 99.453125 136.789904 104.242188zM146.656971 108L146.656971 103.304688 151.031971 96.640625 148.977284 96.640625 145.899159 101.78125 145.641346 101.78125 142.672596 96.640625 140.516346 96.640625 144.836659 103.304688 144.836659 108 146.656971 108zM165.156731 108C167.531731 108 168.977043 106.867188 168.977043 104.78125 168.977043 103.414062 168.227043 102.484375 166.734856 102.164062L166.734856 101.960938C167.891106 101.632812 168.641106 100.859375 168.641106 99.5703125 168.641106 97.7890625 167.320793 96.640625 164.781731 96.640625L160.687981 96.640625 160.687981 108 165.156731 108zM164.766106 101.492188L162.500481 101.492188 162.500481 98.1875 164.758293 98.1875C166.203606 98.1875 166.836418 98.78125 166.836418 99.78125 166.836418 100.90625 166.234856 101.492188 164.766106 101.492188zM165.039543 106.453125L162.500481 106.453125 162.500481 102.890625 165.031731 102.890625C166.516106 102.890625 167.172356 103.4375 167.172356 104.664062 167.172356 105.929688 166.344231 106.453125 165.039543 106.453125zM177.703486 108.21875C181.015986 108.21875 183.226923 105.90625 183.226923 102.335938 183.226923 98.765625 181.015986 96.421875 177.703486 96.421875 174.390986 96.421875 172.226923 98.765625 172.226923 102.335938 172.226923 105.90625 174.398798 108.21875 177.703486 108.21875zM177.703486 106.554688C175.383173 106.554688 174.055048 104.9375 174.055048 102.335938 174.055048 99.7421875 175.375361 98.0859375 177.703486 98.0859375 180.031611 98.0859375 181.398798 99.7421875 181.398798 102.335938 181.398798 104.9375 180.023798 106.554688 177.703486 106.554688zM194.109615 108L194.109615 106.382812 188.883053 106.382812 188.883053 96.640625 187.078365 96.640625 187.078365 108 194.109615 108zM201.507933 108C205.00012 108 207.179808 105.890625 207.179808 102.335938 207.179808 98.78125 205.00012 96.640625 201.492308 96.640625L197.929808 96.640625 197.929808 108 201.507933 108zM201.515745 106.320312L199.734495 106.320312 199.734495 98.3203125 201.515745 98.3203125C203.961058 98.3203125 205.351683 99.7109375 205.351683 102.328125 205.351683 104.945312 203.961058 106.320312 201.515745 106.320312zM104.915144 428L104.915144 420.265625 105.087019 420.265625 110.938582 428 112.243269 428 112.243269 416.640625 110.446394 416.640625 110.446394 424.382812 110.290144 424.382812 104.430769 416.640625 103.118269 416.640625 103.118269 428 104.915144 428zM117.500962 428L118.336899 425.742188 123.227524 425.742188 124.063462 428 126.102524 428 121.500962 416.601562 120.149399 416.601562 115.547837 428 117.500962 428zM122.672837 424.242188L118.891587 424.242188 120.665024 419.453125 120.907212 419.453125 122.672837 424.242188zM131.149279 428L131.149279 420.921875 131.328966 420.921875 134.524279 428 135.657091 428 138.852404 420.921875 139.032091 420.921875 139.032091 428 140.766466 428 140.766466 416.640625 139.133654 416.640625 135.203966 425.296875 135.039904 425.296875 131.086779 416.640625 129.407091 416.640625 129.407091 428 131.149279 428zM152.883534 428L152.883534 426.453125 147.141346 426.453125 147.141346 422.945312 150.617909 422.945312 150.617909 421.414062 147.141346 421.414062 147.141346 418.1875 152.680409 418.1875 152.680409 416.640625 145.336659 416.640625 145.336659 428 152.883534 428zM166.062981 428.21875C168.727043 428.21875 170.211418 426.757812 170.211418 424.8125 170.211418 423.210938 169.477043 422.226562 167.406731 421.539062L165.812981 421.015625C164.602043 420.617188 164.227043 420.164062 164.227043 419.398438 164.227043 418.578125 164.875481 417.929688 166.273918 417.929688 167.328606 417.929688 167.984856 418.367188 168.492668 419.09375L169.883293 418.234375C169.133293 417.140625 168.070793 416.421875 166.289543 416.421875 163.961418 416.421875 162.531731 417.710938 162.531731 419.453125 162.531731 421.039062 163.375481 422.015625 165.008293 422.546875L166.648918 423.085938C168.078606 423.554688 168.484856 424.117188 168.484856 424.953125 168.484856 425.960938 167.656731 426.695312 166.062981 426.695312 164.703606 426.695312 163.922356 426.171875 163.297356 425.140625L161.883293 425.984375C162.695793 427.421875 163.906731 428.21875 166.062981 428.21875zM174.539423 428L175.375361 425.742188 180.265986 425.742188 181.101923 428 183.140986 428 178.539423 416.601562 177.187861 416.601562 172.586298 428 174.539423 428zM179.711298 424.242188L175.930048 424.242188 177.703486 419.453125 177.945673 419.453125 179.711298 424.242188zM188.242428 428L188.242428 420.265625 188.414303 420.265625 194.265865 428 195.570553 428 195.570553 416.640625 193.773678 416.640625 193.773678 424.382812 193.617428 424.382812 187.758053 416.640625 186.445553 416.640625 186.445553 428 188.242428 428zM203.09387 428.21875C205.757933 428.21875 207.242308 426.757812 207.242308 424.8125 207.242308 423.210938 206.507933 422.226562 204.43762 421.539062L202.84387 421.015625C201.632933 420.617188 201.257933 420.164062 201.257933 419.398438 201.257933 418.578125 201.90637 417.929688 203.304808 417.929688 204.359495 417.929688 205.015745 418.367188 205.523558 419.09375L206.914183 418.234375C206.164183 417.140625 205.101683 416.421875 203.320433 416.421875 200.992308 416.421875 199.56262 417.710938 199.56262 419.453125 199.56262 421.039062 200.40637 422.015625 202.039183 422.546875L203.679808 423.085938C205.109495 423.554688 205.515745 424.117188 205.515745 424.953125 205.515745 425.960938 204.68762 426.695312 203.09387 426.695312 201.734495 426.695312 200.953245 426.171875 200.328245 425.140625L198.914183 425.984375C199.726683 427.421875 200.93762 428.21875 203.09387 428.21875zM59.3453125 447.21875C62.009375 447.21875 63.49375 445.757812 63.49375 443.8125 63.49375 442.210938 62.759375 441.226562 60.6890625 440.539062L59.0953125 440.015625C57.884375 439.617188 57.509375 439.164062 57.509375 438.398438 57.509375 437.578125 58.1578125 436.929688 59.55625 436.929688 60.6109375 436.929688 61.2671875 437.367188 61.775 438.09375L63.165625 437.234375C62.415625 436.140625 61.353125 435.421875 59.571875 435.421875 57.24375 435.421875 55.8140625 436.710938 55.8140625 438.453125 55.8140625 440.039062 56.6578125 441.015625 58.290625 441.546875L59.93125 442.085938C61.3609375 442.554688 61.7671875 443.117188 61.7671875 443.953125 61.7671875 444.960938 60.9390625 445.695312 59.3453125 445.695312 57.9859375 445.695312 57.2046875 445.171875 56.5796875 444.140625L55.165625 444.984375C55.978125 446.421875 57.1890625 447.21875 59.3453125 447.21875zM71.6264423 447L71.6264423 437.21875 75.1342548 437.21875 75.1342548 435.640625 66.2748798 435.640625 66.2748798 437.21875 69.8061298 437.21875 69.8061298 447 71.6264423 447zM78.3216346 447L79.1575721 444.742188 84.0481971 444.742188 84.8841346 447 86.9231971 447 82.3216346 435.601562 80.9700721 435.601562 76.3685096 447 78.3216346 447zM83.4935096 443.242188L79.7122596 443.242188 81.4856971 438.453125 81.7278846 438.453125 83.4935096 443.242188zM92.0246394 447L92.0246394 439.265625 92.1965144 439.265625 98.0480769 447 99.3527644 447 99.3527644 435.640625 97.5558894 435.640625 97.5558894 443.382812 97.3996394 443.382812 91.5402644 435.640625 90.2277644 435.640625 90.2277644 447 92.0246394 447zM107.501082 447C110.993269 447 113.172957 444.890625 113.172957 441.335938 113.172957 437.78125 110.993269 435.640625 107.485457 435.640625L103.922957 435.640625 103.922957 447 107.501082 447zM107.508894 445.320312L105.727644 445.320312 105.727644 437.320312 107.508894 437.320312C109.954207 437.320312 111.344832 438.710938 111.344832 441.328125 111.344832 443.945312 109.954207 445.320312 107.508894 445.320312zM117.329087 447L118.165024 444.742188 123.055649 444.742188 123.891587 447 125.930649 447 121.329087 435.601562 119.977524 435.601562 115.375962 447 117.329087 447zM122.500962 443.242188L118.719712 443.242188 120.493149 438.453125 120.735337 438.453125 122.500962 443.242188zM131.039904 447L131.039904 442.8125 133.258654 442.8125 135.414904 447 137.446154 447 135.024279 442.5625C136.461779 442.070312 137.266466 440.875 137.266466 439.210938 137.266466 437.0625 135.836779 435.640625 133.368029 435.640625L129.235216 435.640625 129.235216 447 131.039904 447zM133.282091 441.234375L131.039904 441.234375 131.039904 437.195312 133.282091 437.195312C134.711779 437.195312 135.453966 438.0625 135.453966 439.226562 135.453966 440.445312 134.703966 441.234375 133.282091 441.234375zM144.852284 447C148.344471 447 150.524159 444.890625 150.524159 441.335938 150.524159 437.78125 148.344471 435.640625 144.836659 435.640625L141.274159 435.640625 141.274159 447 144.852284 447zM144.860096 445.320312L143.078846 445.320312 143.078846 437.320312 144.860096 437.320312C147.305409 437.320312 148.696034 438.710938 148.696034 441.328125 148.696034 443.945312 147.305409 445.320312 144.860096 445.320312zM165.156731 447C167.531731 447 168.977043 445.867188 168.977043 443.78125 168.977043 442.414062 168.227043 441.484375 166.734856 441.164062L166.734856 440.960938C167.891106 440.632812 168.641106 439.859375 168.641106 438.570312 168.641106 436.789062 167.320793 435.640625 164.781731 435.640625L160.687981 435.640625 160.687981 447 165.156731 447zM164.766106 440.492188L162.500481 440.492188 162.500481 437.1875 164.758293 437.1875C166.203606 437.1875 166.836418 437.78125 166.836418 438.78125 166.836418 439.90625 166.234856 440.492188 164.766106 440.492188zM165.039543 445.453125L162.500481 445.453125 162.500481 441.890625 165.031731 441.890625C166.516106 441.890625 167.172356 442.4375 167.172356 443.664062 167.172356 444.929688 166.344231 445.453125 165.039543 445.453125zM177.703486 447.21875C181.015986 447.21875 183.226923 444.90625 183.226923 441.335938 183.226923 437.765625 181.015986 435.421875 177.703486 435.421875 174.390986 435.421875 172.226923 437.765625 172.226923 441.335938 172.226923 444.90625 174.398798 447.21875 177.703486 447.21875zM177.703486 445.554688C175.383173 445.554688 174.055048 443.9375 174.055048 441.335938 174.055048 438.742188 175.375361 437.085938 177.703486 437.085938 180.031611 437.085938 181.398798 438.742188 181.398798 441.335938 181.398798 443.9375 180.023798 445.554688 177.703486 445.554688zM194.109615 447L194.109615 445.382812 188.883053 445.382812 188.883053 435.640625 187.078365 435.640625 187.078365 447 194.109615 447zM201.507933 447C205.00012 447 207.179808 444.890625 207.179808 441.335938 207.179808 437.78125 205.00012 435.640625 201.492308 435.640625L197.929808 435.640625 197.929808 447 201.507933 447zM201.515745 445.320312L199.734495 445.320312 199.734495 437.320312 201.515745 437.320312C203.961058 437.320312 205.351683 438.710938 205.351683 441.328125 205.351683 443.945312 203.961058 445.320312 201.515745 445.320312zM104.915144 777L104.915144 769.265625 105.087019 769.265625 110.938582 777 112.243269 777 112.243269 765.640625 110.446394 765.640625 110.446394 773.382812 110.290144 773.382812 104.430769 765.640625 103.118269 765.640625 103.118269 777 104.915144 777zM117.500962 777L118.336899 774.742188 123.227524 774.742188 124.063462 777 126.102524 777 121.500962 765.601562 120.149399 765.601562 115.547837 777 117.500962 777zM122.672837 773.242188L118.891587 773.242188 120.665024 768.453125 120.907212 768.453125 122.672837 773.242188zM131.149279 777L131.149279 769.921875 131.328966 769.921875 134.524279 777 135.657091 777 138.852404 769.921875 139.032091 769.921875 139.032091 777 140.766466 777 140.766466 765.640625 139.133654 765.640625 135.203966 774.296875 135.039904 774.296875 131.086779 765.640625 129.407091 765.640625 129.407091 777 131.149279 777zM152.883534 777L152.883534 775.453125 147.141346 775.453125 147.141346 771.945312 150.617909 771.945312 150.617909 770.414062 147.141346 770.414062 147.141346 767.1875 152.680409 767.1875 152.680409 765.640625 145.336659 765.640625 145.336659 777 152.883534 777zM166.062981 777.21875C168.727043 777.21875 170.211418 775.757812 170.211418 773.8125 170.211418 772.210938 169.477043 771.226562 167.406731 770.539062L165.812981 770.015625C164.602043 769.617188 164.227043 769.164062 164.227043 768.398438 164.227043 767.578125 164.875481 766.929688 166.273918 766.929688 167.328606 766.929688 167.984856 767.367188 168.492668 768.09375L169.883293 767.234375C169.133293 766.140625 168.070793 765.421875 166.289543 765.421875 163.961418 765.421875 162.531731 766.710938 162.531731 768.453125 162.531731 770.039062 163.375481 771.015625 165.008293 771.546875L166.648918 772.085938C168.078606 772.554688 168.484856 773.117188 168.484856 773.953125 168.484856 774.960938 167.656731 775.695312 166.062981 775.695312 164.703606 775.695312 163.922356 775.171875 163.297356 774.140625L161.883293 774.984375C162.695793 776.421875 163.906731 777.21875 166.062981 777.21875zM174.539423 777L175.375361 774.742188 180.265986 774.742188 181.101923 777 183.140986 777 178.539423 765.601562 177.187861 765.601562 172.586298 777 174.539423 777zM179.711298 773.242188L175.930048 773.242188 177.703486 768.453125 177.945673 768.453125 179.711298 773.242188zM188.242428 777L188.242428 769.265625 188.414303 769.265625 194.265865 777 195.570553 777 195.570553 765.640625 193.773678 765.640625 193.773678 773.382812 193.617428 773.382812 187.758053 765.640625 186.445553 765.640625 186.445553 777 188.242428 777zM203.09387 777.21875C205.757933 777.21875 207.242308 775.757812 207.242308 773.8125 207.242308 772.210938 206.507933 771.226562 204.43762 770.539062L202.84387 770.015625C201.632933 769.617188 201.257933 769.164062 201.257933 768.398438 201.257933 767.578125 201.90637 766.929688 203.304808 766.929688 204.359495 766.929688 205.015745 767.367188 205.523558 768.09375L206.914183 767.234375C206.164183 766.140625 205.101683 765.421875 203.320433 765.421875 200.992308 765.421875 199.56262 766.710938 199.56262 768.453125 199.56262 770.039062 200.40637 771.015625 202.039183 771.546875L203.679808 772.085938C205.109495 772.554688 205.515745 773.117188 205.515745 773.953125 205.515745 774.960938 204.68762 775.695312 203.09387 775.695312 201.734495 775.695312 200.953245 775.171875 200.328245 774.140625L198.914183 774.984375C199.726683 776.421875 200.93762 777.21875 203.09387 777.21875zM111.469832 796L111.469832 786.21875 114.977644 786.21875 114.977644 784.640625 106.118269 784.640625 106.118269 786.21875 109.649519 786.21875 109.649519 796 111.469832 796zM126.266587 796L126.266587 794.453125 120.524399 794.453125 120.524399 790.945312 124.000962 790.945312 124.000962 789.414062 120.524399 789.414062 120.524399 786.1875 126.063462 786.1875 126.063462 784.640625 118.719712 784.640625 118.719712 796 126.266587 796zM131.172716 796L133.860216 791.515625 134.102404 791.515625 137.039904 796 139.149279 796 135.250841 790.125 138.899279 784.640625 136.828966 784.640625 134.414904 788.789062 134.180529 788.789062 131.493029 784.640625 129.360216 784.640625 133.008654 790.125 129.063341 796 131.172716 796zM147.125721 796L147.125721 786.21875 150.633534 786.21875 150.633534 784.640625 141.774159 784.640625 141.774159 786.21875 145.305409 786.21875 145.305409 796 147.125721 796zM165.156731 796C167.531731 796 168.977043 794.867188 168.977043 792.78125 168.977043 791.414062 168.227043 790.484375 166.734856 790.164062L166.734856 789.960938C167.891106 789.632812 168.641106 788.859375 168.641106 787.570312 168.641106 785.789062 167.320793 784.640625 164.781731 784.640625L160.687981 784.640625 160.687981 796 165.156731 796zM164.766106 789.492188L162.500481 789.492188 162.500481 786.1875 164.758293 786.1875C166.203606 786.1875 166.836418 786.78125 166.836418 787.78125 166.836418 788.90625 166.234856 789.492188 164.766106 789.492188zM165.039543 794.453125L162.500481 794.453125 162.500481 790.890625 165.031731 790.890625C166.516106 790.890625 167.172356 791.4375 167.172356 792.664062 167.172356 793.929688 166.344231 794.453125 165.039543 794.453125zM177.703486 796.21875C181.015986 796.21875 183.226923 793.90625 183.226923 790.335938 183.226923 786.765625 181.015986 784.421875 177.703486 784.421875 174.390986 784.421875 172.226923 786.765625 172.226923 790.335938 172.226923 793.90625 174.398798 796.21875 177.703486 796.21875zM177.703486 794.554688C175.383173 794.554688 174.055048 792.9375 174.055048 790.335938 174.055048 787.742188 175.375361 786.085938 177.703486 786.085938 180.031611 786.085938 181.398798 787.742188 181.398798 790.335938 181.398798 792.9375 180.023798 794.554688 177.703486 794.554688zM194.109615 796L194.109615 794.382812 188.883053 794.382812 188.883053 784.640625 187.078365 784.640625 187.078365 796 194.109615 796zM201.507933 796C205.00012 796 207.179808 793.890625 207.179808 790.335938 207.179808 786.78125 205.00012 784.640625 201.492308 784.640625L197.929808 784.640625 197.929808 796 201.507933 796zM201.515745 794.320312L199.734495 794.320312 199.734495 786.320312 201.515745 786.320312C203.961058 786.320312 205.351683 787.710938 205.351683 790.328125 205.351683 792.945312 203.961058 794.320312 201.515745 794.320312z"/>
    <path fill="#FFF" fill-rule="nonzero" d="M371.15382 683.237242C448.306938 683.237242 502.508328 630.448267 502.508328 550.999976 502.508328 471.375133 448.306938 417.87995 371.15382 417.87995 294.000702 417.87995 240.858623 471.375133 240.858623 550.999976 240.858623 630.448267 293.82415 683.237242 371.15382 683.237242zM371.15382 632.037232C325.426915 632.037232 297.884841 600.257916 297.884841 550.999976 297.884841 501.742035 325.603467 469.07996 371.15382 469.07996 416.704174 469.07996 445.48211 501.918587 445.48211 550.999976 445.48211 600.081364 416.880726 632.037232 371.15382 632.037232zM587.07662 749.2676L587.07662 654.988961 590.607655 654.988961C601.906968 672.467585 618.149729 682.531035 644.102838 682.531035 690.359398 682.531035 724.963543 648.103442 724.963543 586.486879 724.963543 524.693764 690.182847 490.089619 643.749734 490.089619 616.031108 490.089619 596.786967 501.742035 586.370413 523.811005L583.01593 523.811005 578.425584 493.973758 534.287645 493.973758 534.287645 749.2676 587.07662 749.2676zM629.27249 636.980682C603.319382 636.980682 586.900068 618.972402 586.900068 586.486879 586.900068 554.001355 603.849037 535.639973 629.27249 535.639973 654.872495 535.639973 670.938705 554.001355 670.938705 586.310327 670.938705 618.619299 655.049047 636.980682 629.27249 636.980682zM860.731845 679L860.731845 631.331025 828.06977 631.331025C822.06701 631.331025 819.595285 628.506197 819.595285 622.326886L819.595285 541.466181 860.731845 541.466181 860.731845 493.973758 819.595285 493.973758 819.595285 443.656507 766.982861 452.484095 766.982861 493.973758 739.617339 493.973758 739.617339 541.466181 766.982861 541.466181 766.982861 624.622059C766.982861 662.227583 786.050451 679 821.713906 679L860.731845 679zM950.596689 468.726856L950.596689 417.703398 892.687713 417.703398 892.687713 468.726856 950.596689 468.726856zM948.124965 679L948.124965 493.973758 895.335989 493.973758 895.335989 679 948.124965 679zM1074.00637 684.296553C1107.37465 684.296553 1132.7981 672.291033 1151.15949 644.219304L1111.965 616.324126C1103.13741 630.977922 1091.13189 637.157233 1074.18292 637.157233 1046.99395 637.157233 1031.98705 617.030333 1031.98705 586.663431 1031.98705 556.119977 1047.1705 535.639973 1074.18292 535.639973 1090.60223 535.639973 1102.7843 542.348939 1111.78844 556.47308L1151.15949 529.107558C1132.62155 500.682725 1107.1981 488.500653 1074.53602 488.500653 1016.62705 488.500653 979.021522 529.284109 979.021522 586.663431 979.021522 643.8662 1016.62705 684.296553 1074.00637 684.296553zM1229.37192 682.177932C1254.79537 682.177932 1274.03951 672.820688 1283.74986 651.634478L1287.634 651.634478 1291.34158 679 1333.714 679 1333.714 569.008255C1333.714 517.455142 1307.23124 489.383412 1254.79537 489.383412 1221.95674 489.383412 1195.47398 502.27169 1176.75949 524.517212L1212.06984 553.295148C1222.4864 539.877215 1234.84502 532.285489 1253.2064 532.285489 1272.9802 532.285489 1282.33744 542.525491 1282.33744 561.946185L1282.33744 569.184807 1236.25743 569.184807C1193.35536 569.184807 1168.28501 591.60688 1168.28501 625.151714 1168.28501 659.93241 1191.94294 682.177932 1229.37192 682.177932zM1242.6133 642.80689C1227.07674 642.80689 1218.95536 634.862061 1218.95536 622.326886 1218.95536 610.144814 1226.72364 602.376537 1242.08364 602.376537L1282.33744 602.376537 1282.33744 605.377917C1282.33744 628.329646 1266.80089 642.80689 1242.6133 642.80689zM1443.5292 679L1443.5292 631.331025 1428.69885 631.331025C1424.63816 631.331025 1423.04919 629.74206 1423.04919 625.857921L1423.04919 417.703398 1370.61332 417.703398 1370.61332 630.448267C1370.61332 664.169652 1387.38574 679 1418.2823 679L1443.5292 679zM1646.38717 683.06069C1707.29752 683.06069 1743.84374 649.86896 1743.84374 602.906192 1743.84374 567.066186 1726.01201 543.40825 1681.87407 528.577902L1643.73889 515.866176C1623.25889 508.980657 1617.25613 501.21238 1617.25613 488.677205 1617.25613 474.376513 1628.37889 465.01927 1650.27131 465.01927 1669.51545 465.01927 1682.40373 473.14065 1693.52649 489.030309L1734.30994 460.428924C1715.94856 433.593057 1690.172 418.056502 1650.44786 418.056502 1598.71819 418.056502 1564.2906 448.070301 1564.2906 490.972378 1564.2906 527.518592 1585.30026 551.706183 1622.02302 563.711702L1660.51131 576.423429C1682.75683 583.838603 1689.64235 593.019294 1689.64235 606.613779 1689.64235 624.445507 1674.63545 635.921371 1647.79958 635.921371 1621.31682 635.921371 1605.25061 624.975162 1590.77336 602.553089L1548.40094 631.684129C1569.58715 666.111722 1598.18854 683.06069 1646.38717 683.06069zM1829.47134 468.726856L1829.47134 417.703398 1771.56236 417.703398 1771.56236 468.726856 1829.47134 468.726856zM1826.99962 679L1826.99962 493.973758 1774.21064 493.973758 1774.21064 679 1826.99962 679zM2011.31965 679L2019.26448 632.037232 1933.28377 632.037232 1933.28377 628.506197 2012.20241 525.046867 2012.20241 493.973758 1860.54445 493.973758 1860.54445 540.936525 1939.10998 540.936525 1939.10998 544.997216 1860.54445 647.926891 1860.54445 679 2011.31965 679zM2127.49071 685.179312C2160.85899 685.179312 2186.28244 673.879999 2204.46727 652.693788L2170.92244 622.150334C2160.50589 634.508957 2146.9114 641.394476 2127.66726 641.394476 2102.24381 641.394476 2087.76656 627.623438 2084.58863 603.435848L2215.41348 603.435848C2222.82866 533.697903 2187.87141 487.617895 2125.01898 487.617895 2066.93345 487.617895 2030.9169 528.577902 2030.9169 586.839982 2030.9169 645.102062 2066.22725 685.179312 2127.49071 685.179312zM2164.03692 568.302048L2084.94173 568.302048C2088.64932 544.467561 2103.12656 531.226179 2125.01898 531.226179 2147.79416 531.226179 2161.74175 544.467561 2164.03692 568.302048zM367.330372 1030.12C444.130387 1030.12 495.153845 977.507577 495.153845 896.999976 495.153845 816.315822 444.130387 763.173743 367.330372 763.173743 290.530357 763.173743 240.742762 816.315822 240.742762 896.999976 240.742762 977.507577 290.530357 1030.12 367.330372 1030.12zM367.330372 978.919991C320.89726 978.919991 296.886221 947.67033 296.886221 896.999976 296.886221 846.329621 320.89726 814.373753 367.330372 814.373753 413.763484 814.373753 439.010386 846.329621 439.010386 896.999976 439.010386 947.67033 413.763484 978.919991 367.330372 978.919991zM589.962139 1102.68277L589.962139 994.986201 595.611795 994.986201C605.498693 1015.81931 623.153869 1028.88414 650.872495 1028.88414 697.129056 1028.88414 729.614579 993.044132 729.614579 930.368258 729.614579 867.515832 697.305607 831.852377 649.813185 831.852377 621.2118 831.852377 601.261451 844.034448 591.374553 870.693764L585.724896 870.693764 580.07524 835.736516 536.82006 835.736516 536.82006 1102.68277 589.962139 1102.68277zM633.217319 983.333785C605.675245 983.333785 590.13869 964.266195 590.13869 930.368258 590.13869 896.293769 605.675245 877.40273 633.217319 877.40273 660.582842 877.40273 675.766293 895.940665 675.766293 930.368258 675.766293 964.795851 660.582842 983.333785 633.217319 983.333785zM878.271159 1025L878.271159 978.390336 834.486323 978.390336C833.073909 978.390336 832.544254 977.860681 832.544254 976.448267L832.544254 881.463421 878.271159 881.463421 878.271159 835.736516 832.544254 835.736516 832.544254 784.536506 779.578727 792.481335 779.578727 835.736516 750.094583 835.736516 750.094583 881.463421 779.578727 881.463421 779.578727 976.977922C779.578727 1010.16965 797.587006 1025 830.072529 1025L878.271159 1025zM979.258765 811.725477L979.258765 759.113053 919.231167 759.113053 919.231167 811.725477 979.258765 811.725477zM975.727729 1025L975.727729 835.736516 922.762202 835.736516 922.762202 1025 975.727729 1025zM1109.20086 1029.94345C1143.4519 1029.94345 1167.81604 1018.82069 1186.70708 988.80689L1146.62983 962.147574C1138.86155 977.507577 1126.14983 983.333785 1109.73051 983.333785 1081.48223 983.333785 1068.77051 961.617919 1068.77051 930.368258 1068.77051 899.118597 1081.48223 877.226179 1109.73051 877.226179 1125.44362 877.226179 1138.50845 883.582042 1146.62983 898.235838L1186.88363 872.812385C1167.28639 841.386172 1143.0988 830.439963 1109.20086 830.439963 1051.11533 830.439963 1015.62843 871.576522 1015.62843 930.368258 1015.62843 989.159993 1051.29188 1029.94345 1109.20086 1029.94345zM1270.39261 1028.35448C1295.99262 1028.35448 1315.94297 1017.76138 1324.06435 993.750339L1330.42021 993.750339 1334.65745 1025 1377.20643 1025 1377.20643 910.064806C1377.20643 857.982037 1350.54711 831.14617 1298.46434 831.14617 1264.56641 831.14617 1237.02433 842.268931 1216.36778 864.3379L1250.61882 895.057906C1262.80089 880.40411 1276.39537 872.635833 1296.69883 872.635833 1316.82573 872.635833 1325.47676 882.875835 1325.47676 905.121356L1325.47676 914.655151 1280.63262 914.655151C1235.96502 914.655151 1210.36502 937.783432 1210.36502 970.622059 1210.36502 1006.10896 1233.8464 1028.35448 1270.39261 1028.35448zM1286.63538 990.395855C1269.86296 990.395855 1261.21192 980.862061 1261.21192 967.444127 1261.21192 954.026193 1269.15675 945.198605 1285.57606 945.198605L1325.47676 945.198605 1325.47676 950.318606C1325.47676 975.212404 1310.82297 990.395855 1286.63538 990.395855zM1504.14714 1025L1504.14714 976.624818 1482.43127 976.624818C1479.783 976.624818 1478.72369 975.565508 1478.72369 972.917231L1478.72369 759.113053 1426.28782 759.113053 1426.28782 977.154474C1426.28782 1010.16965 1443.41334 1025 1474.663 1025L1504.14714 1025zM1721.12925 1029.7669C1783.09892 1029.7669 1817.17341 994.633098 1817.17341 949.612399 1817.17341 912.359979 1800.40099 888.878595 1754.85064 873.695144L1718.83408 861.866176C1696.94166 854.627554 1691.11545 846.506173 1691.11545 833.794446 1691.11545 819.846857 1702.23821 809.783407 1726.95546 809.783407 1746.5527 809.783407 1758.55822 817.904788 1768.79823 833.264791L1811.52375 807.135131C1794.57478 780.828919 1769.68098 763.526847 1727.30856 763.526847 1674.34304 763.526847 1639.20924 793.364094 1639.20924 835.559964 1639.20924 873.518592 1659.51269 897.529631 1694.11683 908.828943L1731.72236 921.187566C1757.49891 929.662051 1764.20788 940.255156 1764.20788 953.849642 1764.20788 970.268955 1750.26029 983.157233 1721.3058 983.157233 1696.23545 983.157233 1681.75821 973.446887 1668.69338 952.084124L1625.08509 978.037232C1643.79958 1011.22896 1671.1651 1029.7669 1721.12925 1029.7669zM1914.62998 811.725477L1914.62998 759.113053 1854.60238 759.113053 1854.60238 811.725477 1914.62998 811.725477zM1911.09894 1025L1911.09894 835.736516 1858.13342 835.736516 1858.13342 1025 1911.09894 1025zM2107.95415 1025L2116.07553 977.860681 2028.85896 977.860681 2028.85896 971.681369 2108.30726 867.162729 2108.30726 835.736516 1955.23688 835.736516 1955.23688 882.875835 2034.33207 882.875835 2034.33207 889.40825 1955.23688 993.573787 1955.23688 1025 2107.95415 1025zM2234.36521 1031.35586C2267.91004 1031.35586 2292.09764 1021.64552 2311.87143 1002.40138L2282.38729 969.386196C2269.67556 981.568268 2255.37487 988.453786 2234.89487 988.453786 2206.11693 988.453786 2191.99279 973.446887 2189.34451 946.964123L2321.40523 946.964123C2329.52661 875.460661 2295.45212 829.380652 2230.65762 829.380652 2170.45347 829.380652 2136.02588 871.046867 2136.02588 930.721361 2136.02588 990.748959 2169.04106 1031.35586 2234.36521 1031.35586zM2270.38177 913.595841L2189.52106 913.595841C2193.0521 886.583422 2208.76521 871.753074 2230.65762 871.753074 2254.31556 871.753074 2268.7928 886.230318 2270.38177 913.595841z"/>
    <g transform="translate(237.25 54)">
      <mask id="optical_sizes-b" fill="#fff">
        <use xlink:href="#optical_sizes-a"/>
      </mask>
      <rect width="274.454" height="1127.433" x=".773" y="-49.981" fill="#FFA600" fill-opacity=".075" stroke="#FFA600" stroke-width="2" mask="url(#optical_sizes-b)"/>
    </g>
  </g>
</svg>
