<svg xmlns="http://www.w3.org/2000/svg" xmlns:xlink="http://www.w3.org/1999/xlink" width="96" height="96" viewBox="0 0 96 96">
  <defs>
    <linearGradient id="arrowtype-blog-favicon-b" x1="0%" y1="40.23%" y2="52.644%">
      <stop offset="0%" stop-color="#FFA745"/>
      <stop offset="39.713%" stop-color="#EF7AC8"/>
      <stop offset="69.681%" stop-color="#A083ED"/>
      <stop offset="100%" stop-color="#43AEFF"/>
    </linearGradient>
    <path id="arrowtype-blog-favicon-a" d="M48.2925208,96 C61.6421053,96 72.598338,92.1750842 80.8952909,84.9023569 L70.5772853,76.983165 C64.833241,81.6700337 57.334072,84.040404 48.2393352,84.040404 C27.8160665,84.040404 13.6155125,70.8956229 13.6155125,48.7542088 C13.6155125,26.0740741 27.7096953,12.1750842 48.5584488,12.1750842 C70.5772853,12.1750842 82.9163435,24.6195286 82.9163435,44.1750842 C82.9163435,54.5185185 80.3102493,58.7744108 75.5235457,58.8282828 C72.33241,58.8821549 70.5772853,57.8585859 70.5772853,55.003367 L70.5772853,26.989899 L60.5783934,26.989899 L60.2060942,30.7609428 L59.7806094,30.7609428 C56.8022161,27.3131313 52.5473684,25.5353535 46.0587258,25.5892256 C34.198338,25.6430976 24.7844875,34.0068704 24.7844875,48.0674765 C24.7844875,61.8587223 34.198338,70.7878788 46.165097,70.7878788 C52.866482,70.7878788 57.4936288,68.6868687 60.6847645,65.023569 L61.2698061,65.023569 C63.6631579,68.6329966 68.2371191,70.5723906 74.1407202,70.5723906 C89.9368421,70.5723906 96,57.9124579 96,44.0673401 C96,18.6936027 78.7146814,0 48.7180055,0 C20.0509695,0 0,19.1784512 0,48.7003367 C0,77.6296296 20.2637119,96 48.2925208,96 Z M48,58.1506265 C41.9606133,58.1506265 37.9693664,54.3169288 37.9693664,48.0674765 C37.9693664,41.5554421 41.9606133,37.8792937 48,37.8792937 C54.2494523,37.8792937 57.9256008,42.185639 57.9256008,47.9624437 L57.9256008,48.0674765 C57.9256008,53.7392484 54.2494523,58.1506265 48,58.1506265 Z"/>
  </defs>
  <g fill="none">
    <use fill="#000" xlink:href="#arrowtype-blog-favicon-a"/>
    <use fill="url(#arrowtype-blog-favicon-b)" xlink:href="#arrowtype-blog-favicon-a"/>
  </g>
</svg>
